<svg xmlns="http://www.w3.org/2000/svg" fill-rule="evenodd" clip-rule="evenodd" viewBox="0 0 96 86"><defs/><path fill="gray" stroke="#000" stroke-width=".185862" d="M3.76 58.03h88.48A3.76 3.76 0 0096 54.27V31.73a3.76 3.76 0 00-3.76-3.76H3.76A3.76 3.76 0 000 31.73v22.54a3.76 3.76 0 003.76 3.76"/><path fill="none" stroke="#000" stroke-width=".185862" d="M3.76 56.86a2.59 2.59 0 01-2.59-2.59V31.73a2.59 2.59 0 012.59-2.59h88.48a2.59 2.59 0 012.59 2.59v22.54a2.59 2.59 0 01-2.59 2.59H3.76z"/><path fill="none" stroke="#000" stroke-width=".185862" d="M78.06 53.9c0 .62-.5 1.12-1.13 1.12H4.03c-.61 0-1.12-.5-1.12-1.12V32.76c0-.62.5-1.13 1.13-1.13h72.9c.61 0 1.12.51 1.12 1.13V53.9zM85.76 53.9c0 .62-.5 1.12-1.13 1.12h-4.7c-.61 0-1.12-.5-1.12-1.12V32.76c0-.62.5-1.13 1.13-1.13h4.7c.61 0 1.12.51 1.12 1.13V53.9z"/><path fill="none" stroke="#000" stroke-linecap="round" stroke-linejoin="round" stroke-miterlimit="10" stroke-width=".185862" d="M94.03 53.9c0 .62-.51 1.12-1.13 1.12h-5.26c-.62 0-1.13-.5-1.13-1.12V43c0-.3.83-1.13 1.13-1.13h5.26c.62 0 1.13.51 1.13 1.13v10.9z"/><path fill="none" stroke="#000" stroke-width=".185862" d="M94.03 40c0 .61-.51 1.12-1.13 1.12h-5.26c-.62 0-1.13-.5-1.13-1.13V38.3c0-.62.51-1.12 1.13-1.12h5.26c.62 0 1.13.5 1.13 1.12V40z"/><path fill-rule="nonzero" d="M4.4 39.4h-.01l-.16.07-.03-.14.22-.1h.16v.81h-.19M13.38 40.04v-.11l.1-.1c.18-.16.27-.25.27-.34 0-.07-.04-.12-.13-.12a.3.3 0 00-.18.06l-.05-.13a.45.45 0 01.27-.09c.18 0 .28.11.28.26 0 .14-.1.24-.22.35l-.07.06h.3v.16M22.62 39.86c.04.01.12.04.2.04.1 0 .14-.04.14-.1 0-.08-.08-.12-.16-.12h-.08v-.14h.07c.07 0 .15-.02.15-.1 0-.04-.04-.08-.12-.08a.37.37 0 00-.17.05l-.04-.13a.5.5 0 01.25-.07c.18 0 .27.1.27.2s-.05.16-.15.2c.1.02.18.09.18.2 0 .14-.13.25-.33.25-.1 0-.2-.03-.24-.06M32.12 39.7v-.18-.15l-.07.15-.11.18h.18zm0 .34v-.2h-.36v-.12l.3-.5h.24v.48h.1v.15h-.1v.2M41.54 39.38h-.32l-.01.13h.05c.08 0 .16.01.21.06.06.04.1.1.1.2 0 .15-.13.29-.35.29A.52.52 0 0141 40l.03-.14c.04.01.11.04.18.04.08 0 .17-.04.17-.13 0-.08-.07-.13-.23-.13a.7.7 0 00-.11 0l.05-.42h.45M50.6 39.77c0-.07-.03-.14-.11-.14-.05 0-.1.03-.12.07a.1.1 0 000 .05c0 .09.04.17.13.17.07 0 .1-.07.1-.15m.11-.4h-.07c-.17 0-.25.1-.27.2.05-.05.1-.07.18-.07.14 0 .25.1.25.26a.3.3 0 01-.3.3c-.22 0-.32-.17-.32-.36 0-.15.05-.28.14-.36a.5.5 0 01.32-.12h.07M59.98 39.23v.12l-.33.7h-.2l.33-.66h-.37v-.16M88.4 47.18h.18v.69h.34v.16h-.53M89.54 47.67l-.06-.18a3.16 3.16 0 01-.04-.16l-.04.16-.05.18h.19zm-.22.14l-.06.22h-.2l.26-.85h.25l.26.85h-.2l-.07-.22M90.13 48.03v-.35l-.27-.5h.22l.08.2.07.17.07-.16.08-.2h.22l-.28.49v.35M91.26 47.67h-.31v.2h.35v.16h-.54v-.85h.52v.16h-.33v.18h.31M91.7 47.56h.07c.1 0 .16-.05.16-.12 0-.08-.06-.12-.14-.12h-.1v.24zm-.19-.36l.25-.02c.13 0 .22.02.28.06.05.04.08.1.08.18 0 .1-.08.18-.15.2v.01c.05.03.09.08.1.16l.08.24h-.2l-.06-.2c-.02-.1-.06-.13-.13-.13h-.06v.33h-.19M88.61 40.43v-.27a3 3 0 01-.08.24l-.1.28h-.09l-.08-.27a4.07 4.07 0 01-.06-.25l-.02.27-.01.26h-.1l.03-.64h.16l.08.26.06.22.06-.22.09-.26h.15l.04.64h-.12M89.37 40.67a.39.39 0 01-.16.03c-.2 0-.33-.13-.33-.32 0-.21.15-.34.34-.34.08 0 .13.02.16.03l-.03.1a.3.3 0 00-.12-.03c-.13 0-.22.08-.22.23 0 .14.08.23.22.23.04 0 .1 0 .12-.02M90.31 40.43v-.27a3 3 0 01-.08.24l-.1.28h-.09l-.08-.27a3.04 3.04 0 01-.06-.25l-.02.27-.01.26h-.1l.03-.64h.16l.08.26.06.22.06-.22.09-.26h.15l.04.64h-.12M90.7 40.37c0 .13.07.23.18.23.11 0 .18-.1.18-.23 0-.12-.06-.23-.18-.23-.11 0-.17.1-.17.23m.47 0c0 .2-.13.33-.3.33-.18 0-.3-.14-.3-.33s.13-.33.3-.33c.2 0 .3.14.3.32M91.46 40.6h.07c.15 0 .24-.08.24-.24 0-.14-.08-.22-.23-.22h-.08v.46zm-.11-.54l.18-.01c.12 0 .2.02.26.07s.1.13.1.24c0 .1-.04.2-.1.25-.06.05-.16.08-.29.08h-.15M92.4 40.4h-.23v.2h.27v.09h-.39v-.64h.37v.1h-.25v.16h.24M93.42 44.66l-.05-.18-.05-.16-.04.16-.05.18h.19zm-.22.14l-.06.22h-.2l.26-.84h.26l.26.84h-.2l-.07-.22M93.14 50.9a.6.6 0 00.07 0c.09 0 .16-.04.16-.12 0-.09-.07-.12-.17-.12h-.06v.23zm0-.38h.06c.1 0 .15-.04.15-.1 0-.07-.05-.1-.13-.1h-.08v.2zm-.2-.32l.25-.02c.12 0 .2 0 .25.05.06.03.1.09.1.16 0 .08-.04.15-.13.18.1.03.16.1.16.21 0 .08-.03.14-.08.18-.07.05-.17.08-.34.08l-.2-.01M68.8 39.44c0 .05.05.09.11.1.05 0 .09-.05.09-.1s-.03-.1-.1-.1-.1.05-.1.1m.21.38c0-.07-.05-.11-.12-.13-.07.02-.1.06-.1.12s.04.11.11.11.11-.04.11-.1m-.42 0c0-.09.06-.16.15-.2-.08-.04-.12-.1-.12-.18 0-.13.12-.23.29-.23.19 0 .27.11.27.21a.2.2 0 01-.12.18c.08.04.15.1.15.2 0 .16-.13.26-.32.26-.2 0-.3-.12-.3-.23M11.67 50.7v-.34l-.1.33-.1.33h-.15l-.1-.33a3.7 3.7 0 01-.07-.33l-.02.35-.01.32h-.18l.05-.84h.26l.08.28.07.3.09-.3.09-.28h.25l.04.84h-.19M12.68 51a.56.56 0 01-.21.04c-.3 0-.44-.18-.44-.42 0-.29.2-.45.46-.45.1 0 .17.02.2.04l-.03.15a.4.4 0 00-.16-.03c-.16 0-.27.1-.27.28 0 .17.1.28.27.28l.16-.03M47.76 50.19h.2v.68h.33v.16h-.53M48.6 50.61c0 .17.07.28.2.28s.2-.12.2-.28c0-.16-.07-.29-.2-.29s-.2.13-.2.3m.6-.02c0 .28-.16.44-.41.44-.25 0-.4-.18-.4-.43s.16-.44.41-.44c.26 0 .4.2.4.43M49.54 50.61c0 .17.08.28.2.28.14 0 .21-.12.21-.28 0-.16-.07-.29-.2-.29s-.2.13-.2.3m.6-.02c0 .28-.17.44-.41.44-.25 0-.4-.18-.4-.43s.16-.44.41-.44c.26 0 .4.2.4.43M50.52 50.58h.06c.1 0 .17-.04.17-.13 0-.08-.06-.13-.15-.13a.4.4 0 00-.08.01v.25zm-.19-.38l.26-.02c.12 0 .2.02.26.07.05.04.09.11.09.2 0 .08-.03.15-.08.2-.07.06-.16.08-.28.08h-.06v.3h-.19M31.29 50.06l-.83.43v-.32c0-.11-.08-.16-.18-.1l-.85.44c-.1.05-.1.13 0 .18l.85.47c.1.05.18 0 .18-.11v-.34l.83.45c.1.05.18 0 .18-.11v-.88c0-.11-.08-.16-.18-.1M38.74 50.06l.83.43v-.32c0-.11.08-.16.18-.1l.85.44c.1.05.1.13 0 .18l-.85.47c-.1.05-.18 0-.18-.11v-.34l-.83.45c-.1.05-.18 0-.18-.11v-.88c0-.11.08-.16.18-.1M66.18 50.2c0-.16.12-.23.26-.15l.8.43c.15.08.15.2 0 .28l-.8.42c-.14.07-.26 0-.26-.17M58.25 51.1c0 .08-.06.15-.14.15h-.99a.15.15 0 01-.15-.15v-.98c0-.09.07-.15.15-.15h.99c.08 0 .14.06.14.15M76.66 50.6a.64.64 0 11-1.28.01.64.64 0 011.28 0M87.1 45c-.12 0-.18-.1-.12-.2l.31-.59c.06-.1.15-.1.21 0l.31.58c.06.11 0 .2-.12.2M87.7 50.21c.12 0 .17.1.11.2l-.3.58c-.07.11-.16.11-.22 0l-.3-.58c-.07-.1-.01-.2.11-.2"/><path fill="none" stroke="#181818" stroke-linecap="round" stroke-linejoin="round" stroke-miterlimit="10" stroke-width=".0030977" d="M3.76 27.97A3.76 3.76 0 000 31.73M96 31.73a3.76 3.76 0 00-3.76-3.76M0 54.27a3.76 3.76 0 003.76 3.76"/><path fill-rule="nonzero" d="M89.37 39.1c0 .21.17.39.38.39h1.04c.21 0 .38-.18.38-.39v-1.03a.38.38 0 00-.38-.39h-1.04a.38.38 0 00-.38.39M81.84 33.57V52.8a.44.44 0 00.89 0V33.57a.44.44 0 10-.89 0"/><path id="slider" fill="#fff" fill-rule="nonzero" stroke="#000" stroke-linecap="square" stroke-linejoin="round" stroke-miterlimit="2" stroke-width=".4181895" d="M83.79 39.2h-.01 0-.01 0-.01 0-.01 0-.03l-.03.02h-.03l-.03.01h-.03l-.03.02h-.06l-.02.02h-.04l-.05.02h-.06l-.03.01h-.03l-.03.01h-.03l-.06.02h-.06l-.03.01h-.03l-.03.01h-.03l-.03.01h-.06l-.03.01h-.09l-.03.01h-.09l-.02.01H82.45h0-.02 0l-.02.01h0H82.3h0H82.14h0-.05 0-.14l-.03-.01h-.09l-.03-.01h-.06l-.03-.01h-.06l-.03-.01h-.06l-.03-.01h-.03l-.03-.01h-.03l-.03-.01h-.03l-.03-.01h-.03l-.03-.01h-.03l-.03-.01h-.03l-.02-.01-.03-.01h-.03l-.03-.01-.03-.01h-.03l-.03-.01-.03-.01h-.03l-.03-.02h-.03l-.02-.01-.03-.01h0-.01 0-.01 0-.01 0-.28 0-.01 0-.01 0-.01 0l-.01.01h0-.01v.01h-.01 0v.01h-.01v.02h0l-.01.01h0v.01h0v.17l.01.02v.19l.01.02V39.76h0v.08h0v.07h0v.06h0l.01.02V43.04h0v.3h0V46.35h0V46.47h0v.08h0v.07h0v.09h-.01v.04h0v.07h0v.07l-.01.01v.15l-.01.02v.03h0v.02h0v.01h0v.01h0l.01.01h0v.01h.01v.01h.01l.01.01h.02v.01H80.83l.04-.01.05-.02h.03l.03-.01H81l.03-.02h.06l.03-.02h.06l.02-.01.03-.01h.03l.03-.01h.03l.03-.01h.03l.03-.01h.03l.03-.01h.03l.03-.01h.06l.06-.02h.09l.03-.01h.12l.03-.01h.12l.03-.01H82.65l.03.01h.09l.03.01h.06l.03.01h.06l.03.01h.06l.03.01h.03l.03.01h.03l.03.01h.03l.03.01h.03l.03.01h.03l.03.02h.06l.02.01.04.01h.02l.03.01.03.01h.03l.03.02h.03l.03.01h.03l.03.02H84.08l.01-.01h.01v-.01h.01v-.01h.01v-.01h0v-.01l.01-.01h0v-.02h0V46.9h0v-.02l-.01-.02V46.66l-.01-.02v-.05h0v-.09h0v-.25l-.01-.01v-.16h0v-.29h0v-.07h0V43.98l.01-.06v-.6h0v-.29h0V40.82l-.01-.02V40.6h0v-.3h0v-.05h0V40h0v-.06h0v-.07h0V39.75l.01-.02V39.51l.01-.02v-.13l.01-.02v-.06h0v-.01h0v-.02h0v-.01h0l-.01-.01h0l-.01-.01h0l-.01-.01h0-.01 0l-.01-.01h-.01 0-.01 0-.27z"/><path id="rotor1" fill="#fff" fill-rule="nonzero" stroke="#000" stroke-linejoin="round" stroke-miterlimit="2" stroke-width=".4181895" d="M8.24 32.5a3.69 3.69 0 100 7.37 3.69 3.69 0 000-7.38"/><path id="rotor2" fill="#fff" fill-rule="nonzero" stroke="#000" stroke-linejoin="round" stroke-miterlimit="2" stroke-width=".4181895" d="M17.51 32.5a3.69 3.69 0 100 7.37 3.69 3.69 0 000-7.38"/><path id="rotor3" fill="#fff" fill-rule="nonzero" stroke="#000" stroke-linejoin="round" stroke-miterlimit="2" stroke-width=".4181895" d="M26.67 32.5a3.69 3.69 0 100 7.37 3.69 3.69 0 000-7.38"/><path id="rotor4" fill="#fff" fill-rule="nonzero" stroke="#000" stroke-linejoin="round" stroke-miterlimit="2" stroke-width=".4181895" d="M35.91 32.5a3.69 3.69 0 100 7.37 3.69 3.69 0 000-7.38"/><path id="rotor5" fill="#fff" fill-rule="nonzero" stroke="#000" stroke-linejoin="round" stroke-miterlimit="2" stroke-width=".4181895" d="M45.08 32.5a3.69 3.69 0 100 7.37 3.69 3.69 0 000-7.38"/><path id="rotor6" fill="#fff" fill-rule="nonzero" stroke="#000" stroke-linejoin="round" stroke-miterlimit="2" stroke-width=".4181895" d="M54.3 32.5a3.69 3.69 0 100 7.37 3.69 3.69 0 000-7.38"/><path id="rotor7" fill="#fff" fill-rule="nonzero" stroke="#000" stroke-linejoin="round" stroke-miterlimit="2" stroke-width=".4181895" d="M63.56 32.5a3.69 3.69 0 100 7.37 3.69 3.69 0 000-7.38"/><path id="rotor8" fill="#fff" stroke="#000" stroke-width=".4181895" d="M72.8 32.5a3.69 3.69 0 100 7.37 3.69 3.69 0 000-7.38"/><path id="button1" fill="#fff" fill-rule="nonzero" stroke="#000" stroke-linecap="round" stroke-linejoin="round" stroke-miterlimit="10" stroke-width=".4181895" d="M10.35 43.56v2.07c0 .37-.3.68-.67.68H6.86a.68.68 0 01-.68-.68v-2.07c0-.37.3-.67.68-.67h2.82c.37 0 .67.3.67.67"/><path id="button2" fill="#fff" fill-rule="nonzero" stroke="#000" stroke-linecap="round" stroke-linejoin="round" stroke-miterlimit="10" stroke-width=".4181895" d="M10.35 49.55v2.07c0 .37-.3.67-.67.67H6.86a.68.68 0 01-.68-.67v-2.07c0-.37.3-.68.68-.68h2.82c.37 0 .67.3.67.68"/><path id="button3" fill="#fff" fill-rule="nonzero" stroke="#000" stroke-linecap="round" stroke-linejoin="round" stroke-miterlimit="10" stroke-width=".4181895" d="M19.6 43.56v2.07c0 .37-.3.68-.68.68H16.1a.68.68 0 01-.67-.68v-2.07c0-.37.3-.67.67-.67h2.82c.38 0 .68.3.68.67"/><path id="button4" fill="#fff" fill-rule="nonzero" stroke="#000" stroke-linecap="round" stroke-linejoin="round" stroke-miterlimit="10" stroke-width=".4181895" d="M19.6 49.55v2.07c0 .37-.3.67-.68.67H16.1a.68.68 0 01-.67-.67v-2.07c0-.37.3-.68.67-.68h2.82c.38 0 .68.3.68.68"/><path id="button5" fill="#fff" fill-rule="nonzero" stroke="#000" stroke-linecap="round" stroke-linejoin="round" stroke-miterlimit="10" stroke-width=".4181895" d="M28.68 43.56v2.07c0 .37-.3.68-.67.68h-2.82a.68.68 0 01-.68-.68v-2.07c0-.37.3-.67.68-.67H28c.37 0 .67.3.67.67"/><path id="button6" fill="#fff" fill-rule="nonzero" stroke="#000" stroke-linecap="round" stroke-linejoin="round" stroke-miterlimit="10" stroke-width=".4181895" d="M28.68 49.55v2.07c0 .37-.3.67-.67.67h-2.82a.68.68 0 01-.68-.67v-2.07c0-.37.3-.68.68-.68H28c.37 0 .67.3.67.68"/><path id="button7" fill="#fff" fill-rule="nonzero" stroke="#000" stroke-linecap="round" stroke-linejoin="round" stroke-miterlimit="10" stroke-width=".4181895" d="M37.93 43.56v2.07c0 .37-.3.68-.68.68h-2.81a.68.68 0 01-.68-.68v-2.07c0-.37.3-.67.68-.67h2.81c.38 0 .68.3.68.67"/><path id="button8" fill="#fff" fill-rule="nonzero" stroke="#000" stroke-linecap="round" stroke-linejoin="round" stroke-miterlimit="10" stroke-width=".4181895" d="M37.93 49.55v2.07c0 .37-.3.67-.68.67h-2.81a.68.68 0 01-.68-.67v-2.07c0-.37.3-.68.68-.68h2.81c.38 0 .68.3.68.68"/><path id="button9" fill="#fff" fill-rule="nonzero" stroke="#000" stroke-linecap="round" stroke-linejoin="round" stroke-miterlimit="10" stroke-width=".4181895" d="M47.2 43.56v2.07c0 .37-.31.68-.68.68H43.7a.68.68 0 01-.68-.68v-2.07c0-.37.3-.67.68-.67h2.82c.37 0 .67.3.67.67"/><path id="button10" fill="#fff" fill-rule="nonzero" stroke="#000" stroke-linecap="round" stroke-linejoin="round" stroke-miterlimit="10" stroke-width=".4181895" d="M47.2 49.55v2.07c0 .37-.31.67-.68.67H43.7a.68.68 0 01-.68-.67v-2.07c0-.37.3-.68.68-.68h2.82c.37 0 .67.3.67.68"/><path id="button11" fill="#fff" fill-rule="nonzero" stroke="#000" stroke-linecap="round" stroke-linejoin="round" stroke-miterlimit="10" stroke-width=".4181895" d="M56.44 43.56v2.07c0 .37-.3.68-.68.68h-2.81a.68.68 0 01-.68-.68v-2.07c0-.37.3-.67.68-.67h2.81c.38 0 .68.3.68.67"/><path id="button12" fill="#fff" fill-rule="nonzero" stroke="#000" stroke-linecap="round" stroke-linejoin="round" stroke-miterlimit="10" stroke-width=".4181895" d="M56.44 49.55v2.07c0 .37-.3.67-.68.67h-2.81a.68.68 0 01-.68-.67v-2.07c0-.37.3-.68.68-.68h2.81c.38 0 .68.3.68.68"/><path id="button13" fill="#fff" fill-rule="nonzero" stroke="#000" stroke-linecap="round" stroke-linejoin="round" stroke-miterlimit="10" stroke-width=".4181895" d="M65.52 43.56v2.07c0 .37-.3.68-.67.68h-2.82a.68.68 0 01-.68-.68v-2.07c0-.37.3-.67.68-.67h2.82c.37 0 .67.3.67.67"/><path id="button14" fill="#fff" fill-rule="nonzero" stroke="#000" stroke-linecap="round" stroke-linejoin="round" stroke-miterlimit="10" stroke-width=".4181895" d="M65.52 49.55v2.07c0 .37-.3.67-.67.67h-2.82a.68.68 0 01-.68-.67v-2.07c0-.37.3-.68.68-.68h2.82c.37 0 .67.3.67.68"/><path id="button15" fill="#fff" fill-rule="nonzero" stroke="#000" stroke-linecap="round" stroke-linejoin="round" stroke-miterlimit="10" stroke-width=".4181895" d="M74.77 43.56v2.07c0 .37-.3.68-.68.68h-2.81a.68.68 0 01-.68-.68v-2.07c0-.37.3-.67.68-.67h2.81c.38 0 .68.3.68.67"/><path id="button16" fill="#fff" fill-rule="nonzero" stroke="#000" stroke-linecap="round" stroke-linejoin="round" stroke-miterlimit="10" stroke-width=".4181895" d="M74.77 49.55v2.07c0 .37-.3.67-.68.67h-2.81a.68.68 0 01-.68-.67v-2.07c0-.37.3-.68.68-.68h2.81c.38 0 .68.3.68.68"/><path id="buttona" fill="#fff" fill-rule="nonzero" stroke="#000" stroke-linecap="round" stroke-linejoin="round" stroke-miterlimit="10" stroke-width=".4181895" d="M92.39 43.56v2.07c0 .37-.3.68-.68.68H88.9a.68.68 0 01-.67-.68v-2.07c0-.37.3-.67.67-.67h2.82c.38 0 .68.3.68.67"/><path id="buttonb" fill="#fff" fill-rule="nonzero" stroke="#000" stroke-linecap="round" stroke-linejoin="round" stroke-miterlimit="10" stroke-width=".4181895" d="M92.39 49.55v2.07c0 .37-.3.67-.68.67H88.9a.68.68 0 01-.67-.67v-2.07c0-.37.3-.68.67-.68h2.82c.38 0 .68.3.68.68"/></svg>