<svg xmlns="http://www.w3.org/2000/svg" fill-rule="evenodd" clip-rule="evenodd" viewBox="0 0 96 86"><defs/><path fill="#989898" fill-rule="nonzero" stroke="#000" stroke-width=".185862" d="M3.758 58.03h88.484A3.758 3.758 0 0096 54.271V31.729a3.758 3.758 0 00-3.758-3.758H3.758A3.757 3.757 0 000 31.729v22.543a3.758 3.758 0 003.758 3.757"/><path fill="none" stroke="#000" stroke-width=".185862" d="M3.757 56.858a2.59 2.59 0 01-2.585-2.587V31.728a2.589 2.589 0 012.585-2.585h88.484a2.588 2.588 0 012.586 2.585V54.27a2.589 2.589 0 01-2.586 2.587H3.757z"/><path fill="none" stroke="#000" stroke-width=".185862" d="M78.06 53.896c0 .62-.508 1.128-1.128 1.128H4.04a1.13 1.13 0 01-1.127-1.128V32.761c0-.619.507-1.127 1.127-1.127h72.893c.62 0 1.128.508 1.128 1.127v21.135zM85.761 53.896c0 .62-.507 1.128-1.128 1.128h-4.695c-.62 0-1.128-.508-1.128-1.128V32.761c0-.62.508-1.127 1.128-1.127h4.695c.621 0 1.128.508 1.128 1.127v21.135z"/><path fill="none" stroke="#000" stroke-linecap="round" stroke-linejoin="round" stroke-miterlimit="10" stroke-width=".185862" d="M94.028 53.896c0 .62-.508 1.128-1.128 1.128h-5.26a1.132 1.132 0 01-1.127-1.128V43c0-.303.824-1.127 1.127-1.127h5.26c.62 0 1.128.507 1.128 1.127v10.896z"/><path fill="none" stroke="#000" stroke-width=".185862" d="M94.027 39.994c0 .62-.507 1.128-1.127 1.128h-5.26c-.619 0-1.127-.508-1.127-1.128v-1.69c0-.62.508-1.127 1.128-1.127h5.26c.619 0 1.126.507 1.126 1.127v1.69z"/><path fill-rule="nonzero" d="M4.391 39.397h-.003l-.154.074-.032-.143.216-.1h.157v.813h-.184M13.379 40.04v-.114l.105-.095c.178-.159.264-.25.267-.345 0-.067-.04-.12-.135-.12a.296.296 0 00-.174.069l-.053-.138a.452.452 0 01.266-.083c.185 0 .286.107.286.255 0 .137-.099.246-.216.35l-.075.064v.002h.306v.156M22.625 39.855c.033.017.111.05.188.05.1 0 .15-.047.15-.108 0-.081-.08-.118-.164-.118h-.078v-.136h.074c.064 0 .145-.025.145-.094 0-.049-.04-.085-.12-.085a.37.37 0 00-.17.05l-.04-.138a.506.506 0 01.253-.061c.174 0 .27.09.27.202 0 .086-.05.154-.149.189v.003c.098.017.176.09.176.197 0 .144-.126.25-.333.25a.479.479 0 01-.242-.058M32.12 39.705v-.18c0-.049.003-.1.006-.152h-.005c-.026.052-.047.1-.075.152l-.109.177v.003h.183zm0 .336v-.194h-.36v-.123l.307-.496h.233v.477h.098v.142H32.3v.194M41.54 39.384h-.316l-.017.126c.017-.002.032-.002.053-.002a.37.37 0 01.213.058c.062.041.1.108.1.204 0 .151-.131.286-.35.286a.518.518 0 01-.227-.047l.034-.143c.037.018.11.04.184.04.079 0 .163-.037.163-.123 0-.084-.067-.136-.23-.136a.704.704 0 00-.11.008l.054-.427h.449M50.609 39.77c0-.074-.04-.139-.122-.139a.124.124 0 00-.113.073.108.108 0 00-.007.047c.003.086.045.164.132.164.067 0 .11-.061.11-.144m.103-.408a.446.446 0 00-.073.003c-.17.013-.244.1-.266.195h.004a.231.231 0 01.173-.065c.136 0 .251.096.251.266a.292.292 0 01-.3.294c-.217 0-.323-.163-.323-.356 0-.153.056-.28.144-.362a.494.494 0 01.315-.12.656.656 0 01.075-.002M59.983 39.228v.12l-.336.693h-.2l.335-.654v-.003h-.374v-.156M88.393 47.185h.192v.683h.336v.16h-.528M89.537 47.669l-.053-.18a3.162 3.162 0 01-.043-.162h-.002c-.013.05-.025.114-.038.163l-.051.179h.187zm-.215.142l-.06.216h-.197l.257-.842h.25l.263.842h-.206l-.065-.216M90.125 48.027v-.344l-.265-.499h.217l.087.203c.026.06.044.106.064.162h.003c.018-.053.04-.102.065-.162l.084-.203h.215l-.278.492v.351M91.261 47.671h-.312v.2h.348v.156h-.538v-.842h.52v.156h-.33v.175h.312M91.7 47.559h.075c.095 0 .15-.049.15-.123 0-.077-.052-.116-.14-.117a.42.42 0 00-.086.007v.233zm-.19-.364c.06-.01.153-.017.254-.017.125 0 .212.019.273.066.05.04.078.1.078.176a.226.226 0 01-.15.21v.002c.06.024.092.08.114.157.026.097.052.206.068.239h-.195a1.038 1.038 0 01-.059-.197c-.023-.105-.059-.134-.136-.135H91.7v.332h-.189M88.612 40.428a4.683 4.683 0 01-.008-.266H88.6c-.02.077-.046.163-.075.242l-.092.275h-.09l-.084-.27a4.07 4.07 0 01-.064-.247h-.001c-.003.083-.007.183-.012.27l-.014.255h-.108l.042-.634h.153l.083.255c.021.074.042.15.057.22h.003c.017-.069.038-.147.063-.221l.088-.254h.15l.036.634h-.112M89.371 40.668a.387.387 0 01-.163.028c-.2 0-.323-.126-.323-.319 0-.208.144-.333.338-.333.077 0 .13.015.155.027l-.026.092a.302.302 0 00-.125-.024c-.128 0-.22.08-.22.232 0 .14.08.23.22.23a.34.34 0 00.126-.024M90.312 40.428a6.207 6.207 0 01-.008-.266H90.3c-.02.077-.046.163-.075.242l-.091.275h-.09l-.084-.27a3.04 3.04 0 01-.064-.247h-.003a9.326 9.326 0 01-.01.27l-.015.255h-.108l.042-.634h.152l.084.255c.021.074.042.15.057.22h.003c.017-.069.039-.147.063-.221l.087-.254h.15l.038.634h-.113M90.707 40.373c0 .128.065.23.176.23.112 0 .174-.102.174-.235 0-.12-.059-.232-.174-.232-.116 0-.176.106-.176.237m.472-.009c0 .212-.129.333-.303.333-.179 0-.291-.136-.291-.322 0-.195.122-.332.3-.332.186 0 .294.14.294.321M91.462 40.598c.016.004.04.004.065.004.148 0 .238-.083.238-.243.002-.14-.079-.22-.224-.22a.363.363 0 00-.08.007v.452zm-.116-.536c.052-.009.116-.013.185-.013.118 0 .2.024.259.073.06.05.098.125.098.233a.33.33 0 01-.098.252c-.064.057-.164.086-.288.086a1.35 1.35 0 01-.156-.008M92.408 40.406h-.239v.185h.268v.096h-.384v-.634h.368v.095h-.252v.164h.239M93.42 44.66l-.053-.18c-.016-.049-.03-.112-.043-.162h-.002c-.013.05-.025.114-.039.162l-.05.18h.186zm-.215.141l-.06.218h-.198l.258-.843h.251l.26.843h-.204l-.066-.218M93.136 50.894a.607.607 0 00.074.002c.087 0 .162-.032.162-.12 0-.086-.075-.12-.171-.12h-.065v.238zm0-.374h.062c.1 0 .155-.042.155-.105 0-.064-.049-.096-.135-.096a.581.581 0 00-.082.004v.197zm-.189-.324c.05-.009.152-.017.247-.017.117 0 .188.01.248.047.06.032.102.09.102.166 0 .074-.044.146-.139.18v.003c.097.026.167.099.167.208a.223.223 0 01-.087.179c-.061.048-.163.076-.331.076a1.37 1.37 0 01-.207-.013M68.8 39.437c0 .055.05.09.115.11.043-.013.083-.052.083-.104 0-.05-.029-.1-.1-.1-.064 0-.098.043-.098.094m.214.385c0-.071-.052-.113-.128-.134-.061.018-.098.063-.098.122a.11.11 0 00.114.114c.068 0 .112-.044.112-.102m-.422.006c0-.097.058-.165.147-.203v-.004c-.079-.04-.118-.107-.118-.178 0-.138.124-.229.287-.229.19 0 .269.11.269.21 0 .07-.038.138-.118.178v.003c.079.03.15.098.15.204 0 .147-.125.247-.314.247-.206 0-.303-.117-.303-.228M11.672 50.708a9.713 9.713 0 01-.007-.347h-.004a4.432 4.432 0 01-.094.327l-.102.329h-.15l-.09-.327a3.7 3.7 0 01-.076-.33h-.002c-.005.114-.009.245-.015.35l-.015.32h-.177l.055-.843h.253l.083.282c.026.097.052.203.071.3h.004c.024-.096.052-.208.08-.302l.09-.28h.25l.046.844h-.187M12.684 51.007a.555.555 0 01-.216.035c-.292 0-.442-.18-.442-.42 0-.29.206-.449.461-.449.098 0 .174.02.207.037l-.038.153a.404.404 0 00-.16-.033c-.152 0-.27.093-.27.28 0 .168.1.275.271.275a.466.466 0 00.159-.027M47.765 50.187h.191v.683h.336v.16h-.527M48.593 50.611c0 .165.078.282.205.282.13 0 .204-.123.204-.287 0-.151-.073-.281-.204-.281-.13 0-.205.122-.205.286m.61-.012c0 .277-.168.445-.414.445-.25 0-.397-.188-.397-.43 0-.252.161-.441.41-.441.26 0 .401.195.401.426M49.542 50.611c0 .165.077.282.205.282.13 0 .203-.123.203-.287 0-.151-.073-.281-.204-.281-.129 0-.204.122-.204.286m.61-.012c0 .277-.168.445-.415.445-.25 0-.397-.188-.397-.43 0-.252.162-.441.41-.441.26 0 .401.195.401.426M50.519 50.581a.259.259 0 00.063.005c.102 0 .164-.05.164-.138 0-.076-.054-.123-.148-.123a.406.406 0 00-.08.006v.25zm-.19-.384c.06-.01.142-.017.259-.017.117 0 .201.023.257.068.054.043.09.113.09.196a.269.269 0 01-.078.2c-.064.062-.16.089-.273.089a.731.731 0 01-.065-.003v.301h-.19M31.29 50.061l-.83.432v-.323c0-.111-.08-.161-.179-.109l-.853.445c-.098.05-.099.135-.002.189l.857.461c.097.052.177.004.177-.107v-.342l.831.45c.097.051.177.003.177-.108v-.879c0-.111-.08-.161-.178-.109M38.738 50.061l.83.432v-.323c0-.111.08-.161.179-.109l.853.445c.098.05.099.135.001.187l-.856.463c-.097.052-.177.004-.177-.107v-.342l-.832.449c-.097.052-.176.004-.176-.107v-.88c0-.11.08-.16.178-.108M66.176 50.204c0-.166.12-.237.265-.158l.802.433c.145.079.144.205-.003.281l-.798.416c-.145.077-.266.003-.266-.161M58.254 51.1a.15.15 0 01-.149.15h-.984a.152.152 0 01-.15-.15v-.984a.15.15 0 01.15-.148h.984a.15.15 0 01.149.148M76.664 50.608a.64.64 0 11-1.283 0 .642.642 0 011.283 0M87.103 44.994c-.124 0-.179-.09-.12-.2l.308-.582c.059-.11.154-.11.211 0l.309.581c.058.11.005.2-.12.2M87.69 50.213c.125 0 .178.09.121.198l-.309.582c-.058.11-.153.11-.21 0l-.309-.582c-.058-.108-.004-.198.12-.198"/><path fill="none" stroke="#181818" stroke-linecap="round" stroke-linejoin="round" stroke-miterlimit="10" stroke-width=".0030977" d="M3.757 27.971A3.757 3.757 0 000 31.728M96 31.727a3.756 3.756 0 00-3.758-3.756M0 54.272a3.757 3.757 0 003.757 3.757"/><path fill-rule="nonzero" d="M89.368 39.103c0 .212.173.385.385.385h1.035a.385.385 0 00.385-.385v-1.036a.385.385 0 00-.385-.384h-1.035a.385.385 0 00-.385.384M81.843 33.573v19.23a.444.444 0 00.887 0v-19.23a.444.444 0 10-.887 0"/><path id="slider" fill="#fff" fill-rule="nonzero" stroke="#000" stroke-linecap="square" stroke-linejoin="round" stroke-miterlimit="2" stroke-width=".4181895" d="M83.786 39.194h-.018l-.002.001h-.003l-.002.001h-.003l-.003.001h-.002l-.001.001h-.005v.001l-.03.008-.028.008-.03.008-.03.008-.028.008-.028.007-.03.006-.03.007-.028.007-.03.006-.057.014-.03.005-.03.006-.03.006-.029.005-.029.006-.029.005-.06.01-.03.005-.03.005-.029.004-.029.005-.03.004-.03.003-.03.005-.029.003-.03.004-.03.003-.029.003-.03.003-.03.003-.03.002-.03.003-.03.002-.03.002-.03.003h-.03l-.03.003-.03.001-.03.002H82.45l-.008.002H82.405l-.01.001h-.081l-.009.001h-.128l-.01-.001H82.13l-.009-.002h-.046l-.008-.001-.03-.002-.029-.001-.031-.002-.03-.001-.03-.003-.03-.002-.03-.002-.029-.003-.03-.002-.03-.003-.03-.003-.03-.003-.03-.003-.03-.004-.03-.003-.029-.005-.03-.003-.029-.004-.03-.005-.03-.004-.029-.005-.03-.005-.029-.005-.03-.005-.029-.005-.03-.006-.03-.005-.029-.006-.03-.006-.029-.005-.028-.007-.03-.007-.029-.006-.03-.007-.028-.007-.03-.006-.03-.007-.028-.008-.028-.008-.03-.008-.029-.008-.029-.008h-.002 0-.002l-.002-.002h-.008l-.003-.001h0l-.002-.001H80.508l-.006.002-.005.002-.006.002-.004.002-.006.003-.005.004-.005.003-.005.004-.004.003-.003.005-.004.004-.003.006-.003.004-.003.005-.003.006-.002.005v.006l-.003.006V39.304l.002.018v.018l.002.018.002.018v.017l.002.017.001.016.002.017v.033l.003.016v.033l.003.015v.034l.002.015v.016l.002.016v.031l.001.014.001.015v.016l.001.015V39.755l.002.014v.041l.001.014v.012l.001.012v.059l.001.012v.011l.001.012v.035l.002.012v.074l.001.013v.04l.001.014v.028l.001.015v.058l.002.014v.403l-.001.008v.108l-.002.012V40.88l-.001.018v.078L80.47 41v.046l-.001.025v.1l-.002.025v.295l-.002.027v.312l-.001.03v.163l-.001.036V43.04h.002v.296h-.003v.971l.002.046v.392l.001.03v.087l.001.029v.225l.001.027v.055l.001.026V45.302l.002.024V45.477l.001.019v.053l.001.016v.03l.001.016v.112l.002.01v.397l-.001.012v.067l-.002.013v.069l-.001.014v.04l-.001.013v.025l-.001.012V46.432l-.002.012v.092l-.002.012v.046l-.001.012-.001.012V46.67l-.001.013-.001.013v.013l-.002.013V46.75l-.001.014-.001.014v.014l-.002.014v.028l-.002.014V46.876l-.003.015v.028l-.001.015-.002.014v.016l-.002.015-.001.015v.015l-.002.015-.001.016v.017l-.003.017v.037l.002.005.001.004.002.007.003.005.003.005.003.005.003.005.004.004.003.005.004.004.005.004.005.003.005.003.006.003.004.002.006.002.005.002.006.002h.012l.006.001h.274l.001-.001h.011l.002-.002h.008l.001-.002h.003l.03-.009.058-.015.028-.007.029-.008.029-.006.03-.008.029-.007.03-.006.028-.007.03-.006.028-.006.03-.007.03-.006.029-.005.03-.006.03-.006.028-.005.03-.005.03-.004.03-.006.029-.005.029-.004.03-.004.03-.005.03-.003.059-.008.03-.003.03-.004.03-.002.03-.004.029-.003.03-.002.03-.002.03-.002.03-.003.03-.002.029-.002.031-.001.03-.002.029-.002h.046l.008-.001h.037l.009-.001h.047l.008-.002h.129l.009.001H82.405l.009.001H82.45l.01.002H82.505l.03.002.03.002.03.001.03.002.03.002.03.003.03.002.06.004.03.003.03.004.03.002.03.004.029.003.03.004.03.004.029.003.03.005.029.004.03.004.03.005.028.006.03.004.031.005.03.005.028.006.03.006.029.005.03.006.03.007.028.006.029.006.03.007.029.006.03.007.029.008.028.006.029.008.029.007.03.008.029.007.028.009h.004l.002.001h.002l.001.001h.004l.002.002h.017v.001h.275l.005-.001h.006l.006-.002.006-.002.005-.002.005-.002.006-.003.004-.003.005-.003.004-.004.004-.004.004-.005.004-.004.004-.005.003-.005.003-.005.002-.005.002-.007.002-.004v-.005l.002-.007v-.012l-.002-.018v-.017l-.002-.017v-.016l-.002-.015v-.015l-.002-.015v-.015l-.002-.016v-.014l-.002-.015v-.014l-.002-.014v-.015l-.002-.014V46.833l-.002-.014v-.028l-.002-.014v-.028l-.002-.013V46.695l-.002-.013v-.026l-.001-.013v-.037l-.001-.012-.001-.012v-.012l-.001-.012v-.056l-.002-.01V46.431l-.001-.012-.001-.013v-.049l-.002-.013v-.203l-.002-.012v-.046l-.001-.01V45.722l.002-.01V45.494l.001-.018v-.062l.001-.021v-.117l.002-.025v-.107l.001-.028v-.084l.002-.028V44.59l.002-.035v-1.217h-.002v-.297h.003v-1.119l-.001-.03v-.09l-.001-.029v-.143l-.001-.028v-.22l-.002-.027V41.145l-.001-.026-.001-.025v-.117l-.002-.02V40.664l-.002-.01v-.061l-.001-.007V40.245l.002-.014v-.141l.001-.014v-.038l.001-.012v-.049l.002-.012V39.907l.001-.011v-.011l.002-.013v-.075l.002-.014v-.057l.002-.014v-.015l.001-.016V39.652l.001-.016.002-.015v-.016l.001-.016v-.015l.001-.017.001-.017v-.015l.001-.016.002-.017.001-.016.001-.017.001-.016v-.017l.002-.016.001-.017.002-.017v-.018l.002-.018.002-.018v-.019l.003-.02v-.005l-.001-.006-.002-.005v-.006l-.002-.006-.002-.005-.002-.006-.003-.005-.003-.004-.004-.006-.004-.004-.004-.005-.004-.003-.004-.004-.005-.003-.004-.004-.006-.003-.005-.002-.005-.002-.006-.002-.006-.001-.006-.001h-.272z"/><path id="rotor1" fill="#fff" fill-rule="nonzero" stroke="#000" stroke-linejoin="round" stroke-miterlimit="2" stroke-width=".4181895" d="M8.238 32.493a3.69 3.69 0 100 7.381 3.69 3.69 0 003.69-3.692c0-2.039-1.65-3.689-3.69-3.689"/><path id="rotor2" fill="#fff" fill-rule="nonzero" stroke="#000" stroke-linejoin="round" stroke-miterlimit="2" stroke-width=".4181895" d="M17.514 32.493a3.69 3.69 0 00-3.692 3.69 3.692 3.692 0 107.382 0c0-2.04-1.65-3.69-3.69-3.69"/><path id="rotor3" fill="#fff" fill-rule="nonzero" stroke="#000" stroke-linejoin="round" stroke-miterlimit="2" stroke-width=".4181895" d="M26.668 32.493a3.69 3.69 0 100 7.381 3.69 3.69 0 003.689-3.692c0-2.039-1.65-3.689-3.69-3.689"/><path id="rotor4" fill="#fff" fill-rule="nonzero" stroke="#000" stroke-linejoin="round" stroke-miterlimit="2" stroke-width=".4181895" d="M35.914 32.493a3.69 3.69 0 100 7.381 3.689 3.689 0 003.69-3.692 3.686 3.686 0 00-3.69-3.689"/><path id="rotor5" fill="#fff" fill-rule="nonzero" stroke="#000" stroke-linejoin="round" stroke-miterlimit="2" stroke-width=".4181895" d="M45.083 32.493a3.69 3.69 0 100 7.381 3.69 3.69 0 003.69-3.692c0-2.039-1.65-3.689-3.69-3.689"/><path id="rotor6" fill="#fff" fill-rule="nonzero" stroke="#000" stroke-linejoin="round" stroke-miterlimit="2" stroke-width=".4181895" d="M54.31 32.493a3.69 3.69 0 100 7.381A3.69 3.69 0 0058 36.182c0-2.039-1.65-3.689-3.69-3.689"/><path id="rotor7" fill="#fff" fill-rule="nonzero" stroke="#000" stroke-linejoin="round" stroke-miterlimit="2" stroke-width=".4181895" d="M63.557 32.493a3.69 3.69 0 100 7.381c2.04 0 3.69-1.653 3.69-3.692s-1.65-3.689-3.69-3.689"/><path id="rotor8" fill="#fff" stroke="#000" stroke-width=".4181895" d="M72.804 32.493a3.69 3.69 0 100 7.381 3.689 3.689 0 003.689-3.692c0-2.039-1.65-3.689-3.689-3.689"/><path id="button1" fill="#fff" fill-rule="nonzero" stroke="#000" stroke-linecap="round" stroke-linejoin="round" stroke-miterlimit="10" stroke-width=".4181895" d="M10.351 43.563v2.068a.676.676 0 01-.675.675H6.857a.676.676 0 01-.676-.675v-2.068c0-.373.303-.676.676-.676h2.819c.373 0 .675.303.675.676"/><path id="button2" fill="#fff" fill-rule="nonzero" stroke="#000" stroke-linecap="round" stroke-linejoin="round" stroke-miterlimit="10" stroke-width=".4181895" d="M10.351 49.55v2.067a.675.675 0 01-.675.675H6.857a.675.675 0 01-.676-.675V49.55c0-.373.303-.677.676-.677h2.819c.373 0 .675.304.675.677"/><path id="button3" fill="#fff" fill-rule="nonzero" stroke="#000" stroke-linecap="round" stroke-linejoin="round" stroke-miterlimit="10" stroke-width=".4181895" d="M19.598 43.563v2.068a.676.676 0 01-.676.675h-2.818a.676.676 0 01-.676-.675v-2.068c0-.373.302-.676.676-.676h2.818c.374 0 .676.303.676.676"/><path id="button4" fill="#fff" fill-rule="nonzero" stroke="#000" stroke-linecap="round" stroke-linejoin="round" stroke-miterlimit="10" stroke-width=".4181895" d="M19.598 49.55v2.067a.675.675 0 01-.676.675h-2.818a.675.675 0 01-.676-.675V49.55c0-.373.302-.677.676-.677h2.818c.374 0 .676.304.676.677"/><path id="button5" fill="#fff" fill-rule="nonzero" stroke="#000" stroke-linecap="round" stroke-linejoin="round" stroke-miterlimit="10" stroke-width=".4181895" d="M28.683 43.563v2.068a.676.676 0 01-.676.675h-2.818a.676.676 0 01-.677-.675v-2.068c0-.373.303-.676.677-.676h2.818c.373 0 .676.303.676.676"/><path id="button6" fill="#fff" fill-rule="nonzero" stroke="#000" stroke-linecap="round" stroke-linejoin="round" stroke-miterlimit="10" stroke-width=".4181895" d="M28.683 49.55v2.067a.675.675 0 01-.676.675h-2.818a.675.675 0 01-.677-.675V49.55c0-.373.303-.677.677-.677h2.818c.373 0 .676.304.676.677"/><path id="button7" fill="#fff" fill-rule="nonzero" stroke="#000" stroke-linecap="round" stroke-linejoin="round" stroke-miterlimit="10" stroke-width=".4181895" d="M37.93 43.563v2.068a.676.676 0 01-.677.675h-2.818a.676.676 0 01-.676-.675v-2.068c0-.373.302-.676.676-.676h2.818c.374 0 .676.303.676.676"/><path id="button8" fill="#fff" fill-rule="nonzero" stroke="#000" stroke-linecap="round" stroke-linejoin="round" stroke-miterlimit="10" stroke-width=".4181895" d="M37.93 49.55v2.067a.675.675 0 01-.677.675h-2.818a.675.675 0 01-.676-.675V49.55c0-.373.302-.677.676-.677h2.818c.374 0 .676.304.676.677"/><path id="button9" fill="#fff" fill-rule="nonzero" stroke="#000" stroke-linecap="round" stroke-linejoin="round" stroke-miterlimit="10" stroke-width=".4181895" d="M47.192 43.563v2.068a.676.676 0 01-.676.675h-2.818a.676.676 0 01-.676-.675v-2.068c0-.373.303-.676.676-.676h2.818c.374 0 .676.303.676.676"/><path id="button10" fill="#fff" fill-rule="nonzero" stroke="#000" stroke-linecap="round" stroke-linejoin="round" stroke-miterlimit="10" stroke-width=".4181895" d="M47.192 49.55v2.067a.676.676 0 01-.676.675h-2.818a.676.676 0 01-.676-.675V49.55c0-.373.303-.677.676-.677h2.818c.374 0 .676.304.676.677"/><path id="button11" fill="#fff" fill-rule="nonzero" stroke="#000" stroke-linecap="round" stroke-linejoin="round" stroke-miterlimit="10" stroke-width=".4181895" d="M56.44 43.563v2.068a.676.676 0 01-.677.675h-2.818a.676.676 0 01-.677-.675v-2.068c0-.373.303-.676.677-.676h2.818c.374 0 .677.303.677.676"/><path id="button12" fill="#fff" fill-rule="nonzero" stroke="#000" stroke-linecap="round" stroke-linejoin="round" stroke-miterlimit="10" stroke-width=".4181895" d="M56.44 49.55v2.067a.676.676 0 01-.677.675h-2.818a.676.676 0 01-.677-.675V49.55c0-.373.303-.677.677-.677h2.818c.374 0 .677.304.677.677"/><path id="button13" fill="#fff" fill-rule="nonzero" stroke="#000" stroke-linecap="round" stroke-linejoin="round" stroke-miterlimit="10" stroke-width=".4181895" d="M65.524 43.563v2.068a.676.676 0 01-.677.675H62.03a.676.676 0 01-.676-.675v-2.068c0-.373.303-.676.676-.676h2.818c.374 0 .677.303.677.676"/><path id="button14" fill="#fff" fill-rule="nonzero" stroke="#000" stroke-linecap="round" stroke-linejoin="round" stroke-miterlimit="10" stroke-width=".4181895" d="M65.524 49.55v2.067a.676.676 0 01-.677.675H62.03a.676.676 0 01-.676-.675V49.55c0-.373.303-.677.676-.677h2.818c.374 0 .677.304.677.677"/><path id="button15" fill="#fff" fill-rule="nonzero" stroke="#000" stroke-linecap="round" stroke-linejoin="round" stroke-miterlimit="10" stroke-width=".4181895" d="M74.77 43.563v2.068a.676.676 0 01-.676.675h-2.818a.676.676 0 01-.676-.675v-2.068c0-.373.303-.676.676-.676h2.818c.373 0 .676.303.676.676"/><path id="button16" fill="#fff" fill-rule="nonzero" stroke="#000" stroke-linecap="round" stroke-linejoin="round" stroke-miterlimit="10" stroke-width=".4181895" d="M74.77 49.55v2.067a.676.676 0 01-.676.675h-2.818a.676.676 0 01-.676-.675V49.55c0-.373.303-.677.676-.677h2.818c.373 0 .676.304.676.677"/><path id="button100" fill="#fff" fill-rule="nonzero" stroke="#000" stroke-linecap="round" stroke-linejoin="round" stroke-miterlimit="10" stroke-width=".4181895" d="M92.388 43.563v2.068a.676.676 0 01-.677.675h-2.817a.676.676 0 01-.677-.675v-2.068c0-.373.303-.676.677-.676h2.817c.374 0 .677.303.677.676"/><path id="button200" fill="#fff" fill-rule="nonzero" stroke="#000" stroke-linecap="round" stroke-linejoin="round" stroke-miterlimit="10" stroke-width=".4181895" d="M92.388 49.55v2.067a.676.676 0 01-.677.675h-2.817a.676.676 0 01-.677-.675V49.55c0-.373.303-.677.677-.677h2.817c.374 0 .677.304.677.677"/><path id="button17" fill="#fff" fill-rule="nonzero" stroke="#000" stroke-linejoin="round" stroke-miterlimit="2" stroke-width=".1915785" d="M8.237 34.493a1.69 1.69 0 10-.002 3.38 1.69 1.69 0 00.002-3.38"/><path id="button18" fill="#fff" fill-rule="nonzero" stroke="#000" stroke-linejoin="round" stroke-miterlimit="2" stroke-width=".1915785" d="M17.461 34.493a1.69 1.69 0 10-.003 3.38 1.69 1.69 0 00.003-3.38"/><path id="button19" fill="#fff" fill-rule="nonzero" stroke="#000" stroke-linejoin="round" stroke-miterlimit="2" stroke-width=".1915785" d="M26.685 34.493a1.69 1.69 0 10-.003 3.38 1.69 1.69 0 00.003-3.38"/><path id="button20" fill="#fff" fill-rule="nonzero" stroke="#000" stroke-linejoin="round" stroke-miterlimit="2" stroke-width=".1915785" d="M35.909 34.493a1.69 1.69 0 10-.003 3.38 1.69 1.69 0 00.003-3.38"/><path id="button21" fill="#fff" stroke="#000" stroke-width=".1915785" d="M45.133 34.493a1.69 1.69 0 10-.003 3.38 1.69 1.69 0 00.003-3.38"/><path id="button22" fill="#fff" stroke="#000" stroke-width=".1915785" d="M54.356 34.493a1.69 1.69 0 10-.003 3.38 1.69 1.69 0 00.003-3.38"/><path id="button23" fill="#fff" stroke="#000" stroke-width=".1915785" d="M63.58 34.493a1.69 1.69 0 10-.003 3.38 1.69 1.69 0 00.003-3.38"/><path id="button24" fill="#fff" stroke="#000" stroke-width=".1915785" d="M72.803 34.493a1.69 1.69 0 10-.003 3.38 1.69 1.69 0 00.003-3.38"/></svg>