<?xml version="1.0" encoding="UTF-8" standalone="no"?>
<!DOCTYPE svg PUBLIC "-//W3C//DTD SVG 1.1//EN" "http://www.w3.org/Graphics/SVG/1.1/DTD/svg11.dtd">
<svg width="100%" height="100%" viewBox="0 0 96 86" version="1.1" xmlns="http://www.w3.org/2000/svg" xmlns:xlink="http://www.w3.org/1999/xlink" xml:space="preserve" xmlns:serif="http://www.serif.com/" style="fill-rule:evenodd;clip-rule:evenodd;">
    <g transform="matrix(0.309768,0,0,0.309768,3.7578,27.971)">
        <path d="M0,97.035L285.647,97.035C292.347,97.035 297.778,91.604 297.778,84.905L297.778,12.131C297.778,5.43 292.347,0 285.647,0L0,0C-6.699,0 -12.13,5.43 -12.13,12.131L-12.13,84.905C-12.13,91.604 -6.699,97.035 0,97.035" style="fill:none;fill-rule:nonzero;stroke:black;stroke-width:0.6px;"/>
    </g>
    <g transform="matrix(0.309768,0,0,0.309768,3.75718,29.1428)">
        <path d="M0,89.47C-4.601,89.47 -8.347,85.723 -8.347,81.121L-8.347,8.344C-8.347,3.744 -4.601,0 0,0L285.647,0C290.251,0 293.993,3.744 293.993,8.344L293.993,81.121C293.993,85.723 290.251,89.47 285.647,89.47L0,89.47Z" style="fill:none;fill-rule:nonzero;stroke:black;stroke-width:0.6px;"/>
    </g>
    <g transform="matrix(0.309768,0,0,0.309768,78.0595,32.7622)">
        <path d="M0,68.225C0,70.227 -1.639,71.866 -3.639,71.866L-238.954,71.866C-240.956,71.866 -242.592,70.227 -242.592,68.225L-242.592,-0.003C-242.592,-2.002 -240.956,-3.641 -238.954,-3.641L-3.639,-3.641C-1.639,-3.641 0,-2.002 0,-0.003L0,68.225Z" style="fill:none;fill-rule:nonzero;stroke:black;stroke-width:0.6px;"/>
    </g>
    <g transform="matrix(0.309768,0,0,0.309768,85.7612,32.7622)">
        <path d="M0,68.225C0,70.227 -1.637,71.866 -3.641,71.866L-18.799,71.866C-20.801,71.866 -22.439,70.227 -22.439,68.225L-22.439,-0.003C-22.439,-2.003 -20.801,-3.641 -18.799,-3.641L-3.641,-3.641C-1.637,-3.641 0,-2.003 0,-0.003L0,68.225Z" style="fill:none;fill-rule:nonzero;stroke:black;stroke-width:0.6px;"/>
    </g>
    <g transform="matrix(0.309768,0,0,0.309768,94.028,43.0009)">
        <path d="M0,35.172C0,37.174 -1.641,38.813 -3.641,38.813L-20.623,38.813C-22.619,38.813 -24.26,37.174 -24.26,35.172L-24.26,-0.002C-24.26,-0.981 -21.6,-3.641 -20.623,-3.641L-3.641,-3.641C-1.641,-3.641 0,-2.003 0,-0.002L0,35.172Z" style="fill:none;fill-rule:nonzero;stroke:black;stroke-width:0.6px;stroke-linecap:round;stroke-linejoin:round;stroke-miterlimit:10;"/>
    </g>
    <g transform="matrix(0.309768,0,0,0.309768,94.0274,38.3045)">
        <path d="M0,5.455C0,7.457 -1.639,9.095 -3.639,9.095L-20.617,9.095C-22.617,9.095 -24.258,7.457 -24.258,5.455L-24.258,-0.003C-24.258,-2.004 -22.617,-3.64 -20.617,-3.64L-3.639,-3.64C-1.639,-3.64 0,-2.004 0,-0.003L0,5.455Z" style="fill:none;fill-rule:nonzero;stroke:black;stroke-width:0.6px;"/>
    </g>
    <g transform="matrix(0.309768,0,0,0.309768,-16.0686,-64.449)">
        <path d="M66.048,335.237L66.04,335.237L65.54,335.476L65.438,335.014L66.134,334.693L66.643,334.693L66.643,337.317L66.048,337.317" style="fill-rule:nonzero;"/>
    </g>
    <g transform="matrix(0.309768,0,0,0.309768,-16.0686,-64.4627)">
        <path d="M95.063,337.361L95.063,336.991L95.403,336.684C95.977,336.17 96.254,335.876 96.264,335.569C96.264,335.354 96.134,335.185 95.83,335.185C95.605,335.185 95.407,335.298 95.268,335.404L95.097,334.961C95.294,334.813 95.601,334.693 95.956,334.693C96.55,334.693 96.878,335.038 96.878,335.516C96.878,335.956 96.559,336.308 96.179,336.647L95.937,336.85L95.937,336.857L96.926,336.857L96.926,337.361" style="fill-rule:nonzero;"/>
    </g>
    <g transform="matrix(0.309768,0,0,0.309768,-16.0686,-64.4478)">
        <path d="M124.91,336.714C125.018,336.769 125.27,336.874 125.52,336.874C125.841,336.874 126.001,336.721 126.001,336.524C126.001,336.264 125.743,336.146 125.473,336.146L125.222,336.146L125.222,335.707L125.459,335.707C125.666,335.704 125.929,335.626 125.929,335.403C125.929,335.244 125.8,335.129 125.54,335.129C125.327,335.129 125.1,335.221 124.991,335.286L124.866,334.842C125.023,334.74 125.338,334.645 125.679,334.645C126.24,334.645 126.552,334.939 126.552,335.298C126.552,335.577 126.393,335.796 126.071,335.908L126.071,335.917C126.386,335.973 126.64,336.212 126.64,336.556C126.64,337.02 126.232,337.361 125.565,337.361C125.225,337.361 124.939,337.271 124.784,337.173" style="fill-rule:nonzero;"/>
    </g>
    <g transform="matrix(0.309768,0,0,0.309768,-16.0686,-64.4493)">
        <path d="M155.564,336.233L155.564,335.651C155.564,335.494 155.572,335.33 155.583,335.162L155.568,335.162C155.482,335.33 155.415,335.486 155.326,335.651L154.973,336.224L154.973,336.233L155.564,336.233ZM155.564,337.318L155.564,336.693L154.4,336.693L154.4,336.294L155.393,334.693L156.145,334.693L156.145,336.233L156.46,336.233L156.46,336.693L156.145,336.693L156.145,337.318" style="fill-rule:nonzero;"/>
    </g>
    <g transform="matrix(0.309768,0,0,0.309768,-16.0686,-64.4345)">
        <path d="M185.972,335.149L184.953,335.149L184.898,335.555C184.953,335.548 185.001,335.548 185.068,335.548C185.318,335.548 185.572,335.603 185.757,335.736C185.956,335.87 186.078,336.087 186.078,336.396C186.078,336.884 185.656,337.317 184.951,337.317C184.63,337.317 184.365,337.244 184.218,337.167L184.327,336.706C184.445,336.762 184.683,336.836 184.921,336.836C185.175,336.836 185.447,336.714 185.447,336.436C185.447,336.165 185.232,335.998 184.706,335.998C184.562,335.998 184.46,336.008 184.351,336.024L184.525,334.646L185.972,334.646" style="fill-rule:nonzero;"/>
    </g>
    <g transform="matrix(0.309768,0,0,0.309768,-16.0686,-64.4469)">
        <path d="M215.249,336.438C215.249,336.196 215.118,335.987 214.856,335.987C214.69,335.987 214.555,336.088 214.493,336.221C214.477,336.253 214.468,336.301 214.468,336.374C214.48,336.653 214.614,336.904 214.894,336.904C215.111,336.904 215.249,336.706 215.249,336.438M215.583,335.122C215.515,335.117 215.442,335.122 215.346,335.131C214.801,335.174 214.558,335.453 214.489,335.76L214.5,335.76C214.63,335.628 214.811,335.551 215.059,335.551C215.499,335.551 215.871,335.861 215.871,336.408C215.871,336.929 215.471,337.358 214.901,337.358C214.202,337.358 213.858,336.834 213.858,336.209C213.858,335.717 214.04,335.303 214.323,335.042C214.587,334.804 214.927,334.674 215.339,334.652C215.452,334.645 215.523,334.645 215.583,334.648" style="fill-rule:nonzero;"/>
    </g>
    <g transform="matrix(0.309768,0,0,0.309768,-16.0686,-64.4487)">
        <path d="M245.511,334.692L245.511,335.08L244.427,337.317L243.779,337.317L244.861,335.205L244.861,335.195L243.654,335.195L243.654,334.692" style="fill-rule:nonzero;"/>
    </g>
    <g transform="matrix(0.309768,0,0,0.309768,-16.0686,-48.5059)">
        <path d="M337.226,308.91L337.845,308.91L337.845,311.115L338.929,311.115L338.929,311.632L337.226,311.632" style="fill-rule:nonzero;"/>
    </g>
    <g transform="matrix(0.309768,0,0,0.309768,-16.0686,-48.5062)">
        <path d="M340.918,310.474L340.747,309.896C340.698,309.732 340.647,309.534 340.608,309.37L340.602,309.37C340.56,309.534 340.521,309.738 340.478,309.896L340.314,310.474L340.918,310.474ZM340.224,310.933L340.033,311.632L339.395,311.632L340.224,308.911L341.033,308.911L341.879,311.632L341.216,311.632L341.004,310.933" style="fill-rule:nonzero;"/>
    </g>
    <g transform="matrix(0.309768,0,0,0.309768,-16.0686,-48.5065)">
        <path d="M342.818,311.633L342.818,310.52L341.961,308.911L342.66,308.911L342.941,309.567C343.025,309.762 343.084,309.908 343.15,310.088L343.16,310.088C343.218,309.918 343.285,309.76 343.367,309.567L343.64,308.911L344.334,308.911L343.435,310.498L343.435,311.633" style="fill-rule:nonzero;"/>
    </g>
    <g transform="matrix(0.309768,0,0,0.309768,-16.0686,-48.5062)">
        <path d="M346.484,310.482L345.478,310.482L345.478,311.129L346.601,311.129L346.601,311.632L344.863,311.632L344.863,308.911L346.543,308.911L346.543,309.416L345.478,309.416L345.478,309.98L346.484,309.98" style="fill-rule:nonzero;"/>
    </g>
    <g transform="matrix(0.309768,0,0,0.309768,-16.0686,-48.5127)">
        <path d="M347.898,310.14L348.142,310.14C348.449,310.14 348.628,309.984 348.628,309.745C348.628,309.494 348.459,309.37 348.177,309.367C348.027,309.367 347.941,309.381 347.898,309.39L347.898,310.14ZM347.289,308.967C347.484,308.934 347.781,308.91 348.109,308.91C348.511,308.91 348.793,308.971 348.99,309.124C349.15,309.256 349.242,309.445 349.242,309.693C349.242,310.042 348.992,310.283 348.759,310.367L348.759,310.378C348.949,310.453 349.054,310.636 349.123,310.884C349.207,311.195 349.293,311.549 349.345,311.654L348.714,311.654C348.671,311.577 348.603,311.354 348.525,311.019C348.449,310.681 348.334,310.587 348.086,310.583L347.898,310.583L347.898,311.654L347.289,311.654" style="fill-rule:nonzero;"/>
    </g>
    <g transform="matrix(0.309768,0,0,0.309768,-16.0686,-62.9783)">
        <path d="M337.931,333.82C337.917,333.555 337.904,333.236 337.906,332.961L337.898,332.961C337.831,333.21 337.747,333.487 337.654,333.742L337.359,334.629L337.07,334.629L336.796,333.756C336.72,333.495 336.646,333.217 336.589,332.961L336.585,332.961C336.576,333.228 336.562,333.552 336.548,333.833L336.501,334.654L336.154,334.654L336.288,332.608L336.783,332.608L337.05,333.431C337.12,333.67 337.185,333.913 337.236,334.142L337.245,334.142C337.3,333.92 337.368,333.667 337.447,333.428L337.732,332.608L338.216,332.608L338.333,334.654L337.97,334.654" style="fill-rule:nonzero;"/>
    </g>
    <g transform="matrix(0.309768,0,0,0.309768,-16.0686,-62.9786)">
        <path d="M340.384,334.593C340.296,334.641 340.103,334.684 339.855,334.684C339.208,334.684 338.812,334.278 338.812,333.656C338.812,332.983 339.28,332.579 339.905,332.579C340.152,332.579 340.327,332.628 340.404,332.667L340.32,332.965C340.224,332.922 340.091,332.886 339.919,332.886C339.503,332.886 339.206,333.147 339.206,333.637C339.206,334.088 339.468,334.376 339.915,334.376C340.068,334.376 340.226,334.345 340.325,334.301" style="fill-rule:nonzero;"/>
    </g>
    <g transform="matrix(0.309768,0,0,0.309768,-16.0686,-62.9783)">
        <path d="M343.419,333.82C343.407,333.555 343.394,333.236 343.394,332.961L343.386,332.961C343.319,333.21 343.235,333.487 343.142,333.742L342.849,334.629L342.558,334.629L342.286,333.756C342.208,333.495 342.132,333.217 342.079,332.961L342.071,332.961C342.064,333.228 342.052,333.552 342.036,333.833L341.991,334.654L341.642,334.654L341.776,332.608L342.269,332.608L342.538,333.431C342.608,333.67 342.673,333.913 342.724,334.142L342.733,334.142C342.788,333.92 342.858,333.667 342.937,333.428L343.218,332.608L343.704,332.608L343.823,334.654L343.46,334.654" style="fill-rule:nonzero;"/>
    </g>
    <g transform="matrix(0.309768,0,0,0.309768,-16.0686,-62.9786)">
        <path d="M344.695,333.641C344.695,334.056 344.906,334.387 345.263,334.387C345.625,334.387 345.826,334.055 345.826,333.625C345.826,333.241 345.636,332.877 345.263,332.877C344.89,332.877 344.695,333.22 344.695,333.641M346.22,333.613C346.22,334.296 345.804,334.687 345.242,334.687C344.664,334.687 344.3,334.248 344.3,333.648C344.3,333.018 344.695,332.576 345.273,332.576C345.869,332.576 346.22,333.028 346.22,333.613" style="fill-rule:nonzero;"/>
    </g>
    <g transform="matrix(0.309768,0,0,0.309768,-16.0686,-62.9758)">
        <path d="M347.132,334.36C347.185,334.371 347.263,334.371 347.341,334.371C347.821,334.371 348.112,334.105 348.112,333.587C348.116,333.135 347.857,332.878 347.388,332.878C347.271,332.878 347.185,332.886 347.132,332.899L347.132,334.36ZM346.759,332.628C346.925,332.6 347.132,332.587 347.355,332.587C347.736,332.587 347.999,332.665 348.191,332.822C348.386,332.982 348.509,333.226 348.509,333.575C348.509,333.939 348.382,334.213 348.191,334.387C347.986,334.572 347.661,334.667 347.263,334.667C347.044,334.667 346.882,334.654 346.759,334.64" style="fill-rule:nonzero;"/>
    </g>
    <g transform="matrix(0.309768,0,0,0.309768,-16.0686,-62.9783)">
        <path d="M350.185,333.747L349.415,333.747L349.415,334.346L350.279,334.346L350.279,334.654L349.042,334.654L349.042,332.608L350.23,332.608L350.23,332.915L349.415,332.915L349.415,333.443L350.185,333.443" style="fill-rule:nonzero;"/>
    </g>
    <g transform="matrix(0.309768,0,0,0.309768,-16.0686,-54.5238)">
        <path d="M353.451,320.187L353.281,319.607C353.232,319.448 353.185,319.245 353.144,319.082L353.137,319.082C353.096,319.245 353.055,319.451 353.012,319.607L352.849,320.187L353.451,320.187ZM352.758,320.644L352.564,321.345L351.928,321.345L352.758,318.624L353.57,318.624L354.412,321.345L353.75,321.345L353.537,320.644" style="fill-rule:nonzero;"/>
    </g>
    <g transform="matrix(0.309768,0,0,0.309768,-16.0686,-42.5007)">
        <path d="M352.537,301.498C352.598,301.506 352.67,301.506 352.775,301.506C353.055,301.506 353.299,301.402 353.299,301.115C353.299,300.839 353.055,300.733 352.746,300.733L352.537,300.733L352.537,301.498ZM352.537,300.292L352.738,300.292C353.062,300.292 353.236,300.157 353.236,299.954C353.236,299.747 353.08,299.642 352.801,299.642C352.668,299.642 352.592,299.647 352.537,299.655L352.537,300.292ZM351.928,299.247C352.09,299.218 352.416,299.192 352.725,299.192C353.101,299.192 353.332,299.224 353.525,299.343C353.719,299.446 353.855,299.63 353.855,299.878C353.855,300.118 353.713,300.349 353.406,300.46L353.406,300.468C353.719,300.554 353.945,300.788 353.945,301.139C353.945,301.387 353.834,301.581 353.664,301.717C353.465,301.873 353.137,301.964 352.594,301.964C352.293,301.964 352.062,301.944 351.928,301.922" style="fill-rule:nonzero;"/>
    </g>
    <g transform="matrix(0.309768,0,0,0.309768,-16.0686,-64.4481)">
        <path d="M273.976,335.364C273.976,335.543 274.136,335.656 274.345,335.72C274.486,335.678 274.615,335.55 274.615,335.385C274.615,335.221 274.521,335.062 274.294,335.062C274.085,335.062 273.976,335.198 273.976,335.364M274.667,336.608C274.667,336.377 274.497,336.241 274.253,336.176C274.054,336.233 273.935,336.377 273.935,336.569C273.929,336.758 274.074,336.935 274.304,336.935C274.523,336.935 274.667,336.794 274.667,336.608M273.304,336.627C273.304,336.312 273.49,336.095 273.779,335.971L273.779,335.957C273.523,335.829 273.398,335.614 273.398,335.385C273.398,334.939 273.796,334.645 274.324,334.645C274.937,334.645 275.191,335 275.191,335.32C275.191,335.546 275.068,335.767 274.81,335.896L274.81,335.908C275.066,336.006 275.292,336.224 275.292,336.564C275.292,337.041 274.892,337.362 274.281,337.362C273.615,337.362 273.304,336.985 273.304,336.627" style="fill-rule:nonzero;"/>
    </g>
    <g transform="matrix(0.309768,0,0,0.309768,-16.0686,-42.4998)">
        <path d="M89.554,300.896C89.542,300.566 89.53,300.168 89.53,299.774L89.517,299.774C89.433,300.124 89.32,300.51 89.215,300.831L88.884,301.892L88.403,301.892L88.112,300.836C88.023,300.518 87.93,300.131 87.866,299.774L87.857,299.774C87.842,300.141 87.829,300.564 87.809,300.904L87.761,301.938L87.191,301.938L87.366,299.215L88.185,299.215L88.451,300.124C88.535,300.438 88.621,300.778 88.682,301.095L88.694,301.095C88.77,300.782 88.863,300.42 88.952,300.118L89.243,299.215L90.048,299.215L90.197,301.938L89.594,301.938" style="fill-rule:nonzero;"/>
    </g>
    <g transform="matrix(0.309768,0,0,0.309768,-16.0686,-42.5026)">
        <path d="M92.821,301.87C92.709,301.925 92.454,301.984 92.122,301.984C91.181,301.984 90.695,301.399 90.695,300.624C90.695,299.693 91.36,299.178 92.184,299.178C92.501,299.178 92.744,299.242 92.853,299.298L92.729,299.79C92.603,299.736 92.429,299.685 92.211,299.685C91.722,299.685 91.343,299.984 91.343,300.587C91.343,301.132 91.665,301.477 92.216,301.477C92.401,301.477 92.608,301.438 92.729,301.388" style="fill-rule:nonzero;"/>
    </g>
    <g transform="matrix(0.309768,0,0,0.309768,-16.0686,-42.4998)">
        <path d="M206.069,299.215L206.686,299.215L206.686,301.419L207.769,301.419L207.769,301.938L206.069,301.938" style="fill-rule:nonzero;"/>
    </g>
    <g transform="matrix(0.309768,0,0,0.309768,-16.0686,-42.5013)">
        <path d="M208.743,300.588C208.743,301.121 208.994,301.498 209.405,301.498C209.823,301.498 210.061,301.1 210.061,300.57C210.061,300.083 209.827,299.663 209.403,299.663C208.986,299.663 208.743,300.058 208.743,300.588M210.712,300.55C210.712,301.443 210.169,301.985 209.375,301.985C208.565,301.985 208.093,301.377 208.093,300.598C208.093,299.785 208.614,299.173 209.419,299.173C210.255,299.173 210.712,299.803 210.712,300.55" style="fill-rule:nonzero;"/>
    </g>
    <g transform="matrix(0.309768,0,0,0.309768,-16.0686,-42.5013)">
        <path d="M211.804,300.588C211.804,301.121 212.055,301.498 212.468,301.498C212.884,301.498 213.123,301.1 213.123,300.57C213.123,300.083 212.887,299.663 212.463,299.663C212.048,299.663 211.804,300.058 211.804,300.588M213.773,300.55C213.773,301.443 213.232,301.985 212.435,301.985C211.626,301.985 211.154,301.377 211.154,300.598C211.154,299.785 211.675,299.173 212.48,299.173C213.316,299.173 213.773,299.803 213.773,300.55" style="fill-rule:nonzero;"/>
    </g>
    <g transform="matrix(0.309768,0,0,0.309768,-16.0686,-42.5069)">
        <path d="M214.959,300.51C215.011,300.524 215.077,300.526 215.164,300.526C215.491,300.526 215.692,300.362 215.692,300.08C215.692,299.833 215.519,299.682 215.213,299.682C215.089,299.682 215.002,299.694 214.959,299.703L214.959,300.51ZM214.349,299.27C214.539,299.239 214.804,299.215 215.181,299.215C215.561,299.215 215.832,299.288 216.013,299.434C216.185,299.572 216.304,299.797 216.304,300.067C216.304,300.332 216.214,300.557 216.052,300.711C215.843,300.911 215.532,300.999 215.168,300.999C215.089,300.999 215.016,300.993 214.959,300.988L214.959,301.961L214.349,301.961" style="fill-rule:nonzero;"/>
    </g>
    <g transform="matrix(0.309768,0,0,0.309768,-16.0686,-42.5013)">
        <path d="M152.884,298.813L150.204,300.207L150.204,299.164C150.204,298.804 149.945,298.643 149.628,298.813L146.874,300.248C146.558,300.41 146.555,300.683 146.868,300.857L149.632,302.347C149.946,302.515 150.204,302.361 150.204,302.001L150.204,300.897L152.888,302.347C153.202,302.515 153.46,302.361 153.46,302.001L153.46,299.164C153.46,298.804 153.2,298.643 152.884,298.813" style="fill-rule:nonzero;"/>
    </g>
    <g transform="matrix(0.309768,0,0,0.309768,-16.0686,-42.5013)">
        <path d="M176.929,298.813L179.607,300.207L179.607,299.162C179.607,298.804 179.867,298.643 180.185,298.813L182.939,300.248C183.256,300.41 183.258,300.683 182.943,300.853L180.179,302.345C179.867,302.515 179.607,302.361 179.607,302.001L179.607,300.897L176.923,302.345C176.609,302.515 176.353,302.361 176.353,302.001L176.353,299.162C176.353,298.804 176.612,298.643 176.929,298.813" style="fill-rule:nonzero;"/>
    </g>
    <g transform="matrix(0.309768,0,0,0.309768,-16.0686,-42.4989)">
        <path d="M265.505,299.266C265.505,298.73 265.892,298.499 266.359,298.755L268.948,300.152C269.417,300.408 269.413,300.816 268.939,301.061L266.364,302.404C265.894,302.651 265.505,302.413 265.505,301.883" style="fill-rule:nonzero;"/>
    </g>
    <g transform="matrix(0.309768,0,0,0.309768,-16.0686,-42.4998)">
        <path d="M239.929,302.16C239.929,302.426 239.712,302.647 239.449,302.647L236.273,302.647C236.005,302.647 235.786,302.426 235.786,302.16L235.786,298.986C235.786,298.722 236.005,298.506 236.273,298.506L239.449,298.506C239.712,298.506 239.929,298.722 239.929,298.986" style="fill-rule:nonzero;"/>
    </g>
    <g transform="matrix(0,-0.309768,-0.309768,0,169.132,142.7)">
        <path d="M297.292,298.506C296.146,298.506 295.22,299.43 295.22,300.574C295.22,301.719 296.146,302.649 297.292,302.649C298.437,302.649 299.363,301.719 299.363,300.574C299.363,299.43 298.437,298.506 297.292,298.506" style="fill-rule:nonzero;"/>
    </g>
    <g transform="matrix(0.309768,0,0,0.309768,-16.0686,-54.6223)">
        <path d="M333.06,321.582C332.662,321.582 332.484,321.291 332.671,320.936L333.669,319.059C333.857,318.705 334.164,318.705 334.349,319.059L335.345,320.936C335.533,321.291 335.361,321.582 334.958,321.582" style="fill-rule:nonzero;"/>
    </g>
    <g transform="matrix(0.309768,0,0,0.309768,-16.0686,-42.4022)">
        <path d="M334.958,298.981C335.36,298.981 335.532,299.273 335.347,299.623L334.349,301.502C334.163,301.857 333.856,301.857 333.669,301.502L332.675,299.623C332.485,299.273 332.659,298.981 333.06,298.981" style="fill-rule:nonzero;"/>
    </g>
    <g transform="matrix(-0.219057,0.219021,0.219021,0.219057,1.87831,32.5064)">
        <path d="M-14.641,-6.064C-9.905,-10.8 -2.226,-10.802 2.511,-6.064" style="fill:none;fill-rule:nonzero;stroke:rgb(24,24,24);stroke-width:0.01px;stroke-linecap:round;stroke-linejoin:round;stroke-miterlimit:10;"/>
    </g>
    <g transform="matrix(-0.219066,-0.219012,-0.219012,0.219066,94.1201,27.1923)">
        <path d="M-14.642,6.064C-9.907,1.327 -2.229,1.325 2.511,6.064" style="fill:none;fill-rule:nonzero;stroke:rgb(24,24,24);stroke-width:0.01px;stroke-linecap:round;stroke-linejoin:round;stroke-miterlimit:10;"/>
    </g>
    <g transform="matrix(0.219057,0.219021,0.219021,-0.219057,1.87831,53.4936)">
        <path d="M-2.511,-6.064C2.225,-10.801 9.905,-10.8 14.641,-6.064" style="fill:none;fill-rule:nonzero;stroke:rgb(24,24,24);stroke-width:0.01px;stroke-linecap:round;stroke-linejoin:round;stroke-miterlimit:10;"/>
    </g>
    <g transform="matrix(0.309768,0,0,0.309768,-16.0686,-66.5477)">
        <path d="M340.373,341.063C340.373,341.747 340.93,342.306 341.615,342.306L344.957,342.306C345.644,342.306 346.199,341.747 346.199,341.063L346.199,337.721C346.199,337.035 345.644,336.479 344.957,336.479L341.615,336.479C340.93,336.479 340.373,337.035 340.373,337.721" style="fill-rule:nonzero;"/>
    </g>
    <g transform="matrix(0.309768,0,0,0.309768,-16.0686,-57.3417)">
        <path d="M316.08,293.492L316.08,355.574C316.08,356.361 316.721,357.007 317.51,357.007C318.303,357.007 318.943,356.361 318.943,355.574L318.943,293.492C318.943,292.702 318.303,292.059 317.51,292.059C316.721,292.059 316.08,292.702 316.08,293.492" style="fill-rule:nonzero;"/>
    </g>
    <g id="slider" transform="matrix(0.309768,0,0,0.309768,-16.0686,-57.342)">
        <path d="M322.353,311.64L322.32,311.64L322.316,311.641L322.308,311.641L322.304,311.642L322.294,311.642L322.289,311.643L322.281,311.645L322.277,311.645L322.271,311.647L322.267,311.647L322.261,311.648L322.253,311.65L322.246,311.65L322.242,311.653L322.236,311.653L322.228,311.655L322.224,311.657L322.132,311.683L322.039,311.708L321.943,311.732L321.849,311.758L321.757,311.784L321.664,311.806L321.57,311.828L321.474,311.849L321.382,311.872L321.283,311.892L321.099,311.936L321.001,311.952L320.906,311.973L320.81,311.993L320.716,312.009L320.623,312.028L320.529,312.043L320.333,312.077L320.24,312.093L320.144,312.109L320.048,312.122L319.955,312.136L319.857,312.149L319.761,312.161L319.665,312.174L319.57,312.186L319.474,312.197L319.378,312.207L319.283,312.218L319.183,312.226L319.087,312.237L318.992,312.244L318.896,312.253L318.798,312.261L318.701,312.266L318.605,312.275L318.507,312.278L318.412,312.284L318.316,312.29L318.218,312.294L318.189,312.296L318.16,312.296L318.13,312.298L318.04,312.298L318.013,312.302L317.984,312.302L317.955,312.303L317.923,312.304L317.896,312.304L317.863,312.305L317.601,312.305L317.572,312.308L317.451,312.308L317.421,312.305L317.158,312.305L317.126,312.304L317.097,312.304L317.068,312.303L317.04,312.302L317.009,312.302L316.978,312.298L316.892,312.298L316.863,312.296L316.832,312.296L316.802,312.294L316.707,312.29L316.613,312.284L316.513,312.278L316.417,312.275L316.322,312.266L316.224,312.261L316.128,312.253L316.033,312.244L315.935,312.237L315.841,312.226L315.742,312.218L315.646,312.207L315.55,312.197L315.453,312.186L315.357,312.174L315.261,312.161L315.165,312.149L315.07,312.136L314.972,312.122L314.878,312.109L314.783,312.093L314.687,312.077L314.593,312.06L314.496,312.043L314.402,312.028L314.306,312.009L314.21,311.993L314.115,311.973L314.019,311.952L313.925,311.936L313.832,311.914L313.736,311.892L313.644,311.872L313.548,311.849L313.457,311.828L313.359,311.806L313.265,311.784L313.173,311.758L313.08,311.732L312.986,311.708L312.892,311.683L312.798,311.657L312.79,311.655L312.789,311.653L312.783,311.653L312.777,311.65L312.767,311.65L312.761,311.648L312.757,311.647L312.753,311.647L312.744,311.645L312.74,311.645L312.736,311.643L312.73,311.642L312.718,311.642L312.712,311.641L312.707,311.641L312.703,311.64L311.808,311.64L311.79,311.642L311.771,311.645L311.751,311.65L311.734,311.655L311.716,311.662L311.703,311.67L311.683,311.679L311.667,311.691L311.652,311.701L311.636,311.713L311.623,311.725L311.611,311.739L311.599,311.754L311.589,311.771L311.58,311.786L311.572,311.802L311.562,311.821L311.556,311.837L311.552,311.855L311.546,311.874L311.544,311.892L311.542,311.911L311.542,311.929L311.546,311.993L311.552,312.053L311.554,312.112L311.558,312.169L311.564,312.226L311.566,312.281L311.572,312.336L311.574,312.39L311.58,312.443L311.583,312.495L311.583,312.55L311.589,312.603L311.593,312.707L311.599,312.758L311.599,312.812L311.601,312.865L311.605,312.914L311.605,312.967L311.611,313.017L311.611,313.067L311.613,313.119L311.617,313.165L311.619,313.213L311.621,313.264L311.623,313.311L311.623,313.404L311.624,313.452L311.628,313.496L311.63,313.54L311.63,313.627L311.632,313.673L311.632,313.711L311.636,313.75L311.636,313.941L311.64,313.98L311.64,314.017L311.642,314.055L311.642,314.09L311.644,314.129L311.644,314.167L311.648,314.205L311.648,314.284L311.65,314.325L311.65,314.446L311.652,314.486L311.652,314.615L311.656,314.661L311.656,314.752L311.658,314.799L311.658,314.893L311.66,314.938L311.66,314.986L311.664,315.032L311.664,316.332L311.66,316.359L311.66,316.482L311.658,316.515L311.658,316.706L311.656,316.746L311.656,316.836L311.652,316.882L311.652,317.087L311.65,317.143L311.65,317.396L311.648,317.467L311.648,317.615L311.644,317.696L311.644,317.854L311.642,317.937L311.642,318.018L311.64,318.1L311.64,318.269L311.636,318.351L311.636,319.052L311.632,319.14L311.632,319.41L311.63,319.5L311.63,320.148L311.628,320.245L311.628,320.769L311.624,320.885L311.624,321.681L311.623,321.83L311.623,324.057L311.632,324.057L311.632,325.013L311.623,325.013L311.623,327.303L311.624,327.489L311.624,328.149L311.628,328.298L311.628,328.828L311.63,328.944L311.63,329.562L311.632,329.657L311.632,329.94L311.636,330.033L311.636,330.76L311.64,330.848L311.64,331.025L311.642,331.108L311.642,331.196L311.644,331.278L311.644,331.357L311.648,331.434L311.648,331.583L311.65,331.654L311.65,331.923L311.652,331.983L311.652,332.154L311.656,332.207L311.656,332.306L311.658,332.355L311.658,332.57L311.66,332.612L311.66,332.718L311.664,332.75L311.664,334.031L311.66,334.07L311.66,334.151L311.658,334.195L311.658,334.285L311.656,334.328L311.656,334.417L311.652,334.463L311.652,334.549L311.65,334.596L311.65,334.725L311.648,334.766L311.648,334.848L311.644,334.886L311.644,334.926L311.642,334.966L311.642,335.007L311.64,335.045L311.64,335.084L311.636,335.12L311.636,335.34L311.632,335.379L311.632,335.413L311.63,335.45L311.63,335.528L311.628,335.568L311.624,335.607L311.624,335.645L311.623,335.688L311.623,335.77L311.621,335.813L311.619,335.856L311.617,335.898L311.613,335.94L311.611,335.987L311.611,336.029L311.609,336.075L311.605,336.118L311.605,336.163L311.601,336.21L311.599,336.255L311.599,336.299L311.593,336.346L311.591,336.393L311.591,336.439L311.585,336.486L311.583,336.532L311.582,336.578L311.58,336.627L311.574,336.672L311.572,336.723L311.568,336.773L311.564,336.819L311.562,336.869L311.558,336.918L311.554,336.969L311.552,337.022L311.544,337.079L311.542,337.135L311.542,337.157L311.544,337.174L311.546,337.196L311.552,337.213L311.556,337.228L311.562,337.248L311.572,337.266L311.58,337.282L311.589,337.297L311.599,337.313L311.611,337.327L311.623,337.344L311.636,337.355L311.652,337.369L311.667,337.379L311.683,337.387L311.703,337.399L311.716,337.405L311.734,337.411L311.751,337.418L311.771,337.422L311.79,337.422L311.808,337.424L311.828,337.427L312.691,337.427L312.697,337.424L312.712,337.424L312.718,337.422L312.753,337.422L312.757,337.418L312.767,337.418L312.771,337.416L312.777,337.414L312.783,337.414L312.789,337.412L312.79,337.409L312.798,337.409L312.892,337.383L313.08,337.333L313.173,337.309L313.265,337.286L313.359,337.264L313.457,337.24L313.548,337.218L313.644,337.196L313.736,337.174L313.832,337.154L313.925,337.135L314.019,337.114L314.115,337.094L314.21,337.077L314.306,337.059L314.402,337.039L314.496,337.022L314.593,337.006L314.687,336.993L314.783,336.976L314.878,336.96L314.972,336.947L315.07,336.932L315.165,336.918L315.261,336.907L315.453,336.881L315.55,336.87L315.646,336.86L315.742,336.852L315.841,336.84L315.935,336.83L316.033,336.823L316.128,336.816L316.224,336.809L316.322,336.801L316.417,336.795L316.513,336.788L316.613,336.784L316.707,336.778L316.802,336.773L316.921,336.773L316.951,336.771L316.978,336.767L317.009,336.766L317.097,336.766L317.126,336.764L317.158,336.762L317.277,336.762L317.304,336.76L317.333,336.76L317.365,336.759L317.658,336.759L317.689,336.76L317.718,336.76L317.748,336.762L317.863,336.762L317.896,336.764L317.923,336.766L318.013,336.766L318.04,336.767L318.072,336.771L318.103,336.773L318.218,336.773L318.316,336.778L318.412,336.784L318.507,336.788L318.605,336.795L318.701,336.801L318.798,336.809L318.896,336.816L319.087,336.83L319.183,336.84L319.283,336.852L319.378,336.86L319.474,336.87L319.57,336.881L319.665,336.894L319.761,336.907L319.857,336.918L319.955,336.932L320.048,336.947L320.144,336.96L320.24,336.976L320.333,336.993L320.431,337.006L320.529,337.022L320.623,337.039L320.716,337.059L320.81,337.077L320.906,337.094L321.001,337.114L321.099,337.135L321.191,337.154L321.283,337.174L321.382,337.196L321.474,337.218L321.57,337.24L321.664,337.264L321.757,337.286L321.849,337.309L321.943,337.333L322.039,337.358L322.132,337.383L322.224,337.409L322.228,337.409L322.236,337.412L322.242,337.414L322.246,337.414L322.249,337.416L322.253,337.418L322.267,337.418L322.271,337.422L322.304,337.422L322.308,337.424L322.326,337.424L322.33,337.427L323.195,337.427L323.214,337.424L323.232,337.422L323.251,337.422L323.271,337.418L323.289,337.411L323.306,337.405L323.322,337.399L323.341,337.387L323.355,337.379L323.369,337.369L323.384,337.355L323.396,337.344L323.41,337.327L323.423,337.313L323.433,337.297L323.443,337.282L323.453,337.266L323.46,337.248L323.468,337.228L323.472,337.213L323.474,337.196L323.478,337.174L323.48,337.157L323.482,337.135L323.474,337.079L323.472,337.022L323.468,336.969L323.464,336.918L323.46,336.869L323.458,336.819L323.455,336.773L323.451,336.723L323.447,336.672L323.445,336.627L323.441,336.578L323.439,336.532L323.435,336.486L323.433,336.439L323.429,336.393L323.427,336.346L323.425,336.299L323.423,336.255L323.419,336.21L323.419,336.163L323.416,336.118L323.414,336.075L323.414,336.029L323.41,335.987L323.408,335.94L323.408,335.898L323.406,335.856L323.402,335.813L323.402,335.728L323.398,335.688L323.396,335.645L323.396,335.568L323.394,335.528L323.392,335.49L323.392,335.45L323.388,335.413L323.388,335.233L323.384,335.197L323.384,335.16L323.38,335.12L323.38,335.007L323.378,334.966L323.376,334.926L323.376,334.848L323.374,334.807L323.374,334.766L323.371,334.725L323.371,334.596L323.369,334.549L323.369,334.417L323.367,334.371L323.367,334.07L323.363,334.031L323.363,333.883L323.359,333.848L323.359,332.942L323.363,332.917L323.363,332.718L323.367,332.682L323.367,332.257L323.369,332.207L323.369,331.983L323.371,331.923L323.371,331.723L323.374,331.654L323.374,331.513L323.376,331.434L323.376,331.278L323.378,331.196L323.38,331.108L323.38,330.848L323.384,330.76L323.384,330.49L323.388,330.4L323.388,329.657L323.392,329.562L323.392,329.056L323.394,328.944L323.394,328.704L323.396,328.575L323.396,327.114L323.398,326.913L323.398,325.013L323.388,325.013L323.388,324.057L323.398,324.057L323.398,322.142L323.396,321.982L323.396,320.444L323.394,320.344L323.394,320.055L323.392,319.962L323.392,319.5L323.388,319.41L323.388,318.699L323.384,318.612L323.384,318.351L323.38,318.269L323.38,317.937L323.378,317.854L323.376,317.773L323.376,317.615L323.374,317.538L323.374,317.396L323.371,317.328L323.371,317.143L323.369,317.087L323.369,316.882L323.367,316.836L323.367,316.39L323.363,316.359L323.363,316.159L323.359,316.138L323.359,315.205L323.363,315.163L323.363,315.032L323.367,314.986L323.367,314.707L323.369,314.661L323.369,314.53L323.371,314.486L323.371,314.364L323.374,314.325L323.374,314.284L323.376,314.245L323.376,314.167L323.378,314.129L323.378,314.09L323.38,314.055L323.38,313.941L323.384,313.906L323.384,313.869L323.388,313.829L323.388,313.673L323.392,313.627L323.392,313.585L323.394,313.54L323.396,313.496L323.396,313.452L323.398,313.404L323.398,313.358L323.402,313.311L323.402,313.264L323.406,313.213L323.408,313.165L323.408,313.119L323.41,313.067L323.414,313.017L323.416,312.967L323.419,312.914L323.419,312.865L323.423,312.812L323.425,312.758L323.427,312.707L323.429,312.655L323.435,312.603L323.439,312.55L323.441,312.495L323.445,312.443L323.447,312.39L323.451,312.336L323.455,312.281L323.46,312.226L323.46,312.169L323.468,312.112L323.472,312.053L323.474,311.993L323.482,311.929L323.48,311.911L323.478,311.892L323.474,311.874L323.472,311.855L323.468,311.837L323.46,311.821L323.453,311.802L323.443,311.786L323.433,311.771L323.423,311.754L323.41,311.739L323.396,311.725L323.384,311.713L323.369,311.701L323.355,311.691L323.341,311.679L323.322,311.67L323.306,311.662L323.289,311.655L323.271,311.65L323.251,311.645L323.232,311.642L323.214,311.64L322.353,311.64Z" style="fill:white;fill-rule:nonzero;stroke:black;stroke-width:1.35px;stroke-linecap:square;stroke-linejoin:round;stroke-miterlimit:2;"/>
    </g>
    <g id="rotor1" transform="matrix(-0.309768,0,0,0.309768,32.5415,-71.3504)">
        <path d="M78.458,335.231C85.041,335.231 90.377,340.557 90.377,347.14C90.377,353.722 85.041,359.058 78.458,359.058C71.873,359.058 66.547,353.722 66.547,347.14C66.547,340.557 71.873,335.231 78.458,335.231" style="fill:white;fill-rule:nonzero;stroke:black;stroke-width:1.35px;stroke-linejoin:round;stroke-miterlimit:2;"/>
    </g>
    <g id="rotor2" transform="matrix(-0.309768,0,0,0.309768,51.0944,-71.3504)">
        <path d="M108.404,335.231C114.988,335.231 120.323,340.557 120.323,347.14C120.323,353.722 114.988,359.058 108.404,359.058C101.82,359.058 96.494,353.722 96.494,347.14C96.494,340.557 101.82,335.231 108.404,335.231" style="fill:white;fill-rule:nonzero;stroke:black;stroke-width:1.35px;stroke-linejoin:round;stroke-miterlimit:2;"/>
    </g>
    <g id="rotor3" transform="matrix(-0.309768,0,0,0.309768,69.4008,-71.3504)">
        <path d="M137.952,335.231C144.536,335.231 149.872,340.557 149.872,347.14C149.872,353.722 144.536,359.058 137.952,359.058C131.367,359.058 126.042,353.722 126.042,347.14C126.042,340.557 131.367,335.231 137.952,335.231" style="fill:white;fill-rule:nonzero;stroke:black;stroke-width:1.35px;stroke-linejoin:round;stroke-miterlimit:2;"/>
    </g>
    <g id="rotor4" transform="matrix(-0.309768,0,0,0.309768,87.894,-71.3504)">
        <path d="M167.802,335.231C174.385,335.231 179.721,340.557 179.721,347.14C179.721,353.722 174.385,359.058 167.802,359.058C161.216,359.058 155.893,353.722 155.893,347.14C155.893,340.557 161.216,335.231 167.802,335.231" style="fill:white;fill-rule:nonzero;stroke:black;stroke-width:1.35px;stroke-linejoin:round;stroke-miterlimit:2;"/>
    </g>
    <g id="rotor5" transform="matrix(-0.309768,0,0,0.309768,106.232,-71.3504)">
        <path d="M197.402,335.231C203.985,335.231 209.321,340.557 209.321,347.14C209.321,353.722 203.985,359.058 197.402,359.058C190.818,359.058 185.492,353.722 185.492,347.14C185.492,340.557 190.818,335.231 197.402,335.231" style="fill:white;fill-rule:nonzero;stroke:black;stroke-width:1.35px;stroke-linejoin:round;stroke-miterlimit:2;"/>
    </g>
    <g id="rotor6" transform="matrix(-0.309768,0,0,0.309768,124.686,-71.3504)">
        <path d="M227.191,335.231C233.773,335.231 239.109,340.557 239.109,347.14C239.109,353.722 233.773,359.058 227.191,359.058C220.603,359.058 215.279,353.722 215.279,347.14C215.279,340.557 220.603,335.231 227.191,335.231" style="fill:white;fill-rule:nonzero;stroke:black;stroke-width:1.35px;stroke-linejoin:round;stroke-miterlimit:2;"/>
    </g>
    <g id="rotor7" transform="matrix(-0.309768,0,0,0.309768,143.18,-71.3504)">
        <path d="M257.04,335.231C263.622,335.231 268.958,340.557 268.958,347.14C268.958,353.722 263.622,359.058 257.04,359.058C250.454,359.058 245.13,353.722 245.13,347.14C245.13,340.557 250.454,335.231 257.04,335.231" style="fill:white;fill-rule:nonzero;stroke:black;stroke-width:1.35px;stroke-linejoin:round;stroke-miterlimit:2;"/>
    </g>
    <g id="rotor8" transform="matrix(-0.309768,0,0,0.309768,161.673,-71.3504)">
        <path d="M286.888,335.231C293.472,335.231 298.808,340.557 298.808,347.14C298.808,353.722 293.472,359.058 286.888,359.058C280.304,359.058 274.98,353.722 274.98,347.14C274.98,340.557 280.304,335.231 286.888,335.231" style="fill:white;stroke:black;stroke-width:1.35px;"/>
    </g>
    <g id="button1" transform="matrix(0.309768,0,0,0.309768,10.3515,45.6299)">
        <path d="M0,-6.671L0,0.002C0,1.208 -0.977,2.184 -2.182,2.184L-11.281,2.184C-12.486,2.184 -13.463,1.208 -13.463,0.002L-13.463,-6.671C-13.463,-7.876 -12.486,-8.855 -11.281,-8.855L-2.182,-8.855C-0.977,-8.855 0,-7.876 0,-6.671" style="fill:white;fill-rule:nonzero;stroke:black;stroke-width:1.35px;stroke-linecap:round;stroke-linejoin:round;stroke-miterlimit:10;"/>
    </g>
    <g id="button2" transform="matrix(0.309768,0,0,0.309768,10.3515,51.615)">
        <path d="M0,-6.665L0,0.006C0,1.211 -0.977,2.186 -2.182,2.186L-11.281,2.186C-12.486,2.186 -13.463,1.211 -13.463,0.006L-13.463,-6.665C-13.463,-7.872 -12.486,-8.851 -11.281,-8.851L-2.182,-8.851C-0.977,-8.851 0,-7.872 0,-6.665" style="fill:white;fill-rule:nonzero;stroke:black;stroke-width:1.35px;stroke-linecap:round;stroke-linejoin:round;stroke-miterlimit:10;"/>
    </g>
    <g id="button3" transform="matrix(0.309768,0,0,0.309768,19.5984,45.6299)">
        <path d="M0,-6.671L0,0.002C0,1.208 -0.977,2.184 -2.183,2.184L-11.28,2.184C-12.487,2.184 -13.463,1.208 -13.463,0.002L-13.463,-6.671C-13.463,-7.876 -12.487,-8.855 -11.28,-8.855L-2.183,-8.855C-0.977,-8.855 0,-7.876 0,-6.671" style="fill:white;fill-rule:nonzero;stroke:black;stroke-width:1.35px;stroke-linecap:round;stroke-linejoin:round;stroke-miterlimit:10;"/>
    </g>
    <g id="button4" transform="matrix(0.309768,0,0,0.309768,19.5984,51.615)">
        <path d="M0,-6.665L0,0.006C0,1.211 -0.977,2.186 -2.183,2.186L-11.28,2.186C-12.487,2.186 -13.463,1.211 -13.463,0.006L-13.463,-6.665C-13.463,-7.872 -12.487,-8.851 -11.28,-8.851L-2.183,-8.851C-0.977,-8.851 0,-7.872 0,-6.665" style="fill:white;fill-rule:nonzero;stroke:black;stroke-width:1.35px;stroke-linecap:round;stroke-linejoin:round;stroke-miterlimit:10;"/>
    </g>
    <g id="button5" transform="matrix(0.309768,0,0,0.309768,28.683,45.6299)">
        <path d="M0,-6.671L0,0.002C0,1.208 -0.977,2.184 -2.183,2.184L-11.281,2.184C-12.488,2.184 -13.464,1.208 -13.464,0.002L-13.464,-6.671C-13.464,-7.876 -12.488,-8.855 -11.281,-8.855L-2.183,-8.855C-0.977,-8.855 0,-7.876 0,-6.671" style="fill:white;fill-rule:nonzero;stroke:black;stroke-width:1.35px;stroke-linecap:round;stroke-linejoin:round;stroke-miterlimit:10;"/>
    </g>
    <g id="button6" transform="matrix(0.309768,0,0,0.309768,28.683,51.615)">
        <path d="M0,-6.665L0,0.006C0,1.211 -0.977,2.186 -2.183,2.186L-11.281,2.186C-12.488,2.186 -13.464,1.211 -13.464,0.006L-13.464,-6.665C-13.464,-7.872 -12.488,-8.851 -11.281,-8.851L-2.183,-8.851C-0.977,-8.851 0,-7.872 0,-6.665" style="fill:white;fill-rule:nonzero;stroke:black;stroke-width:1.35px;stroke-linecap:round;stroke-linejoin:round;stroke-miterlimit:10;"/>
    </g>
    <g id="button7" transform="matrix(0.309768,0,0,0.309768,37.9293,45.6299)">
        <path d="M0,-6.671L0,0.002C0,1.208 -0.977,2.184 -2.183,2.184L-11.279,2.184C-12.487,2.184 -13.463,1.208 -13.463,0.002L-13.463,-6.671C-13.463,-7.876 -12.487,-8.855 -11.279,-8.855L-2.183,-8.855C-0.977,-8.855 0,-7.876 0,-6.671" style="fill:white;fill-rule:nonzero;stroke:black;stroke-width:1.35px;stroke-linecap:round;stroke-linejoin:round;stroke-miterlimit:10;"/>
    </g>
    <g id="button8" transform="matrix(0.309768,0,0,0.309768,37.9293,51.615)">
        <path d="M0,-6.665L0,0.006C0,1.211 -0.977,2.186 -2.183,2.186L-11.279,2.186C-12.487,2.186 -13.463,1.211 -13.463,0.006L-13.463,-6.665C-13.463,-7.872 -12.487,-8.851 -11.279,-8.851L-2.183,-8.851C-0.977,-8.851 0,-7.872 0,-6.665" style="fill:white;fill-rule:nonzero;stroke:black;stroke-width:1.35px;stroke-linecap:round;stroke-linejoin:round;stroke-miterlimit:10;"/>
    </g>
    <g id="button9" transform="matrix(0.309768,0,0,0.309768,47.1923,45.6299)">
        <path d="M0,-6.671L0,0.002C0,1.208 -0.977,2.184 -2.184,2.184L-11.279,2.184C-12.486,2.184 -13.463,1.208 -13.463,0.002L-13.463,-6.671C-13.463,-7.876 -12.486,-8.855 -11.279,-8.855L-2.184,-8.855C-0.977,-8.855 0,-7.876 0,-6.671" style="fill:white;fill-rule:nonzero;stroke:black;stroke-width:1.35px;stroke-linecap:round;stroke-linejoin:round;stroke-miterlimit:10;"/>
    </g>
    <g id="button10" transform="matrix(0.309768,0,0,0.309768,47.1923,51.615)">
        <path d="M0,-6.665L0,0.006C0,1.211 -0.977,2.186 -2.184,2.186L-11.279,2.186C-12.486,2.186 -13.463,1.211 -13.463,0.006L-13.463,-6.665C-13.463,-7.872 -12.486,-8.851 -11.279,-8.851L-2.184,-8.851C-0.977,-8.851 0,-7.872 0,-6.665" style="fill:white;fill-rule:nonzero;stroke:black;stroke-width:1.35px;stroke-linecap:round;stroke-linejoin:round;stroke-miterlimit:10;"/>
    </g>
    <g id="button11" transform="matrix(0.309768,0,0,0.309768,56.4395,45.6299)">
        <path d="M0,-6.671L0,0.002C0,1.208 -0.977,2.184 -2.184,2.184L-11.281,2.184C-12.488,2.184 -13.465,1.208 -13.465,0.002L-13.465,-6.671C-13.465,-7.876 -12.488,-8.855 -11.281,-8.855L-2.184,-8.855C-0.977,-8.855 0,-7.876 0,-6.671" style="fill:white;fill-rule:nonzero;stroke:black;stroke-width:1.35px;stroke-linecap:round;stroke-linejoin:round;stroke-miterlimit:10;"/>
    </g>
    <g id="button12" transform="matrix(0.309768,0,0,0.309768,56.4395,51.615)">
        <path d="M0,-6.665L0,0.006C0,1.211 -0.977,2.186 -2.184,2.186L-11.281,2.186C-12.488,2.186 -13.465,1.211 -13.465,0.006L-13.465,-6.665C-13.465,-7.872 -12.488,-8.851 -11.281,-8.851L-2.184,-8.851C-0.977,-8.851 0,-7.872 0,-6.665" style="fill:white;fill-rule:nonzero;stroke:black;stroke-width:1.35px;stroke-linecap:round;stroke-linejoin:round;stroke-miterlimit:10;"/>
    </g>
    <g id="button13" transform="matrix(0.309768,0,0,0.309768,65.5238,45.6299)">
        <path d="M0,-6.671L0,0.002C0,1.208 -0.977,2.184 -2.184,2.184L-11.281,2.184C-12.486,2.184 -13.465,1.208 -13.465,0.002L-13.465,-6.671C-13.465,-7.876 -12.486,-8.855 -11.281,-8.855L-2.184,-8.855C-0.977,-8.855 0,-7.876 0,-6.671" style="fill:white;fill-rule:nonzero;stroke:black;stroke-width:1.35px;stroke-linecap:round;stroke-linejoin:round;stroke-miterlimit:10;"/>
    </g>
    <g id="button14" transform="matrix(0.309768,0,0,0.309768,65.5238,51.615)">
        <path d="M0,-6.665L0,0.006C0,1.211 -0.977,2.186 -2.184,2.186L-11.281,2.186C-12.486,2.186 -13.465,1.211 -13.465,0.006L-13.465,-6.665C-13.465,-7.872 -12.486,-8.851 -11.281,-8.851L-2.184,-8.851C-0.977,-8.851 0,-7.872 0,-6.665" style="fill:white;fill-rule:nonzero;stroke:black;stroke-width:1.35px;stroke-linecap:round;stroke-linejoin:round;stroke-miterlimit:10;"/>
    </g>
    <g id="button15" transform="matrix(0.309768,0,0,0.309768,74.7703,45.6299)">
        <path d="M0,-6.671L0,0.002C0,1.208 -0.979,2.184 -2.184,2.184L-11.279,2.184C-12.484,2.184 -13.463,1.208 -13.463,0.002L-13.463,-6.671C-13.463,-7.876 -12.484,-8.855 -11.279,-8.855L-2.184,-8.855C-0.979,-8.855 0,-7.876 0,-6.671" style="fill:white;fill-rule:nonzero;stroke:black;stroke-width:1.35px;stroke-linecap:round;stroke-linejoin:round;stroke-miterlimit:10;"/>
    </g>
    <g id="button16" transform="matrix(0.309768,0,0,0.309768,74.7703,51.615)">
        <path d="M0,-6.665L0,0.006C0,1.211 -0.979,2.186 -2.184,2.186L-11.279,2.186C-12.484,2.186 -13.463,1.211 -13.463,0.006L-13.463,-6.665C-13.463,-7.872 -12.484,-8.851 -11.279,-8.851L-2.184,-8.851C-0.979,-8.851 0,-7.872 0,-6.665" style="fill:white;fill-rule:nonzero;stroke:black;stroke-width:1.35px;stroke-linecap:round;stroke-linejoin:round;stroke-miterlimit:10;"/>
    </g>
    <g id="buttona" transform="matrix(0.309768,0,0,0.309768,92.3878,45.6299)">
        <path d="M0,-6.671L0,0.002C0,1.208 -0.977,2.184 -2.184,2.184L-11.279,2.184C-12.486,2.184 -13.465,1.208 -13.465,0.002L-13.465,-6.671C-13.465,-7.876 -12.486,-8.855 -11.279,-8.855L-2.184,-8.855C-0.977,-8.855 0,-7.876 0,-6.671" style="fill:white;fill-rule:nonzero;stroke:black;stroke-width:1.35px;stroke-linecap:round;stroke-linejoin:round;stroke-miterlimit:10;"/>
    </g>
    <g id="buttonb" transform="matrix(0.309768,0,0,0.309768,92.3878,51.615)">
        <path d="M0,-6.665L0,0.006C0,1.211 -0.977,2.186 -2.184,2.186L-11.279,2.186C-12.486,2.186 -13.465,1.211 -13.465,0.006L-13.465,-6.665C-13.465,-7.872 -12.486,-8.851 -11.279,-8.851L-2.184,-8.851C-0.977,-8.851 0,-7.872 0,-6.665" style="fill:white;fill-rule:nonzero;stroke:black;stroke-width:1.35px;stroke-linecap:round;stroke-linejoin:round;stroke-miterlimit:10;"/>
    </g>
</svg>
