<?xml version="1.0" encoding="UTF-8" standalone="no"?>
<!DOCTYPE svg PUBLIC "-//W3C//DTD SVG 1.1//EN" "http://www.w3.org/Graphics/SVG/1.1/DTD/svg11.dtd">
<svg width="100%" height="100%" viewBox="0 0 32 32" version="1.1" xmlns="http://www.w3.org/2000/svg" xmlns:xlink="http://www.w3.org/1999/xlink" xml:space="preserve" style="fill-rule:evenodd;clip-rule:evenodd;stroke-linejoin:round;stroke-miterlimit:1.41421;">
    <path d="M7.544,25.87C8.601,26.776 9.801,27.513 11.09,28.04C12.645,28.676 14.32,29 16,29C17.68,29 19.355,28.676 20.91,28.04C22.199,27.513 23.399,26.776 24.456,25.87L26.582,27.997C25.241,29.181 23.702,30.139 22.045,30.817C20.131,31.6 18.068,32 16,32C13.932,32 11.869,31.6 9.955,30.817C8.298,30.139 6.759,29.181 5.418,27.997L7.544,25.87ZM4.004,5.418L6.13,7.544C5.498,8.281 4.947,9.088 4.494,9.947C3.925,11.026 3.509,12.184 3.264,13.379C2.966,14.837 2.92,16.347 3.126,17.82C3.311,19.14 3.702,20.43 4.281,21.631C4.771,22.648 5.395,23.599 6.13,24.456L4.004,26.582C3.034,25.484 2.215,24.254 1.579,22.934C0.865,21.454 0.383,19.864 0.155,18.236C-0.089,16.491 -0.046,14.704 0.287,12.973C0.57,11.495 1.065,10.058 1.751,8.719C2.361,7.53 3.12,6.419 4.004,5.418ZM27.996,5.418C28.88,6.419 29.639,7.53 30.249,8.719C30.935,10.058 31.43,11.495 31.713,12.973C32.046,14.704 32.089,16.491 31.845,18.236C31.617,19.864 31.135,21.454 30.421,22.934C29.785,24.254 28.966,25.484 27.996,26.582L25.87,24.456C26.605,23.599 27.229,22.648 27.719,21.631C28.298,20.43 28.689,19.14 28.874,17.82C29.08,16.347 29.034,14.837 28.736,13.379C28.491,12.184 28.075,11.026 27.506,9.947C27.053,9.088 26.502,8.281 25.87,7.544L27.996,5.418ZM5.418,4.003C6.564,2.991 7.855,2.143 9.241,1.496C10.611,0.856 12.071,0.413 13.565,0.184C13.84,0.142 14.116,0.108 14.392,0.081L12.641,3.439C11.91,3.634 11.197,3.893 10.511,4.214C9.441,4.714 8.441,5.361 7.544,6.13L5.418,4.003ZM24.456,6.13C23.559,5.361 22.559,4.714 21.489,4.214C20.803,3.893 20.09,3.634 19.359,3.439L17.608,0.081C17.884,0.108 18.16,0.142 18.435,0.184C19.929,0.413 21.389,0.856 22.759,1.496C24.145,2.143 25.436,2.991 26.582,4.003L24.456,6.13Z" style="fill:rgb(255,0,0);"/>
    <path d="M7.544,25.87C8.601,26.776 9.801,27.513 11.09,28.04C12.645,28.676 14.32,29 16,29C17.68,29 19.355,28.676 20.91,28.04C22.199,27.513 23.399,26.776 24.456,25.87L26.582,27.997C25.241,29.181 23.702,30.139 22.045,30.817C20.131,31.6 18.068,32 16,32C13.932,32 11.869,31.6 9.955,30.817C8.298,30.139 6.759,29.181 5.418,27.997L7.544,25.87ZM4.004,5.418L6.13,7.544C5.498,8.281 4.947,9.088 4.494,9.947C3.925,11.026 3.509,12.184 3.264,13.379C2.966,14.837 2.92,16.347 3.126,17.82C3.311,19.14 3.702,20.43 4.281,21.631C4.771,22.648 5.395,23.599 6.13,24.456L4.004,26.582C3.034,25.484 2.215,24.254 1.579,22.934C0.865,21.454 0.383,19.864 0.155,18.236C-0.089,16.491 -0.046,14.704 0.287,12.973C0.57,11.495 1.065,10.058 1.751,8.719C2.361,7.53 3.12,6.419 4.004,5.418ZM27.996,5.418C28.88,6.419 29.639,7.53 30.249,8.719C30.935,10.058 31.43,11.495 31.713,12.973C32.046,14.704 32.089,16.491 31.845,18.236C31.617,19.864 31.135,21.454 30.421,22.934C29.785,24.254 28.966,25.484 27.996,26.582L25.87,24.456C26.605,23.599 27.229,22.648 27.719,21.631C28.298,20.43 28.689,19.14 28.874,17.82C29.08,16.347 29.034,14.837 28.736,13.379C28.491,12.184 28.075,11.026 27.506,9.947C27.053,9.088 26.502,8.281 25.87,7.544L27.996,5.418ZM5.418,4.003C6.564,2.991 7.855,2.143 9.241,1.496C10.611,0.856 12.071,0.413 13.565,0.184C13.84,0.142 14.116,0.108 14.392,0.081L12.641,3.439C11.91,3.634 11.197,3.893 10.511,4.214C9.441,4.714 8.441,5.361 7.544,6.13L5.418,4.003ZM24.456,6.13C23.559,5.361 22.559,4.714 21.489,4.214C20.803,3.893 20.09,3.634 19.359,3.439L17.608,0.081C17.884,0.108 18.16,0.142 18.435,0.184C19.929,0.413 21.389,0.856 22.759,1.496C24.145,2.143 25.436,2.991 26.582,4.003L24.456,6.13Z" style="fill:rgb(255,0,0);"/>
    <path d="M15,31.969L15,26.041L16,24.041C16,24.041 17,26.041 17,26.041L17,31.969C16.669,31.99 16.336,32 16,32C15.664,32 15.331,31.99 15,31.969ZM31.928,15.041C31.949,15.371 31.959,15.705 31.959,16.041C31.959,16.376 31.949,16.71 31.928,17.041L26,17.041L24,16.041C24,16.041 26,15.041 26,15.041L31.928,15.041ZM0.072,15.041L6,15.041L8,16.041C8,16.041 6,17.041 6,17.041L0.072,17.041C0.051,16.71 0.041,16.376 0.041,16.041C0.041,15.705 0.051,15.371 0.072,15.041ZM15,0.112C15.331,0.092 15.664,0.081 16,0.081C16.336,0.081 16.669,0.092 17,0.112L17,13L16,15C16,15 15,13 15,13L15,0.112Z" style="fill:rgb(255,0,0);"/>
</svg>
