<svg clip-rule="evenodd" fill-rule="evenodd" stroke-linejoin="round" stroke-miterlimit="2" viewBox="0 0 513 512" xmlns="http://www.w3.org/2000/svg" xmlns:xlink="http://www.w3.org/1999/xlink"><linearGradient id="chaff-a" gradientTransform="matrix(0 -196.491 218 0 879 1672.88)" gradientUnits="userSpaceOnUse" x1="0" x2="1" y1="0" y2="0"><stop offset="0" stop-color="#222" stop-opacity=".4"/><stop offset="1" stop-color="#686868" stop-opacity=".72"/></linearGradient><g transform="translate(1.667 -1261)"><path d="m-1 1261h512v512h-512z" fill="none"/><path d="m1059.57 1594.63-427.317 85.9c-5.463 1.09-11.131-.31-15.442-3.85-4.311-3.53-6.811-8.8-6.811-14.38 0-49.9 0-168.69 0-218.6 0-5.57 2.5-10.85 6.811-14.38s9.979-4.94 15.442-3.85l427.247 85.89c20.59 2.7 36.5 20.32 36.5 41.64 0 19.35-13.12 35.66-30.94 40.53l-.05.01c-1.77.48-3.59.85-5.44 1.09z" fill="#222" transform="matrix(1.03841 0 0 1.15208 -630.763 -272.182)"/><path d="m1059.57 1594.63-427.317 85.9c-5.463 1.09-11.131-.31-15.442-3.85-4.311-3.53-6.811-8.8-6.811-14.38 0-49.9 0-168.69 0-218.6 0-5.57 2.5-10.85 6.811-14.38s9.979-4.94 15.442-3.85l427.247 85.89c20.59 2.7 36.5 20.32 36.5 41.64 0 19.35-13.12 35.66-30.94 40.53l-.05.01c-1.77.48-3.59.85-5.44 1.09z" fill="#3f3f3f" transform="matrix(.322633 0 0 .296636 -5.14918 1035.1)"/><path d="m1059.57 1594.63-427.317 85.9c-5.463 1.09-11.131-.31-15.442-3.85-4.311-3.53-6.811-8.8-6.811-14.38 0-49.9 0-168.69 0-218.6 0-5.57 2.5-10.85 6.811-14.38s9.979-4.94 15.442-3.85l427.247 85.89c20.59 2.7 36.5 20.32 36.5 41.64 0 19.35-13.12 35.66-30.94 40.53l-.05.01c-1.77.48-3.59.85-5.44 1.09z" fill="#3f3f3f" transform="matrix(.322633 0 0 .296636 -5.14918 1077.75)"/><path d="m1059.57 1594.63-427.317 85.9c-5.463 1.09-11.131-.31-15.442-3.85-4.311-3.53-6.811-8.8-6.811-14.38 0-49.9 0-168.69 0-218.6 0-5.57 2.5-10.85 6.811-14.38s9.979-4.94 15.442-3.85l427.247 85.89c20.59 2.7 36.5 20.32 36.5 41.64 0 19.35-13.12 35.66-30.94 40.53l-.05.01c-1.77.48-3.59.85-5.44 1.09z" fill="#5e5e5e" transform="matrix(.474335 0 0 .296636 -203.605 996.958)"/><path d="m1059.57 1594.63-427.317 85.9c-5.463 1.09-11.131-.31-15.442-3.85-4.311-3.53-6.811-8.8-6.811-14.38 0-49.9 0-168.69 0-218.6 0-5.57 2.5-10.85 6.811-14.38s9.979-4.94 15.442-3.85l427.247 85.89c20.59 2.7 36.5 20.32 36.5 41.64 0 19.35-13.12 35.66-30.94 40.53l-.05.01c-1.77.48-3.59.85-5.44 1.09z" fill="#5e5e5e" transform="matrix(.474335 0 0 .296636 -203.605 1056.32)"/><path d="m1059.57 1594.63-427.317 85.9c-5.463 1.09-11.131-.31-15.442-3.85-4.311-3.53-6.811-8.8-6.811-14.38 0-49.9 0-168.69 0-218.6 0-5.57 2.5-10.85 6.811-14.38s9.979-4.94 15.442-3.85l427.247 85.89c20.59 2.7 36.5 20.32 36.5 41.64 0 19.35-13.12 35.66-30.94 40.53l-.05.01c-1.77.48-3.59.85-5.44 1.09z" fill="#5e5e5e" transform="matrix(.474335 0 0 .296636 -203.605 1115.69)"/><g fill="#7a7a7a"><path d="m1059.57 1594.63-427.317 85.9c-5.463 1.09-11.131-.31-15.442-3.85-4.311-3.53-6.811-8.8-6.811-14.38 0-49.9 0-168.69 0-218.6 0-5.57 2.5-10.85 6.811-14.38s9.979-4.94 15.442-3.85l427.247 85.89c20.59 2.7 36.5 20.32 36.5 41.64 0 19.35-13.12 35.66-30.94 40.53l-.05.01c-1.77.48-3.59.85-5.44 1.09z" transform="matrix(.474335 0 0 .296636 -244.103 1115.69)"/><path d="m1059.57 1594.63-427.317 85.9c-5.463 1.09-11.131-.31-15.442-3.85-4.311-3.53-6.811-8.8-6.811-14.38 0-49.9 0-168.69 0-218.6 0-5.57 2.5-10.85 6.811-14.38s9.979-4.94 15.442-3.85l427.247 85.89c20.59 2.7 36.5 20.32 36.5 41.64 0 19.35-13.12 35.66-30.94 40.53l-.05.01c-1.77.48-3.59.85-5.44 1.09z" transform="matrix(.474335 0 0 .296636 -244.103 1076.11)"/><path d="m1059.57 1594.63-427.317 85.9c-5.463 1.09-11.131-.31-15.442-3.85-4.311-3.53-6.811-8.8-6.811-14.38 0-49.9 0-168.69 0-218.6 0-5.57 2.5-10.85 6.811-14.38s9.979-4.94 15.442-3.85l427.247 85.89c20.59 2.7 36.5 20.32 36.5 41.64 0 19.35-13.12 35.66-30.94 40.53l-.05.01c-1.77.48-3.59.85-5.44 1.09z" transform="matrix(.474335 0 0 .296636 -244.103 996.958)"/><path d="m1059.57 1594.63-427.317 85.9c-5.463 1.09-11.131-.31-15.442-3.85-4.311-3.53-6.811-8.8-6.811-14.38 0-49.9 0-168.69 0-218.6 0-5.57 2.5-10.85 6.811-14.38s9.979-4.94 15.442-3.85l427.247 85.89c20.59 2.7 36.5 20.32 36.5 41.64 0 19.35-13.12 35.66-30.94 40.53l-.05.01c-1.77.48-3.59.85-5.44 1.09z" transform="matrix(.474335 0 0 .296636 -244.103 1036.54)"/></g><path d="m1059.57 1594.63-427.317 85.9c-5.463 1.09-11.131-.31-15.442-3.85-4.311-3.53-6.811-8.8-6.811-14.38 0-49.9 0-168.69 0-218.6 0-5.57 2.5-10.85 6.811-14.38s9.979-4.94 15.442-3.85l427.247 85.89c20.59 2.7 36.5 20.32 36.5 41.64 0 19.35-13.12 35.66-30.94 40.53l-.05.01c-1.77.48-3.59.85-5.44 1.09z" fill="#979797" transform="matrix(.320497 0 0 .296636 -134.685 1014.49)"/><path d="m1059.57 1594.63-427.317 85.9c-5.463 1.09-11.131-.31-15.442-3.85-4.311-3.53-6.811-8.8-6.811-14.38 0-49.9 0-168.69 0-218.6 0-5.57 2.5-10.85 6.811-14.38s9.979-4.94 15.442-3.85l427.247 85.89c20.59 2.7 36.5 20.32 36.5 41.64 0 19.35-13.12 35.66-30.94 40.53l-.05.01c-1.77.48-3.59.85-5.44 1.09z" fill="#979797" transform="matrix(.320497 0 0 .296636 -134.685 1057.15)"/><path d="m1059.57 1594.63-427.317 85.9c-5.463 1.09-11.131-.31-15.442-3.85-4.311-3.53-6.811-8.8-6.811-14.38 0-49.9 0-168.69 0-218.6 0-5.57 2.5-10.85 6.811-14.38s9.979-4.94 15.442-3.85l427.247 85.89c20.59 2.7 36.5 20.32 36.5 41.64 0 19.35-13.12 35.66-30.94 40.53l-.05.01c-1.77.48-3.59.85-5.44 1.09z" fill="#979797" transform="matrix(.320497 0 0 .296636 -134.685 1099.81)"/><path d="m1059.57 1594.63-427.317 85.9c-5.463 1.09-11.131-.31-15.442-3.85-4.311-3.53-6.811-8.8-6.811-14.38 0-49.9 0-168.69 0-218.6 0-5.57 2.5-10.85 6.811-14.38s9.979-4.94 15.442-3.85l427.247 85.89c20.59 2.7 36.5 20.32 36.5 41.64 0 19.35-13.12 35.66-30.94 40.53l-.05.01c-1.77.48-3.59.85-5.44 1.09z" fill="#ababab" transform="matrix(.2799 0 0 .296636 -146.266 1112.41)"/><path d="m1059.57 1594.63-427.317 85.9c-5.463 1.09-11.131-.31-15.442-3.85-4.311-3.53-6.811-8.8-6.811-14.38 0-49.9 0-168.69 0-218.6 0-5.57 2.5-10.85 6.811-14.38s9.979-4.94 15.442-3.85l427.247 85.89c20.59 2.7 36.5 20.32 36.5 41.64 0 19.35-13.12 35.66-30.94 40.53l-.05.01c-1.77.48-3.59.85-5.44 1.09z" fill="#ababab" transform="matrix(.2799 0 0 .296636 -146.266 1052.43)"/><path d="m1059.57 1594.63-427.317 85.9c-5.463 1.09-11.131-.31-15.442-3.85-4.311-3.53-6.811-8.8-6.811-14.38 0-49.9 0-168.69 0-218.6 0-5.57 2.5-10.85 6.811-14.38s9.979-4.94 15.442-3.85l427.247 85.89c20.59 2.7 36.5 20.32 36.5 41.64 0 19.35-13.12 35.66-30.94 40.53l-.05.01c-1.77.48-3.59.85-5.44 1.09z" fill="#ababab" transform="matrix(.2799 0 0 .296636 -146.266 989.015)"/><path d="m1059.57 1594.63-427.317 85.9c-5.463 1.09-11.131-.31-15.442-3.85-4.311-3.53-6.811-8.8-6.811-14.38 0-49.9 0-168.69 0-218.6 0-5.57 2.5-10.85 6.811-14.38s9.979-4.94 15.442-3.85l427.247 85.89c20.59 2.7 36.5 20.32 36.5 41.64 0 19.35-13.12 35.66-30.94 40.53l-.05.01c-1.77.48-3.59.85-5.44 1.09z" fill="url(#chaff-a)" transform="matrix(1.03841 0 0 1.15208 -630.763 -272.182)"/></g></svg>