<svg clip-rule="evenodd" fill-rule="evenodd" stroke-linecap="round" stroke-linejoin="round" stroke-miterlimit="1.5" viewBox="0 0 513 513" xmlns="http://www.w3.org/2000/svg" xmlns:xlink="http://www.w3.org/1999/xlink"><linearGradient id="comms-a"><stop offset="0" stop-color="#565656"/><stop offset="1" stop-color="#8f8f8f"/></linearGradient><radialGradient id="comms-b" cx="0" cy="0" gradientTransform="matrix(-84.8003 113.337 -113.337 -84.8003 1663.65 810.941)" gradientUnits="userSpaceOnUse" r="1" xlink:href="#comms-a"/><radialGradient id="comms-c" cx="0" cy="0" gradientTransform="matrix(-79.7838 1.75307 -106.633 -1.31166 1654.98 702.112)" gradientUnits="userSpaceOnUse" r="1" xlink:href="#comms-a"/><clipPath id="comms-d"><path clip-rule="evenodd" d="m653 662h512v512h-512z"/></clipPath><g transform="translate(-652.667 -661.5)"><path d="m653 662h512v512h-512z" fill="none"/><g clip-path="url(#comms-d)"><path d="m1507.33 791h466.167v210h-466.167z" fill="#19315b" transform="matrix(1.09832 0 0 1.19048 -1002.53 -148.667)"/><path d="m2019.33 771-22.91 20v210l22.91 20zm-489.08 20-22.92-20v250l22.92-20z" fill="#1c2c48" transform="translate(-854.333 22)"/><path d="m1507.33 791h466.167v210h-466.167z" fill="#3b4f72" transform="translate(-831.417 22)"/><g fill="#e66662" stroke="#818181" stroke-width="3.96"><circle cx="113" cy="256" r="11" transform="translate(631 595.5)"/><circle cx="113" cy="256" r="11" transform="translate(631 662)"/><circle cx="113" cy="256" r="11" transform="translate(631 728.5)"/><circle cx="113" cy="256" r="11" transform="translate(960 595.5)"/><circle cx="113" cy="256" r="11" transform="translate(960 662)"/><circle cx="113" cy="256" r="11" transform="translate(960 728.5)"/></g><path d="m1973.5 771-466.17 20v210l466.17 20z" fill="#4c6796" transform="matrix(.193243 0 0 1 527.635 22)"/><path d="m1973.5 771-466.17 20v210l466.17 20z" fill="#283f67" transform="matrix(-.193243 0 0 1 1290.36 22)"/><g transform="matrix(.92892 0 0 .92892 -676.667 141.428)"><circle cx="1707" cy="835.994" fill="url(#comms-b)" r="96.976"/><path d="m1707.31 739.018.32.002.31.002.31.004.32.004.31.006.31.006.31.007.31.009.31.009.31.011.32.011.31.012.31.014.31.014.31.015.31.016.31.017.3.019.31.019.31.02.31.021.31.022.31.023.3.024.31.025.31.025.3.027.31.028.31.029.3.029.31.031.31.031.3.033.31.033.3.035.3.035.31.036.3.037.3.038.31.04.3.04.3.04.31.042.3.043.3.044.3.044.3.046.3.046.3.048.3.048.3.049.3.051.3.051.3.052.3.053.29.053.3.055.3.056.3.056.29.058.3.058.3.059.29.06.3.061.29.062.3.063.29.064.3.065.29.065.3.067.29.067.29.068.3.069.29.07.29.071.29.072.29.072.29.074.29.074.29.075.29.076.29.077.29.078.29.079.29.079.29.081.29.081.28.082.29.083.29.084.28.085.29.086.29.086.28.088.29.088.28.089.28.09.29.09.28.092.28.092.29.094.28.094.28.095.28.095.28.097.28.097.28.099.28.099.28.1.28.101.28.101.28.103.27.103.28.104.28.105.28.106.27.106.28.108.27.108.28.109.27.11.28.11.27.112.27.112.28.113.27.114.27.115.27.115.28.116.27.118.27.117.27.119.27.12.26.12.27.121.27.122.27.122.27.124.26.124.27.125.27.126.26.126.27.128.26.128.27.129.26.13.26.13.27.131.26.132.26.133.26.134.26.134.26.135.26.136.26.136.26.138.26.138.26.139.26.139.26.141.25.141.26.142.26.143.25.143.26.144.25.145.26.146.25.146.25.147.25.148.26.149.25.149.25.15.25.151.25.152.25.152.25.153.25.154.25.154.24.155.25.156.25.157.24.157.25.159.24.158.25.16.24.16.25.161.24.162.24.162.24.163.25.164.24.165.24.165.24.166.24.166.24.168.23.168.24.168.24.17.24.17.23.171.24.171.24.172.23.173.23.174.24.174.23.175.23.176.23.176.24.177.23.178.23.178.23.179.23.18.23.18.22.181.23.182.23.182.23.183.22.184.23.184.22.185.22.186.23.186.22.187.23.188.22.188.22.189.22.19.22.19.22.191.22.191.22.192.22.193.21.194.22.194.22.195.21.195.22.196.21.197.21.197.22.198.21.199.21.199.21.2.21.2.21.201.21.202.21.202.21.203.21.204.21.204.2.205.21.205.21.206.2.207.2.207.21.208.2.208.2.209.2.21.2.21.21.211.2.211.2.212.19.213.2.213.2.214.2.215.19.215.2.215.19.216.2.217.19.218.19.218.19.218.19.219.2.22.19.22.19.221.18.221.19.222.19.223.19.223.18.224.19.224.19.225.18.225.18.226.19.227.18.227.18.227.18.229.18.228.18.23.18.229.18.231.18.231.17.231.18.232.18.233.17.233.17.234.18.234.17.235.17.235.17.236.18.236.16.237.18.237.16.238.17.239.17.239.17.239.16.24.17.241.16.241.16.241.17.243.16.242.16.243.16.244.16.244.16.245.16.245.16.246.16.246.15.247.16.247.16.247.15.249.15.248.16.25.15.249.15.25.15.251.15.251.15.252.15.252.15.253.14.253.15.253.15.254.14.255.15.255.14.256.14.256.14.256.14.257.15.257.13.258.14.259.14.258.14.26.13.259.14.261.14.26.13.261.13.262.14.262.13.262.13.263.13.264.13.263.13.265.13.264.13.266.12.265.13.266.12.267.13.267.12.267.12.268.12.268.13.269.12.269.12.27.11.27.12.27.12.271.12.271.11.272.12.272.11.272.11.273.11.274.12.273.11.275.11.274.11.275.1.276.11.275.11.277.1.276.11.277.1.278.11.278.1.278.1.278.1.279.1.28.1.28.1.28.09.28.1.281.1.282.09.282.1.282.09.282.09.283.09.284.09.283.09.284.09.285.09.284.09.286.09.285.08.286.09.286.08.287.08.287.09.287.08.288.08.288.08.289.08.288.07.29.08.289.08.29.07.29.08.291.07.291.07.291.07.292.07.292.07.292.07.292.07.293.07.294.06.293.07.294.07.295.06.294.06.295.06.296.07.295.06.296.05.297.06.296.06.297.06.297.05.298.06.298.05.298.05.299.06.298.05.3.05.299.05.3.04.3.05.3.05.301.04.301.05.301.04.302.05.302.04.302.04.302.04.303.04.303.04.303.03.304.04.304.03.304.04.305.03.304.03.305.04.306.03.305.03.306.02.306.03.307.03.307.02.307.03.307.02.307.03.308.02.308.02.308.02.309.02.309.02.309.01.309.02.31.02.31.01.31.01.31.01.311.02.311.01.311.01.311v.312l.01.312.01.312v.312l.01.313v.312.313l.01.314v.313.314l-.01.313v.313.313l-.01.312v.313l-.01.312-.01.312v.311l-.01.311-.01.312-.02.31-.01.311-.01.31-.01.311-.02.309-.02.31-.01.309-.02.309-.02.309-.02.309-.02.308-.02.308-.03.308-.02.307-.03.308-.02.307-.03.306-.03.307-.02.306-.03.306-.03.306-.04.305-.03.305-.03.305-.04.304-.03.304-.04.304-.03.304-.04.303-.04.303-.04.303-.04.303-.04.302-.05.302-.04.301-.05.301-.04.301-.05.301-.05.3-.04.301-.05.299-.05.3-.05.299-.06.299-.05.298-.05.298-.06.298-.05.298-.06.297-.06.297-.06.297-.05.296-.06.296-.07.296-.06.295-.06.295-.06.295-.07.294-.07.294-.06.294-.07.293-.07.293-.07.292-.07.293-.07.292-.07.291-.07.292-.07.291-.08.29-.07.29-.08.29-.08.29-.07.289-.08.289-.08.288-.08.288-.08.288-.09.287-.08.287-.08.287-.09.286-.08.286-.09.286-.09.285-.09.285-.09.284-.09.284-.09.284-.09.283-.09.283-.09.283-.1.282-.09.281-.1.282-.1.281-.09.28-.1.281-.1.279-.1.28-.1.279-.1.279-.1.278-.11.278-.1.277-.11.277-.1.277-.11.276-.11.276-.1.275-.11.275-.11.275-.11.274-.12.274-.11.273-.11.273-.11.273-.12.272-.11.271-.12.272-.12.27-.12.271-.11.27-.12.269-.12.269-.13.269-.12.268-.12.268-.12.268-.13.266-.12.267-.13.266-.12.266-.13.265-.13.265-.13.264-.13.264-.13.263-.13.263-.13.262-.14.262-.13.262-.13.261-.14.261-.14.26-.13.26-.14.259-.14.259-.14.258-.13.258-.15.257-.14.257-.14.257-.14.256-.14.255-.15.255-.14.255-.15.254-.15.253-.14.254-.15.252-.15.252-.15.252-.15.251-.15.251-.15.25-.15.25-.16.249-.15.249-.15.248-.16.247-.16.248-.15.246-.16.247-.16.245-.16.245-.16.245-.16.244-.16.244-.16.243-.16.243-.17.242-.16.241-.16.241-.17.241-.16.24-.17.24-.17.239-.17.238-.16.238-.18.237-.16.237-.18.237-.17.235-.17.236-.17.234-.18.235-.17.233-.17.233-.18.233-.18.232-.17.231-.18.231-.18.231-.18.23-.18.229-.18.229-.18.228-.18.227-.18.228-.19.226-.18.226-.18.225-.19.225-.19.225-.18.223-.19.223-.19.223-.19.222-.18.221-.19.221-.19.22-.2.22-.19.219-.19.219-.19.218-.19.217-.2.217-.19.216-.2.216-.19.215-.2.214-.2.214-.2.213-.19.213-.2.212-.2.211-.21.211-.2.21-.2.21-.2.209-.2.209-.21.207-.2.208-.2.206-.21.206-.21.206-.2.205-.21.204-.21.203-.21.203-.21.203-.21.201-.21.201-.21.201-.21.2-.21.199-.21.198-.22.198-.21.198-.21.196-.22.196-.21.196-.22.194-.22.195-.21.193-.22.193-.22.192-.22.192-.22.191-.22.19-.22.189-.22.189-.22.189-.23.187-.22.187-.23.187-.22.185-.22.185-.23.185-.22.183-.23.183-.23.183-.23.181-.22.181-.23.181-.23.179-.23.179-.23.179-.23.177-.24.177-.23.177-.23.175-.23.175-.24.174-.23.174-.23.173-.24.172-.24.172-.23.17-.24.17-.24.17-.24.169-.23.168-.24.167-.24.167-.24.166-.24.165-.24.164-.25.164-.24.163-.24.163-.24.161-.25.161-.24.16-.25.16-.24.159-.25.158-.24.157-.25.157-.25.156-.24.155-.25.155-.25.153-.25.153-.25.153-.25.151-.25.151-.25.15-.25.149-.26.149-.25.148-.25.147-.25.146-.26.146-.25.145-.26.144-.25.144-.26.142-.26.142-.25.141-.26.141-.26.139-.26.139-.26.138-.26.138-.26.136-.26.136-.26.135-.26.135-.26.133-.26.133-.26.132-.27.131-.26.131-.26.129-.27.129-.26.128-.27.128-.26.126-.27.126-.27.125-.26.124-.27.124-.27.123-.27.121-.27.121-.26.121-.27.119-.27.119-.27.118-.27.117-.28.116-.27.116-.27.114-.27.114-.28.113-.27.112-.27.112-.28.111-.27.109-.28.109-.27.109-.28.107-.27.107-.28.105-.28.105-.28.104-.27.104-.28.102-.28.102-.28.1-.28.1-.28.1-.28.098-.28.097-.28.097-.28.096-.28.095-.28.094-.29.093-.28.092-.28.092-.29.091-.28.09-.28.089-.29.088-.28.087-.29.087-.29.085-.28.085-.29.084-.29.083-.28.082-.29.081-.29.081-.29.079-.29.079-.29.078-.29.077-.29.076-.29.075-.29.075-.29.073-.29.073-.29.071-.29.071-.29.07-.3.069-.29.068-.29.068-.3.066-.29.066-.3.064-.29.064-.3.063-.29.062-.3.061-.29.06-.3.059-.3.059-.29.057-.3.057-.3.055-.3.055-.29.054-.3.053-.3.052-.3.051-.3.05-.3.049-.3.048-.3.048-.3.046-.3.046-.3.044-.3.044-.3.043-.31.042-.3.041-.3.04-.31.039-.3.038-.3.037-.31.036-.3.036-.3.034-.31.033-.3.033-.31.031-.31.031-.3.03-.31.028-.31.028-.3.027-.31.026-.31.025-.3.024-.31.023-.31.022-.31.021-.31.02-.31.019-.3.018-.31.017-.31.016-.31.015-.31.015-.31.013-.31.012-.32.012-.31.01-.31.009-.31.009-.31.007-.31.007-.31.005-.32.005-.31.003-.31.003-.32.001-.31.001-.31-.001-.32-.001-.31-.003-.31-.003-.32-.005-.31-.005-.31-.007-.31-.007-.31-.009-.31-.009-.31-.01-.32-.012-.31-.012-.31-.013-.31-.015-.31-.015-.31-.016-.31-.017-.3-.018-.31-.019-.31-.02-.31-.021-.31-.022-.31-.023-.3-.024-.31-.025-.31-.026-.3-.027-.31-.028-.31-.028-.3-.03-.31-.031-.3-.031-.31-.033-.31-.033-.3-.034-.3-.036-.31-.036-.3-.037-.3-.038-.31-.039-.3-.04-.3-.041-.31-.042-.3-.043-.3-.044-.3-.044-.3-.046-.3-.046-.3-.048-.3-.048-.3-.049-.3-.05-.3-.051-.3-.052-.3-.053-.29-.054-.3-.055-.3-.055-.3-.057-.29-.057-.3-.059-.3-.059-.29-.06-.3-.061-.29-.062-.3-.063-.29-.064-.3-.064-.29-.066-.3-.066-.29-.068-.29-.068-.29-.069-.3-.07-.29-.071-.29-.071-.29-.073-.29-.073-.29-.075-.29-.075-.29-.076-.29-.077-.29-.078-.29-.079-.29-.079-.29-.081-.29-.081-.28-.082-.29-.083-.29-.084-.28-.085-.29-.085-.28-.087-.29-.087-.29-.088-.28-.089-.28-.09-.29-.091-.28-.092-.28-.092-.28-.093-.29-.094-.28-.095-.28-.096-.28-.097-.28-.097-.28-.098-.28-.1-.28-.1-.28-.1-.28-.102-.28-.102-.27-.104-.28-.104-.28-.105-.28-.105-.27-.107-.28-.107-.27-.109-.28-.109-.27-.109-.28-.111-.27-.112-.27-.112-.28-.113-.27-.114-.27-.114-.27-.116-.27-.116-.28-.117-.27-.118-.27-.119-.27-.119-.26-.121-.27-.121-.27-.121-.27-.123-.27-.124-.26-.124-.27-.125-.27-.126-.26-.126-.27-.128-.26-.128-.27-.129-.26-.129-.26-.131-.27-.131-.26-.132-.26-.133-.26-.133-.26-.135-.26-.135-.26-.136-.26-.136-.26-.138-.26-.138-.26-.139-.26-.139-.26-.141-.25-.141-.26-.142-.26-.142-.25-.144-.26-.144-.25-.145-.25-.146-.26-.146-.25-.147-.25-.148-.26-.149-.25-.149-.25-.15-.25-.151-.25-.151-.25-.153-.25-.153-.25-.153-.25-.155-.24-.155-.25-.156-.25-.157-.24-.157-.25-.158-.24-.159-.25-.16-.24-.16-.25-.161-.24-.161-.24-.163-.24-.163-.25-.164-.24-.164-.24-.165-.24-.166-.24-.167-.24-.167-.23-.168-.24-.169-.24-.17-.24-.17-.23-.17-.24-.172-.24-.172-.23-.173-.23-.174-.24-.174-.23-.175-.23-.175-.23-.177-.24-.177-.23-.177-.23-.179-.23-.179-.23-.179-.23-.181-.22-.181-.23-.181-.23-.183-.22-.183-.23-.183-.23-.185-.22-.185-.22-.185-.23-.187-.22-.187-.23-.187-.22-.189-.22-.189-.22-.189-.22-.19-.22-.191-.22-.192-.22-.192-.22-.193-.21-.193-.22-.195-.21-.194-.22-.196-.22-.196-.21-.196-.21-.198-.22-.198-.21-.198-.21-.199-.21-.2-.21-.201-.21-.201-.21-.201-.21-.203-.21-.203-.21-.203-.21-.204-.2-.205-.21-.206-.2-.206-.21-.206-.2-.208-.21-.207-.2-.209-.2-.209-.2-.21-.2-.21-.21-.211-.2-.211-.19-.212-.2-.213-.2-.213-.2-.214-.2-.214-.19-.215-.2-.216-.19-.216-.2-.217-.19-.217-.19-.218-.19-.219-.19-.219-.2-.22-.19-.22-.19-.221-.18-.221-.19-.222-.19-.223-.19-.223-.18-.223-.19-.225-.18-.225-.19-.225-.18-.226-.19-.226-.18-.228-.18-.227-.18-.228-.18-.229-.18-.229-.18-.23-.18-.231-.18-.231-.17-.231-.18-.232-.17-.233-.18-.233-.17-.233-.18-.235-.17-.234-.17-.236-.17-.235-.17-.237-.17-.237-.18-.237-.16-.238-.17-.238-.17-.239-.16-.24-.17-.24-.17-.241-.16-.241-.16-.241-.17-.242-.16-.243-.16-.243-.16-.244-.16-.244-.16-.245-.16-.245-.16-.245-.16-.247-.15-.246-.16-.248-.16-.247-.15-.248-.15-.249-.16-.249-.15-.25-.15-.25-.15-.251-.15-.251-.15-.252-.15-.252-.15-.252-.14-.254-.15-.253-.15-.254-.14-.255-.15-.255-.14-.255-.14-.256-.14-.257-.14-.257-.14-.257-.14-.258-.14-.258-.14-.259-.14-.259-.13-.26-.14-.26-.14-.261-.13-.261-.13-.262-.14-.262-.13-.262-.13-.263-.13-.263-.13-.264-.13-.264-.13-.265-.12-.265-.13-.266-.13-.266-.12-.267-.13-.266-.12-.268-.12-.268-.12-.268-.12-.269-.13-.269-.11-.269-.12-.27-.12-.271-.12-.27-.11-.272-.12-.271-.11-.272-.12-.273-.11-.273-.11-.273-.12-.274-.11-.274-.11-.275-.1-.275-.11-.275-.11-.276-.11-.276-.1-.277-.11-.277-.1-.277-.1-.278-.11-.278-.1-.279-.1-.279-.1-.28-.1-.279-.1-.281-.09-.28-.1-.281-.1-.282-.09-.281-.1-.282-.09-.283-.09-.283-.09-.283-.09-.284-.09-.284-.09-.284-.09-.285-.09-.285-.09-.286-.08-.286-.09-.286-.08-.287-.08-.287-.09-.287-.08-.288-.08-.288-.08-.288-.08-.289-.07-.289-.08-.29-.08-.29-.07-.29-.07-.29-.08-.291-.07-.292-.07-.291-.07-.292-.07-.293-.07-.292-.07-.293-.07-.293-.06-.294-.07-.294-.06-.294-.07-.295-.06-.295-.06-.295-.06-.296-.07-.296-.05-.296-.06-.297-.06-.297-.06-.297-.05-.298-.06-.298-.05-.298-.05-.298-.06-.299-.05-.299-.05-.3-.05-.299-.04-.301-.05-.3-.05-.301-.04-.301-.05-.301-.04-.301-.04-.302-.05-.302-.04-.303-.04-.303-.04-.303-.03-.303-.04-.304-.04-.304-.03-.304-.04-.304-.03-.305-.03-.305-.03-.305-.04-.306-.03-.306-.02-.306-.03-.307-.03-.306-.02-.307-.03-.308-.02-.307-.03-.308-.02-.308-.02-.308-.02-.309-.02-.309-.02-.309-.01-.309-.02-.31-.02-.309-.01-.311-.01-.31-.01-.311-.02-.31-.01-.312-.01-.311v-.311l-.01-.312-.01-.312v-.313l-.01-.312v-.313-.313l-.01-.313v-.314-.313l.01-.314v-.313-.312l.01-.313v-.312l.01-.312.01-.312v-.312l.01-.311.01-.311.02-.311.01-.311.01-.31.01-.31.02-.31.02-.31.01-.309.02-.309.02-.309.02-.309.02-.308.02-.308.03-.308.02-.307.03-.307.02-.307.03-.307.03-.307.02-.306.03-.306.04-.305.03-.306.03-.305.03-.304.04-.305.03-.304.04-.304.04-.304.03-.303.04-.303.04-.303.04-.302.05-.302.04-.302.04-.302.05-.301.04-.301.05-.301.05-.3.04-.3.05-.3.05-.299.05-.3.06-.298.05-.299.05-.298.06-.298.05-.298.06-.297.06-.297.06-.296.05-.297.07-.296.06-.295.06-.296.06-.295.07-.294.06-.295.07-.294.06-.293.07-.294.07-.293.07-.292.07-.292.07-.292.07-.292.07-.291.08-.291.07-.291.07-.29.08-.29.08-.289.07-.29.08-.288.08-.289.08-.288.08-.288.09-.287.08-.287.08-.287.09-.286.08-.286.09-.285.09-.286.09-.284.09-.285.09-.284.09-.283.09-.284.09-.283.09-.282.1-.282.09-.282.1-.282.1-.281.09-.28.1-.28.1-.28.1-.28.1-.279.1-.278.11-.278.1-.278.1-.278.11-.277.1-.276.11-.277.11-.275.11-.276.1-.275.11-.274.11-.275.12-.273.11-.274.11-.273.12-.272.11-.272.12-.272.11-.271.12-.271.12-.27.12-.27.11-.27.13-.269.12-.269.12-.268.12-.268.12-.267.13-.267.12-.267.13-.266.13-.265.12-.266.13-.264.13-.265.13-.263.13-.264.13-.263.13-.262.14-.262.13-.262.13-.261.14-.26.14-.261.13-.259.14-.26.14-.258.14-.259.14-.258.14-.257.14-.257.14-.256.14-.256.14-.256.15-.255.14-.255.15-.254.15-.253.14-.253.15-.253.15-.252.15-.252.15-.251.15-.251.15-.25.15-.249.16-.25.15-.248.15-.249.16-.247.16-.247.15-.247.16-.246.16-.246.16-.245.16-.245.16-.244.16-.244.16-.243.16-.242.17-.243.16-.241.16-.241.17-.241.17-.24.16-.239.17-.239.17-.239.16-.238.18-.237.17-.237.17-.236.17-.236.17-.235.17-.235.18-.234.17-.234.18-.233.17-.233.18-.232.17-.231.18-.231.18-.231.18-.229.18-.23.18-.228.18-.229.18-.227.18-.227.19-.227.18-.226.19-.225.18-.225.19-.224.18-.224.19-.223.19-.223.19-.222.18-.221.19-.221.19-.22.2-.22.19-.219.19-.218.19-.218.19-.218.2-.217.19-.216.2-.215.19-.215.2-.215.2-.214.2-.213.2-.213.19-.212.2-.211.21-.211.2-.21.2-.21.2-.209.2-.208.21-.208.2-.207.21-.207.2-.206.21-.205.2-.205.21-.204.21-.204.21-.203.21-.202.21-.202.21-.201.21-.2.21-.2.21-.199.21-.199.22-.198.21-.197.21-.197.22-.196.22-.195.21-.195.22-.194.21-.194.22-.193.22-.192.22-.191.22-.191.22-.19.22-.19.22-.189.22-.188.23-.188.22-.187.23-.186.22-.186.22-.185.23-.184.23-.184.22-.183.23-.182.23-.182.22-.181.23-.18.23-.18.23-.179.23-.178.23-.178.24-.177.23-.176.23-.176.23-.175.24-.174.23-.174.23-.173.24-.172.24-.171.23-.171.24-.17.24-.17.24-.168.23-.168.24-.168.24-.166.24-.166.24-.165.24-.165.25-.164.24-.163.24-.162.24-.162.25-.161.24-.16.25-.16.24-.158.25-.159.24-.157.25-.157.25-.156.24-.155.25-.154.25-.154.25-.153.25-.152.25-.152.25-.151.25-.15.25-.149.26-.149.25-.148.25-.147.26-.146.25-.146.25-.145.26-.144.25-.143.26-.143.26-.142.25-.141.26-.141.26-.139.26-.139.26-.138.26-.138.26-.136.26-.136.26-.135.26-.134.26-.134.26-.133.26-.132.27-.131.26-.13.26-.13.27-.129.26-.128.27-.128.26-.126.27-.126.27-.125.26-.124.27-.124.27-.122.27-.122.27-.121.26-.12.27-.12.27-.119.27-.117.28-.118.27-.116.27-.115.27-.115.27-.114.28-.113.27-.112.27-.112.28-.11.27-.11.28-.109.27-.108.28-.108.27-.106.28-.106.28-.105.28-.104.27-.103.28-.103.28-.101.28-.101.28-.1.28-.099.28-.099.28-.097.28-.097.28-.095.28-.095.29-.094.28-.094.28-.092.28-.092.29-.09.28-.09.28-.089.29-.088.29-.088.28-.086.29-.086.28-.085.29-.084.29-.083.28-.082.29-.081.29-.081.29-.079.29-.079.29-.078.29-.077.29-.076.29-.075.29-.074.29-.074.29-.072.29-.072.29-.071.3-.07.29-.069.29-.068.29-.067.3-.067.29-.065.3-.065.29-.064.3-.063.29-.062.3-.061.29-.06.3-.059.3-.058.29-.058.3-.056.3-.056.3-.055.29-.053.3-.053.3-.052.3-.051.3-.051.3-.049.3-.048.3-.048.3-.046.3-.046.3-.044.3-.044.3-.043.31-.042.3-.04.3-.04.31-.04.3-.038.3-.037.31-.036.3-.035.3-.035.31-.033.31-.033.3-.031.31-.031.3-.029.31-.029.31-.028.3-.027.31-.025.31-.025.3-.024.31-.023.31-.022.31-.021.31-.02.31-.019.3-.019.31-.017.31-.016.31-.015.31-.014.31-.014.31-.012.32-.011.31-.011.31-.009.31-.009.31-.007.31-.006.31-.006.32-.004.31-.004.31-.002.32-.002h.31zm-.61 4.971-.3.002-.29.002-.3.003-.3.004-.29.006-.3.006-.3.007-.29.008-.3.009-.29.01-.3.01-.29.012-.3.013-.29.013-.29.015-.3.015-.29.016-.3.017-.29.019-.29.019-.29.02-.3.021-.29.021-.29.023-.29.024-.29.024-.29.026-.3.026-.29.027-.29.028-.29.029-.29.03-.28.031-.29.032-.29.032-.29.034-.29.034-.29.036-.29.036-.28.037-.29.038-.29.038-.29.04-.28.041-.29.041-.28.042-.29.044-.28.044-.29.045-.28.046-.29.046-.28.048-.29.048-.28.05-.28.05-.29.051-.28.052-.28.053-.28.053-.28.055-.28.055-.29.056-.28.057-.28.058-.28.059-.28.06-.28.06-.27.061-.28.062-.28.063-.28.064-.28.065-.28.065-.27.067-.28.067-.28.068-.27.069-.28.069-.27.071-.28.071-.27.072-.28.073-.27.074-.28.075-.27.075-.27.077-.28.077-.27.078-.27.078-.27.08-.27.08-.28.082-.27.082-.27.082-.27.084-.27.085-.27.085-.26.086-.27.086-.27.088-.27.089-.27.089-.26.09-.27.091-.27.091-.26.093-.27.093-.27.094-.26.095-.26.095-.27.097-.26.097-.27.098-.26.098-.26.1-.26.1-.27.101-.26.102-.26.103-.26.103-.26.104-.26.105-.26.106-.26.106-.26.108-.26.108-.26.109-.25.109-.26.11-.26.111-.25.112-.26.113-.26.113-.25.114-.26.115-.25.116-.25.116-.26.117-.25.118-.25.118-.26.12-.25.12-.25.121-.25.121-.25.122-.25.123-.25.124-.25.125-.25.125-.25.126-.25.126-.24.128-.25.128-.25.129-.24.129-.25.131-.25.131-.24.132-.25.132-.24.133-.24.134-.25.135-.24.135-.24.136-.24.137-.24.138-.25.137-.24.14-.24.139-.24.14-.24.141-.23.142-.24.143-.24.143-.24.143-.23.145-.24.145-.24.146-.23.147-.24.147-.23.148-.24.148-.23.15-.23.15-.24.15-.23.152-.23.152-.23.153-.23.153-.23.154-.23.155-.23.155-.23.157-.23.156-.23.157-.22.159-.23.159-.22.159-.23.16-.23.161-.22.161-.23.162-.22.163-.22.163-.23.164-.22.165-.22.166-.22.165-.22.167-.22.168-.22.167-.22.169-.22.169-.22.17-.21.171-.22.171-.22.172-.21.172-.22.173-.22.174-.21.174-.21.175-.22.176-.21.176-.21.177-.21.177-.21.178-.22.18-.21.179-.2.179-.21.181-.21.181-.21.182-.21.182-.2.183-.21.184-.21.184-.2.185-.21.185-.2.186-.2.188-.21.187-.2.187-.2.189-.2.189-.2.189-.2.191-.2.19-.2.192-.2.192-.2.192-.2.193-.19.195-.2.194-.19.195-.2.196-.19.196-.2.196-.19.197-.19.198-.19.199-.2.199-.19.199-.19.2-.19.202-.19.2-.18.202-.19.203-.19.203-.19.202-.18.205-.19.205-.18.205-.19.206-.18.206-.18.207-.19.207-.18.208-.18.209-.18.209-.18.209-.18.211-.18.21-.18.211-.17.212-.18.212-.18.213-.17.214-.18.214-.17.214-.17.215-.18.215-.17.217-.17.216-.17.217-.17.218-.17.218-.17.219-.17.22-.17.218-.17.22-.16.222-.17.221-.16.221-.17.223-.16.222-.17.224-.16.223-.16.225-.16.225-.16.224-.16.226-.16.227-.16.227-.16.227-.16.227-.15.229-.16.229-.16.23-.15.229-.16.229-.15.231-.15.232-.15.232-.15.232-.16.232-.14.233-.15.234-.15.234-.15.234-.15.236-.15.236-.14.234-.15.237-.14.238-.14.236-.15.239-.14.237-.14.239-.14.24-.14.24-.14.24-.14.241-.14.24-.14.242-.13.242-.14.242-.13.243-.14.243-.13.244-.14.244-.13.246-.13.244-.13.245-.13.246-.13.247-.13.246-.13.248-.13.248-.12.248-.13.249-.12.248-.13.249-.12.25-.13.251-.12.25-.12.251-.12.252-.12.251-.12.253-.12.253-.12.254-.11.253-.12.253-.12.255-.11.255-.11.255-.12.256-.11.257-.11.255-.11.257-.11.258-.11.257-.11.258-.11.258-.11.26-.1.26-.11.259-.1.26-.11.26-.1.26-.1.262-.11.262-.1.262-.1.262-.1.262-.1.264-.09.264-.1.264-.1.264-.09.263-.1.266-.09.265-.09.265-.1.267-.09.267-.09.267-.09.267-.09.267-.09.268-.08.269-.09.268-.09.269-.08.27-.09.269-.08.27-.08.271-.09.271-.08.27-.08.272-.08.272-.07.272-.08.273-.08.273-.08.273-.07.274-.08.273-.07.273-.07.277-.08.274-.07.275-.07.276-.07.275-.07.276-.06.278-.07.276-.07.277-.06.278-.07.278-.06.277-.06.28-.07.278-.06.279-.06.28-.06.279-.06.28-.05.281-.06.281-.06.281-.05.281-.06.281-.05.283-.05.283-.06.281-.05.283-.05.283-.05.283-.04.284-.05.284-.05.285-.05.285-.04.285-.04.284-.05.286-.04.286-.04.286-.04.287-.04.286-.04.287-.04.288-.04.286-.03.288-.04.289-.03.288-.03.289-.04.288-.03.29-.03.29-.03.289-.03.289-.03.29-.02.292-.03.29-.03.291-.02.292-.02.291-.03.292-.02.292-.02.292-.02.293-.02.293-.02.293-.01.293-.02.294-.02.294-.01.294-.01.293-.02.296-.01.296-.01.294-.01.295-.01.296v.295l-.01.298-.01.296v.295l-.01.297v.297.298.298l-.01.297.01.297v.299.297.297l.01.297v.295l.01.297.01.297v.296l.01.295.01.295.01.294.01.296.02.296.01.293.01.294.02.295.02.293.01.293.02.293.02.294.02.292.02.292.02.293.03.291.02.291.02.292.03.291.03.29.02.293.03.289.03.29.03.289.03.29.03.289.04.289.03.289.03.287.04.289.03.288.04.287.04.287.04.288.04.285.04.287.04.286.04.286.05.286.04.284.04.285.05.285.05.285.05.284.04.284.05.283.05.283.05.283.06.282.05.282.05.283.06.281.05.282.06.281.06.28.05.282.06.279.06.279.06.28.06.279.07.279.06.279.06.278.07.277.06.279.07.276.07.277.06.277.07.276.07.275.07.277.07.274.08.274.07.277.07.274.08.273.07.274.08.272.08.274.08.273.07.271.08.272.08.272.08.27.09.272.08.27.08.271.09.268.08.27.09.269.09.268.08.27.09.268.09.266.09.267.09.267.09.267.1.267.09.265.09.265.1.266.09.264.1.264.1.264.09.263.1.264.1.263.1.262.1.261.11.262.1.262.1.26.11.261.1.259.11.26.1.26.11.259.11.258.11.258.11.257.11.258.11.258.11.254.11.257.12.256.11.255.11.255.12.255.12.254.11.252.12.254.12.253.12.253.12.251.12.252.12.251.12.25.13.251.12.25.13.25.12.248.13.248.12.249.13.247.13.248.13.247.13.246.13.246.13.246.13.244.13.245.14.245.13.243.14.244.13.242.14.242.13.242.14.243.14.24.14.24.14.241.14.239.14.24.14.238.14.239.15.238.14.236.14.238.15.237.14.235.15.235.15.236.15.234.15.234.15.234.14.233.16.233.15.231.15.232.15.232.15.231.16.23.15.229.16.229.16.229.15.229.16.227.16.228.16.226.16.227.16.226.16.225.16.224.16.225.16.224.17.223.16.223.17.222.16.221.17.221.16.222.17.22.17.219.17.219.17.22.17.217.17.218.17.217.17.217.17.216.18.215.17.215.17.215.18.213.17.214.18.213.18.212.17.212.18.211.18.21.18.211.18.209.18.209.18.209.18.208.19.207.18.207.18.207.19.206.18.204.19.205.18.205.19.202.19.203.19.204.18.201.19.201.19.201.19.2.19.199.2.199.19.199.19.198.19.197.2.197.19.196.2.195.19.195.2.194.19.195.2.193.2.192.2.193.2.191.2.19.2.191.2.189.2.189.2.19.2.187.21.187.2.187.2.186.21.185.2.185.21.184.21.184.2.183.21.183.21.181.21.181.21.181.2.18.21.179.22.179.21.178.21.178.21.177.21.175.22.176.21.175.21.174.22.175.22.173.21.172.22.171.22.172.21.17.22.17.22.169.22.168.22.169.22.167.22.167.22.166.22.165.22.165.23.164.22.163.22.163.23.162.22.162.23.16.22.16.23.16.23.159.22.158.23.157.23.157.23.156.23.156.23.154.23.154.23.154.23.153.23.152.23.151.24.15.23.151.23.149.24.148.23.148.24.147.23.148.24.146.24.145.23.144.24.143.24.144.24.142.23.142.24.141.24.14.24.14.24.139.25.138.24.137.24.137.24.136.24.135.25.135.24.134.24.134.25.132.24.131.25.132.25.13.24.129.25.129.25.128.24.128.25.127.25.126.25.125.25.124.25.124.25.123.25.122.25.122.25.121.25.12.26.119.25.119.25.118.26.116.25.117.25.115.26.115.25.114.26.113.26.113.25.112.26.111.26.11.25.11.26.108.26.109.26.107.26.106.26.106.26.105.26.104.26.103.26.103.26.102.27.101.26.1.26.1.26.098.27.099.26.097.26.096.27.096.26.094.27.094.27.094.26.092.27.092.27.09.26.091.27.089.27.088.27.088.27.087.26.086.27.085.27.084.27.084.27.083.27.082.28.081.27.08.27.08.27.079.27.078.28.077.27.076.27.075.28.075.27.074.28.073.27.072.28.071.27.071.28.07.27.068.28.068.28.068.27.066.28.066.28.064.28.064.28.063.27.062.29.061.27.061.28.059.28.059.28.058.28.057.29.056.28.056.28.054.28.054.28.052.28.052.29.051.28.051.28.049.29.048.28.048.29.047.28.046.29.044.28.044.29.044.28.042.29.041.29.041.28.04.29.039.29.038.28.037.29.036.29.035.29.034.29.034.29.033.29.031.28.031.29.03.29.029.29.028.29.027.3.027.29.025.29.025.29.023.29.023.29.022.3.021.29.02.29.019.29.018.3.017.29.016.3.016.29.014.29.014.3.012.29.012.3.011.29.01.3.009.29.008.3.006.3.007.29.005.3.004.3.003.29.003.3.001.3.001.3-.001.3-.001.29-.003.3-.003.3-.004.29-.005.3-.007.3-.006.29-.008.3-.009.29-.01.3-.011.29-.012.3-.012.29-.014.3-.014.29-.016.29-.016.3-.017.29-.018.29-.019.3-.02.29-.021.29-.022.29-.023.29-.023.29-.025.3-.025.29-.027.29-.027.29-.028.29-.029.29-.03.29-.031.29-.031.28-.033.29-.034.29-.034.29-.035.29-.036.28-.037.29-.038.29-.039.28-.04.29-.041.29-.041.28-.042.29-.044.28-.044.29-.044.28-.046.29-.047.28-.048.29-.048.28-.049.28-.051.28-.051.29-.052.28-.052.28-.054.28-.054.29-.056.28-.056.28-.057.28-.058.28-.059.28-.059.27-.061.29-.061.27-.062.28-.063.28-.064.28-.064.28-.066.27-.066.28-.068.28-.068.27-.068.28-.07.27-.071.28-.071.27-.072.28-.073.27-.074.28-.075.27-.075.27-.076.28-.077.27-.078.27-.079.27-.08.27-.08.28-.081.27-.082.27-.083.27-.084.27-.084.27-.085.26-.086.27-.087.27-.088.27-.088.27-.089.27-.091.26-.09.27-.092.26-.092.27-.094.27-.094.26-.094.27-.096.26-.096.26-.097.27-.099.26-.098.26-.1.26-.1.27-.101.26-.102.26-.103.26-.103.26-.104.26-.105.26-.106.26-.106.26-.107.26-.109.26-.108.25-.11.26-.11.26-.111.25-.112.26-.113.26-.113.25-.114.26-.115.25-.115.25-.117.26-.116.25-.118.25-.119.26-.119.25-.12.25-.121.25-.122.25-.122.25-.123.25-.124.25-.124.25-.125.25-.126.25-.127.24-.128.25-.128.25-.129.24-.129.25-.13.25-.132.24-.131.25-.132.24-.134.24-.134.25-.135.24-.135.24-.136.24-.137.25-.137.24-.138.24-.139.24-.14.24-.14.24-.141.23-.142.24-.142.24-.144.24-.143.23-.144.24-.145.24-.146.23-.148.24-.147.23-.148.24-.148.23-.149.23-.151.24-.15.23-.151.23-.152.23-.153.23-.154.23-.154.23-.154.23-.156.23-.156.23-.157.23-.157.22-.158.23-.159.23-.16.22-.16.23-.16.22-.162.23-.162.22-.163.22-.163.23-.164.22-.165.22-.165.22-.166.22-.167.22-.167.22-.169.22-.168.22-.169.22-.17.22-.17.21-.172.22-.171.21-.172.22-.173.22-.175.21-.174.21-.175.22-.176.21-.175.21-.177.21-.178.21-.178.22-.179.21-.179.21-.18.2-.181.21-.181.21-.181.21-.183.21-.183.2-.184.21-.184.2-.185.21-.185.2-.186.21-.187.2-.187.2-.187.2-.19.2-.189.2-.189.2-.191.2-.19.2-.191.2-.193.2-.192.2-.193.19-.194.2-.195.2-.195.19-.195.19-.196.2-.197.19-.197.19-.198.19-.199.2-.199.19-.199.19-.2.19-.201.19-.201.18-.201.19-.204.19-.202.19-.203.18-.205.19-.205.18-.204.19-.206.18-.207.18-.207.19-.207.18-.208.18-.209.18-.209.18-.209.18-.211.18-.21.18-.211.17-.212.18-.212.18-.213.17-.214.18-.213.17-.215.17-.215.18-.215.17-.216.17-.217.17-.217.17-.218.17-.217.17-.22.17-.219.17-.219.17-.22.16-.222.17-.221.16-.221.17-.222.16-.223.17-.223.16-.224.16-.225.16-.224.16-.225.16-.226.16-.227.16-.226.16-.228.16-.227.16-.229.15-.229.16-.229.15-.229.16-.23.15-.231.15-.232.15-.232.15-.231.16-.233.15-.233.14-.234.15-.234.15-.234.15-.236.15-.234.14-.236.15-.237.14-.238.15-.237.14-.237.14-.239.14-.238.14-.24.14-.239.14-.24.14-.241.14-.241.14-.241.13-.243.14-.242.14-.242.13-.245.13-.242.14-.245.13-.245.13-.244.13-.246.13-.246.13-.246.13-.247.13-.248.13-.247.12-.249.13-.248.12-.248.13-.25.12-.25.13-.251.12-.25.12-.251.12-.252.12-.251.12-.253.12-.253.12-.254.11-.252.12-.254.12-.255.11-.255.11-.255.12-.256.11-.257.11-.254.11-.258.11-.258.11-.257.11-.258.11-.258.11-.259.1-.26.11-.26.1-.259.11-.261.1-.26.1-.262.11-.262.1-.261.1-.262.1-.263.1-.264.09-.263.1-.264.1-.264.09-.264.1-.266.09-.265.09-.265.1-.267.09-.267.09-.267.09-.267.09-.266.09-.268.09-.27.08-.268.09-.269.08-.27.09-.268.08-.271.08-.27.09-.272.08-.27.08-.272.08-.272.07-.271.08-.273.08-.274.08-.272.07-.274.08-.273.07-.274.07-.277.08-.274.07-.274.07-.277.07-.275.07-.276.06-.276.07-.278.07-.278.06-.277.07-.277.06-.278.07-.279.06-.279.06-.279.06-.28.06-.279.06-.279.05-.282.06-.28.06-.281.05-.282.06-.281.05-.283.06-.282.05-.282.05-.283.05-.283.05-.283.05-.284.04-.284.05-.285.05-.285.04-.285.04-.284.05-.286.04-.286.04-.286.04-.287.04-.285.04-.288.04-.287.04-.287.03-.288.04-.289.03-.287.03-.289.04-.289.03-.289.03-.29.03-.289.03-.29.03-.289.02-.293.03-.29.03-.291.02-.292.02-.291.03-.291.02-.293.02-.292.02-.292.02-.294.02-.293.01-.293.02-.293.02-.295.01-.294.01-.293.02-.296.01-.296.01-.294.01-.295.01-.295.01-.296v-.297l.01-.297v-.295l.01-.297v-.297-.297l.01-.298v-.298-.298l-.01-.297v-.298-.297l-.01-.297v-.295l-.01-.296v-.298l-.01-.295-.01-.296-.01-.295-.01-.294-.01-.296-.02-.296-.01-.293-.01-.294-.02-.294-.02-.294-.01-.293-.02-.293-.02-.293-.02-.293-.02-.292-.02-.292-.03-.292-.02-.291-.02-.292-.03-.291-.03-.29-.02-.292-.03-.29-.03-.289-.03-.289-.03-.29-.03-.29-.04-.288-.03-.289-.03-.288-.04-.289-.03-.288-.04-.286-.04-.288-.04-.287-.04-.286-.04-.287-.04-.286-.04-.286-.05-.286-.04-.284-.04-.285-.05-.285-.05-.285-.04-.284-.05-.284-.05-.283-.05-.283-.05-.283-.05-.281-.06-.283-.05-.283-.06-.281-.05-.281-.06-.281-.06-.281-.05-.281-.06-.28-.06-.279-.06-.28-.06-.279-.06-.278-.07-.28-.06-.277-.07-.278-.06-.277-.07-.278-.07-.278-.06-.276-.07-.276-.07-.275-.07-.276-.07-.275-.08-.274-.07-.277-.07-.273-.08-.273-.07-.274-.08-.273-.08-.273-.08-.273-.07-.272-.08-.272-.08-.272-.08-.27-.09-.271-.08-.271-.08-.27-.09-.269-.08-.27-.09-.269-.08-.268-.09-.269-.09-.268-.09-.267-.09-.267-.09-.267-.09-.267-.1-.267-.09-.265-.09-.265-.1-.266-.09-.263-.1-.264-.1-.264-.09-.264-.1-.264-.1-.262-.1-.262-.1-.262-.11-.262-.1-.262-.1-.26-.11-.26-.1-.26-.11-.259-.1-.26-.11-.26-.11-.258-.11-.258-.11-.257-.11-.258-.11-.257-.11-.255-.11-.257-.12-.256-.11-.255-.11-.255-.12-.255-.12-.253-.11-.253-.12-.254-.12-.253-.12-.253-.12-.251-.12-.252-.12-.251-.12-.25-.13-.251-.12-.25-.13-.249-.12-.248-.13-.249-.12-.248-.13-.248-.13-.248-.13-.246-.13-.247-.13-.246-.13-.245-.13-.244-.13-.246-.14-.244-.13-.243-.13-.244-.14-.243-.14-.242-.13-.243-.14-.241-.14-.24-.14-.242-.14-.239-.14-.24-.14-.24-.14-.239-.14-.237-.14-.238-.15-.237-.14-.238-.15-.237-.14-.235-.15-.235-.15-.236-.15-.234-.15-.234-.14-.234-.15-.233-.16-.232-.15-.232-.15-.232-.15-.232-.15-.231-.16-.229-.15-.229-.16-.23-.15-.229-.16-.229-.16-.227-.16-.227-.16-.227-.16-.227-.16-.226-.16-.224-.16-.225-.16-.225-.16-.223-.17-.224-.16-.222-.17-.223-.16-.221-.17-.221-.16-.222-.17-.22-.17-.218-.17-.22-.17-.219-.17-.218-.17-.218-.17-.217-.17-.216-.17-.217-.18-.215-.17-.215-.17-.214-.18-.214-.17-.214-.18-.213-.18-.212-.17-.212-.18-.211-.18-.21-.18-.211-.18-.209-.18-.209-.18-.209-.18-.208-.19-.207-.18-.207-.18-.206-.19-.206-.18-.205-.19-.204-.18-.206-.19-.202-.19-.203-.19-.203-.18-.202-.19-.2-.19-.202-.19-.2-.19-.199-.2-.199-.19-.199-.19-.198-.19-.197-.2-.196-.19-.196-.19-.195-.2-.196-.2-.195-.19-.194-.2-.193-.2-.192-.2-.192-.2-.192-.2-.19-.2-.191-.2-.189-.2-.189-.2-.189-.2-.187-.2-.187-.21-.188-.2-.186-.21-.185-.2-.185-.21-.184-.2-.184-.21-.183-.21-.182-.21-.182-.21-.181-.2-.181-.21-.179-.21-.179-.22-.18-.21-.178-.21-.177-.21-.177-.21-.176-.22-.176-.21-.175-.21-.174-.22-.174-.22-.173-.21-.172-.22-.172-.21-.171-.22-.171-.22-.17-.22-.169-.22-.169-.22-.167-.22-.168-.22-.167-.22-.165-.22-.166-.22-.165-.23-.164-.22-.163-.22-.163-.23-.162-.22-.161-.23-.161-.22-.16-.23-.159-.23-.159-.22-.159-.23-.157-.23-.156-.23-.157-.23-.155-.23-.155-.23-.154-.23-.153-.23-.153-.23-.152-.23-.152-.24-.15-.23-.15-.23-.15-.24-.148-.23-.148-.24-.147-.23-.147-.24-.146-.24-.145-.23-.145-.24-.143-.24-.143-.24-.143-.23-.142-.24-.141-.24-.14-.24-.139-.24-.14-.24-.137-.25-.138-.24-.137-.24-.136-.24-.135-.25-.135-.24-.134-.24-.133-.25-.132-.24-.132-.25-.131-.25-.131-.24-.129-.25-.129-.25-.128-.24-.128-.25-.126-.25-.126-.25-.125-.25-.125-.25-.124-.25-.123-.25-.122-.25-.121-.25-.121-.25-.12-.26-.12-.25-.118-.25-.118-.26-.117-.25-.116-.25-.116-.26-.115-.25-.114-.26-.113-.26-.113-.25-.112-.26-.111-.26-.11-.25-.109-.26-.109-.26-.108-.26-.108-.26-.106-.26-.106-.26-.105-.26-.104-.26-.103-.26-.103-.26-.102-.27-.101-.26-.1-.26-.1-.26-.098-.27-.098-.26-.097-.27-.097-.26-.095-.26-.095-.27-.094-.27-.093-.26-.093-.27-.091-.26-.091-.27-.09-.27-.089-.27-.089-.27-.088-.27-.086-.26-.086-.27-.085-.27-.085-.27-.084-.27-.082-.27-.082-.28-.082-.27-.08-.27-.08-.27-.078-.27-.078-.28-.077-.27-.077-.27-.075-.28-.075-.27-.074-.27-.073-.28-.072-.28-.071-.27-.071-.28-.069-.27-.069-.28-.068-.28-.067-.27-.067-.28-.065-.28-.065-.28-.064-.28-.063-.28-.062-.27-.061-.28-.06-.28-.06-.28-.059-.28-.058-.28-.057-.28-.056-.29-.055-.28-.055-.28-.053-.28-.053-.29-.052-.28-.051-.28-.05-.28-.05-.29-.048-.28-.048-.29-.046-.28-.046-.29-.045-.28-.044-.29-.044-.28-.042-.29-.041-.28-.041-.29-.04-.29-.038-.29-.038-.28-.037-.29-.036-.29-.036-.29-.034-.29-.034-.28-.032-.29-.032-.29-.031-.29-.03-.29-.029-.29-.028-.29-.027-.29-.026-.3-.026-.29-.024-.29-.024-.29-.023-.29-.021-.29-.021-.3-.02-.29-.019-.29-.019-.3-.017-.29-.016-.29-.015-.3-.015-.29-.013-.3-.013-.29-.012-.3-.01-.29-.01-.3-.009-.29-.008-.3-.007-.3-.006-.29-.006-.3-.004-.3-.003-.29-.002-.3-.002h-.3z" fill="#4d4d4d"/></g><path d="m1761.66 848.001.32.003.33.005.32.007.33.01.32.011.32.013.32.016.32.017.33.019.32.022.31.023.32.025.32.028.32.029.32.031.32.033.31.036.32.037.31.039.32.041.31.043.31.045.32.047.31.048.31.051.31.053.31.054.31.056.31.059.31.06.31.062.3.064.31.065.3.068.31.069.3.072.31.073.3.075.3.076.3.079.3.08.3.083.3.084.3.085.3.088.29.089.3.091.3.093.29.095.29.096.3.099.29.099.29.102.29.104.29.105.29.106.29.109.28.11.29.112.29.114.28.115.28.117.29.119.28.12.28.122.28.124.28.125.28.127.27.129.28.13.28.132.27.133.27.135.28.137.27.138.27.14.27.142.27.143.27.144.26.147.27.147.26.15.27.15.26.153.26.154.27.155.26.157.25.159.26.16.26.162.26.163.25.164.26.166.25.168.25.169.25.17.25.172.25.174.25.174.24.177.25.177.24.18.24.18.24.182.25.184.23.184.24.187.24.187.24.189.23.191.24.192.23.193.23.194.23.196.23.197.23.199.22.2.23.201.22.203.23.204.22.205.22.206.22.208.22.209.21.211.22.212.21.213.22.214.21.215.21.217.21.218.21.219.2.221.21.222.2.223.2.224.2.225.2.227.2.228.2.229.2.23.19.232.19.232.2.234.19.235.19.236.18.237.19.239.18.239.19.241.18.242.18.243.18.244.18.245.17.246.18.248.17.248.17.25.17.25.17.252.17.253.17.253.16.255.16.256.17.257.16.258.15.259.16.26.16.261.15.263.15.263.15.264.15.265.15.266.15.267.14.268.14.269.15.27.14.271.13.272.14.273.14.273.13.275.13.276.13.276.13.278.13.278.12.279.13.28.12.281.12.282.12.283.11.284.12.284.11.286.12.286.1.287.11.288.11.289.11.289.1.291.1.291.1.292.1.293.1.293.09.295.09.295.09.296.09.296.09.298.09.298.08.299.08.3.08.3.08.302.08.302.07.302.08.304.07.304.07.304.07.306.06.306.06.307.07.307.06.309.06.309.05.309.06.31.05.311.05.312.05.312.04.312.05.314.04.314.04.314.04.315.04.316.03.316.04.317.03.318.03.318.03.319.02.319.03.32.02.32.02.321.01.321.02.322.01.323.01.323.01.323.01.324v.324l.01.325v.326.325l-.01.325v.325l-.01.324-.01.323-.01.323-.01.323-.02.321-.01.322-.02.321-.02.32-.03.32-.02.319-.03.319-.03.318-.03.317-.04.317-.03.317-.04.315-.04.316-.04.314-.04.314-.05.313-.04.313-.05.312-.05.312-.05.31-.06.311-.05.309-.06.309-.06.308-.07.308-.06.307-.06.306-.07.305-.07.305-.07.304-.08.304-.07.302-.08.302-.08.301-.08.301-.08.3-.08.299-.09.298-.09.297-.09.297-.09.296-.09.295-.09.295-.1.293-.1.293-.1.292-.1.291-.1.291-.11.289-.11.289-.11.288-.1.287-.12.286-.11.285-.12.285-.11.284-.12.282-.12.282-.12.281-.13.28-.12.28-.13.278-.13.278-.13.276-.13.276-.13.274-.14.274-.14.273-.13.272-.14.271-.15.27-.14.269-.14.268-.15.267-.15.266-.15.265-.15.264-.15.263-.15.262-.16.261-.16.26-.15.259-.16.258-.17.257-.16.256-.16.255-.17.254-.17.253-.17.252-.17.25-.17.25-.17.248-.18.248-.17.246-.18.245-.18.244-.18.243-.18.242-.19.24-.18.24-.19.238-.18.238-.19.236-.19.235-.2.233-.19.233-.19.232-.2.23-.2.229-.2.228-.2.226-.2.226-.2.224-.2.223-.21.222-.2.22-.21.22-.21.218-.21.216-.21.216-.22.214-.21.213-.22.212-.21.21-.22.209-.22.208-.22.207-.22.205-.23.204-.22.202-.23.202-.22.2-.23.198-.23.198-.23.195-.23.195-.23.193-.24.192-.23.19-.24.189-.24.188-.24.186-.23.185-.25.183-.24.183-.24.18-.24.179-.25.178-.24.176-.25.175-.25.174-.25.172-.25.17-.25.169-.25.168-.26.166-.25.164-.26.163-.26.162-.26.16-.25.158-.26.157-.27.156-.26.154-.26.152-.27.151-.26.149-.27.148-.26.146-.27.145-.27.143-.27.142-.27.139-.27.139-.28.136-.27.136-.27.133-.28.132-.28.13-.27.129-.28.127-.28.125-.28.124-.28.122-.28.12-.29.119-.28.117-.28.115-.29.114-.29.112-.28.11-.29.108-.29.107-.29.105-.29.104-.29.101-.29.1-.3.098-.29.097-.29.094-.3.093-.3.091-.29.09-.3.087-.3.086-.3.084-.3.082-.3.081-.3.078-.3.077-.3.075-.31.073-.3.071-.31.07-.3.067-.31.066-.3.064-.31.062-.31.06-.31.058-.31.057-.31.054-.31.053-.31.05-.31.049-.32.047-.31.045-.31.043-.32.041-.31.039-.32.037-.31.035-.32.034-.32.031-.32.029-.32.027-.32.026-.31.023-.32.021-.33.02-.32.017-.32.015-.32.014-.32.011-.33.009-.32.007-.33.006-.32.003-.33.001-.32-.001-.33-.003-.32-.006-.33-.007-.32-.009-.32-.011-.32-.014-.33-.015-.32-.017-.32-.02-.32-.021-.32-.023-.32-.026-.32-.027-.31-.029-.32-.031-.32-.034-.31-.035-.32-.037-.32-.039-.31-.041-.31-.043-.32-.045-.31-.047-.31-.049-.31-.05-.31-.053-.32-.054-.3-.057-.31-.058-.31-.06-.31-.062-.31-.064-.3-.066-.31-.067-.3-.07-.31-.071-.3-.073-.3-.075-.3-.077-.31-.078-.3-.081-.3-.082-.29-.084-.3-.086-.3-.087-.3-.09-.29-.091-.3-.093-.29-.094-.3-.097-.29-.098-.29-.1-.29-.101-.29-.104-.29-.105-.29-.107-.29-.108-.29-.11-.28-.112-.29-.114-.28-.115-.29-.117-.28-.119-.28-.12-.28-.122-.28-.124-.28-.125-.28-.127-.28-.129-.27-.13-.28-.132-.27-.133-.28-.136-.27-.136-.27-.139-.27-.139-.27-.142-.27-.143-.27-.145-.27-.146-.26-.148-.27-.149-.26-.151-.27-.152-.26-.154-.26-.156-.26-.157-.26-.158-.26-.16-.25-.162-.26-.163-.25-.164-.26-.166-.25-.168-.25-.169-.25-.17-.25-.172-.25-.174-.25-.175-.25-.176-.24-.178-.24-.179-.25-.18-.24-.183-.24-.183-.24-.185-.24-.186-.23-.188-.24-.189-.24-.19-.23-.192-.23-.193-.23-.195-.23-.195-.23-.198-.23-.198-.23-.2-.22-.202-.23-.202-.22-.204-.22-.205-.22-.207-.22-.208-.22-.209-.22-.21-.21-.212-.22-.213-.21-.214-.21-.216-.21-.216-.21-.218-.21-.22-.2-.22-.21-.222-.2-.223-.21-.224-.2-.226-.2-.226-.2-.228-.19-.229-.2-.23-.19-.232-.2-.233-.19-.233-.19-.235-.19-.236-.19-.238-.18-.238-.19-.24-.18-.24-.18-.242-.18-.243-.18-.244-.18-.245-.18-.246-.17-.248-.17-.248-.18-.25-.17-.25-.17-.252-.16-.253-.17-.254-.16-.255-.17-.256-.16-.257-.16-.258-.16-.259-.15-.26-.16-.261-.15-.262-.16-.263-.15-.264-.15-.265-.14-.266-.15-.267-.15-.268-.14-.269-.14-.27-.14-.271-.14-.272-.13-.273-.14-.274-.13-.274-.13-.276-.14-.276-.12-.278-.13-.278-.13-.28-.12-.28-.12-.281-.12-.282-.12-.282-.12-.284-.11-.285-.12-.285-.11-.286-.11-.287-.11-.288-.1-.289-.11-.289-.1-.291-.1-.291-.1-.292-.1-.293-.1-.293-.09-.295-.1-.295-.09-.296-.09-.297-.08-.297-.09-.298-.08-.299-.09-.3-.08-.301-.07-.301-.08-.302-.08-.302-.07-.304-.07-.304-.07-.305-.07-.305-.06-.306-.07-.307-.06-.308-.06-.308-.06-.309-.05-.309-.06-.311-.05-.31-.05-.312-.05-.312-.05-.313-.04-.313-.05-.314-.04-.314-.04-.316-.03-.315-.04-.317-.03-.317-.03-.317-.03-.318-.03-.319-.03-.319-.02-.32-.02-.32-.02-.321-.02-.322-.01-.321-.01-.323-.02-.323v-.323l-.01-.324-.01-.325v-.325-.325-.326-.325l.01-.324.01-.324v-.323l.02-.323.01-.323.01-.322.02-.321.02-.321.02-.32.02-.32.03-.319.03-.319.03-.318.03-.318.03-.317.04-.316.03-.316.04-.315.04-.314.05-.314.04-.314.05-.312.05-.312.05-.312.05-.311.06-.31.05-.309.06-.309.06-.309.06-.307.07-.307.06-.306.07-.306.07-.304.07-.304.07-.304.08-.302.08-.302.07-.302.08-.3.09-.3.08-.299.09-.298.08-.298.09-.296.09-.296.1-.295.09-.295.1-.293.1-.293.1-.292.1-.291.1-.291.11-.289.1-.289.11-.288.11-.287.11-.286.12-.286.11-.284.12-.284.12-.283.12-.282.12-.281.12-.28.13-.279.13-.278.12-.278.14-.276.13-.276.13-.275.14-.273.13-.273.14-.272.14-.271.14-.27.14-.269.15-.268.15-.267.14-.266.15-.265.15-.264.16-.263.15-.263.16-.261.15-.26.16-.259.16-.258.16-.257.17-.256.16-.255.17-.253.16-.253.17-.252.17-.25.18-.25.17-.248.17-.248.18-.246.18-.245.18-.244.18-.243.18-.242.18-.241.19-.239.18-.239.19-.237.19-.236.19-.235.19-.234.2-.232.19-.232.2-.23.19-.229.2-.228.2-.227.2-.225.21-.224.2-.223.21-.222.2-.221.21-.219.21-.218.21-.217.21-.215.21-.214.22-.213.21-.212.22-.211.22-.209.22-.208.22-.206.22-.205.22-.204.23-.203.22-.201.23-.2.23-.199.23-.197.23-.196.23-.194.23-.193.23-.192.24-.191.24-.189.23-.187.24-.187.24-.184.24-.184.24-.182.25-.18.24-.18.24-.177.25-.177.25-.174.25-.174.25-.172.25-.17.25-.169.25-.168.26-.166.25-.164.26-.163.25-.162.26-.16.26-.159.26-.157.26-.155.26-.154.27-.153.26-.15.27-.15.26-.147.27-.147.27-.144.27-.143.27-.142.27-.14.27-.138.27-.137.28-.135.27-.133.28-.132.27-.13.28-.129.28-.127.28-.125.28-.124.28-.122.28-.12.28-.119.29-.117.28-.115.29-.114.28-.112.29-.11.29-.109.29-.106.29-.105.29-.104.29-.102.29-.099.29-.099.3-.096.29-.095.3-.093.29-.091.3-.089.3-.088.3-.085.29-.084.3-.083.3-.08.31-.079.3-.076.3-.075.3-.073.31-.072.3-.069.31-.068.3-.065.31-.064.31-.062.31-.06.31-.059.3-.056.32-.054.31-.053.31-.051.31-.048.31-.047.32-.045.31-.043.31-.041.32-.039.32-.037.31-.036.32-.033.32-.031.31-.029.32-.028.32-.025.32-.023.32-.022.32-.019.32-.017.33-.016.32-.013.32-.011.32-.01.33-.007.32-.005.33-.003.32-.001zm-.64 2-.31.003-.31.005-.31.007-.31.009-.32.011-.31.012-.3.015-.31.017-.31.018-.31.021-.31.022-.3.025-.31.026-.31.028-.3.03-.3.032-.31.034-.3.035-.3.038-.31.039-.3.042-.3.043-.3.045-.3.046-.3.049-.3.051-.29.052-.3.054-.3.056-.29.058-.3.059-.29.061-.3.064-.29.064-.29.067-.29.068-.3.071-.29.072-.29.073-.28.076-.29.077-.29.079-.29.08-.28.083-.29.084-.28.086-.29.087-.28.089-.29.091-.28.093-.28.094-.28.096-.28.097-.28.1-.27.101-.28.102-.28.104-.27.106-.28.108-.27.109-.28.11-.27.113-.27.114-.27.115-.27.117-.27.119-.27.12-.26.122-.27.124-.27.125-.26.126-.26.128-.27.13-.26.131-.26.133-.26.134-.26.136-.26.138-.26.139-.25.14-.26.142-.25.143-.26.145-.25.146-.25.148-.25.15-.25.15-.25.153-.25.153-.24.155-.25.157-.24.158-.25.16-.24.161-.24.162-.24.164-.24.165-.24.166-.24.168-.24.169-.23.171-.24.172-.23.174-.23.175-.23.176-.23.177-.23.179-.23.181-.23.181-.22.183-.23.184-.22.186-.22.187-.22.188-.22.189-.22.191-.22.192-.22.193-.21.195-.22.196-.21.197-.21.198-.21.2-.21.201-.21.202-.21.203-.2.205-.21.206-.2.207-.2.208-.2.209-.2.211-.2.212-.2.213-.19.214-.2.215-.19.217-.19.218-.19.219-.19.22-.19.221-.19.222-.18.223-.19.225-.18.226-.18.227-.18.227-.18.229-.18.23-.18.232-.17.232-.17.233-.18.234-.17.236-.17.236-.16.238-.17.239-.17.239-.16.241-.16.242-.16.243-.16.243-.16.245-.16.246-.15.247-.16.248-.15.248-.15.25-.15.251-.15.251-.14.253-.15.254-.14.254-.14.256-.14.256-.14.257-.14.259-.14.259-.13.26-.13.261-.13.262-.13.263-.13.264-.13.264-.12.266-.13.266-.12.267-.12.269-.12.269-.11.269-.12.271-.11.271-.12.273-.11.273-.11.274-.1.275-.11.275-.1.277-.11.277-.1.278-.1.279-.09.279-.1.28-.09.282-.1.281-.09.283-.09.283-.08.284-.09.285-.08.286-.09.286-.08.287-.08.288-.07.288-.08.29-.07.289-.07.291-.07.291-.07.292-.07.292-.06.294-.07.294-.06.294-.06.296-.06.296-.05.296-.06.297-.05.298-.05.298-.05.3-.04.299-.05.3-.04.301-.04.302-.04.302-.04.302-.04.303-.03.304-.03.305-.03.305-.03.305-.03.306-.02.307-.02.307-.02.308-.02.308-.02.309-.01.309-.02.31-.01.31-.01.311v.311l-.01.312v.312.313.312.313l.01.312v.311l.01.311.01.31.02.31.01.309.02.309.02.308.02.308.02.307.02.307.03.305.03.306.03.305.03.304.03.304.04.303.04.303.04.302.04.302.04.3.05.301.04.299.05.299.05.299.05.298.06.297.05.296.06.296.06.295.06.295.07.294.06.293.07.293.07.292.07.291.07.29.07.29.08.29.07.288.08.288.08.287.09.286.08.286.09.284.08.284.09.284.09.282.1.282.09.281.1.281.09.279.1.279.1.278.11.277.1.276.11.276.1.275.11.274.11.273.12.272.11.272.12.271.11.269.12.269.12.268.12.268.13.266.12.265.13.265.13.264.13.263.13.262.13.261.13.26.14.259.14.258.14.258.14.256.14.256.14.254.15.254.14.252.15.252.15.251.15.25.15.248.16.248.15.247.16.246.16.244.16.244.16.243.16.242.16.24.17.24.17.239.16.237.17.237.17.235.18.235.17.233.17.232.18.231.18.23.18.229.18.228.18.227.18.226.19.224.18.224.19.222.19.221.19.22.19.219.19.218.19.216.2.216.19.214.2.213.2.212.2.211.2.209.2.208.2.207.21.206.2.205.21.203.21.202.21.201.21.199.21.199.21.197.22.196.21.194.22.194.22.192.22.191.22.189.22.188.22.187.22.186.23.184.22.183.23.181.23.181.23.178.23.178.23.176.23.175.23.173.24.172.23.171.24.17.24.168.24.166.24.165.24.164.24.162.24.161.25.16.24.158.25.156.24.155.25.154.25.152.25.151.25.15.25.147.25.147.26.144.25.144.26.142.26.14.25.139.26.137.26.136.26.135.26.132.26.132.27.129.26.128.26.127.27.125.27.124.26.121.27.121.27.119.27.117.27.115.27.114.27.112.28.111.27.109.28.108.27.105.28.105.28.102.27.101.28.099.28.098.28.096.28.094.28.093.29.09.28.09.29.087.28.086.29.084.28.082.29.081.29.079.29.077.28.075.29.074.29.072.3.07.29.069.29.066.29.065.3.063.29.062.3.059.29.058.3.056.3.054.29.052.3.051.3.048.3.047.3.045.3.043.3.041.31.04.3.037.3.036.31.034.3.032.3.03.31.028.31.026.3.025.31.022.31.02.31.019.31.017.3.014.31.013.32.011.31.009.31.007.31.005.31.003.31.001.32-.001.31-.003.31-.005.31-.007.31-.009.31-.011.31-.013.31-.014.31-.017.31-.019.31-.02.3-.022.31-.025.31-.026.3-.028.31-.03.3-.032.3-.034.31-.036.3-.037.3-.04.3-.041.3-.043.3-.045.31-.047.29-.048.3-.051.3-.052.3-.054.29-.056.3-.058.3-.059.29-.062.29-.063.3-.065.29-.066.29-.069.29-.07.29-.072.29-.074.29-.075.29-.077.29-.079.29-.081.28-.082.29-.084.28-.086.29-.087.28-.09.28-.09.28-.093.29-.094.28-.096.27-.098.28-.099.28-.101.28-.102.28-.105.27-.105.28-.108.27-.109.27-.111.28-.112.27-.114.27-.115.27-.117.27-.119.26-.121.27-.121.27-.124.26-.125.27-.127.26-.128.26-.129.27-.132.26-.132.26-.135.26-.136.26-.137.25-.139.26-.14.25-.142.26-.144.25-.144.25-.147.26-.147.25-.15.25-.151.25-.152.24-.154.25-.155.25-.156.24-.158.25-.16.24-.161.24-.162.24-.164.24-.165.24-.166.24-.168.23-.17.24-.171.23-.172.24-.173.23-.175.23-.176.23-.178.23-.178.23-.181.22-.181.23-.183.22-.184.23-.186.22-.187.22-.188.22-.189.22-.191.22-.192.21-.194.22-.194.21-.196.22-.197.21-.199.21-.199.21-.201.21-.202.2-.204.21-.204.2-.206.21-.207.2-.208.2-.21.2-.21.2-.212.19-.213.2-.214.2-.216.19-.216.19-.218.19-.219.19-.22.19-.221.19-.222.18-.224.19-.224.18-.226.18-.226.18-.229.18-.229.18-.23.17-.231.18-.232.17-.233.17-.235.17-.235.17-.237.17-.237.17-.239.16-.24.17-.24.16-.242.16-.243.16-.244.16-.244.15-.246.16-.247.15-.248.15-.249.16-.249.15-.251.14-.252.15-.252.14-.254.15-.254.14-.256.14-.256.14-.258.14-.258.13-.259.14-.26.13-.261.13-.263.13-.262.13-.264.13-.265.12-.265.12-.266.12-.268.13-.268.11-.269.12-.27.12-.27.11-.272.11-.272.11-.273.11-.274.11-.275.11-.275.1-.277.1-.277.1-.278.1-.279.1-.279.1-.281.09-.281.09-.281.09-.283.09-.284.09-.284.09-.285.08-.285.08-.286.08-.287.08-.288.08-.289.07-.289.08-.29.07-.29.07-.291.07-.292.07-.293.06-.293.06-.294.06-.295.07-.295.05-.296.06-.296.05-.298.06-.297.05-.299.04-.299.05-.299.05-.301.04-.3.04-.302.04-.302.04-.303.03-.303.04-.303.03-.305.03-.305.03-.306.02-.306.03-.306.02-.307.02-.308.02-.308.01-.309.02-.309.01-.31.01-.31.01-.311.01-.311v-.312l.01-.312v-.313-.313l-.01-.312v-.312l-.01-.311-.01-.311-.01-.31-.01-.31-.02-.309-.01-.309-.02-.308-.02-.308-.02-.307-.03-.307-.02-.306-.03-.305-.03-.305-.03-.305-.04-.303-.03-.303-.04-.303-.04-.302-.04-.302-.04-.301-.05-.3-.05-.3-.04-.299-.05-.298-.06-.298-.05-.297-.06-.297-.05-.295-.07-.296-.06-.294-.06-.294-.06-.294-.07-.292-.07-.292-.07-.291-.07-.291-.08-.29-.07-.289-.08-.288-.08-.288-.08-.287-.08-.286-.08-.286-.09-.285-.09-.284-.09-.283-.09-.283-.09-.282-.09-.28-.1-.281-.1-.28-.1-.278-.1-.278-.1-.277-.1-.277-.11-.275-.11-.275-.11-.274-.11-.273-.11-.273-.11-.271-.12-.271-.12-.27-.11-.269-.13-.267-.12-.268-.12-.266-.12-.266-.13-.264-.13-.264-.13-.263-.13-.262-.13-.261-.14-.26-.13-.259-.14-.258-.14-.258-.14-.257-.14-.255-.15-.254-.14-.254-.15-.253-.14-.251-.15-.251-.16-.25-.15-.249-.15-.247-.16-.247-.15-.246-.16-.245-.16-.243-.16-.243-.16-.242-.17-.241-.16-.239-.17-.239-.17-.238-.17-.236-.17-.236-.17-.234-.17-.233-.18-.233-.17-.231-.18-.23-.18-.229-.18-.228-.18-.227-.18-.225-.19-.225-.18-.223-.19-.222-.19-.222-.19-.219-.19-.219-.19-.218-.19-.217-.2-.215-.2-.214-.19-.213-.2-.212-.2-.211-.2-.209-.2-.208-.21-.207-.2-.206-.21-.205-.2-.203-.21-.202-.21-.201-.21-.2-.21-.198-.22-.197-.21-.196-.22-.195-.21-.193-.22-.192-.22-.191-.22-.189-.22-.189-.22-.186-.23-.186-.22-.184-.23-.183-.22-.182-.23-.18-.23-.179-.23-.177-.23-.177-.23-.174-.24-.174-.23-.172-.24-.171-.23-.169-.24-.168-.24-.166-.24-.165-.24-.164-.24-.163-.24-.16-.25-.16-.24-.158-.25-.157-.25-.155-.24-.153-.25-.153-.25-.15-.25-.15-.26-.148-.25-.146-.25-.145-.26-.143-.25-.142-.26-.14-.25-.139-.26-.138-.26-.136-.26-.134-.26-.133-.27-.131-.26-.13-.26-.128-.27-.126-.26-.125-.27-.124-.27-.122-.26-.12-.27-.119-.27-.117-.27-.115-.27-.114-.28-.113-.27-.11-.27-.109-.28-.108-.27-.106-.28-.104-.28-.102-.28-.101-.28-.1-.27-.097-.28-.096-.29-.094-.28-.093-.28-.091-.28-.089-.29-.087-.28-.086-.29-.084-.28-.083-.29-.08-.29-.079-.29-.077-.29-.076-.29-.073-.29-.072-.29-.071-.29-.068-.29-.067-.3-.064-.29-.064-.29-.061-.3-.059-.3-.058-.29-.056-.3-.054-.3-.052-.3-.051-.29-.049-.31-.046-.3-.045-.3-.043-.3-.042-.3-.039-.3-.038-.31-.035-.3-.034-.3-.032-.31-.03-.3-.028-.31-.026-.31-.025-.3-.022-.31-.021-.31-.018-.31-.017-.31-.015-.31-.012-.31-.011-.31-.009-.31-.007-.31-.005-.31-.003-.32-.001z" fill="#4d4d4d" transform="matrix(1.10823 0 0 1.10823 -1042.95 -77.5794)"/><path d="m1761.98 848.004.65.012.65.021.64.029.65.036.63.045.64.053.64.06.63.069.63.076.63.084.63.092.62.099.62.107.62.115.62.122.61.129.61.137.61.145.6.151.6.159.6.167.6.173.59.18.59.188.59.195.58.201.58.209.58.215.57.222.57.229.57.236.56.242.56.249.55.256.56.262.54.268.55.275.54.282.54.287.53.294.53.3.52.307.53.312.51.319.52.325.51.33.5.337.5.342.5.348.49.354.48.36.49.366.47.371.48.376.47.383.46.387.46.393.45.399.45.404.45.409.44.414.43.42.43.425.43.429.42.435.41.44.41.445.4.449.4.455.4.459.38.464.39.469.37.473.37.478.37.483.36.487.35.491.35.496.34.5.34.505.33.508.33.513.31.517.32.521.3.526.3.529.3.533.28.537.29.541.27.545.27.548.26.552.26.556.25.559.24.563.23.567.23.57.22.573.22.577.21.58.2.583.2.586.18.59.18.592.18.596.16.599.16.602.15.604.15.608.14.61.12.613.13.616.11.618.11.621.1.624.09.626.08.628.08.631.07.633.06.636.05.638.05.64.03.642.03.645.02.646.01.648.01.651-.01.65-.01.649-.02.646-.03.644-.03.643-.05.64-.05.638-.06.635-.07.634-.08.631-.08.628-.09.626-.1.624-.11.621-.11.618-.13.616-.12.613-.14.61-.15.608-.15.604-.16.602-.16.599-.18.595-.18.593-.18.59-.2.586-.2.583-.21.58-.22.577-.22.573-.23.57-.23.566-.24.563-.25.56-.26.556-.26.552-.27.548-.27.545-.29.541-.28.537-.3.533-.3.529-.3.525-.32.521-.31.517-.33.513-.33.509-.34.505-.34.5-.35.496-.35.491-.36.487-.37.482-.37.478-.37.474-.39.468-.38.465-.4.459-.4.454-.4.45-.41.445-.41.44-.42.434-.43.43-.43.425-.43.419-.44.415-.45.409-.45.404-.45.398-.46.393-.46.388-.47.382-.48.377-.47.371-.49.366-.48.359-.49.354-.5.349-.5.342-.5.337-.51.33-.52.325-.51.318-.53.313-.52.306-.53.3-.53.294-.54.288-.54.281-.55.275-.54.269-.56.262-.55.256-.56.249-.56.242-.57.236-.57.229-.57.222-.58.215-.58.209-.58.201-.59.195-.59.187-.59.181-.6.173-.6.166-.6.159-.6.152-.61.144-.61.137-.61.13-.62.122-.62.115-.62.107-.62.099-.63.092-.63.084-.63.076-.63.069-.64.06-.64.053-.63.044-.65.037-.64.029-.65.02-.65.013-.65.004-.65-.004-.65-.013-.64-.02-.65-.029-.64-.037-.64-.044-.64-.053-.63-.06-.63-.069-.64-.076-.62-.084-.63-.092-.62-.099-.63-.107-.61-.115-.62-.122-.61-.13-.61-.137-.61-.144-.6-.152-.61-.159-.59-.166-.6-.173-.59-.181-.59-.187-.59-.195-.58-.201-.58-.209-.58-.215-.57-.222-.57-.229-.57-.236-.56-.242-.56-.249-.56-.256-.55-.262-.55-.269-.54-.275-.54-.281-.54-.288-.53-.294-.53-.3-.53-.306-.52-.313-.52-.318-.51-.325-.51-.33-.5-.337-.5-.342-.5-.349-.49-.354-.49-.359-.48-.366-.48-.371-.47-.377-.47-.382-.46-.388-.46-.393-.46-.398-.45-.404-.44-.409-.44-.415-.44-.419-.43-.425-.42-.43-.42-.434-.41-.44-.41-.445-.41-.45-.4-.454-.39-.459-.39-.465-.38-.468-.38-.474-.37-.478-.36-.482-.36-.487-.36-.491-.34-.496-.35-.5-.33-.505-.33-.509-.33-.513-.32-.517-.31-.521-.31-.525-.3-.529-.29-.533-.29-.537-.28-.541-.27-.545-.27-.548-.27-.552-.25-.556-.25-.56-.24-.563-.24-.566-.23-.57-.22-.573-.21-.577-.21-.58-.2-.583-.2-.586-.19-.59-.18-.593-.17-.595-.17-.599-.15-.602-.16-.604-.14-.608-.14-.61-.13-.613-.12-.616-.11-.618-.11-.621-.1-.624-.09-.626-.09-.628-.07-.631-.07-.634-.06-.635-.06-.638-.04-.64-.04-.643-.02-.644-.02-.646-.02-.649v-.65-.651l.02-.648.02-.646.02-.645.04-.642.04-.64.06-.638.06-.636.07-.633.07-.631.09-.628.09-.626.1-.624.11-.621.11-.618.12-.616.13-.613.14-.61.14-.608.16-.604.15-.602.17-.599.17-.596.18-.592.19-.59.2-.586.2-.583.21-.58.21-.577.22-.573.23-.57.24-.567.24-.563.25-.559.25-.556.27-.552.27-.548.27-.545.28-.541.29-.537.29-.533.3-.529.31-.526.31-.521.32-.517.33-.513.33-.508.33-.505.35-.5.34-.496.36-.491.36-.487.36-.483.37-.478.38-.473.38-.469.39-.464.39-.459.4-.455.41-.449.41-.445.41-.44.42-.435.42-.429.43-.425.44-.42.44-.414.44-.409.45-.404.46-.399.46-.393.46-.387.47-.383.47-.376.48-.371.48-.366.49-.36.49-.354.5-.348.5-.342.5-.337.51-.33.51-.325.52-.319.52-.312.53-.307.53-.3.53-.294.54-.287.54-.282.54-.275.55-.268.55-.262.56-.256.56-.249.56-.242.57-.236.57-.229.57-.222.58-.215.58-.209.58-.201.59-.195.59-.188.59-.18.6-.173.59-.167.61-.159.6-.151.61-.145.61-.137.61-.129.62-.122.61-.115.63-.107.62-.099.63-.092.62-.084.64-.076.63-.069.63-.06.64-.053.64-.045.64-.036.65-.029.64-.021.65-.012.65-.004zm-1.2 7.355-.56.011-.55.017-.55.025-.55.031-.55.038-.54.045-.55.052-.54.059-.54.065-.53.071-.54.079-.53.084-.53.092-.53.097-.52.105-.53.11-.52.117-.52.123-.51.13-.51.135-.51.142-.51.147-.51.154-.5.161-.5.166-.5.171-.49.178-.49.184-.49.189-.49.196-.48.201-.48.205-.48.213-.48.219-.47.223-.46.23-.47.235-.46.239-.46.246-.45.252-.46.255-.44.262-.45.267-.44.272-.44.277-.43.282-.43.287-.43.294-.43.298-.41.302-.42.308-.41.311-.41.317-.41.322-.4.327-.39.331-.4.338-.39.34-.38.344-.38.35-.38.355-.37.358-.37.364-.36.368-.36.371-.35.376-.35.38-.35.385-.34.387-.33.394-.33.397-.33.399-.32.406-.32.41-.31.411-.31.416-.3.419-.3.424-.29.429-.29.43-.28.434-.28.438-.27.442-.27.444-.26.449-.26.453-.25.454-.24.459-.24.462-.24.465-.23.468-.22.47-.22.475-.21.477-.21.48-.2.484-.19.487-.19.487-.19.491-.17.496-.18.498-.16.499-.16.502-.16.506-.14.509-.15.509-.13.514-.13.516-.13.519-.11.519-.11.522-.11.526-.09.529-.1.529-.08.531-.08.536-.07.535-.06.54-.06.541-.05.541-.05.546-.04.549-.03.549-.02.55-.02.553-.01.555-.01.558.01.557.01.556.02.552.02.551.03.549.04.548.05.547.05.541.06.541.06.539.07.535.08.537.08.531.1.528.09.53.11.526.11.522.11.518.13.519.13.517.13.513.15.51.14.509.16.506.16.501.16.5.18.497.17.496.19.491.19.488.19.486.2.484.21.481.21.477.22.475.22.47.23.467.24.465.24.463.24.459.25.454.26.452.26.45.27.444.27.441.28.438.28.434.29.431.29.429.3.424.3.419.31.416.31.411.32.409.32.406.33.401.33.396.33.394.34.387.35.385.35.38.35.375.36.372.36.368.37.364.37.357.38.355.38.351.38.344.39.34.4.337.39.332.4.326.41.323.41.318.41.31.42.308.41.302.43.297.43.294.43.288.43.282.44.277.44.272.45.266.44.262.46.257.45.251.46.246.46.239.47.235.46.229.47.223.48.219.48.213.48.207.48.2.49.196.49.189.49.183.49.178.5.173.5.165.5.16.51.154.51.147.51.143.51.136.51.128.52.124.52.117.52.11.53.104.53.098.53.091.53.085.54.079.53.071.54.065.54.059.55.051.54.046.55.038.55.031.55.025.55.017.56.011.55.003.56-.003.56-.011.55-.017.55-.025.55-.031.54-.038.55-.046.55-.051.54-.059.54-.065.53-.071.54-.079.53-.085.53-.091.52-.098.53-.104.52-.11.52-.117.52-.124.52-.128.51-.136.51-.143.51-.147.5-.153.51-.161.5-.166.49-.172.5-.178.49-.183.49-.189.49-.196.48-.201.48-.206.48-.213.47-.219.47-.223.47-.229.46-.235.47-.239.45-.246.46-.251.45-.257.45-.262.45-.266.44-.272.44-.277.43-.282.43-.288.43-.294.42-.297.42-.302.42-.308.41-.311.41-.318.4-.322.4-.325.4-.333.39-.337.39-.34.39-.345.38-.349.37-.355.37-.359.37-.363.36-.367.36-.373.36-.375.35-.38.34-.385.34-.387.34-.394.33-.397.33-.401.32-.405.32-.408.31-.411.31-.417.3-.421.3-.423.29-.427.29-.43.28-.436.28-.438.27-.441.27-.446.26-.449.25-.451.25-.454.25-.459.24-.461.23-.465.24-.47.22-.471.22-.473.21-.477.2-.481.21-.482.19-.486.19-.49.18-.492.18-.495.17-.496.17-.501.16-.503.15-.506.15-.507.14-.51.14-.513.13-.517.12-.517.12-.52.11-.524.1-.524.1-.528.09-.53.09-.531.07-.535.08-.537.06-.539.06-.541.05-.543.05-.546.04-.545.03-.549.02-.553.02-.554.01-.555v-.556-.556l-.01-.555-.02-.555-.02-.552-.03-.549-.04-.545-.05-.546-.05-.543-.06-.541-.06-.54-.08-.537-.07-.534-.09-.531-.09-.531-.1-.527-.1-.524-.11-.524-.12-.52-.12-.518-.13-.516-.14-.514-.14-.509-.15-.507-.15-.506-.16-.504-.17-.5-.17-.497-.18-.495-.18-.492-.19-.489-.19-.486-.21-.483-.2-.48-.21-.477-.22-.474-.22-.47-.24-.47-.23-.465-.24-.461-.25-.459-.25-.454-.25-.451-.26-.449-.27-.446-.27-.442-.28-.438-.28-.435-.29-.43-.29-.427-.3-.424-.3-.42-.31-.417-.31-.411-.32-.409-.32-.405-.33-.399-.33-.398-.34-.394-.34-.387-.34-.385-.35-.38-.36-.376-.36-.372-.36-.367-.37-.363-.37-.359-.37-.355-.38-.349-.39-.345-.39-.34-.39-.337-.4-.333-.4-.326-.4-.321-.41-.317-.41-.312-.42-.308-.42-.302-.42-.298-.43-.294-.43-.287-.43-.282-.44-.277-.44-.272-.45-.267-.45-.262-.45-.255-.46-.252-.45-.246-.47-.239-.46-.235-.47-.23-.47-.223-.47-.219-.48-.213-.48-.205-.48-.201-.49-.196-.49-.189-.49-.184-.5-.178-.49-.171-.5-.166-.51-.161-.5-.154-.51-.147-.51-.142-.51-.135-.52-.13-.52-.123-.52-.117-.52-.11-.53-.105-.52-.097-.53-.092-.53-.084-.54-.079-.53-.071-.54-.065-.54-.059-.55-.052-.55-.045-.54-.038-.55-.031-.55-.025-.55-.017-.56-.011-.56-.004z" fill="#4d4d4d" transform="matrix(.271909 0 0 .271909 430.077 673.729)"/><circle cx="1761.33" cy="898.355" fill="#4d4d4d" r="50.355" transform="matrix(.0738346 0 0 .0738346 778.953 851.67)"/><path d="m1604.52 701h182.479v3h-182.479z" fill="#4d4d4d" transform="matrix(.674317 .674317 -.522422 .522422 132.522 -592.481)"/><g transform="matrix(-.674317 .674317 -.261211 -.261211 2235.98 -41.9786)"><path d="m1604.52 701h182.479v3h-182.479z" fill="url(#comms-c)"/><path d="m1604.52 701h182.479v3h-182.479z" fill="#4d4d4d"/></g><path d="m1604.52 701h182.479v3h-182.479z" fill="#4d4d4d" transform="matrix(-.674317 .674317 -.522422 -.522422 2419.48 141.522)"/></g></g></svg>