<svg clip-rule="evenodd" fill-rule="evenodd" stroke-linecap="round" stroke-linejoin="round" viewBox="0 0 513 512" xmlns="http://www.w3.org/2000/svg" xmlns:xlink="http://www.w3.org/1999/xlink"><radialGradient id="heat-a" cx="0" cy="0" gradientTransform="matrix(3230.94 0 0 143.496 41 373)" gradientUnits="userSpaceOnUse" r="1"><stop offset="0" stop-color="#696969"/><stop offset="1" stop-color="#9f9f9f"/></radialGradient><radialGradient id="heat-b" cx="0" cy="0" gradientTransform="matrix(1851.34 0 0 143.496 41 373)" gradientUnits="userSpaceOnUse" r="1"><stop offset="0" stop-color="#cbcaca"/><stop offset="1" stop-color="#9e9e9e"/></radialGradient><radialGradient id="heat-c" cx="0" cy="0" gradientTransform="matrix(0 -241.503 706.603 0 115 373.256)" gradientUnits="userSpaceOnUse" r="1"><stop offset="0" stop-color="#bebebe"/><stop offset="1" stop-color="#a0a0a0"/></radialGradient><g transform="translate(653.67)"><path d="m-653 0h512v512h-512z" fill="none"/><path d="m5 801.254h254v251.746h-254z" fill="#444" transform="matrix(2.01575 0 0 .980489 -663.079 -652.165)"/><path d="m259 801.254-9.869 18.154v215.442l9.869 18.15z" fill="#2f2f2f" transform="matrix(2.01575 0 0 .980489 -663.079 -652.165)"/><path d="m14.869 819.408-9.869-18.154v251.746l9.869-18.15z" fill="#2f2f2f" transform="matrix(2.01575 0 0 .980489 -663.079 -652.165)"/><path d="m14.869 819.408-9.869-18.154v251.746l9.869-18.15z" fill="#2f2f2f" transform="matrix(2.01575 0 0 .980489 -266.253 -652.165)"/><path d="m5 801.254h254v251.746h-254z" fill="#212121" transform="matrix(.449318 0 0 .980489 -372.547 -652.165)"/><path d="m259 801.254-9.869 18.154v215.442l9.869 18.15z" fill="#2f2f2f" transform="matrix(2.01575 0 0 .980489 -892.379 -652.165)"/><g fill="none" stroke-width="94.23"><path d="m199 142 9 2 9 4 9 6 10 9 9 10 9 12 10 13 9 15 9 17 9 18 10 19 9 20 18 42 10 22 18 44 10 22 18 42 9 20 10 19 9 18 9 17 9 15 10 13 9 12 9 10 10 9 9 6 9 4 9 2h10" stroke="url(#heat-a)" transform="matrix(.05995586948 0 0 .17076640488 -389.33628779 142.3401027)"/><path d="m499.296 604.512 14.704-2.512 9-4 9-6 10-9 9-10 9-12 10-13 9-15 9-17 9-18 10-19 9-20 9-21 9-21 10-22 9-22" stroke="url(#heat-b)" transform="matrix(.05995586948 0 0 .17076640488 -389.33628779 142.3401027)"/><path d="m199 142 9 2 9 4 9 6 10 9 9 10 9 12 10 13 9 15 9 17 9 18 10 19 9 20 18 42 10 22 18 44 10 22 18 42 9 20 10 19 9 18 9 17 9 15 10 13 9 12 9 10 10 9 9 6 9 4 9 2h10" stroke="url(#heat-a)" transform="matrix(.05995586948 0 0 .17076640488 -352.64312144 142.3401027)"/><path d="m499.296 604.512 14.704-2.512 9-4 9-6 10-9 9-10 9-12 10-13 9-15 9-17 9-18 10-19 9-20 9-21 9-21 10-22 9-22" stroke="url(#heat-b)" transform="matrix(.05995586948 0 0 .17076640488 -352.64312144 142.3401027)"/><path d="m41 373 9-22 10-22 9-21 9-21 9-20 10-19 9-18 9-17 9-15 10-13 9-12 9-10 10-9 9-6 9-4 9-2" stroke="url(#heat-c)" transform="matrix(.05995586948 0 0 .17076640488 -352.64312144 142.3401027)"/><path d="m199 142 9 2 9 4 9 6 10 9 9 10 9 12 10 13 9 15 9 17 9 18 10 19 9 20 18 42 10 22 18 44 10 22 18 42 9 20 10 19 9 18 9 17 9 15 10 13 9 12 9 10 10 9 9 6 9 4 9 2h10" stroke="url(#heat-a)" transform="matrix(.05995586948 0 0 .17076640488 -316.04418779 142.3401027)"/><path d="m499.296 604.512 14.704-2.512 9-4 9-6 10-9 9-10 9-12 10-13 9-15 9-17 9-18 10-19 9-20 9-21 9-21 10-22 9-22" stroke="url(#heat-b)" transform="matrix(.05995586948 0 0 .17076640488 -316.04418779 142.3401027)"/><path d="m41 373 9-22 10-22 9-21 9-21 9-20 10-19 9-18 9-17 9-15 10-13 9-12 9-10 10-9 9-6 9-4 9-2" stroke="url(#heat-c)" transform="matrix(.05995586948 0 0 .17076640488 -316.04418779 142.3401027)"/><path d="m199 142 9 2 9 4 9 6 10 9 9 10 9 12 10 13 9 15 9 17 9 18 10 19 9 20 18 42 10 22 18 44 10 22 18 42 9 20 10 19 9 18 9 17 9 15 10 13 9 12 9 10 10 9 9 6 9 4 9 2h10" stroke="url(#heat-a)" transform="matrix(.05995586948 0 0 .17076640488 -279.35102144 142.3401027)"/><path d="m41 373 9-22 10-22 9-21 9-21 9-20 10-19 9-18 9-17 9-15 10-13 9-12 9-10 10-9 9-6 9-4 9-2" stroke="url(#heat-c)" transform="matrix(.05995586948 0 0 .17076640488 -279.35102144 142.3401027)"/><path d="m199 142 9 2 9 4 9 6 10 9 9 10 9 12 10 13 9 15 9 17 9 18 10 19 9 20 18 42 10 22 18 44 10 22 18 42 9 20 10 19 9 18 9 17 9 15 10 13 9 12 9 10 10 9 9 6 9 4 9 2h10" stroke="url(#heat-a)" transform="matrix(.05995586948 0 0 .17076640488 -389.33628779 243.9001027)"/><path d="m499.296 604.512 14.704-2.512 9-4 9-6 10-9 9-10 9-12 10-13 9-15 9-17 9-18 10-19 9-20 9-21 9-21 10-22 9-22" stroke="url(#heat-b)" transform="matrix(.05995586948 0 0 .17076640488 -389.33628779 243.9001027)"/><path d="m199 142 9 2 9 4 9 6 10 9 9 10 9 12 10 13 9 15 9 17 9 18 10 19 9 20 18 42 10 22 18 44 10 22 18 42 9 20 10 19 9 18 9 17 9 15 10 13 9 12 9 10 10 9 9 6 9 4 9 2h10" stroke="url(#heat-a)" transform="matrix(.05995586948 0 0 .17076640488 -352.64312144 243.9001027)"/><path d="m499.296 604.512 14.704-2.512 9-4 9-6 10-9 9-10 9-12 10-13 9-15 9-17 9-18 10-19 9-20 9-21 9-21 10-22 9-22" stroke="url(#heat-b)" transform="matrix(.05995586948 0 0 .17076640488 -352.64312144 243.9001027)"/><path d="m41 373 9-22 10-22 9-21 9-21 9-20 10-19 9-18 9-17 9-15 10-13 9-12 9-10 10-9 9-6 9-4 9-2" stroke="url(#heat-c)" transform="matrix(.05995586948 0 0 .17076640488 -352.64312144 243.9001027)"/><path d="m199 142 9 2 9 4 9 6 10 9 9 10 9 12 10 13 9 15 9 17 9 18 10 19 9 20 18 42 10 22 18 44 10 22 18 42 9 20 10 19 9 18 9 17 9 15 10 13 9 12 9 10 10 9 9 6 9 4 9 2h10" stroke="url(#heat-a)" transform="matrix(.05995586948 0 0 .17076640488 -316.04418779 243.9001027)"/><path d="m499.296 604.512 14.704-2.512 9-4 9-6 10-9 9-10 9-12 10-13 9-15 9-17 9-18 10-19 9-20 9-21 9-21 10-22 9-22" stroke="url(#heat-b)" transform="matrix(.05995586948 0 0 .17076640488 -316.04418779 243.9001027)"/><path d="m41 373 9-22 10-22 9-21 9-21 9-20 10-19 9-18 9-17 9-15 10-13 9-12 9-10 10-9 9-6 9-4 9-2" stroke="url(#heat-c)" transform="matrix(.05995586948 0 0 .17076640488 -316.04418779 243.9001027)"/><path d="m199 142 9 2 9 4 9 6 10 9 9 10 9 12 10 13 9 15 9 17 9 18 10 19 9 20 18 42 10 22 18 44 10 22 18 42 9 20 10 19 9 18 9 17 9 15 10 13 9 12 9 10 10 9 9 6 9 4 9 2h10" stroke="url(#heat-a)" transform="matrix(.05995586948 0 0 .17076640488 -279.35102144 243.9001027)"/><path d="m41 373 9-22 10-22 9-21 9-21 9-20 10-19 9-18 9-17 9-15 10-13 9-12 9-10 10-9 9-6 9-4 9-2" stroke="url(#heat-c)" transform="matrix(.05995586948 0 0 .17076640488 -279.35102144 243.9001027)"/></g><path d="m5 801.254h254v251.746h-254z" fill="#626262" transform="matrix(.956347 0 0 .83908 -637.888 -521.061)"/><g transform="matrix(-1.36364 0 0 -1.36364 -357.559 605.964)"><circle cx="113" cy="256" fill="#62e665" r="11"/><path d="m112.858 266.999-.142-.003-.141-.004-.141-.006-.14-.008-.14-.01-.139-.012-.139-.013-.138-.015-.138-.016-.137-.019-.137-.02-.136-.022-.136-.023-.135-.025-.135-.027-.134-.028-.133-.03-.133-.031-.132-.034-.131-.034-.131-.037-.13-.037-.13-.04-.128-.041-.128-.042-.128-.044-.127-.046-.126-.047-.125-.049-.124-.05-.124-.051-.123-.053-.122-.054-.122-.056-.12-.057-.12-.059-.119-.06-.118-.062-.117-.062-.117-.065-.116-.065-.114-.067-.114-.068-.113-.07-.112-.071-.111-.072-.11-.074-.11-.075-.108-.076-.107-.077-.107-.079-.105-.079-.105-.081-.103-.083-.102-.083-.102-.085-.1-.086-.099-.087-.099-.088-.097-.089-.096-.091-.095-.092-.094-.092-.092-.094-.092-.095-.091-.096-.089-.097-.088-.099-.087-.099-.086-.1-.085-.102-.083-.102-.083-.103-.081-.105-.079-.105-.079-.107-.077-.107-.076-.108-.075-.11-.074-.11-.072-.111-.071-.112-.07-.113-.068-.114-.067-.114-.065-.116-.065-.117-.062-.117-.062-.118-.06-.119-.059-.12-.057-.12-.056-.122-.054-.122-.053-.123-.051-.124-.05-.124-.049-.125-.047-.126-.046-.127-.044-.128-.042-.128-.041-.128-.04-.13-.037-.13-.037-.131-.034-.131-.034-.132-.031-.133-.03-.133-.028-.134-.027-.135-.025-.135-.023-.136-.022-.136-.02-.137-.019-.137-.016-.138-.015-.138-.013-.139-.012-.139-.01-.14-.008-.14-.006-.141-.004-.141-.003-.142-.001-.142.001-.142.003-.142.004-.141.006-.141.008-.14.01-.14.012-.139.013-.139.015-.138.016-.138.019-.137.02-.137.022-.136.023-.136.025-.135.027-.135.028-.134.03-.133.031-.133.034-.132.034-.131.037-.131.037-.13.04-.13.041-.128.042-.128.044-.128.046-.127.047-.126.049-.125.05-.124.051-.124.053-.123.054-.122.056-.122.057-.12.059-.12.06-.119.062-.118.062-.117.065-.117.065-.116.067-.114.068-.114.07-.113.071-.112.072-.111.074-.11.075-.11.076-.108.077-.107.079-.107.079-.105.081-.105.083-.103.083-.102.085-.102.086-.1.087-.099.088-.099.089-.097.091-.096.092-.095.092-.094.094-.092.095-.092.096-.091.097-.089.099-.088.099-.087.1-.086.102-.085.102-.083.103-.083.105-.081.105-.079.107-.079.107-.077.108-.076.11-.075.11-.074.111-.072.112-.071.113-.07.114-.068.114-.067.116-.065.117-.065.117-.062.118-.062.119-.06.12-.059.12-.057.122-.056.122-.054.123-.053.124-.051.124-.05.125-.049.126-.047.127-.046.128-.044.128-.042.128-.041.13-.04.13-.037.131-.037.131-.034.132-.034.133-.031.133-.03.134-.028.135-.027.135-.025.136-.023.136-.022.137-.02.137-.019.138-.016.138-.015.139-.013.139-.012.14-.01.14-.008.141-.006.141-.004.142-.003.142-.001.142.001.142.003.141.004.141.006.14.008.14.01.139.012.139.013.138.015.138.016.137.019.137.02.136.022.136.023.135.025.135.027.134.028.133.03.133.031.132.034.131.034.131.037.13.037.13.04.128.041.128.042.128.044.127.046.126.047.125.049.124.05.124.051.123.053.122.054.122.056.12.057.12.059.119.06.118.062.117.062.117.065.116.065.114.067.114.068.113.07.112.071.111.072.11.074.11.075.108.076.107.077.107.079.105.079.105.081.103.083.102.083.102.085.1.086.099.087.099.088.097.089.096.091.095.092.094.092.092.094.092.095.091.096.089.097.088.099.087.099.086.1.085.102.083.102.083.103.081.105.079.105.079.107.077.107.076.108.075.11.074.11.072.111.071.112.07.113.068.114.067.114.065.116.065.117.062.117.062.118.06.119.059.12.057.12.056.122.054.122.053.123.051.124.05.124.049.125.047.126.046.127.044.128.042.128.041.128.04.13.037.13.037.131.034.131.034.132.031.133.03.133.028.134.027.135.025.135.023.136.022.136.02.137.019.137.016.138.015.138.013.139.012.139.01.14.008.14.006.141.004.141.003.142.001.142-.001.142-.003.142-.004.141-.006.141-.008.14-.01.14-.012.139-.013.139-.015.138-.016.138-.019.137-.02.137-.022.136-.023.136-.025.135-.027.135-.028.134-.03.133-.031.133-.034.132-.034.131-.037.131-.037.13-.04.13-.041.128-.042.128-.044.128-.046.127-.047.126-.049.125-.05.124-.051.124-.053.123-.054.122-.056.122-.057.12-.059.12-.06.119-.062.118-.062.117-.065.117-.065.116-.067.114-.068.114-.07.113-.071.112-.072.111-.074.11-.075.11-.076.108-.077.107-.079.107-.079.105-.081.105-.083.103-.083.102-.085.102-.086.1-.087.099-.088.099-.089.097-.091.096-.092.095-.092.094-.094.092-.095.092-.096.091-.097.089-.099.088-.099.087-.1.086-.102.085-.102.083-.103.083-.105.081-.105.079-.107.079-.107.077-.108.076-.11.075-.11.074-.111.072-.112.071-.113.07-.114.068-.114.067-.116.065-.117.065-.117.062-.118.062-.119.06-.12.059-.12.057-.122.056-.122.054-.123.053-.124.051-.124.05-.125.049-.126.047-.127.046-.128.044-.128.042-.128.041-.13.04-.13.037-.131.037-.131.034-.132.034-.133.031-.133.03-.134.028-.135.027-.135.025-.136.023-.136.022-.137.02-.137.019-.138.016-.138.015-.139.013-.139.012-.14.01-.14.008-.141.006-.141.004-.142.003-.142.001zm.247-2.903.105-.002.105-.003.104-.004.103-.006.103-.008.103-.008.103-.01.101-.011.102-.012.101-.014.1-.014.101-.016.099-.017.099-.019.099-.019.099-.021.097-.022.098-.023.097-.025.096-.025.096-.027.096-.028.095-.029.094-.03.094-.031.094-.032.093-.034.092-.034.092-.036.092-.036.09-.038.091-.039.09-.04.089-.041.089-.042.087-.043.088-.045.087-.045.086-.046.086-.047.085-.048.084-.05.084-.05.083-.051.083-.052.082-.054.081-.054.081-.055.079-.056.079-.057.079-.058.078-.059.077-.06.076-.06.075-.062.075-.062.074-.064.074-.064.072-.065.072-.066.071-.067.07-.068.069-.068.068-.069.068-.07.067-.071.066-.072.065-.073.064-.073.064-.074.062-.074.062-.076.06-.076.06-.077.059-.078.058-.078.057-.08.056-.079.055-.081.054-.081.054-.082.052-.083.051-.083.05-.084.05-.084.048-.085.047-.086.046-.086.046-.087.044-.087.043-.088.042-.089.041-.089.04-.09.039-.091.038-.091.036-.091.036-.092.034-.092.034-.093.032-.094.031-.094.03-.094.029-.095.028-.096.027-.096.025-.096.025-.097.023-.098.022-.097.021-.099.019-.099.019-.099.017-.1.016-.1.014-.1.014-.101.012-.102.011-.102.01-.102.008-.102.008-.104.006-.103.004-.104.003-.105.003-.105v-.105-.105l-.003-.105-.003-.105-.004-.104-.006-.103-.008-.104-.008-.102-.01-.102-.011-.102-.012-.102-.014-.101-.014-.1-.016-.1-.017-.1-.019-.099-.019-.099-.021-.099-.022-.097-.023-.098-.025-.097-.025-.096-.027-.096-.028-.096-.029-.095-.03-.094-.031-.094-.032-.094-.034-.093-.034-.092-.036-.092-.036-.092-.038-.09-.039-.091-.04-.09-.041-.089-.042-.089-.043-.088-.044-.087-.046-.087-.046-.086-.047-.086-.048-.085-.05-.084-.05-.084-.051-.083-.052-.083-.054-.082-.054-.081-.055-.081-.056-.079-.057-.079-.058-.079-.059-.078-.06-.077-.06-.076-.062-.076-.062-.074-.064-.074-.064-.073-.065-.073-.066-.072-.067-.071-.068-.07-.068-.069-.069-.068-.07-.068-.071-.067-.072-.066-.072-.065-.074-.064-.074-.064-.075-.062-.075-.062-.076-.06-.077-.06-.078-.059-.079-.058-.079-.057-.079-.056-.081-.055-.081-.054-.082-.054-.083-.052-.083-.051-.084-.05-.084-.05-.085-.048-.086-.047-.086-.046-.087-.045-.088-.045-.087-.043-.089-.042-.089-.041-.09-.04-.09-.039-.091-.038-.092-.036-.092-.036-.092-.034-.093-.034-.094-.032-.094-.031-.094-.03-.095-.029-.096-.028-.096-.027-.096-.025-.097-.025-.098-.023-.097-.022-.099-.021-.099-.019-.099-.019-.1-.017-.1-.016-.1-.014-.101-.014-.102-.012-.102-.011-.102-.01-.103-.008-.103-.008-.103-.006-.104-.004-.105-.003-.105-.002-.105-.001-.105.001-.105.002-.105.003-.104.004-.103.006-.103.008-.103.008-.102.01-.102.011-.102.012-.101.014-.1.014-.1.016-.1.017-.099.019-.099.019-.099.021-.097.022-.098.023-.097.025-.096.025-.096.027-.096.028-.095.029-.094.03-.094.031-.094.032-.093.034-.092.034-.092.036-.092.036-.091.038-.09.039-.09.04-.089.041-.089.042-.087.043-.088.045-.087.045-.086.046-.086.047-.085.048-.084.05-.084.05-.083.051-.083.052-.082.054-.081.054-.081.055-.079.056-.079.057-.079.058-.078.059-.077.06-.076.06-.075.062-.075.062-.074.064-.074.064-.072.065-.072.066-.071.067-.07.068-.069.068-.068.069-.068.07-.067.071-.066.072-.065.073-.064.073-.064.074-.062.074-.062.076-.06.076-.06.077-.059.078-.058.079-.057.079-.056.079-.055.081-.054.081-.054.082-.052.083-.051.083-.05.084-.05.084-.048.085-.047.086-.046.086-.046.087-.044.087-.043.088-.042.089-.041.089-.04.09-.039.091-.038.09-.036.092-.036.092-.034.092-.034.093-.032.094-.031.094-.03.094-.029.095-.028.096-.027.096-.025.096-.025.097-.023.098-.022.097-.021.099-.019.099-.019.099-.017.1-.016.1-.014.1-.014.101-.012.102-.011.102-.01.102-.008.102-.008.104-.006.103-.004.104-.003.105-.003.105v.105.105l.003.105.003.105.004.104.006.103.008.104.008.102.01.102.011.102.012.102.014.101.014.1.016.1.017.1.019.099.019.099.021.099.022.097.023.098.025.097.025.096.027.096.028.096.029.095.03.094.031.094.032.094.034.093.034.092.036.092.036.091.038.091.039.091.04.09.041.089.042.089.043.088.044.087.046.087.046.086.047.086.048.085.05.084.05.084.051.083.052.083.054.082.054.081.055.081.056.079.057.08.058.078.059.078.06.077.06.076.062.076.062.074.064.074.064.073.065.073.066.072.067.071.068.07.068.069.069.068.07.068.071.067.072.066.072.065.074.064.074.064.075.062.075.062.076.06.077.06.078.059.079.058.079.057.079.056.081.055.081.054.082.054.083.052.083.051.084.05.084.05.085.048.086.047.086.046.087.045.088.045.087.043.089.042.089.041.09.04.091.039.09.038.092.036.092.036.092.034.093.034.094.032.094.031.094.03.095.029.096.028.096.027.096.025.097.025.098.023.097.022.099.021.099.019.099.019.099.017.101.016.1.014.101.014.102.012.101.011.103.01.103.008.103.008.103.006.104.004.105.003.105.002.105.001z" fill="#818181"/></g><g transform="matrix(-1.36364 0 0 -1.36364 -276.938 605.964)"><circle cx="113" cy="256" fill="#62e665" r="11"/><path d="m112.858 266.999-.142-.003-.141-.004-.141-.006-.14-.008-.14-.01-.139-.012-.139-.013-.138-.015-.138-.016-.137-.019-.137-.02-.136-.022-.136-.023-.135-.025-.135-.027-.134-.028-.133-.03-.133-.031-.132-.034-.131-.034-.131-.037-.13-.037-.13-.04-.128-.041-.128-.042-.128-.044-.127-.046-.126-.047-.125-.049-.124-.05-.124-.051-.123-.053-.122-.054-.122-.056-.12-.057-.12-.059-.119-.06-.118-.062-.117-.062-.117-.065-.116-.065-.114-.067-.114-.068-.113-.07-.112-.071-.111-.072-.11-.074-.11-.075-.108-.076-.107-.077-.107-.079-.105-.079-.105-.081-.103-.083-.102-.083-.102-.085-.1-.086-.099-.087-.099-.088-.097-.089-.096-.091-.095-.092-.094-.092-.092-.094-.092-.095-.091-.096-.089-.097-.088-.099-.087-.099-.086-.1-.085-.102-.083-.102-.083-.103-.081-.105-.079-.105-.079-.107-.077-.107-.076-.108-.075-.11-.074-.11-.072-.111-.071-.112-.07-.113-.068-.114-.067-.114-.065-.116-.065-.117-.062-.117-.062-.118-.06-.119-.059-.12-.057-.12-.056-.122-.054-.122-.053-.123-.051-.124-.05-.124-.049-.125-.047-.126-.046-.127-.044-.128-.042-.128-.041-.128-.04-.13-.037-.13-.037-.131-.034-.131-.034-.132-.031-.133-.03-.133-.028-.134-.027-.135-.025-.135-.023-.136-.022-.136-.02-.137-.019-.137-.016-.138-.015-.138-.013-.139-.012-.139-.01-.14-.008-.14-.006-.141-.004-.141-.003-.142-.001-.142.001-.142.003-.142.004-.141.006-.141.008-.14.01-.14.012-.139.013-.139.015-.138.016-.138.019-.137.02-.137.022-.136.023-.136.025-.135.027-.135.028-.134.03-.133.031-.133.034-.132.034-.131.037-.131.037-.13.04-.13.041-.128.042-.128.044-.128.046-.127.047-.126.049-.125.05-.124.051-.124.053-.123.054-.122.056-.122.057-.12.059-.12.06-.119.062-.118.062-.117.065-.117.065-.116.067-.114.068-.114.07-.113.071-.112.072-.111.074-.11.075-.11.076-.108.077-.107.079-.107.079-.105.081-.105.083-.103.083-.102.085-.102.086-.1.087-.099.088-.099.089-.097.091-.096.092-.095.092-.094.094-.092.095-.092.096-.091.097-.089.099-.088.099-.087.1-.086.102-.085.102-.083.103-.083.105-.081.105-.079.107-.079.107-.077.108-.076.11-.075.11-.074.111-.072.112-.071.113-.07.114-.068.114-.067.116-.065.117-.065.117-.062.118-.062.119-.06.12-.059.12-.057.122-.056.122-.054.123-.053.124-.051.124-.05.125-.049.126-.047.127-.046.128-.044.128-.042.128-.041.13-.04.13-.037.131-.037.131-.034.132-.034.133-.031.133-.03.134-.028.135-.027.135-.025.136-.023.136-.022.137-.02.137-.019.138-.016.138-.015.139-.013.139-.012.14-.01.14-.008.141-.006.141-.004.142-.003.142-.001.142.001.142.003.141.004.141.006.14.008.14.01.139.012.139.013.138.015.138.016.137.019.137.02.136.022.136.023.135.025.135.027.134.028.133.03.133.031.132.034.131.034.131.037.13.037.13.04.128.041.128.042.128.044.127.046.126.047.125.049.124.05.124.051.123.053.122.054.122.056.12.057.12.059.119.06.118.062.117.062.117.065.116.065.114.067.114.068.113.07.112.071.111.072.11.074.11.075.108.076.107.077.107.079.105.079.105.081.103.083.102.083.102.085.1.086.099.087.099.088.097.089.096.091.095.092.094.092.092.094.092.095.091.096.089.097.088.099.087.099.086.1.085.102.083.102.083.103.081.105.079.105.079.107.077.107.076.108.075.11.074.11.072.111.071.112.07.113.068.114.067.114.065.116.065.117.062.117.062.118.06.119.059.12.057.12.056.122.054.122.053.123.051.124.05.124.049.125.047.126.046.127.044.128.042.128.041.128.04.13.037.13.037.131.034.131.034.132.031.133.03.133.028.134.027.135.025.135.023.136.022.136.02.137.019.137.016.138.015.138.013.139.012.139.01.14.008.14.006.141.004.141.003.142.001.142-.001.142-.003.142-.004.141-.006.141-.008.14-.01.14-.012.139-.013.139-.015.138-.016.138-.019.137-.02.137-.022.136-.023.136-.025.135-.027.135-.028.134-.03.133-.031.133-.034.132-.034.131-.037.131-.037.13-.04.13-.041.128-.042.128-.044.128-.046.127-.047.126-.049.125-.05.124-.051.124-.053.123-.054.122-.056.122-.057.12-.059.12-.06.119-.062.118-.062.117-.065.117-.065.116-.067.114-.068.114-.07.113-.071.112-.072.111-.074.11-.075.11-.076.108-.077.107-.079.107-.079.105-.081.105-.083.103-.083.102-.085.102-.086.1-.087.099-.088.099-.089.097-.091.096-.092.095-.092.094-.094.092-.095.092-.096.091-.097.089-.099.088-.099.087-.1.086-.102.085-.102.083-.103.083-.105.081-.105.079-.107.079-.107.077-.108.076-.11.075-.11.074-.111.072-.112.071-.113.07-.114.068-.114.067-.116.065-.117.065-.117.062-.118.062-.119.06-.12.059-.12.057-.122.056-.122.054-.123.053-.124.051-.124.05-.125.049-.126.047-.127.046-.128.044-.128.042-.128.041-.13.04-.13.037-.131.037-.131.034-.132.034-.133.031-.133.03-.134.028-.135.027-.135.025-.136.023-.136.022-.137.02-.137.019-.138.016-.138.015-.139.013-.139.012-.14.01-.14.008-.141.006-.141.004-.142.003-.142.001zm.247-2.903.105-.002.105-.003.104-.004.103-.006.103-.008.103-.008.102-.01.102-.011.101-.012.102-.014.1-.014.101-.016.099-.017.099-.019.099-.019.098-.021.099-.022.097-.023.097-.025.096-.025.096-.027.096-.028.095-.028.094-.031.094-.031.094-.032.093-.034.092-.034.092-.036.091-.036.092-.038.09-.039.09-.04.089-.041.089-.042.087-.043.088-.045.087-.045.086-.046.086-.047.085-.049.084-.049.084-.05.084-.051.082-.053.082-.053.081-.054.081-.055.079-.056.079-.057.079-.058.078-.059.077-.06.076-.06.076-.062.074-.062.074-.064.074-.064.072-.065.072-.066.071-.067.07-.067.069-.069.068-.069.068-.07.067-.071.066-.072.065-.073.065-.073.063-.074.062-.074.062-.076.06-.076.06-.077.059-.078.058-.078.057-.08.056-.08.055-.08.054-.081.054-.082.052-.082.051-.084.05-.084.05-.084.048-.085.047-.086.046-.086.046-.087.044-.087.043-.088.042-.089.041-.089.04-.09.039-.091.038-.09.036-.092.036-.092.035-.092.033-.093.032-.094.032-.094.029-.094.029-.095.028-.096.027-.096.025-.096.025-.097.023-.098.022-.097.021-.099.019-.099.019-.099.017-.1.016-.099.014-.101.014-.102.012-.101.011-.102.01-.102.008-.102.008-.104.006-.104.004-.103.004-.105.002-.105v-.105-.105l-.002-.105-.004-.105-.004-.103-.006-.104-.008-.104-.008-.102-.01-.102-.011-.102-.012-.101-.014-.102-.014-.101-.016-.099-.017-.1-.019-.099-.019-.099-.021-.099-.022-.097-.023-.098-.025-.097-.025-.096-.027-.096-.028-.096-.029-.095-.029-.094-.032-.094-.032-.094-.033-.093-.035-.092-.036-.092-.037-.092-.037-.09-.039-.091-.04-.09-.041-.089-.042-.089-.043-.088-.044-.087-.046-.087-.046-.086-.047-.086-.048-.085-.05-.084-.05-.084-.051-.084-.052-.082-.054-.082-.054-.081-.055-.08-.056-.08-.057-.079-.058-.079-.059-.078-.06-.077-.06-.076-.062-.076-.062-.074-.063-.074-.065-.073-.065-.073-.066-.072-.067-.071-.068-.07-.068-.069-.069-.069-.07-.067-.071-.067-.072-.066-.072-.065-.074-.064-.074-.064-.074-.062-.076-.062-.076-.06-.077-.06-.078-.059-.078-.058-.08-.057-.079-.056-.081-.055-.081-.055-.082-.052-.082-.053-.084-.051-.084-.05-.084-.049-.085-.049-.086-.047-.086-.046-.087-.045-.088-.045-.087-.043-.089-.042-.09-.041-.089-.04-.09-.039-.092-.038-.091-.036-.092-.036-.092-.034-.093-.034-.093-.032-.095-.031-.094-.031-.095-.028-.096-.028-.096-.027-.096-.025-.097-.025-.097-.023-.099-.022-.098-.021-.099-.019-.099-.019-.1-.017-.1-.016-.1-.014-.101-.014-.102-.012-.102-.011-.102-.01-.103-.008-.103-.008-.103-.006-.104-.004-.105-.003-.105-.002-.105-.001-.105.001-.105.002-.105.003-.103.004-.104.006-.103.008-.103.008-.102.01-.102.011-.102.012-.101.014-.1.014-.1.016-.1.017-.099.019-.099.019-.099.021-.098.022-.097.023-.097.025-.096.025-.096.027-.096.028-.095.029-.094.03-.094.031-.094.032-.093.034-.092.034-.092.036-.091.036-.092.038-.09.039-.089.04-.09.041-.089.042-.088.043-.087.044-.087.046-.086.046-.086.047-.085.049-.085.049-.083.05-.083.051-.083.052-.082.054-.081.054-.08.055-.08.056-.08.057-.078.058-.078.059-.077.06-.076.06-.076.062-.074.062-.074.064-.074.064-.072.065-.072.066-.071.067-.07.067-.069.069-.069.069-.067.07-.067.071-.066.072-.065.073-.064.073-.064.074-.062.074-.062.076-.06.076-.06.077-.059.078-.058.079-.057.079-.056.08-.055.08-.054.081-.054.082-.052.083-.051.083-.05.083-.049.085-.049.085-.047.086-.046.086-.046.087-.044.087-.043.088-.042.089-.041.089-.04.09-.039.091-.037.09-.037.092-.036.092-.035.092-.033.093-.032.094-.031.094-.03.094-.029.095-.028.096-.027.096-.025.096-.025.097-.023.098-.022.097-.021.099-.019.099-.019.099-.017.1-.016.1-.015.101-.013.1-.012.101-.011.103-.01.102-.008.102-.008.104-.006.104-.004.103-.004.105-.001.105-.001.105.001.105.001.105.004.105.004.103.006.104.008.104.008.102.01.102.011.103.012.101.013.1.015.101.016.1.017.1.019.099.019.099.021.099.022.097.023.098.025.097.025.096.027.096.028.096.029.095.03.094.031.094.032.094.033.093.035.092.036.092.036.092.038.09.039.091.04.09.041.089.042.089.043.088.044.087.046.087.046.086.047.086.049.085.049.085.05.083.051.083.052.083.054.082.054.081.055.08.056.08.057.08.058.078.059.078.06.077.06.076.062.076.062.074.064.074.064.073.065.073.066.072.067.071.067.07.069.069.069.069.07.067.071.067.072.066.072.065.074.064.074.064.074.062.076.062.076.06.077.06.078.059.079.058.079.057.08.056.08.055.081.054.082.054.083.052.083.051.083.05.085.049.085.049.086.047.086.046.087.046.087.044.088.043.089.042.089.041.09.04.09.039.092.038.091.036.092.036.092.034.093.034.094.032.094.031.094.03.095.029.096.028.096.027.096.025.097.025.097.023.098.022.099.021.099.019.099.019.099.017.101.016.1.014.101.014.102.012.102.011.102.01.103.008.103.008.104.006.103.004.105.003.105.002.105.001z" fill="#818181"/></g><g transform="matrix(-1.36364 0 0 -1.36364 -438.181 605.964)"><circle cx="113" cy="256" fill="#62e665" r="11"/><path d="m112.858 266.999-.142-.003-.141-.004-.141-.006-.14-.008-.14-.01-.139-.012-.139-.013-.138-.015-.138-.016-.137-.019-.137-.02-.136-.022-.136-.023-.135-.025-.135-.027-.134-.028-.133-.03-.133-.031-.132-.034-.131-.034-.131-.037-.13-.037-.13-.04-.128-.041-.128-.042-.128-.044-.127-.046-.126-.047-.125-.049-.124-.05-.124-.051-.123-.053-.122-.054-.122-.056-.12-.057-.12-.059-.119-.06-.118-.062-.117-.062-.117-.065-.116-.065-.114-.067-.114-.068-.113-.07-.112-.071-.111-.072-.11-.074-.11-.075-.108-.076-.107-.077-.107-.079-.105-.079-.105-.081-.103-.083-.102-.083-.102-.085-.1-.086-.099-.087-.099-.088-.097-.089-.096-.091-.095-.092-.094-.092-.092-.094-.092-.095-.091-.096-.089-.097-.088-.099-.087-.099-.086-.1-.085-.102-.083-.102-.083-.103-.081-.105-.079-.105-.079-.107-.077-.107-.076-.108-.075-.11-.074-.11-.072-.111-.071-.112-.07-.113-.068-.114-.067-.114-.065-.116-.065-.117-.062-.117-.062-.118-.06-.119-.059-.12-.057-.12-.056-.122-.054-.122-.053-.123-.051-.124-.05-.124-.049-.125-.047-.126-.046-.127-.044-.128-.042-.128-.041-.128-.04-.13-.037-.13-.037-.131-.034-.131-.034-.132-.031-.133-.03-.133-.028-.134-.027-.135-.025-.135-.023-.136-.022-.136-.02-.137-.019-.137-.016-.138-.015-.138-.013-.139-.012-.139-.01-.14-.008-.14-.006-.141-.004-.141-.003-.142-.001-.142.001-.142.003-.142.004-.141.006-.141.008-.14.01-.14.012-.139.013-.139.015-.138.016-.138.019-.137.02-.137.022-.136.023-.136.025-.135.027-.135.028-.134.03-.133.031-.133.034-.132.034-.131.037-.131.037-.13.04-.13.041-.128.042-.128.044-.128.046-.127.047-.126.049-.125.05-.124.051-.124.053-.123.054-.122.056-.122.057-.12.059-.12.06-.119.062-.118.062-.117.065-.117.065-.116.067-.114.068-.114.07-.113.071-.112.072-.111.074-.11.075-.11.076-.108.077-.107.079-.107.079-.105.081-.105.083-.103.083-.102.085-.102.086-.1.087-.099.088-.099.089-.097.091-.096.092-.095.092-.094.094-.092.095-.092.096-.091.097-.089.099-.088.099-.087.1-.086.102-.085.102-.083.103-.083.105-.081.105-.079.107-.079.107-.077.108-.076.11-.075.11-.074.111-.072.112-.071.113-.07.114-.068.114-.067.116-.065.117-.065.117-.062.118-.062.119-.06.12-.059.12-.057.122-.056.122-.054.123-.053.124-.051.124-.05.125-.049.126-.047.127-.046.128-.044.128-.042.128-.041.13-.04.13-.037.131-.037.131-.034.132-.034.133-.031.133-.03.134-.028.135-.027.135-.025.136-.023.136-.022.137-.02.137-.019.138-.016.138-.015.139-.013.139-.012.14-.01.14-.008.141-.006.141-.004.142-.003.142-.001.142.001.142.003.141.004.141.006.14.008.14.01.139.012.139.013.138.015.138.016.137.019.137.02.136.022.136.023.135.025.135.027.134.028.133.03.133.031.132.034.131.034.131.037.13.037.13.04.128.041.128.042.128.044.127.046.126.047.125.049.124.05.124.051.123.053.122.054.122.056.12.057.12.059.119.06.118.062.117.062.117.065.116.065.114.067.114.068.113.07.112.071.111.072.11.074.11.075.108.076.107.077.107.079.105.079.105.081.103.083.102.083.102.085.1.086.099.087.099.088.097.089.096.091.095.092.094.092.092.094.092.095.091.096.089.097.088.099.087.099.086.1.085.102.083.102.083.103.081.105.079.105.079.107.077.107.076.108.075.11.074.11.072.111.071.112.07.113.068.114.067.114.065.116.065.117.062.117.062.118.06.119.059.12.057.12.056.122.054.122.053.123.051.124.05.124.049.125.047.126.046.127.044.128.042.128.041.128.04.13.037.13.037.131.034.131.034.132.031.133.03.133.028.134.027.135.025.135.023.136.022.136.02.137.019.137.016.138.015.138.013.139.012.139.01.14.008.14.006.141.004.141.003.142.001.142-.001.142-.003.142-.004.141-.006.141-.008.14-.01.14-.012.139-.013.139-.015.138-.016.138-.019.137-.02.137-.022.136-.023.136-.025.135-.027.135-.028.134-.03.133-.031.133-.034.132-.034.131-.037.131-.037.13-.04.13-.041.128-.042.128-.044.128-.046.127-.047.126-.049.125-.05.124-.051.124-.053.123-.054.122-.056.122-.057.12-.059.12-.06.119-.062.118-.062.117-.065.117-.065.116-.067.114-.068.114-.07.113-.071.112-.072.111-.074.11-.075.11-.076.108-.077.107-.079.107-.079.105-.081.105-.083.103-.083.102-.085.102-.086.1-.087.099-.088.099-.089.097-.091.096-.092.095-.092.094-.094.092-.095.092-.096.091-.097.089-.099.088-.099.087-.1.086-.102.085-.102.083-.103.083-.105.081-.105.079-.107.079-.107.077-.108.076-.11.075-.11.074-.111.072-.112.071-.113.07-.114.068-.114.067-.116.065-.117.065-.117.062-.118.062-.119.06-.12.059-.12.057-.122.056-.122.054-.123.053-.124.051-.124.05-.125.049-.126.047-.127.046-.128.044-.128.042-.128.041-.13.04-.13.037-.131.037-.131.034-.132.034-.133.031-.133.03-.134.028-.135.027-.135.025-.136.023-.136.022-.137.02-.137.019-.138.016-.138.015-.139.013-.139.012-.14.01-.14.008-.141.006-.141.004-.142.003-.142.001zm.247-2.903.105-.002.105-.003.104-.004.103-.006.103-.008.103-.008.102-.01.102-.011.102-.012.101-.014.1-.014.101-.016.099-.017.099-.019.099-.019.099-.021.097-.022.098-.023.097-.025.096-.025.096-.027.096-.028.095-.029.094-.03.094-.031.094-.032.093-.034.092-.034.092-.036.092-.036.09-.038.091-.039.09-.04.089-.041.089-.042.088-.043.087-.045.087-.045.086-.046.086-.047.085-.048.084-.05.084-.05.083-.051.083-.052.082-.054.081-.054.081-.055.079-.056.079-.057.079-.058.078-.059.077-.06.076-.06.076-.062.074-.062.074-.064.074-.064.072-.065.072-.066.071-.067.07-.068.069-.068.068-.069.068-.07.067-.071.066-.072.065-.073.064-.073.064-.074.062-.074.062-.076.06-.076.06-.077.059-.078.058-.078.057-.08.056-.079.055-.081.054-.081.053-.082.053-.082.051-.084.05-.084.05-.084.048-.085.047-.086.046-.086.046-.087.044-.087.043-.088.042-.089.041-.089.04-.09.039-.091.038-.091.036-.091.036-.092.034-.092.034-.093.032-.094.031-.094.03-.094.029-.095.028-.096.027-.096.025-.096.025-.097.023-.098.022-.097.021-.099.019-.099.019-.099.017-.1.016-.1.014-.1.014-.101.012-.102.011-.102.01-.102.008-.102.008-.104.006-.103.004-.104.003-.105.003-.105v-.105-.105l-.003-.105-.003-.105-.004-.104-.006-.103-.008-.104-.008-.102-.01-.102-.011-.102-.012-.102-.014-.101-.014-.1-.016-.1-.017-.1-.019-.099-.019-.099-.021-.099-.022-.097-.023-.098-.025-.097-.025-.096-.027-.096-.028-.096-.029-.095-.03-.094-.031-.094-.032-.094-.034-.093-.034-.092-.036-.092-.036-.092-.038-.09-.039-.091-.04-.09-.041-.089-.042-.089-.043-.088-.044-.087-.046-.087-.046-.086-.047-.086-.048-.085-.05-.084-.05-.084-.051-.084-.053-.082-.053-.082-.054-.081-.055-.081-.056-.079-.057-.079-.058-.079-.059-.078-.06-.077-.06-.076-.062-.076-.062-.074-.064-.074-.064-.073-.065-.073-.066-.072-.067-.071-.068-.07-.068-.069-.069-.068-.07-.068-.071-.067-.072-.066-.072-.065-.074-.064-.074-.064-.074-.062-.076-.062-.076-.06-.077-.06-.078-.059-.079-.058-.079-.057-.079-.056-.081-.055-.081-.054-.082-.054-.083-.052-.083-.051-.084-.05-.084-.05-.085-.048-.086-.047-.086-.046-.087-.045-.087-.045-.088-.043-.089-.042-.089-.041-.09-.04-.09-.039-.091-.038-.092-.036-.092-.036-.092-.034-.093-.034-.094-.032-.094-.031-.094-.03-.095-.029-.096-.028-.096-.027-.096-.025-.097-.025-.098-.023-.097-.022-.099-.021-.099-.019-.099-.019-.1-.017-.1-.016-.1-.014-.101-.014-.102-.012-.102-.011-.102-.01-.103-.008-.103-.008-.103-.006-.104-.004-.105-.003-.105-.002-.105-.001-.105.001-.105.002-.105.003-.104.004-.103.006-.103.008-.103.008-.102.01-.102.011-.102.012-.101.014-.1.014-.1.016-.1.017-.099.019-.099.019-.099.021-.097.022-.098.023-.097.025-.096.025-.096.027-.096.028-.095.029-.094.03-.094.031-.094.032-.093.034-.092.034-.092.036-.092.036-.091.038-.09.039-.09.04-.089.041-.089.042-.087.043-.088.045-.087.045-.086.046-.086.047-.085.048-.084.05-.084.05-.083.051-.083.052-.082.054-.081.054-.08.055-.08.056-.08.057-.078.058-.078.059-.077.06-.076.06-.075.062-.075.062-.074.064-.074.064-.072.065-.072.066-.071.067-.07.068-.069.068-.068.069-.068.07-.067.071-.066.072-.065.073-.064.073-.064.074-.062.074-.062.076-.06.076-.06.077-.059.078-.058.079-.057.079-.056.079-.055.081-.054.081-.054.082-.052.083-.051.083-.05.084-.05.084-.048.085-.047.086-.046.086-.046.087-.044.087-.043.088-.042.089-.041.089-.04.09-.039.091-.038.09-.036.092-.036.092-.034.092-.034.093-.032.094-.031.094-.03.094-.029.095-.028.096-.027.096-.025.096-.025.097-.023.098-.022.097-.021.099-.019.099-.019.099-.017.1-.016.1-.014.1-.014.101-.012.102-.011.101-.01.103-.008.103-.008.103-.006.103-.004.104-.003.105-.003.105v.105.105l.003.105.003.105.004.104.006.103.008.103.008.103.01.103.011.101.012.102.014.101.014.1.016.1.017.1.019.099.019.099.021.099.022.097.023.098.025.097.025.096.027.096.028.096.029.095.03.094.031.094.032.094.034.093.034.092.036.092.036.091.038.091.039.091.04.09.041.089.042.089.043.088.044.087.046.087.046.086.047.086.048.085.05.084.05.084.051.083.052.083.054.082.054.081.055.081.056.079.057.079.058.079.059.078.06.077.06.076.062.076.062.074.064.074.064.073.065.073.066.072.067.071.068.07.068.069.069.068.07.068.071.067.072.066.072.065.074.064.074.064.075.062.075.062.076.06.077.06.078.059.079.058.079.057.08.056.08.055.081.054.082.054.083.052.083.051.084.05.084.05.085.048.086.047.086.046.087.045.088.045.087.043.089.042.089.041.09.04.091.039.09.038.092.036.092.036.092.034.093.034.094.032.094.031.094.03.095.029.096.028.096.027.096.025.097.025.098.023.097.022.099.021.099.019.099.019.099.017.101.016.1.014.101.014.102.012.101.011.103.01.103.008.103.008.103.006.104.004.105.003.105.002.105.001z" fill="#818181"/></g><path d="m5 801.254h254v251.746h-254z" fill="#626262" transform="matrix(.296797 0 0 .83908 -237.764 -521.061)"/><g transform="matrix(.516342 0 0 .516342 -332.32 -207.061)"><path d="m281 774c0-12.142-9.858-22-22-22s-22 9.858-22 22v249c0 12.14 9.858 22 22 22s22-9.86 22-22z" fill="#e6991d"/><path d="m259.284 752.002.283.005.283.009.281.013.281.016.28.019.278.023.278.027.277.03.275.033.275.037.274.04.272.043.271.047.27.05.269.053.268.057.267.06.265.063.264.066.263.07.262.072.26.076.259.079.258.082.256.085.255.088.253.091.252.094.25.097.249.1.248.103.246.106.244.109.243.111.241.115.24.117.238.12.236.123.235.126.233.128.231.132.229.133.228.137.226.139.224.142.222.144.221.147.218.15.217.152.215.155.212.157.211.16.209.162.207.164.205.167.202.17.201.171.199.175.196.176.194.179.193.181.19.183.187.186.186.187.183.19.181.193.179.194.176.196.175.199.171.201.17.202.167.205.164.207.162.209.16.211.157.212.155.215.152.217.15.218.147.221.144.222.142.224.139.226.137.228.133.229.132.231.128.233.126.235.123.236.12.238.117.24.115.241.111.243.109.244.106.246.103.248.1.249.097.25.094.252.091.253.088.255.085.256.082.258.079.259.076.26.072.262.07.263.066.264.063.265.06.267.057.268.053.269.05.27.047.271.043.272.04.274.037.275.033.275.03.277.027.278.023.278.019.28.016.281.013.281.009.283.005.283.002.284v249l-.002.28-.005.29-.009.28-.013.28-.016.28-.019.28-.023.28-.027.28-.03.28-.033.27-.037.28-.04.27-.043.27-.047.27-.05.27-.053.27-.057.27-.06.27-.063.26-.066.27-.07.26-.072.26-.076.26-.079.26-.082.26-.085.25-.088.26-.091.25-.094.25-.097.25-.1.25-.103.25-.106.25-.109.24-.111.24-.115.24-.117.24-.12.24-.123.24-.126.23-.128.24-.132.23-.133.23-.137.22-.139.23-.142.22-.144.23-.147.22-.15.22-.152.21-.155.22-.157.21-.16.21-.162.21-.164.21-.167.2-.17.2-.171.2-.175.2-.176.2-.179.19-.181.2-.183.19-.186.18-.187.19-.19.18-.193.18-.194.18-.196.18-.199.17-.201.17-.202.17-.205.17-.207.17-.209.16-.211.16-.212.15-.215.16-.217.15-.218.15-.221.15-.222.14-.224.14-.226.14-.228.14-.229.13-.231.13-.233.13-.235.13-.236.12-.238.12-.24.12-.241.11-.243.12-.244.1-.246.11-.248.1-.249.1-.25.1-.252.09-.253.1-.255.08-.256.09-.258.08-.259.08-.26.07-.262.08-.263.07-.264.06-.265.07-.267.06-.268.05-.269.06-.27.05-.271.04-.272.05-.274.04-.275.03-.275.04-.277.03-.278.02-.278.03-.28.01-.281.02-.281.01-.283.01-.283.01h-.284-.284l-.283-.01-.283-.01-.281-.01-.281-.02-.28-.01-.278-.03-.278-.02-.277-.03-.275-.04-.275-.03-.274-.04-.272-.05-.271-.04-.27-.05-.269-.06-.268-.05-.267-.06-.265-.07-.264-.06-.263-.07-.262-.08-.26-.07-.259-.08-.258-.08-.256-.09-.255-.08-.253-.1-.252-.09-.25-.1-.249-.1-.248-.1-.246-.11-.244-.1-.243-.12-.241-.11-.24-.12-.238-.12-.236-.12-.235-.13-.233-.13-.231-.13-.229-.13-.228-.14-.226-.14-.224-.14-.222-.14-.221-.15-.218-.15-.217-.15-.215-.16-.212-.15-.211-.16-.209-.16-.207-.17-.205-.17-.202-.17-.201-.17-.199-.17-.196-.18-.194-.18-.193-.18-.19-.18-.187-.19-.186-.18-.183-.19-.181-.2-.179-.19-.176-.2-.175-.2-.171-.2-.17-.2-.167-.2-.164-.21-.162-.21-.16-.21-.157-.21-.155-.22-.152-.21-.15-.22-.147-.22-.144-.23-.142-.22-.139-.23-.137-.22-.133-.23-.132-.23-.128-.24-.126-.23-.123-.24-.12-.24-.117-.24-.115-.24-.111-.24-.109-.24-.106-.25-.103-.25-.1-.25-.097-.25-.094-.25-.091-.25-.088-.26-.085-.25-.082-.26-.079-.26-.076-.26-.072-.26-.07-.26-.066-.27-.063-.26-.06-.27-.057-.27-.053-.27-.05-.27-.047-.27-.043-.27-.04-.27-.037-.28-.033-.27-.03-.28-.027-.28-.023-.28-.019-.28-.016-.28-.013-.28-.009-.28-.005-.29-.002-.28v-249l.002-.284.005-.283.009-.283.013-.281.016-.281.019-.28.023-.278.027-.278.03-.277.033-.275.037-.275.04-.274.043-.272.047-.271.05-.27.053-.269.057-.268.06-.267.063-.265.066-.264.07-.263.072-.262.076-.26.079-.259.082-.258.085-.256.088-.255.091-.253.094-.252.097-.25.1-.249.103-.248.106-.246.109-.244.111-.243.115-.241.117-.24.12-.238.123-.236.126-.235.128-.233.132-.231.133-.229.137-.228.139-.226.142-.224.144-.222.147-.221.15-.218.152-.217.155-.215.157-.212.16-.211.162-.209.164-.207.167-.205.17-.202.171-.201.175-.199.176-.196.179-.194.181-.193.183-.19.186-.187.187-.186.19-.183.193-.181.194-.179.196-.176.199-.175.201-.171.202-.17.205-.167.207-.164.209-.162.211-.16.212-.157.215-.155.217-.152.218-.15.221-.147.222-.144.224-.142.226-.139.228-.137.229-.133.231-.132.233-.128.235-.126.236-.123.238-.12.24-.117.241-.115.243-.111.244-.109.246-.106.248-.103.249-.1.25-.097.252-.094.253-.091.255-.088.256-.085.258-.082.259-.079.26-.076.262-.072.263-.07.264-.066.265-.063.267-.06.268-.057.269-.053.27-.05.271-.047.272-.043.274-.04.275-.037.275-.033.277-.03.278-.027.278-.023.28-.019.281-.016.281-.013.283-.009.283-.005.284-.002zm-.462 8.333-.178.003-.177.006-.176.007-.175.01-.175.013-.173.014-.173.016-.172.019-.171.021-.171.023-.17.024-.168.027-.168.029-.167.031-.166.033-.167.035-.165.037-.164.039-.163.041-.162.043-.162.045-.161.047-.159.048-.161.051-.159.053-.156.054-.156.056-.155.058-.157.061-.154.062-.153.064-.152.065-.15.067-.152.07-.15.071-.147.072-.148.075-.148.076-.144.077-.144.08-.145.082-.143.084-.139.083-.141.087-.14.089-.139.09-.137.092-.136.092-.134.094-.135.098-.133.098-.13.098-.129.1-.13.104-.129.105-.125.105-.125.107-.125.109-.122.109-.12.112-.12.113-.119.114-.118.117-.117.118-.113.117-.113.12-.11.12-.111.123-.109.125-.107.124-.107.128-.104.128-.101.127-.102.131-.099.131-.097.132-.098.136-.094.133-.092.134-.092.139-.091.14-.088.139-.087.141-.084.139-.082.141-.082.146-.081.147-.079.146-.073.141-.075.149-.074.15-.071.149-.069.151-.067.152-.066.153-.064.152-.061.153-.06.155-.057.153-.057.158-.056.162-.053.158-.049.155-.049.161-.047.162-.044.159-.044.165-.041.166-.039.161-.036.163-.035.167-.034.168-.031.167-.029.168-.027.169-.025.171-.022.169-.021.17-.019.172-.016.173-.014.175-.012.173-.011.177-.007.176-.006.177-.003.175-.002.203v248.957l.002.2.003.18.006.17.007.18.011.17.012.18.014.17.016.18.019.17.021.17.022.17.025.17.027.17.029.16.031.17.034.17.035.17.036.16.039.16.041.17.044.16.044.16.047.16.049.16.049.16.053.16.056.16.057.16.057.15.06.16.061.15.063.15.067.15.067.16.069.15.071.14.074.16.075.14.074.15.078.14.081.15.082.14.083.14.083.14.087.14.088.14.091.14.092.14.092.14.094.13.098.14.097.13.099.13.102.13.101.13.104.12.107.13.107.13.11.12.11.12.11.12.113.12.113.12.117.12.118.12.119.11.119.11.121.12.122.1.125.11.126.11.124.11.129.1.13.1.129.11.13.09.133.1.135.1.134.09.135.1.138.09.139.09.141.09.139.08.14.09.143.08.145.08.145.08.144.08.147.07.147.08.148.07.15.07.152.07.15.07.152.07.153.06.154.06.157.06.154.06.157.06.157.05.159.05.159.05.16.05.161.05.161.04.163.05.163.04.164.04.165.03.166.04.167.03.167.03.168.03.169.03.169.02.17.03.172.02.172.02.172.01.175.02.175.01.174.01.176.01h.177.177l.179.01.179-.01h.177.177l.176-.01.175-.01.174-.01.175-.02.172-.01.171-.02.173-.02.17-.03.169-.02.169-.03.168-.03.168-.03.166-.03.166-.04.164-.03.164-.04.164-.04.163-.05.161-.04.161-.05.161-.05.158-.05.158-.05.158-.05.158-.06.154-.06.156-.06.154-.06.152-.06.153-.07.152-.07.15-.07.148-.07.15-.07.148-.08.145-.07.147-.08.145-.08.142-.08.143-.08.142-.09.14-.08.139-.09.139-.09.136-.09.137-.1.135-.09.132-.1.133-.1.132-.09.131-.11.128-.1.127-.1.128-.11.124-.11.123-.1.123-.11.123-.12.12-.11.117-.11.118-.12.115-.12.113-.11.115-.13.112-.12.11-.12.108-.12.107-.13.105-.12.104-.13.105-.13.1-.13.099-.13.097-.13.097-.14.096-.13.092-.14.091-.14.091-.14.088-.14.085-.13.085-.15.084-.14.082-.14.079-.15.078-.14.077-.15.073-.14.074-.16.071-.14.069-.15.068-.16.064-.15.065-.15.061-.15.06-.16.059-.16.056-.15.054-.16.052-.16.052-.16.048-.16.047-.16.045-.16.043-.16.041-.17.039-.16.037-.17.034-.16.034-.17.031-.17.029-.16.027-.17.024-.17.023-.17.021-.17.018-.17.017-.18.014-.17.013-.18.009-.17.008-.18.006-.17.003-.18.002-.21v-248.943l-.002-.207-.003-.175-.006-.177-.008-.179-.009-.171-.013-.176-.014-.175-.017-.173-.018-.172-.021-.17-.023-.172-.024-.168-.027-.169-.029-.168-.031-.167-.034-.168-.034-.164-.037-.166-.039-.164-.041-.163-.043-.161-.045-.163-.047-.162-.048-.157-.052-.162-.052-.158-.054-.156-.056-.157-.059-.157-.06-.155-.061-.153-.065-.155-.065-.15-.067-.152-.069-.151-.071-.149-.074-.15-.073-.146-.077-.147-.078-.146-.08-.144-.081-.143-.084-.144-.085-.142-.085-.138-.088-.139-.091-.14-.091-.136-.092-.135-.096-.137-.097-.134-.097-.132-.099-.131-.1-.128-.105-.132-.104-.128-.105-.126-.107-.124-.107-.123-.111-.123-.112-.122-.115-.121-.113-.118-.115-.116-.118-.117-.117-.113-.12-.113-.123-.113-.123-.11-.123-.108-.123-.106-.129-.107-.127-.104-.128-.102-.131-.102-.132-.099-.133-.098-.132-.096-.135-.095-.137-.094-.136-.09-.138-.09-.14-.088-.14-.087-.142-.085-.143-.083-.142-.081-.145-.08-.147-.078-.146-.076-.148-.075-.149-.073-.148-.07-.15-.069-.152-.068-.153-.066-.152-.063-.154-.062-.155-.06-.156-.058-.157-.057-.158-.054-.157-.053-.16-.05-.16-.049-.161-.047-.162-.045-.162-.043-.164-.041-.163-.039-.165-.037-.166-.035-.166-.033-.168-.031-.168-.029-.168-.027-.17-.024-.171-.023-.172-.021-.171-.019-.173-.016-.173-.014-.175-.013-.175-.01-.176-.007-.177-.006-.178-.003-.178-.002z" fill="#ff813a"/></g></g></svg>