<svg clip-rule="evenodd" fill-rule="evenodd" stroke-linejoin="round" stroke-miterlimit="2" viewBox="0 0 512 512" xmlns="http://www.w3.org/2000/svg" xmlns:xlink="http://www.w3.org/1999/xlink"><linearGradient id="ions-a" gradientTransform="matrix(0 131 -148.467 0 1031.53 742)" gradientUnits="userSpaceOnUse" x1="0" x2="1" y1="0" y2="0"><stop offset="0" stop-color="#a4a4a4"/><stop offset=".25" stop-color="#c6c6c6"/><stop offset=".49" stop-color="#d2d2d2"/><stop offset=".75" stop-color="#c4c4c4"/><stop offset="1" stop-color="#979797"/></linearGradient><clipPath id="ions-b"><path clip-rule="evenodd" d="m-1 1261h512v512h-512z"/></clipPath><g transform="translate(1 -1261)"><path d="m-1 1261h512v512h-512z" fill="none"/><g clip-path="url(#ions-b)"><path d="m2773 801h-512v182.5h512v-58.75-65z" fill="#3f3f3f" transform="translate(-2262 624.75)"/><g fill="url(#ions-a)"><path d="m755 742h510v131h-510z" transform="matrix(.0739123 0 0 .496183 417.501 1116.33)"/><path d="m755 742h510v131h-510z" transform="matrix(.218699 0 0 .72557 196.651 931.102)"/><path d="m755 742h510v131h-510z" transform="matrix(.268555 0 0 1.06083 22.0467 660.382)"/></g><path d="m2295.5 813.297h195.375v157.905h-195.375z" fill="#6f0000" transform="matrix(1.15576 0 0 1.15576 -2654.04 485.777)"/><path d="m2309.5 824.955-14-11.658v157.906l14-11.658z" fill="#4d1818" transform="matrix(1.15576 0 0 1.15576 -2654.04 485.777)"/><path d="m2295.5 813.297h195.375v157.905h-195.375z" fill="#8c2222" transform="matrix(1.07294 0 0 .985106 -2447.75 638.039)"/></g></g></svg>