<svg clip-rule="evenodd" fill-rule="evenodd" stroke-linejoin="round" stroke-miterlimit="2" viewBox="0 0 512 512" xmlns="http://www.w3.org/2000/svg" xmlns:xlink="http://www.w3.org/1999/xlink"><clipPath id="notifier-a"><path clip-rule="evenodd" d="m-1 1261h512v512h-512z"/></clipPath><g transform="translate(1 -1261)"><path d="m-1 1261h512v512h-512z" fill="none"/><g clip-path="url(#notifier-a)"><path d="m2734.5 295.5 19 6.951h-473l19-6.951zm19-85.951-19 6.951h-435l-19-6.951z" fill="#434343" transform="matrix(1.03795 0 0 2.06424 -2357.51 988.555)"/><path d="m2753.5 209.549-19 6.951v79l19 6.951zm-454 6.951-19-6.951v92.902l19-6.951z" fill="#313131" transform="matrix(1.03795 0 0 2.06424 -2357.51 988.555)"/><path d="m2301 196h435v79h-435z" fill="#4e4e4e" transform="matrix(1.03795 0 0 2.06424 -2359.07 1030.87)"/><path d="m2434 173h166v166h-166z" fill="#ffde00" transform="matrix(.85473 .85473 -.85473 .85473 -1677.54 -853.166)"/><path d="m2600 173h-166l83 83z" fill="#e1ce51" transform="matrix(.85473 .85473 -.85473 .85473 -1677.54 -853.166)"/><path d="m2600 173h-166l83 83z" fill="#988b38" transform="matrix(-.85473 .85473 -.85473 -.85473 2625.17 -415.544)"/><path d="m2600 173h-166l83 83z" fill="#e3ca1f" transform="matrix(-.85473 -.85473 .85473 -.85473 2187.54 3887.17)"/><path d="m2342 238h-39.74l-16.6-2.435h-10.04v39.87h10.04l16.6-2.435h39.74z" fill="#92821c" transform="matrix(1.18837 0 0 1.83041 -2706.7 1049.33)"/><path d="m2342 238h-39.74l-16.6-2.435h-10.04l6.11 5.729h58.52z" fill="#b09d21" transform="matrix(1.18837 0 0 1.83041 -2706.7 1049.33)"/><path d="m2340.25 269.706h-58.52l-6.11 5.729h10.04l16.6-2.435h39.74z" fill="#c0ae35" transform="matrix(1.18837 0 0 1.83041 -2706.7 1049.33)"/><path d="m2273 238h69v35h-69z" fill="#857820" transform="matrix(1.03795 0 0 1.48587 -2354.4 1137.36)"/><path d="m2273 238h69v35h-69z" fill="#e3ca1f" transform="matrix(1.00786 0 0 1.48587 -2286.01 1137.36)"/><path d="m2342 238h-39.74l-16.6-2.435h-10.04v39.87h10.04l16.6-2.435h39.74z" fill="#92821c" transform="matrix(-1.18837 0 0 -1.83041 3216.7 1984.67)"/><path d="m2342 238h-39.74l-16.6-2.435h-10.04l6.11 5.729h58.52z" fill="#b09d21" transform="matrix(-1.18837 0 0 -1.83041 3216.7 1984.67)"/><path d="m2340.25 269.706h-58.52l-6.11 5.729h10.04l16.6-2.435h39.74z" fill="#c0ae35" transform="matrix(-1.18837 0 0 -1.83041 3216.7 1984.67)"/><path d="m2273 238h69v35h-69z" fill="#857820" transform="matrix(-1.03795 0 0 -1.48587 2864.4 1896.64)"/><path d="m2273 238h69v35h-69z" fill="#e3ca1f" transform="matrix(-1.00786 0 0 -1.48587 2796.01 1896.64)"/></g></g></svg>