<svg clip-rule="evenodd" fill-rule="evenodd" stroke-linejoin="round" stroke-miterlimit="2" viewBox="0 0 512 512" xmlns="http://www.w3.org/2000/svg" xmlns:xlink="http://www.w3.org/1999/xlink"><clipPath id="scan-a"><path clip-rule="evenodd" d="m-1 1261h512v512h-512z"/></clipPath><g transform="translate(1 -1261)"><path d="m-1 1261h512v512h-512z" fill="none"/><g clip-path="url(#scan-a)"><path d="m498 346.28h-484l39.5-39.28h404.72zm0-180.56-39.78 39.28h-404.72l-39.5-39.28z" fill="#393939" transform="matrix(1.05785 0 0 1.05785 -15.8099 1246.19)"/><path d="m105.636 196.762-32.165-31.762v146l32.165-31.762z" fill="#353535" transform="matrix(1.30826 0 0 1.30826 -97.1188 1205.63)"/><path d="m105.636 196.762-32.165-31.762v146l31.939-31.762z" fill="#353535" transform="matrix(-1.30826 0 0 -1.30826 607.119 1828.37)"/><g transform="matrix(1.03342 0 0 .739047 -8.52321 1341.11)"><path d="m48 165h414v146h-414z" fill="#9d0f00"/><path d="m462 311h-414v-146h414zm-405.936-134.724v123.448h397.872v-123.448z" fill="#292929"/></g><g fill="#9c0d00"><path d="m385.28 333.976c0-2.748-3.867-4.976-8.638-4.976-.001 0-.003 0-.004 0-4.771 0-8.638 2.228-8.638 4.976v12.304h17.28z" transform="matrix(1.05785 0 0 1.83653 -36.2055 976.55)"/><path d="m385.28 333.976c0-2.748-3.867-4.976-8.638-4.976-.001 0-.003 0-.004 0-4.771 0-8.638 2.228-8.638 4.976v12.304h17.28z" transform="matrix(1.05785 0 0 1.83653 7.16641 976.55)"/><path d="m385.28 333.976c0-2.748-3.867-4.976-8.638-4.976-.001 0-.003 0-.004 0-4.771 0-8.638 2.228-8.638 4.976v12.304h17.28z" transform="matrix(1.05785 0 0 1.83653 50.5383 976.55)"/><path d="m385.28 333.976c0-2.748-3.867-4.976-8.638-4.976-.001 0-.003 0-.004 0-4.771 0-8.638 2.228-8.638 4.976v12.304h17.28z" transform="matrix(1.05785 0 0 1.83653 -337.397 976.55)"/><path d="m385.28 333.976c0-2.748-3.867-4.976-8.638-4.976-.001 0-.003 0-.004 0-4.771 0-8.638 2.228-8.638 4.976v12.304h17.28z" transform="matrix(1.05785 0 0 1.83653 -294.025 976.55)"/><path d="m385.28 333.976c0-2.748-3.867-4.976-8.638-4.976-.001 0-.003 0-.004 0-4.771 0-8.638 2.228-8.638 4.976v12.304h17.28z" transform="matrix(1.05785 0 0 1.83653 -250.653 976.55)"/><path d="m385.28 333.976c0-2.748-3.867-4.976-8.638-4.976-.001 0-.003 0-.004 0-4.771 0-8.638 2.228-8.638 4.976v12.304h17.28z" transform="matrix(-1.05785 0 0 -1.83653 546.205 2057.45)"/><path d="m385.28 333.976c0-2.748-3.867-4.976-8.638-4.976-.001 0-.003 0-.004 0-4.771 0-8.638 2.228-8.638 4.976v12.304h17.28z" transform="matrix(-1.05785 0 0 -1.83653 502.834 2057.45)"/><path d="m385.28 333.976c0-2.748-3.867-4.976-8.638-4.976-.001 0-.003 0-.004 0-4.771 0-8.638 2.228-8.638 4.976v12.304h17.28z" transform="matrix(-1.05785 0 0 -1.83653 459.462 2057.45)"/><path d="m385.28 333.976c0-2.748-3.867-4.976-8.638-4.976-.001 0-.003 0-.004 0-4.771 0-8.638 2.228-8.638 4.976v12.304h17.28z" transform="matrix(-1.05785 0 0 -1.83653 847.397 2057.45)"/><path d="m385.28 333.976c0-2.748-3.867-4.976-8.638-4.976-.001 0-.003 0-.004 0-4.771 0-8.638 2.228-8.638 4.976v12.304h17.28z" transform="matrix(-1.05785 0 0 -1.83653 804.025 2057.45)"/><path d="m385.28 333.976c0-2.748-3.867-4.976-8.638-4.976-.001 0-.003 0-.004 0-4.771 0-8.638 2.228-8.638 4.976v12.304h17.28z" transform="matrix(-1.05785 0 0 -1.83653 760.653 2057.45)"/></g><path d="m1955.98 1514.1 1.24.72v3.56l-2.79-1.61c-1.77 1.02-3.55 2.05-5.32 3.07v6.14l5.32 3.07 2.79-1.61v3.56l-1.24.72v6.14l1.24.72v3.57l-2.79-1.62c-1.77 1.03-3.55 2.05-5.32 3.08v6.14l5.32 3.07 2.79-1.62v3.57l-1.24.72v6.14l1.24.72v3.56l-2.79-1.61c-1.77 1.02-3.55 2.05-5.32 3.07v6.14l5.32 3.07 2.79-1.61v3.56l-1.24.72v6.14l1.24.72v3.57l-2.79-1.62c-1.77 1.03-3.55 2.05-5.32 3.07v4.54h-3.04v-4.54l-5.32-3.07c-1.77 1.03-3.54 2.05-5.31 3.07v4.54h-3.07v-4.54l-5.32-3.07c-1.77 1.03-3.54 2.05-5.32 3.07v4.54h-3.02v-4.54l-5.32-3.07c-1.77 1.03-3.54 2.05-5.31 3.07v4.54h-3.07v-4.54l-5.32-3.07c-1.77 1.03-3.54 2.05-5.32 3.07v4.54h-2.83v-4.54l-5.32-3.07c-1.78 1.03-3.55 2.05-5.32 3.07v4.54h-3.07v-4.54l-5.32-3.07c-1.77 1.03-3.54 2.05-5.31 3.07v4.54h-3.03v-4.54l-5.31-3.07c-1.78 1.03-3.55 2.05-5.32 3.07v4.54h-3.07v-4.54l-5.32-3.07c-1.77 1.03-3.54 2.05-5.31 3.07v4.54h-3.04v-4.54l-5.32-3.07c-1.77 1.03-3.55 2.05-5.32 3.07v4.54h-3.06v-4.54l-5.32-3.07c-1.77 1.03-3.55 2.05-5.32 3.07v4.54h-3.02v-4.54l-5.32-3.07c-1.77 1.03-3.54 2.05-5.32 3.07v4.54h-3.06v-4.54l-5.32-3.07c-1.77 1.03-3.55 2.05-5.32 3.07v4.54h-3.04v-4.54l-5.32-3.07c-1.77 1.03-3.54 2.05-5.31 3.07v4.54h-3.07v-4.54l-5.32-3.07c-1.77 1.03-3.54 2.05-5.32 3.07v4.54h-3.02v-4.54l-5.32-3.07c-1.77 1.03-3.54 2.05-5.31 3.07v4.54h-3.07v-4.54l-5.32-3.07c-1.77 1.03-3.54 2.05-5.32 3.07v4.54h-3.03v-4.54l-5.32-3.07c-1.77 1.03-3.55 2.05-5.32 3.07v4.54h-3.07v-4.54l-5.31-3.07c-1.78 1.03-3.55 2.05-5.32 3.07v4.54h-3.02v-4.54l-5.32-3.07c-1.77 1.03-3.55 2.05-5.32 3.07v4.54h-3.06v-4.54l-5.32-3.07c-1.78 1.03-3.55 2.05-5.32 3.07v4.54h-2.84v-4.54l-5.32-3.07c-1.77 1.03-3.55 2.05-5.32 3.07v4.54h-3.06v-4.54l-5.32-3.07c-1.77 1.03-3.55 2.05-5.32 3.07v4.54h-3.02v-4.54l-5.32-3.07c-1.77 1.03-3.54 2.05-5.32 3.07v4.54h-3.06v-4.54l-5.32-3.07c-1.78 1.03-3.55 2.05-5.32 3.07v4.54h-3.04v-4.54l-5.32-3.07c-1.77 1.03-3.54 2.05-5.31 3.07v4.54h-3.07v-4.54l-5.32-3.07c-1.77 1.03-3.54 2.05-5.32 3.07v4.54h-3.02v-4.54l-5.32-3.07c-1.77 1.03-3.54 2.05-5.31 3.07v4.54h-3.07v-4.54l-5.32-3.07-2.22 1.29v-3.55l.7-.41v-6.14l-.7-.41v-3.54l2.22 1.28 5.32-3.07v-6.14l-5.32-3.07-2.22 1.28v-3.54l.7-.41v-6.14l-.7-.41v-3.55l2.22 1.29 5.32-3.07v-6.14l-5.32-3.08-2.22 1.29v-3.55l.7-.41v-6.14l-.7-.41v-3.54l2.22 1.28 5.32-3.07v-6.14l-5.32-3.07-2.22 1.28v-3.54l.7-.41v-3.77h3.07v3.77l5.32 3.07 5.32-3.07v-3.77h3.02v3.77l5.31 3.07 5.32-3.07v-3.77h3.07v3.77l5.32 3.07 5.32-3.07v-3.77h3.03v3.77l5.32 3.07 5.32-3.07v-3.77h3.06v3.77l5.32 3.07 5.32-3.07v-3.77h3.02v3.77l5.32 3.07 5.32-3.07v-3.77h3.06v3.77l5.32 3.07 5.32-3.07v-3.77h2.84v3.77l5.32 3.07 5.32-3.07v-3.77h3.06v3.77l5.32 3.07 5.32-3.07v-3.77h3.02v3.77l5.32 3.07 5.32-3.07v-3.77h3.06v3.77l5.32 3.07 5.32-3.07v-3.77h3.04v3.77l5.32 3.07 5.31-3.07v-3.77h3.07v3.77l5.32 3.07 5.32-3.07v-3.77h3.02v3.77l5.31 3.07 5.32-3.07v-3.77h3.07v3.77l5.32 3.07 5.32-3.07v-3.77h3.03v3.77l5.32 3.07 5.32-3.07v-3.77h3.07v3.77l5.31 3.07 5.32-3.07v-3.77h3.02v3.77l5.32 3.07 5.32-3.07v-3.77h3.07v3.77l5.31 3.07 5.32-3.07v-3.77h3.04v3.77l5.32 3.07 5.32-3.07v-3.77h3.06v3.77l5.32 3.07 5.32-3.07v-3.77h3.02v3.77l5.32 3.07 5.32-3.07v-3.77h3.06v3.77l5.32 3.07 5.32-3.07v-3.77h2.84v3.77l5.32 3.07 5.31-3.07v-3.77h3.07v3.77l5.32 3.07 5.32-3.07v-3.77h3.02v3.77l5.32 3.07 5.31-3.07v-3.77h3.07v3.77l5.32 3.07 5.32-3.07v-3.77h3.03v3.77l5.32 3.07 5.32-3.07v-3.77h3.07zm-68.44 65.15v6.14l5.32 3.07 5.31-3.07v-6.14l-5.31-3.07c-1.78 1.02-3.55 2.05-5.32 3.07zm-273.29 0v6.14l5.32 3.07 5.32-3.07v-6.14l-5.32-3.07c-1.77 1.02-3.54 2.05-5.32 3.07zm328.02 0v6.14l5.32 3.07 5.32-3.07v-6.14l-5.32-3.07c-1.77 1.02-3.54 2.05-5.32 3.07zm-13.67 0v6.14l5.32 3.07 5.32-3.07v-6.14l-5.32-3.07c-1.78 1.02-3.55 2.05-5.32 3.07zm-13.7 0v6.14l5.32 3.07 5.31-3.07v-6.14l-5.31-3.07c-1.78 1.02-3.55 2.05-5.32 3.07zm-13.66 0v6.14l5.32 3.07 5.32-3.07v-6.14l-5.32-3.07c-1.77 1.02-3.55 2.05-5.32 3.07zm-205.09 0v6.14l5.32 3.07 5.32-3.07v-6.14l-5.32-3.07c-1.77 1.02-3.55 2.05-5.32 3.07zm54.74 0v6.14l5.31 3.07 5.32-3.07v-6.14l-5.32-3.07c-1.77 1.02-3.54 2.05-5.31 3.07zm-109.28 0v6.14l5.32 3.07 5.32-3.07v-6.14l-5.32-3.07c-1.77 1.02-3.55 2.05-5.32 3.07zm-41.03 0v6.14l5.32 3.07 5.32-3.07v-6.14l-5.32-3.07c-1.78 1.02-3.55 2.05-5.32 3.07zm27.37 0v6.14l5.32 3.07 5.32-3.07v-6.14l-5.32-3.07c-1.77 1.02-3.54 2.05-5.32 3.07zm-41.07 0v6.14l5.31 3.07 5.32-3.07v-6.14l-5.32-3.07c-1.77 1.02-3.54 2.05-5.31 3.07zm191.38 0v6.14l5.32 3.07 5.32-3.07v-6.14l-5.32-3.07c-1.77 1.02-3.54 2.05-5.32 3.07zm-122.95 0v6.14l5.32 3.07 5.32-3.07v-6.14l-5.32-3.07c-1.77 1.02-3.54 2.05-5.32 3.07zm218.75 0v6.14l5.32 3.07 5.32-3.07v-6.14l-5.32-3.07c-1.77 1.02-3.55 2.05-5.32 3.07zm-191.57 0v6.14l5.32 3.07 5.32-3.07v-6.14l-5.32-3.07c-1.77 1.02-3.54 2.05-5.32 3.07zm123.13 0v6.14l5.32 3.07 5.32-3.07v-6.14l-5.32-3.07c-1.77 1.02-3.55 2.05-5.32 3.07zm41.08 0v6.14l5.32 3.07 5.32-3.07v-6.14l-5.32-3.07c-1.77 1.02-3.55 2.05-5.32 3.07zm-136.85 0v6.14l5.32 3.07 5.32-3.07v-6.14l-5.32-3.07c-1.77 1.02-3.55 2.05-5.32 3.07zm82.12 0v6.14l5.31 3.07 5.32-3.07v-6.14l-5.32-3.07c-1.77 1.02-3.54 2.05-5.31 3.07zm-27.38 0v6.14l5.32 3.07 5.32-3.07v-6.14l-5.32-3.07c-1.78 1.02-3.55 2.05-5.32 3.07zm-27.36 0v6.14l5.32 3.07 5.32-3.07v-6.14l-5.32-3.07c-1.77 1.02-3.55 2.05-5.32 3.07zm95.77 0v6.14l5.32 3.07 5.32-3.07v-6.14l-5.32-3.07c-1.77 1.02-3.55 2.05-5.32 3.07zm-109.47 0v6.14l5.32 3.07 5.31-3.07v-6.14l-5.31-3.07c-1.78 1.02-3.55 2.05-5.32 3.07zm-54.74 0v6.14l5.32 3.07 5.32-3.07v-6.14l-5.32-3.07c-1.77 1.02-3.55 2.05-5.32 3.07zm191.57 0v6.14l5.32 3.07 5.32-3.07v-6.14l-5.32-3.07c-1.78 1.02-3.55 2.05-5.32 3.07zm-41.03 0v6.14l5.31 3.07 5.32-3.07v-6.14l-5.32-3.07c-1.77 1.02-3.54 2.05-5.31 3.07zm-246.11 0v6.14l5.32 3.07 5.32-3.07v-6.14l-5.32-3.07c-1.78 1.02-3.55 2.05-5.32 3.07zm334.86-11.88v6.14l5.31 3.07 5.32-3.07v-6.14l-5.32-3.07c-1.77 1.02-3.54 2.05-5.31 3.07zm-109.28 0v6.14l5.32 3.07 5.32-3.07v-6.14l-5.32-3.07c-1.77 1.02-3.54 2.05-5.32 3.07zm95.57 0v6.14l5.32 3.07 5.32-3.07v-6.14l-5.32-3.07c-1.77 1.02-3.54 2.05-5.32 3.07zm27.36 0v6.14l5.32 3.07 5.32-3.07v-6.14l-5.32-3.07c-1.77 1.02-3.54 2.05-5.32 3.07zm13.71 0v6.14l5.31 3.07 5.32-3.07v-6.14l-5.32-3.07c-1.77 1.02-3.54 2.05-5.31 3.07zm-95.6 0v6.14l5.31 3.07 5.32-3.07v-6.14l-5.32-3.07c-1.77 1.02-3.54 2.05-5.31 3.07zm-164.21 0v6.14l5.32 3.07 5.32-3.07v-6.14l-5.32-3.07c-1.78 1.02-3.55 2.05-5.32 3.07zm136.83 0v6.14l5.32 3.07 5.32-3.07v-6.14l-5.32-3.07c-1.77 1.02-3.55 2.05-5.32 3.07zm-109.47 0v6.14l5.32 3.07 5.31-3.07v-6.14l-5.31-3.07c-1.78 1.02-3.55 2.05-5.32 3.07zm68.44 0v6.14l5.31 3.07 5.32-3.07v-6.14l-5.32-3.07c-1.77 1.02-3.54 2.05-5.31 3.07zm-82.1 0v6.14l5.32 3.07 5.32-3.07v-6.14l-5.32-3.07c-1.77 1.02-3.55 2.05-5.32 3.07zm95.77 0v6.14l5.32 3.07 5.32-3.07v-6.14l-5.32-3.07c-1.77 1.02-3.55 2.05-5.32 3.07zm-27.38 0v6.14l5.32 3.07 5.32-3.07v-6.14l-5.32-3.07c-1.77 1.02-3.54 2.05-5.32 3.07zm109.48 0v6.14l5.31 3.07 5.32-3.07v-6.14l-5.32-3.07c-1.77 1.02-3.54 2.05-5.31 3.07zm-246.11 0v6.14l5.32 3.07 5.32-3.07v-6.14l-5.32-3.07c-1.78 1.02-3.55 2.05-5.32 3.07zm41.06 0v6.14l5.32 3.07 5.32-3.07v-6.14l-5.32-3.07c-1.77 1.02-3.55 2.05-5.32 3.07zm-54.73 0v6.14l5.31 3.07 5.32-3.07v-6.14l-5.32-3.07c-1.77 1.02-3.54 2.05-5.31 3.07zm-27.36 0v6.14l5.31 3.07 5.32-3.07v-6.14l-5.32-3.07c-1.77 1.02-3.54 2.05-5.31 3.07zm136.63 0v6.14l5.32 3.07 5.32-3.07v-6.14l-5.32-3.07c-1.77 1.02-3.55 2.05-5.32 3.07zm-81.9 0v6.14l5.32 3.07 5.32-3.07v-6.14l-5.32-3.07c-1.77 1.02-3.54 2.05-5.32 3.07zm218.75 0v6.14l5.32 3.07 5.31-3.07v-6.14l-5.31-3.07c-1.78 1.02-3.55 2.05-5.32 3.07zm-109.47 0v6.14l5.31 3.07 5.32-3.07v-6.14l-5.32-3.07c-1.77 1.02-3.54 2.05-5.31 3.07zm-150.36 0v6.14l5.32 3.07 5.32-3.07v-6.14l-5.32-3.07c-1.77 1.02-3.54 2.05-5.32 3.07zm54.74 0v6.14l5.32 3.07 5.32-3.07v-6.14l-5.32-3.07c-1.77 1.02-3.55 2.05-5.32 3.07zm81.91 0v6.14l5.32 3.07 5.32-3.07v-6.14l-5.32-3.07c-1.77 1.02-3.54 2.05-5.32 3.07zm95.8 0v6.14l5.32 3.07 5.32-3.07v-6.14l-5.32-3.07c-1.77 1.02-3.55 2.05-5.32 3.07zm54.74 0v6.14l5.32 3.07 5.32-3.07v-6.14l-5.32-3.07c-1.78 1.02-3.55 2.05-5.32 3.07zm6.64-11.88v6.14l5.32 3.07 5.31-3.07v-6.14l-5.31-3.07c-1.78 1.02-3.55 2.04-5.32 3.07zm-273.29 0v6.14l5.32 3.07 5.32-3.07v-6.14l-5.32-3.07c-1.77 1.02-3.54 2.04-5.32 3.07zm300.65 0v6.14l5.32 3.07 5.31-3.07v-6.14l-5.31-3.07c-1.78 1.02-3.55 2.04-5.32 3.07zm13.7 0v6.14l5.32 3.07 5.32-3.07v-6.14l-5.32-3.07c-1.78 1.02-3.55 2.04-5.32 3.07zm-27.36 0v6.14l5.32 3.07 5.32-3.07v-6.14l-5.32-3.07c-1.77 1.02-3.55 2.04-5.32 3.07zm41.03 0v6.14l5.32 3.07 5.32-3.07v-6.14l-5.32-3.07c-1.77 1.02-3.54 2.04-5.32 3.07zm-300.66 0v6.14l5.32 3.07 5.32-3.07v-6.14l-5.32-3.07c-1.77 1.02-3.55 2.04-5.32 3.07zm177.72 0v6.14l5.31 3.07 5.32-3.07v-6.14l-5.32-3.07c-1.77 1.02-3.54 2.04-5.31 3.07zm41.03 0v6.14l5.32 3.07 5.32-3.07v-6.14l-5.32-3.07c-1.78 1.02-3.55 2.04-5.32 3.07zm-54.74 0v6.14l5.32 3.07 5.32-3.07v-6.14l-5.32-3.07c-1.77 1.02-3.55 2.04-5.32 3.07zm68.44 0v6.14l5.32 3.07 5.32-3.07v-6.14l-5.32-3.07c-1.77 1.02-3.55 2.04-5.32 3.07zm-82.09 0v6.14l5.31 3.07 5.32-3.07v-6.14l-5.32-3.07c-1.77 1.02-3.54 2.04-5.31 3.07zm-41.08 0v6.14l5.31 3.07 5.32-3.07v-6.14l-5.32-3.07c-1.77 1.02-3.54 2.04-5.31 3.07zm-164.01 0v6.14l5.31 3.07 5.32-3.07v-6.14l-5.32-3.07c-1.77 1.02-3.54 2.04-5.31 3.07zm177.71 0v6.14l5.32 3.07 5.32-3.07v-6.14l-5.32-3.07c-1.78 1.02-3.55 2.04-5.32 3.07zm-54.74 0v6.14l5.32 3.07 5.32-3.07v-6.14l-5.32-3.07c-1.77 1.02-3.55 2.04-5.32 3.07zm27.38 0v6.14l5.32 3.07 5.32-3.07v-6.14l-5.32-3.07c-1.77 1.02-3.55 2.04-5.32 3.07zm-13.7 0v6.14l5.32 3.07 5.31-3.07v-6.14l-5.31-3.07c-1.78 1.02-3.55 2.04-5.32 3.07zm-150.31 0v6.14l5.32 3.07 5.32-3.07v-6.14l-5.32-3.07c-1.78 1.02-3.55 2.04-5.32 3.07zm95.57 0v6.14l5.32 3.07 5.32-3.07v-6.14l-5.32-3.07c-1.77 1.02-3.55 2.04-5.32 3.07zm27.36 0v6.14l5.32 3.07 5.32-3.07v-6.14l-5.32-3.07c-1.77 1.02-3.55 2.04-5.32 3.07zm-13.66 0v6.14l5.32 3.07 5.32-3.07v-6.14l-5.32-3.07c-1.77 1.02-3.54 2.04-5.32 3.07zm-54.54 0v6.14l5.32 3.07 5.32-3.07v-6.14l-5.32-3.07c-1.77 1.02-3.54 2.04-5.32 3.07zm205.05 0v6.14l5.32 3.07 5.32-3.07v-6.14l-5.32-3.07c-1.77 1.02-3.55 2.04-5.32 3.07zm-54.74 0v6.14l5.32 3.07 5.32-3.07v-6.14l-5.32-3.07c-1.77 1.02-3.54 2.04-5.32 3.07zm-122.95 0v6.14l5.32 3.07 5.32-3.07v-6.14l-5.32-3.07c-1.77 1.02-3.54 2.04-5.32 3.07zm-54.73 0v6.14l5.32 3.07 5.32-3.07v-6.14l-5.32-3.07c-1.78 1.02-3.55 2.04-5.32 3.07zm246.12 0v6.14l5.32 3.07 5.32-3.07v-6.14l-5.32-3.07c-1.77 1.02-3.55 2.04-5.32 3.07zm61.38-11.88v6.14l5.31 3.07 5.32-3.07v-6.14l-5.32-3.08c-1.77 1.03-3.54 2.05-5.31 3.08zm-109.28 0v6.14l5.32 3.07 5.32-3.07v-6.14l-5.32-3.08c-1.77 1.03-3.54 2.05-5.32 3.08zm122.93 0v6.14l5.32 3.07 5.32-3.07v-6.14l-5.32-3.08c-1.77 1.03-3.54 2.05-5.32 3.08zm13.71 0v6.14l5.31 3.07 5.32-3.07v-6.14l-5.32-3.08c-1.77 1.03-3.54 2.05-5.31 3.08zm-41.07 0v6.14l5.32 3.07 5.32-3.07v-6.14l-5.32-3.08c-1.77 1.03-3.54 2.05-5.32 3.08zm-232.22 0v6.14l5.32 3.07 5.32-3.07v-6.14l-5.32-3.08c-1.77 1.03-3.55 2.05-5.32 3.08zm122.95 0v6.14l5.32 3.07 5.32-3.07v-6.14l-5.32-3.08c-1.77 1.03-3.55 2.05-5.32 3.08zm-82.11 0v6.14l5.32 3.07 5.31-3.07v-6.14l-5.31-3.08c-1.78 1.03-3.55 2.05-5.32 3.08zm-54.54 0v6.14l5.32 3.07 5.32-3.07v-6.14l-5.32-3.08c-1.77 1.03-3.55 2.05-5.32 3.08zm109.27 0v6.14l5.32 3.07 5.32-3.07v-6.14l-5.32-3.08c-1.77 1.03-3.54 2.05-5.32 3.08zm-122.93 0v6.14l5.32 3.07 5.32-3.07v-6.14l-5.32-3.08c-1.77 1.03-3.54 2.05-5.32 3.08zm-41.08 0v6.14l5.32 3.07 5.32-3.07v-6.14l-5.32-3.08c-1.77 1.03-3.54 2.05-5.32 3.08zm232.45 0v6.14l5.32 3.07 5.32-3.07v-6.14l-5.32-3.08c-1.77 1.03-3.55 2.05-5.32 3.08zm-95.8 0v6.14l5.32 3.07 5.32-3.07v-6.14l-5.32-3.08c-1.77 1.03-3.54 2.05-5.32 3.08zm41.07 0v6.14l5.31 3.07 5.32-3.07v-6.14l-5.32-3.08c-1.77 1.03-3.54 2.05-5.31 3.08zm-164.01 0v6.14l5.31 3.07 5.32-3.07v-6.14l-5.32-3.08c-1.77 1.03-3.54 2.05-5.31 3.08zm109.27 0v6.14l5.32 3.07 5.32-3.07v-6.14l-5.32-3.08c-1.77 1.03-3.55 2.05-5.32 3.08zm-136.63 0v6.14l5.31 3.07 5.32-3.07v-6.14l-5.32-3.08c-1.77 1.03-3.54 2.05-5.31 3.08zm41.03 0v6.14l5.32 3.07 5.32-3.07v-6.14l-5.32-3.08c-1.78 1.03-3.55 2.05-5.32 3.08zm122.98 0v6.14l5.31 3.07 5.32-3.07v-6.14l-5.32-3.08c-1.77 1.03-3.54 2.05-5.31 3.08zm95.77 0v6.14l5.31 3.07 5.32-3.07v-6.14l-5.32-3.08c-1.77 1.03-3.54 2.05-5.31 3.08zm13.7 0v6.14l5.32 3.07 5.31-3.07v-6.14l-5.31-3.08c-1.78 1.03-3.55 2.05-5.32 3.08zm13.66 0v6.14l5.31 3.07 5.32-3.07v-6.14l-5.32-3.08c-1.77 1.03-3.54 2.05-5.31 3.08zm-54.74 0v6.14l5.32 3.07 5.32-3.07v-6.14l-5.32-3.08c-1.77 1.03-3.55 2.05-5.32 3.08zm-123.13 0v6.14l5.32 3.07 5.32-3.07v-6.14l-5.32-3.08c-1.77 1.03-3.55 2.05-5.32 3.08zm-13.7 0v6.14l5.32 3.07 5.32-3.07v-6.14l-5.32-3.08c-1.78 1.03-3.55 2.05-5.32 3.08zm205.27 0v6.14l5.32 3.07 5.32-3.07v-6.14l-5.32-3.08c-1.78 1.03-3.55 2.05-5.32 3.08zm6.64-11.89v6.14l5.32 3.07 5.31-3.07v-6.14l-5.31-3.07c-1.78 1.02-3.55 2.05-5.32 3.07zm-273.29 0v6.14l5.32 3.07 5.32-3.07v-6.14l-5.32-3.07c-1.77 1.02-3.54 2.05-5.32 3.07zm41.06 0v6.14l5.32 3.07 5.32-3.07v-6.14l-5.32-3.07c-1.77 1.02-3.54 2.05-5.32 3.07zm-82.09 0v6.14l5.32 3.07 5.32-3.07v-6.14l-5.32-3.07c-1.78 1.02-3.55 2.05-5.32 3.07zm54.73 0v6.14l5.32 3.07 5.32-3.07v-6.14l-5.32-3.07c-1.77 1.02-3.54 2.05-5.32 3.07zm109.28 0v6.14l5.32 3.07 5.32-3.07v-6.14l-5.32-3.07c-1.77 1.02-3.55 2.05-5.32 3.07zm177.67 0v6.14l5.32 3.07 5.31-3.07v-6.14l-5.31-3.07c-1.78 1.02-3.55 2.05-5.32 3.07zm-205.05 0v6.14l5.32 3.07 5.32-3.07v-6.14l-5.32-3.07c-1.77 1.02-3.55 2.05-5.32 3.07zm-109.27 0v6.14l5.32 3.07 5.32-3.07v-6.14l-5.32-3.07c-1.78 1.02-3.55 2.05-5.32 3.07zm191.39 0v6.14l5.31 3.07 5.32-3.07v-6.14l-5.32-3.07c-1.77 1.02-3.54 2.05-5.31 3.07zm-150.36 0v6.14l5.32 3.07 5.32-3.07v-6.14l-5.32-3.07c-1.77 1.02-3.55 2.05-5.32 3.07zm-54.73 0v6.14l5.31 3.07 5.32-3.07v-6.14l-5.32-3.07c-1.77 1.02-3.54 2.05-5.31 3.07zm164.01 0v6.14l5.31 3.07 5.32-3.07v-6.14l-5.32-3.07c-1.77 1.02-3.54 2.05-5.31 3.07zm150.35 0v6.14l5.32 3.07 5.32-3.07v-6.14l-5.32-3.07c-1.77 1.02-3.55 2.05-5.32 3.07zm41.03 0v6.14l5.32 3.07 5.32-3.07v-6.14l-5.32-3.07c-1.77 1.02-3.54 2.05-5.32 3.07zm-68.21 0v6.14l5.32 3.07 5.32-3.07v-6.14l-5.32-3.07c-1.77 1.02-3.55 2.05-5.32 3.07zm-13.7 0v6.14l5.32 3.07 5.32-3.07v-6.14l-5.32-3.07c-1.78 1.02-3.55 2.05-5.32 3.07zm-27.36 0v6.14l5.32 3.07 5.32-3.07v-6.14l-5.32-3.07c-1.77 1.02-3.55 2.05-5.32 3.07zm-164.21 0v6.14l5.32 3.07 5.32-3.07v-6.14l-5.32-3.07c-1.77 1.02-3.55 2.05-5.32 3.07zm259.81 0v6.14l5.32 3.07 5.32-3.07v-6.14l-5.32-3.07c-1.78 1.02-3.55 2.05-5.32 3.07zm-205.07 0v6.14l5.32 3.07 5.31-3.07v-6.14l-5.31-3.07c-1.78 1.02-3.55 2.05-5.32 3.07zm123.17 0v6.14l5.32 3.07 5.32-3.07v-6.14l-5.32-3.07c-1.77 1.02-3.55 2.05-5.32 3.07zm-82.11 0v6.14l5.32 3.07 5.32-3.07v-6.14l-5.32-3.07c-1.78 1.02-3.55 2.05-5.32 3.07zm-68.44 0v6.14l5.32 3.07 5.32-3.07v-6.14l-5.32-3.07c-1.77 1.02-3.55 2.05-5.32 3.07zm109.47 0v6.14l5.32 3.07 5.32-3.07v-6.14l-5.32-3.07c-1.77 1.02-3.55 2.05-5.32 3.07zm-123.13 0v6.14l5.32 3.07 5.32-3.07v-6.14l-5.32-3.07c-1.77 1.02-3.54 2.05-5.32 3.07zm136.84 0v6.14l5.31 3.07 5.32-3.07v-6.14l-5.32-3.07c-1.77 1.02-3.54 2.05-5.31 3.07zm-41.07 0v6.14l5.32 3.07 5.32-3.07v-6.14l-5.32-3.07c-1.77 1.02-3.54 2.05-5.32 3.07zm129.82-11.88v6.14l5.31 3.07 5.32-3.07v-6.14l-5.32-3.07c-1.77 1.02-3.54 2.05-5.31 3.07zm-109.28 0v6.14l5.32 3.07 5.32-3.07v-6.14l-5.32-3.07c-1.77 1.02-3.54 2.05-5.32 3.07zm122.93 0v6.14l5.32 3.07 5.32-3.07v-6.14l-5.32-3.07c-1.77 1.02-3.54 2.05-5.32 3.07zm13.71 0v6.14l5.31 3.07 5.32-3.07v-6.14l-5.32-3.07c-1.77 1.02-3.54 2.05-5.31 3.07zm-41.07 0v6.14l5.32 3.07 5.32-3.07v-6.14l-5.32-3.07c-1.77 1.02-3.54 2.05-5.32 3.07zm-218.74 0v6.14l5.32 3.07 5.32-3.07v-6.14l-5.32-3.07c-1.78 1.02-3.55 2.05-5.32 3.07zm68.44 0v6.14l5.31 3.07 5.32-3.07v-6.14l-5.32-3.07c-1.77 1.02-3.54 2.05-5.31 3.07zm-150.36 0v6.14l5.32 3.07 5.32-3.07v-6.14l-5.32-3.07c-1.77 1.02-3.54 2.05-5.32 3.07zm259.83 0v6.14l5.32 3.07 5.31-3.07v-6.14l-5.31-3.07c-1.78 1.02-3.55 2.05-5.32 3.07zm13.66 0v6.14l5.31 3.07 5.32-3.07v-6.14l-5.32-3.07c-1.77 1.02-3.54 2.05-5.31 3.07zm-109.48 0v6.14l5.32 3.07 5.32-3.07v-6.14l-5.32-3.07c-1.77 1.02-3.54 2.05-5.32 3.07zm54.74 0v6.14l5.32 3.07 5.32-3.07v-6.14l-5.32-3.07c-1.77 1.02-3.55 2.05-5.32 3.07zm13.7 0v6.14l5.32 3.07 5.32-3.07v-6.14l-5.32-3.07c-1.77 1.02-3.55 2.05-5.32 3.07zm-218.74 0v6.14l5.31 3.07 5.32-3.07v-6.14l-5.32-3.07c-1.77 1.02-3.54 2.05-5.31 3.07zm41.03 0v6.14l5.32 3.07 5.32-3.07v-6.14l-5.32-3.07c-1.77 1.02-3.55 2.05-5.32 3.07zm191.39 0v6.14l5.31 3.07 5.32-3.07v-6.14l-5.32-3.07c-1.77 1.02-3.54 2.05-5.31 3.07zm-68.41 0v6.14l5.31 3.07 5.32-3.07v-6.14l-5.32-3.07c-1.77 1.02-3.54 2.05-5.31 3.07zm-41.07 0v6.14l5.32 3.07 5.32-3.07v-6.14l-5.32-3.07c-1.77 1.02-3.54 2.05-5.32 3.07zm54.74 0v6.14l5.32 3.07 5.32-3.07v-6.14l-5.32-3.07c-1.77 1.02-3.55 2.05-5.32 3.07zm-122.95 0v6.14l5.32 3.07 5.32-3.07v-6.14l-5.32-3.07c-1.77 1.02-3.55 2.05-5.32 3.07zm-41.06 0v6.14l5.32 3.07 5.32-3.07v-6.14l-5.32-3.07c-1.78 1.02-3.55 2.05-5.32 3.07zm95.6 0v6.14l5.32 3.07 5.32-3.07v-6.14l-5.32-3.07c-1.77 1.02-3.55 2.05-5.32 3.07zm-27.36 0v6.14l5.32 3.07 5.32-3.07v-6.14l-5.32-3.07c-1.77 1.02-3.55 2.05-5.32 3.07zm-54.54 0v6.14l5.32 3.07 5.32-3.07v-6.14l-5.32-3.07c-1.77 1.02-3.54 2.05-5.32 3.07zm-54.73 0v6.14l5.31 3.07 5.32-3.07v-6.14l-5.32-3.07c-1.77 1.02-3.54 2.05-5.31 3.07zm122.93 0v6.14l5.32 3.07 5.31-3.07v-6.14l-5.31-3.07c-1.78 1.02-3.55 2.05-5.32 3.07zm177.91 0v6.14l5.32 3.07 5.32-3.07v-6.14l-5.32-3.07c-1.78 1.02-3.55 2.05-5.32 3.07z" fill="#898989" transform="matrix(1.05785 0 0 1.05785 -1610.34 -125.843)"/></g></g></svg>