<svg clip-rule="evenodd" fill-rule="evenodd" stroke-linecap="round" stroke-linejoin="round" stroke-miterlimit="1.5" viewBox="0 0 513 512" xmlns="http://www.w3.org/2000/svg" xmlns:xlink="http://www.w3.org/1999/xlink"><radialGradient id="sensors-a" cx="0" cy="0" gradientTransform="matrix(111 0 0 41.0573 1402 1556.04)" gradientUnits="userSpaceOnUse" r="1"><stop offset="0" stop-color="#fff"/><stop offset=".25" stop-color="#ff6062"/><stop offset=".49" stop-color="#ff2628"/><stop offset=".78" stop-color="#ff0b0d" stop-opacity=".3"/><stop offset="1" stop-color="#ff0002" stop-opacity="0"/></radialGradient><radialGradient id="sensors-b" cx="0" cy="0" gradientTransform="matrix(111 0 0 41.0573 1402 1556.04)" gradientUnits="userSpaceOnUse" r="1"><stop offset="0" stop-color="#fff"/><stop offset=".52" stop-color="#fff" stop-opacity=".27"/><stop offset="1" stop-color="#fff" stop-opacity="0"/></radialGradient><clipPath id="sensors-c"><path clip-rule="evenodd" d="m-1 1261h512v512h-512z"/></clipPath><g transform="translate(1.33 -1261)"><path d="m-1 1261h512v512h-512z" fill="none"/><g clip-path="url(#sensors-c)"><path d="m1507.33 791h466.167v210h-466.167z" fill="#3a195b" transform="matrix(1.09832 0 0 1.19048 -1656.53 450.333)"/><path d="m2019.33 771-22.91 20v210l22.91 20zm-489.08 20-22.92-20v250l22.92-20z" fill="#2f1c48" transform="translate(-1508.33 621)"/><path d="m1507.33 791h466.167v210h-466.167z" fill="#523b72" transform="translate(-1485.42 621)"/><g fill="#77e662" stroke="#818181" stroke-width="3.96"><circle cx="113" cy="256" r="11" transform="translate(-23 1194.5)"/><circle cx="113" cy="256" r="11" transform="translate(-23 1261)"/><circle cx="113" cy="256" r="11" transform="translate(-23 1327.5)"/><circle cx="113" cy="256" r="11" transform="translate(306 1194.5)"/><circle cx="113" cy="256" r="11" transform="translate(306 1261)"/><circle cx="113" cy="256" r="11" transform="translate(306 1327.5)"/></g><path d="m1973.5 771-466.17 20v210l466.17 20z" fill="#694c96" transform="matrix(.193243 0 0 1 -126.365 621)"/><path d="m1973.5 771-466.17 20v210l466.17 20z" fill="#422867" transform="matrix(-.193243 0 0 1 636.365 621)"/><g transform="matrix(1.10823 0 0 1.10823 -1298.73 -207.443)"><path d="m1513 1532.52c0-12.98-10.54-23.52-23.52-23.52h-174.96c-12.98 0-23.52 10.54-23.52 23.52v47.04c0 12.98 10.54 23.52 23.52 23.52h174.96c12.98 0 23.52-10.54 23.52-23.52z" fill="#343434"/><path d="m1489.63 1509h.15.15l.16.01h.15l.15.01h.15l.15.01.15.01.15.01.15.01.15.01.15.01.15.01.15.02.14.01.15.02.15.01.15.02.14.02.15.02.15.02.14.02.15.02.15.02.14.03.15.02.14.03.15.02.14.03.14.03.15.03.14.03.14.03.15.03.14.03.14.04.14.03.14.03.15.04.14.04.14.04.14.03.14.04.14.04.13.04.14.05.14.04.14.04.14.05.13.04.14.05.14.04.13.05.14.05.13.05.14.05.13.05.14.05.13.05.13.06.14.05.13.05.13.06.13.06.13.05.14.06.13.06.13.06.12.06.13.06.13.06.13.06.13.07.13.06.12.07.13.06.13.07.12.06.13.07.12.07.13.07.12.07.12.07.13.07.12.07.12.07.12.08.12.07.12.08.12.07.12.08.12.07.12.08.12.08.12.08.11.08.12.08.12.08.11.08.12.08.11.09.11.08.12.08.11.09.11.09.12.08.11.09.11.09.11.08.11.09.11.09.11.09.1.1.11.09.11.09.11.09.1.09.11.1.1.09.1.1.11.09.1.1.1.1.11.1.1.09.1.1.1.1.1.1.1.1.09.1.1.11.1.1.1.1.09.11.1.1.09.1.1.11.09.11.09.1.09.11.09.11.1.1.09.11.09.11.09.11.08.11.09.11.09.11.08.12.09.11.09.11.08.12.08.11.09.11.08.12.08.11.08.12.08.12.08.11.08.12.08.12.08.12.07.12.08.12.07.12.08.12.07.12.08.12.07.12.07.12.07.13.07.12.07.12.07.13.07.12.07.13.06.12.07.13.06.13.07.12.06.13.07.13.06.13.06.13.06.13.06.12.06.13.06.14.06.13.05.13.06.13.06.13.05.13.05.14.06.13.05.13.05.14.05.13.05.14.05.13.05.14.05.13.04.14.05.14.04.13.05.14.04.14.04.14.05.14.04.13.04.14.04.14.03.14.04.14.04.14.04.15.03.14.03.14.04.14.03.14.03.15.03.14.03.14.03.15.03.14.03.14.02.15.03.14.02.15.03.14.02.15.02.15.02.14.02.15.02.15.02.14.02.15.01.15.02.15.01.15.02.14.01.15.01.15.01.15.01.15.01.15.01.15.01.15v.15l.01.15v.15l.01.16v.15.15.15 47.04.15.15.16l-.01.15v.15l-.01.15v.15l-.01.15-.01.15-.01.15-.01.15-.01.15-.01.15-.01.15-.02.15-.01.14-.02.15-.01.15-.02.15-.02.14-.02.15-.02.15-.02.14-.02.15-.02.15-.03.14-.02.15-.03.14-.02.15-.03.14-.03.14-.03.15-.03.14-.03.14-.03.15-.03.14-.04.14-.03.14-.03.14-.04.14-.04.15-.04.14-.03.14-.04.14-.04.13-.04.14-.05.14-.04.14-.04.14-.05.14-.04.13-.05.14-.04.14-.05.13-.05.14-.05.13-.05.14-.05.13-.05.14-.05.13-.06.13-.05.14-.05.13-.06.13-.06.13-.05.13-.06.14-.06.13-.06.13-.06.13-.06.12-.06.13-.06.13-.07.13-.06.13-.07.12-.06.13-.07.13-.06.12-.07.13-.07.12-.07.13-.07.12-.07.12-.07.13-.07.12-.07.12-.08.12-.07.12-.08.12-.07.12-.08.12-.07.12-.08.12-.08.12-.08.12-.08.11-.08.12-.08.12-.08.11-.08.12-.09.11-.08.12-.08.11-.09.11-.09.11-.08.12-.09.11-.09.11-.08.11-.09.11-.09.11-.09.11-.1.1-.09.11-.09.11-.09.11-.09.1-.1.11-.09.1-.1.11-.09.1-.1.1-.1.1-.1.11-.09.1-.1.1-.1.1-.1.1-.1.1-.1.1-.11.09-.1.1-.1.1-.11.09-.1.1-.1.09-.11.1-.1.09-.11.09-.11.09-.11.1-.1.09-.11.09-.11.09-.11.08-.11.09-.11.09-.11.09-.12.08-.11.09-.11.08-.12.09-.11.08-.11.09-.12.08-.11.08-.12.08-.12.08-.11.08-.12.08-.12.08-.12.08-.12.07-.12.08-.12.07-.12.08-.12.07-.12.08-.12.07-.12.07-.13.07-.12.07-.12.07-.13.07-.12.07-.13.07-.12.06-.13.07-.13.07-.12.06-.13.06-.13.07-.13.06-.13.06-.13.06-.12.06-.13.06-.13.06-.14.06-.13.05-.13.06-.13.06-.13.05-.14.05-.13.06-.13.05-.14.05-.13.05-.14.05-.13.05-.14.05-.13.05-.14.04-.14.05-.13.04-.14.05-.14.04-.14.04-.14.05-.13.04-.14.04-.14.04-.14.04-.14.03-.14.04-.15.04-.14.03-.14.03-.14.04-.14.03-.15.03-.14.03-.14.03-.15.03-.14.03-.14.03-.15.02-.14.03-.15.02-.14.03-.15.02-.15.02-.14.02-.15.02-.15.02-.14.02-.15.02-.15.01-.15.02-.14.01-.15.02-.15.01-.15.01-.15.01-.15.01-.15.01-.15.01-.15.01h-.15l-.15.01h-.15l-.16.01h-.15-.15-.15-174.96-.15-.15-.15l-.16-.01h-.15l-.15-.01h-.15l-.15-.01-.15-.01-.15-.01-.15-.01-.15-.01-.15-.01-.15-.01-.14-.02-.15-.01-.15-.02-.15-.01-.15-.02-.14-.02-.15-.02-.15-.02-.14-.02-.15-.02-.15-.02-.14-.03-.15-.02-.14-.03-.15-.02-.14-.03-.14-.03-.15-.03-.14-.03-.14-.03-.15-.03-.14-.03-.14-.04-.14-.03-.14-.03-.15-.04-.14-.04-.14-.03-.14-.04-.14-.04-.14-.04-.13-.04-.14-.05-.14-.04-.14-.04-.14-.05-.13-.04-.14-.05-.14-.04-.13-.05-.14-.05-.13-.05-.14-.05-.13-.05-.14-.05-.13-.05-.13-.06-.14-.05-.13-.05-.13-.06-.13-.06-.13-.05-.13-.06-.14-.06-.13-.06-.12-.06-.13-.06-.13-.06-.13-.06-.13-.07-.13-.06-.12-.06-.13-.07-.13-.07-.12-.06-.13-.07-.12-.07-.13-.07-.12-.07-.12-.07-.13-.07-.12-.07-.12-.07-.12-.08-.12-.07-.12-.08-.12-.07-.12-.08-.12-.07-.12-.08-.12-.08-.12-.08-.11-.08-.12-.08-.12-.08-.11-.08-.12-.08-.11-.09-.11-.08-.12-.09-.11-.08-.11-.09-.12-.08-.11-.09-.11-.09-.11-.09-.11-.08-.11-.09-.11-.09-.1-.09-.11-.1-.11-.09-.1-.09-.11-.09-.11-.1-.1-.09-.1-.1-.11-.09-.1-.1-.1-.1-.11-.09-.1-.1-.1-.1-.1-.1-.1-.1-.1-.1-.09-.1-.1-.11-.1-.1-.1-.1-.09-.1-.1-.11-.09-.1-.1-.11-.09-.1-.09-.11-.09-.11-.09-.11-.1-.1-.09-.11-.09-.11-.09-.11-.08-.11-.09-.11-.09-.11-.08-.12-.09-.11-.09-.11-.08-.11-.08-.12-.09-.11-.08-.12-.08-.11-.08-.12-.08-.12-.08-.11-.08-.12-.08-.12-.08-.12-.07-.12-.08-.12-.07-.12-.08-.12-.07-.12-.08-.12-.07-.12-.07-.12-.07-.13-.07-.12-.07-.12-.07-.13-.07-.12-.07-.13-.06-.12-.07-.13-.06-.13-.07-.12-.06-.13-.07-.13-.06-.13-.06-.13-.06-.12-.06-.13-.06-.13-.06-.13-.06-.14-.05-.13-.06-.13-.06-.13-.05-.13-.05-.14-.06-.13-.05-.13-.05-.14-.05-.13-.05-.14-.05-.13-.05-.14-.05-.13-.04-.14-.05-.14-.04-.13-.05-.14-.04-.14-.04-.14-.05-.14-.04-.14-.04-.13-.04-.14-.03-.14-.04-.14-.04-.15-.04-.14-.03-.14-.03-.14-.04-.14-.03-.14-.03-.15-.03-.14-.03-.14-.03-.15-.03-.14-.03-.14-.02-.15-.03-.14-.02-.15-.03-.14-.02-.15-.02-.15-.02-.14-.02-.15-.02-.15-.02-.14-.02-.15-.01-.15-.02-.15-.01-.14-.02-.15-.01-.15-.01-.15-.01-.15-.01-.15-.01-.15-.01-.15-.01-.15v-.15l-.01-.15v-.15l-.01-.15v-.16-.15-.15-47.04-.15-.15-.15l.01-.16v-.15l.01-.15v-.15l.01-.15.01-.15.01-.15.01-.15.01-.15.01-.15.01-.15.02-.14.01-.15.02-.15.01-.15.02-.15.02-.14.02-.15.02-.15.02-.14.02-.15.02-.15.03-.14.02-.15.03-.14.02-.15.03-.14.03-.14.03-.15.03-.14.03-.14.03-.15.03-.14.04-.14.03-.14.03-.14.04-.15.04-.14.04-.14.03-.14.04-.14.04-.14.04-.13.05-.14.04-.14.04-.14.05-.14.04-.13.05-.14.04-.14.05-.13.05-.14.05-.13.05-.14.05-.13.05-.14.05-.13.06-.13.05-.14.05-.13.06-.13.06-.13.05-.13.06-.13.06-.14.06-.13.06-.12.06-.13.06-.13.06-.13.07-.13.06-.13.07-.12.06-.13.07-.13.06-.12.07-.13.07-.12.07-.13.07-.12.07-.12.07-.13.07-.12.07-.12.08-.12.07-.12.08-.12.07-.12.08-.12.07-.12.08-.12.08-.12.08-.12.08-.11.08-.12.08-.12.08-.11.08-.12.09-.11.08-.11.08-.12.09-.11.09-.11.08-.12.09-.11.09-.11.08-.11.09-.11.09-.11.09-.11.1-.1.09-.11.09-.11.09-.1.09-.11.1-.11.09-.1.1-.1.09-.11.1-.1.1-.1.1-.11.09-.1.1-.1.1-.1.1-.1.1-.1.1-.09.11-.1.1-.1.1-.1.11-.09.1-.1.1-.09.11-.1.11-.09.1-.09.11-.09.11-.09.1-.1.11-.09.11-.09.11-.09.11-.08.11-.09.11-.09.12-.08.11-.09.11-.09.12-.08.11-.08.11-.09.12-.08.11-.08.12-.08.12-.08.11-.08.12-.08.12-.08.12-.08.12-.07.12-.08.12-.07.12-.08.12-.07.12-.08.12-.07.12-.07.13-.07.12-.07.12-.07.13-.07.12-.07.13-.07.12-.06.13-.07.13-.06.12-.07.13-.06.13-.07.13-.06.13-.06.13-.06.12-.06.13-.06.14-.06.13-.06.13-.05.13-.06.13-.06.13-.05.14-.05.13-.06.13-.05.14-.05.13-.05.14-.05.13-.05.14-.05.13-.05.14-.04.14-.05.13-.04.14-.05.14-.04.14-.04.14-.05.13-.04.14-.04.14-.04.14-.03.14-.04.14-.04.15-.04.14-.03.14-.03.14-.04.14-.03.15-.03.14-.03.14-.03.15-.03.14-.03.14-.03.15-.02.14-.03.15-.02.14-.03.15-.02.15-.02.14-.02.15-.02.15-.02.14-.02.15-.02.15-.01.15-.02.15-.01.14-.02.15-.01.15-.01.15-.01.15-.01.15-.01.15-.01.15-.01h.15l.15-.01h.15l.16-.01h.15.15.15 174.96zm-175.1 9.4h-.1-.09-.09-.1l-.09.01h-.09-.09l-.09.01h-.09l-.09.01h-.1l-.09.01-.08.01-.09.01h-.09l-.09.01-.09.01-.09.01-.09.01-.09.01-.09.02-.08.01-.09.01-.09.01-.08.02-.09.01-.09.02-.09.01-.08.02-.09.01-.09.02-.08.02-.09.01-.08.02-.09.02-.08.02-.09.02-.08.02-.09.02-.08.02-.09.03-.08.02-.08.02-.09.02-.08.03-.08.02-.09.03-.08.02-.08.03-.08.02-.08.03-.09.03-.08.03-.07.02-.09.03-.08.03-.08.03-.08.03-.08.04-.08.03-.08.03-.08.03-.08.03-.08.04-.08.03-.08.03-.07.04-.08.03-.08.04-.08.03-.07.04-.08.04-.08.03-.07.04-.08.04-.07.04-.08.04-.08.04-.07.04-.08.04-.07.04-.08.04-.07.04-.08.05-.07.04-.07.04-.08.04-.07.05-.07.04-.08.05-.07.05-.07.04-.07.04-.07.05-.07.05-.07.05-.07.05-.07.04-.07.05-.07.05-.07.05-.07.05-.07.05-.07.05-.07.05-.06.05-.07.06-.07.05-.06.05-.07.06-.07.05-.06.05-.07.06-.07.05-.06.06-.06.05-.07.06-.06.05-.06.06-.07.06-.06.06-.06.05-.07.06-.06.06-.06.06-.06.06-.06.06-.06.06-.06.06-.06.06-.06.06-.06.06-.06.06-.06.07-.05.06-.06.06-.06.07-.05.06-.06.06-.06.07-.05.06-.06.07-.05.06-.06.07-.05.06-.05.07-.06.07-.05.06-.05.07-.06.07-.05.06-.05.07-.05.07-.05.07-.05.07-.05.07-.05.07-.05.07-.04.07-.05.06-.05.08-.05.07-.04.07-.05.07-.05.07-.04.07-.05.08-.04.07-.05.07-.04.08-.04.07-.04.08-.05.07-.04.07-.04.08-.04.07-.04.08-.04.07-.04.08-.04.07-.04.08-.04.08-.03.07-.04.08-.04.08-.04.07-.03.08-.04.08-.03.08-.04.07-.03.08-.03.08-.04.08-.03.08-.03.08-.03.08-.04.08-.03.08-.03.08-.03.08-.03.08-.02.08-.03.08-.03.09-.03.08-.02.08-.03.08-.03.09-.02.07-.03.09-.02.08-.03.08-.02.09-.02.08-.02.08-.03.09-.02.08-.02.09-.02.08-.02.09-.02.08-.02.09-.02.08-.01.09-.02.08-.02.09-.01.09-.02.08-.01.09-.02.09-.01.09-.02.08-.01.09-.01.09-.01.08-.02.09-.01.09-.01.09-.01.09-.01.09-.01.09v.09l-.01.09-.01.08-.01.09v.1l-.01.09v.09l-.01.09v.09.09l-.01.09v.1.09.09.11 47 .11.1.09.09l.01.09v.09.09l.01.09v.09l.01.1v.09l.01.08.01.09.01.09v.09l.01.09.01.09.01.09.01.09.01.09.02.09.01.08.01.09.01.09.02.08.01.09.02.09.01.09.02.08.01.09.02.09.02.08.01.09.02.08.02.09.02.08.02.09.02.08.02.09.02.08.03.08.02.09.02.08.02.09.03.08.02.08.03.08.02.09.03.08.03.08.02.08.03.09.03.08.03.08.02.08.03.08.03.08.03.08.03.08.04.08.03.08.03.08.03.08.04.08.03.08.03.08.04.07.03.08.04.08.03.08.04.07.04.08.04.08.03.07.04.08.04.08.04.07.04.08.04.07.04.08.04.07.04.08.04.07.05.08.04.07.04.08.04.07.05.07.04.07.05.07.04.08.05.07.05.07.04.07.05.07.05.07.05.07.04.07.05.07.05.07.05.07.05.07.05.07.05.07.05.07.05.06.06.07.05.07.05.06.06.07.05.07.05.06.06.07.05.06.06.07.05.06.06.07.06.06.05.06.06.07.06.06.05.06.06.07.06.06.06.06.06.06.06.06.06.06.06.06.06.06.06.06.06.06.06.06.06.05.07.06.06.06.06.06.07.05.06.06.07.06.06.05.07.06.06.05.07.06.06.05.07.05.06.06.07.05.07.05.07.06.06.05.07.05.07.05.07.05.07.05.07.05.07.05.07.05.07.05.07.04.07.05.07.05.07.04.07.05.07.05.07.04.08.05.07.04.08.05.07.04.07.04.07.04.08.05.07.04.08.04.07.04.08.04.07.04.08.04.07.04.08.04.08.04.07.04.08.03.08.04.07.04.08.03.08.04.08.03.07.04.08.03.08.03.08.04.08.03.08.03.08.03.08.04.08.03.08.03.08.03.08.03.09.02.07.03.09.03.08.03.08.03.08.02.08.03.08.02.09.03.08.02.08.03.09.02.08.02.08.03.09.02.08.02.09.02.08.02.09.02.08.02.09.02.08.02.09.01.09.02.08.02.09.01.08.02.09.02.09.01.09.01.08.02.09.01.09.01.09.02.08.01.09.01.09.01.09.01.09.01.09.01h.09l.09.01.09.01.09.01h.09l.08.01h.1l.09.01h.09.09l.09.01h.09.1.09.1 174.94.1.09.1.09l.09-.01h.09.09l.09-.01h.1l.08-.01h.09l.09-.01.09-.01.09-.01h.09l.09-.01.09-.01.09-.01.09-.01.09-.01.08-.01.09-.02.09-.01.09-.01.08-.02.09-.01.09-.01.09-.02.08-.02.09-.01.08-.02.09-.02.09-.01.08-.02.09-.02.08-.02.09-.02.08-.02.09-.02.08-.02.09-.02.08-.03.08-.02.09-.02.08-.03.08-.02.09-.03.08-.02.08-.03.08-.02.08-.03.09-.03.08-.03.07-.03.09-.02.08-.03.08-.03.08-.03.08-.03.08-.04.08-.03.08-.03.08-.03.08-.04.08-.03.08-.03.07-.04.08-.03.08-.04.08-.03.08-.04.07-.04.08-.03.07-.04.08-.04.08-.04.07-.04.08-.04.07-.04.08-.04.08-.04.07-.04.07-.04.08-.05.07-.04.07-.04.07-.04.08-.05.07-.04.08-.05.07-.04.07-.05.07-.05.07-.04.07-.05.07-.05.07-.04.07-.05.07-.05.07-.05.07-.05.07-.05.07-.05.07-.05.07-.05.06-.05.07-.06.07-.05.07-.05.06-.05.07-.06.06-.05.07-.06.06-.05.07-.06.06-.05.07-.06.06-.06.07-.05.06-.06.06-.06.07-.06.06-.05.06-.06.06-.06.06-.06.06-.06.06-.06.06-.06.06-.06.06-.06.06-.06.06-.06.06-.07.05-.06.06-.06.06-.07.05-.06.06-.06.06-.07.05-.06.06-.07.05-.06.06-.07.05-.06.06-.07.05-.07.05-.06.05-.07.06-.07.05-.06.05-.07.05-.07.05-.07.05-.07.05-.07.05-.07.05-.07.04-.07.05-.07.05-.07.05-.07.04-.07.05-.07.05-.07.04-.08.05-.07.04-.07.05-.07.04-.07.04-.08.05-.07.04-.08.04-.07.04-.08.04-.07.04-.08.04-.07.04-.08.04-.07.04-.08.04-.08.03-.07.04-.08.04-.08.04-.07.03-.08.04-.08.03-.08.04-.07.03-.08.03-.08.04-.08.03-.08.03-.08.03-.08.03-.08.04-.08.03-.08.03-.08.03-.08.02-.08.03-.08.03-.08.03-.09.02-.08.03-.08.03-.08.02-.09.03-.08.02-.08.03-.08.02-.09.02-.08.02-.09.03-.08.02-.08.02-.09.02-.08.02-.09.02-.08.02-.09.02-.08.01-.09.02-.08.02-.09.01-.09.02-.08.01-.09.02-.09.01-.09.02-.08.01-.09.01-.09.02-.08.01-.09.01-.09.01-.09.01-.09.01-.09.01-.09v-.09l.01-.09.01-.09.01-.08v-.09l.01-.1v-.09l.01-.09v-.09-.09l.01-.09v-.09-.09-.1-.11-47-.11-.09-.09-.1l-.01-.09v-.09-.09l-.01-.09v-.09l-.01-.09v-.1l-.01-.09-.01-.08-.01-.09v-.09l-.01-.09-.01-.09-.01-.09-.01-.09-.01-.09-.01-.09-.02-.08-.01-.09-.01-.09-.02-.08-.01-.09-.02-.09-.01-.09-.02-.08-.01-.09-.02-.09-.02-.08-.01-.09-.02-.08-.02-.09-.02-.08-.02-.09-.02-.08-.02-.09-.02-.08-.03-.09-.02-.08-.02-.08-.02-.09-.03-.08-.02-.08-.03-.09-.02-.07-.03-.09-.03-.08-.02-.08-.03-.08-.03-.09-.03-.08-.02-.08-.03-.08-.03-.08-.03-.08-.04-.08-.03-.08-.03-.08-.03-.08-.03-.08-.04-.08-.03-.08-.03-.08-.04-.07-.03-.08-.04-.08-.03-.08-.04-.07-.04-.08-.04-.08-.03-.07-.04-.08-.04-.08-.04-.07-.04-.08-.04-.07-.04-.08-.04-.07-.04-.08-.04-.07-.04-.07-.05-.08-.04-.07-.04-.08-.05-.07-.04-.07-.05-.08-.04-.07-.05-.07-.05-.07-.04-.07-.05-.07-.05-.08-.05-.06-.04-.07-.05-.07-.05-.07-.05-.07-.05-.07-.05-.07-.05-.07-.05-.07-.05-.06-.06-.07-.05-.07-.05-.06-.05-.07-.06-.07-.05-.06-.06-.07-.05-.06-.06-.07-.05-.06-.06-.07-.06-.06-.05-.06-.06-.07-.06-.06-.05-.06-.06-.07-.06-.06-.06-.06-.06-.06-.06-.06-.06-.06-.06-.06-.06-.06-.06-.06-.06-.06-.06-.06-.07-.06-.06-.05-.06-.06-.07-.06-.06-.06-.06-.05-.07-.06-.06-.05-.06-.06-.07-.05-.07-.06-.06-.05-.07-.05-.07-.06-.06-.05-.07-.05-.07-.06-.06-.05-.07-.05-.07-.05-.07-.05-.07-.05-.07-.05-.07-.05-.07-.05-.07-.04-.07-.05-.07-.05-.07-.05-.07-.05-.07-.04-.07-.04-.07-.05-.08-.05-.07-.04-.07-.05-.08-.04-.07-.04-.07-.04-.08-.05-.07-.04-.08-.04-.07-.04-.08-.04-.07-.04-.08-.04-.08-.04-.07-.04-.08-.04-.07-.04-.08-.03-.07-.04-.08-.04-.08-.03-.08-.04-.08-.03-.07-.04-.08-.03-.08-.03-.08-.04-.08-.03-.08-.03-.08-.03-.08-.03-.08-.04-.08-.03-.08-.03-.08-.03-.09-.03-.07-.02-.08-.03-.09-.03-.08-.03-.08-.02-.08-.03-.08-.02-.09-.03-.08-.02-.08-.03-.09-.02-.08-.02-.08-.02-.09-.03-.08-.02-.09-.02-.08-.02-.09-.02-.08-.02-.09-.02-.08-.02-.09-.01-.08-.02-.09-.02-.09-.01-.08-.02-.09-.01-.09-.02-.09-.01-.08-.02-.09-.01-.09-.01-.08-.01-.09-.02-.09-.01-.09-.01-.09-.01-.09-.01-.09-.01h-.09l-.09-.01-.08-.01-.09-.01h-.1l-.09-.01h-.09l-.09-.01h-.09-.09l-.09-.01h-.09-.1-.09-.1z" fill="#202020"/></g><path d="m1513 1513.7c0-2.59-2.11-4.7-4.7-4.7h-212.6c-2.59 0-4.7 2.11-4.7 4.7v84.68c0 2.59 2.11 4.7 4.7 4.7h212.6c2.59 0 4.7-2.11 4.7-4.7z" fill="#151515" transform="matrix(.566364 0 0 .566364 -539.042 635.715)"/><path d="m1513 1513.7c0-2.59-.79-4.7-1.77-4.7h-218.46c-.98 0-1.77 2.11-1.77 4.7v84.68c0 2.59.79 4.7 1.77 4.7h218.46c.98 0 1.77-2.11 1.77-4.7z" fill="url(#sensors-a)" transform="matrix(1.00566 0 0 .37789 -1154.94 928.988)"/><path d="m1513 1513.7c0-2.59-.59-4.7-1.32-4.7h-219.36c-.73 0-1.32 2.11-1.32 4.7v84.68c0 2.59.59 4.7 1.32 4.7h219.36c.73 0 1.32-2.11 1.32-4.7z" fill="url(#sensors-b)" transform="matrix(.306772 .469648 -.131498 .0858938 29.5216 724.899)"/><path d="m1513 1513.7c0-2.59-.59-4.7-1.32-4.7h-219.36c-.73 0-1.32 2.11-1.32 4.7v84.68c0 2.59.59 4.7 1.32 4.7h219.36c.73 0 1.32-2.11 1.32-4.7z" fill="url(#sensors-b)" transform="matrix(-.513284 .226313 -.063366 -.143716 1073.22 1423.34)"/></g></g></svg>