<?xml version="1.0" encoding="UTF-8" standalone="no"?>
<!DOCTYPE svg PUBLIC "-//W3C//DTD SVG 1.1//EN" "http://www.w3.org/Graphics/SVG/1.1/DTD/svg11.dtd">
<svg width="100%" height="100%" viewBox="0 0 80 80" version="1.1" xmlns="http://www.w3.org/2000/svg" xmlns:xlink="http://www.w3.org/1999/xlink" xml:space="preserve" style="fill-rule:evenodd;clip-rule:evenodd;stroke-linejoin:round;stroke-miterlimit:1.41421;">
    <g transform="matrix(1,0,0,1,-576,-1019)">
        <path d="M646,1087L586,1087L586,1049L588,1049C588,1049 588,1049 588,1049C588,1039.06 596.058,1031 605.998,1031C612.398,1031 619.602,1031 626.002,1031C635.942,1031 644,1039.06 644,1049L644,1049L646,1049L646,1087ZM644,1051L588,1051L588,1085L644,1085L644,1051ZM592,1077L594,1077L594,1079L598,1079L598,1081L592,1081L592,1077ZM600,1079L602,1079L602,1077L604,1077L604,1079L606,1079L606,1081L600,1081L600,1079ZM608,1077L612,1077L612,1081L608,1081L608,1077ZM616,1077L620,1077L620,1079L618,1079L618,1081L614,1081L614,1079L616,1079L616,1077ZM622,1079L630,1079L630,1081L622,1081L622,1079ZM632,1081L632,1079L636,1079L636,1077L638,1077L638,1081L632,1081ZM622,1071L590,1071L590,1053L622,1053L622,1071ZM620,1055L592,1055L592,1069L620,1069L620,1055ZM642,1049C642,1040.16 634.837,1033 626,1033C619.647,1033 612.353,1033 606,1033C597.163,1033 590,1040.16 590,1049C590,1049 590,1049 590,1049L642,1049C642,1049 642,1049 642,1049Z" style="fill:rgb(235,235,235);"/>
    </g>
</svg>
