<?xml version="1.0" encoding="UTF-8" standalone="no"?>
<!DOCTYPE svg PUBLIC "-//W3C//DTD SVG 1.1//EN" "http://www.w3.org/Graphics/SVG/1.1/DTD/svg11.dtd">
<svg width="100%" height="100%" viewBox="0 0 80 80" version="1.1" xmlns="http://www.w3.org/2000/svg" xmlns:xlink="http://www.w3.org/1999/xlink" xml:space="preserve" style="fill-rule:evenodd;clip-rule:evenodd;stroke-linejoin:round;stroke-miterlimit:1.41421;">
    <g transform="matrix(1,0,0,1,-1280,-634)">
        <path d="M1294,642L1346,642L1346,642.005L1351.99,647.997L1351.99,648L1352,648L1352,700L1352,700L1346,705.995L1346,706L1294,706L1294,705.997L1294,706L1288,700.003L1288,700L1288,700L1288,648L1288.01,648L1288,647.997L1290,646L1290,646L1290,646L1294,642L1294,642L1294,642L1294,642L1294,642ZM1346,698L1346,702L1292.83,702L1294.83,704L1345.17,704L1350,699.166L1350,698L1346,698ZM1344,648L1290.83,648L1290,648.828L1290,699.175L1290.83,700L1344,700L1344,648ZM1350,694L1346,694L1346,696L1350,696L1350,694ZM1316,694L1314,694L1314,690L1316,690L1316,694ZM1308,694L1306,694L1306,692L1304,692L1304,690L1308,690L1308,694ZM1312,694L1310,694L1310,690L1312,690L1312,694ZM1326,692L1328,692L1328,694L1324,694L1324,690L1326,690L1326,692ZM1338,690L1340,690L1340,694L1338,694L1336,694L1336,690L1338,690ZM1332,692L1334,692L1334,694L1330,694L1330,690L1332,690L1332,692ZM1350,690L1346,690L1346,692L1350,692L1350,690ZM1322,692L1318,692L1318,690L1322,690L1322,692ZM1350,662L1346,662L1346,688L1350,688L1350,662ZM1312,688L1310,688L1310,684L1312,684L1312,688ZM1300,686L1302,686L1302,688L1298,688L1298,684L1300,684L1300,686ZM1308,686L1306,686L1306,688L1304,688L1304,684L1308,684L1308,686ZM1296,682L1292,682L1292,680L1294,680L1294,678L1296,678L1296,682ZM1300,682L1298,682L1298,678L1300,678L1300,682ZM1296,676L1294,676L1292,676L1292,672L1296,672L1296,676ZM1332,676L1330,676L1330,674L1328,674L1328,672L1332,672L1332,676ZM1314,676L1312,676L1312,672L1314,672L1314,676ZM1320,674L1318,674L1318,676L1316,676L1316,672L1320,672L1320,674ZM1326,674L1324,674L1324,676L1322,676L1322,672L1326,672L1326,674ZM1308,676L1304,676L1304,672L1308,672L1308,676ZM1300,674L1302,674L1302,676L1298,676L1298,672L1300,672L1300,674ZM1312,670L1310,670L1310,666L1312,666L1312,670ZM1300,668L1302,668L1302,670L1298,670L1298,666L1300,666L1300,668ZM1306,668L1308,668L1308,670L1304,670L1304,666L1306,666L1306,668ZM1302,662L1300,662L1300,664L1298,664L1298,660L1302,660L1302,662ZM1308,662L1306,662L1306,664L1304,664L1304,660L1308,660L1308,662ZM1318,664L1316,664L1316,660L1318,660L1318,664ZM1322,664L1320,664L1320,660L1322,660L1322,664ZM1314,664L1310,664L1310,662L1312,662L1312,660L1314,660L1314,664ZM1328,664L1326,664L1326,662L1324,662L1324,660L1328,660L1328,664ZM1350,652L1346,652L1346,660L1350,660L1350,652ZM1296,658L1292,658L1292,656L1294,656L1294,654L1296,654L1296,658ZM1314,658L1310,658L1310,654L1314,654L1314,658ZM1302,658L1298,658L1298,654L1302,654L1302,658ZM1308,658L1306,658L1306,656L1308,656L1308,658ZM1306,656L1304,656L1304,654L1306,654L1306,656ZM1345.14,644L1294.83,644L1292.83,646L1346,646L1346,650L1350,650L1350,648.834L1348.56,647.396L1348.55,647.411L1345.14,644Z" style="fill:rgb(235,235,235);"/>
    </g>
</svg>
