<?xml version="1.0" encoding="UTF-8" standalone="no"?>
<!DOCTYPE svg PUBLIC "-//W3C//DTD SVG 1.1//EN" "http://www.w3.org/Graphics/SVG/1.1/DTD/svg11.dtd">
<svg width="100%" height="100%" viewBox="0 0 39 39" version="1.1" xmlns="http://www.w3.org/2000/svg" xmlns:xlink="http://www.w3.org/1999/xlink" xml:space="preserve" style="fill-rule:evenodd;clip-rule:evenodd;stroke-linejoin:round;stroke-miterlimit:1.41421;">
    <path d="M21.916,4.188L21.916,0L24.815,2.899L24.815,4.937C29.097,6.502 32.498,9.903 34.063,14.185L36.101,14.185L39,17.084L34.812,17.084C34.936,17.871 35,18.678 35,19.5C35,20.322 34.936,21.129 34.812,21.916L39,21.916L36.101,24.815L34.063,24.815C32.498,29.097 29.097,32.498 24.815,34.063L24.815,36.101L21.916,39L21.916,34.812C21.129,34.936 20.322,35 19.5,35C18.678,35 17.871,34.936 17.084,34.812L17.084,39L14.185,36.101L14.185,34.063C9.903,32.498 6.502,29.097 4.937,24.815L2.899,24.815L0,21.916L4.188,21.916C4.064,21.129 4,20.322 4,19.5C4,18.678 4.064,17.871 4.188,17.084L0,17.084L2.899,14.185L4.937,14.185C6.502,9.903 9.903,6.502 14.185,4.937L14.185,2.899L17.084,0L17.084,4.188C17.871,4.064 18.678,4 19.5,4C20.322,4 21.129,4.064 21.916,4.188ZM24.815,36.101L36.101,24.815L24.815,36.101ZM21.916,7.234C21.134,7.08 20.326,7 19.5,7C18.674,7 17.866,7.08 17.084,7.234L17.084,17.084L7.234,17.084C7.08,17.866 7,18.674 7,19.5C7,20.326 7.08,21.134 7.234,21.916L17.084,21.916L17.084,31.766C17.866,31.92 18.674,32 19.5,32C20.326,32 21.134,31.92 21.916,31.766L21.916,21.916L31.766,21.916C31.92,21.134 32,20.326 32,19.5C32,18.674 31.92,17.866 31.766,17.084L21.916,17.084L21.916,7.234ZM30.815,24.815L24.815,24.815L24.815,30.815C27.446,29.576 29.576,27.446 30.815,24.815ZM8.185,24.815C9.424,27.446 11.554,29.576 14.185,30.815L14.185,24.815L8.185,24.815ZM24.815,8.185L24.815,14.185L30.815,14.185C29.576,11.554 27.446,9.424 24.815,8.185ZM14.185,8.185C11.554,9.424 9.424,11.554 8.185,14.185L14.185,14.185L14.185,8.185Z" style="fill:rgb(255,0,0);"/>
</svg>
