<?xml version="1.0" encoding="UTF-8" standalone="no"?><!DOCTYPE svg PUBLIC "-//W3C//DTD SVG 1.1//EN" "http://www.w3.org/Graphics/SVG/1.1/DTD/svg11.dtd"><svg width="100%" height="100%" viewBox="0 0 45 45" version="1.1" xmlns="http://www.w3.org/2000/svg" xmlns:xlink="http://www.w3.org/1999/xlink" xml:space="preserve" xmlns:serif="http://www.serif.com/" style="fill-rule:evenodd;clip-rule:evenodd;stroke-linecap:round;stroke-linejoin:round;stroke-miterlimit:1.5;"><path d="M43.926,20.024c0,-0.807 -0.654,-1.461 -1.461,-1.461l-8.202,0l0,9.371l8.202,0c0.807,0 1.461,-0.654 1.461,-1.461l0,-6.449Z" style="fill:url(#green-emitter-gradient-1);"/><rect x="34.263" y="16.075" width="5.717" height="13.866" style="fill:url(#green-emitter-gradient-2);"/><path d="M37.693,13.698c0,-2.652 -2.149,-4.801 -4.801,-4.801l-25.134,0c-2.652,0 -4.801,2.149 -4.801,4.801l0,19.624c0,2.651 2.149,4.801 4.801,4.801l25.134,0c2.652,0 4.801,-2.15 4.801,-4.801l0,-19.624Z" style="fill:url(#green-emitter-gradient-3);stroke:#c5c5c5;stroke-width:1px;"/><path d="M32.236,33.236l0,4.386l-22.884,0l0,-4.386l22.884,0Zm0,-15.704l0,9.638l-22.884,0l0,-9.638l22.884,0Zm0,-8.131l0,3.314l-22.884,0l0,-3.314l22.884,0Z" style="fill:url(#green-emitter-gradient-4);"/><rect x="9.628" y="18.055" width="1.028" height="9.428" style="fill:#fff;fill-opacity:0.17;"/><rect x="10.628" y="18.055" width="1.028" height="9.428" style="fill-opacity:0.17;"/><rect x="11.628" y="18.055" width="1.028" height="9.428" style="fill:#fff;fill-opacity:0.17;"/><rect x="12.628" y="18.055" width="1.028" height="9.428" style="fill-opacity:0.17;"/><rect x="13.628" y="18.055" width="1.028" height="9.428" style="fill:#fff;fill-opacity:0.17;"/><rect x="14.628" y="18.055" width="1.028" height="9.428" style="fill-opacity:0.17;"/><rect x="15.628" y="18.055" width="1.028" height="9.428" style="fill:#fff;fill-opacity:0.17;"/><rect x="16.628" y="18.055" width="1.028" height="9.428" style="fill-opacity:0.17;"/><rect x="17.628" y="18.055" width="1.028" height="9.428" style="fill:#fff;fill-opacity:0.17;"/><rect x="18.628" y="18.055" width="1.028" height="9.428" style="fill-opacity:0.17;"/><rect x="19.628" y="18.055" width="1.028" height="9.428" style="fill:#fff;fill-opacity:0.17;"/><rect x="20.628" y="18.055" width="1.028" height="9.428" style="fill-opacity:0.17;"/><rect x="21.628" y="18.055" width="1.028" height="9.428" style="fill:#fff;fill-opacity:0.17;"/><rect x="22.628" y="18.055" width="1.028" height="9.428" style="fill-opacity:0.17;"/><rect x="23.628" y="18.055" width="1.028" height="9.428" style="fill:#fff;fill-opacity:0.17;"/><rect x="24.628" y="18.055" width="1.028" height="9.428" style="fill-opacity:0.17;"/><rect x="25.628" y="18.055" width="1.028" height="9.428" style="fill:#fff;fill-opacity:0.17;"/><rect x="26.628" y="18.055" width="1.028" height="9.428" style="fill-opacity:0.17;"/><rect x="27.628" y="18.055" width="1.028" height="9.428" style="fill:#fff;fill-opacity:0.17;"/><rect x="28.628" y="18.055" width="1.028" height="9.428" style="fill-opacity:0.17;"/><rect x="29.628" y="18.055" width="1.028" height="9.428" style="fill:#fff;fill-opacity:0.17;"/><rect x="30.628" y="18.055" width="1.028" height="9.428" style="fill-opacity:0.17;"/><rect x="9.628" y="9.401" width="1.028" height="3.719" style="fill:#fff;fill-opacity:0.17;"/><rect x="10.628" y="9.401" width="1.028" height="3.719" style="fill-opacity:0.17;"/><rect x="11.628" y="9.401" width="1.028" height="3.719" style="fill:#fff;fill-opacity:0.17;"/><rect x="12.628" y="9.401" width="1.028" height="3.719" style="fill-opacity:0.17;"/><rect x="13.628" y="9.401" width="1.028" height="3.719" style="fill:#fff;fill-opacity:0.17;"/><rect x="14.628" y="9.401" width="1.028" height="3.719" style="fill-opacity:0.17;"/><rect x="15.628" y="9.401" width="1.028" height="3.719" style="fill:#fff;fill-opacity:0.17;"/><rect x="16.628" y="9.401" width="1.028" height="3.719" style="fill-opacity:0.17;"/><rect x="17.628" y="9.401" width="1.028" height="3.719" style="fill:#fff;fill-opacity:0.17;"/><rect x="18.628" y="9.401" width="1.028" height="3.719" style="fill-opacity:0.17;"/><rect x="19.628" y="9.401" width="1.028" height="3.719" style="fill:#fff;fill-opacity:0.17;"/><rect x="20.628" y="9.401" width="1.028" height="3.719" style="fill-opacity:0.17;"/><rect x="21.628" y="9.401" width="1.028" height="3.719" style="fill:#fff;fill-opacity:0.17;"/><rect x="22.628" y="9.401" width="1.028" height="3.719" style="fill-opacity:0.17;"/><rect x="23.628" y="9.401" width="1.028" height="3.719" style="fill:#fff;fill-opacity:0.17;"/><rect x="24.628" y="9.401" width="1.028" height="3.719" style="fill-opacity:0.17;"/><rect x="25.628" y="9.401" width="1.028" height="3.719" style="fill:#fff;fill-opacity:0.17;"/><rect x="26.628" y="9.401" width="1.028" height="3.719" style="fill-opacity:0.17;"/><rect x="27.628" y="9.401" width="1.028" height="3.719" style="fill:#fff;fill-opacity:0.17;"/><rect x="28.628" y="9.401" width="1.028" height="3.719" style="fill-opacity:0.17;"/><rect x="29.628" y="9.401" width="1.028" height="3.719" style="fill:#fff;fill-opacity:0.17;"/><rect x="30.628" y="9.401" width="1.028" height="3.719" style="fill-opacity:0.17;"/><rect x="9.628" y="32.762" width="1.028" height="4.86" style="fill:#fff;fill-opacity:0.17;"/><rect x="10.628" y="32.762" width="1.028" height="4.86" style="fill-opacity:0.17;"/><rect x="11.628" y="32.762" width="1.028" height="4.86" style="fill:#fff;fill-opacity:0.17;"/><rect x="12.628" y="32.762" width="1.028" height="4.86" style="fill-opacity:0.17;"/><rect x="13.628" y="32.762" width="1.028" height="4.86" style="fill:#fff;fill-opacity:0.17;"/><rect x="14.628" y="32.762" width="1.028" height="4.86" style="fill-opacity:0.17;"/><rect x="15.628" y="32.762" width="1.028" height="4.86" style="fill:#fff;fill-opacity:0.17;"/><rect x="16.628" y="32.762" width="1.028" height="4.86" style="fill-opacity:0.17;"/><rect x="17.628" y="32.762" width="1.028" height="4.86" style="fill:#fff;fill-opacity:0.17;"/><rect x="18.628" y="32.762" width="1.028" height="4.86" style="fill-opacity:0.17;"/><rect x="19.628" y="32.762" width="1.028" height="4.86" style="fill:#fff;fill-opacity:0.17;"/><rect x="20.628" y="32.762" width="1.028" height="4.86" style="fill-opacity:0.17;"/><rect x="21.628" y="32.762" width="1.028" height="4.86" style="fill:#fff;fill-opacity:0.17;"/><rect x="22.628" y="32.762" width="1.028" height="4.86" style="fill-opacity:0.17;"/><rect x="23.628" y="32.762" width="1.028" height="4.86" style="fill:#fff;fill-opacity:0.17;"/><rect x="24.628" y="32.762" width="1.028" height="4.86" style="fill-opacity:0.17;"/><rect x="25.628" y="32.762" width="1.028" height="4.86" style="fill:#fff;fill-opacity:0.17;"/><rect x="26.628" y="32.762" width="1.028" height="4.86" style="fill-opacity:0.17;"/><rect x="27.628" y="32.762" width="1.028" height="4.86" style="fill:#fff;fill-opacity:0.17;"/><rect x="28.628" y="32.762" width="1.028" height="4.86" style="fill-opacity:0.17;"/><rect x="29.628" y="32.762" width="1.028" height="4.86" style="fill:#fff;fill-opacity:0.17;"/><rect x="30.628" y="32.762" width="1.028" height="4.86" style="fill-opacity:0.17;"/><path d="M32.715,16.507c0.609,0.08 1.039,0.568 1.065,1.163l0,9.814c-0.027,0.631 -0.527,1.139 -1.167,1.167l-24.153,0c-0.631,-0.028 -1.139,-0.527 -1.167,-1.167l0,-9.814c0.028,-0.631 0.527,-1.14 1.167,-1.168c8.085,0 16.178,-0.348 24.255,0.005Zm-23.087,9.809l21.818,0l0,-7.479l-21.818,0l0,7.479Z" style="fill:#fff400;"/><path d="M9.628,26.316l1.324,0l-2.335,2.335l-0.157,0c-0.631,-0.028 -1.139,-0.527 -1.167,-1.167l0,-1.471l2.335,-2.334l0,2.637Zm6.913,2.335l-3.962,0l2.335,-2.335l3.962,0l-2.335,2.335Zm7.924,0l-3.962,0l2.334,-2.335l3.962,0l-2.334,2.335Zm6.981,-3.019l2.334,-2.335l0,3.962l-1.391,1.392l-3.962,0l2.334,-2.335l0.685,0l0,-0.684Zm-18.576,-9.158l-2.363,2.363l-0.879,0.88l-2.335,2.334l0,-3.961l1.587,-1.588c1.33,-0.002 2.66,-0.013 3.99,-0.028Zm19.78,0.03l0.065,0.003c0.609,0.08 1.039,0.568 1.065,1.163l0,1.666l-2.334,2.334l0,-2.833l-1.129,0l2.333,-2.333Zm-7.769,-0.155c1.308,0.002 2.616,0.013 3.924,0.038l-2.45,2.45l-3.962,0l2.488,-2.488Zm-3.982,0.02l-2.468,2.468l-3.962,0l2.417,-2.417c1.338,-0.019 2.675,-0.037 4.013,-0.051Z"/><path d="M7.293,37.593l0,-5.098c0.028,-0.631 0.527,-1.139 1.167,-1.167c8.085,0 16.178,-0.348 24.255,0.004c0.609,0.08 1.039,0.568 1.065,1.163l0,5.024c-0.253,0.059 -0.513,0.094 -0.776,0.102c-0.52,0.01 -1.039,0.019 -1.558,0.027l0,-3.986l-21.818,0l0,3.973c-0.642,-0.004 -1.284,-0.009 -1.926,-0.013c-0.137,-0.002 -0.274,-0.012 -0.409,-0.029Zm24.153,-28.204c0.5,0.002 1.001,0.005 1.502,0.008c0.283,0.006 0.562,0.042 0.832,0.105l0,4.302c-0.027,0.631 -0.527,1.139 -1.167,1.167l-24.153,0c-0.631,-0.027 -1.139,-0.527 -1.167,-1.167l0,-4.376c0.154,-0.02 0.31,-0.03 0.466,-0.031c0.623,0 1.246,0 1.869,-0.001l0,3.241l21.818,0l0,-3.248Z" style="fill:#fff400;"/><path d="M33.78,38.206c-0.023,-0.005 -0.047,-0.009 -0.07,-0.013l0.07,-0.07l0,0.083Zm-20.91,-6.906l-2.363,2.362l-0.879,0.88l-2.335,2.335l0,-3.962l1.587,-1.588c1.33,-0.001 2.66,-0.012 3.99,-0.027Zm19.78,0.029l0.065,0.003c0.609,0.08 1.039,0.568 1.065,1.163l0,1.666l-2.334,2.334l0,-2.833l-1.129,0l2.333,-2.333Zm-6.295,2.333l-3.962,0l2.488,-2.487c1.308,0.001 2.616,0.012 3.924,0.037l-2.45,2.45Zm-7.924,0l-3.962,0l2.417,-2.416c1.338,-0.019 2.675,-0.038 4.013,-0.051l-2.468,2.467Z"/><path d="M9.628,12.637l1.324,0l-2.335,2.334l-0.157,0c-0.631,-0.027 -1.139,-0.527 -1.167,-1.167l0,-1.47l2.335,-2.335l0,2.638Zm6.913,2.334l-3.962,0l2.335,-2.334l3.962,0l-2.335,2.334Zm7.924,0l-3.962,0l2.334,-2.334l3.962,0l-2.334,2.334Zm7.924,0l-3.962,0l2.334,-2.334l0.685,0l0,-0.685l2.334,-2.334l0,3.962l-1.391,1.391Z"/><defs><linearGradient id="green-emitter-gradient-1" x1="0" y1="0" x2="1" y2="0" gradientUnits="userSpaceOnUse" gradientTransform="matrix(5.81316e-16,9.49361,-9.49361,5.81316e-16,39.6701,18.5626)"><stop offset="0" style="stop-color:#676767;stop-opacity:1"/><stop offset="0.2" style="stop-color:#dfdfdf;stop-opacity:1"/><stop offset="0.32" style="stop-color:#4f4f4f;stop-opacity:1"/><stop offset="0.44" style="stop-color:#858585;stop-opacity:1"/><stop offset="0.6" style="stop-color:#fff;stop-opacity:1"/><stop offset="1" style="stop-color:#2c2c2c;stop-opacity:1"/></linearGradient><linearGradient id="green-emitter-gradient-2" x1="0" y1="0" x2="1" y2="0" gradientUnits="userSpaceOnUse" gradientTransform="matrix(8.60112e-16,14.0467,-14.0467,8.60112e-16,37.462,16.0746)"><stop offset="0" style="stop-color:#676767;stop-opacity:1"/><stop offset="0.2" style="stop-color:#dfdfdf;stop-opacity:1"/><stop offset="0.32" style="stop-color:#4f4f4f;stop-opacity:1"/><stop offset="0.44" style="stop-color:#858585;stop-opacity:1"/><stop offset="0.6" style="stop-color:#fff;stop-opacity:1"/><stop offset="1" style="stop-color:#2c2c2c;stop-opacity:1"/></linearGradient><linearGradient id="green-emitter-gradient-3" x1="0" y1="0" x2="1" y2="0" gradientUnits="userSpaceOnUse" gradientTransform="matrix(8.38701e-15,29.6071,-29.6071,8.38701e-15,22.3931,8.89703)"><stop offset="0" style="stop-color:#676767;stop-opacity:1"/><stop offset="0.14" style="stop-color:#9b9b9b;stop-opacity:1"/><stop offset="0.31" style="stop-color:#fff;stop-opacity:1"/><stop offset="0.78" style="stop-color:#bcbcbc;stop-opacity:1"/><stop offset="1" style="stop-color:#2c2c2c;stop-opacity:1"/></linearGradient><linearGradient id="green-emitter-gradient-4" x1="0" y1="0" x2="1" y2="0" gradientUnits="userSpaceOnUse" gradientTransform="matrix(0.2465,28.5104,-28.5104,0.2465,21.7007,9.18442)"><stop offset="0" style="stop-color:#00ff02;stop-opacity:1"/><stop offset="1" style="stop-color:#009901;stop-opacity:1"/></linearGradient></defs></svg>