<?xml version="1.0" encoding="UTF-8" standalone="no"?><!DOCTYPE svg PUBLIC "-//W3C//DTD SVG 1.1//EN" "http://www.w3.org/Graphics/SVG/1.1/DTD/svg11.dtd"><svg width="100%" height="100%" viewBox="0 0 45 45" version="1.1" xmlns="http://www.w3.org/2000/svg" xmlns:xlink="http://www.w3.org/1999/xlink" xml:space="preserve" style="fill-rule:evenodd;clip-rule:evenodd;stroke-linejoin:round;stroke-miterlimit:2;"><path d="M40.684,9.585c0,-3.028 -2.455,-5.483 -5.483,-5.483l-26.118,0c-3.028,0 -5.483,2.455 -5.483,5.483l0,26.118c0,3.028 2.455,5.483 5.483,5.483l26.118,0c3.028,0 5.483,-2.455 5.483,-5.483l0,-26.118Z" style="fill:url(#_Linear1);"/><path d="M40.186,8.585c0,-3.028 -2.455,-5.483 -5.483,-5.483l-26.118,0c-3.028,0 -5.483,2.455 -5.483,5.483l0,26.118c0,3.028 2.455,5.483 5.483,5.483l26.118,0c3.028,0 5.483,-2.455 5.483,-5.483l0,-26.118Z" style="fill:url(#_Linear2);"/><rect x="8.073" y="8.957" width="27.998" height="1.999" style="fill:url(#_Linear3);"/><rect x="8.073" y="11.957" width="27.998" height="1.999" style="fill:url(#_Linear4);"/><rect x="8.073" y="14.957" width="27.998" height="1.999" style="fill:url(#_Linear5);"/><rect x="8.073" y="17.957" width="27.998" height="1.999" style="fill:url(#_Linear6);"/><rect x="8.073" y="20.957" width="27.998" height="1.999" style="fill:url(#_Linear7);"/><rect x="8.073" y="23.957" width="27.998" height="1.999" style="fill:url(#_Linear8);"/><rect x="8.073" y="26.957" width="27.998" height="1.999" style="fill:url(#_Linear9);"/><rect x="8.073" y="29.957" width="27.998" height="1.999" style="fill:url(#_Linear10);"/><rect x="8.073" y="32.957" width="27.998" height="1.999" style="fill:url(#_Linear11);"/><path d="M5.3,36.16l1,0l0,-1l1,0l0,1l1,0l0,1l-1,0l0,1l-1,0l0,-1l-1,0l0,-1Zm30.998,0l1,0l0,-1l1,0l0,1l1,0l0,1l-1,0l0,1l-1,0l0,-1l-1,0l0,-1Zm-30.998,-29.96l1,0l0,-1l1,0l0,1l1,0l0,1l-1,0l0,1l-1,0l0,-1l-1,0l0,-1Zm30.998,0l1,0l0,-1l1,0l0,1l1,0l0,1l-1,0l0,1l-1,0l0,-1l-1,0l0,-1Z" style="fill:#2e2e2e;"/><path d="M5.073,35.96l1,0l0,-1l1,0l0,1l1,0l0,1l-1,0l0,1l-1,0l0,-1l-1,0l0,-1Zm30.998,0l1,0l0,-1l1,0l0,1l1,0l0,1l-1,0l0,1l-1,0l0,-1l-1,0l0,-1Zm-30.998,-29.96l1,0l0,-1l1,0l0,1l1,0l0,1l-1,0l0,1l-1,0l0,-1l-1,0l0,-1Zm30.998,0l1,0l0,-1l1,0l0,1l1,0l0,1l-1,0l0,1l-1,0l0,-1l-1,0l0,-1Z" style="fill:#666;"/><defs><linearGradient id="_Linear1" x1="0" y1="0" x2="1" y2="0" gradientUnits="userSpaceOnUse" gradientTransform="matrix(-14.7781,-37.1068,37.1068,-14.7781,22.142,41.8073)"><stop offset="0" style="stop-color:#474747;stop-opacity:1"/><stop offset="1" style="stop-color:#6b6b6b;stop-opacity:1"/></linearGradient><linearGradient id="_Linear2" x1="0" y1="0" x2="1" y2="0" gradientUnits="userSpaceOnUse" gradientTransform="matrix(-14.7781,-37.1068,37.1068,-14.7781,21.6437,40.8073)"><stop offset="0" style="stop-color:#262626;stop-opacity:1"/><stop offset="1" style="stop-color:#6b6b6b;stop-opacity:1"/></linearGradient><linearGradient id="_Linear3" x1="0" y1="0" x2="1" y2="0" gradientUnits="userSpaceOnUse" gradientTransform="matrix(1.22377e-16,-1.99857,1.99481,1.22147e-16,15.2472,10.9559)"><stop offset="0" style="stop-color:#757575;stop-opacity:1"/><stop offset="0.19" style="stop-color:#454545;stop-opacity:1"/><stop offset="0.41" style="stop-color:#151515;stop-opacity:1"/><stop offset="1" style="stop-color:#000;stop-opacity:1"/></linearGradient><linearGradient id="_Linear4" x1="0" y1="0" x2="1" y2="0" gradientUnits="userSpaceOnUse" gradientTransform="matrix(1.22377e-16,-1.99857,1.99481,1.22147e-16,15.2472,13.9559)"><stop offset="0" style="stop-color:#757575;stop-opacity:1"/><stop offset="0.19" style="stop-color:#454545;stop-opacity:1"/><stop offset="0.41" style="stop-color:#151515;stop-opacity:1"/><stop offset="1" style="stop-color:#000;stop-opacity:1"/></linearGradient><linearGradient id="_Linear5" x1="0" y1="0" x2="1" y2="0" gradientUnits="userSpaceOnUse" gradientTransform="matrix(1.22377e-16,-1.99857,1.99481,1.22147e-16,15.2472,16.9559)"><stop offset="0" style="stop-color:#757575;stop-opacity:1"/><stop offset="0.19" style="stop-color:#454545;stop-opacity:1"/><stop offset="0.41" style="stop-color:#151515;stop-opacity:1"/><stop offset="1" style="stop-color:#000;stop-opacity:1"/></linearGradient><linearGradient id="_Linear6" x1="0" y1="0" x2="1" y2="0" gradientUnits="userSpaceOnUse" gradientTransform="matrix(1.22377e-16,-1.99857,1.99481,1.22147e-16,15.2472,19.9559)"><stop offset="0" style="stop-color:#757575;stop-opacity:1"/><stop offset="0.19" style="stop-color:#454545;stop-opacity:1"/><stop offset="0.41" style="stop-color:#151515;stop-opacity:1"/><stop offset="1" style="stop-color:#000;stop-opacity:1"/></linearGradient><linearGradient id="_Linear7" x1="0" y1="0" x2="1" y2="0" gradientUnits="userSpaceOnUse" gradientTransform="matrix(1.22377e-16,-1.99857,1.99481,1.22147e-16,15.2472,22.9559)"><stop offset="0" style="stop-color:#757575;stop-opacity:1"/><stop offset="0.19" style="stop-color:#454545;stop-opacity:1"/><stop offset="0.41" style="stop-color:#151515;stop-opacity:1"/><stop offset="1" style="stop-color:#000;stop-opacity:1"/></linearGradient><linearGradient id="_Linear8" x1="0" y1="0" x2="1" y2="0" gradientUnits="userSpaceOnUse" gradientTransform="matrix(1.22377e-16,-1.99857,1.99481,1.22147e-16,15.2472,25.9559)"><stop offset="0" style="stop-color:#757575;stop-opacity:1"/><stop offset="0.19" style="stop-color:#454545;stop-opacity:1"/><stop offset="0.41" style="stop-color:#151515;stop-opacity:1"/><stop offset="1" style="stop-color:#000;stop-opacity:1"/></linearGradient><linearGradient id="_Linear9" x1="0" y1="0" x2="1" y2="0" gradientUnits="userSpaceOnUse" gradientTransform="matrix(1.22377e-16,-1.99857,1.99481,1.22147e-16,15.2472,28.9559)"><stop offset="0" style="stop-color:#757575;stop-opacity:1"/><stop offset="0.19" style="stop-color:#454545;stop-opacity:1"/><stop offset="0.41" style="stop-color:#151515;stop-opacity:1"/><stop offset="1" style="stop-color:#000;stop-opacity:1"/></linearGradient><linearGradient id="_Linear10" x1="0" y1="0" x2="1" y2="0" gradientUnits="userSpaceOnUse" gradientTransform="matrix(1.22377e-16,-1.99857,1.99481,1.22147e-16,15.2472,31.9559)"><stop offset="0" style="stop-color:#757575;stop-opacity:1"/><stop offset="0.19" style="stop-color:#454545;stop-opacity:1"/><stop offset="0.41" style="stop-color:#151515;stop-opacity:1"/><stop offset="1" style="stop-color:#000;stop-opacity:1"/></linearGradient><linearGradient id="_Linear11" x1="0" y1="0" x2="1" y2="0" gradientUnits="userSpaceOnUse" gradientTransform="matrix(1.22377e-16,-1.99857,1.99481,1.22147e-16,15.2472,34.9559)"><stop offset="0" style="stop-color:#757575;stop-opacity:1"/><stop offset="0.19" style="stop-color:#454545;stop-opacity:1"/><stop offset="0.41" style="stop-color:#151515;stop-opacity:1"/><stop offset="1" style="stop-color:#000;stop-opacity:1"/></linearGradient></defs></svg>