<?xml version="1.0" encoding="UTF-8" standalone="no"?>
<!DOCTYPE svg PUBLIC "-//W3C//DTD SVG 1.1//EN" "http://www.w3.org/Graphics/SVG/1.1/DTD/svg11.dtd">
<svg width="100%" height="100%" viewBox="0 0 128 128" version="1.1" xmlns="http://www.w3.org/2000/svg" xmlns:xlink="http://www.w3.org/1999/xlink" xml:space="preserve" style="fill-rule:evenodd;clip-rule:evenodd;stroke-linejoin:round;stroke-miterlimit:1.41421;">
    <g id="Template" transform="matrix(0.921875,0,0,0.921875,5,5)">
        <g id="Layer1">
            <g id="Cargo-Control">
                <path d="M140.763,-5.424L140.763,138.593L-13.763,138.593L-12.678,-5.424L140.763,-5.424ZM56.593,7.98C61.022,5.506 66.418,5.506 70.847,7.98C80.836,13.558 98.916,23.654 109.097,29.34C113.722,31.923 116.587,36.805 116.587,42.103C116.587,53.302 116.587,72.79 116.587,83.989C116.587,89.286 113.722,94.169 109.097,96.752C98.916,102.437 80.836,112.534 70.847,118.112C66.418,120.585 61.022,120.585 56.593,118.112C46.604,112.534 28.525,102.437 18.344,96.752C13.719,94.169 10.853,89.286 10.853,83.989C10.853,72.79 10.853,53.302 10.853,42.103C10.853,36.805 13.719,31.923 18.344,29.34C28.525,23.654 46.604,13.558 56.593,7.98ZM20.065,44.355L20.065,84.267C20.065,86.797 21.437,89.127 23.649,90.354L59,109.959L59,64.618L20.065,44.355ZM107.935,47.519L69,64.887L69,109.959L104.351,90.354C106.563,89.127 107.935,86.797 107.935,84.267L107.935,47.519ZM40.752,28.161L26.16,36.254L64.102,56L64.375,56L78.25,49.811L40.752,28.161ZM104.844,37.947C104.685,37.841 104.52,37.74 104.351,37.646C96.029,33.031 75.489,21.64 67.375,17.14C65.276,15.976 62.724,15.976 60.625,17.14L50.953,22.504L89.533,44.778L104.844,37.947Z"/>
            </g>
        </g>
    </g>
</svg>
