<?xml version="1.0" encoding="UTF-8" standalone="no"?>
<!DOCTYPE svg PUBLIC "-//W3C//DTD SVG 1.1//EN" "http://www.w3.org/Graphics/SVG/1.1/DTD/svg11.dtd">
<svg width="100%" height="100%" viewBox="0 0 128 128" version="1.1" xmlns="http://www.w3.org/2000/svg" xmlns:xlink="http://www.w3.org/1999/xlink" xml:space="preserve" style="fill-rule:evenodd;clip-rule:evenodd;stroke-linejoin:round;stroke-miterlimit:1.41421;">
    <g id="Template">
        <g id="CommInternal">
            <path d="M128,0L128,128L0,128L0,0L128,0ZM44.05,25.24C45.156,25.268 46.245,25.434 47.299,25.774C50.208,26.715 52.655,28.866 53.958,31.632C54.319,32.398 54.591,33.204 54.768,34.032C54.91,34.7 54.983,35.382 55.087,36.057C55.19,36.668 55.19,36.667 55.301,37.278C55.581,38.697 55.91,40.102 56.319,41.49C56.648,42.609 57.041,43.703 57.432,44.802L57.553,45.186C57.765,45.957 57.92,46.733 57.977,47.532C58.126,49.62 57.675,51.736 56.687,53.581C56.245,54.407 55.695,55.152 55.075,55.851C54.113,56.86 53.11,57.829 52.124,58.815C53.037,60.261 54.031,61.659 55.079,63.01C57.739,66.438 60.802,69.553 64.186,72.27C65.762,73.536 67.408,74.706 69.108,75.8L69.111,75.802L71.798,73.114L72.075,72.851C72.774,72.231 73.519,71.681 74.345,71.239C76.307,70.188 78.574,69.747 80.787,69.984C81.586,70.07 82.359,70.254 83.124,70.494C83.638,70.677 84.15,70.865 84.665,71.044C86.43,71.633 88.218,72.132 90.04,72.505C90.647,72.629 91.257,72.741 91.869,72.839C92.461,72.934 93.056,73.004 93.646,73.108C93.902,73.16 94.154,73.217 94.407,73.281C95.392,73.553 96.335,73.935 97.215,74.456C99.505,75.811 101.267,77.986 102.114,80.509C102.47,81.567 102.648,82.664 102.686,83.778C102.728,87.731 102.734,91.685 102.683,95.638C102.63,97.031 102.352,98.393 101.805,99.677C101.384,100.664 100.82,101.588 100.137,102.415C98.167,104.798 95.235,106.293 92.143,106.452C91.215,106.499 90.306,106.398 89.386,106.284C88.454,106.169 87.524,106.037 86.596,105.887C83.822,105.441 81.072,104.843 78.363,104.096C76.561,103.6 74.777,103.037 73.015,102.41C69.136,101.031 65.369,99.339 61.76,97.358C60.118,96.456 58.516,95.489 56.939,94.477C55.48,93.54 54.046,92.568 52.65,91.539C49.58,89.278 46.68,86.786 43.984,84.09C41.288,81.394 38.796,78.494 36.535,75.424C35.506,74.028 34.533,72.594 33.597,71.134C32.479,69.392 31.418,67.617 30.437,65.794C28.477,62.155 26.81,58.358 25.459,54.451C24.907,52.854 24.407,51.239 23.961,49.609C23.216,46.888 22.621,44.125 22.179,41.338C22.031,40.407 21.9,39.473 21.787,38.536C21.676,37.617 21.575,36.709 21.623,35.783C21.781,32.693 23.274,29.763 25.655,27.793C26.481,27.109 27.404,26.545 28.39,26.124C29.673,25.577 31.034,25.298 32.426,25.243C36.3,25.19 40.175,25.233 44.05,25.24ZM32.74,32.648C32.272,32.654 31.816,32.731 31.381,32.905C30.316,33.329 29.473,34.252 29.156,35.355C29.04,35.761 29.002,36.181 29.025,36.602C29.08,37.29 29.182,37.977 29.272,38.661C29.932,43.378 31.039,48.019 32.629,52.51C33.876,56.032 35.407,59.453 37.203,62.73C38.025,64.23 38.909,65.694 39.832,67.134C40.683,68.46 41.566,69.763 42.5,71.031C44.541,73.802 46.79,76.418 49.223,78.851C51.656,81.284 54.272,83.534 57.043,85.574C58.312,86.508 59.615,87.391 60.941,88.242C62.232,89.071 63.541,89.869 64.881,90.618C71.824,94.496 79.428,97.17 87.271,98.49C88.108,98.631 88.947,98.757 89.788,98.867C90.129,98.912 90.459,98.952 90.8,98.992C91.093,99.026 91.376,99.063 91.669,99.056C92.767,99.028 93.806,98.484 94.484,97.623C94.707,97.34 94.889,97.025 95.022,96.691C95.195,96.256 95.272,95.8 95.278,95.333C95.271,91.618 95.278,87.902 95.278,84.186C95.278,84.048 95.279,83.911 95.271,83.773C95.166,82.476 94.389,81.299 93.222,80.712C92.893,80.546 92.543,80.437 92.18,80.372C91.685,80.296 91.188,80.23 90.693,80.154C88.549,79.793 86.429,79.329 84.343,78.714C83.648,78.509 82.958,78.29 82.272,78.056C81.728,77.87 81.193,77.653 80.644,77.481C80.515,77.445 80.388,77.415 80.257,77.389C79.385,77.248 78.495,77.388 77.728,77.835C77.497,77.969 77.288,78.13 77.089,78.306C75.457,79.863 73.896,81.493 72.301,83.088C72.06,83.31 71.821,83.512 71.536,83.676C70.693,84.164 69.671,84.299 68.73,84.049C68.412,83.964 68.128,83.832 67.838,83.682C67.382,83.42 66.928,83.154 66.477,82.885C64.819,81.876 63.201,80.806 61.637,79.655C58.101,77.051 54.839,74.076 51.921,70.794C49.108,67.631 46.639,64.187 44.501,60.535L44.244,60.088C44.094,59.798 43.962,59.514 43.877,59.196C43.627,58.255 43.762,57.233 44.25,56.39C44.414,56.105 44.616,55.866 44.838,55.625C46.433,54.03 48.063,52.469 49.62,50.837C50.297,50.073 50.659,49.084 50.586,48.061C50.564,47.75 50.498,47.45 50.405,47.154C50.227,46.654 50.045,46.155 49.87,45.654C49.182,43.591 48.598,41.501 48.163,39.37C48.017,38.661 47.887,37.948 47.772,37.233C47.684,36.684 47.632,36.126 47.522,35.58C47.485,35.415 47.439,35.255 47.383,35.096C46.98,34.027 46.111,33.177 45.02,32.824C44.673,32.712 44.314,32.657 43.95,32.648C40.213,32.641 36.476,32.648 32.74,32.648ZM73.654,36.375C75.124,36.609 76.573,37.049 77.953,37.603C83.156,39.689 87.457,43.759 89.831,48.837C90.477,50.219 90.979,51.668 91.328,53.153C91.415,53.521 91.508,53.896 91.551,54.272C91.6,54.713 91.57,55.162 91.462,55.592C91.354,56.022 91.168,56.432 90.915,56.797C90.08,58.003 88.565,58.611 87.128,58.317C86.802,58.25 86.485,58.14 86.189,57.989C85.495,57.636 84.923,57.064 84.57,56.37C84.435,56.107 84.42,56.033 84.322,55.754C84.224,55.363 84.145,54.967 84.049,54.575C83.742,53.417 83.319,52.298 82.751,51.241C81.332,48.6 79.11,46.418 76.443,45.048C75.194,44.407 73.868,43.967 72.494,43.685L72.172,43.604C71.893,43.506 71.819,43.491 71.556,43.356C70.962,43.054 70.456,42.59 70.101,42.026C69.383,40.883 69.35,39.401 70.017,38.227C70.181,37.938 70.384,37.671 70.619,37.436C70.933,37.123 71.303,36.867 71.707,36.683C72.111,36.5 72.547,36.39 72.99,36.36C73.1,36.353 73.211,36.355 73.322,36.353C73.433,36.36 73.543,36.368 73.654,36.375ZM73.667,21.56C77.208,21.973 80.674,22.861 83.958,24.253C88.221,26.061 92.133,28.675 95.442,31.913C98.749,35.148 101.446,38.998 103.347,43.216C104.919,46.706 105.917,50.418 106.365,54.217L106.389,54.549C106.388,54.659 106.391,54.77 106.384,54.881C106.356,55.324 106.248,55.761 106.067,56.165C105.931,56.469 105.754,56.754 105.542,57.01C104.608,58.141 103.047,58.619 101.64,58.204C101.214,58.079 100.812,57.876 100.458,57.61C99.926,57.209 99.507,56.665 99.256,56.048C99.144,55.773 99.135,55.698 99.062,55.413C98.956,54.767 98.887,54.117 98.783,53.471C98.316,50.78 97.506,48.164 96.331,45.696C93.269,39.265 87.881,34.047 81.352,31.197C78.632,30.01 75.754,29.262 72.809,28.919L72.481,28.865C72.374,28.838 72.265,28.815 72.159,28.783C71.735,28.654 71.335,28.448 70.983,28.178C70.631,27.908 70.329,27.574 70.094,27.198C69.318,25.952 69.361,24.321 70.201,23.118C70.392,22.845 70.619,22.599 70.875,22.387C71.388,21.962 72.015,21.68 72.673,21.579C72.965,21.533 73.041,21.542 73.336,21.536C73.446,21.544 73.557,21.552 73.667,21.56Z"/>
        </g>
    </g>
</svg>
