<?xml version="1.0" encoding="UTF-8" standalone="no"?>
<!DOCTYPE svg PUBLIC "-//W3C//DTD SVG 1.1//EN" "http://www.w3.org/Graphics/SVG/1.1/DTD/svg11.dtd">
<svg width="100%" height="100%" viewBox="0 0 128 128" version="1.1" xmlns="http://www.w3.org/2000/svg" xmlns:xlink="http://www.w3.org/1999/xlink" xml:space="preserve" style="fill-rule:evenodd;clip-rule:evenodd;stroke-linejoin:round;stroke-miterlimit:1.41421;">
    <g id="Template">
        <g id="CommShortRange">
            <path d="M128,0L128,128L0,128L0,0L128,0ZM36.637,32.42C37.212,32.492 37.749,32.63 38.257,32.919C38.554,33.088 38.829,33.296 39.072,33.536C40.058,34.509 40.46,35.97 40.11,37.31C39.963,37.875 39.687,38.357 39.337,38.819C38.853,39.354 38.338,39.862 37.85,40.396C37.063,41.28 36.311,42.192 35.612,43.147C34.159,45.132 32.919,47.272 31.917,49.519C29.776,54.321 28.737,59.594 28.861,64.849C28.979,69.824 30.138,74.767 32.277,79.263C33.464,81.757 34.948,84.108 36.691,86.251C37.451,87.185 38.263,88.071 39.108,88.928L39.337,89.181C39.52,89.423 39.575,89.479 39.725,89.743C39.95,90.139 40.105,90.574 40.182,91.024C40.239,91.36 40.252,91.705 40.22,92.045C40.078,93.544 39.055,94.86 37.637,95.365C37.207,95.519 36.752,95.596 36.296,95.593C35.497,95.588 34.707,95.333 34.055,94.87C33.807,94.694 33.758,94.634 33.536,94.428C33.154,94.041 32.778,93.65 32.406,93.254C31.426,92.181 30.489,91.073 29.615,89.911C27.696,87.357 26.067,84.587 24.766,81.67C22.083,75.653 20.816,69.031 21.049,62.449C21.264,56.375 22.757,50.356 25.436,44.899C26.85,42.018 28.591,39.299 30.616,36.809C31.534,35.68 32.514,34.607 33.536,33.572L33.786,33.34C34.025,33.153 34.08,33.098 34.342,32.944C34.735,32.714 35.169,32.553 35.617,32.471C35.916,32.416 35.993,32.422 36.296,32.407C36.41,32.411 36.524,32.416 36.637,32.42ZM92.045,32.424C92.345,32.466 92.423,32.467 92.716,32.547C93.155,32.668 93.573,32.866 93.944,33.13C94.192,33.306 94.242,33.366 94.464,33.572C94.846,33.959 95.222,34.35 95.594,34.746C96.574,35.819 97.511,36.927 98.385,38.089C100.304,40.643 101.933,43.413 103.234,46.33C105.846,52.189 107.118,58.622 106.966,65.034C106.818,71.283 105.32,77.489 102.564,83.101C101.149,85.982 99.409,88.701 97.384,91.191C96.466,92.32 95.486,93.393 94.464,94.428L94.214,94.66C93.975,94.846 93.92,94.902 93.658,95.055C93.265,95.286 92.831,95.447 92.383,95.529C91.935,95.611 91.473,95.614 91.024,95.538C90.687,95.481 90.358,95.379 90.047,95.237C88.678,94.609 87.773,93.21 87.763,91.704C87.759,91.019 87.937,90.338 88.275,89.743C88.425,89.479 88.48,89.423 88.663,89.181C89.147,88.646 89.662,88.138 90.15,87.604C90.937,86.72 91.689,85.808 92.388,84.853C93.841,82.868 95.081,80.728 96.083,78.481C98.224,73.679 99.263,68.406 99.138,63.151C99.021,58.176 97.861,53.233 95.723,48.737C94.536,46.243 93.052,43.892 91.309,41.749C90.549,40.815 89.737,39.929 88.892,39.072L88.663,38.819C88.313,38.357 88.037,37.875 87.89,37.31C87.54,35.97 87.942,34.509 88.928,33.536C89.171,33.296 89.446,33.088 89.743,32.919C90.139,32.693 90.574,32.538 91.024,32.462C91.323,32.411 91.401,32.418 91.704,32.407C91.817,32.413 91.931,32.419 92.045,32.424ZM80.962,43.503C81.536,43.582 82.072,43.727 82.576,44.022C82.967,44.251 83.29,44.551 83.605,44.873C83.921,45.197 84.23,45.529 84.53,45.868C86.089,47.633 87.419,49.598 88.478,51.701C89.682,54.095 90.533,56.666 90.994,59.306C91.557,62.529 91.537,65.848 90.934,69.064C90.005,74.022 87.691,78.686 84.304,82.423C84.075,82.675 83.843,82.923 83.605,83.166C83.372,83.405 83.136,83.638 82.863,83.832C82.116,84.361 81.192,84.615 80.28,84.54C78.657,84.407 77.253,83.243 76.823,81.673C76.703,81.233 76.66,80.773 76.697,80.319C76.744,79.751 76.915,79.195 77.198,78.7C77.348,78.436 77.403,78.38 77.586,78.139C77.939,77.748 78.312,77.377 78.664,76.985C80.035,75.414 81.165,73.653 81.987,71.735C83.062,69.229 83.605,66.503 83.572,63.776C83.536,60.893 82.854,58.026 81.589,55.435C80.632,53.473 79.348,51.704 77.815,50.153L77.586,49.9C77.236,49.439 76.96,48.958 76.812,48.393C76.725,48.062 76.682,47.72 76.684,47.379C76.692,45.993 77.457,44.685 78.661,44C79.057,43.774 79.492,43.618 79.941,43.542C80.241,43.491 80.318,43.498 80.621,43.486C80.735,43.492 80.849,43.497 80.962,43.503ZM47.72,43.46C48.295,43.532 48.832,43.671 49.339,43.96C50.543,44.646 51.308,45.954 51.316,47.34C51.318,47.681 51.275,48.023 51.188,48.354C51.04,48.919 50.764,49.4 50.414,49.861C50.061,50.251 49.688,50.623 49.336,51.015C47.965,52.586 46.835,54.347 46.012,56.265C44.905,58.845 44.363,61.659 44.433,64.467C44.502,67.268 45.182,70.047 46.411,72.565C47.368,74.526 48.652,76.296 50.185,77.846L50.414,78.1C50.597,78.341 50.652,78.397 50.802,78.661C51.084,79.156 51.256,79.712 51.303,80.28C51.34,80.734 51.297,81.194 51.177,81.634C51.086,81.963 50.953,82.281 50.78,82.576C50.081,83.771 48.764,84.522 47.379,84.514C46.579,84.509 45.789,84.255 45.137,83.793C44.772,83.534 44.466,83.204 44.159,82.882C43.769,82.472 43.392,82.051 43.028,81.619C40.074,78.106 38.03,73.856 37.129,69.355C36.443,65.927 36.422,62.372 37.066,58.936C37.539,56.412 38.368,53.956 39.522,51.662C40.581,49.559 41.911,47.593 43.47,45.829C43.695,45.575 43.924,45.325 44.159,45.079C44.387,44.839 44.615,44.592 44.868,44.377C45.215,44.082 45.614,43.849 46.041,43.691C46.478,43.529 46.917,43.47 47.379,43.447C47.493,43.451 47.606,43.456 47.72,43.46ZM64.301,52.259C64.798,52.278 65.292,52.315 65.784,52.39C67.024,52.58 68.232,52.971 69.349,53.543C71.618,54.706 73.477,56.61 74.584,58.906C75.087,59.951 75.434,61.07 75.61,62.216C75.79,63.396 75.79,64.604 75.61,65.784C75.434,66.93 75.087,68.049 74.584,69.093C73.97,70.366 73.125,71.525 72.103,72.5C71.078,73.477 69.877,74.267 68.572,74.819C67.129,75.43 65.567,75.745 64,75.745C62.433,75.745 60.871,75.43 59.427,74.819C58.123,74.267 56.922,73.477 55.897,72.5C54.875,71.525 54.03,70.366 53.416,69.094C52.913,68.049 52.566,66.93 52.39,65.784C52.21,64.604 52.21,63.396 52.39,62.216C52.566,61.07 52.913,59.951 53.416,58.906C54.523,56.61 56.382,54.706 58.651,53.543C59.768,52.971 60.976,52.58 62.216,52.39C62.708,52.315 63.202,52.278 63.699,52.259C64.002,52.255 64,52.255 64.301,52.259ZM63.897,60.087C63.313,60.109 62.744,60.244 62.222,60.512C61.234,61.018 60.485,61.944 60.208,63.021C60.084,63.503 60.054,64.009 60.117,64.502C60.166,64.884 60.271,65.257 60.429,65.607C60.624,66.038 60.899,66.432 61.233,66.767C61.567,67.101 61.962,67.375 62.393,67.57C62.865,67.784 63.379,67.9 63.897,67.913C64.421,67.926 64.945,67.837 65.433,67.644C65.873,67.471 66.28,67.216 66.63,66.897C66.98,66.579 67.273,66.199 67.488,65.778C67.662,65.438 67.786,65.072 67.853,64.696C67.935,64.237 67.935,63.763 67.853,63.304C67.651,62.175 66.937,61.173 65.944,60.602C65.439,60.312 64.883,60.148 64.305,60.097C64.169,60.088 64.034,60.085 63.897,60.087Z"/>
        </g>
    </g>
</svg>
