<?xml version="1.0" encoding="UTF-8" standalone="no"?>
<!DOCTYPE svg PUBLIC "-//W3C//DTD SVG 1.1//EN" "http://www.w3.org/Graphics/SVG/1.1/DTD/svg11.dtd">
<svg width="100%" height="100%" viewBox="0 0 128 128" version="1.1" xmlns="http://www.w3.org/2000/svg" xmlns:xlink="http://www.w3.org/1999/xlink" xml:space="preserve" style="fill-rule:evenodd;clip-rule:evenodd;stroke-linejoin:round;stroke-miterlimit:1.41421;">
    <g transform="matrix(0.910448,0,0,0.910448,5.73134,-1.77636e-15)">
        <g id="Template">
            <g id="Layer1">
                <g id="CommDecoding">
                    <path d="M134.295,0L134.295,140.59L-6.295,140.59L-6.295,0L134.295,0ZM9.43,66.972L9.431,66.97C15.232,53.913 20.988,40.835 26.835,27.798C27.008,27.422 27.193,27.051 27.395,26.69C27.816,25.937 28.301,25.22 28.845,24.551C29.803,23.372 30.94,22.34 32.206,21.501C33.471,20.662 34.863,20.016 36.321,19.593C37.192,19.34 38.085,19.167 38.987,19.076C39.445,19.03 39.904,19.007 40.365,19C56.121,18.938 71.879,18.938 87.635,19C88.05,19.006 88.463,19.025 88.876,19.063C89.735,19.141 90.587,19.295 91.419,19.52C92.928,19.929 94.372,20.575 95.683,21.427C96.918,22.231 98.034,23.216 98.983,24.343C99.567,25.036 100.088,25.782 100.537,26.57C100.765,26.97 100.973,27.38 101.165,27.798L101.216,27.912L118.569,66.97L118.572,66.976C118.626,67.098 118.675,67.222 118.719,67.348L118.723,67.359L118.726,67.368C118.768,67.49 118.805,67.614 118.838,67.739C118.871,67.858 118.897,67.973 118.93,68.168C118.962,68.354 118.975,68.47 118.983,68.587C118.994,68.722 119,68.858 119,68.994L119,69C119,77.398 119.053,85.795 118.999,94.193C118.989,94.702 118.96,95.21 118.901,95.717C118.765,96.89 118.489,98.047 118.08,99.155C117.349,101.136 116.194,102.955 114.719,104.465C113.117,106.106 111.143,107.375 108.982,108.142C107.927,108.517 106.829,108.772 105.717,108.901C105.21,108.96 104.702,108.989 104.193,108.999C77.398,109.17 50.602,109.17 23.807,108.999C23.298,108.989 22.79,108.96 22.283,108.901C21.11,108.765 19.953,108.489 18.845,108.08C16.751,107.307 14.84,106.062 13.281,104.465C11.72,102.867 10.519,100.923 9.797,98.808C9.435,97.746 9.193,96.644 9.078,95.528C9.026,95.025 9.003,94.521 9,94.016L9,69L9,68.988C9.001,68.871 9.005,68.755 9.013,68.639L9.014,68.634L9.016,68.606L9.016,68.605L9.016,68.605L9.017,68.582C9.024,68.5 9.033,68.417 9.044,68.335L9.045,68.334L9.045,68.333C9.048,68.311 9.051,68.289 9.054,68.267L9.054,68.266L9.054,68.266L9.061,68.219L9.063,68.206L9.065,68.199L9.066,68.189L9.07,68.168L9.074,68.144L9.076,68.132L9.077,68.126C9.081,68.103 9.085,68.079 9.09,68.056L9.091,68.051L9.093,68.043L9.098,68.014L9.106,67.977L9.107,67.971L9.108,67.969C9.113,67.944 9.118,67.92 9.123,67.896L9.125,67.891L9.126,67.885C9.136,67.843 9.146,67.801 9.157,67.759C9.204,67.575 9.238,67.464 9.279,67.353C9.324,67.224 9.374,67.097 9.43,66.972ZM41.324,74L49.84,86.774C50.074,87.093 50.123,87.182 50.399,87.469C51.02,88.113 51.813,88.584 52.676,88.821C52.963,88.9 53.257,88.953 53.554,88.98C53.702,88.993 53.851,88.993 54,89L74,89C74.149,88.993 74.298,88.993 74.446,88.98C74.743,88.953 75.037,88.9 75.324,88.821C76.043,88.624 76.714,88.265 77.277,87.776C77.577,87.516 77.634,87.431 77.896,87.134L78.16,86.774L86.676,74L109,74L109,93.984C108.999,94.179 108.99,94.373 108.967,94.566C108.923,94.951 108.832,95.329 108.698,95.692C108.183,97.087 107.037,98.221 105.635,98.719C105.15,98.891 104.642,98.982 104.128,98.998C77.381,99.514 50.619,99.514 23.872,98.998C23.338,98.981 22.81,98.884 22.308,98.698C20.913,98.183 19.779,97.037 19.281,95.635C19.109,95.15 19.018,94.642 19.002,94.128C18.872,87.42 18.958,80.71 18.99,74L41.324,74ZM21.693,64L35.916,31.988C35.938,31.939 35.937,31.94 35.96,31.891C36.134,31.521 36.35,31.173 36.608,30.855C37.249,30.065 38.131,29.481 39.108,29.197C39.564,29.065 40.035,29.002 40.51,29C56.19,29 71.87,28.938 87.55,29C87.989,29.006 88.425,29.066 88.849,29.185C89.741,29.435 90.558,29.936 91.187,30.618C91.452,30.905 91.681,31.224 91.873,31.564C91.925,31.658 91.974,31.753 92.021,31.849C97.018,42.462 101.622,53.254 106.328,64L84,64C83.604,64.018 83.503,64.009 83.111,64.08C82.231,64.239 81.399,64.637 80.723,65.224C80.498,65.419 80.291,65.634 80.104,65.866C80.011,65.982 79.928,66.106 79.84,66.226L71.324,79L56.676,79L48.16,66.226C48.072,66.106 47.989,65.982 47.896,65.866C47.709,65.634 47.502,65.419 47.277,65.224C46.714,64.735 46.043,64.376 45.324,64.179C44.941,64.073 44.839,64.073 44.446,64.02L44,64L21.693,64Z"/>
                </g>
            </g>
        </g>
    </g>
</svg>
