<?xml version="1.0" encoding="UTF-8" standalone="no"?><!DOCTYPE svg PUBLIC "-//W3C//DTD SVG 1.1//EN" "http://www.w3.org/Graphics/SVG/1.1/DTD/svg11.dtd"><svg width="100%" height="100%" viewBox="0 0 128 128" version="1.1" xmlns="http://www.w3.org/2000/svg" xmlns:xlink="http://www.w3.org/1999/xlink" xml:space="preserve" xmlns:serif="http://www.serif.com/" style="fill-rule:evenodd;clip-rule:evenodd;stroke-linejoin:round;stroke-miterlimit:1.41421;"><path d="M128,128l-128,0l0,-128l128,0l0,128Zm-44.132,-49.025c9.141,-2.065 15.132,-5.512 15.132,-9.404l0,-16.071c-2.643,1.82 -6.057,3.299 -9.97,4.45l0,-5.398c6.168,-2.062 9.97,-4.881 9.97,-7.981l0,-7.142c0,-6.295 -15.677,-11.429 -35,-11.429c-19.323,0 -35,5.134 -35,11.429l0,7.142c0,3.1 3.802,5.919 9.97,7.981l0,5.398c-3.913,-1.152 -7.327,-2.63 -9.97,-4.45l0,16.071c0,3.892 5.992,7.34 15.132,9.405l7.113,6.387c-8.998,-1.063 -17.089,-3.312 -22.245,-6.863l0,16.071c0,6.295 15.677,11.429 35,11.429c19.323,0 35,-5.134 35,-11.429l0,-16.071c-5.156,3.551 -13.246,5.8 -22.245,6.863l7.113,-6.388Zm-32.435,-23.736c2.107,0.265 4.311,0.466 6.591,0.594l-0.85,5.054c-1.998,-0.12 -3.973,-0.293 -5.907,-0.521l-1.328,-1.518l1.494,-3.609Zm18.543,0.594c2.28,-0.128 4.484,-0.329 6.591,-0.594l1.494,3.609l-1.328,1.518c-1.934,0.228 -3.91,0.401 -5.907,0.52l-0.85,-5.053Z"/><path d="M63.091,94l-11.515,-14.545l-18.182,-12.122l29.697,26.667Zm1.818,0l11.515,-14.545l18.182,-12.122l-29.697,26.667Zm-1.212,-60l0,58.788l-5.455,-26.364l5.455,-32.424Zm0.606,0l0,58.788l5.455,-26.364l-5.455,-32.424Zm-1.212,58.182l-4.546,-21.212l-10.606,-12.122l3.637,-8.787l-10.606,1.515l0,13.333l22.121,27.273Zm1.818,0l4.546,-21.212l10.606,-12.122l-3.637,-8.787l10.606,1.515l0,13.333l-22.121,27.273Z"/></svg>