<?xml version="1.0" encoding="UTF-8" standalone="no"?><!DOCTYPE svg PUBLIC "-//W3C//DTD SVG 1.1//EN" "http://www.w3.org/Graphics/SVG/1.1/DTD/svg11.dtd"><svg width="100%" height="100%" viewBox="0 0 128 128" version="1.1" xmlns="http://www.w3.org/2000/svg" xmlns:xlink="http://www.w3.org/1999/xlink" xml:space="preserve" xmlns:serif="http://www.serif.com/" style="fill-rule:evenodd;clip-rule:evenodd;stroke-linejoin:round;stroke-miterlimit:1.41421;"><path id="CommDecoding" d="M128,128l-128,0l0,-128l128,0l0,128Zm-37.712,-28.153l-3.983,0l0,11.153l3.983,0l0,-11.153Zm-10.356,0l-3.983,0l0,11.153l3.983,0l0,-11.153Zm-9.559,0l-3.983,0l0,11.153l3.983,0l0,-11.153Zm-9.559,0l-3.983,0l0,11.153l3.983,0l0,-11.153Zm-9.56,0l-3.983,0l0,11.153l3.983,0l0,-11.153Zm-9.559,0l-3.983,0l0,11.153l3.983,0l0,-11.153Zm48.575,-69.304c3.763,0.071 7.115,3.38 7.187,7.187c0.111,17.513 0.111,35.027 0,52.54c-0.072,3.763 -3.381,7.115 -7.187,7.187c-17.513,0.111 -35.027,0.111 -52.54,0c-3.755,-0.071 -7.115,-3.378 -7.187,-7.187c-0.111,-17.513 -0.111,-35.027 0,-52.54c0.072,-3.763 3.381,-7.115 7.187,-7.187c17.513,-0.111 35.027,-0.111 52.54,0Zm-52.43,4.999c-1.202,0.008 -2.259,1.031 -2.297,2.221c-0.332,17.462 -0.001,34.931 -0.001,52.397c0,1.158 1.032,2.274 2.252,2.297c17.455,0.112 34.911,0.001 52.366,0.001c1.16,0 2.274,-1.032 2.297,-2.251c0.111,-17.456 0.001,-34.912 0.001,-52.367c0,-1.16 -1.032,-2.274 -2.251,-2.297c-17.456,-0.111 -34.912,-0.001 -52.367,-0.001Zm-9.687,51.56l-11.153,0l0,3.983l11.153,0l0,-3.983Zm82.847,0l-11.153,0l0,3.983l11.153,0l0,-3.983Zm-52.613,-20.749c1.274,0.048 2.377,1.142 2.426,2.426c0.076,6.012 0.076,12.026 0,18.039c-0.049,1.278 -1.142,2.377 -2.426,2.426c-6.013,0.076 -12.027,0.076 -18.04,0c-1.278,-0.049 -2.377,-1.142 -2.426,-2.426c-0.076,-6.013 -0.076,-12.027 0,-18.039c0.049,-1.275 1.143,-2.378 2.426,-2.426c6.013,-0.077 12.027,-0.077 18.04,0Zm29.095,0c1.278,0.048 2.377,1.142 2.426,2.426c0.076,6.012 0.076,12.026 0,18.039c-0.049,1.278 -1.142,2.377 -2.426,2.426c-6.013,0.076 -12.027,0.076 -18.039,0c-1.275,-0.048 -2.378,-1.142 -2.426,-2.426c-0.077,-6.013 -0.077,-12.027 0,-18.039c0.048,-1.275 1.142,-2.378 2.426,-2.426c6.012,-0.077 12.026,-0.077 18.039,0Zm-47.058,1.913c-0.309,0.004 -0.569,0.249 -0.588,0.546c-0.227,5.972 -0.001,11.953 -0.001,17.93c0,0.309 0.253,0.577 0.561,0.588c5.971,0.076 11.943,0.001 17.914,0.001c0.31,0 0.577,-0.253 0.589,-0.562c0.076,-5.971 0,-11.942 0,-17.914c0,-0.31 -0.253,-0.577 -0.561,-0.589c-5.971,-0.075 -11.943,0 -17.914,0Zm46.981,0c0.318,0 0.59,0.269 0.59,0.589c0,5.972 0.076,11.944 -0.001,17.914c-0.011,0.308 -0.279,0.562 -0.589,0.562c-5.971,0 -11.943,0.075 -17.914,-0.001c-0.308,-0.011 -0.561,-0.279 -0.561,-0.588c0,-5.977 -0.227,-11.958 0.001,-17.93c0.019,-0.297 0.279,-0.542 0.588,-0.546l17.886,0Zm23.595,8.48l-11.153,0l0,3.983l11.153,0l0,-3.983Zm-82.847,0l-11.153,0l0,3.983l11.153,0l0,-3.983Zm82.847,-9.56l-11.153,0l0,3.983l11.153,0l0,-3.983Zm-82.847,0l-11.153,0l0,3.983l11.153,0l0,-3.983Zm0,-9.559l-11.153,0l0,3.983l11.153,0l0,-3.983Zm82.847,0l-11.153,0l0,3.983l11.153,0l0,-3.983Zm-52.613,-19.251c1.274,0.049 2.377,1.143 2.426,2.427c0.076,6.012 0.076,12.026 0,18.039c-0.049,1.278 -1.142,2.377 -2.426,2.426c-6.013,0.076 -12.027,0.076 -18.04,0c-1.278,-0.049 -2.377,-1.142 -2.426,-2.426c-0.076,-6.013 -0.076,-12.027 0,-18.039c0.049,-1.278 1.142,-2.378 2.426,-2.427c6.013,-0.076 12.027,-0.076 18.04,0Zm29.095,0c1.278,0.049 2.377,1.143 2.426,2.427c0.076,6.012 0.076,12.026 0,18.039c-0.049,1.274 -1.142,2.377 -2.426,2.426c-6.013,0.076 -12.027,0.076 -18.039,0c-1.275,-0.049 -2.378,-1.143 -2.426,-2.426c-0.077,-6.013 -0.077,-12.027 0,-18.039c0.048,-1.278 1.142,-2.378 2.426,-2.427c6.012,-0.076 12.026,-0.076 18.039,0Zm-29.172,1.914c0.317,0 0.589,0.269 0.589,0.589c0,5.971 0.076,11.943 0,17.914c-0.012,0.308 -0.279,0.561 -0.589,0.561c-5.971,0.001 -11.943,0.076 -17.914,0c-0.308,-0.012 -0.561,-0.279 -0.561,-0.589c0,-5.976 -0.226,-11.957 0.001,-17.929c0.019,-0.297 0.279,-0.542 0.588,-0.546l17.886,0Zm11.209,0c-0.309,0.004 -0.569,0.249 -0.588,0.546c-0.228,5.972 -0.001,11.953 -0.001,17.929c0,0.31 0.253,0.577 0.561,0.589c5.971,0.076 11.943,0.001 17.914,0c0.31,0 0.578,-0.253 0.589,-0.561c0.077,-5.971 0.001,-11.943 0.001,-17.914c0,-0.31 -0.254,-0.577 -0.562,-0.589c-5.971,-0.075 -11.943,0 -17.914,0Zm41.481,7.778l-11.153,0l0,3.983l11.153,0l0,-3.983Zm-82.847,0l-11.153,0l0,3.983l11.153,0l0,-3.983Zm0,-9.56l-11.153,0l0,3.983l11.153,0l0,-3.983Zm82.847,0l-11.153,0l0,3.983l11.153,0l0,-3.983Zm-69.305,-21.508l-3.983,0l0,11.152l3.983,0l0,-11.152Zm48.593,0l-3.983,0l0,11.152l3.983,0l0,-11.152Zm-10.356,0l-3.983,0l0,11.152l3.983,0l0,-11.152Zm-9.559,0l-3.983,0l0,11.152l3.983,0l0,-11.152Zm-9.559,0l-3.983,0l0,11.152l3.983,0l0,-11.152Zm-9.56,0l-3.983,0l0,11.152l3.983,0l0,-11.152Z"/></svg>