<?xml version="1.0" encoding="UTF-8" standalone="no"?>
<!DOCTYPE svg PUBLIC "-//W3C//DTD SVG 1.1//EN" "http://www.w3.org/Graphics/SVG/1.1/DTD/svg11.dtd">
<svg width="100%" height="100%" viewBox="0 0 128 128" version="1.1" xmlns="http://www.w3.org/2000/svg" xmlns:xlink="http://www.w3.org/1999/xlink" xml:space="preserve" style="fill-rule:evenodd;clip-rule:evenodd;stroke-linejoin:round;stroke-miterlimit:1.41421;">
    <g id="Template">
        <g id="CoolantControl">
            <path d="M128,0L128,128L0,128L0,0L128,0ZM97.888,91.851C92.46,91.915 92.417,96.017 86.908,96.017C84.306,96.017 82.924,95.102 81.618,94.129L81.097,93.739C79.79,92.766 78.408,91.85 75.806,91.85C70.442,91.85 70.235,95.716 63.999,95.991C57.764,95.716 57.556,91.85 52.2,91.85C46.642,91.85 46.642,96.017 41.091,96.017C35.539,96.017 35.539,91.85 29.982,91.85C27.206,91.85 25.819,92.893 24.424,93.933L24.424,99.487C25.819,98.447 27.206,97.404 29.982,97.404C35.54,97.404 35.54,101.567 41.091,101.567C46.642,101.567 46.642,97.404 52.2,97.404C57.355,97.404 57.73,100.984 63.308,101.504L63.308,101.568C63.55,101.568 63.772,101.551 63.999,101.545C64.233,101.551 64.448,101.568 64.689,101.568L64.689,101.504C70.266,100.984 70.649,97.404 75.805,97.404C81.357,97.404 81.357,101.567 86.907,101.567C92.459,101.567 92.459,97.404 98.017,97.404C100.799,97.404 102.18,98.447 103.574,99.487L103.574,93.933C102.18,92.893 100.798,91.85 98.017,91.85L97.888,91.851ZM59.137,26.598L59.137,72.466C56.643,74.068 54.974,76.856 54.974,80.048C54.975,85.032 59.018,89.075 63.999,89.075C68.98,89.075 73.031,85.032 73.031,80.049C73.031,76.857 71.361,74.069 68.859,72.467L68.859,68.251L84.133,68.251C85.668,68.251 86.908,67.007 86.908,65.471C86.908,63.94 85.668,62.696 84.133,62.696L68.859,62.696L68.859,54.366L84.133,54.366C85.668,54.366 86.908,53.122 86.908,51.587C86.908,50.056 85.668,48.812 84.133,48.812L68.859,48.812L68.859,40.479L84.133,40.479C85.668,40.479 86.908,39.238 86.908,37.703C86.908,36.171 85.668,34.927 84.133,34.927L68.859,34.927L68.859,26.598L68.792,26.598C68.45,24.245 66.446,22.431 63.999,22.431C61.552,22.431 59.554,24.243 59.205,26.598L59.137,26.598ZM41.091,87.684C45.1,87.684 46.226,85.519 48.627,84.312C48.251,82.951 48.036,81.527 48.036,80.049C48.036,79.714 48.063,79.385 48.083,79.052C46.025,80.287 44.792,82.133 41.091,82.133C35.539,82.133 35.539,77.967 29.982,77.967C24.424,77.967 24.424,82.133 18.873,82.133L18.873,87.684C24.424,87.684 24.424,83.522 29.982,83.522C35.539,83.522 35.539,87.684 41.091,87.684ZM98.018,77.967C92.46,77.967 92.46,82.133 86.908,82.133C83.207,82.133 81.973,80.286 79.915,79.052C79.936,79.385 79.963,79.714 79.963,80.049C79.963,81.527 79.748,82.951 79.373,84.312C81.773,85.516 82.9,87.684 86.908,87.684C92.46,87.684 92.46,83.522 98.018,83.522C103.575,83.522 103.575,87.684 109.127,87.684L109.127,82.133C103.575,82.133 103.575,77.967 98.018,77.967Z"/>
        </g>
    </g>
</svg>
