<?xml version="1.0" encoding="UTF-8" standalone="no"?>
<!DOCTYPE svg PUBLIC "-//W3C//DTD SVG 1.1//EN" "http://www.w3.org/Graphics/SVG/1.1/DTD/svg11.dtd">
<svg width="100%" height="100%" viewBox="0 0 128 128" version="1.1" xmlns="http://www.w3.org/2000/svg" xmlns:xlink="http://www.w3.org/1999/xlink" xml:space="preserve" style="fill-rule:evenodd;clip-rule:evenodd;stroke-linejoin:round;stroke-miterlimit:1.41421;">
    <g id="Template">
        <g id="DamageTeams">
            <path d="M128,0L128,128L0,128L0,0L128,0ZM76.682,23.235C76.98,23.272 77.056,23.272 77.348,23.346C78.113,23.54 78.815,23.958 79.35,24.539C79.655,24.87 79.905,25.252 80.086,25.665C80.266,26.077 80.378,26.519 80.416,26.968C80.548,28.567 79.7,30.134 78.289,30.898C77.893,31.112 77.462,31.26 77.017,31.335C76.721,31.384 76.644,31.378 76.345,31.39C61.298,31.39 46.241,30.816 31.205,31.396C30.803,31.422 30.41,31.497 30.031,31.637C28.907,32.052 27.99,32.969 27.576,34.093C27.424,34.504 27.347,34.933 27.331,35.37C27.085,54.535 26.596,73.717 27.335,92.868C27.36,93.27 27.436,93.664 27.576,94.043C27.99,95.166 28.907,96.083 30.031,96.498C30.443,96.65 30.872,96.726 31.309,96.743C50.473,96.99 69.655,97.477 88.807,96.739C89.209,96.713 89.603,96.638 89.981,96.498C91.105,96.083 92.022,95.166 92.437,94.043C92.589,93.631 92.665,93.202 92.682,92.765C92.805,83.2 92.684,73.633 92.684,64.068C92.696,63.768 92.69,63.692 92.739,63.395C92.813,62.951 92.962,62.52 93.176,62.123C93.39,61.727 93.67,61.367 94.002,61.062C95.182,59.976 96.94,59.682 98.409,60.327C98.822,60.508 99.203,60.757 99.535,61.062C100.116,61.597 100.534,62.299 100.728,63.065C100.812,63.398 100.839,63.726 100.853,64.068C100.853,73.703 100.973,83.34 100.849,92.975C100.798,94.308 100.564,95.617 100.101,96.871C98.866,100.219 96.158,102.927 92.81,104.163C91.556,104.626 90.247,104.859 88.913,104.911C69.644,105.158 50.369,105.158 31.099,104.911C29.765,104.859 28.457,104.626 27.202,104.163C23.855,102.927 21.147,100.219 19.911,96.871C19.448,95.617 19.215,94.308 19.163,92.975C18.916,73.705 18.916,54.43 19.163,35.161C19.215,33.827 19.448,32.518 19.911,31.264C21.147,27.916 23.855,25.208 27.202,23.972C28.457,23.509 29.765,23.276 31.099,23.225C46.292,23.03 61.501,22.607 76.682,23.235ZM105.09,23.224C105.709,23.27 106.294,23.402 106.846,23.694C108.124,24.37 108.965,25.708 109.019,27.153C109.035,27.56 108.989,27.969 108.883,28.363C108.751,28.855 108.527,29.321 108.224,29.731C108.063,29.95 108.01,29.995 107.826,30.194L62.895,75.125C62.592,75.406 62.281,75.655 61.915,75.848C60.825,76.424 59.503,76.474 58.373,75.981C57.897,75.773 57.496,75.476 57.118,75.125L44.864,62.871C44.442,62.417 44.103,61.922 43.897,61.332C43.762,60.947 43.686,60.543 43.67,60.136C43.655,59.728 43.701,59.319 43.807,58.926C44.153,57.633 45.14,56.57 46.403,56.127C46.884,55.959 47.396,55.882 47.905,55.901C48.619,55.928 49.321,56.144 49.925,56.524C50.188,56.689 50.414,56.885 50.641,57.095L60.006,66.46L102.049,24.417L102.273,24.21C102.485,24.04 102.534,23.992 102.764,23.847C103.196,23.576 103.678,23.387 104.178,23.292C104.483,23.234 104.782,23.224 105.09,23.224Z"/>
        </g>
    </g>
</svg>
