<?xml version="1.0" encoding="UTF-8" standalone="no"?>
<!DOCTYPE svg PUBLIC "-//W3C//DTD SVG 1.1//EN" "http://www.w3.org/Graphics/SVG/1.1/DTD/svg11.dtd">
<svg width="100%" height="100%" viewBox="0 0 128 128" version="1.1" xmlns="http://www.w3.org/2000/svg" xmlns:xlink="http://www.w3.org/1999/xlink" xml:space="preserve" style="fill-rule:evenodd;clip-rule:evenodd;stroke-linejoin:round;stroke-miterlimit:1.41421;">
    <g id="Template">
        <g id="DamageControl">
            <path d="M128,0L128,128L0,128L0,0L128,0ZM70.75,109L70.75,81.898C77.979,79.167 83.125,72.18 83.125,64C83.125,57.162 79.528,51.157 74.125,47.776L74.125,67.563L64,73.938L53.875,67.563L53.875,47.776C48.472,51.157 44.875,57.162 44.875,64C44.875,72.18 50.021,79.167 57.25,81.898L57.25,109L70.75,109ZM101.55,56.688C100.492,51.23 98.273,46.187 95.16,41.823L100.195,36.788L90.649,27.242L85.514,32.377C81.153,29.403 76.147,27.307 70.75,26.345L70.75,19L57.25,19L57.25,26.345C51.853,27.307 46.847,29.403 42.486,32.377L37.351,27.242L27.805,36.788L32.84,41.823C29.727,46.187 27.508,51.231 26.45,56.688L19.563,56.688L19.563,70.188L26.249,70.188C27.163,75.799 29.3,81.002 32.377,85.514L27.805,90.087L37.351,99.633L41.823,95.16C44.483,97.057 47.395,98.623 50.5,99.796L50.5,91.213C40.502,86.239 33.625,75.916 33.625,64C33.625,47.236 47.236,33.625 64,33.625C80.764,33.625 94.375,47.236 94.375,64C94.375,75.916 87.498,86.239 77.5,91.213L77.5,99.796C80.605,98.623 83.517,97.057 86.177,95.16L90.649,99.633L100.195,90.087L95.623,85.514C98.699,81.003 100.836,75.8 101.751,70.188L108.437,70.188L108.437,56.688L101.55,56.688Z"/>
        </g>
    </g>
</svg>
