<?xml version="1.0" encoding="UTF-8" standalone="no"?>
<!DOCTYPE svg PUBLIC "-//W3C//DTD SVG 1.1//EN" "http://www.w3.org/Graphics/SVG/1.1/DTD/svg11.dtd">
<svg width="100%" height="100%" viewBox="0 0 128 128" version="1.1" xmlns="http://www.w3.org/2000/svg" xmlns:xlink="http://www.w3.org/1999/xlink" xml:space="preserve" xmlns:serif="http://www.serif.com/" style="fill-rule:evenodd;clip-rule:evenodd;stroke-linejoin:round;stroke-miterlimit:1.41421;">
    <path id="ShieldControl" d="M128,128L0,128L0,0L128,0L128,128ZM74.593,53.708L56.471,53.708L55.448,60.133C55.103,62.381 54.032,64.452 52.39,66.023L49.416,68.89C47.631,70.568 46.644,72.924 46.644,75.387L46.644,100.6C46.644,104.645 49.69,108.095 53.723,108.477C57.555,108.822 61.505,109.001 65.527,109.001C69.56,109.001 73.51,108.822 77.341,108.477C81.375,108.095 84.421,104.645 84.421,100.6L84.421,75.387C84.421,72.924 83.434,70.568 81.649,68.89L78.674,66.023C77.032,64.452 75.961,62.381 75.616,60.133L74.593,53.708ZM53.783,100.6L53.783,85.965C60.933,81.622 67.144,75.946 72.035,69.282C72.547,69.961 73.118,70.592 73.736,71.187L76.699,74.031C77.092,74.399 77.282,74.875 77.282,75.387L77.282,100.6C77.282,100.993 77.009,101.337 76.675,101.373C73.058,101.694 69.298,101.861 65.527,101.861C61.767,101.861 58.007,101.694 54.366,101.361C54.056,101.337 53.783,100.993 53.783,100.6ZM72.046,41.774L59.018,41.774C58.637,41.774 58.304,42.106 58.304,42.487L58.304,50.138L72.76,50.138L72.76,42.487C72.76,42.106 72.428,41.774 72.046,41.774ZM69.227,18.999L47.726,18.999L47.726,29.029L51.605,29.029C51.814,29.029 52.02,29.042 52.22,29.061C52.249,29.066 52.277,29.063 52.307,29.07C50.523,36.23 46.446,44.065 46.446,44.065C47.398,44.954 47.906,44.89 47.906,44.89C47.906,44.89 53.836,36.879 56.784,31.991C56.971,31.686 57.145,31.392 57.307,31.114C57.508,31.269 57.698,31.446 57.888,31.636C59.482,33.23 60.481,35.455 60.481,37.907L69.691,37.907L69.691,37.121C69.691,34.824 71.535,33.23 74.545,32.219C75.949,31.743 78.281,31.041 80.281,30.279C82.268,29.518 83.91,28.673 83.91,27.912C83.91,26.142 82.219,23.608 79.164,21.694C79.149,21.684 79.134,21.674 79.118,21.663C78.825,21.481 78.515,21.308 78.197,21.139C78.132,21.104 78.073,21.067 78.007,21.033C77.648,20.848 77.273,20.674 76.884,20.508C76.863,20.499 76.843,20.488 76.822,20.479C74.701,19.583 72.153,19 69.227,18.999ZM78.436,27.15C77.163,27.626 75.759,28.066 74.926,28.34C74.355,28.518 73.843,28.685 73.415,28.828C73.082,28.935 72.773,29.054 72.475,29.172C72.106,29.316 71.69,29.172 71.476,28.828C70.357,26.995 68.941,25.377 67.276,24.02C66.668,23.545 67.037,22.569 67.811,22.569L69.239,22.569C73.76,22.569 76.925,24.2 78.686,25.734C79.174,26.163 79.043,26.936 78.436,27.15ZM44.813,19.726L44.813,19.697L37.579,20.967L37.579,27.186L44.813,28.455L44.813,20.977L44.818,19.725L44.813,19.726Z"/>
</svg>
