<?xml version="1.0" encoding="UTF-8" standalone="no"?><!DOCTYPE svg PUBLIC "-//W3C//DTD SVG 1.1//EN" "http://www.w3.org/Graphics/SVG/1.1/DTD/svg11.dtd"><svg width="100%" height="100%" viewBox="0 0 128 128" version="1.1" xmlns="http://www.w3.org/2000/svg" xmlns:xlink="http://www.w3.org/1999/xlink" xml:space="preserve" xmlns:serif="http://www.serif.com/" style="fill-rule:evenodd;clip-rule:evenodd;stroke-linejoin:round;stroke-miterlimit:1.41421;"><path d="M128,123l-16,0l0,-8.606l-6.111,-8.274c-5.438,-1.674 -13.137,-4.043 -17.176,-5.285c-1.798,-0.554 -3.67,-0.835 -5.552,-0.835c-1.768,0 -4.092,0 -6.161,0c0,1.326 -0.527,2.598 -1.464,3.536c-0.938,0.937 -2.21,1.464 -3.536,1.464l0,4l8.325,0l5.675,5.675l0,8.325l-44,0l0,-8.325l5.675,-5.675l8.325,0l0,-4c-1.326,0 -2.598,-0.527 -3.536,-1.464c-0.937,-0.938 -1.464,-2.21 -1.464,-3.536c-2.069,0 -4.393,0 -6.161,0c-1.882,0 -3.754,0.281 -5.552,0.835c-4.039,1.242 -11.738,3.611 -17.176,5.285l-6.111,8.274l0,8.606l-16,0l0,-123l128,0l0,123Zm-69,-115.213l0,16l-19.213,19.213l19.213,19.213l0,16l-35.213,-35.213l35.213,-35.213Zm45.213,35.213l-35.213,35.213l0,-16l19.213,-19.213l-19.213,-19.213l0,-16l35.213,35.213Z"/></svg>