<?xml version="1.0" encoding="UTF-8" standalone="no"?><!DOCTYPE svg PUBLIC "-//W3C//DTD SVG 1.1//EN" "http://www.w3.org/Graphics/SVG/1.1/DTD/svg11.dtd"><svg width="100%" height="100%" viewBox="0 0 128 128" version="1.1" xmlns="http://www.w3.org/2000/svg" xmlns:xlink="http://www.w3.org/1999/xlink" xml:space="preserve" xmlns:serif="http://www.serif.com/" style="fill-rule:evenodd;clip-rule:evenodd;stroke-linejoin:round;stroke-miterlimit:1.41421;"><path id="DamageControl" d="M128,128l-128,0l0,-128l128,0l0,128Zm-66.169,-83.694l-1.203,7.873l1.095,5.605l0.336,0l-0.001,25.497l-4.037,0c-1.386,0 -2.51,1.123 -2.51,2.51c0,0.669 0.263,1.277 0.691,1.726c-0.678,0.991 -1.076,2.189 -1.076,3.481l-0.001,25.034c0.001,3.409 2.765,6.174 6.174,6.174l5.402,0c3.409,0 6.173,-2.764 6.174,-6.174l-0.001,-25.034c0,-1.252 -0.376,-2.416 -1.016,-3.389c0.48,-0.458 0.782,-1.102 0.782,-1.818c0,-1.386 -1.124,-2.509 -2.51,-2.51l-3.88,0.001l0.001,-25.496l0.334,0.001l1.065,-5.607l-1.266,-7.873l-4.553,-0.001Zm9.577,49.663l0,17.394c0,1.47 -1.191,2.662 -2.662,2.662c-1.471,0 -2.662,-1.191 -2.663,-2.663l0,-17.393c0,-1.471 1.192,-2.664 2.663,-2.662c1.47,-0.001 2.662,1.19 2.662,2.662Zm-11.614,20.056c-1.47,-0.001 -2.661,-1.192 -2.662,-2.663l0,-17.394c0,-1.47 1.192,-2.662 2.662,-2.662c1.47,0 2.662,1.192 2.663,2.663l-0.001,17.394c0.001,1.471 -1.191,2.663 -2.662,2.662Zm10.956,-95.025l-13.5,0l0,7.345c-5.397,0.962 -10.403,3.058 -14.764,6.032l-5.135,-5.135l-9.546,9.546l5.035,5.035c-3.113,4.364 -5.332,9.408 -6.39,14.865l-6.887,0l0,13.5l6.686,0c0.914,5.611 3.051,10.814 6.128,15.326l-4.572,4.573l9.546,9.546l4.472,-4.473c2.66,1.897 5.572,3.463 8.677,4.636l0,-8.583c-9.998,-4.974 -16.875,-15.297 -16.875,-27.213c0,-16.764 13.611,-30.375 30.375,-30.375c16.764,0 30.375,13.611 30.375,30.375c0,11.916 -6.877,22.239 -16.875,27.213l0,8.583c3.105,-1.173 6.017,-2.739 8.677,-4.636l4.472,4.473l9.546,-9.546l-4.572,-4.573c3.076,-4.511 5.213,-9.714 6.128,-15.326l6.686,0l0,-13.5l-6.887,0c-1.058,-5.458 -3.277,-10.501 -6.39,-14.865l5.035,-5.035l-9.546,-9.546l-5.135,5.135c-4.361,-2.974 -9.367,-5.07 -14.764,-6.032l0,-7.345Z"/></svg>