<?xml version="1.0" encoding="UTF-8" standalone="no"?>
<!DOCTYPE svg PUBLIC "-//W3C//DTD SVG 1.1//EN" "http://www.w3.org/Graphics/SVG/1.1/DTD/svg11.dtd">
<svg width="100%" height="100%" viewBox="0 0 128 128" version="1.1" xmlns="http://www.w3.org/2000/svg" xmlns:xlink="http://www.w3.org/1999/xlink" xml:space="preserve" xmlns:serif="http://www.serif.com/" style="fill-rule:evenodd;clip-rule:evenodd;stroke-linejoin:round;stroke-miterlimit:1.41421;">
    <path d="M128,128L0,128L0,0L128,0L128,128ZM75.304,70.649L39.321,106.632C34.83,111.123 27.549,111.123 23.057,106.632C18.566,102.141 18.566,94.859 23.057,90.368L59.039,54.387C61.943,61.789 67.898,67.744 75.304,70.649ZM38.377,95.625C38.377,93.243 36.446,91.312 34.064,91.312C31.682,91.312 29.752,93.243 29.752,95.625C29.752,98.007 31.682,99.937 34.064,99.937C36.446,99.937 38.377,98.007 38.377,95.625ZM106.146,33.812C107.83,33.812 108.857,31.973 107.988,30.532C103.459,23.022 95.223,18 85.815,18C71.538,18 59.85,29.764 59.94,44.04C60.029,58.255 71.579,69.75 85.814,69.75C95.233,69.75 103.477,64.717 108.002,57.194C108.864,55.762 107.818,53.938 106.147,53.937L87.252,53.937L80.064,43.875L87.252,33.812L106.146,33.812Z"/>
</svg>
