<?xml version="1.0" encoding="UTF-8" standalone="no"?><!DOCTYPE svg PUBLIC "-//W3C//DTD SVG 1.1//EN" "http://www.w3.org/Graphics/SVG/1.1/DTD/svg11.dtd"><svg width="100%" height="100%" viewBox="0 0 128 128" version="1.1" xmlns="http://www.w3.org/2000/svg" xmlns:xlink="http://www.w3.org/1999/xlink" xml:space="preserve" xmlns:serif="http://www.serif.com/" style="fill-rule:evenodd;clip-rule:evenodd;stroke-linejoin:round;stroke-miterlimit:1.41421;"><path d="M128,128l-128,0l0,-128l128,0l0,128Zm-98.703,-84.032l0,6.569c-0.478,0.016 -0.955,0.033 -1.432,0.051c-0.325,0.021 -0.642,0.082 -0.949,0.195c-0.907,0.335 -1.648,1.076 -1.983,1.984c-0.122,0.332 -0.185,0.678 -0.197,1.031c-0.199,15.48 -0.594,30.975 0.003,46.443c0.02,0.325 0.081,0.643 0.194,0.95c0.335,0.907 1.076,1.647 1.983,1.983c0.333,0.122 0.68,0.184 1.033,0.197c15.479,0.2 30.973,0.593 46.443,-0.003c0.325,-0.021 0.643,-0.081 0.948,-0.194c0.908,-0.336 1.649,-1.076 1.984,-1.983c0.123,-0.333 0.184,-0.68 0.198,-1.033c0.006,-0.449 0.011,-0.899 0.015,-1.348l6.599,0c-0.005,0.506 -0.011,1.012 -0.017,1.518c-0.041,1.077 -0.23,2.134 -0.604,3.147c-0.998,2.704 -3.185,4.892 -5.89,5.89c-1.013,0.374 -2.07,0.562 -3.147,0.604c-15.565,0.2 -31.134,0.2 -46.699,0c-1.077,-0.042 -2.134,-0.23 -3.148,-0.604c-2.703,-0.998 -4.891,-3.186 -5.889,-5.89c-0.374,-1.013 -0.562,-2.07 -0.604,-3.147c-0.2,-15.565 -0.2,-31.134 0,-46.699c0.042,-1.077 0.23,-2.134 0.604,-3.147c0.998,-2.705 3.186,-4.892 5.889,-5.89c1.014,-0.374 2.071,-0.563 3.148,-0.604l1.518,-0.02Zm12.923,-12.924l0,6.57c-0.477,0.015 -0.954,0.032 -1.432,0.05c-0.324,0.021 -0.642,0.082 -0.948,0.195c-0.908,0.335 -1.648,1.076 -1.983,1.984c-0.123,0.332 -0.185,0.678 -0.198,1.031c-0.198,15.481 -0.593,30.975 0.004,46.444c0.02,0.324 0.081,0.643 0.194,0.949c0.335,0.907 1.075,1.648 1.983,1.983c0.333,0.123 0.68,0.184 1.033,0.198c15.479,0.199 30.973,0.593 46.443,-0.004c0.324,-0.021 0.643,-0.081 0.948,-0.194c0.908,-0.335 1.649,-1.076 1.984,-1.983c0.123,-0.333 0.184,-0.68 0.198,-1.033c0.006,-0.449 0.011,-0.898 0.015,-1.347l6.599,0c-0.005,0.506 -0.011,1.011 -0.017,1.517c-0.042,1.077 -0.231,2.134 -0.605,3.147c-0.997,2.704 -3.185,4.892 -5.889,5.89c-1.013,0.374 -2.07,0.562 -3.148,0.604c-15.564,0.2 -31.133,0.2 -46.698,0c-1.078,-0.042 -2.134,-0.23 -3.148,-0.604c-2.703,-0.998 -4.891,-3.186 -5.889,-5.89c-0.374,-1.013 -0.562,-2.07 -0.604,-3.147c-0.2,-15.565 -0.2,-31.134 0,-46.698c0.042,-1.078 0.23,-2.135 0.604,-3.148c0.998,-2.704 3.186,-4.892 5.889,-5.89c1.014,-0.374 2.07,-0.562 3.148,-0.604l1.517,-0.02Zm48.226,-12.895c0.24,0.03 0.302,0.03 0.538,0.089c0.618,0.157 1.185,0.495 1.617,0.964c0.246,0.267 0.448,0.576 0.594,0.91c0.146,0.332 0.236,0.689 0.267,1.052c0.106,1.292 -0.579,2.557 -1.718,3.174c-0.32,0.173 -0.668,0.293 -1.028,0.353c-0.239,0.04 -0.301,0.035 -0.542,0.045c-12.154,0 -24.317,-0.464 -36.462,0.005c-0.324,0.021 -0.642,0.081 -0.948,0.194c-0.908,0.336 -1.649,1.076 -1.983,1.984c-0.123,0.332 -0.185,0.679 -0.198,1.032c-0.199,15.48 -0.594,30.974 0.003,46.443c0.021,0.325 0.082,0.643 0.195,0.949c0.334,0.907 1.075,1.648 1.983,1.983c0.333,0.123 0.679,0.184 1.032,0.198c15.48,0.199 30.974,0.593 46.444,-0.003c0.324,-0.021 0.643,-0.082 0.948,-0.195c0.908,-0.335 1.648,-1.076 1.984,-1.983c0.122,-0.333 0.184,-0.679 0.198,-1.032c0.099,-7.726 0.001,-15.454 0.001,-23.18c0.01,-0.242 0.005,-0.304 0.045,-0.544c0.059,-0.358 0.18,-0.706 0.353,-1.027c0.172,-0.32 0.399,-0.611 0.667,-0.857c0.953,-0.877 2.373,-1.115 3.559,-0.594c0.334,0.147 0.642,0.348 0.91,0.594c0.469,0.432 0.807,0.999 0.964,1.618c0.067,0.269 0.089,0.534 0.101,0.81c0,7.783 0.096,15.567 -0.004,23.349c-0.041,1.077 -0.23,2.134 -0.604,3.147c-0.997,2.705 -3.185,4.892 -5.889,5.89c-1.013,0.374 -2.07,0.562 -3.148,0.604c-15.564,0.2 -31.133,0.2 -46.698,0c-1.078,-0.042 -2.134,-0.23 -3.148,-0.604c-2.704,-0.998 -4.891,-3.185 -5.889,-5.89c-0.374,-1.013 -0.562,-2.07 -0.604,-3.147c-0.2,-15.565 -0.2,-31.134 0,-46.698c0.042,-1.078 0.23,-2.135 0.604,-3.148c0.998,-2.704 3.185,-4.892 5.889,-5.89c1.014,-0.374 2.07,-0.562 3.148,-0.603c12.272,-0.158 24.556,-0.5 36.819,0.008Z"/></svg>