<?xml version="1.0" encoding="UTF-8" standalone="no"?>
<!DOCTYPE svg PUBLIC "-//W3C//DTD SVG 1.1//EN" "http://www.w3.org/Graphics/SVG/1.1/DTD/svg11.dtd">
<svg width="100%" height="100%" viewBox="0 0 128 128" version="1.1" xmlns="http://www.w3.org/2000/svg" xmlns:xlink="http://www.w3.org/1999/xlink" xml:space="preserve" style="fill-rule:evenodd;clip-rule:evenodd;stroke-linejoin:round;stroke-miterlimit:1.41421;">
    <path d="M128,0L128,128L0,128L0,0L128,0ZM87.75,111.5L87.75,16.5L40.25,16.5L40.25,111.5L87.75,111.5ZM84.781,37.281L84.781,108.531L43.219,108.531L43.219,37.281L84.781,37.281ZM66.969,84.781L66.969,81.813L46.188,81.813L46.188,105.563L66.969,105.563L66.969,102.594L69.938,102.594L69.938,105.563L72.906,105.563L72.906,99.625L66.969,99.625L66.969,96.656L69.938,96.656L69.938,93.688L72.906,93.688L72.906,84.781L66.969,84.781ZM81.813,105.563L81.813,84.781L75.875,84.781L75.875,105.563L81.813,105.563ZM52.125,87.75L55.094,87.75L55.094,84.781L58.063,84.781L58.063,87.75L61.031,87.75L61.031,84.781L64,84.781L64,102.594L61.031,102.594L61.031,99.625L58.063,99.625L58.063,102.594L55.094,102.594L55.094,99.625L52.125,99.625L52.125,102.594L49.156,102.594L49.156,84.781L52.125,84.781L52.125,87.75ZM55.094,96.656L55.094,90.719L52.125,90.719L52.125,96.656L55.094,96.656ZM61.031,96.656L61.031,90.719L58.063,90.719L58.063,96.656L61.031,96.656ZM69.938,87.75L69.938,90.719L66.969,90.719L66.969,87.75L69.938,87.75ZM81.813,61.031L81.813,58.063L75.875,58.063L75.875,61.031L72.906,61.031L72.906,75.875L46.188,75.875L46.188,78.844L75.875,78.844L75.875,75.875L78.844,75.875L78.844,61.031L81.813,61.031ZM66.969,72.906L66.969,61.031L64,61.031L64,72.906L66.969,72.906ZM52.125,72.906L52.125,58.063L49.156,58.063L49.156,72.906L52.125,72.906ZM61.031,69.938L61.031,66.969L55.094,66.969L55.094,69.938L61.031,69.938ZM61.031,64L61.031,61.031L55.094,61.031L55.094,64L61.031,64ZM66.969,52.125L66.969,49.156L61.031,49.156L61.031,52.125L46.188,52.125L46.188,55.094L61.031,55.094L61.031,58.063L66.969,58.063L66.969,55.094L81.813,55.094L81.813,52.125L66.969,52.125ZM81.813,46.188L81.813,40.25L46.188,40.25L46.188,49.156L58.063,49.156L58.063,46.188L81.813,46.188ZM84.781,19.469L84.781,34.313L43.219,34.313L43.219,19.469L84.781,19.469ZM58.063,31.344L58.063,22.438L46.188,22.438L46.188,31.344L58.063,31.344ZM64,31.344L64,22.438L61.031,22.438L61.031,31.344L64,31.344ZM69.938,28.375L69.938,25.406L66.969,25.406L66.969,31.344L72.906,31.344L72.906,28.375L69.938,28.375ZM78.844,25.406L78.844,22.438L75.875,22.438L75.875,28.375L78.844,28.375L78.844,31.344L81.813,31.344L81.813,25.406L78.844,25.406Z"/>
</svg>
