<?xml version="1.0" encoding="UTF-8" standalone="no"?>
<!DOCTYPE svg PUBLIC "-//W3C//DTD SVG 1.1//EN" "http://www.w3.org/Graphics/SVG/1.1/DTD/svg11.dtd">
<svg width="100%" height="100%" viewBox="0 0 128 128" version="1.1" xmlns="http://www.w3.org/2000/svg" xmlns:xlink="http://www.w3.org/1999/xlink" xml:space="preserve" xmlns:serif="http://www.serif.com/" style="fill-rule:evenodd;clip-rule:evenodd;stroke-linejoin:round;stroke-miterlimit:1.41421;">
    <path id="PowerDistributionBattery" d="M128,128L0,128L0,0L128,0L128,128ZM70.141,94.625C70.742,94.625 71.312,94.895 71.692,95.362C72.071,95.828 72.221,96.44 72.1,97.029C69.032,111.868 64.52,121.575 57.263,121.575C45.431,121.575 37.05,95.777 37.05,64C37.05,32.223 45.431,6.425 57.263,6.425C64.722,6.425 69.126,16.679 72.133,32.221C72.246,32.807 72.091,33.413 71.712,33.873C71.332,34.333 70.766,34.599 70.17,34.599C68.631,34.6 66.671,34.6 65.282,34.6C64.287,34.6 63.443,33.868 63.302,32.883C61.842,22.687 59.677,16.225 57.263,16.225C52.868,16.225 48.075,37.632 48.075,64C48.075,90.368 52.868,111.775 57.263,111.775C59.58,111.775 61.668,105.82 63.124,96.323C63.273,95.346 64.113,94.625 65.1,94.625C66.522,94.625 68.554,94.625 70.141,94.625ZM30.472,88.801C31.024,89.513 31.193,90.45 30.925,91.31C30.657,92.17 29.985,92.845 29.126,93.118C28.503,93.285 27.882,93.4 27.25,93.4C20.489,93.4 15,80.226 15,64C15,47.774 20.489,34.6 27.25,34.6C27.882,34.6 28.503,34.715 29.109,34.937C29.95,35.204 30.607,35.865 30.869,36.707C31.131,37.549 30.966,38.466 30.426,39.164C27.063,44.422 24.8,53.582 24.8,64C24.8,74.418 27.063,83.578 30.472,88.801ZM80.964,64.595C81.085,64.208 81.085,63.792 80.964,63.405C80.106,60.652 76.493,49.061 74.79,43.597C74.591,42.958 74.724,42.261 75.147,41.742C75.569,41.222 76.223,40.948 76.89,41.011C82.652,41.562 95.024,42.745 98.562,43.083C99.17,43.141 99.719,43.474 100.051,43.987C102.147,47.227 109.91,59.224 112.297,62.913C112.725,63.575 112.725,64.425 112.297,65.087C109.91,68.776 102.147,80.773 100.051,84.013C99.719,84.526 99.17,84.859 98.562,84.917C95.024,85.255 82.652,86.438 76.89,86.989C76.223,87.052 75.569,86.778 75.147,86.258C74.724,85.739 74.591,85.042 74.79,84.403C76.493,78.939 80.106,67.348 80.964,64.595ZM64.848,64L58.225,47.445C57.038,44.304 59.145,40.646 62.975,40.729C63.585,40.766 63.754,40.811 64.086,40.904C65.552,41.311 66.634,42.17 67.325,43.805L74.675,62.18C74.819,62.562 74.894,62.954 74.909,63.346C75.046,64.15 74.985,64.998 74.675,65.82L67.325,84.195C65.434,88.67 55.614,87.465 58.225,80.555L64.848,64Z"/>
</svg>
