<?xml version="1.0" encoding="UTF-8" standalone="no"?><!DOCTYPE svg PUBLIC "-//W3C//DTD SVG 1.1//EN" "http://www.w3.org/Graphics/SVG/1.1/DTD/svg11.dtd"><svg width="100%" height="100%" viewBox="0 0 128 128" version="1.1" xmlns="http://www.w3.org/2000/svg" xmlns:xlink="http://www.w3.org/1999/xlink" xml:space="preserve" xmlns:serif="http://www.serif.com/" style="fill-rule:evenodd;clip-rule:evenodd;stroke-linejoin:round;stroke-miterlimit:1.41421;"><path d="M128,128l-128,0l0,-128l128,0l0,128Zm-53.992,-68.652c0.09,0.055 2.482,-1.19 3.018,-1.592c1.603,-1.203 2.495,-2.805 2.464,-2.937c11.558,-1.87 19.51,-5.765 19.51,-10.248l0,-7.142c0,-6.295 -15.677,-11.429 -35,-11.429c-19.323,0 -35,5.134 -35,11.429l0,7.142c0,4.318 7.376,8.09 18.245,10.033l-3.809,3.745l-0.605,0.513c-6.013,-1.25 -10.112,-2.801 -13.831,-5.362l0,16.071c0,6.295 15.677,11.429 35,11.429c3.272,0 6.439,-0.147 9.444,-0.423c1.595,1.861 3.03,3.532 4.035,4.698c-4.344,0.547 -8.914,0.814 -13.479,0.814c-13.717,0 -27.48,-2.41 -35,-7.589l0,16.071c0,6.295 15.677,11.429 35,11.429c19.323,0 35,-5.134 35,-11.429l0,-16.071c-2.586,1.781 -5.911,3.235 -9.718,4.375c-0.106,-1.029 -0.621,-2.044 -1.566,-2.85c-0.483,-0.411 -1.095,-0.938 -1.8,-1.549c7.977,-2.097 13.084,-5.312 13.084,-8.905l0,-16.071c-5.947,4.096 -15.799,6.46 -26.445,7.269l1.453,-1.421Zm-1.636,-0.357l-5.057,4.947c0,0 14.165,12.478 18.401,16.087c1.07,0.912 1.588,2.092 1.588,3.256c0,2.286 -2,4.247 -4.391,4.096c-1.171,-0.072 -2.209,-0.682 -2.975,-1.569c-3.646,-4.222 -15.92,-18.575 -15.92,-18.575l-5.055,4.945l-13.189,-13.187l13.414,-13.188l13.184,13.188Zm-27.694,2.086l12.411,12.413c0.437,0.437 0.683,1.03 0.683,1.647c0,0.619 -0.246,1.213 -0.683,1.648c-0.437,0.439 -1.029,0.684 -1.648,0.684c-0.619,0 -1.211,-0.245 -1.648,-0.684l-12.414,-12.41c-0.435,-0.439 -0.683,-1.031 -0.683,-1.648c0,-0.619 0.248,-1.211 0.683,-1.65c0.439,-0.435 1.031,-0.681 1.648,-0.681c0.619,0 1.211,0.246 1.651,0.681Zm19.779,-19.78l12.412,12.414c0.439,0.435 0.684,1.029 0.684,1.648c0,1.286 -1.044,2.331 -2.332,2.331c-0.62,0 -1.21,-0.248 -1.646,-0.682l-12.414,-12.414c-0.44,-0.435 -0.683,-1.029 -0.683,-1.649c0,-1.279 1.034,-2.33 2.331,-2.33c0.617,0 1.209,0.245 1.648,0.682Z"/></svg>