<?xml version="1.0" encoding="UTF-8" standalone="no"?><!DOCTYPE svg PUBLIC "-//W3C//DTD SVG 1.1//EN" "http://www.w3.org/Graphics/SVG/1.1/DTD/svg11.dtd"><svg width="100%" height="100%" viewBox="0 0 128 128" version="1.1" xmlns="http://www.w3.org/2000/svg" xmlns:xlink="http://www.w3.org/1999/xlink" xml:space="preserve" xmlns:serif="http://www.serif.com/" style="fill-rule:evenodd;clip-rule:evenodd;stroke-linejoin:round;stroke-miterlimit:1.41421;"><path d="M128,128l-128,0l0,-128l128,0l0,128Zm-89,-71.576l0,1.535c-3.925,-1.153 -7.35,-2.634 -10,-4.459l0,16.071c0,5.448 11.74,10.026 27.424,11.159l0,5.109c-11.018,-0.736 -21.295,-3.118 -27.424,-7.339l0,16.071c0,6.295 15.677,11.429 35,11.429c19.323,0 35,-5.134 35,-11.429l0,-16.071c-6.129,4.221 -16.405,6.603 -27.424,7.339l0,-5.109c15.684,-1.133 27.424,-5.711 27.424,-11.159l0,-16.071c-2.65,1.825 -6.075,3.306 -10,4.459l0,-1.535l-17.424,0l0,-0.694c15.684,-1.133 27.424,-5.711 27.424,-11.159l0,-7.142c0,-6.295 -15.677,-11.429 -35,-11.429c-19.323,0 -35,5.134 -35,11.429l0,7.142c0,5.448 11.74,10.026 27.424,11.159l0,0.694l-17.424,0Zm31.667,0.909l15.333,0l0,13.334l-15.333,0l0,15.333l-13.334,0l0,-15.333l-15.333,0l0,-13.334l15.333,0l0,-15.333l13.334,0l0,15.333Z"/></svg>