<?xml version="1.0" encoding="UTF-8" standalone="no"?>
<!DOCTYPE svg PUBLIC "-//W3C//DTD SVG 1.1//EN" "http://www.w3.org/Graphics/SVG/1.1/DTD/svg11.dtd">
<svg width="100%" height="100%" viewBox="0 0 128 128" version="1.1" xmlns="http://www.w3.org/2000/svg" xmlns:xlink="http://www.w3.org/1999/xlink" xml:space="preserve" xmlns:serif="http://www.serif.com/" style="fill-rule:evenodd;clip-rule:evenodd;stroke-linejoin:round;stroke-miterlimit:1.41421;">
    <path d="M141,146L-24,146L-24,-20L141,-20L141,146ZM78.219,24.188L49.781,24.188C45.069,24.188 41.25,28.007 41.25,32.719L41.25,41.25L27.031,41.25C22.319,41.25 18.5,45.07 18.5,49.781L18.5,64L42.5,64L42.5,69.688L18.5,69.688L18.5,95.281C18.5,99.993 22.32,103.813 27.031,103.813L100.969,103.813C105.681,103.812 109.5,99.993 109.5,95.281L109.5,69.688L85.5,69.688L85.5,64L109.5,64L109.5,49.781C109.5,45.07 105.681,41.25 100.969,41.25L86.75,41.25L86.75,32.719C86.75,28.007 82.931,24.188 78.219,24.188ZM71.035,63.965L82.5,63.965L82.5,78.035L71.035,78.035L71.035,89.5L56.965,89.5L56.965,78.035L45.5,78.035L45.5,63.965L56.965,63.965L56.965,52.5L71.035,52.5L71.035,63.965ZM75.375,41.25L52.625,41.25L52.625,35.563L75.375,35.563L75.375,41.25Z"/>
</svg>
