<?xml version="1.0" encoding="UTF-8" standalone="no"?>
<!DOCTYPE svg PUBLIC "-//W3C//DTD SVG 1.1//EN" "http://www.w3.org/Graphics/SVG/1.1/DTD/svg11.dtd">
<svg width="100%" height="100%" viewBox="0 0 128 128" version="1.1" xmlns="http://www.w3.org/2000/svg" xmlns:xlink="http://www.w3.org/1999/xlink" xml:space="preserve" style="fill-rule:evenodd;clip-rule:evenodd;stroke-linejoin:round;stroke-miterlimit:1.41421;">
    <g transform="matrix(0.84375,0,0,0.84375,10,10)">
        <g id="Template">
            <g id="Layer1">
                <g id="LongRangeComm">
                    <path d="M139.852,-11.852L139.852,139.852L-11.852,139.852L-11.852,-11.852L139.852,-11.852ZM101.347,22.389C102.857,22.447 104.339,22.71 105.759,23.233C109.553,24.629 112.619,27.695 114.015,31.489C114.538,32.909 114.801,34.391 114.859,35.901C115.098,54.632 115.098,73.368 114.859,92.099C114.801,93.609 114.538,95.091 114.015,96.511C112.619,100.305 109.553,103.371 105.759,104.767C104.338,105.29 102.857,105.553 101.347,105.611C76.451,105.929 51.549,105.929 26.653,105.611C25.143,105.553 23.662,105.29 22.241,104.767C18.447,103.371 15.381,100.305 13.985,96.511C13.462,95.091 13.199,93.609 13.141,92.099C12.902,73.368 12.902,54.632 13.141,35.901C13.199,34.391 13.462,32.909 13.985,31.489C15.381,27.695 18.447,24.629 22.241,23.233C23.662,22.71 25.143,22.447 26.653,22.389C51.549,22.071 76.451,22.071 101.347,22.389ZM105.866,44.962L66.652,72.412C66.307,72.632 65.968,72.828 65.581,72.969C64.566,73.338 63.434,73.338 62.419,72.969C62.032,72.828 61.694,72.632 61.348,72.412L22.261,45.051C22.029,60.697 21.792,76.349 22.392,91.981C22.423,92.476 22.521,92.96 22.705,93.422C23.189,94.645 24.201,95.634 25.435,96.088C25.903,96.26 26.391,96.346 26.889,96.365C51.667,96.682 76.467,97.31 101.229,96.361C101.724,96.329 102.208,96.231 102.67,96.048C103.892,95.564 104.882,94.552 105.336,93.318C105.508,92.849 105.594,92.361 105.613,91.863C105.813,76.232 106.177,60.59 105.866,44.962ZM105.122,34.194C104.592,33.15 103.667,32.318 102.565,31.912C102.097,31.74 101.609,31.654 101.111,31.635C76.422,31.32 51.729,31.633 27.038,31.633C26.489,31.64 25.952,31.722 25.435,31.912C24.332,32.318 23.408,33.151 22.878,34.194L64,62.98L105.122,34.194Z"/>
                </g>
            </g>
        </g>
    </g>
</svg>
