<?xml version="1.0" encoding="UTF-8" standalone="no"?>
<!DOCTYPE svg PUBLIC "-//W3C//DTD SVG 1.1//EN" "http://www.w3.org/Graphics/SVG/1.1/DTD/svg11.dtd">
<svg width="100%" height="100%" viewBox="0 0 128 128" version="1.1" xmlns="http://www.w3.org/2000/svg" xmlns:xlink="http://www.w3.org/1999/xlink" xml:space="preserve" style="fill-rule:evenodd;clip-rule:evenodd;stroke-linejoin:round;stroke-miterlimit:1.41421;">
    <g transform="matrix(1,0,0,1,0,-4)">
        <g id="Template">
            <g id="Navigation">
                <path d="M130,-6L130,139L-8,139L-8,-6L130,-6ZM98.134,26C98.724,26.064 99.279,26.195 99.808,26.477C101.171,27.202 102.034,28.669 102.004,30.213C101.993,30.812 101.838,31.361 101.606,31.908L64.317,110.63C64.172,110.905 64.144,110.98 63.964,111.235C63.696,111.618 63.362,111.955 62.982,112.227C62.601,112.499 62.175,112.706 61.726,112.836C60.243,113.266 58.604,112.815 57.548,111.689C57.229,111.348 56.968,110.952 56.779,110.524C56.654,110.238 56.641,110.16 56.553,109.861L48.869,79.127L18.135,71.443L17.798,71.344C17.509,71.231 17.431,71.211 17.157,71.062C16.747,70.838 16.375,70.545 16.062,70.197C15.111,69.142 14.765,67.634 15.16,66.27C15.29,65.821 15.497,65.395 15.769,65.014C16.041,64.634 16.378,64.3 16.76,64.032C17.016,63.852 17.09,63.824 17.366,63.679L96.088,26.39C96.375,26.269 96.444,26.229 96.744,26.144C97.045,26.06 97.125,26.058 97.433,26.013C97.783,25.992 97.782,25.992 98.134,26ZM31.376,66.212L53.291,71.691L53.621,71.788C53.946,71.914 54.254,72.048 54.548,72.239C55.223,72.679 55.761,73.315 56.083,74.054C56.206,74.335 56.219,74.412 56.305,74.705L61.784,96.62L89.151,38.845C69.893,47.967 50.634,57.09 31.376,66.212Z"/>
            </g>
        </g>
    </g>
</svg>
