<?xml version="1.0" encoding="UTF-8" standalone="no"?><!DOCTYPE svg PUBLIC "-//W3C//DTD SVG 1.1//EN" "http://www.w3.org/Graphics/SVG/1.1/DTD/svg11.dtd"><svg width="100%" height="100%" viewBox="0 0 128 128" version="1.1" xmlns="http://www.w3.org/2000/svg" xmlns:xlink="http://www.w3.org/1999/xlink" xml:space="preserve" xmlns:serif="http://www.serif.com/" style="fill-rule:evenodd;clip-rule:evenodd;stroke-linejoin:round;stroke-miterlimit:1.41421;"><path id="SecurityScans" d="M0,67.124l27.504,0c0.056,0.687 0.133,1.373 0.231,2.057c2.185,15.248 14.445,27.602 28.997,30.393c11.466,2.2 23.749,-1.513 32.061,-9.581c6.257,-6.074 9.961,-14.361 10.753,-22.869l28.454,0l0,60.876l-128,0l0,-60.876Zm46.242,0l0,11.661c0,1.684 1.365,3.05 3.05,3.05c0,0 0,0 0.001,0c1.684,0 3.05,-1.366 3.05,-3.05l0,-11.318l23.703,18.94c1.029,0.808 2.565,-0.039 2.597,-1.22c0.053,-6.02 0.084,-12.041 0.092,-18.063l15.806,0c-0.043,0.446 -0.096,0.891 -0.16,1.334c-1.883,13.138 -12.486,23.772 -25.01,26.134c-11.766,2.218 -24.222,-2.93 -31.058,-12.419c-3.206,-4.45 -5.081,-9.692 -5.614,-15.049l13.543,0Zm11.294,-3.112l15.166,12.119l0,-24.238c-5.055,4.04 -10.111,8.079 -15.166,12.119Zm70.464,-3.112l-28.399,0c-0.229,-3.001 -0.832,-5.967 -1.825,-8.813c-5.067,-14.516 -19.319,-24.215 -34.081,-24.285c-0.116,-0.001 -0.233,0 -0.35,0c-7.07,0.056 -14.07,2.2 -19.921,6.129c-9.136,6.135 -14.858,16.352 -15.873,26.969l-27.551,0l0,-38.107l18.627,18.627c0,0 -2.908,0 -5.742,0c-0.892,0 -1.695,0.537 -2.036,1.361c-0.342,0.824 -0.153,1.772 0.477,2.402c0.001,0.001 0.003,0.002 0.004,0.003c0.642,0.643 1.514,1.004 2.422,1.004c3.696,0 13.333,0 13.333,0c0,0 0,-9.637 0,-13.333c0,-0.908 -0.361,-1.78 -1.004,-2.422c-0.001,-0.001 -0.002,-0.002 -0.003,-0.004c-0.631,-0.63 -1.579,-0.819 -2.402,-0.477c-0.824,0.341 -1.361,1.144 -1.361,2.036c0,2.834 0,5.743 0,5.743l-22.315,-22.316l0,-15.417l15.355,0l22.429,22.43c0,0 -2.908,0 -5.742,0c-0.892,0 -1.695,0.537 -2.036,1.36c-0.342,0.824 -0.153,1.772 0.477,2.402c0.001,0.001 0.003,0.002 0.004,0.004c0.642,0.642 1.514,1.003 2.422,1.003c3.696,0 13.333,0 13.333,0c0,0 0,-9.637 0,-13.332c0,-0.909 -0.361,-1.78 -1.004,-2.423c-0.001,-0.001 -0.002,-0.002 -0.003,-0.003c-0.631,-0.631 -1.579,-0.819 -2.402,-0.478c-0.824,0.341 -1.361,1.145 -1.361,2.036c0,2.835 0,5.743 0,5.743l-18.742,-18.742l105.27,0l0,60.9Zm-33.505,0c-0.982,-8.945 -5.844,-17.499 -13.523,-22.689c-5.016,-3.39 -11.009,-5.249 -17.092,-5.316c-0.134,-0.001 -0.268,-0.002 -0.402,-0.001c-11.285,0.053 -22.243,6.636 -27.525,16.789c-1.812,3.483 -2.901,7.31 -3.271,11.217l13.56,0l0,-11.66c0,-1.685 1.365,-3.05 3.05,-3.05c0,0 0,0 0.001,0c1.684,0 3.05,1.365 3.05,3.05l0,11.309c7.894,-6.335 15.762,-12.703 23.725,-18.95c0.292,-0.221 0.652,-0.338 1.017,-0.332c0.818,0.028 1.535,0.742 1.558,1.57c0.053,6.021 0.084,12.042 0.092,18.063l15.76,0Z"/></svg>