<?xml version="1.0" encoding="UTF-8" standalone="no"?>
<!DOCTYPE svg PUBLIC "-//W3C//DTD SVG 1.1//EN" "http://www.w3.org/Graphics/SVG/1.1/DTD/svg11.dtd">
<svg width="100%" height="100%" viewBox="0 0 128 128" version="1.1" xmlns="http://www.w3.org/2000/svg" xmlns:xlink="http://www.w3.org/1999/xlink" xml:space="preserve" style="fill-rule:evenodd;clip-rule:evenodd;stroke-linejoin:round;stroke-miterlimit:1.41421;">
    <g id="Template">
        <g id="PhaserCharging">
            <path d="M128,0L128,128L0,128L0,0L128,0ZM52.747,53.2C55.587,50.242 59.58,48.4 64,48.4C72.61,48.4 79.6,55.39 79.6,64C79.6,72.61 72.61,79.6 64,79.6C59.58,79.6 55.587,77.758 52.747,74.8L43.4,74.8L36.961,91.039L53.765,84.376C54.64,84.816 55.547,85.203 56.483,85.53L64,112L71.517,85.53C72.452,85.203 73.36,84.817 74.235,84.376L91.039,91.039L84.376,74.235C84.816,73.36 85.203,72.453 85.53,71.517L112,64L85.53,56.483C85.203,55.548 84.817,54.64 84.376,53.765L91.039,36.961L74.235,43.624C73.36,43.184 72.453,42.797 71.517,42.47L64,16L56.483,42.47C55.548,42.797 54.64,43.183 53.765,43.624L36.961,36.961L43.4,53.2L52.747,53.2ZM57.107,59.2C58.626,57.024 61.148,55.6 64,55.6C68.636,55.6 72.4,59.364 72.4,64C72.4,68.636 68.636,72.4 64,72.4C61.148,72.4 58.626,70.976 57.107,68.8L16,68.8L16,59.2L57.107,59.2Z"/>
        </g>
    </g>
</svg>
