<?xml version="1.0" encoding="UTF-8" standalone="no"?><!DOCTYPE svg PUBLIC "-//W3C//DTD SVG 1.1//EN" "http://www.w3.org/Graphics/SVG/1.1/DTD/svg11.dtd"><svg width="100%" height="100%" viewBox="0 0 128 128" version="1.1" xmlns="http://www.w3.org/2000/svg" xmlns:xlink="http://www.w3.org/1999/xlink" xml:space="preserve" xmlns:serif="http://www.serif.com/" style="fill-rule:evenodd;clip-rule:evenodd;stroke-linejoin:round;stroke-miterlimit:1.41421;"><g id="Layer1"><path id="PowerDistribution" d="M128,128l-128,0l0,-10.86l5.14,-0.142l8.708,-5.027l1.451,2.513l7.151,-4.129l2.587,-5.162l11.262,-6.502l0.19,-0.71l1.245,0.196l10.201,-9.193l0.573,0.153l61.148,-35.304l1.331,-2.225l7.356,-4.247l2.688,-5.269l-0.632,-1.42l-0.567,-0.152l5.024,-2.9l-2.629,-9.574l-0.28,-0.484l0.237,-0.883l-0.994,-1.722l-2.464,-0.66l-5.978,3.452l-1.17,4.364l-4.933,2.848l-1.717,-2.974l-3.502,2.023l-1.257,4.691l-5.022,2.899l-1.717,-2.974l-3.503,2.022l-1.257,4.691l-5.022,2.9l-1.717,-2.974l-3.502,2.022l-1.257,4.691l-5.022,2.899l-1.717,-2.974l-3.503,2.023l-1.257,4.691l-5.021,2.899l-1.718,-2.974l-3.877,2.238l-1.257,4.692c-1.674,0.966 -3.347,1.932 -5.021,2.899l-1.717,-2.974l-3.503,2.022l-1.257,4.691l-5.022,2.899l-1.717,-2.974l-3.502,2.023l-1.258,4.691l-0.494,1.174l-4.06,2.344l2.821,-2.471l-4.163,-7.21l-4.032,1.39l3.942,-2.276l0.315,0.417l6.871,1.841l3.503,-2.022l-1.777,-3.078c0,0 4.818,-2.866 4.818,-2.866l4.955,1.328l3.502,-2.023l-1.777,-3.077c0,0 4.819,-2.866 4.819,-2.866l4.954,1.327l3.877,-2.238l-1.777,-3.078c0,0 4.819,-2.866 4.819,-2.866l4.954,1.327l3.503,-2.022l-1.777,-3.078c0,0 4.818,-2.866 4.818,-2.866l4.954,1.328l3.503,-2.023l-1.777,-3.077c0,0 4.819,-2.867 4.819,-2.867l4.954,1.328l3.503,-2.022l-1.777,-3.078c0,0 4.818,-2.866 4.818,-2.866l4.954,1.327l3.503,-2.022l-1.777,-3.078c0,0 4.795,-2.852 4.795,-2.852l4.752,1.273l6.048,-3.837l0.604,-2.257l-10.194,-8.455l-9.471,5.468l-0.817,-0.219l0.254,-1.799l-5.697,-1.527l-27.283,15.752l-1.465,5.469l-5.453,3.148l-6.572,-1.76l-1.246,0.719l-5.82,-1.081l-1.259,0.727l-1.777,-3.079l-5.094,-0.605l-3.7,2.346l-0.109,1.521l-17.077,9.859l-1.298,-0.345l-4.689,2.708l-5.209,8.578l-5.317,3.069l0,-61.631l128,0l0,128Zm-81.621,-40.306l-9.066,8.171l-0.368,-0.637l-2.116,1.222l-0.247,0.923l-11.064,6.387l-2.587,5.162l-4.9,2.829l-1.451,-2.512l-9.998,5.772l-4.582,0.113l0,-1.003l4.07,-0.246l0.09,-0.028l30.446,-17.577c0.02,-0.018 0.04,-0.036 0.06,-0.053l0.015,-0.228c-0.14,-0.244 -0.284,-0.506 -0.148,-0.748l0.604,-1.057l11.242,-6.49Zm-17.043,-45.167l6.172,-3.564l0.114,-1.573l2.247,-1.425l3.393,0.403l1.793,3.105l-2.152,1.339c-0.761,0.48 -1.312,1.226 -1.592,2.065c-0.007,0.003 -0.014,0.005 -0.022,0.009l-19.958,11.522c-0.141,0.102 -0.138,0.142 -0.075,0.281l0.671,1.162c0.101,0.141 0.141,0.138 0.28,0.075c3.446,-1.989 6.88,-4 10.338,-5.968c1.466,-0.81 3.475,-0.329 4.394,1.147l-0.388,0.322c-0.072,0.075 -0.09,0.162 -0.047,0.261l3.053,5.289c0.035,0.048 0.08,0.08 0.136,0.095l0.005,0.004l0.008,-0.001c0.011,0.002 0.022,0.004 0.034,0.005l0.998,-0.022l-10.484,6.053c-0.056,0.042 -0.092,0.1 -0.103,0.174l-0.046,2.358l-4.963,2.865l-0.578,-1c-0.073,-0.095 -0.165,-0.123 -0.281,-0.075l-2.323,1.341c-0.077,0.059 -0.082,0.093 -0.095,0.125l-0.607,2.265l-14.283,8.246c0,0 -0.218,0.532 0.205,0.356l14.357,-8.289c0.078,-0.059 0.083,-0.093 0.096,-0.125l0.607,-2.265l2.071,-1.195l0.578,1c0.073,0.095 0.165,0.123 0.281,0.075l5.242,-3.026c0,0 0.039,-0.028 0.074,-0.074c0.02,-0.048 0.021,-0.048 0.028,-0.1l0.046,-2.358l11.033,-6.37l4.295,-0.096l-4.194,2.422c-0.044,0.031 -0.076,0.073 -0.096,0.125l-0.756,2.822l-12.874,7.433l-0.441,-0.764l-8.285,4.783l1.723,2.986l0.464,-0.16l-0.347,1.296l-5.53,3.469l-2.994,-1.769c-0.116,-0.044 -0.16,-0.018 -0.204,-0.003l-2.146,1.186c-0.033,0.026 -0.072,0.044 -0.104,0.152l-3.092,22.624l0.1,0.206l0.076,0.026l2.557,0.341l0.13,-0.026l47.977,-27.769l0.022,-0.004l-3.804,5.478c-0.08,0.117 -0.081,0.126 -0.112,0.182c-0.333,0.61 -0.304,1.378 0.05,1.99l-17.125,9.887c-0.043,0.033 -0.043,0.033 -0.076,0.076c-0.396,0.692 -0.988,1.349 -0.638,1.992l0.053,0.092l-30.225,17.451l-3.997,0.242l0,-10.033l3.138,-0.26c0.043,-0.008 0.043,-0.008 0.083,-0.025l0.72,-0.4c0.013,-0.01 0.026,-0.019 0.039,-0.028c0.02,-0.024 0.044,-0.04 0.065,-0.126l2.696,-21.097c0.001,-0.028 0.008,-0.054 -0.025,-0.129l-0.315,-0.545c-0.043,-0.06 -0.102,-0.095 -0.177,-0.103l-4.358,-0.015c-0.023,0.002 -0.043,-0.001 -0.104,0.028l-1.762,1.023l0,-3.826l11.78,-6.802c0.011,-0.008 0.023,-0.016 0.034,-0.024c0.038,-0.042 0.062,-0.092 0.069,-0.15l0.063,-3.762c-0.009,-0.097 -0.059,-0.166 -0.153,-0.202l-0.44,-0.116c-0.053,-0.008 -0.105,-0.002 -0.155,0.021l-2.19,1.264c-0.074,0.054 -0.108,0.126 -0.099,0.219l0.096,0.474l-1.942,1.121l-1.165,-0.767c-0.069,-0.035 -0.141,-0.039 -0.216,-0.006l-5.558,3.209c-0.044,0.031 -0.077,0.073 -0.096,0.125l-0.028,0.105l0,-4.59l4.052,-2.339c0.74,0.498 1.198,1.36 1.209,2.247c0,0 0.094,0.585 0.374,0.27c0.166,-0.293 -0.23,-2.169 -1.471,-2.934c0,0 -0.114,-0.044 -0.209,-0.002l-3.955,2.283l0,-1.686l7.581,-4.377l0.399,0.134l1.351,2.34l0.057,1.497c0.025,0.12 0.069,0.143 0.105,0.172l0.97,0.542c0.044,0.015 0.087,0.041 0.203,-0.002l9.538,-5.506c0.007,-0.004 0.016,-0.009 0.025,-0.014l0.002,-0.002l0,0c0.011,-0.007 0.022,-0.016 0.035,-0.026c0.006,-0.006 0.012,-0.013 0.017,-0.02l0.008,-0.007l0,-0.004c0.042,-0.065 0.045,-0.145 0.014,-0.21l0.001,-0.014l-3.65,-6.321c-0.03,-0.04 -0.03,-0.04 -0.07,-0.072l-4.556,-2.816l3.47,-2.004l1.297,0.345l7.322,-4.227l-5.068,6.705c-0.103,0.168 0.066,0.393 0.266,0.302l18.195,-10.504c0.01,-0.008 0.021,-0.016 0.032,-0.024c0.123,-0.13 0.042,-0.361 -0.157,-0.359l-8.051,0.868Zm-27.384,69.133c0.303,-0.19 0.669,-0.436 0.684,-0.623l0.15,-3.684c0,-0.117 -0.09,-0.21 -0.207,-0.214l-2.295,0.021c-0.113,0.006 -0.2,0.094 -0.204,0.208l0.043,3.479c0.002,0.05 0.006,0.081 0.055,0.138l0.46,0.495c0.333,0.35 0.893,0.431 1.314,0.18Zm-0.241,-0.335c-0.25,0.133 -0.576,0.081 -0.773,-0.126l-0.405,-0.436l-0.039,-3.194l1.873,-0.017l-0.138,3.374c-0.171,0.136 -0.331,0.293 -0.518,0.399Zm120.665,-75.183l0.142,0.518l-5.691,3.286l1.256,2.175l0.605,0.163l-1.857,3.64l-7.294,4.212l-1.331,2.225l-25.319,14.618l-2.297,-0.47c-0.073,-0.002 -0.073,-0.001 -0.143,0.023l-12.464,7.116l-12.241,2.277l-0.065,0.024l-47.948,27.752l-2.282,-0.304l2.762,-20.208l2.222,3.848l-1.889,14.445c0.009,0.167 0.107,0.275 0.306,0.205l113.528,-65.545Zm-122.376,46.332l1.92,-1.114l4.184,0.014l0.221,0.382l-2.674,20.926l-0.591,0.328l-3.06,0.254l0,-5.121l1.079,-0.623c0.01,-0.007 0.02,-0.014 0.03,-0.021c0.035,-0.036 0.059,-0.079 0.071,-0.128l0.8,-5.634c0.008,-0.158 -0.105,-0.299 -0.306,-0.207l-1.674,0.966l0,-1.781l0.906,-0.512c0.007,-0.004 0.013,-0.008 0.02,-0.012c0.116,-0.096 0.102,-0.281 -0.036,-0.354l-0.89,-0.404l0,-2.231l2.02,1.125c0.193,0.079 0.243,0.033 0.301,-0.136l1.145,-5.23c0.026,-0.249 -0.103,-0.309 -0.303,-0.222l-3.163,1.826l0,-2.091Zm25.951,-4.08l0.566,0.98l-4.157,3.641l1.649,2.855l8.018,-4.629l0.282,-1.052l1.469,-4.814l1.053,-0.608l0.363,0.629l-0.367,1.368l1.466,1.125l7.726,-4.461l1.257,-4.691l1.054,-0.608l0.362,0.628l-0.366,1.368l1.465,1.125l7.727,-4.461l1.257,-4.691l1.427,-0.824l0.363,0.628l-0.366,1.368l1.465,1.125l7.727,-4.46l1.257,-4.692l1.053,-0.608l0.363,0.629l-0.367,1.368l1.466,1.125l7.726,-4.461l1.257,-4.691l1.053,-0.608l0.363,0.628l-0.367,1.368l1.466,1.125l7.727,-4.461l1.257,-4.691l1.053,-0.608l0.363,0.628l-0.367,1.368l1.466,1.125l7.726,-4.46l1.257,-4.692l1.053,-0.608l0.363,0.629l-0.367,1.368l1.466,1.125l7.638,-4.41l1.169,-4.364l4.544,-2.623l0.863,0.231l-0.071,1.169l0.565,0.979l1.897,6.909l-113.26,65.39l1.831,-14l15.117,-8.728Zm-25.951,14.577l1.514,-0.874l-0.727,5.117l-0.787,0.454l0,-4.697Zm0.351,-2.927l-0.351,0.199l0,-0.358l0.351,0.159Zm-0.351,-5.004l2.965,-1.712l-0.986,4.505l-1.979,-1.102l0,-1.691Zm82.35,-17.751l-34.125,19.702l-0.429,-0.115l4.596,-2.654c0,0 0.089,-0.023 0.101,-0.205c0,0 -0.656,-1.147 -0.084,-1.987l4.04,-5.818l11.644,-2.166l0.064,-0.023l12.427,-7.096l1.766,0.362Zm-56.604,10.749l-15.027,8.676l-2.42,-4.185l0.198,-1.45l1.953,-1.079l3.001,1.773c0,0 0.057,0.059 0.214,-0.003l5.704,-3.578c0.056,-0.052 0.056,-0.052 0.089,-0.121l0.44,-1.643l4.102,-1.414l1.746,3.024Zm-14.264,-7.47l-0.008,0.506l-11.474,6.624l0,-0.501l11.482,-6.629Zm-11.482,3.902l0.403,-1.504l5.375,-3.104l1.165,0.768c0.069,0.035 0.142,0.038 0.216,0.006l2.179,-1.258c0.074,-0.054 0.108,-0.126 0.099,-0.219l-0.096,-0.474l1.989,-1.148l0.202,0.053l-0.042,2.499l-11.49,6.633l0,-2.252Zm112.54,-56.335l4.49,3.723l-0.071,0.265l-4.648,2.949l-4.704,-1.261l-7.703,4.448l0.241,1.832l1.631,0.437l0.363,0.628l-1.053,0.608l-4.955,-1.327l-7.726,4.46l0.241,1.832l1.632,0.437l0.363,0.629l-1.054,0.608l-4.954,-1.328l-7.726,4.461l0.241,1.832l1.631,0.437l0.363,0.628l-1.053,0.608l-4.954,-1.327l-7.727,4.461l0.241,1.832l1.632,0.437l0.362,0.628l-1.053,0.608l-4.954,-1.328l-7.726,4.461l0.241,1.832l1.631,0.437l0.363,0.629l-1.428,0.824l-4.954,-1.328l-7.726,4.461l0.241,1.832l1.631,0.437l0.363,0.628l-1.053,0.608l-4.954,-1.327l-7.727,4.461l0.242,1.832l1.631,0.437l0.363,0.628l-1.053,0.608l-5.394,-1.445l-0.153,-0.266l12.947,-7.475c0.011,-0.008 0.022,-0.016 0.033,-0.024c0.018,-0.018 0.036,-0.03 0.063,-0.101l0.756,-2.823l1.886,-1.09c-0.227,0.803 -0.421,1.614 -0.637,2.42c-0.04,0.169 0.135,0.338 0.315,0.222c0.036,-0.026 0.063,-0.061 0.078,-0.103c0.284,-0.938 0.509,-1.892 0.761,-2.838l2.359,-1.365l0.615,-0.013c0.021,-0.002 0.039,0 0.098,-0.028l4.062,-2.35c0.009,-0.01 0.019,-0.019 0.028,-0.029c0.021,-0.034 0.021,-0.034 0.035,-0.072l0.234,-0.871l14.008,-8.088l1.372,0.294c0.065,0.059 0.125,0.054 0.214,-0.012l11.681,-6.744l0.048,-0.039l0.035,-0.052l0.681,-1.453l14.929,-8.619l1.222,0.327c0.08,0.006 0.081,0.005 0.156,-0.02l18.185,-10.5l0.096,-0.124l0.106,-0.396Zm-96.869,50.824c0.086,-0.064 0.112,-0.178 0.062,-0.273l-1.623,-2.81c-0.057,-0.092 -0.085,-0.086 -0.126,-0.097c-0.123,-0.031 -0.252,0.048 -0.257,0.2l0.01,3.741c0.007,0.15 0.174,0.249 0.309,0.178c0.542,-0.313 1.096,-0.605 1.625,-0.939Zm-0.397,-0.245l-1.126,0.65l-0.008,-2.614l1.134,1.964Zm1.589,-4.665l-2.076,1.199c-0.094,0.059 -0.128,0.179 -0.076,0.279l1.604,2.822c0.06,0.096 0.182,0.129 0.282,0.076c0.702,-0.406 1.421,-0.785 2.108,-1.218c0.085,-0.063 0.111,-0.177 0.061,-0.272l-1.622,-2.811c-0.059,-0.094 -0.18,-0.128 -0.281,-0.075Zm1.444,2.913l-1.737,1.004l-1.4,-2.465l1.72,-0.993l1.417,2.454Zm1.632,-4.689l-2.047,1.182c-0.094,0.059 -0.127,0.179 -0.077,0.278l1.575,2.838c0.058,0.097 0.18,0.132 0.283,0.078c0.702,-0.405 1.421,-0.784 2.108,-1.218c0.085,-0.063 0.111,-0.177 0.061,-0.272l-1.623,-2.811c-0.059,-0.094 -0.179,-0.128 -0.28,-0.075Zm1.444,2.914l-1.735,1.002l-1.375,-2.479l1.693,-0.978l1.417,2.455Zm-1.786,-4.381m0,0l-9.036,5.217l-0.766,-0.429l-0.049,-1.296l7.251,-4.187l2.6,0.695Zm-9.648,-6.019l6.649,5.08l-6.982,4.031l-1.318,-2.283c-0.048,-0.056 -0.049,-0.056 -0.113,-0.092l-0.647,-0.198l-0.083,0.027l-7.455,4.304l0,-1.693c2.095,-1.223 4.339,-2.528 6.76,-3.925l3.189,-5.251Zm-5.994,10.747m26.365,-12.328l-8.853,5.111c-0.282,0.191 0.02,0.362 0.034,0.651c0.019,0.38 -0.435,0.771 -0.435,0.771c-0.109,0.1 -0.111,0.139 -0.05,0.264l2.826,4.897c0.09,0.133 0.145,0.142 0.281,0.076l1.303,-0.752c0.008,-0.006 0.016,-0.011 0.024,-0.017c0.11,-0.1 0.112,-0.139 0.051,-0.264l-1.438,-2.491c0.561,-0.324 1.183,-0.653 1.544,-1.096c0.649,-0.796 0.792,-1.961 0.346,-2.906l2.187,-1.268c0.096,0.142 0.119,0.167 0.182,0.242c0.775,0.919 2.179,1.231 3.297,0.685l1.351,2.332c0.1,0.11 0.139,0.112 0.264,0.051l1.427,-0.824c0.132,-0.089 0.141,-0.144 0.075,-0.28l-2.73,-4.73c-0.191,-0.282 -0.362,0.02 -0.65,0.034c-0.382,0.019 -0.772,-0.435 -0.772,-0.435c-0.1,-0.109 -0.139,-0.111 -0.264,-0.051Zm-5.278,10.764l-0.946,0.547l-2.63,-4.557c0.393,-0.326 0.544,-0.89 0.375,-1.368l8.521,-4.935c0.327,0.392 0.892,0.544 1.37,0.374l2.545,4.384l-1.07,0.618l-1.347,-2.328c-0.191,-0.21 -0.363,0.016 -0.557,0.097c-1.024,0.429 -2.317,0.02 -2.903,-0.981c0,0 -0.122,-0.177 -0.292,-0.095l-2.534,1.463c-0.333,0.226 -0.035,0.297 0.089,0.628c0.38,1.011 -0.05,2.257 -1.013,2.822l-0.971,0.56c-0.132,0.089 -0.141,0.144 -0.075,0.28l1.438,2.491Zm-13.254,-12.212l4.538,2.806l3.376,5.846l-2.642,-0.708l-6.896,-5.269l1.624,-2.675Zm97.162,-36.601l3.242,2.689l-0.133,0.496l-18.038,10.414l-1.222,-0.327l-0.156,0.02l-15.058,8.694c-0.049,0.039 -0.049,0.039 -0.084,0.091l-0.681,1.453l-11.45,6.611c-0.412,-0.744 -0.741,-1.48 -1.482,-1.752c-0.711,-0.262 -1.532,-0.193 -2.196,0.179c-4.023,2.301 -8.038,4.615 -12.04,6.952c-1.065,0.636 -1.666,1.941 -1.434,3.18l0.169,0.818c0.005,0.009 0.011,0.018 0.017,0.027l-3.116,1.799l-6.868,0.152l7.094,-4.871l63.436,-36.625Zm-73.962,36.548l10.048,-4.377l0.158,4.174l-7.392,5.077l-2.814,-4.874Zm0.271,-0.865c-0.996,-1.569 -3.257,-2.184 -4.955,-1.218l-10.124,5.845l-0.465,-0.805l19.452,-11.231c-0.162,0.875 -0.041,1.807 0.424,2.623l0.467,0.809l-4.799,3.977Zm29.625,-5.559l-1.06,-0.227c-0.05,-0.006 -0.099,0.002 -0.146,0.023l-14.151,8.17c-0.044,0.032 -0.076,0.073 -0.096,0.125l-0.233,0.871l-0.432,0.249c-0.254,-1.316 -0.132,-2.728 1.095,-3.461c4.005,-2.339 8.004,-4.689 12.05,-6.957c0.67,-0.368 1.521,-0.359 2.186,0.023c0,0 0.16,0.101 0.247,0.249l0.54,0.935Zm-36.429,-2.246l8.008,-0.863l-16.472,9.511l5.043,-6.672l3.421,-1.976Zm28.54,-2.572l2.454,0.658l6.888,-3.977l1.466,-5.47l25.847,-14.923l2.966,0.795l-0.107,0.398l0.984,1.705l1.95,0.522l-53.846,31.088l-0.156,-4.122l11.554,-6.674Zm-0.558,-0.149l-11.299,6.523l-9.28,4.041l13.591,-11.264l2.261,0.42l1.168,-0.674l3.559,0.954Zm-7.514,-0.797l-8.544,7.08l-0.431,-0.747c-0.878,-1.542 -0.405,-3.693 1.173,-4.689l2.139,-1.332l0.278,0.482l2.352,-1.358l3.033,0.564Z"/></g></svg>