<?xml version="1.0" encoding="UTF-8" standalone="no"?><!DOCTYPE svg PUBLIC "-//W3C//DTD SVG 1.1//EN" "http://www.w3.org/Graphics/SVG/1.1/DTD/svg11.dtd"><svg width="100%" height="100%" viewBox="0 0 128 128" version="1.1" xmlns="http://www.w3.org/2000/svg" xmlns:xlink="http://www.w3.org/1999/xlink" xml:space="preserve" xmlns:serif="http://www.serif.com/" style="fill-rule:evenodd;clip-rule:evenodd;stroke-linejoin:round;stroke-miterlimit:1.41421;"><g id="Layer1"><path id="PowerDistribution" d="M128,128l-128,0l0,-128l128,0l0,128Zm-39.909,-63.759l-1.708,0.907l-21.36,-12.332l-2.666,-3.464l-2.11,-1.218l-4.971,1.162l-20.263,-8.27l-17.213,-3.7l11.81,13.058l17.294,13.413l1.479,4.886l2.11,1.218l4.332,0.577l21.36,12.332l0.069,1.933l1.791,1.034l10.008,1.075l10.304,9.436l6.413,3.791l5.403,-9.421l5.457,-9.39l-6.49,-3.658l-13.304,-4.235l-5.954,-8.1l-1.791,-1.034Zm-0.923,2.728l1.223,0.706l5.949,7.452l10.741,3.109l6.941,3.939l-4.16,7.149l-4.112,7.177l-6.881,-4.042l-8.063,-7.747l-9.428,-1.426l-1.223,-0.706l-0.199,-1.557l-21.59,-12.465l-3.886,-0.779l-1.959,-1.131l-1.67,-4.033l-16.318,-12.032l-10.788,-10.979l14.902,3.853l18.579,8.116l4.328,-0.57l1.959,1.131l2.618,2.976l21.589,12.465l1.448,-0.606Zm3.069,12.313m0,0l15.613,9.014l0.557,-0.963l-15.614,-9.015l-0.556,0.964Zm-9.848,-0.175c-0.287,0.497 -0.828,0.721 -1.207,0.502c-0.791,-0.456 -2.083,-1.202 -2.874,-1.659c-0.379,-0.219 -0.453,-0.798 -0.166,-1.295l0.001,-0.002c0.287,-0.497 0.826,-0.722 1.205,-0.504c0.791,0.457 2.083,1.203 2.873,1.659c0.38,0.219 0.456,0.8 0.169,1.297l-0.001,0.002Zm-26,-15.011c-0.137,0.238 -0.198,0.508 -0.167,0.752c0.031,0.243 0.152,0.438 0.334,0.543c2.998,1.732 14.939,8.626 17.939,10.358c0.182,0.105 0.411,0.112 0.638,0.017c0.226,-0.095 0.43,-0.283 0.568,-0.521l0.001,-0.002c0.137,-0.237 0.197,-0.508 0.166,-0.752c-0.032,-0.241 -0.151,-0.438 -0.333,-0.543c-3,-1.732 -14.941,-8.626 -17.939,-10.358c-0.182,-0.105 -0.413,-0.109 -0.638,-0.016c-0.226,0.094 -0.431,0.282 -0.568,0.52l-0.001,0.002Zm28.579,10.544c-0.287,0.497 -0.828,0.721 -1.207,0.502c-0.791,-0.456 -2.083,-1.202 -2.874,-1.659c-0.379,-0.219 -0.453,-0.798 -0.166,-1.295l0.001,-0.002c0.287,-0.497 0.826,-0.723 1.205,-0.504c0.791,0.457 2.083,1.203 2.874,1.659c0.379,0.219 0.455,0.8 0.168,1.297l-0.001,0.002Zm-26,-15.011c-0.137,0.238 -0.198,0.508 -0.167,0.752c0.031,0.243 0.152,0.438 0.334,0.543c2.998,1.732 14.939,8.626 17.939,10.358c0.182,0.105 0.411,0.111 0.638,0.017c0.226,-0.095 0.43,-0.283 0.568,-0.521l0.001,-0.002c0.137,-0.237 0.197,-0.508 0.166,-0.752c-0.031,-0.243 -0.151,-0.438 -0.333,-0.543c-3,-1.732 -14.941,-8.626 -17.939,-10.358c-0.182,-0.105 -0.412,-0.111 -0.638,-0.016c-0.226,0.094 -0.431,0.282 -0.568,0.52l-0.001,0.002Zm28.733,10.276c-0.286,0.497 -0.828,0.721 -1.207,0.502c-0.79,-0.456 -2.082,-1.202 -2.873,-1.658c-0.379,-0.219 -0.454,-0.799 -0.167,-1.296l0.001,-0.002c0.287,-0.497 0.827,-0.722 1.206,-0.503c0.791,0.456 2.082,1.202 2.873,1.658c0.379,0.219 0.456,0.8 0.169,1.297l-0.002,0.002Zm-25.999,-15.011c-0.138,0.238 -0.198,0.508 -0.167,0.752c0.031,0.243 0.152,0.439 0.333,0.544c2.999,1.731 14.94,8.625 17.94,10.357c0.182,0.105 0.411,0.112 0.637,0.017c0.227,-0.095 0.431,-0.283 0.568,-0.52l0.001,-0.002c0.138,-0.238 0.198,-0.509 0.167,-0.752c-0.032,-0.242 -0.152,-0.439 -0.333,-0.544c-3.001,-1.732 -14.941,-8.626 -17.94,-10.357c-0.182,-0.105 -0.412,-0.11 -0.637,-0.017c-0.227,0.095 -0.431,0.282 -0.568,0.52l-0.001,0.002Zm-8.922,5.299l2.14,0.22l2.122,-3.675l-1.052,-2.129l-3.21,5.584Zm-5.177,-1.586l1.076,0.621l4.291,-7.433l-1.075,-0.621l-4.292,7.433Zm-4.688,-4.22l1.076,0.621l2.98,-5.163l-1.075,-0.621l-2.981,5.163Z"/></g></svg>