<?xml version="1.0" encoding="UTF-8" standalone="no"?>
<!DOCTYPE svg PUBLIC "-//W3C//DTD SVG 1.1//EN" "http://www.w3.org/Graphics/SVG/1.1/DTD/svg11.dtd">
<svg width="100%" height="100%" viewBox="0 0 128 128" version="1.1" xmlns="http://www.w3.org/2000/svg" xmlns:xlink="http://www.w3.org/1999/xlink" xml:space="preserve" style="fill-rule:evenodd;clip-rule:evenodd;stroke-linejoin:round;stroke-miterlimit:1.41421;">
    <path d="M128,0L128,128L0,128L0,0L128,0ZM38.058,64.8L26.674,77.639C20.982,84.058 18.634,85.415 24.059,94.813C29.485,104.21 31.837,102.855 40.242,101.134L57.051,97.691L59.778,87.5C55.754,86.422 52.153,83.783 49.906,79.89C47.658,75.998 47.17,71.556 48.249,67.532L38.058,64.8L38.058,64.8L38.058,64.8L38.058,64.8ZM89.942,64.8L89.942,64.8L79.751,67.532C80.829,71.556 80.341,75.997 78.094,79.89C75.846,83.783 72.246,86.421 68.222,87.5L70.949,97.691L87.758,101.134C96.163,102.855 98.515,104.21 103.941,94.813C109.366,85.415 107.018,84.058 101.326,77.639L89.942,64.8ZM64,60.903C58.007,60.903 53.148,65.755 53.148,71.749C53.148,77.742 58.007,82.6 64,82.6C69.993,82.6 74.852,77.742 74.852,71.749C74.852,65.755 69.993,60.903 64,60.903L64,60.903ZM64,25.632C53.149,25.632 53.151,28.345 50.438,36.484L45.013,52.761L52.471,60.22C55.417,57.274 59.506,55.477 64,55.477C68.495,55.477 72.584,57.274 75.529,60.22L82.988,52.761L77.562,36.484C74.849,28.345 74.851,25.632 64,25.632L64,25.632Z"/>
</svg>
