<?xml version="1.0" encoding="UTF-8" standalone="no"?>
<!DOCTYPE svg PUBLIC "-//W3C//DTD SVG 1.1//EN" "http://www.w3.org/Graphics/SVG/1.1/DTD/svg11.dtd">
<svg width="100%" height="100%" viewBox="0 0 128 128" version="1.1" xmlns="http://www.w3.org/2000/svg" xmlns:xlink="http://www.w3.org/1999/xlink" xml:space="preserve" xmlns:serif="http://www.serif.com/" style="fill-rule:evenodd;clip-rule:evenodd;stroke-linejoin:round;stroke-miterlimit:2;">
    <path id="Thrusters" d="M128,128L0,128L0,0L128,0L128,128ZM34.277,53.52L34.277,43.991C30.44,43.987 26.602,43.997 22.764,44.021C18.121,44.108 14.366,48.085 14.283,52.502C14.195,66.812 14.193,81.122 14.283,95.432C14.37,100.004 18.34,103.825 22.76,103.909C43.592,104.041 64.425,104.041 85.257,103.909C89.829,103.822 93.65,99.852 93.734,95.432C93.758,91.591 93.774,87.75 93.781,83.909L93.181,83.909C97.227,83.894 101.273,83.873 105.319,83.847C109.89,83.76 113.711,79.79 113.795,75.371C113.865,64.396 113.863,53.421 113.795,42.447C113.71,37.874 109.732,34.042 105.304,33.966C95.796,33.919 86.288,33.989 76.781,34.001L69.224,26.591C67.535,24.954 65.244,24.003 62.896,23.96C56.206,23.919 49.515,23.918 42.826,23.96C38.182,24.046 34.427,28.023 34.345,32.441C34.256,46.75 34.254,61.061 34.345,75.371C34.432,79.943 38.402,83.763 42.821,83.847C56.625,83.935 70.43,83.964 84.235,83.935L84.235,94.409L23.783,94.409L23.783,53.52L34.277,53.52ZM62.66,33.459L70.129,40.784C71.943,42.467 74.318,43.436 76.793,43.501L104.296,43.466L104.296,74.348L43.844,74.348L43.844,33.459L62.66,33.459Z"/>
</svg>
