<?xml version="1.0" encoding="UTF-8" standalone="no"?><!DOCTYPE svg PUBLIC "-//W3C//DTD SVG 1.1//EN" "http://www.w3.org/Graphics/SVG/1.1/DTD/svg11.dtd"><svg width="100%" height="100%" viewBox="0 0 128 128" version="1.1" xmlns="http://www.w3.org/2000/svg" xmlns:xlink="http://www.w3.org/1999/xlink" xml:space="preserve" xmlns:serif="http://www.serif.com/" style="fill-rule:evenodd;clip-rule:evenodd;stroke-linejoin:round;stroke-miterlimit:1.41421;"><path id="DamageControl" d="M128,128l-128,0l0,-128l128,0l0,128Zm-57.75,-27.789l-12.5,0l3.3,2.173c0.428,0.383 1.056,0.605 1.708,0.605l2.486,0c0.65,0 1.281,-0.222 1.709,-0.605l3.297,-2.173Zm0.5,-81.211l-13.5,0l0,7.345c-5.397,0.962 -10.403,3.058 -14.764,6.032l-5.135,-5.135l-9.546,9.546l5.035,5.035c-3.113,4.364 -5.332,9.408 -6.39,14.865l-6.887,0l0,13.5l6.686,0c0.914,5.611 3.051,10.814 6.128,15.326l-4.572,4.573l9.546,9.546l4.472,-4.473c2.66,1.897 5.572,3.463 8.677,4.636l0,-8.583c-9.998,-4.974 -16.875,-15.297 -16.875,-27.213c0,-16.764 13.611,-30.375 30.375,-30.375c16.764,0 30.375,13.611 30.375,30.375c0,11.916 -6.877,22.239 -16.875,27.213l0,8.583c3.105,-1.173 6.017,-2.739 8.677,-4.636l4.472,4.473l9.546,-9.546l-4.572,-4.573c3.076,-4.511 5.213,-9.714 6.128,-15.326l6.686,0l0,-13.5l-6.887,0c-1.058,-5.458 -3.277,-10.501 -6.39,-14.865l5.035,-5.035l-9.546,-9.546l-5.135,5.135c-4.361,-2.974 -9.367,-5.07 -14.764,-6.032l0,-7.345Zm-1.194,75.656l-11.112,0c-0.767,0 -1.389,0.622 -1.389,1.389c0,0.766 0.623,1.389 1.389,1.389l11.112,0c0.766,0 1.389,-0.623 1.389,-1.389c0,-0.767 -0.622,-1.389 -1.389,-1.389Zm0,-5.556l-11.112,0c-0.767,0 -1.389,0.622 -1.389,1.389c0,0.767 0.623,1.389 1.389,1.389l11.112,0c0.766,0 1.389,-0.622 1.389,-1.389c0,-0.767 -0.622,-1.389 -1.389,-1.389Zm2.183,-2.778c0,-7.822 8.928,-14.528 8.928,-24.442c0,-10.336 -8.339,-16.034 -16.675,-16.034c-8.331,0 -16.659,5.692 -16.659,16.034c0,9.914 8.928,16.62 8.928,24.442l5.522,0c0.014,-5.161 -2.414,-9.414 -4.778,-13.519c-2.114,-3.681 -4.116,-7.159 -4.116,-10.923c0,-7.2 5.755,-10.478 11.103,-10.478c5.355,0 11.119,3.278 11.119,10.478c0,3.764 -2.002,7.242 -4.116,10.923c-2.364,4.105 -4.789,8.358 -4.781,13.519l5.525,0Zm11.217,-15.547l6.539,2.65l-1.428,3.53l-6.736,-2.727c0.583,-1.103 1.133,-2.256 1.625,-3.453Zm-36.412,3.208l-6.545,2.945l-1.561,-3.475l6.5,-2.923c0.481,1.203 1.031,2.348 1.606,3.453Zm45.234,-10.211l0,-3.809l-7.041,0c0.05,0.628 0.097,1.259 0.097,1.917c0,0.647 -0.05,1.272 -0.106,1.892l7.05,0Zm-48.506,0c-0.056,-0.62 -0.106,-1.245 -0.106,-1.892c0,-0.658 0.047,-1.292 0.097,-1.919l-7.041,0l0,3.811l7.05,0Zm37.937,-13.601l5.394,-3.872l2.22,3.097l-5.706,4.092c-0.53,-1.194 -1.175,-2.297 -1.908,-3.317Zm-36.329,3.317l-5.706,-4.089l2.22,-3.097l5.395,3.869c-0.734,1.017 -1.376,2.12 -1.909,3.317Zm27.967,-9.953l2.884,-5.372l3.355,1.8l-2.891,5.392c-1.061,-0.706 -2.184,-1.314 -3.348,-1.82Zm-21.044,1.817l-2.889,-5.389l3.355,-1.8l2.881,5.369c-1.161,0.503 -2.284,1.114 -3.347,1.82Zm10.397,-3.595l0,-5.436l3.808,0l0,5.456c-0.672,-0.061 -1.344,-0.097 -2.016,-0.097c-0.598,0 -1.195,0.027 -1.792,0.077Z"/></svg>