<?xml version="1.0" encoding="UTF-8" standalone="no"?><!DOCTYPE svg PUBLIC "-//W3C//DTD SVG 1.1//EN" "http://www.w3.org/Graphics/SVG/1.1/DTD/svg11.dtd"><svg width="100%" height="100%" viewBox="0 0 128 128" version="1.1" xmlns="http://www.w3.org/2000/svg" xmlns:xlink="http://www.w3.org/1999/xlink" xml:space="preserve" xmlns:serif="http://www.serif.com/" style="fill-rule:evenodd;clip-rule:evenodd;stroke-linejoin:round;stroke-miterlimit:1.41421;"><path d="M128,128l-128,0l0,-128l128,0l0,128Zm-55.897,-42.845c1.599,-1.508 3.125,-3.156 4.549,-4.927c13.074,-1.66 22.348,-5.815 22.348,-10.657l0,-16.071c-3.198,2.202 -7.525,3.904 -12.497,5.132c0.299,-1.79 0.487,-3.615 0.553,-5.469c7.32,-2.097 11.944,-5.173 11.944,-8.592l0,-7.142c0,-6.295 -15.677,-11.429 -35,-11.429c-19.323,0 -35,5.134 -35,11.429l0,7.142c0,3.419 4.623,6.495 11.944,8.592c0.066,1.854 0.254,3.679 0.553,5.469c-4.972,-1.228 -9.299,-2.93 -12.497,-5.132l0,16.071c0,4.842 9.274,8.997 22.348,10.657c1.424,1.771 2.95,3.419 4.55,4.927c0.22,0.234 0.443,0.465 0.667,0.694c-11.072,-0.726 -21.41,-3.11 -27.565,-7.349l0,16.071c0,6.295 15.677,11.429 35,11.429c19.323,0 35,-5.134 35,-11.429l0,-16.071c-6.155,4.239 -16.492,6.623 -27.565,7.348c0.225,-0.228 0.447,-0.459 0.668,-0.693Zm-8.103,-41.155c-5.74,5.74 -14.348,7.667 -21.083,7.667c0,16.448 9.713,30.852 21.083,38.333c11.37,-7.481 21.083,-21.885 21.083,-38.333c-6.735,0 -15.343,-1.927 -21.083,-7.667Zm-17.081,11.297c4.705,-0.472 11.331,-1.94 17.081,-6.229l0,36.236c-7.667,-5.871 -15.82,-16.491 -17.081,-30.007Z" style="fill-rule:nonzero;"/></svg>