<?xml version="1.0" encoding="UTF-8" standalone="no"?>
<!DOCTYPE svg PUBLIC "-//W3C//DTD SVG 1.1//EN" "http://www.w3.org/Graphics/SVG/1.1/DTD/svg11.dtd">
<svg width="100%" height="100%" viewBox="0 0 128 128" version="1.1" xmlns="http://www.w3.org/2000/svg" xmlns:xlink="http://www.w3.org/1999/xlink" xml:space="preserve" style="fill-rule:evenodd;clip-rule:evenodd;stroke-linejoin:round;stroke-miterlimit:1.41421;">
    <g id="Template">
        <g id="Layer1">
            <path d="M128,0L128,128L0,128L0,0L128,0ZM76.784,81.263C77.308,81.283 77.83,81.317 78.351,81.384C79.494,81.531 80.62,81.808 81.701,82.207C83.807,82.984 85.735,84.225 87.322,85.812C88.909,87.399 90.15,89.326 90.927,91.432C91.326,92.514 91.603,93.64 91.75,94.783C91.817,95.304 91.85,95.825 91.871,96.35C91.899,98.547 91.875,100.745 91.875,102.943C91.866,103.189 91.847,103.426 91.79,103.666C91.657,104.219 91.37,104.731 90.968,105.133C90.739,105.363 90.473,105.556 90.184,105.703C89.002,106.305 87.525,106.072 86.587,105.133C86.358,104.904 86.165,104.638 86.017,104.349C85.87,104.06 85.769,103.748 85.718,103.427C85.684,103.214 85.688,103.159 85.68,102.943C85.68,100.798 85.704,98.653 85.677,96.509C85.638,95.506 85.463,94.522 85.114,93.578C84.174,91.03 82.104,88.96 79.556,88.02C78.612,87.671 77.628,87.496 76.625,87.457C68.206,87.349 59.785,87.349 51.366,87.457C50.363,87.496 49.379,87.671 48.435,88.02C45.887,88.96 43.817,91.03 42.877,93.578C42.528,94.522 42.353,95.506 42.314,96.509C42.287,98.653 42.311,100.798 42.311,102.943C42.303,103.159 42.307,103.214 42.273,103.427C42.222,103.748 42.121,104.06 41.973,104.349C41.371,105.531 40.039,106.21 38.729,106.002C38.408,105.952 38.096,105.85 37.807,105.703C37.518,105.556 37.252,105.363 37.023,105.133C36.621,104.731 36.334,104.219 36.201,103.666C36.143,103.426 36.125,103.189 36.116,102.943L36.116,96.727C36.122,96.207 36.143,95.689 36.196,95.171C36.314,94.021 36.564,92.884 36.937,91.79C37.663,89.663 38.859,87.704 40.41,86.078C41.957,84.455 43.852,83.17 45.936,82.342C47.124,81.87 48.372,81.547 49.64,81.384C50.161,81.317 50.683,81.283 51.207,81.263C59.732,81.154 68.259,81.154 76.784,81.263ZM64.394,44.09C65.049,44.115 65.701,44.164 66.35,44.263C67.984,44.513 69.576,45.028 71.047,45.782C74.041,47.316 76.494,49.829 77.954,52.859C78.618,54.235 79.075,55.709 79.306,57.22C79.544,58.777 79.544,60.371 79.306,61.928C79.075,63.439 78.618,64.913 77.954,66.29C77.145,67.969 76.03,69.498 74.681,70.784C73.329,72.073 71.745,73.116 70.024,73.844C68.121,74.649 66.061,75.063 63.995,75.063C61.93,75.063 59.869,74.649 57.967,73.844C56.246,73.116 54.662,72.073 53.31,70.784C51.961,69.498 50.846,67.969 50.036,66.29C49.373,64.913 48.916,63.439 48.685,61.928C48.447,60.371 48.447,58.777 48.685,57.22C48.916,55.709 49.373,54.235 50.036,52.859C51.497,49.829 53.95,47.316 56.944,45.782C58.415,45.028 60.007,44.513 61.641,44.263C62.29,44.164 62.942,44.115 63.597,44.09C63.997,44.085 63.995,44.085 64.394,44.09ZM47.73,59.1C41.577,59.045 35.423,59.056 29.27,59.135C28.41,59.169 27.567,59.319 26.758,59.617C24.574,60.423 22.8,62.198 21.994,64.382C21.695,65.19 21.545,66.034 21.512,66.894C21.488,68.732 21.509,70.57 21.509,72.409C21.502,72.594 21.505,72.641 21.476,72.824C21.433,73.099 21.346,73.366 21.219,73.614C20.703,74.627 19.562,75.209 18.438,75.031C18.164,74.988 17.896,74.901 17.648,74.774C17.4,74.648 17.173,74.483 16.976,74.286C16.631,73.941 16.386,73.502 16.272,73.028C16.222,72.822 16.207,72.619 16.198,72.409L16.198,67.081C16.204,66.635 16.222,66.191 16.267,65.747C16.369,64.761 16.582,63.787 16.903,62.849C17.525,61.026 18.55,59.347 19.879,57.953C21.205,56.562 22.83,55.461 24.616,54.751C25.635,54.346 26.704,54.069 27.791,53.93C28.237,53.872 28.684,53.844 29.134,53.826C35.684,53.742 42.235,53.733 48.786,53.8C48.154,55.455 47.785,57.238 47.73,59.1ZM79.214,53.8C85.762,53.733 92.311,53.742 98.858,53.826C99.308,53.844 99.755,53.872 100.201,53.93C101.181,54.056 102.146,54.293 103.073,54.635C104.878,55.301 106.53,56.365 107.891,57.725C109.251,59.085 110.315,60.737 110.981,62.543C111.323,63.469 111.56,64.435 111.686,65.414C111.744,65.861 111.772,66.308 111.79,66.758C111.814,68.641 111.794,70.525 111.794,72.409C111.785,72.619 111.77,72.822 111.72,73.028C111.607,73.502 111.361,73.941 111.016,74.286C110.819,74.483 110.592,74.648 110.344,74.774C109.331,75.291 108.065,75.09 107.261,74.286C107.064,74.089 106.899,73.862 106.773,73.614C106.646,73.366 106.56,73.099 106.516,72.824C106.487,72.641 106.491,72.594 106.483,72.409C106.483,70.57 106.504,68.732 106.48,66.894C106.447,66.034 106.297,65.19 105.999,64.382C105.192,62.198 103.418,60.423 101.234,59.617C100.425,59.319 99.582,59.169 98.722,59.135C92.572,59.056 86.421,59.045 80.27,59.1C80.215,57.239 79.846,55.455 79.214,53.8ZM63.754,50.284C63.36,50.299 62.968,50.329 62.578,50.388C61.601,50.538 60.649,50.846 59.769,51.296C57.211,52.607 55.354,55.095 54.848,57.927C54.667,58.937 54.655,59.978 54.81,60.992C54.948,61.895 55.221,62.776 55.618,63.599C56.104,64.608 56.775,65.527 57.586,66.3C58.398,67.074 59.349,67.7 60.382,68.138C61.522,68.621 62.757,68.867 63.995,68.867C65.234,68.867 66.468,68.621 67.609,68.138C68.642,67.7 69.593,67.074 70.405,66.3C71.216,65.527 71.887,64.608 72.373,63.599C72.77,62.776 73.043,61.895 73.181,60.992C73.336,59.978 73.324,58.937 73.143,57.927C72.637,55.095 70.78,52.607 68.222,51.296C67.342,50.846 66.39,50.538 65.413,50.388C65.023,50.329 64.631,50.299 64.237,50.284C63.995,50.281 63.997,50.281 63.754,50.284ZM40.437,21.964C40.999,21.985 41.557,22.027 42.113,22.112C43.514,22.327 44.879,22.768 46.14,23.414C48.705,24.729 50.808,26.883 52.06,29.48C52.629,30.659 53.021,31.923 53.219,33.218C53.423,34.553 53.423,35.919 53.219,37.254C53.021,38.548 52.629,39.812 52.06,40.992C51.366,42.431 50.41,43.742 49.254,44.844C48.095,45.949 46.737,46.843 45.263,47.467C43.632,48.157 41.866,48.512 40.095,48.512C38.325,48.512 36.559,48.157 34.928,47.467C33.453,46.843 32.096,45.949 30.937,44.844C29.78,43.742 28.825,42.431 28.131,40.992C27.562,39.812 27.17,38.548 26.972,37.254C26.768,35.919 26.768,34.553 26.972,33.218C27.17,31.923 27.562,30.659 28.131,29.48C29.383,26.883 31.485,24.729 34.051,23.414C35.312,22.768 36.676,22.327 38.077,22.112C38.634,22.027 39.192,21.985 39.754,21.964C40.097,21.959 40.095,21.959 40.437,21.964ZM88.238,21.964C88.8,21.985 89.358,22.027 89.915,22.112C91.316,22.327 92.68,22.768 93.941,23.414C96.507,24.729 98.61,26.883 99.862,29.48C100.43,30.659 100.822,31.923 101.02,33.218C101.224,34.553 101.224,35.919 101.02,37.254C100.822,38.548 100.43,39.812 99.862,40.992C99.168,42.431 98.212,43.742 97.055,44.844C95.897,45.949 94.539,46.843 93.064,47.467C91.433,48.157 89.668,48.512 87.897,48.512C86.126,48.512 84.36,48.157 82.729,47.467C81.255,46.843 79.897,45.949 78.738,44.844C77.582,43.742 76.626,42.431 75.932,40.992C75.363,39.812 74.972,38.548 74.774,37.254C74.569,35.919 74.569,34.553 74.774,33.218C74.972,31.923 75.363,30.659 75.932,29.48C77.184,26.883 79.287,24.729 81.852,23.414C83.114,22.768 84.478,22.327 85.879,22.112C86.435,22.027 86.993,21.985 87.556,21.964C87.898,21.959 87.897,21.959 88.238,21.964ZM39.889,27.273C39.551,27.286 39.215,27.311 38.88,27.362C38.043,27.49 37.227,27.754 36.473,28.141C34.28,29.264 32.688,31.397 32.254,33.824C32.1,34.69 32.089,35.581 32.222,36.451C32.34,37.225 32.574,37.98 32.914,38.685C33.332,39.55 33.906,40.338 34.602,41C35.297,41.664 36.112,42.201 36.998,42.576C37.976,42.99 39.034,43.201 40.095,43.201C41.157,43.201 42.215,42.99 43.193,42.576C44.078,42.201 44.893,41.664 45.589,41C46.284,40.338 46.859,39.55 47.276,38.685C47.616,37.98 47.85,37.225 47.969,36.451C48.102,35.581 48.091,34.69 47.936,33.824C47.502,31.397 45.91,29.264 43.718,28.141C42.964,27.754 42.148,27.49 41.31,27.362C40.976,27.311 40.64,27.286 40.302,27.273C40.095,27.27 40.097,27.27 39.889,27.273ZM87.69,27.273C87.352,27.286 87.016,27.311 86.682,27.362C85.844,27.49 85.029,27.754 84.275,28.141C82.082,29.264 80.49,31.397 80.056,33.824C79.901,34.69 79.89,35.581 80.023,36.451C80.142,37.225 80.376,37.98 80.716,38.685C81.133,39.55 81.708,40.338 82.403,41C83.099,41.664 83.914,42.201 84.799,42.576C85.777,42.99 86.835,43.201 87.897,43.201C88.958,43.201 90.017,42.99 90.994,42.576C91.88,42.201 92.695,41.664 93.391,41C94.086,40.338 94.661,39.55 95.078,38.685C95.418,37.98 95.652,37.225 95.77,36.451C95.903,35.581 95.892,34.69 95.738,33.824C95.304,31.397 93.712,29.264 91.519,28.141C90.765,27.754 89.95,27.49 89.112,27.362C88.777,27.311 88.442,27.286 88.104,27.273C87.897,27.27 87.898,27.27 87.69,27.273Z"/>
        </g>
    </g>
</svg>
