<?xml version="1.0" encoding="UTF-8" standalone="no"?>
<!DOCTYPE svg PUBLIC "-//W3C//DTD SVG 1.1//EN" "http://www.w3.org/Graphics/SVG/1.1/DTD/svg11.dtd">
<svg width="100%" height="100%" viewBox="0 0 128 128" version="1.1" xmlns="http://www.w3.org/2000/svg" xmlns:xlink="http://www.w3.org/1999/xlink" xml:space="preserve" style="fill-rule:evenodd;clip-rule:evenodd;stroke-linejoin:round;stroke-miterlimit:1.41421;">
    <g id="Template">
        <g id="SecurityScans">
            <path d="M128,0L128,128L0,128L0,0L128,0ZM32.276,32.097C32.373,32 32.471,31.903 32.57,31.806C36.19,28.272 40.403,25.35 44.988,23.208C48.842,21.408 52.95,20.162 57.155,19.519C59.231,19.201 61.321,19.044 63.42,19.004C64.002,19 64,19 64.58,19.004C66.679,19.044 68.769,19.201 70.845,19.519C75.05,20.162 79.158,21.408 83.012,23.208C87.597,25.35 91.81,28.272 95.43,31.806C95.528,31.902 95.626,31.999 95.723,32.095C95.774,32.144 95.825,32.193 95.873,32.244L95.902,32.275C99.31,35.702 102.165,39.675 104.317,44.004C106.205,47.802 107.55,51.866 108.296,56.042C109.135,60.735 109.224,65.563 108.563,70.285C107.921,74.865 106.565,79.339 104.557,83.505C102.376,88.028 99.433,92.175 95.893,95.734C95.839,95.791 95.784,95.847 95.726,95.901C95.5,96.125 95.272,96.348 95.042,96.567C90.981,100.439 86.2,103.545 81.005,105.669C75.62,107.871 69.817,108.999 64,108.999C58.183,108.999 52.38,107.871 46.995,105.669C41.8,103.545 37.019,100.439 32.958,96.567C29.037,92.829 25.796,88.386 23.443,83.505C21.435,79.339 20.079,74.865 19.437,70.285C18.776,65.563 18.865,60.735 19.704,56.042C20.45,51.866 21.795,47.802 23.683,44.004C25.835,39.675 28.69,35.702 32.098,32.275C32.155,32.214 32.214,32.154 32.276,32.097ZM52.776,81.098C48.931,85.053 45.032,88.956 41.081,92.805C43.815,94.983 46.855,96.773 50.091,98.096C54.496,99.897 59.242,100.817 64,100.817C68.758,100.817 73.504,99.897 77.909,98.096C81.145,96.773 84.185,94.983 86.919,92.805C82.968,88.956 79.069,85.053 75.224,81.098C74.192,81.776 73.1,82.362 71.961,82.844C69.449,83.907 66.728,84.454 64,84.454C61.272,84.454 58.551,83.907 56.039,82.844C54.9,82.362 53.808,81.776 52.776,81.098ZM35.198,41.084C33.671,42.997 32.331,45.062 31.21,47.248C29.632,50.328 28.494,53.631 27.842,57.03C27.077,61.016 26.977,65.131 27.54,69.15C28.064,72.892 29.172,76.548 30.813,79.952C32.007,82.429 33.482,84.769 35.195,86.918C39.044,82.967 42.947,79.069 46.902,75.224C46.405,74.469 45.958,73.682 45.566,72.868C44.69,71.05 44.086,69.103 43.781,67.109C43.467,65.052 43.467,62.947 43.781,60.89C44.086,58.896 44.69,56.949 45.566,55.131C45.959,54.316 46.406,53.529 46.903,52.776C42.949,48.932 39.046,45.034 35.198,41.084ZM92.802,41.084C88.953,45.034 85.051,48.932 81.097,52.776C81.594,53.529 82.041,54.316 82.434,55.131C83.31,56.949 83.914,58.896 84.219,60.89C84.533,62.947 84.533,65.052 84.219,67.109C83.914,69.103 83.31,71.05 82.434,72.868C82.042,73.682 81.595,74.469 81.098,75.224C85.053,79.069 88.956,82.967 92.805,86.918C94.518,84.769 95.993,82.429 97.187,79.952C98.828,76.548 99.936,72.892 100.46,69.15C101.023,65.131 100.923,61.016 100.158,57.03C99.506,53.631 98.368,50.328 96.79,47.248C95.669,45.062 94.329,42.997 92.802,41.084ZM63.682,51.731C63.161,51.751 62.644,51.79 62.128,51.869C60.837,52.066 59.581,52.473 58.419,53.068C55.041,54.8 52.588,58.085 51.92,61.825C51.681,63.158 51.665,64.532 51.869,65.872C52.052,67.064 52.413,68.228 52.936,69.314C53.579,70.647 54.465,71.86 55.536,72.881C56.608,73.904 57.863,74.731 59.228,75.309C60.734,75.946 62.365,76.272 64,76.272C65.635,76.272 67.266,75.946 68.772,75.309C70.137,74.731 71.392,73.904 72.464,72.881C73.535,71.86 74.421,70.647 75.064,69.314C75.587,68.228 75.948,67.064 76.131,65.872C76.335,64.532 76.319,63.158 76.08,61.825C75.412,58.085 72.959,54.8 69.581,53.068C68.419,52.473 67.163,52.066 65.872,51.869C65.356,51.79 64.839,51.751 64.318,51.731C64,51.727 64.002,51.727 63.682,51.731ZM86.914,35.199C84.653,33.393 82.18,31.85 79.549,30.621C76.4,29.15 73.043,28.132 69.608,27.607C67.908,27.346 66.196,27.218 64.477,27.185C63.998,27.182 64,27.182 63.523,27.185C61.804,27.218 60.092,27.346 58.392,27.607C54.957,28.132 51.6,29.15 48.451,30.621C45.82,31.85 43.347,33.393 41.086,35.199C45.035,39.046 48.933,42.948 52.776,46.902C53.392,46.496 54.03,46.124 54.687,45.786C56.63,44.791 58.732,44.111 60.891,43.781C61.748,43.65 62.608,43.585 63.474,43.552C64.002,43.545 64,43.545 64.526,43.552C65.392,43.585 66.252,43.65 67.109,43.781C69.268,44.111 71.37,44.791 73.313,45.786C73.97,46.124 74.608,46.496 75.224,46.902C79.067,42.948 82.965,39.046 86.914,35.199Z"/>
        </g>
    </g>
</svg>
