<?xml version="1.0" encoding="UTF-8" standalone="no"?>
<!DOCTYPE svg PUBLIC "-//W3C//DTD SVG 1.1//EN" "http://www.w3.org/Graphics/SVG/1.1/DTD/svg11.dtd">
<svg width="100%" height="100%" viewBox="0 0 128 128" version="1.1" xmlns="http://www.w3.org/2000/svg" xmlns:xlink="http://www.w3.org/1999/xlink" xml:space="preserve" style="fill-rule:evenodd;clip-rule:evenodd;stroke-linejoin:round;stroke-miterlimit:1.41421;">
    <g id="Template">
        <g id="Sensors">
            <path d="M128,0L128,128L0,128L0,0L128,0ZM96.879,33.307L99.998,30.188C100.603,29.583 100.603,28.605 99.998,28C99.393,27.395 98.415,27.395 97.81,28L94.675,31.103C86.327,23.298 75.496,19 63.998,19C54.625,19 45.719,21.855 38.115,27.209C36.688,25.936 34.888,25.207 32.948,25.207C30.869,25.207 28.929,26.014 27.47,27.472C24.553,30.39 24.475,35.06 27.191,38.117C14.7,55.822 16.732,80.386 32.156,95.81C40.66,104.314 51.956,109 63.982,109C76.008,109 87.305,104.314 95.808,95.826C112.986,78.633 113.327,50.919 96.879,33.307ZM93.605,93.622C85.691,101.536 75.17,105.897 63.982,105.897C52.794,105.897 42.274,101.536 34.36,93.622C20.022,79.269 18.098,56.443 29.674,39.964C29.906,40.088 30.155,40.181 30.419,40.259C30.512,40.29 30.605,40.321 30.698,40.336C31.086,40.46 31.474,40.538 31.862,40.6C32.094,40.631 32.343,40.662 32.575,40.678C32.7,40.693 32.824,40.724 32.948,40.724C35.027,40.724 36.967,39.917 38.441,38.459C38.782,38.117 39.062,37.76 39.325,37.372C39.419,37.233 39.512,37.078 39.605,36.922C39.744,36.69 39.869,36.457 39.977,36.209C40.07,36.007 40.148,35.805 40.225,35.603C40.288,35.417 40.35,35.216 40.396,35.029C40.66,34.083 40.722,33.121 40.629,32.159C40.613,32.05 40.613,31.972 40.598,31.879C40.551,31.553 40.489,31.243 40.396,30.933C40.365,30.84 40.334,30.747 40.319,30.653C40.21,30.328 40.101,30.017 39.962,29.707C39.962,29.691 39.962,29.691 39.946,29.676C47.006,24.726 55.293,22.103 63.998,22.103C74.658,22.103 84.713,26.076 92.488,33.307L86.979,38.816C80.679,33.059 72.594,29.878 63.982,29.878C54.858,29.878 46.277,33.431 39.838,39.855C26.524,53.169 26.524,74.816 39.838,88.129C46.277,94.569 54.843,98.107 63.982,98.107C73.122,98.107 81.688,94.553 88.127,88.129C93.496,82.76 96.894,75.7 97.81,68.159C99.113,67.817 100.308,67.166 101.286,66.188C104.312,63.162 104.312,58.243 101.286,55.217C99.936,53.867 98.167,53.107 96.274,52.998C94.769,48.56 92.348,44.464 89.182,40.988L94.675,35.495C109.929,51.912 109.572,77.655 93.605,93.622ZM93.108,53.448C92.658,53.619 92.239,53.821 91.836,54.069C91.758,54.116 91.681,54.147 91.603,54.193C91.153,54.488 90.719,54.829 90.315,55.217C89.943,55.59 89.617,55.993 89.322,56.428C89.275,56.505 89.244,56.583 89.198,56.66C88.981,57.017 88.763,57.39 88.608,57.793C88.608,57.809 88.593,57.824 88.593,57.84C88.236,58.74 88.034,59.717 88.034,60.71C88.034,61.719 88.236,62.681 88.593,63.597C88.593,63.612 88.593,63.628 88.608,63.643C88.763,64.031 88.981,64.403 89.198,64.776C89.244,64.853 89.275,64.931 89.322,64.993C89.601,65.428 89.943,65.831 90.315,66.203C90.641,66.529 91.013,66.824 91.386,67.088C91.541,67.197 91.712,67.274 91.867,67.383C92.084,67.507 92.317,67.647 92.55,67.755C92.767,67.864 93,67.941 93.232,68.034C93.403,68.097 93.574,68.143 93.744,68.19C94.024,68.267 94.319,68.345 94.613,68.376C94.629,68.376 94.66,68.391 94.675,68.391C93.744,75.033 90.672,81.224 85.924,85.972C80.074,91.822 72.284,95.05 63.982,95.05C55.681,95.05 47.891,91.822 42.041,85.972C29.938,73.869 29.938,54.178 42.041,42.09C47.891,36.24 55.681,33.012 63.982,33.012C71.756,33.012 79.065,35.867 84.775,41.05L78.196,47.629C74.255,44.169 69.274,42.276 63.982,42.276C58.179,42.276 52.717,44.526 48.62,48.622C44.524,52.719 42.274,58.181 42.274,63.984C42.274,69.788 44.524,75.25 48.62,79.347C52.717,83.443 58.179,85.693 63.982,85.693C69.786,85.693 75.248,83.443 79.344,79.347C83.441,75.25 85.691,69.788 85.691,63.984C85.691,58.693 83.798,53.712 80.384,49.771L86.963,43.191C89.648,46.171 91.789,49.631 93.155,53.417C93.139,53.433 93.124,53.448 93.108,53.448ZM62.881,65.086C63.191,65.397 63.579,65.536 63.982,65.536C64.386,65.536 64.774,65.381 65.084,65.086L78.196,51.974C81.036,55.326 82.603,59.531 82.603,63.984C82.603,68.966 80.663,73.636 77.156,77.159C73.65,80.681 68.963,82.605 63.982,82.605C59.001,82.605 54.331,80.666 50.808,77.159C47.286,73.652 45.362,68.966 45.362,63.984C45.362,59.003 47.301,54.333 50.808,50.81C54.315,47.288 59.001,45.379 63.982,45.379C68.436,45.379 72.641,46.931 75.993,49.786L62.881,62.898C62.275,63.503 62.275,64.481 62.881,65.086ZM95.917,65.288L95.684,65.288C95.436,65.288 95.203,65.257 94.955,65.226C94.908,65.21 94.846,65.195 94.8,65.195C94.551,65.148 94.303,65.086 94.07,64.993C93.993,64.962 93.915,64.916 93.838,64.884C93.636,64.791 93.434,64.698 93.248,64.59C92.984,64.419 92.736,64.233 92.503,64C92.286,63.767 92.084,63.534 91.913,63.271C91.867,63.209 91.851,63.147 91.82,63.084C91.696,62.883 91.572,62.681 91.494,62.464C91.479,62.433 91.479,62.402 91.463,62.371C91.06,61.3 91.06,60.121 91.463,59.05C91.479,59.019 91.479,58.988 91.494,58.957C91.588,58.724 91.712,58.507 91.836,58.305C91.867,58.259 91.882,58.197 91.913,58.15C92.084,57.886 92.286,57.653 92.503,57.421C93.45,56.49 94.551,56.195 95.312,56.117L95.808,56.071C97.05,56.055 98.213,56.536 99.098,57.405C100.913,59.221 100.913,62.169 99.098,63.984C98.245,64.838 97.081,65.272 95.917,65.288ZM33.103,37.605L32.808,37.605C32.622,37.605 32.451,37.59 32.265,37.559C32.141,37.543 32.017,37.512 31.893,37.497C31.722,37.403 31.582,37.357 31.458,37.326C31.303,37.279 31.132,37.217 30.977,37.14C30.9,37.109 30.838,37.062 30.775,37.031C30.574,36.922 30.372,36.814 30.186,36.674L30.155,36.659C29.984,36.534 29.813,36.41 29.658,36.255C27.843,34.44 27.843,31.476 29.658,29.676C30.543,28.791 31.706,28.31 32.948,28.31C34.189,28.31 35.353,28.791 36.238,29.676C36.362,29.8 36.455,29.94 36.563,30.079L36.656,30.203C37.169,30.886 37.479,31.693 37.556,32.5L37.556,32.516C37.588,32.779 37.588,33.043 37.572,33.307C37.572,33.338 37.572,33.353 37.572,33.384C37.556,33.633 37.51,33.866 37.463,34.098L37.417,34.269C37.355,34.471 37.293,34.672 37.215,34.874C37.169,34.983 37.106,35.076 37.06,35.184C36.982,35.324 36.92,35.479 36.827,35.619C36.672,35.852 36.486,36.084 36.269,36.302C36.051,36.519 35.834,36.69 35.586,36.86C35.508,36.907 35.415,36.953 35.338,37C35.167,37.093 34.996,37.202 34.81,37.264C34.717,37.295 34.624,37.326 34.531,37.357C34.344,37.419 34.158,37.481 33.972,37.512C33.879,37.528 33.786,37.543 33.693,37.559C33.491,37.59 33.305,37.605 33.103,37.605Z"/>
        </g>
    </g>
</svg>
