<?xml version="1.0" encoding="UTF-8" standalone="no"?>
<!DOCTYPE svg PUBLIC "-//W3C//DTD SVG 1.1//EN" "http://www.w3.org/Graphics/SVG/1.1/DTD/svg11.dtd">
<svg width="100%" height="100%" viewBox="0 0 128 128" version="1.1" xmlns="http://www.w3.org/2000/svg" xmlns:xlink="http://www.w3.org/1999/xlink" xml:space="preserve" style="fill-rule:evenodd;clip-rule:evenodd;stroke-linejoin:round;stroke-miterlimit:1.41421;">
    <g id="Template">
        <g id="ShieldControl">
            <path d="M128,0L128,128L0,128L0,0L128,0ZM64.353,19.511C64.682,19.551 64.681,19.551 65.004,19.618L97.369,27.709C97.717,27.813 98.045,27.925 98.363,28.103C99.305,28.63 100.009,29.532 100.292,30.574C100.387,30.926 100.417,31.271 100.433,31.634L100.433,64.019C100.413,65.936 100.255,67.838 99.91,69.725C99.723,70.746 99.487,71.758 99.205,72.758C96.857,81.105 91.468,88.278 85.265,94.188C84.102,95.296 82.902,96.366 81.673,97.4C80.044,98.771 78.362,100.079 76.638,101.329C73.91,103.308 71.077,105.158 68.144,106.818C67.591,107.131 67.286,107.302 66.743,107.595C66.358,107.804 65.968,108.029 65.561,108.196C64.911,108.463 64.195,108.557 63.499,108.466C63.025,108.404 62.598,108.248 62.167,108.049C61.665,107.79 61.168,107.522 60.672,107.25C57.994,105.746 55.388,104.122 52.867,102.366C51.052,101.102 49.28,99.775 47.562,98.382C46.198,97.276 44.867,96.128 43.578,94.936C42.631,94.059 41.705,93.158 40.806,92.232C35.612,86.878 31.179,80.555 29.013,73.351C28.715,72.359 28.461,71.355 28.255,70.34C27.874,68.462 27.679,66.564 27.619,64.65C27.505,53.645 27.613,42.639 27.613,31.634C27.629,31.271 27.659,30.926 27.754,30.574C28.037,29.532 28.741,28.63 29.683,28.103C30.001,27.925 30.329,27.813 30.677,27.709L63.042,19.618C63.365,19.551 63.364,19.551 63.693,19.511C64.024,19.497 64.023,19.497 64.353,19.511ZM35.704,34.793C35.704,44.689 35.606,54.586 35.709,64.482C35.724,64.962 35.724,64.961 35.749,65.441C35.84,66.705 36.008,67.955 36.283,69.192C37.015,72.475 38.403,75.583 40.161,78.44C42.412,82.099 45.258,85.372 48.362,88.329C49.516,89.429 50.708,90.49 51.937,91.505C53.523,92.815 55.153,94.07 56.831,95.262C59.111,96.882 61.47,98.39 63.897,99.782L64.023,99.853C66.502,98.46 68.898,96.908 71.215,95.262C72.893,94.07 74.523,92.815 76.109,91.505C77.464,90.387 78.774,89.211 80.037,87.99C80.866,87.188 81.674,86.364 82.456,85.516C83.131,84.784 83.786,84.033 84.419,83.264C88.092,78.798 91.089,73.571 92.031,67.801C92.238,66.534 92.329,65.26 92.342,63.977L92.342,34.793L64.023,27.713C54.583,30.073 45.144,32.433 35.704,34.793Z"/>
        </g>
    </g>
</svg>
