<?xml version="1.0" encoding="UTF-8" standalone="no"?>
<!DOCTYPE svg PUBLIC "-//W3C//DTD SVG 1.1//EN" "http://www.w3.org/Graphics/SVG/1.1/DTD/svg11.dtd">
<svg width="100%" height="100%" viewBox="0 0 128 128" version="1.1" xmlns="http://www.w3.org/2000/svg" xmlns:xlink="http://www.w3.org/1999/xlink" xml:space="preserve" style="fill-rule:evenodd;clip-rule:evenodd;stroke-linejoin:round;stroke-miterlimit:2;">
    <path d="M128,0L128,128L0,128L0,0L128,0ZM20.583,18.008C20.21,17.635 20,17.129 20,16.601C20,16.601 20,16.6 20,16.6C20,16.421 20.092,16.254 20.244,16.159C20.396,16.063 20.586,16.053 20.747,16.131C28.284,19.765 90.733,49.885 112.529,60.397C113.912,61.064 114.792,62.464 114.792,64C114.792,65.536 113.912,66.936 112.529,67.603C90.733,78.115 28.284,108.235 20.747,111.869C20.586,111.947 20.396,111.937 20.244,111.841C20.092,111.746 20,111.579 20,111.4C20,111.4 20,111.399 20,111.398C20,110.866 20.212,110.355 20.588,109.978C25.628,104.939 61.355,69.212 61.355,69.212C64.215,66.35 64.215,61.642 61.355,58.78C61.355,58.78 25.603,23.028 20.583,18.008ZM25.974,87.472L46.974,66.472C48.331,65.114 48.331,62.881 46.974,61.524L25.974,40.524C23.778,38.332 20,39.889 20,43L20,85C20,88.13 23.791,89.659 25.974,87.472Z"/>
</svg>
