<?xml version="1.0" encoding="UTF-8" standalone="no"?>
<!DOCTYPE svg PUBLIC "-//W3C//DTD SVG 1.1//EN" "http://www.w3.org/Graphics/SVG/1.1/DTD/svg11.dtd">
<svg width="100%" height="100%" viewBox="0 0 128 128" version="1.1" xmlns="http://www.w3.org/2000/svg" xmlns:xlink="http://www.w3.org/1999/xlink" xml:space="preserve" style="fill-rule:evenodd;clip-rule:evenodd;stroke-linejoin:round;stroke-miterlimit:1.41421;">
    <path d="M128,0L128,128L0,128L0,0L128,0ZM41.891,67.132C41.341,66.588 41,65.834 41,65C41,63.344 42.344,62 44,62C44.842,62 45.603,62.347 46.148,62.906L65.962,82L66,82C70.415,82 74,85.585 74,90C74,94.415 70.415,98 66,98C61.585,98 58,94.415 58,90C58,89.241 58.106,88.506 58.304,87.81L41.891,67.132ZM51.416,87L26,87C23.878,87 21.843,86.157 20.343,84.657C18.843,83.157 18,81.122 18,79C18,79 18,79 18,79C18,53.612 38.612,33 64,33C89.388,33 110,53.612 110,79C110,79 110,79 110,79C110,83.418 106.418,87 102,87L78.556,87L43.071,51.515C40.434,48.878 35.152,48.878 32.515,51.515C29.878,54.152 28.878,59.434 31.515,62.071L51.416,87ZM99.615,73.288L98.195,65.415L86.385,67.545L87.805,75.418L99.615,73.288ZM91.071,53.586L85.414,47.929L76.929,56.414L82.586,62.071L91.071,53.586ZM68,40L68,52L60,52L60,40L68,40Z"/>
</svg>
