<?xml version="1.0" encoding="UTF-8" standalone="no"?>
<!DOCTYPE svg PUBLIC "-//W3C//DTD SVG 1.1//EN" "http://www.w3.org/Graphics/SVG/1.1/DTD/svg11.dtd">
<svg width="100%" height="100%" viewBox="0 0 128 128" version="1.1" xmlns="http://www.w3.org/2000/svg" xmlns:xlink="http://www.w3.org/1999/xlink" xml:space="preserve" style="fill-rule:evenodd;clip-rule:evenodd;stroke-linejoin:round;stroke-miterlimit:1.41421;">
    <g id="Template">
        <g id="Transporters">
            <path d="M128,0L128,128L0,128L0,0L128,0ZM63.95,18.001C64.011,18 64.053,18.001 64.138,18.003L64.185,18.003L64.195,18.004L64.212,18.005C64.28,18.01 64.348,18.016 64.415,18.024L64.555,18.036C64.878,18.094 64.963,18.098 65.277,18.199C65.327,18.215 65.375,18.232 65.423,18.25C65.499,18.277 65.574,18.306 65.649,18.338C65.86,18.429 66.063,18.537 66.255,18.661L66.279,18.675L108.097,45.857L108.103,45.861C108.142,45.886 108.18,45.912 108.217,45.938C108.268,45.973 108.318,46.01 108.367,46.048C108.449,46.109 108.525,46.171 108.644,46.281C108.675,46.309 108.706,46.338 108.736,46.368L108.747,46.378C108.774,46.405 108.801,46.432 108.827,46.459L108.839,46.472L108.85,46.483C108.873,46.507 108.896,46.532 108.918,46.556L108.932,46.572L108.953,46.595L108.962,46.606L108.972,46.617L109.022,46.675C109.097,46.764 109.167,46.856 109.233,46.95L109.243,46.964L109.259,46.988L109.292,47.035L109.31,47.064L109.327,47.09L109.357,47.137L109.372,47.161L109.38,47.174C109.601,47.533 109.767,47.924 109.871,48.334C109.958,48.676 109.985,49.012 110,49.363L110,78.636L110,78.641C110,78.752 109.995,78.863 109.986,78.974C109.981,79.059 109.972,79.143 109.952,79.265L109.951,79.271L109.949,79.287L109.943,79.326L109.939,79.346L109.937,79.361L109.933,79.381L109.929,79.4L109.926,79.417L109.923,79.435L109.919,79.455L109.915,79.475L109.911,79.493L109.908,79.509L109.904,79.526L109.899,79.549L109.894,79.571L109.891,79.582L109.888,79.595L109.882,79.623L109.875,79.65L109.874,79.655L109.873,79.657C109.861,79.704 109.849,79.75 109.835,79.795L109.834,79.799L109.831,79.811C109.65,80.427 109.327,81 108.89,81.473C108.758,81.616 108.619,81.742 108.472,81.86L108.471,81.861L108.461,81.869L108.411,81.909L108.401,81.917C108.345,81.962 108.288,82.005 108.23,82.046C108.186,82.078 108.142,82.11 108.097,82.142L66.279,109.324L66.276,109.325C66.018,109.493 65.741,109.632 65.452,109.739C65.418,109.752 65.383,109.764 65.347,109.776L65.344,109.777L65.334,109.781L65.302,109.791L65.29,109.795L65.277,109.8L65.249,109.808L65.227,109.815L65.215,109.819L65.199,109.824L65.173,109.831L65.15,109.838L65.136,109.842L65.121,109.846L65.1,109.852L65.074,109.859L65.055,109.864L65.043,109.867L65.028,109.871L64.997,109.879L64.97,109.885L64.964,109.887L64.957,109.888C64.712,109.946 64.463,109.981 64.212,109.994C64.062,110.002 63.912,110.001 63.763,109.992C63.728,109.99 63.692,109.987 63.657,109.984L63.651,109.984L63.646,109.983C63.333,109.957 63.023,109.896 62.723,109.8C62.541,109.741 62.371,109.669 62.204,109.588C62.097,109.537 61.992,109.481 61.89,109.421C61.833,109.389 61.777,109.357 61.721,109.324L19.903,82.142L19.901,82.14C19.861,82.115 19.822,82.088 19.783,82.061C19.73,82.024 19.678,81.986 19.627,81.946C19.548,81.887 19.473,81.825 19.356,81.718C18.758,81.17 18.328,80.45 18.129,79.665C18.093,79.524 18.067,79.385 18.049,79.245C18.021,79.064 18.006,78.881 18.003,78.696L18,78.636L18,49.363L18.003,49.302C18.006,49.118 18.022,48.935 18.049,48.754C18.067,48.614 18.093,48.474 18.129,48.334C18.328,47.549 18.758,46.829 19.356,46.281C19.473,46.174 19.548,46.112 19.627,46.052C19.678,46.013 19.73,45.975 19.783,45.938C19.82,45.912 19.858,45.886 19.897,45.861L19.903,45.857L61.721,18.675L61.77,18.646C61.843,18.6 61.917,18.556 61.993,18.514C62.092,18.457 62.182,18.411 62.336,18.345L62.338,18.344L62.339,18.344L62.375,18.328L62.426,18.307L62.442,18.301L62.449,18.298L62.461,18.293L62.539,18.263L62.548,18.26C62.574,18.25 62.6,18.241 62.627,18.232C62.999,18.102 63.388,18.026 63.782,18.005L63.788,18.005L63.795,18.005L63.815,18.003C63.86,18.001 63.905,18.001 63.95,18.001ZM98.343,78.507L84.909,69.104L68.226,80.782C68.326,86.549 68.267,92.318 68.221,98.086L98.343,78.507ZM29.657,78.507L59.721,98.049C59.707,92.303 59.794,86.556 59.814,80.81L43.091,69.104L29.657,78.507ZM50.383,63.999L64,73.531L77.617,63.999L64,54.468L50.383,63.999ZM26.364,57.395L26.364,70.604L35.799,63.999L26.364,57.395ZM92.201,63.999L101.636,70.604L101.636,57.395L92.201,63.999ZM68.27,34.855C68.249,38.966 68.2,43.077 68.186,47.188L84.909,58.895L98.334,49.497C85.13,41.015 76.365,36.134 68.27,34.855ZM59.741,34.853C51.643,36.129 42.876,41.011 29.666,49.497L43.091,58.895L59.774,47.217C59.702,43.096 59.712,38.974 59.741,34.853Z"/>
        </g>
    </g>
</svg>
