<?xml version="1.0" encoding="UTF-8" standalone="no"?>
<!DOCTYPE svg PUBLIC "-//W3C//DTD SVG 1.1//EN" "http://www.w3.org/Graphics/SVG/1.1/DTD/svg11.dtd">
<svg width="100%" height="100%" viewBox="0 0 128 128" version="1.1" xmlns="http://www.w3.org/2000/svg" xmlns:xlink="http://www.w3.org/1999/xlink" xml:space="preserve" style="fill-rule:evenodd;clip-rule:evenodd;stroke-linejoin:round;stroke-miterlimit:1.41421;">
    <g id="Template">
        <g id="SecurityDecks">
            <path d="M130,-4L130,131L-3,131L-3,-4L130,-4ZM105.156,80.37C105.471,80.403 105.552,80.401 105.861,80.475C106.44,80.613 106.987,80.879 107.454,81.249C107.827,81.545 108.147,81.906 108.396,82.312C109.22,83.653 109.192,85.395 108.325,86.708C108.062,87.105 107.73,87.456 107.348,87.74C107.092,87.929 107.017,87.959 106.74,88.113L65.83,108.568C65.511,108.711 65.199,108.836 64.856,108.909C64.18,109.054 63.471,109.024 62.81,108.823C62.517,108.734 62.45,108.693 62.17,108.568L21.26,88.113C20.983,87.959 20.908,87.929 20.652,87.74C20.27,87.456 19.938,87.105 19.675,86.708C19.413,86.31 19.221,85.867 19.11,85.404C18.745,83.874 19.314,82.227 20.546,81.249C20.919,80.953 21.344,80.723 21.796,80.573C22.588,80.308 23.455,80.294 24.256,80.532C24.56,80.623 24.63,80.665 24.919,80.795L64,100.335L103.081,80.795L103.407,80.649C103.706,80.546 103.779,80.509 104.09,80.446C104.402,80.382 104.483,80.387 104.799,80.364C104.918,80.366 105.037,80.368 105.156,80.37ZM105.511,59.952C105.822,60.012 105.903,60.017 106.204,60.117C106.656,60.268 107.081,60.498 107.454,60.794C108.686,61.772 109.255,63.418 108.89,64.949C108.779,65.412 108.587,65.855 108.325,66.253C108.062,66.65 107.73,67.001 107.348,67.284C107.092,67.474 107.017,67.504 106.74,67.658L65.83,88.113C65.511,88.256 65.199,88.381 64.856,88.454C64.18,88.599 63.471,88.569 62.81,88.368C62.517,88.279 62.45,88.238 62.17,88.113L21.26,67.658C20.983,67.504 20.908,67.474 20.652,67.284C20.27,67.001 19.938,66.65 19.675,66.253C19.413,65.855 19.221,65.412 19.11,64.949C18.745,63.418 19.314,61.772 20.546,60.794C20.919,60.498 21.344,60.268 21.796,60.117C22.588,59.853 23.455,59.839 24.256,60.077C24.56,60.168 24.63,60.21 24.919,60.339L64,79.88L103.081,60.339L103.407,60.194C103.749,60.075 104.081,59.976 104.443,59.934C104.758,59.898 104.839,59.91 105.156,59.915C105.274,59.927 105.392,59.939 105.511,59.952ZM64.516,19.03C64.818,19.081 64.896,19.084 65.19,19.174C65.483,19.263 65.55,19.304 65.83,19.429L106.74,39.884C106.846,39.943 106.954,39.997 107.057,40.06C107.468,40.314 107.834,40.64 108.132,41.021C109.038,42.179 109.251,43.776 108.681,45.131C108.54,45.465 108.355,45.78 108.132,46.065C107.834,46.446 107.468,46.773 107.057,47.026C106.954,47.089 106.846,47.144 106.74,47.202L65.83,67.658C65.55,67.783 65.483,67.823 65.19,67.913C64.529,68.114 63.82,68.143 63.144,67.999C62.801,67.925 62.489,67.801 62.17,67.658L21.26,47.202C21.154,47.144 21.046,47.089 20.943,47.026C20.532,46.773 20.166,46.446 19.868,46.065C19.645,45.78 19.46,45.465 19.319,45.131C18.749,43.776 18.962,42.179 19.868,41.021C20.166,40.64 20.532,40.314 20.943,40.06C21.046,39.997 21.154,39.943 21.26,39.884L62.17,19.429C62.489,19.286 62.801,19.161 63.144,19.087C63.444,19.023 63.523,19.026 63.828,19.001C64.174,19.001 64.172,19.001 64.516,19.03ZM32.237,43.543L64,59.424L95.763,43.543C65.318,28.321 62.683,28.32 32.237,43.543Z"/>
        </g>
    </g>
</svg>
