<?xml version="1.0" encoding="UTF-8" standalone="no"?>
<!DOCTYPE svg PUBLIC "-//W3C//DTD SVG 1.1//EN" "http://www.w3.org/Graphics/SVG/1.1/DTD/svg11.dtd">
<svg width="100%" height="100%" viewBox="0 0 115 100" version="1.1" xmlns="http://www.w3.org/2000/svg" xmlns:xlink="http://www.w3.org/1999/xlink" xml:space="preserve" xmlns:serif="http://www.serif.com/" style="fill-rule:evenodd;clip-rule:evenodd;stroke-linejoin:round;stroke-miterlimit:1.41421;">
    <g transform="matrix(0.0998076,0,0,0.0998076,-22.9265,-11.3364)">
        <path d="M611.644,785.482C611.644,765.993 619.386,747.303 633.166,733.522C646.947,719.742 665.637,712 685.125,712C757.276,712 866.724,712 938.875,712C958.363,712 977.053,719.742 990.834,733.522C1004.61,747.303 1012.36,765.993 1012.36,785.482C1012.36,785.494 1012.36,785.5 1012.36,785.5L611.644,785.5C611.644,785.5 611.644,785.494 611.644,785.482ZM747.207,326.241C782.396,346.557 794.52,391.509 774.319,426.764C738.668,488.984 684.707,583.161 648.835,645.767C638.983,662.962 622.69,675.528 603.556,680.688C584.422,685.849 564.02,683.18 546.858,673.271C546.849,673.266 546.844,673.263 546.844,673.263L747.2,326.237C747.2,326.237 747.203,326.238 747.207,326.241ZM849.681,426.764C829.48,391.509 841.604,346.557 876.793,326.241C876.797,326.238 876.8,326.237 876.8,326.237L1077.16,673.263C1077.16,673.263 1077.15,673.266 1077.14,673.271C1059.98,683.18 1039.58,685.849 1020.44,680.688C1001.31,675.528 985.017,662.962 975.165,645.767C939.293,583.161 885.332,488.984 849.681,426.764Z" style="fill:url(#_Radial1);"/>
    </g>
    <defs>
        <radialGradient id="_Radial1" cx="0" cy="0" r="1" gradientUnits="userSpaceOnUse" gradientTransform="matrix(298.036,0,0,298.036,812,555.868)"><stop offset="0" style="stop-color:rgb(255,0,0);stop-opacity:1"/><stop offset="1" style="stop-color:rgb(155,0,0);stop-opacity:1"/></radialGradient>
    </defs>
</svg>
