<?xml version="1.0" encoding="UTF-8" standalone="no"?>
<!DOCTYPE svg PUBLIC "-//W3C//DTD SVG 1.1//EN" "http://www.w3.org/Graphics/SVG/1.1/DTD/svg11.dtd">
<svg width="100%" height="100%" viewBox="0 0 115 100" version="1.1" xmlns="http://www.w3.org/2000/svg" xmlns:xlink="http://www.w3.org/1999/xlink" xml:space="preserve" xmlns:serif="http://www.serif.com/" style="fill-rule:evenodd;clip-rule:evenodd;stroke-linejoin:round;stroke-miterlimit:1.41421;">
    <g id="Rotors" transform="matrix(0.0998076,0,0,0.0998076,-22.9265,-11.3364)">
        <path d="M713.843,280.133L706.986,230.403C740.391,221.019 775.614,216 812,216C848.386,216 883.609,221.019 917.014,230.403L910.157,280.133C879.104,270.64 846.144,265.532 812,265.532C777.856,265.532 744.896,270.64 713.843,280.133Z" style="fill:url(#_Linear1);"/>
        <g transform="matrix(-0.5,-0.866025,0.866025,-0.5,694.921,1609.21)">
            <path d="M713.843,280.133L706.986,230.403C740.391,221.019 775.614,216 812,216C848.386,216 883.609,221.019 917.014,230.403L910.157,280.133C879.104,270.64 846.144,265.532 812,265.532C777.856,265.532 744.896,270.64 713.843,280.133Z" style="fill:url(#_Linear2);"/>
        </g>
        <g transform="matrix(-0.5,0.866025,-0.866025,-0.5,1741.08,202.787)">
            <path d="M713.843,280.133L706.986,230.403C740.391,221.019 775.614,216 812,216C848.386,216 883.609,221.019 917.014,230.403L910.157,280.133C879.104,270.64 846.144,265.532 812,265.532C777.856,265.532 744.896,270.64 713.843,280.133Z" style="fill:url(#_Linear3);"/>
        </g>
    </g>
    <defs>
        <linearGradient id="_Linear1" x1="0" y1="0" x2="1" y2="0" gradientUnits="userSpaceOnUse" gradientTransform="matrix(3.36778e-15,-55,55,3.36778e-15,812,271)"><stop offset="0" style="stop-color:rgb(255,0,0);stop-opacity:1"/><stop offset="1" style="stop-color:rgb(155,0,0);stop-opacity:1"/></linearGradient>
        <linearGradient id="_Linear2" x1="0" y1="0" x2="1" y2="0" gradientUnits="userSpaceOnUse" gradientTransform="matrix(3.36778e-15,-55,55,3.36778e-15,812,271)"><stop offset="0" style="stop-color:rgb(255,0,0);stop-opacity:1"/><stop offset="1" style="stop-color:rgb(155,0,0);stop-opacity:1"/></linearGradient>
        <linearGradient id="_Linear3" x1="0" y1="0" x2="1" y2="0" gradientUnits="userSpaceOnUse" gradientTransform="matrix(3.36778e-15,-55,55,3.36778e-15,812,271)"><stop offset="0" style="stop-color:rgb(255,0,0);stop-opacity:1"/><stop offset="1" style="stop-color:rgb(155,0,0);stop-opacity:1"/></linearGradient>
    </defs>
</svg>
