<?xml version="1.0" encoding="UTF-8" standalone="no"?>
<!DOCTYPE svg PUBLIC "-//W3C//DTD SVG 1.1//EN" "http://www.w3.org/Graphics/SVG/1.1/DTD/svg11.dtd">
<svg width="100%" height="100%" viewBox="0 0 50 50" version="1.1" xmlns="http://www.w3.org/2000/svg" xmlns:xlink="http://www.w3.org/1999/xlink" xml:space="preserve" xmlns:serif="http://www.serif.com/" style="fill-rule:evenodd;clip-rule:evenodd;stroke-linejoin:round;stroke-miterlimit:1.41421;">
    <g transform="matrix(0.73564,0,0,0.73564,-11.782,-11.782)">
        <path d="M83.921,23.292C83.829,19.336 80.657,16.147 76.708,16.028L76.708,16.017L23.292,16.017L23.292,16.025C19.318,16.117 16.118,19.318 16.025,23.292L16.016,23.292L16.016,76.708L16.025,76.708C16.116,80.682 19.317,83.883 23.292,83.975L23.292,83.983L76.708,83.983L76.708,83.974C80.683,83.882 83.884,80.682 83.975,76.707L83.984,76.707L83.984,23.292L83.921,23.292ZM32.99,73.676C29.105,73.676 25.956,70.528 25.956,66.642C25.956,62.757 29.105,59.607 32.99,59.607C36.875,59.607 40.025,62.757 40.025,66.642C40.025,70.527 36.875,73.676 32.99,73.676ZM32.99,57.035C29.105,57.035 25.956,53.887 25.956,50.001C25.956,46.116 29.105,42.966 32.99,42.966C36.875,42.966 40.025,46.116 40.025,50.001C40.025,53.886 36.875,57.035 32.99,57.035ZM32.99,40.07C29.105,40.07 25.956,36.922 25.956,33.036C25.956,29.151 29.105,26.001 32.99,26.001C36.875,26.001 40.025,29.151 40.025,33.036C40.025,36.921 36.875,40.07 32.99,40.07ZM67.009,73.979C63.124,73.979 59.975,70.831 59.975,66.946C59.975,63.059 63.124,59.91 67.009,59.91C70.894,59.91 74.044,63.059 74.044,66.946C74.044,70.83 70.894,73.979 67.009,73.979ZM67.01,57.035C63.125,57.035 59.976,53.887 59.976,50.001C59.976,46.116 63.125,42.966 67.01,42.966C70.895,42.966 74.045,46.116 74.045,50.001C74.044,53.886 70.895,57.035 67.01,57.035ZM67.009,40.07C63.124,40.07 59.975,36.922 59.975,33.037C59.975,29.15 63.124,26.001 67.009,26.001C70.894,26.001 74.044,29.15 74.044,33.037C74.044,36.921 70.894,40.07 67.009,40.07Z" style="fill:rgb(201,201,201);fill-rule:nonzero;"/>
    </g>
</svg>
