<?xml version="1.0" encoding="UTF-8" standalone="no"?><!DOCTYPE svg PUBLIC "-//W3C//DTD SVG 1.1//EN" "http://www.w3.org/Graphics/SVG/1.1/DTD/svg11.dtd"><svg width="100%" height="100%" viewBox="0 0 1696 319" version="1.1" xmlns="http://www.w3.org/2000/svg" xmlns:xlink="http://www.w3.org/1999/xlink" xml:space="preserve"  style="fill-rule:evenodd;clip-rule:evenodd;stroke-linejoin:round;stroke-miterlimit:1.41421;"><g id="Layer1"><circle cx="149.045" cy="169.542" r="149.045" style="fill:url(#_Linear1);"/><path d="M182.609,299.158c0,0 71.399,-3.476 108.026,-83.439c27.636,-60.334 -2.616,-121.366 -2.616,-121.366c0,0 13.376,-13.05 19.095,-20.402c5.798,-7.455 16.217,-23.018 16.217,-23.018l-321.464,208.99c0,0 49.448,-18.042 98.087,-36.619c50.492,-19.284 100.058,-41.325 120.582,-21.186c51.854,50.882 -37.927,97.04 -37.927,97.04Zm88.147,-231.747c-29.926,11.817 -58.965,28.406 -86.316,42.374c-81.364,41.554 -150.194,69.457 -151.185,-1.831c-1.184,-85.149 154.724,-142.863 237.501,-40.543Z" style="fill:url(#_Linear2);"/><path d="M330.068,48.631c-4.334,-5.378 -9.983,-10.597 -14.495,-14.807c-5.365,-5.005 -17.483,-14.029 -17.483,-14.029l39.626,2.973c0,0 17.746,-13.126 26.697,-16.92c8.481,-3.596 27.008,-5.848 27.008,-5.848l-0.066,0.197c-0.652,1.931 -6.107,17.489 -11.392,24.95c-5.6,7.906 -22.21,22.488 -22.21,22.488l-5.523,39.352c0,0 -6.24,-13.76 -9.99,-20.067c-3.604,-6.062 -7.728,-12.773 -12.172,-18.289Z" style="fill:url(#_Linear3);"/></g><text id="This-one-"  x="388.98px" y="206.4px" style="font-family:'Zekton';font-size:145.321px;fill:#fff;">Space EdV<tspan x="1162.67px 1254.22px " y="206.4px 206.4px ">en</tspan>tures</text><defs><linearGradient id="_Linear1" x1="0" y1="0" x2="1" y2="0" gradientUnits="userSpaceOnUse" gradientTransform="matrix(-151.008,-244.542,244.542,-151.008,248.335,288.62)"><stop offset="0" style="stop-color:#641b1a;stop-opacity:1"/><stop offset="1" style="stop-color:#c74947;stop-opacity:1"/></linearGradient><linearGradient id="_Linear2" x1="0" y1="0" x2="1" y2="0" gradientUnits="userSpaceOnUse" gradientTransform="matrix(160.601,149.092,-148.396,159.851,123.519,106.457)"><stop offset="0" style="stop-color:#ffd5d4;stop-opacity:1"/><stop offset="1" style="stop-color:#a62d2a;stop-opacity:1"/></linearGradient><linearGradient id="_Linear3" x1="0" y1="0" x2="1" y2="0" gradientUnits="userSpaceOnUse" gradientTransform="matrix(54.1406,67.192,-66.2613,53.3907,331.22,-6.90068)"><stop offset="0" style="stop-color:#ff5a57;stop-opacity:1"/><stop offset="1" style="stop-color:#922725;stop-opacity:1"/></linearGradient></defs></svg>