<?xml version="1.0" encoding="UTF-8" standalone="no"?>
<!DOCTYPE svg PUBLIC "-//W3C//DTD SVG 1.1//EN" "http://www.w3.org/Graphics/SVG/1.1/DTD/svg11.dtd">
<svg
  width="100%"
  height="100%"
  viewBox="0 0 1696 319"
  version="1.1"
  xmlns="http://www.w3.org/2000/svg"
  xmlns:xlink="http://www.w3.org/1999/xlink"
  xml:space="preserve"
  style="fill-rule:evenodd;clip-rule:evenodd;stroke-linejoin:round;stroke-miterlimit:1.41421;"
>
  <g id="Layer1">
    <circle
      cx="149.045"
      cy="169.542"
      r="149.045"
      style="fill:url(#_Linear1);"
    />
    <path
      d="M182.609,299.158C182.609,299.158 254.008,295.682 290.635,215.719C318.271,155.385 288.019,94.353 288.019,94.353C288.019,94.353 301.395,81.303 307.114,73.951C312.912,66.496 323.331,50.933 323.331,50.933L1.867,259.923C1.867,259.923 51.315,241.881 99.954,223.304C150.446,204.02 200.012,181.979 220.536,202.118C272.39,253 182.609,299.158 182.609,299.158ZM270.756,67.411C240.83,79.228 211.791,95.817 184.44,109.785C103.076,151.339 34.246,179.242 33.255,107.954C32.071,22.805 187.979,-34.909 270.756,67.411Z"
      style="fill:url(#_Linear2);"
    />
    <path
      d="M330.068,48.631C325.734,43.253 320.085,38.034 315.573,33.824C310.208,28.819 298.09,19.795 298.09,19.795L337.716,22.768C337.716,22.768 355.462,9.642 364.413,5.848C372.894,2.252 391.421,0 391.421,0L391.355,0.197C390.703,2.128 385.248,17.686 379.963,25.147C374.363,33.053 357.753,47.635 357.753,47.635L352.23,86.987C352.23,86.987 345.99,73.227 342.24,66.92C338.636,60.858 334.512,54.147 330.068,48.631Z"
      style="fill:url(#_Linear3);"
    />
  </g>
  <path
    d="M516.862,231.105L503.784,231.105L503.784,148.272C503.784,131.802 512.018,123.567 528.488,123.567L557.552,123.567C574.022,123.567 582.257,131.802 582.257,148.272L582.257,184.602C582.257,201.071 574.022,209.306 557.552,209.306L525.582,209.306L525.582,196.228L557.552,196.228C565.303,196.228 569.178,192.352 569.178,184.602L569.178,148.272C569.178,140.521 565.303,136.646 557.552,136.646L528.488,136.646C520.738,136.646 516.862,140.521 516.862,148.272L516.862,231.105ZM464.547,209.306L403.512,209.306L403.512,196.228L464.547,196.228C472.297,196.228 476.173,192.449 476.173,184.892L476.173,162.804C476.173,155.053 472.297,151.178 464.547,151.178L420.951,151.178C404.481,151.178 396.246,142.943 396.246,126.473L396.246,111.941C396.246,95.472 404.481,87.237 420.951,87.237L481.985,87.237L481.985,100.316L420.951,100.316C413.2,100.316 409.325,104.191 409.325,111.941L409.325,126.473C409.325,134.224 413.2,138.099 420.951,138.099L464.547,138.099C481.017,138.099 489.251,146.334 489.251,162.804L489.251,184.892C489.251,201.168 481.017,209.306 464.547,209.306ZM1501.27,209.306L1488.19,209.306L1488.19,148.272C1488.19,131.802 1496.42,123.567 1512.89,123.567L1523.07,123.567L1523.07,136.646L1512.89,136.646C1505.14,136.646 1501.27,140.521 1501.27,148.272L1501.27,209.306ZM1369.46,209.306L1357.4,209.306L1357.4,136.646L1350.13,136.646L1350.13,123.567L1357.4,123.567L1357.4,87.237L1369.46,87.237L1369.46,123.567L1385.01,123.567L1385.01,136.646L1369.46,136.646L1369.46,209.306ZM752.283,209.306L713.046,209.306C696.576,209.306 688.341,201.072 688.341,184.602L688.341,148.272C688.341,131.802 696.576,123.567 713.046,123.567L752.283,123.567L752.283,136.646L713.046,136.646C705.295,136.646 701.42,140.521 701.42,148.272L701.42,184.602C701.42,192.352 705.295,196.228 713.046,196.228L752.283,196.228L752.283,209.306ZM1671.29,209.306L1630.75,209.306L1630.75,196.228L1671.29,196.228C1679.04,196.228 1682.92,192.352 1682.92,184.602C1682.92,176.851 1679.04,172.976 1671.29,172.976L1649.5,172.976C1633.03,172.976 1624.79,164.741 1624.79,148.272C1624.79,131.802 1633.03,123.567 1649.5,123.567L1688.73,123.567L1688.73,136.646L1649.5,136.646C1641.75,136.646 1637.87,140.521 1637.87,148.272C1637.87,156.022 1641.75,159.897 1649.5,159.897L1671.29,159.897C1687.76,159.897 1696,168.132 1696,184.602C1696,201.071 1687.76,209.306 1671.29,209.306ZM1241.14,209.306L1194.64,209.306C1178.17,209.306 1169.94,201.072 1169.94,184.602L1169.94,148.272C1169.94,131.802 1178.17,123.567 1194.64,123.567L1223.7,123.567C1240.17,123.567 1248.41,131.802 1248.41,148.272L1248.41,148.562C1248.41,164.838 1240.17,172.976 1223.7,172.976L1191.73,172.976L1191.73,159.897L1223.7,159.897C1231.45,159.897 1235.33,156.119 1235.33,148.562L1235.33,148.272C1235.33,140.521 1231.45,136.646 1223.7,136.646L1194.64,136.646C1186.89,136.646 1183.02,140.521 1183.02,148.272L1183.02,184.602C1183.02,192.352 1186.89,196.228 1194.64,196.228L1241.14,196.228L1241.14,209.306ZM835.115,209.306L788.613,209.306C772.143,209.306 763.908,201.072 763.908,184.602L763.908,148.272C763.908,131.802 772.143,123.567 788.613,123.567L817.677,123.567C834.147,123.567 842.382,131.802 842.382,148.272L842.382,148.562C842.382,164.838 834.147,172.976 817.677,172.976L785.706,172.976L785.706,159.897L817.677,159.897C825.427,159.897 829.303,156.119 829.303,148.562L829.303,148.272C829.303,140.521 825.427,136.646 817.677,136.646L788.613,136.646C780.862,136.646 776.987,140.521 776.987,148.272L776.987,184.602C776.987,192.352 780.862,196.228 788.613,196.228L835.115,196.228L835.115,209.306ZM1605.9,209.306L1559.4,209.306C1542.93,209.306 1534.69,201.072 1534.69,184.602L1534.69,148.272C1534.69,131.802 1542.93,123.567 1559.4,123.567L1588.46,123.567C1604.93,123.567 1613.16,131.802 1613.16,148.272L1613.16,148.562C1613.16,164.838 1604.93,172.976 1588.46,172.976L1556.49,172.976L1556.49,159.897L1588.46,159.897C1596.21,159.897 1600.09,156.119 1600.09,148.562L1600.09,148.272C1600.09,140.521 1596.21,136.646 1588.46,136.646L1559.4,136.646C1551.65,136.646 1547.77,140.521 1547.77,148.272L1547.77,184.602C1547.77,192.352 1551.65,196.228 1559.4,196.228L1605.9,196.228L1605.9,209.306ZM649.105,209.306L620.04,209.306C603.571,209.306 595.336,201.072 595.336,184.602L595.336,184.311C595.336,168.035 603.571,159.897 620.04,159.897L652.011,159.897L652.011,172.976L620.04,172.976C612.29,172.976 608.415,176.755 608.415,184.311L608.415,184.602C608.415,192.352 612.29,196.228 620.04,196.228L649.105,196.228C656.855,196.228 660.73,192.352 660.73,184.602L660.73,148.272C660.73,140.521 656.855,136.646 649.105,136.646L602.602,136.646L602.602,123.567L649.105,123.567C665.574,123.567 673.809,131.802 673.809,148.272L673.809,184.602C673.809,201.071 665.574,209.306 649.105,209.306ZM1274.57,209.306L1261.49,209.306L1261.49,123.567L1315.26,123.567C1331.73,123.567 1339.96,131.802 1339.96,148.272L1339.96,209.306L1326.88,209.306L1326.88,148.272C1326.88,140.521 1323.01,136.646 1315.26,136.646L1274.57,136.646L1274.57,209.306ZM1448.95,209.306L1419.89,209.306C1403.42,209.306 1395.18,201.072 1395.18,184.602L1395.18,123.567L1408.26,123.567L1408.26,184.602C1408.26,192.352 1412.14,196.228 1419.89,196.228L1448.95,196.228C1456.7,196.228 1460.58,192.449 1460.58,184.892L1460.58,123.567L1473.66,123.567L1473.66,184.892C1473.66,201.168 1465.42,209.306 1448.95,209.306ZM962.998,209.306L891.791,209.306L891.791,87.237L962.998,87.237L962.998,100.316L904.87,100.316L904.87,138.099L962.998,138.099L962.998,151.178L904.87,151.178L904.87,196.228L962.998,196.228L962.998,209.306ZM1031.3,209.306L1002.24,209.306C985.765,209.306 977.53,201.072 977.53,184.602L977.53,148.272C977.53,131.802 985.765,123.567 1002.24,123.567L1034.2,123.567L1034.2,136.646L1002.24,136.646C994.484,136.646 990.609,140.521 990.609,148.272L990.609,184.602C990.609,192.352 994.484,196.228 1002.24,196.228L1031.3,196.228C1039.05,196.228 1042.92,192.352 1042.92,184.602L1042.92,87.237L1056,87.237L1056,184.602C1056,201.071 1047.77,209.306 1031.3,209.306ZM1125.32,209.306L1113.55,209.306L1064.72,87.237L1078.96,87.237L1119.51,190.269L1159.76,87.237L1173.86,87.237L1125.32,209.306Z"
    style="fill:white;fill-rule:nonzero;"
  />
  <defs>
    <linearGradient
      id="_Linear1"
      x1="0"
      y1="0"
      x2="1"
      y2="0"
      gradientUnits="userSpaceOnUse"
      gradientTransform="matrix(-151.008,-244.542,244.542,-151.008,248.335,288.62)"
    >
      <stop offset="0" style="stop-color:rgb(100,27,26);stop-opacity:1" />
      <stop offset="1" style="stop-color:rgb(199,73,71);stop-opacity:1" />
    </linearGradient>
    <linearGradient
      id="_Linear2"
      x1="0"
      y1="0"
      x2="1"
      y2="0"
      gradientUnits="userSpaceOnUse"
      gradientTransform="matrix(160.601,149.092,-149.092,160.601,123.519,106.457)"
    >
      <stop offset="0" style="stop-color:rgb(255,213,212);stop-opacity:1" />
      <stop offset="1" style="stop-color:rgb(166,45,42);stop-opacity:1" />
    </linearGradient>
    <linearGradient
      id="_Linear3"
      x1="0"
      y1="0"
      x2="1"
      y2="0"
      gradientUnits="userSpaceOnUse"
      gradientTransform="matrix(54.1406,67.192,-67.192,54.1406,331.22,-6.90068)"
    >
      <stop offset="0" style="stop-color:rgb(255,90,87);stop-opacity:1" />
      <stop offset="1" style="stop-color:rgb(146,39,37);stop-opacity:1" />
    </linearGradient>
  </defs>
</svg>
