<?xml version="1.0" encoding="UTF-8" standalone="no"?>
<!DOCTYPE svg PUBLIC "-//W3C//DTD SVG 1.1//EN" "http://www.w3.org/Graphics/SVG/1.1/DTD/svg11.dtd">
<svg width="100%" height="100%" viewBox="0 0 1037 400" version="1.1" xmlns="http://www.w3.org/2000/svg" xmlns:xlink="http://www.w3.org/1999/xlink" xml:space="preserve" style="fill-rule:evenodd;clip-rule:evenodd;stroke-linejoin:round;stroke-miterlimit:1.41421;">
    <g id="Layer2" transform="matrix(4.33881,0,0,4.33881,-340.848,-462.897)">
        <g transform="matrix(0.230478,0,0,0.230478,78.5579,106.688)">
            <path d="M249.3,165L249.181,165L250,224.09L353,224.09L383,254.09L513,254.09L539,280.09L954.001,280.09L1034,362.09L539,363.09L505,397.09L85,397.09L52,363.09L32,361.09L3,333.09L2,280.09L23,280.09L76,224.09L98,222.09L98,165L97.635,165L97.635,2.05L249.3,2.05L249.3,165Z"/>
        </g>
        <g transform="matrix(0.230478,0,0,0.230478,78.5579,106.688)">
            <path d="M95.471,151.999L95.471,0L99.8,0L99.8,0.05L247.3,0.05L247.3,0L251.603,0L251.603,151.999L251.651,151.999L251.651,221.529L353.732,221.529L353.732,221.55L353.753,221.529L384.016,251.791L515.153,251.791L515.153,251.796L515.157,251.791L541.19,277.824L954.511,277.824L954.541,277.789L1037.01,360.262L1036.98,360.293L1036.98,364.601L541.515,364.601L506.81,399.305L506.807,399.302L506.807,399.311L83.459,399.311L83.459,399.28L48.78,364.601L30.533,364.601L30.533,364.577L0.185,334.229L0,334.229L0,277.824L19.589,277.824L75.929,221.484L75.929,221.42L95.454,221.42L95.454,151.999L95.471,151.999ZM138.842,373.278L130.164,373.278L130.164,394.972L138.842,394.972L138.842,373.278ZM255.99,360.262L91.115,360.262L91.115,364.601L54.916,364.601L85.287,394.972L99.793,394.972L99.793,368.939L117.148,368.939L117.148,394.972L125.826,394.972L125.826,368.939L143.181,368.939L143.181,394.972L151.858,394.972L151.858,368.939L169.214,368.939L169.214,386.295L465.958,386.295L474.166,378.086L474.166,378.051L503.302,378.051L503.302,382.39L502.031,382.39L489.449,394.972L505.007,394.972L535.379,364.601L255.99,364.601L255.99,360.262ZM164.875,373.278L156.197,373.278L156.197,394.972L164.875,394.972L164.875,373.278ZM461.619,390.633L169.214,390.633L169.214,394.972L457.28,394.972L461.619,390.633ZM495.895,382.39L475.999,382.39L463.416,394.972L483.313,394.972L495.895,382.39ZM112.809,373.278L104.132,373.278L104.132,394.972L112.809,394.972L112.809,373.278ZM1026.53,355.923L260.329,355.923L260.329,360.262L1030.87,360.262L1026.53,355.923ZM86.776,355.923L28.015,355.923L32.354,360.262L86.776,360.262L86.776,355.923ZM95.454,286.502L91.115,286.502L91.115,355.923L255.99,355.923L255.99,286.502L251.651,286.502L251.651,351.584L95.454,351.584L95.454,286.502ZM86.776,338.568L10.66,338.568L23.863,351.771L23.863,351.584L86.776,351.584L86.776,338.568ZM1009.18,338.568L260.329,338.568L260.329,351.584L1022.19,351.584L1009.18,338.568ZM247.312,295.18L99.793,295.18L99.793,347.245L247.312,347.245L247.312,295.18ZM978.811,308.196L260.329,308.196L260.329,334.229L1004.84,334.229L978.811,308.196ZM86.776,308.196L4.339,308.196L4.339,332.247L6.321,334.229L86.776,334.229L86.776,308.196ZM86.776,290.841L4.339,290.841L4.339,303.857L86.776,303.857L86.776,290.841ZM961.461,290.841L260.329,290.841L260.329,303.857L974.471,303.857L961.461,290.841ZM99.8,183.491L99.793,183.491L99.793,290.841L247.312,290.841L247.312,183.571L247.3,183.571L247.3,4.05L99.8,4.05L99.8,183.491ZM952.781,282.163L260.329,282.163L260.329,286.502L957.121,286.502L952.781,282.163ZM86.776,282.163L4.339,282.163L4.339,286.502L86.776,286.502L86.776,282.163ZM255.99,277.824L251.651,277.824L251.651,282.163L255.99,282.163L255.99,277.824ZM95.454,277.824L91.115,277.824L91.115,282.163L95.454,282.163L95.454,277.824ZM282.023,225.868L260.329,225.868L260.329,277.824L535.054,277.824L513.36,256.13L502.031,256.13L510.709,264.808L511.98,264.808L511.98,269.147L485.947,269.147L485.947,267.876L474.201,256.13L467.321,256.13L475.999,264.808L477.269,264.808L477.269,269.147L451.237,269.147L451.237,267.876L448.169,264.808L351.444,264.808L351.444,273.485L269.006,273.485L269.006,251.791L282.023,251.791L282.023,225.868ZM86.776,225.759L78.099,225.759L78.099,264.808L38.741,264.808L25.725,277.824L86.776,277.824L86.776,225.759ZM255.99,269.147L251.651,269.147L251.651,273.485L255.99,273.485L255.99,269.147ZM95.454,269.147L91.115,269.147L91.115,273.485L95.454,273.485L95.454,269.147ZM334.089,251.791L286.362,251.791L286.362,256.13L273.345,256.13L273.345,269.147L277.684,269.147L277.684,264.808L282.023,264.808L282.023,269.147L286.362,269.147L286.362,260.469L290.7,260.469L290.7,269.147L295.039,269.147L295.039,260.469L299.378,260.469L299.378,269.147L303.717,269.147L303.717,260.469L308.056,260.469L308.056,269.147L312.395,269.147L312.395,264.808L316.733,264.808L316.733,269.147L321.072,269.147L321.072,260.469L325.411,260.469L325.411,269.147L338.427,269.147L338.427,260.469L342.766,260.469L342.766,269.147L347.105,269.147L347.105,256.13L334.089,256.13L334.089,251.791ZM95.454,260.469L91.115,260.469L91.115,264.808L95.454,264.808L95.454,260.469ZM255.99,260.469L251.651,260.469L251.651,264.808L255.99,264.808L255.99,260.469ZM334.089,264.808L329.75,264.808L329.75,260.469L334.089,260.469L334.089,264.808ZM495.895,256.13L480.337,256.13L489.015,264.808L504.573,264.808L495.895,256.13ZM461.185,256.13L445.627,256.13L454.305,264.808L469.863,264.808L461.185,256.13ZM351.956,225.868L338.427,225.868L338.427,251.791L351.444,251.791L351.444,260.469L443.83,260.469L439.491,256.13L383.954,256.13L383.086,256.998L382.219,256.13L381.816,256.13L381.816,255.727L351.956,225.868ZM73.76,230.097L73.451,230.097L43.08,260.469L73.76,260.469L73.76,230.097ZM95.454,251.791L91.115,251.791L91.115,256.13L95.454,256.13L95.454,251.791ZM255.99,251.791L251.651,251.791L251.651,256.13L255.99,256.13L255.99,251.791ZM334.089,243.114L286.362,243.114L286.362,247.453L334.089,247.453L334.089,243.114ZM95.454,243.114L91.115,243.114L91.115,247.453L95.454,247.453L95.454,243.114ZM255.99,243.114L251.651,243.114L251.651,247.453L255.99,247.453L255.99,243.114ZM334.089,234.436L286.362,234.436L286.362,238.775L334.089,238.775L334.089,234.436ZM95.454,234.436L91.115,234.436L91.115,238.775L95.454,238.775L95.454,234.436ZM255.99,234.436L251.651,234.436L251.651,238.775L255.99,238.775L255.99,234.436ZM334.089,225.868L286.362,225.868L286.362,230.097L334.089,230.097L334.089,225.868ZM95.454,225.759L91.115,225.759L91.115,230.097L95.454,230.097L95.454,225.759ZM255.99,225.868L251.651,225.868L251.651,230.097L255.99,230.097L255.99,225.868Z" style="fill:white;"/>
        </g>
    </g>
</svg>
