<?xml version="1.0" encoding="UTF-8" standalone="no"?><!DOCTYPE svg PUBLIC "-//W3C//DTD SVG 1.1//EN" "http://www.w3.org/Graphics/SVG/1.1/DTD/svg11.dtd"><svg width="100%" height="100%" viewBox="0 0 1000 707" version="1.1" xmlns="http://www.w3.org/2000/svg" xmlns:xlink="http://www.w3.org/1999/xlink" xml:space="preserve" xmlns:serif="http://www.serif.com/" style="fill-rule:evenodd;clip-rule:evenodd;stroke-linecap:round;stroke-linejoin:round;stroke-miterlimit:1.5;"><path d="M85.58,603.065l-5.136,-5.135l0,-8.488l10.434,0l13.624,13.623l33.748,0l-5.136,-5.135l0,-8.488l10.435,0l13.623,13.623l33.748,0l-5.135,-5.135l0,-8.488l10.434,0l13.623,13.623l33.748,0l-5.135,-5.135l0,-8.488l10.434,0l13.623,13.623l33.748,0l-5.135,-5.135l0,-8.488l12.149,0l13.624,13.623l33.748,0l-5.136,-5.135l0,-8.488l10.434,0l13.624,13.623l33.748,0l-5.136,-5.135l0,-8.488l10.434,0l13.624,13.623l0.972,0l3.054,3.054l31.117,0l0,-5.854l-21.501,-4.265l0,-26.499l20.738,-4.022l0,-6.438l-30.018,0l0,0.511l0.301,0l-0.458,3.673l-17.829,17.828l-10.434,0l0,-8.488l5.9,-5.899l-33.748,0l-14.388,14.387l-10.434,0l0,-8.488l5.9,-5.899l-33.748,0l-14.388,14.387l-12.149,0l0,-8.488l5.899,-5.899l-33.748,0l-14.387,14.387l-10.434,0l0,-8.488l5.899,-5.899l-33.748,0l-14.387,14.387l-10.434,0l0,-8.488l5.899,-5.899l-33.748,0l-14.387,14.387l-10.435,0l0,-8.488l5.9,-5.899l-33.748,0l-14.388,14.387l-10.434,0l0,-8.488l5.9,-5.899l-33.642,0l-13.729,13.729l-25.104,-1.048l-3.66,-3.661l16.409,-44.295l42.267,0l4.695,-4.695l0,-4.521l-2.8,-2.8l12.579,-12.579l121.684,0l15.883,15.883l28.266,0l19.084,-19.084l5.529,0l17.85,-15.257l8.268,0l0,-16.082l13.579,-10.147l13.955,0.58l3.451,5.092l81.966,0l3.773,-3.757l18.826,0l34.91,19.137l187.498,0l116.954,-20.548l4.249,-9.733l194.639,0l16.068,13.014l0,187.719c0,0 -2.017,0.821 -2.287,0.821c-0.271,0 0,3.383 0,3.383l-7.922,6.695l-24.92,0l-1.141,-2.745l-1.703,0l-1.299,2.58l-30.351,0l-49.22,-38.576l-63.469,0l-101.421,9.741l-42.339,0l-2.223,-2.224l-1.829,0l0,2.684l-72.766,39.661l-42.843,0l0,11.511l-27.602,0l-19.126,-12.603l-51.132,0l-2.681,-2.68l-4.084,0l0,3.851l-55.387,-11.801l-2.026,2.026l-277.423,0l-8.986,-5.007l-33.554,0l-18.699,-12.129l4.061,-4.062l0,-4.356l-25.167,0l-9.054,-34.647l0,-3.352l-2.564,-2.564l0,-4.598l4.832,-4.831l24.097,0l12.675,12.674l33.342,0Z" style="stroke:#fff;stroke-width:4px;"/><circle cx="617.613" cy="525.131" r="4.031" style="stroke:#fff;stroke-width:2px;"/><circle cx="648.568" cy="584.774" r="1.797" style="stroke:#fff;stroke-width:2px;"/><circle cx="593.31" cy="542.973" r="3.836" style="stroke:#fff;stroke-width:2px;"/><circle cx="554.96" cy="542.973" r="3.836" style="stroke:#fff;stroke-width:2px;"/><circle cx="796.284" cy="472.483" r="5.048"/><circle cx="932.189" cy="585.59" r="1.85"/><circle cx="844.405" cy="533.35" r="3.359"/><path d="M660.616,629.188l-75.223,37.559l-0.364,0.086l-139.46,0c-0.104,-0.021 -0.208,-0.042 -0.312,-0.062l-0.504,-0.754c0,-1.118 -0.026,-2.303 -0.971,-2.863l-4.172,-2.432l-79.038,0c0,0 -0.352,0.098 -0.754,-0.504c0,0 -0.023,-5.243 -3.656,-6.994l-25.418,-11.973l-44.296,15.654l-0.268,0.047l-56.766,0.272l-10.601,9.403c0,0 -0.465,0.237 -0.898,0.124l-0.458,-0.783l0.273,-0.561l10.832,-9.607c0.248,-0.151 0.251,-0.152 0.537,-0.206l56.935,-0.273l46.571,-16.458l0.272,-0.047l219.766,0.238l7.237,-5.572l-49.57,-63.945l0,17.626l35.142,45.879c0.299,0.59 0.174,1.158 -0.647,1.312l-524.078,0c-0.104,-0.021 -0.208,-0.042 -0.312,-0.063c-1.023,-0.683 -0.442,-1.065 -0.442,-1.065c0,0 0.044,-0.363 0.754,-0.504l522.425,0l-34.06,-44.467l-73.405,0l-0.15,-0.014c-0.812,-0.231 -0.793,-1.53 0.15,-1.617l72.992,0l0.013,-19.174l-3.557,-4.59l-8.848,0.165l-6.794,12.043c0,0 -0.079,0.317 -0.74,0.414l-26.694,-0.977c-0.294,-0.067 -0.297,-0.068 -0.547,-0.238l-7.853,-7.854c-0.627,-0.938 -0.47,-0.84 0.264,-1.331c0,0 0.288,-0.225 0.889,0.177l7.627,7.627l25.877,0.948l6.779,-12.017c0.311,-0.379 0.512,-0.379 0.695,-0.415l9.723,-0.181c0.164,0.023 0.335,0.009 0.66,0.316l55.498,71.592l0.063,0.906l-0.21,0.24l-8.106,6.242l-0.498,0.169l-219.904,-0.238l-0.085,0.03l23.933,11.273c0.508,0.245 0.531,0.271 0.747,0.403c2.353,1.436 3.777,4.131 3.777,6.936l78.442,0c0.212,0.028 0.213,0.028 0.411,0.111c2.733,1.593 6.07,2.676 6.143,5.579l0.001,0.421l138.451,0l75.576,-37.735l-6.703,-13.98l0.146,-0.917l0.589,-0.252l29.638,0l0.963,-0.963l-0.957,-0.957l-30.913,0c-0.44,-0.068 -0.533,-0.209 -0.65,-0.323l-6.342,-8.379l-4.879,-7.375l-73.454,34.648c-0.163,0.057 -0.163,0.057 -0.334,0.078l-3.268,0.054c-0.063,-0.006 -0.126,-0.013 -0.19,-0.019c-0.115,-0.04 -0.229,-0.05 -0.473,-0.303l-51.107,-67.131c-0.058,-0.096 -0.132,-0.168 -0.167,-0.494l0,-2.496c0.03,-0.29 0.163,-0.529 0.405,-0.706l14.942,-8.694c0.082,-0.039 0.143,-0.088 0.413,-0.111l65.818,0.159c0.264,0.033 0.494,0.151 0.675,0.361l4.71,7.003c0.15,0.294 0.158,0.599 0.001,0.908l-1.978,2.967c-0.039,0.077 -0.088,0.15 -0.145,0.218l-8.202,12.303c-0.504,0.6 -0.73,0.549 -1.259,0.122l-17.53,-17.71l-16.769,0l-11.63,19.436c-0.504,0.655 -0.766,0.596 -1.302,0.13l-14.309,-15.696c-0.581,-0.807 -0.259,-1.266 0.603,-1.366l23.238,0l2.338,-3.873c0.168,-0.149 0.369,-0.239 0.599,-0.263l17.572,0c0.214,0.021 0.41,0.101 0.58,0.242l17.066,17.241l6.788,-10.182c-4.972,0.039 -9.948,0.234 -14.914,-0.01c-0.176,-0.026 -0.278,-0.037 -0.497,-0.235l-6.192,-6.192c-0.442,-0.49 -0.136,-1.356 0.577,-1.393l21.144,0l-1.601,-2.38l-65.164,-0.158l-14.346,8.348l0,1.752l50.692,66.584l2.679,-0.044l73.081,-34.473l-44.072,-66.618l-0.136,-0.45l0,-9.131c0.24,-1.206 0.815,-0.816 0.816,-0.816l2.929,0l0,-21.278l-129.977,0l-1.107,1.253l0,10.719l2.773,5.256c0.151,0.461 0.046,0.627 -0.02,0.799l-2.256,3.784c-0.122,0.141 -0.22,0.314 -0.701,0.398l-43.688,0c-0.034,0.002 -0.072,0.002 -0.114,0l-0.01,0l-0.003,-0.001c-0.05,-0.003 -0.106,-0.009 -0.17,-0.018c-0.034,-0.01 -0.067,-0.022 -0.099,-0.035l-0.04,-0.008l-0.011,-0.016c-0.27,-0.138 -0.441,-0.406 -0.463,-0.694l-0.03,-0.044l0,-28.956c0.025,-0.199 0.025,-0.199 0.098,-0.386l11.432,-21.253c0.784,-0.95 1.105,-0.332 1.105,-0.332l0.425,0.801l-0.093,0.304l-11.335,21.072l0,26.781l7.67,-7.67l14.629,-35.111c0.382,-0.769 1.92,-0.582 1.506,0.627l-14.22,34.131l31.983,0l0,-10.457c0.052,-0.287 0.054,-0.29 0.204,-0.54l1.832,-1.963l0.335,-0.072l291.018,0c0.001,-0.001 2.638,1.301 2.638,1.301l71.781,45.518l15.072,0l8.397,-8.374c0.089,-0.047 0.155,-0.108 0.453,-0.137l48.595,0c0.213,0.021 0.407,0.099 0.577,0.239l4.234,4.234c0.136,0.166 0.218,0.359 0.239,0.577l0,3.898l12.367,0.016l-13.079,-61.691l26.443,0.335l5.707,-7.851l0,-16.685c0.129,-0.651 1.128,-0.753 1.128,-0.753c0.602,0.402 0.503,0.753 0.503,0.753l0,16.95l-0.155,0.48l-6.112,8.408c-0.325,0.323 -0.503,0.311 -0.672,0.336l-25.159,-0.369l12.978,59.682l4.42,4.652l0.494,0c0,0 0.048,-0.014 0.128,0l9.254,0c0,0 0.323,-0.09 0.731,0.455l3.269,6.636c0.062,0.175 0.062,0.176 0.084,0.361l0,41.971c-0.083,0.479 -0.255,0.577 -0.394,0.698l-8.439,5.103l16.31,59.925c0,0 0.187,0.313 -0.288,0.86c0,0 -0.48,0.205 -0.904,0.062l-0.382,-0.493l-1.93,-7.09l-29.992,0c-0.24,-0.036 -0.241,-0.037 -0.46,-0.143l-43.91,-30.03c-0.331,-0.313 -0.325,-0.489 -0.355,-0.655l-0.366,-16.045l-4.339,-2.17l-2.462,3.477l0,12.393c0,0 0.098,0.352 -0.504,0.754l-0.312,0.062l-47.639,0c0,0 -0.273,-0.04 -0.56,-0.223c-0.178,-0.247 -0.18,-0.25 -0.254,-0.546l-0.759,-13.153l-3.716,-2.831l-4.542,2.581l-1.265,14.697c0,0 0.223,0.516 -0.775,0.745l-45.59,2.087l-0.777,-0.471l-0.075,-0.31l-0.691,-16.951l-2.884,-2.388l-5.958,2.961l0,17.006c-0.072,0.388 -0.294,0.679 -0.72,0.81c0,0 -36.666,4.317 -36.666,4.317l-51.126,-0.602l0.292,4.029l-0.448,0.788c-1.554,0.428 -1.18,-0.67 -1.18,-0.67l-0.243,-3.359Zm-296.104,-160.65l8.701,0c0.163,0.016 0.163,0.016 0.318,0.064l38.155,16.128c0.686,0.373 0.55,1.482 -0.318,1.567l-83.34,0c-0.053,-0.005 -0.106,-0.01 -0.158,-0.015c-0.683,-0.205 -0.859,-1.159 -0.172,-1.547l36.484,-16.128c0.066,-0.023 0.114,-0.054 0.33,-0.069Zm-32.621,16.128l75.452,0l-34.295,-14.497l-8.364,0l-32.793,14.497Zm3.787,65.473l19.212,0c0.213,0.021 0.407,0.1 0.577,0.239l8.197,8.197l62.159,0c0,0 1.713,1.452 0,1.632l-62.497,0c-0.053,-0.005 -0.106,-0.011 -0.159,-0.016c-0.097,-0.029 -0.186,-0.033 -0.418,-0.223l-8.197,-8.197l-8.64,-0.007c2.37,2.309 4.649,4.711 6.989,7.05c0.472,0.504 0.206,1.431 -0.642,1.39c-0.175,-0.019 -0.337,-0.087 -0.474,-0.2c-2.834,-2.659 -5.501,-5.49 -8.244,-8.242l-10.808,-0.009l-2.14,1.173c-0.078,0.035 -0.135,0.079 -0.392,0.101c0,0 -18.617,-0.016 -18.617,-0.016c-0.051,-0.016 -0.102,-0.031 -0.153,-0.046c-0.141,-0.076 -0.141,-0.076 -0.265,-0.177l-2.53,-2.531l-64.168,0l-4.128,3.731c-0.108,0.334 -0.324,0.435 -0.761,0.383l-53.505,0l-0.244,-0.037l-0.223,-0.109l-5.222,-3.641l-68.382,0l-3.549,3.549c-0.263,0.175 -0.267,0.177 -0.577,0.238l-83.3,0l-0.577,-0.238l-3.85,-3.851c0,0 -0.318,-0.179 -0.177,-0.889l0.754,-0.503l0.577,0.239l3.611,3.611l82.624,0l3.549,-3.549l0.577,-0.239l68.976,0c0.244,0.037 0.246,0.038 0.467,0.147l5.222,3.641l52.448,0c-0.059,-3.372 -0.386,-6.554 1.618,-8.958c1.924,-2.309 4.879,-3.701 7.9,-3.739c18.384,-0.074 36.768,-0.091 55.152,0c4.918,0.073 9.575,3.364 11.235,8.082c0,0 1.04,3.144 1.04,3.144c0.002,0.043 0.001,0.085 -0.004,0.126l14.273,0l23.896,-13.097l-34.033,-2.667l-294.062,0l-0.754,-0.503c-0.22,-1.106 -0.113,-0.956 0.754,-1.128l292.741,0l-7.64,-14.47c0,0 -57.653,-0.013 -57.653,-0.013c-0.788,-0.211 -0.842,-1.533 0.142,-1.619l57.957,0l39.896,-4.525l-73.046,-12.419c-0.848,-0.244 -0.775,-1.667 0.273,-1.608l48.749,8.287l0,-3.422c-0.044,-7.038 -5.933,-13.49 -13.331,-13.78l-14.119,-0.469c-0.886,-0.081 -1.068,-1.603 0.054,-1.631l14.124,0.469c3.566,0.14 6.936,1.609 9.565,3.936c0.029,-0.005 0.058,-0.01 0.089,-0.013l91.421,0c0.686,0.068 0.756,0.213 0.816,0.816l0,5.321c-0.068,0.686 -0.213,0.756 -0.816,0.815c-15.784,0 -31.568,-0.097 -47.351,0.002c-6.643,0.123 -12.591,5.759 -12.821,12.654l1.972,0.335c0.397,0.117 0.63,0.379 0.68,0.805l0,24.227c-0.026,0.234 -0.117,0.434 -0.279,0.595l-0.007,0.025l-0.03,0.01c-0.033,0.03 -0.069,0.058 -0.108,0.085l-3.473,1.904l48.024,0c0.277,0.036 0.515,0.164 0.698,0.394l4.834,8.01l22.736,0l0,-4.582c0.062,-0.472 0.324,-0.751 0.816,-0.816l10.641,0c0.384,0.05 0.468,0.155 0.577,0.239l6.577,6.577l65.426,0c0,0 1.801,1.395 0,1.632l-65.764,0c-0.384,-0.051 -0.468,-0.156 -0.577,-0.239l-6.577,-6.578l-9.487,0l0,4.583c-0.062,0.472 -0.324,0.751 -0.816,0.816l-24.012,0c0,0 -0.19,-0.02 -0.401,-0.106c-0.167,-0.125 -0.168,-0.125 -0.298,-0.289l-4.834,-8.01l-50.539,0l-14.944,8.191Zm17.54,-38.084c0.311,-7.366 6.855,-13.963 14.605,-14.011l46.376,0l0,-3.689l-89.102,0c2.292,2.682 3.723,6.124 3.746,9.851l0,3.705l24.375,4.144Zm387.895,3.875l18.383,-21.278l-26.674,0l0,21.278l8.291,0Zm-9.922,0l0,-21.278l-11.76,0l0,21.278l11.76,0Zm-13.391,0l0,-21.278l-65.975,0l0,21.278l65.975,0Zm-87.571,0l19.965,0l0,-21.278l-21.24,0c-0.012,0.035 -0.025,0.071 -0.04,0.108c-2.597,6.741 -2.026,14.457 1.312,20.91c0,0 0.012,0.109 0.003,0.26Zm-3.018,-21.278l-13.601,0l0,21.278l14.887,0c-0.031,-0.09 -0.065,-0.18 -0.109,-0.267c-3.203,-6.462 -3.663,-14.229 -1.177,-21.011Zm-15.232,21.278l0,-21.278l-10.416,0l0,21.278l10.416,0Zm230.217,30.241c0,0 -0.208,-0.023 -0.436,-0.127l-80.439,-51.009l-19.217,22.244l-0.617,0.283l-143.669,0l0,8.069l43.071,65.105l0.061,-0.012l7.318,0l7.179,-1.647l60.209,0c-0.001,-0.007 -0.001,-0.013 -0.002,-0.02l0,-32.594c0.062,-0.472 0.323,-0.751 0.815,-0.816l144.618,0c0.472,0.062 0.751,0.324 0.816,0.816l0,32.614l75.809,0l5.575,-3.186l0,-33.709l-2.96,-6.011l-98.131,0Zm-352.289,-45.725l93.293,0c1.413,0.125 2.556,2.399 3.484,4.543c1.279,2.952 1.366,6.38 0.263,9.409c0,0 -2.115,1.455 -1.303,-1.253c1.004,-3.45 0.22,-7.329 -2.054,-10.123l-0.776,-0.945l-92.41,0c-1.556,3.179 -1.418,7.048 0.305,10.117c0,0 0.835,2.199 -0.751,1.669c-1.149,-0.676 -3.513,-7.906 -0.765,-12.995c0,0 0.304,-0.379 0.714,-0.422Zm-63.116,14.783l41.389,0l1.784,-2.993l-2.403,-4.552l-33.215,0l-7.555,7.545Zm-51.912,-4.84l40.551,0c1.348,0.096 0.649,1.279 1.173,2.301c0.689,1.346 3.027,1.786 3.027,1.786c0.573,0.129 0.656,0.259 0.695,0.807l0.003,22.432c-0.045,0.634 -0.217,0.773 -0.815,0.816l-5.968,0c-0.039,-0.003 -0.078,-0.005 -0.116,-0.008c-0.577,-0.126 -0.661,-0.258 -0.7,-0.808l0,-11.409c-2.569,0 -5.359,0.102 -7.479,-0.704c-3.808,-1.447 -6.61,-5.163 -6.952,-9.295c0,0 -10.028,-0.018 -10.028,-0.018c-0.047,0.678 -0.077,0.809 -0.145,1.192c-0.839,4.695 -5.042,8.55 -9.968,8.894c0,0 -0.014,10.69 -0.014,10.69c-0.125,0.576 -0.257,0.66 -0.807,0.699l-6.536,0c-0.633,-0.045 -0.773,-0.217 -0.816,-0.815l0,-21.665c0.096,-1.347 1.28,-0.649 2.301,-1.172c1.348,-0.691 1.787,-3.027 1.787,-3.027c0.128,-0.574 0.259,-0.657 0.807,-0.696Zm39.482,26.511l4.336,0l-0.004,-20.869c-1.997,-0.343 -3.635,-1.982 -4.002,-3.96c0,0 -39.064,-0.05 -39.064,-0.05c-0.344,1.994 -1.982,3.637 -3.961,4.002l-0.05,20.11l4.904,0l0.008,-10.668c0.24,-1.102 1.279,-0.669 2.107,-0.774c4.367,-0.555 7.998,-4.526 8.027,-9.129c0,0 0.066,-0.85 0.816,-0.904l11.605,0c1.592,0.114 0.711,0.952 0.94,2.332c0.7,4.23 4.648,7.657 9.078,7.685l4.444,0c0.634,0.045 0.773,0.217 0.816,0.815l0,11.41Zm-58.498,-22.41l-43.201,4.892l7.737,14.655l35.464,2.779l0,-22.326Zm135.863,2.81l25.46,0c0.213,0.021 0.408,0.1 0.577,0.239l10.364,10.364l38.927,0l10.675,-10.675c0.352,-0.28 0.644,-0.427 1.171,0.017l10.222,10.839c0.421,0.559 0.238,0.82 -0.016,1.137l-6.562,6.561c-0.165,0.136 -0.358,0.218 -0.577,0.239l-107.365,0c-0.055,-0.006 -0.111,-0.011 -0.167,-0.017c-0.213,-0.068 -0.394,-0.194 -0.532,-0.379l-7.678,-12.797c-0.161,-0.352 -0.126,-0.687 0.126,-0.999l1.281,-1.27c0.164,-0.134 0.357,-0.215 0.574,-0.237l10.032,0c0.358,0.038 0.62,0.219 0.774,0.556l0.61,1.818l8.894,0l2.481,-4.946c0.168,-0.259 0.41,-0.414 0.729,-0.45Zm-17.693,15.37l1.031,1.72l106.566,0l5.762,-5.763l-9.103,-9.652c0,0 -10.444,10.422 -10.444,10.422c-0.089,0.048 -0.156,0.108 -0.453,0.138c0,0 -39.762,-0.016 -39.762,-0.016c-0.051,-0.015 -0.102,-0.031 -0.153,-0.046c-0.141,-0.076 -0.141,-0.076 -0.264,-0.177l-10.364,-10.364l-24.62,0l-2.48,4.946c-0.168,0.259 -0.41,0.414 -0.729,0.45l-9.984,0c-0.358,-0.037 -0.619,-0.219 -0.773,-0.556l-0.611,-1.818l-9.11,0l-0.588,0.583l5.1,8.502l94.578,0c0.905,0.095 1.087,1.517 0,1.631l-93.599,0Zm-17.585,2.78c-0.42,-0.049 -0.735,-0.387 -0.752,-0.813l0,-12.875c0.017,-0.427 0.122,-0.462 0.244,-0.581c0.359,-0.353 0.958,-0.337 1.279,0.176l7.384,12.874c0.275,0.525 -0.102,1.198 -0.707,1.222c-2.483,0 -4.968,0.095 -7.448,-0.003Zm-13.831,-14.503l9.508,0c0.44,0.017 0.795,0.362 0.816,0.81l0.087,12.875c-0.015,0.448 -0.37,0.803 -0.816,0.821c-3.22,0 -6.442,0.124 -9.659,-0.003c-0.42,-0.049 -0.735,-0.387 -0.752,-0.813l0,-12.875c0.017,-0.441 0.363,-0.798 0.816,-0.815Zm-14.089,0l9.375,0c0.44,0.017 0.791,0.363 0.816,0.802l0.219,12.874c-0.01,0.448 -0.358,0.812 -0.816,0.83c-3.219,0 -6.441,0.124 -9.658,-0.003c-0.42,-0.049 -0.736,-0.387 -0.752,-0.813l0,-12.875c0.017,-0.441 0.363,-0.798 0.816,-0.815Zm0.815,12.874l7.95,0l-0.192,-11.243l-7.758,0l0,11.243Zm14.09,0l7.958,0l-0.076,-11.243l-7.882,0l0,11.243Zm13.894,0l5.16,0l-5.16,-8.996l0,8.996Zm176.681,-7.16l59.813,0c0.641,0.061 1.137,0.622 0.616,1.351l-39.603,45.542c-0.17,0.164 -0.375,0.26 -0.616,0.281l-13.268,0c-0.043,-0.004 -0.087,-0.007 -0.13,-0.011c-0.216,-0.053 -0.398,-0.166 -0.54,-0.341l-22.811,-32.952c-0.323,-0.575 -0.256,-0.701 0.164,-1.104l15.868,-12.59c0.152,-0.101 0.322,-0.161 0.507,-0.176Zm26.159,57.642c-0.635,-0.055 -1.034,-0.774 -0.613,-1.349l48.44,-56.011c0.487,-0.479 1.37,-0.249 1.433,0.533c0,18.767 1.547,37.597 -0.003,56.299c-0.01,1.976 -0.817,0.78 -0.817,0.78c-16.147,-0.084 -32.293,-0.168 -48.44,-0.252Zm-6.321,-12.1l38.185,-43.911l-57.738,0l-15.048,11.939l22.133,31.972c4.156,0 8.312,0 12.468,0Zm190.452,-34.68c-3.58,-0.136 -5.892,-6.168 -1.517,-8.019c2.951,-1.249 7.019,2.05 5.429,5.564c-0.683,1.511 -2.055,2.478 -3.912,2.455Zm-136.502,-7.856l-45.849,53.014l45.849,0.239c0,-17.751 0,-35.502 0,-53.253Zm136.675,6.225c2.206,-0.084 3.541,-3.778 0.923,-4.885c-1.635,-0.693 -3.839,0.848 -3.492,2.793c0.216,1.205 1.218,2.109 2.569,2.092Zm-6.875,5.58l4.837,3.068l86.275,0l-2.5,-2.632l-14.434,0l-0.159,-0.015c-0.359,-0.109 -0.599,-0.217 -0.656,-0.8l0,-4.376l-3.757,-3.757l-47.919,0l-8.397,8.374c-0.263,0.141 -0.352,0.128 -0.453,0.138l-12.837,0Zm-597.178,10.247l3.19,-2.883c0.16,-0.12 0.343,-0.191 0.546,-0.21l64.82,0c0.213,0.021 0.407,0.1 0.577,0.239l2.53,2.53l1.977,0c-1.738,-5.028 -4.958,-9.636 -10.626,-9.721c-18.398,-0.091 -36.799,-0.232 -55.196,0.001c-3.032,0.063 -5.94,1.783 -7.465,4.417c0,0 -0.348,0.661 -0.353,1.342l0,4.285Zm355.609,7.789l1.588,-2.382l-1.543,-2.294c-0.114,0.067 -0.239,0.109 -0.365,0.116l-19.828,0l4.56,4.56l15.588,0Zm121.256,29.569l142.988,0l0,-31.798l-142.986,0l0,31.778c-0.001,0.007 -0.002,0.013 -0.002,0.02Zm-168.065,-9.932c-0.588,-0.098 -0.906,-0.764 -0.577,-1.286l12.888,-18.01c0.324,-0.403 0.921,-0.438 1.287,-0.051c4.997,5.927 9.952,11.89 14.99,17.782c0.457,0.681 -0.642,1.309 -0.642,1.309l-27.852,0.261c-0.031,-0.002 -0.062,-0.003 -0.094,-0.005Zm-0.203,-19.532l-20.414,0l12.325,13.52c2.696,-4.507 5.393,-9.013 8.089,-13.52Zm26.4,17.661l-13.17,-15.622l-11.343,15.851c8.171,-0.076 16.342,-0.153 24.513,-0.229Zm13.212,7.955l16.043,-16.561c0.577,-0.344 0.754,-0.276 1.148,0.195l16.496,23.724c0.354,0.616 0.256,0.85 -0.303,1.195l-21.349,10.759c-0.222,0.092 -0.288,0.082 -0.367,0.088l-37.064,0c-0.049,-0.005 -0.098,-0.009 -0.147,-0.014c-0.19,-0.053 -0.357,-0.152 -0.495,-0.299l-13.926,-17.768c-0.34,-0.527 -0.231,-1.237 0.642,-1.319l39.322,0Zm-24.999,17.768l36.473,0l20.337,-10.25l-15.394,-22.138c0,0 -15.583,16.09 -15.583,16.09c-0.147,0.093 -0.31,0.148 -0.488,0.162l-37.992,0l12.647,16.136Zm368.493,-14.743c-2.279,-0.086 -3.763,-3.938 -0.97,-5.12c1.902,-0.805 4.518,1.375 3.44,3.612c-0.45,0.933 -1.292,1.523 -2.47,1.508Zm0.095,-1.631c1.203,-0.045 0.846,-3.158 -0.703,-1.815c-0.095,0.081 -0.174,0.18 -0.234,0.29c-0.048,0.088 -0.083,0.184 -0.103,0.283c-0.124,0.606 0.379,1.251 1.04,1.242Zm-275.113,12.112l0.291,-0.054l277.331,0l8.562,-5.178l0,-5.737l-5.149,2.915l-0.209,0.027l-282.388,0l-7.179,1.647l-6.401,0l5.554,8.396l0.964,1.273l8.624,-3.289Zm262.05,52.661l29.295,0l-13.903,-51.083l-277.001,0l-8.04,3.066l4.077,5.387l30.845,0l0.577,0.239l1.772,1.772c0.684,1.023 0,1.154 0,1.154l-1.779,1.779c-0.262,0.175 -0.266,0.177 -0.576,0.239l-28.68,0l6.145,12.816l51.402,0.605l35.788,-4.22l0,-16.786c0,0 -0.089,-0.322 0.453,-0.731l6.886,-3.422c0.203,-0.056 0.416,-0.152 0.884,0.103l3.571,2.958l0.295,0.595l0.672,16.494l44.057,-2.017l1.24,-14.412c0,0 -0.047,-0.271 0.41,-0.639l5.383,-3.06c0.203,-0.068 0.415,-0.177 0.898,0.06l4.443,3.385l0.32,0.602l0.736,12.759l46.053,0l0,-11.836l0.15,-0.471l3.017,-4.261c0.274,-0.271 0.616,-0.381 1.031,-0.259l5.404,2.703c0.406,0.305 0.411,0.519 0.451,0.711l0.367,16.119l43.357,29.651Zm-318.159,-0.412c-0.225,-0.044 -0.362,-0.068 -0.582,-0.37l-10.148,-15.914c-0.229,-0.41 -0.1,-0.92 0.316,-1.165l28.22,-14.456c1.289,-0.566 2.614,2.292 3.613,4.142c3.6,6.671 0.656,15.948 -6.416,19.857c0,0 -14.603,7.858 -14.603,7.858c-0.069,0.022 -0.144,0.066 -0.4,0.048Zm14.127,-9.287c3.774,-2.05 6.482,-5.865 7.161,-10.139c0.005,-0.032 0.548,-4.936 -1.977,-8.662l-1.399,-2.038l-26.785,13.72l9.259,14.52c4.58,-2.467 9.161,-4.934 13.741,-7.401Zm-12.796,3.677c-0.391,-0.057 -0.432,-0.091 -0.634,-0.412l-5.4,-9.571c-0.2,-0.401 -0.079,-0.886 0.34,-1.127l21.137,-10.81c0.538,-0.242 1.173,0.152 1.187,0.747c-0.081,3.254 0.255,6.607 -0.663,9.482c-1.851,5.794 -9.228,8.303 -15.511,11.601c-0.11,0.051 -0.137,0.104 -0.456,0.09Zm10.016,-6.951c2.829,-1.501 4.727,-4.546 4.821,-7.758l0.128,-5.134l-19.16,9.798l4.593,8.142c3.206,-1.683 6.412,-3.365 9.618,-5.048Zm-24.063,16.516c-1.419,-0.054 -3.163,-0.175 -3.587,-0.784l-7.823,-12.36c-0.229,-0.401 -0.106,-0.899 0.288,-1.146l7.926,-4.48c0.4,-0.203 0.875,-0.072 1.113,0.311l6.755,12.036c0.09,0.179 0.138,0.289 0.083,0.582l-0.599,2.617c-0.449,1.86 -2.214,3.251 -4.156,3.224Zm0.163,-1.631c1.125,-0.038 2.139,-0.863 2.405,-1.967l0.527,-2.301l-6.201,-11.048l-6.467,3.655l7.165,11.319c0.858,0.126 1.72,0.35 2.571,0.342Z" style="fill:#fff;fill-rule:nonzero;"/><rect x="801.333" y="19.399" width="113.324" height="497.076" style="stroke:#fff;stroke-width:4px;"/></svg>