<?xml version="1.0" encoding="UTF-8" standalone="no"?><!DOCTYPE svg PUBLIC "-//W3C//DTD SVG 1.1//EN" "http://www.w3.org/Graphics/SVG/1.1/DTD/svg11.dtd"><svg width="100%" height="100%" viewBox="0 0 54 10" version="1.1" xmlns="http://www.w3.org/2000/svg" xmlns:xlink="http://www.w3.org/1999/xlink" xml:space="preserve" xmlns:serif="http://www.serif.com/" style="fill-rule:evenodd;clip-rule:evenodd;stroke-linejoin:round;stroke-miterlimit:1.41421;"><g id="Layer1"><path d="M37.594,0.013l1.044,0l4.648,1.633l6.886,-1.207l3.761,-0.031l-0.016,4.392l0.016,4.392l-3.761,-0.031l-6.887,-1.221l-4.647,1.647l-1.044,0l-0.518,-0.663l-12.452,0l-2.04,0.674l-1.23,0l-1.88,-1.412l-10.947,-1.201l-8.46,-2.185l0,0l0,0l8.46,-2.185l10.947,-1.201l1.88,-1.412l1.23,0l2.04,0.674l12.452,0l0.518,-0.663Z" style="fill:#fff;"/><path d="M37.879,1.155l0.713,0l4.482,1.407l5.481,-1.083l4.029,-0.024l-0.014,3.345l0.014,3.345l-4.029,-0.024l-5.481,-1.083l-4.482,1.407l-0.713,0l-0.48,-0.505l-12.586,0l-1.896,0.513l-1.142,0l-1.748,-1.075l-10.172,-0.914l-7.488,-1.664l0,0l0,0l7.488,-1.664l10.172,-0.914l1.748,-1.075l1.142,0l1.896,0.513l12.586,0l0.48,-0.505Zm0.1,1.325c0,0.232 -0.18,0.42 -0.401,0.42c-0.461,0 -1.214,0 -1.675,0c-0.221,0 -0.4,-0.188 -0.4,-0.42c0,0 0,-0.001 0,-0.001c0,-0.232 0.179,-0.42 0.4,-0.42c0.461,0 1.214,0 1.675,0c0.221,0 0.401,0.188 0.401,0.42c0,0 0,0.001 0,0.001Zm-15.157,0c0,0.111 0.042,0.218 0.117,0.297c0.075,0.079 0.177,0.123 0.283,0.123c1.748,0 8.709,0 10.458,0c0.106,0 0.208,-0.044 0.283,-0.123c0.075,-0.079 0.117,-0.186 0.117,-0.297c0,0 0,-0.001 0,-0.001c0,-0.111 -0.042,-0.218 -0.117,-0.297c-0.075,-0.078 -0.177,-0.123 -0.283,-0.123c-1.749,0 -8.71,0 -10.458,0c-0.106,0 -0.208,0.045 -0.283,0.123c-0.075,0.079 -0.117,0.186 -0.117,0.297c0,0 0,0.001 0,0.001Zm-5.227,4.151l0.627,0l0,-3.471l-0.627,0l0,3.471Zm2.664,-0.491l0.991,-0.356l0,-1.716l-0.997,-0.533l0.006,2.605Zm-5.779,-0.039l0.627,0l0,-2.411l-0.627,0l0,2.411Zm8.342,-1.41c0,0.111 0.042,0.218 0.117,0.297c0.075,0.079 0.177,0.123 0.283,0.123c1.748,0 8.709,0 10.458,0c0.106,0 0.208,-0.044 0.283,-0.123c0.075,-0.079 0.117,-0.186 0.117,-0.297c0,0 0,-0.001 0,-0.001c0,-0.111 -0.042,-0.218 -0.117,-0.297c-0.075,-0.079 -0.177,-0.123 -0.283,-0.123c-1.749,0 -8.71,0 -10.458,0c-0.106,0 -0.208,0.044 -0.283,0.123c-0.075,0.079 -0.117,0.186 -0.117,0.297c0,0 0,0.001 0,0.001Zm15.157,0c0,0.232 -0.18,0.42 -0.401,0.42c-0.461,0 -1.214,0 -1.675,0c-0.221,0 -0.4,-0.188 -0.4,-0.42c0,0 0,-0.001 0,-0.001c0,-0.232 0.179,-0.42 0.4,-0.42c0.461,0 1.214,0 1.675,0c0.221,0 0.401,0.188 0.401,0.42c0,0 0,0.001 0,0.001Zm4.35,0.156l9.102,0l0,-0.45l-9.102,0l0,0.45Zm-4.35,1.93c0,0.232 -0.18,0.42 -0.401,0.42c-0.461,0 -1.214,0 -1.675,0c-0.221,0 -0.4,-0.188 -0.4,-0.42c0,0 0,0 0,-0.001c0,-0.232 0.179,-0.42 0.4,-0.42c0.461,0 1.214,0 1.675,0c0.221,0 0.401,0.188 0.401,0.42c0,0.001 0,0.001 0,0.001Zm-15.157,0c0,0.111 0.042,0.218 0.117,0.297c0.075,0.079 0.177,0.123 0.283,0.123c1.748,0 8.709,0 10.458,0c0.106,0 0.208,-0.044 0.283,-0.123c0.075,-0.079 0.117,-0.186 0.117,-0.297c0,0 0,0 0,-0.001c0,-0.111 -0.042,-0.218 -0.117,-0.297c-0.075,-0.078 -0.177,-0.123 -0.283,-0.123c-1.749,0 -8.71,0 -10.458,0c-0.106,0 -0.208,0.045 -0.283,0.123c-0.075,0.079 -0.117,0.186 -0.117,0.297c0,0.001 0,0.001 0,0.001Z"/></g></svg>