<?xml version="1.0" encoding="UTF-8" standalone="no"?>
<!DOCTYPE svg PUBLIC "-//W3C//DTD SVG 1.1//EN" "http://www.w3.org/Graphics/SVG/1.1/DTD/svg11.dtd">
<svg width="100%" height="100%" viewBox="0 0 512 512" version="1.1" xmlns="http://www.w3.org/2000/svg" xmlns:xlink="http://www.w3.org/1999/xlink" xml:space="preserve" xmlns:serif="http://www.serif.com/" style="fill-rule:evenodd;clip-rule:evenodd;stroke-linejoin:round;stroke-miterlimit:2;">
    <g transform="matrix(2.09556,0,0,2.09556,-280.464,-280.464)">
        <circle cx="256" cy="256" r="73" style="fill:url(#_Radial1);"/>
    </g>
    <g transform="matrix(1.54762,0,0,1.54762,-140.19,-140.19)">
        <path d="M256,130C325.541,130 382,186.459 382,256C382,325.541 325.541,382 256,382C186.459,382 130,325.541 130,256C130,186.459 186.459,130 256,130ZM256,161.5C308.156,161.5 350.5,203.844 350.5,256C350.5,308.156 308.156,350.5 256,350.5C203.844,350.5 161.5,308.156 161.5,256C161.5,203.844 203.844,161.5 256,161.5Z" style="fill:url(#_Radial2);"/>
    </g>
    <path d="M256,0L266.532,245.468L512,256L266.532,266.532L256,512L245.468,266.532L0,256L245.468,245.468L256,0Z" style="fill:url(#_Radial3);"/>
    <defs>
        <radialGradient id="_Radial1" cx="0" cy="0" r="1" gradientUnits="userSpaceOnUse" gradientTransform="matrix(-73,-4.93996e-14,4.93996e-14,-73,256,256)"><stop offset="0" style="stop-color:white;stop-opacity:1"/><stop offset="0.6" style="stop-color:white;stop-opacity:0.82"/><stop offset="0.81" style="stop-color:white;stop-opacity:0.42"/><stop offset="1" style="stop-color:white;stop-opacity:0"/></radialGradient>
        <radialGradient id="_Radial2" cx="0" cy="0" r="1" gradientUnits="userSpaceOnUse" gradientTransform="matrix(-126,-8.52651e-14,8.52651e-14,-126,256,256)"><stop offset="0" style="stop-color:white;stop-opacity:0"/><stop offset="0.32" style="stop-color:white;stop-opacity:0"/><stop offset="0.76" style="stop-color:white;stop-opacity:0"/><stop offset="0.86" style="stop-color:white;stop-opacity:0.63"/><stop offset="0.96" style="stop-color:white;stop-opacity:0.84"/><stop offset="1" style="stop-color:white;stop-opacity:0"/></radialGradient>
        <radialGradient id="_Radial3" cx="0" cy="0" r="1" gradientUnits="userSpaceOnUse" gradientTransform="matrix(-256,-1.73237e-13,1.73237e-13,-256,256,256)"><stop offset="0" style="stop-color:white;stop-opacity:1"/><stop offset="0.6" style="stop-color:white;stop-opacity:0.82"/><stop offset="0.81" style="stop-color:white;stop-opacity:0.42"/><stop offset="1" style="stop-color:white;stop-opacity:0"/></radialGradient>
    </defs>
</svg>
