<?xml version="1.0" encoding="UTF-8" standalone="no"?>
<!DOCTYPE svg PUBLIC "-//W3C//DTD SVG 1.1//EN" "http://www.w3.org/Graphics/SVG/1.1/DTD/svg11.dtd">
<svg
  viewBox="0 0 485 150"
  version="1.1"
  xmlns="http://www.w3.org/2000/svg"
  style="fill-rule:evenodd;clip-rule:evenodd;stroke-linejoin:round;stroke-miterlimit:1.41421;"
>
  <g id="Layer2" transform="matrix(1.5125,0,0,-1.5125,2.46328,303.242)">
    <g transform="matrix(0.661156,0,0,-0.661156,-10.3674,198.72)">
      <path
        d="M75.359,143.749L16.412,143.749L16.412,133.42L16.412,19.795L65.66,19.795L65.66,19.459L149.089,19.459L153.732,14.976L161.569,14.192L174.499,0.87L339.064,0.87L352.385,14.192L495.049,14.584L463.704,46.713L352.385,46.713L342.198,56.901L291.261,56.901L279.507,68.655L239.149,68.655L179.593,69.439L170.972,68.655L150.206,46.713L141.978,46.713L142.072,41.71L75.359,41.71L75.359,143.749Z"
      />
    </g>
    <g transform="matrix(0.661156,0,0,-0.661156,-10.3674,198.72)">
      <path
        d="M15.435,18.7L148.067,18.7L153.158,13.609L153.158,13.6L160.307,13.6L173.895,0.012L173.895,0L339.772,0L339.772,0.004L339.773,0.002L353.371,13.6L495.988,13.6L495.988,15.288L496,15.3L463.687,47.615L463.675,47.601L353.244,47.601L343.043,57.801L343.042,57.799L343.042,57.801L291.66,57.801L279.802,69.659L279.794,69.65L279.794,69.659L170.945,69.701L170.945,69.676L148.869,47.601L141.194,47.601L141.194,42.503L76.352,42.491L76.352,144.646L15.435,144.646L15.435,18.7ZM194.146,20.4L17.135,20.402L17.135,142.946L74.652,142.946L74.652,40.791L194.144,40.803L194.144,40.803L238.096,40.801L238.096,20.401L194.146,20.4ZM180.315,66.3L180.317,68.072L238.11,68.072L238.109,66.3L180.315,66.3ZM178.595,66.302L176.895,66.302L176.895,68.001L178.595,68.001L178.595,66.302ZM175.195,47.601L151.274,47.601L156.374,52.701L171.795,52.701L171.795,68.001L175.195,68.001L175.195,47.601ZM241.496,66.302L239.796,66.302L239.796,67.959L241.496,67.959L241.496,66.302ZM272.097,66.302L253.397,66.302L253.397,67.959L272.097,67.959L272.097,66.302ZM315.096,54.401L278.897,54.401L278.897,57.801L273.797,57.801L273.797,67.959L279.098,67.959L290.798,56.259L290.798,56.101L290.955,56.101L291.295,55.761L291.635,56.101L313.396,56.101L315.096,54.401ZM350.839,47.601L243.196,47.601L243.196,67.959L251.697,67.959L251.697,57.801L246.596,57.801L246.596,49.301L278.897,49.301L278.897,52.701L316.796,52.701L317.998,51.499L317.998,51.001L328.198,51.001L328.198,52.701L327.7,52.701L324.3,56.101L326.996,56.101L331.598,51.499L331.598,51.001L341.798,51.001L341.798,52.701L341.3,52.701L337.9,56.101L342.339,56.101L350.839,47.601ZM170.095,54.401L158.074,54.401L169.974,66.302L170.095,66.302L170.095,54.401ZM272.097,62.901L253.397,62.901L253.397,64.601L272.097,64.601L272.097,62.901ZM241.496,62.901L239.796,62.901L239.796,64.601L240.76,64.601L240.76,64.601L241.496,64.601L241.496,62.901ZM178.595,62.901L176.895,62.901L176.895,64.601L178.194,64.601L178.194,64.601L178.595,64.601L178.595,62.901ZM180.314,64.601L238.108,64.601L238.104,56.102L180.307,56.102L180.314,64.601ZM272.097,59.501L253.397,59.501L253.397,61.201L272.097,61.201L272.097,59.501ZM178.595,59.501L176.895,59.501L176.895,61.201L178.595,61.201L178.595,59.501ZM241.496,59.501L239.796,59.501L239.796,61.201L241.496,61.201L241.496,59.501ZM178.194,56.101L176.895,56.101L176.895,57.801L178.595,57.801L178.595,56.102L178.194,56.102L178.194,56.101ZM241.496,56.101L240.76,56.101L240.76,56.102L239.796,56.102L239.796,57.801L241.496,57.801L241.496,56.101ZM249.996,51.001L248.296,51.001L248.296,56.101L253.397,56.101L253.397,57.801L272.097,57.801L272.097,56.101L277.197,56.101L277.197,51.001L275.497,51.001L275.497,54.401L273.797,54.401L273.797,51.001L268.697,51.001L268.697,54.401L266.997,54.401L266.997,51.001L265.297,51.001L265.297,52.701L263.597,52.701L263.597,51.001L261.897,51.001L261.897,54.401L260.197,54.401L260.197,51.001L258.497,51.001L258.497,54.401L256.796,54.401L256.796,51.001L255.096,51.001L255.096,54.401L253.397,54.401L253.397,51.001L251.697,51.001L251.697,52.701L249.996,52.701L249.996,51.001ZM325.296,52.701L319.2,52.701L315.8,56.101L321.896,56.101L325.296,52.701ZM338.896,52.701L332.8,52.701L329.4,56.101L335.496,56.101L338.896,52.701ZM180.305,54.402L238.103,54.402L238.1,49.298L180.301,49.298L180.305,54.402ZM178.595,52.701L176.895,52.701L176.895,54.401L178.595,54.401L178.595,52.701ZM241.496,52.701L239.796,52.701L239.796,54.401L241.496,54.401L241.496,52.701ZM272.097,54.401L270.397,54.401L270.397,52.701L272.097,52.701L272.097,54.401ZM241.496,49.301L239.796,49.301L239.796,51.001L241.496,51.001L241.496,49.301ZM178.595,49.301L176.895,49.301L176.895,51.001L178.595,51.001L178.595,49.301ZM178.595,45.901L176.895,45.901L176.895,47.601L178.194,47.601L178.194,47.599L178.595,47.599L178.595,45.901ZM241.496,45.901L239.796,45.901L239.796,47.599L240.76,47.599L240.76,47.601L241.496,47.601L241.496,45.901ZM238.096,42.501L194.144,42.501L194.144,42.503L180.295,42.503L180.299,47.599L238.099,47.599L238.096,42.501ZM464.698,44.201L243.196,44.201L243.196,45.901L462.997,45.901L464.698,44.201ZM175.195,42.504L142.894,42.504L142.894,45.901L175.195,45.901L175.195,42.504ZM241.496,17L176.895,17L176.895,18.7L239.796,18.7L239.796,44.201L241.496,44.201L241.496,17ZM176.895,42.503L176.895,44.201L178.595,44.201L178.595,42.503L176.895,42.503ZM471.496,37.401L243.196,37.401L243.196,42.501L466.398,42.501L471.496,37.401ZM483.395,25.5L243.196,25.5L243.196,35.701L473.196,35.701L483.395,25.5ZM490.193,18.7L243.196,18.7L243.196,23.8L485.096,23.8L490.193,18.7ZM175.195,15.3L153.871,15.3L150.468,18.7L175.195,18.7L175.195,15.3ZM493.594,15.3L243.196,15.3L243.196,17L491.894,17L493.594,15.3ZM180.295,1.7L174.611,1.7L162.711,13.6L176.895,13.6L176.895,15.3L241.496,15.3L241.496,13.6L350.967,13.6L339.066,1.7L332.97,1.7L337.9,6.63L338.398,6.63L338.398,8.33L326.982,8.33L326.982,8.316L323.766,5.1L207.496,5.1L207.496,11.9L200.695,11.9L200.695,1.7L197.295,1.7L197.295,11.9L190.495,11.9L190.495,1.7L187.095,1.7L187.095,11.9L180.295,11.9L180.295,1.7ZM185.395,1.7L181.995,1.7L181.995,10.2L185.395,10.2L185.395,1.7ZM205.796,1.7L202.395,1.7L202.395,10.2L205.796,10.2L205.796,1.7ZM195.595,1.7L192.195,1.7L192.195,10.2L195.595,10.2L195.595,1.7ZM330.566,1.7L322.77,1.7L327.7,6.63L335.496,6.63L330.566,1.7ZM320.366,1.7L207.496,1.7L207.496,3.4L322.066,3.4L320.366,1.7Z"
        style="fill:white;"
      />
    </g>
  </g>
</svg>
