<svg clip-rule="evenodd" fill-rule="evenodd" stroke-linejoin="round" stroke-miterlimit="2" viewBox="0 0 513 512" xmlns="http://www.w3.org/2000/svg" xmlns:xlink="http://www.w3.org/1999/xlink"><clipPath id="transport-a"><path clip-rule="evenodd" d="m0 0h512v512h-512z"/></clipPath><g transform="translate(.33)"><path d="m0 0h512v512h-512z" fill="none"/><g clip-path="url(#transport-a)"><path d="m498 346.28h-484l39.5-39.28h404.72zm0-180.56-39.78 39.28h-404.72l-39.5-39.28z" fill="#cacaca" transform="matrix(1.05785 0 0 1.35738 -14.8099 -91.4882)"/><path d="m105.636 196.762-32.165-31.762v146l32.165-31.762z" fill="#d5d5d5" transform="matrix(1.30826 0 0 1.67869 -96.1188 -143.527)"/><path d="m105.636 196.762-32.165-31.762v146l31.939-31.762z" fill="#d5d5d5" transform="matrix(-1.30826 0 0 -1.67869 608.119 655.527)"/><path d="m48 165h414v146h-414z" fill="#bababa" transform="matrix(1.03342 0 0 .948303 -7.52321 30.3038)"/><g fill="#1e166a"><path d="m385.28 332.878c0-1.029-.91-2.015-2.53-2.742s-3.817-1.136-6.108-1.136h-.004c-2.291 0-4.488.409-6.108 1.136s-2.53 1.713-2.53 2.742v13.402h17.28z" transform="matrix(1.05785 0 0 2.35653 -35.2055 -437.475)"/><path d="m385.28 332.878c0-1.029-.91-2.015-2.53-2.742s-3.817-1.136-6.108-1.136h-.004c-2.291 0-4.488.409-6.108 1.136s-2.53 1.713-2.53 2.742v13.402h17.28z" transform="matrix(1.05785 0 0 2.35653 8.16641 -437.475)"/><path d="m385.28 332.878c0-1.029-.91-2.015-2.53-2.742s-3.817-1.136-6.108-1.136h-.004c-2.291 0-4.488.409-6.108 1.136s-2.53 1.713-2.53 2.742v13.402h17.28z" transform="matrix(1.05785 0 0 2.35653 51.5383 -437.475)"/><path d="m385.28 332.878c0-1.029-.91-2.015-2.53-2.742s-3.817-1.136-6.108-1.136h-.004c-2.291 0-4.488.409-6.108 1.136s-2.53 1.713-2.53 2.742v13.402h17.28z" transform="matrix(1.05785 0 0 2.35653 -336.397 -437.475)"/><path d="m385.28 332.878c0-1.029-.91-2.015-2.53-2.742s-3.817-1.136-6.108-1.136h-.004c-2.291 0-4.488.409-6.108 1.136s-2.53 1.713-2.53 2.742v13.402h17.28z" transform="matrix(1.05785 0 0 2.35653 -293.025 -437.475)"/><path d="m385.28 332.878c0-1.029-.91-2.015-2.53-2.742s-3.817-1.136-6.108-1.136h-.004c-2.291 0-4.488.409-6.108 1.136s-2.53 1.713-2.53 2.742v13.402h17.28z" transform="matrix(1.05785 0 0 2.35653 -249.653 -437.475)"/><path d="m385.28 332.878c0-1.029-.91-2.015-2.53-2.742s-3.817-1.136-6.108-1.136h-.004c-2.291 0-4.488.409-6.108 1.136s-2.53 1.713-2.53 2.742v13.402h17.28z" transform="matrix(-1.05785 0 0 -2.35653 547.205 949.475)"/><path d="m385.28 332.878c0-1.029-.91-2.015-2.53-2.742s-3.817-1.136-6.108-1.136h-.004c-2.291 0-4.488.409-6.108 1.136s-2.53 1.713-2.53 2.742v13.402h17.28z" transform="matrix(-1.05785 0 0 -2.35653 503.834 949.475)"/><path d="m385.28 332.878c0-1.029-.91-2.015-2.53-2.742s-3.817-1.136-6.108-1.136h-.004c-2.291 0-4.488.409-6.108 1.136s-2.53 1.713-2.53 2.742v13.402h17.28z" transform="matrix(-1.05785 0 0 -2.35653 460.462 949.475)"/><path d="m385.28 332.878c0-1.029-.91-2.015-2.53-2.742s-3.817-1.136-6.108-1.136h-.004c-2.291 0-4.488.409-6.108 1.136s-2.53 1.713-2.53 2.742v13.402h17.28z" transform="matrix(-1.05785 0 0 -2.35653 848.397 949.475)"/><path d="m385.28 332.878c0-1.029-.91-2.015-2.53-2.742s-3.817-1.136-6.108-1.136h-.004c-2.291 0-4.488.409-6.108 1.136s-2.53 1.713-2.53 2.742v13.402h17.28z" transform="matrix(-1.05785 0 0 -2.35653 805.025 949.475)"/><path d="m385.28 332.878c0-1.029-.91-2.015-2.53-2.742s-3.817-1.136-6.108-1.136h-.004c-2.291 0-4.488.409-6.108 1.136s-2.53 1.713-2.53 2.742v13.402h17.28z" transform="matrix(-1.05785 0 0 -2.35653 761.653 949.475)"/></g><g transform="matrix(1.58983 0 0 1.6301 -74.9235 -161.306)"><circle cx="113" cy="256" fill="#e66662" r="11"/><path d="m113.142 245.001.142.003.141.004.141.006.14.008.14.01.139.012.139.013.138.015.138.016.137.019.137.02.136.022.136.023.135.025.135.027.134.028.133.03.133.031.132.034.131.034.131.037.13.037.13.04.128.041.128.042.128.044.127.046.126.047.125.049.124.05.124.051.123.053.122.054.122.056.12.057.12.059.119.06.118.062.117.062.117.065.116.065.114.067.114.068.113.07.112.071.111.072.11.074.11.075.108.076.107.077.107.079.105.079.105.081.103.083.102.083.102.085.1.086.099.087.099.088.097.089.096.091.095.092.094.092.092.094.092.095.091.096.089.097.088.099.087.099.086.1.085.102.083.102.083.103.081.105.079.105.079.107.077.107.076.108.075.11.074.11.072.111.071.112.07.113.068.114.067.114.065.116.065.117.062.117.062.118.06.119.059.12.057.12.056.122.054.122.053.123.051.124.05.124.049.125.047.126.046.127.044.128.042.128.041.128.04.13.037.13.037.131.034.131.034.132.031.133.03.133.028.134.027.135.025.135.023.136.022.136.02.137.019.137.016.138.015.138.013.139.012.139.01.14.008.14.006.141.004.141.003.142.001.142-.001.142-.003.142-.004.141-.006.141-.008.14-.01.14-.012.139-.013.139-.015.138-.016.138-.019.137-.02.137-.022.136-.023.136-.025.135-.027.135-.028.134-.03.133-.031.133-.034.132-.034.131-.037.131-.037.13-.04.13-.041.128-.042.128-.044.128-.046.127-.047.126-.049.125-.05.124-.051.124-.053.123-.054.122-.056.122-.057.12-.059.12-.06.119-.062.118-.062.117-.065.117-.065.116-.067.114-.068.114-.07.113-.071.112-.072.111-.074.11-.075.11-.076.108-.077.107-.079.107-.079.105-.081.105-.083.103-.083.102-.085.102-.086.1-.087.099-.088.099-.089.097-.091.096-.092.095-.092.094-.094.092-.095.092-.096.091-.097.089-.099.088-.099.087-.1.086-.102.085-.102.083-.103.083-.105.081-.105.079-.107.079-.107.077-.108.076-.11.075-.11.074-.111.072-.112.071-.113.07-.114.068-.114.067-.116.065-.117.065-.117.062-.118.062-.119.06-.12.059-.12.057-.122.056-.122.054-.123.053-.124.051-.124.05-.125.049-.126.047-.127.046-.128.044-.128.042-.128.041-.13.04-.13.037-.131.037-.131.034-.132.034-.133.031-.133.03-.134.028-.135.027-.135.025-.136.023-.136.022-.137.02-.137.019-.138.016-.138.015-.139.013-.139.012-.14.01-.14.008-.141.006-.141.004-.142.003-.142.001-.142-.001-.142-.003-.141-.004-.141-.006-.14-.008-.14-.01-.139-.012-.139-.013-.138-.015-.138-.016-.137-.019-.137-.02-.136-.022-.136-.023-.135-.025-.135-.027-.134-.028-.133-.03-.133-.031-.132-.034-.131-.034-.131-.037-.13-.037-.13-.04-.128-.041-.128-.042-.128-.044-.127-.046-.126-.047-.125-.049-.124-.05-.124-.051-.123-.053-.122-.054-.122-.056-.12-.057-.12-.059-.119-.06-.118-.062-.117-.062-.117-.065-.116-.065-.114-.067-.114-.068-.113-.07-.112-.071-.111-.072-.11-.074-.11-.075-.108-.076-.107-.077-.107-.079-.105-.079-.105-.081-.103-.083-.102-.083-.102-.085-.1-.086-.099-.087-.099-.088-.097-.089-.096-.091-.095-.092-.094-.092-.092-.094-.092-.095-.091-.096-.089-.097-.088-.099-.087-.099-.086-.1-.085-.102-.083-.102-.083-.103-.081-.105-.079-.105-.079-.107-.077-.107-.076-.108-.075-.11-.074-.11-.072-.111-.071-.112-.07-.113-.068-.114-.067-.114-.065-.116-.065-.117-.062-.117-.062-.118-.06-.119-.059-.12-.057-.12-.056-.122-.054-.122-.053-.123-.051-.124-.05-.124-.049-.125-.047-.126-.046-.127-.044-.128-.042-.128-.041-.128-.04-.13-.037-.13-.037-.131-.034-.131-.034-.132-.031-.133-.03-.133-.028-.134-.027-.135-.025-.135-.023-.136-.022-.136-.02-.137-.019-.137-.016-.138-.015-.138-.013-.139-.012-.139-.01-.14-.008-.14-.006-.141-.004-.141-.003-.142-.001-.142.001-.142.003-.142.004-.141.006-.141.008-.14.01-.14.012-.139.013-.139.015-.138.016-.138.019-.137.02-.137.022-.136.023-.136.025-.135.027-.135.028-.134.03-.133.031-.133.034-.132.034-.131.037-.131.037-.13.04-.13.041-.128.042-.128.044-.128.046-.127.047-.126.049-.125.05-.124.051-.124.053-.123.054-.122.056-.122.057-.12.059-.12.06-.119.062-.118.062-.117.065-.117.065-.116.067-.114.068-.114.07-.113.071-.112.072-.111.074-.11.075-.11.076-.108.077-.107.079-.107.079-.105.081-.105.083-.103.083-.102.085-.102.086-.1.087-.099.088-.099.089-.097.091-.096.092-.095.092-.094.094-.092.095-.092.096-.091.097-.089.099-.088.099-.087.1-.086.102-.085.102-.083.103-.083.105-.081.105-.079.107-.079.107-.077.108-.076.11-.075.11-.074.111-.072.112-.071.113-.07.114-.068.114-.067.116-.065.117-.065.117-.062.118-.062.119-.06.12-.059.12-.057.122-.056.122-.054.123-.053.124-.051.124-.05.125-.049.126-.047.127-.046.128-.044.128-.042.128-.041.13-.04.13-.037.131-.037.131-.034.132-.034.133-.031.133-.03.134-.028.135-.027.135-.025.136-.023.136-.022.137-.02.137-.019.138-.016.138-.015.139-.013.139-.012.14-.01.14-.008.141-.006.141-.004.142-.003.142-.001zm-.252 2.428-.109.002-.109.004-.108.004-.108.007-.108.007-.107.009-.107.01-.106.012-.106.012-.105.014-.105.016-.105.017-.104.017-.104.02-.103.02-.103.022-.102.023-.102.024-.101.025-.101.027-.1.028-.1.029-.1.03-.098.032-.098.032-.099.034-.097.035-.096.036-.097.037-.096.039-.095.04-.094.04-.094.042-.094.043-.093.044-.092.046-.092.046-.091.047-.091.049-.089.049-.089.051-.089.052-.088.052-.087.054-.087.055-.086.056-.085.057-.085.057-.084.059-.083.06-.082.061-.082.062-.081.063-.08.064-.08.065-.078.065-.079.067-.077.068-.076.069-.076.069-.074.07-.074.071-.073.073-.072.073-.072.074-.07.075-.07.076-.069.076-.067.077-.067.078-.066.079-.066.08-.064.081-.063.081-.062.083-.061.082-.061.084-.059.085-.058.085-.058.086-.056.087-.055.087-.055.088-.053.089-.052.09-.051.09-.051.091-.049.091-.048.093-.047.093-.045.093-.045.094-.044.095-.042.096-.041.095-.041.097-.039.098-.038.097-.036.098-.036.1-.035.099-.033.1-.032.101-.031.101-.029.102-.028.102-.027.102-.027.104-.024.104-.024.104-.022.105-.021.106-.019.105-.018.106-.018.107-.015.107-.015.108-.013.108-.011.109-.011.109-.009.109-.008.11-.006.11-.005.112-.003.11-.002.112-.001.112.001.112.002.112.003.11.005.112.006.11.008.11.009.109.011.109.011.109.013.108.015.108.015.107.018.107.018.106.019.105.021.106.022.105.024.104.024.104.027.104.027.102.028.102.029.102.031.101.032.101.033.1.035.099.036.1.036.098.038.098.039.097.041.097.041.095.042.096.044.095.045.094.045.093.047.093.048.093.049.091.051.091.051.09.052.09.053.089.055.088.055.087.056.087.058.086.058.085.059.085.061.084.061.082.062.083.063.081.064.081.066.08.066.079.067.078.067.077.069.076.07.076.07.075.072.074.072.073.073.072.074.072.074.07.076.069.076.069.077.068.079.067.078.065.08.065.08.064.081.063.082.062.082.061.083.06.084.059.084.057.086.057.086.056.087.055.087.054.088.052.089.052.089.051.089.049.091.049.091.047.092.046.092.046.093.044.093.043.095.042.094.04.095.04.096.039.097.037.096.036.097.035.099.034.098.032.099.032.099.03.1.029.1.028.101.027.101.025.102.024.102.023.103.022.103.02.104.02.104.017.105.017.105.016.105.014.106.012.106.012.107.01.107.009.108.007.108.007.108.004.109.004.109.002.11.001.11-.001.109-.002.109-.004.108-.004.108-.007.108-.007.107-.009.107-.01.106-.012.106-.012.105-.014.106-.016.104-.017.104-.017.104-.02.103-.02.103-.022.102-.023.102-.024.101-.025.101-.027.1-.028.1-.029.099-.03.099-.032.099-.032.098-.034.097-.035.096-.036.097-.037.096-.039.095-.04.094-.04.095-.042.093-.043.093-.044.092-.046.092-.046.091-.047.09-.049.09-.049.09-.051.088-.052.088-.052.087-.054.087-.055.086-.056.085-.057.085-.058.084-.059.083-.059.082-.061.082-.062.081-.063.081-.064.079-.065.078-.065.079-.067.077-.068.076-.068.075-.07.075-.071.074-.071.073-.072.072-.073.072-.074.07-.075.07-.076.069-.076.067-.077.067-.078.066-.079.066-.08.064-.081.063-.081.062-.082.062-.084.06-.083.059-.085.058-.085.058-.086.056-.086.056-.088.054-.088.053-.089.052-.09.051-.09.051-.091.049-.091.048-.093.047-.093.046-.093.044-.094.044-.095.042-.095.042-.097.04-.096.039-.097.038-.098.036-.098.036-.1.035-.099.033-.1.032-.101.03-.101.03-.102.028-.102.028-.103.026-.103.024-.104.024-.104.022-.105.021-.105.019-.106.019-.106.017-.107.015-.107.015-.108.013-.108.011-.109.011-.109.009-.109.008-.11.006-.11.005-.111.003-.111.002-.112.001-.112-.001-.112-.002-.112-.003-.111-.005-.111-.006-.11-.008-.11-.009-.109-.011-.109-.011-.109-.013-.108-.015-.108-.015-.107-.017-.106-.019-.107-.019-.106-.021-.105-.022-.105-.024-.104-.024-.104-.026-.103-.028-.103-.028-.102-.03-.102-.03-.101-.032-.101-.033-.1-.035-.099-.036-.1-.036-.098-.038-.097-.039-.098-.04-.096-.042-.097-.042-.095-.044-.095-.044-.094-.046-.093-.047-.093-.048-.093-.049-.091-.051-.091-.051-.09-.052-.09-.053-.089-.054-.088-.056-.088-.056-.086-.058-.086-.058-.085-.059-.085-.06-.083-.062-.084-.062-.082-.063-.081-.064-.081-.066-.08-.066-.079-.067-.078-.067-.077-.069-.076-.07-.076-.07-.075-.072-.074-.072-.073-.073-.072-.074-.071-.075-.071-.075-.07-.076-.068-.077-.068-.079-.067-.078-.065-.08-.065-.08-.064-.081-.063-.082-.062-.082-.061-.083-.059-.084-.059-.085-.058-.085-.057-.086-.056-.087-.055-.087-.054-.088-.052-.088-.052-.09-.051-.09-.049-.09-.049-.091-.047-.092-.046-.092-.046-.093-.044-.094-.043-.094-.042-.094-.04-.095-.04-.096-.039-.097-.037-.096-.036-.097-.035-.098-.034-.099-.032-.098-.032-.1-.03-.1-.029-.1-.028-.101-.027-.101-.025-.102-.024-.102-.023-.103-.022-.103-.02-.104-.02-.104-.017-.105-.017-.105-.016-.105-.014-.106-.012-.106-.012-.107-.01-.107-.009-.108-.007-.108-.007-.108-.004-.109-.004-.109-.002-.11-.001z" fill="#818181"/></g><g transform="matrix(-1.58983 0 0 -1.6301 586.924 673.306)"><circle cx="113" cy="256" fill="#62e665" r="11"/><path d="m112.858 266.999-.142-.003-.141-.004-.141-.006-.14-.008-.14-.01-.139-.012-.139-.013-.138-.015-.138-.016-.137-.019-.137-.02-.136-.022-.136-.023-.135-.025-.135-.027-.134-.028-.133-.03-.133-.031-.132-.034-.131-.034-.131-.037-.13-.037-.13-.04-.128-.041-.128-.042-.128-.044-.127-.046-.126-.047-.125-.049-.124-.05-.124-.051-.123-.053-.122-.054-.122-.056-.12-.057-.12-.059-.119-.06-.118-.062-.117-.062-.117-.065-.116-.065-.114-.067-.114-.068-.113-.07-.112-.071-.111-.072-.11-.074-.11-.075-.108-.076-.107-.077-.107-.079-.105-.079-.105-.081-.103-.083-.102-.083-.102-.085-.1-.086-.099-.087-.099-.088-.097-.089-.096-.091-.095-.092-.094-.092-.092-.094-.092-.095-.091-.096-.089-.097-.088-.099-.087-.099-.086-.1-.085-.102-.083-.102-.083-.103-.081-.105-.079-.105-.079-.107-.077-.107-.076-.108-.075-.11-.074-.11-.072-.111-.071-.112-.07-.113-.068-.114-.067-.114-.065-.116-.065-.117-.062-.117-.062-.118-.06-.119-.059-.12-.057-.12-.056-.122-.054-.122-.053-.123-.051-.124-.05-.124-.049-.125-.047-.126-.046-.127-.044-.128-.042-.128-.041-.128-.04-.13-.037-.13-.037-.131-.034-.131-.034-.132-.031-.133-.03-.133-.028-.134-.027-.135-.025-.135-.023-.136-.022-.136-.02-.137-.019-.137-.016-.138-.015-.138-.013-.139-.012-.139-.01-.14-.008-.14-.006-.141-.004-.141-.003-.142-.001-.142.001-.142.003-.142.004-.141.006-.141.008-.14.01-.14.012-.139.013-.139.015-.138.016-.138.019-.137.02-.137.022-.136.023-.136.025-.135.027-.135.028-.134.03-.133.031-.133.034-.132.034-.131.037-.131.037-.13.04-.13.041-.128.042-.128.044-.128.046-.127.047-.126.049-.125.05-.124.051-.124.053-.123.054-.122.056-.122.057-.12.059-.12.06-.119.062-.118.062-.117.065-.117.065-.116.067-.114.068-.114.07-.113.071-.112.072-.111.074-.11.075-.11.076-.108.077-.107.079-.107.079-.105.081-.105.083-.103.083-.102.085-.102.086-.1.087-.099.088-.099.089-.097.091-.096.092-.095.092-.094.094-.092.095-.092.096-.091.097-.089.099-.088.099-.087.1-.086.102-.085.102-.083.103-.083.105-.081.105-.079.107-.079.107-.077.108-.076.11-.075.11-.074.111-.072.112-.071.113-.07.114-.068.114-.067.116-.065.117-.065.117-.062.118-.062.119-.06.12-.059.12-.057.122-.056.122-.054.123-.053.124-.051.124-.05.125-.049.126-.047.127-.046.128-.044.128-.042.128-.041.13-.04.13-.037.131-.037.131-.034.132-.034.133-.031.133-.03.134-.028.135-.027.135-.025.136-.023.136-.022.137-.02.137-.019.138-.016.138-.015.139-.013.139-.012.14-.01.14-.008.141-.006.141-.004.142-.003.142-.001.142.001.142.003.141.004.141.006.14.008.14.01.139.012.139.013.138.015.138.016.137.019.137.02.136.022.136.023.135.025.135.027.134.028.133.03.133.031.132.034.131.034.131.037.13.037.13.04.128.041.128.042.128.044.127.046.126.047.125.049.124.05.124.051.123.053.122.054.122.056.12.057.12.059.119.06.118.062.117.062.117.065.116.065.114.067.114.068.113.07.112.071.111.072.11.074.11.075.108.076.107.077.107.079.105.079.105.081.103.083.102.083.102.085.1.086.099.087.099.088.097.089.096.091.095.092.094.092.092.094.092.095.091.096.089.097.088.099.087.099.086.1.085.102.083.102.083.103.081.105.079.105.079.107.077.107.076.108.075.11.074.11.072.111.071.112.07.113.068.114.067.114.065.116.065.117.062.117.062.118.06.119.059.12.057.12.056.122.054.122.053.123.051.124.05.124.049.125.047.126.046.127.044.128.042.128.041.128.04.13.037.13.037.131.034.131.034.132.031.133.03.133.028.134.027.135.025.135.023.136.022.136.02.137.019.137.016.138.015.138.013.139.012.139.01.14.008.14.006.141.004.141.003.142.001.142-.001.142-.003.142-.004.141-.006.141-.008.14-.01.14-.012.139-.013.139-.015.138-.016.138-.019.137-.02.137-.022.136-.023.136-.025.135-.027.135-.028.134-.03.133-.031.133-.034.132-.034.131-.037.131-.037.13-.04.13-.041.128-.042.128-.044.128-.046.127-.047.126-.049.125-.05.124-.051.124-.053.123-.054.122-.056.122-.057.12-.059.12-.06.119-.062.118-.062.117-.065.117-.065.116-.067.114-.068.114-.07.113-.071.112-.072.111-.074.11-.075.11-.076.108-.077.107-.079.107-.079.105-.081.105-.083.103-.083.102-.085.102-.086.1-.087.099-.088.099-.089.097-.091.096-.092.095-.092.094-.094.092-.095.092-.096.091-.097.089-.099.088-.099.087-.1.086-.102.085-.102.083-.103.083-.105.081-.105.079-.107.079-.107.077-.108.076-.11.075-.11.074-.111.072-.112.071-.113.07-.114.068-.114.067-.116.065-.117.065-.117.062-.118.062-.119.06-.12.059-.12.057-.122.056-.122.054-.123.053-.124.051-.124.05-.125.049-.126.047-.127.046-.128.044-.128.042-.128.041-.13.04-.13.037-.131.037-.131.034-.132.034-.133.031-.133.03-.134.028-.135.027-.135.025-.136.023-.136.022-.137.02-.137.019-.138.016-.138.015-.139.013-.139.012-.14.01-.14.008-.141.006-.141.004-.142.003-.142.001zm.252-2.428.109-.002.109-.004.108-.004.108-.007.108-.007.107-.009.107-.01.106-.012.106-.012.105-.014.105-.016.105-.017.104-.017.104-.02.103-.02.103-.022.102-.023.102-.024.101-.025.101-.027.1-.028.1-.029.1-.03.098-.032.099-.032.098-.034.097-.035.097-.036.096-.038.096-.038.095-.04.094-.04.094-.042.094-.043.093-.044.092-.045.092-.047.091-.047.091-.049.089-.049.089-.051.089-.051.088-.053.088-.054.086-.055.086-.056.085-.057.085-.057.084-.059.083-.061.083-.061.081-.061.081-.063.08-.064.08-.065.079-.066.078-.066.076-.068.077-.069.076-.069.074-.07.074-.071.073-.073.073-.073.071-.074.07-.075.07-.075.068-.077.068-.077.067-.079.066-.078.065-.08.064-.081.064-.081.062-.083.061-.082.061-.084.059-.085.058-.085.058-.086.056-.087.055-.087.055-.088.053-.089.052-.089.051-.091.051-.091.049-.092.048-.092.047-.092.045-.094.045-.094.044-.095.042-.096.041-.095.041-.097.039-.098.038-.097.037-.099.035-.098.034-.1.034-.1.032-.101.031-.101.029-.102.029-.102.027-.103.025-.103.025-.104.024-.104.022-.105.021-.106.019-.105.019-.106.017-.107.015-.107.015-.108.013-.108.011-.108.011-.11.009-.109.008-.11.006-.11.005-.111.003-.111.002-.112.001-.112-.001-.112-.002-.112-.003-.111-.005-.111-.006-.11-.008-.11-.009-.109-.011-.11-.011-.108-.013-.108-.015-.108-.015-.107-.017-.107-.019-.106-.019-.105-.021-.106-.022-.105-.024-.104-.025-.104-.025-.103-.027-.103-.029-.102-.029-.102-.031-.101-.032-.101-.034-.1-.034-.1-.035-.098-.037-.099-.038-.098-.039-.097-.041-.097-.041-.095-.042-.096-.044-.095-.045-.094-.045-.094-.047-.092-.048-.092-.049-.092-.051-.091-.051-.091-.052-.089-.053-.089-.055-.088-.055-.087-.056-.087-.058-.086-.058-.085-.059-.085-.061-.084-.061-.082-.062-.083-.064-.081-.064-.081-.065-.08-.066-.078-.067-.079-.068-.077-.068-.077-.07-.075-.07-.075-.071-.074-.073-.073-.073-.072-.074-.072-.074-.07-.076-.069-.077-.069-.076-.068-.078-.066-.079-.066-.08-.065-.08-.064-.081-.063-.081-.061-.083-.061-.083-.061-.084-.059-.085-.057-.085-.057-.086-.056-.086-.055-.088-.054-.088-.053-.089-.051-.089-.051-.089-.049-.091-.049-.091-.047-.092-.047-.092-.045-.093-.044-.094-.043-.094-.042-.094-.04-.095-.04-.096-.038-.096-.038-.097-.036-.097-.035-.098-.034-.099-.032-.099-.032-.099-.03-.1-.029-.1-.028-.101-.027-.101-.025-.102-.024-.102-.023-.103-.022-.103-.02-.104-.02-.104-.017-.105-.017-.105-.016-.105-.014-.106-.012-.106-.012-.107-.01-.107-.009-.108-.007-.108-.007-.108-.004-.109-.004-.109-.002-.11-.001-.11.001-.109.002-.109.004-.108.004-.108.007-.108.007-.107.009-.107.01-.106.012-.106.012-.105.014-.106.016-.104.017-.104.017-.104.02-.103.02-.103.022-.102.023-.102.024-.101.025-.101.027-.1.028-.1.029-.099.03-.099.032-.099.032-.097.034-.098.035-.097.036-.096.038-.096.038-.095.04-.094.04-.094.042-.094.043-.093.044-.092.045-.092.047-.091.047-.09.049-.09.049-.09.051-.088.052-.088.052-.087.054-.087.055-.086.056-.085.057-.085.058-.084.059-.083.059-.082.061-.082.062-.081.063-.081.064-.079.065-.079.065-.077.067-.078.068-.076.069-.075.069-.075.071-.074.071-.073.072-.073.073-.071.074-.07.075-.07.075-.068.077-.069.077-.066.079-.066.078-.066.08-.064.081-.063.081-.062.082-.061.083-.061.084-.059.085-.059.085-.057.086-.056.086-.055.088-.055.088-.053.089-.052.09-.052.09-.05.091-.049.091-.048.093-.047.092-.046.094-.044.095-.044.094-.042.095-.041.096-.041.097-.039.097-.038.098-.037.099-.035.099-.034.099-.034.1-.032.101-.03.101-.03.102-.029.102-.027.103-.025.103-.025.104-.024.105-.022.104-.021.105-.019.106-.019.106-.017.107-.015.107-.015.108-.013.108-.012.109-.01.109-.009.109-.008.11-.006.111-.005.11-.003.111-.002.112-.001.112.001.112.002.112.003.111.005.11.006.111.008.11.009.109.01.109.012.109.013.108.015.108.015.107.017.106.019.107.019.106.021.105.022.104.024.105.025.104.025.103.027.103.029.102.03.102.03.101.032.101.034.1.034.099.035.099.037.099.038.097.039.098.041.097.041.096.042.095.044.094.044.095.047.094.046.092.048.093.049.091.05.091.052.09.052.09.053.089.055.088.055.088.056.086.057.086.059.085.059.085.061.084.061.083.062.082.063.081.065.081.065.08.066.078.066.078.069.078.068.077.07.075.07.075.071.074.073.073.073.073.074.07.075.071.075.069.076.069.078.068.077.067.079.065.08.065.08.064.081.063.082.062.082.061.083.059.084.059.085.058.085.057.086.056.087.055.087.054.088.052.088.052.09.051.09.049.09.049.091.047.092.047.092.045.093.044.094.043.094.042.094.04.095.04.096.038.096.038.097.036.098.035.097.034.099.032.099.032.099.03.1.029.1.028.101.027.101.025.102.024.102.023.103.022.103.02.104.02.104.017.105.017.105.016.105.014.106.012.106.012.107.01.107.009.108.007.108.007.108.004.109.004.109.002.11.001z" fill="#818181"/></g></g></g></svg>