<?xml version="1.0" encoding="UTF-8" standalone="no"?>
<!DOCTYPE svg PUBLIC "-//W3C//DTD SVG 1.1//EN" "http://www.w3.org/Graphics/SVG/1.1/DTD/svg11.dtd">
<svg width="100%" height="100%" viewBox="0 0 300 86" version="1.1" xmlns="http://www.w3.org/2000/svg" xmlns:xlink="http://www.w3.org/1999/xlink" xml:space="preserve" xmlns:serif="http://www.serif.com/" style="fill-rule:evenodd;clip-rule:evenodd;stroke-linejoin:round;stroke-miterlimit:1.41421;">
    <g id="NAME-BOX" serif:id="NAME BOX" transform="matrix(1.03046,0,0,1.03046,-117.141,-28.9604)">
        <g id="Shape-7" serif:id="Shape 7">
            <path d="M120.467,41.547L136.457,30.057L398.109,30.057L398.109,45.227L395.116,50.305L395.116,93.566L400.234,98.645L394.195,109.609L346.82,109.609L343.472,104.344L147.309,104.344L118.254,77.977L120.467,41.547Z" style="fill:rgb(39,38,38);"/>
            <path d="M398.109,45.227L395.116,50.305L395.116,93.566L400.234,98.645L394.195,109.609L346.82,109.609L343.472,104.344L147.309,104.344L118.254,77.977L120.467,41.547L136.457,30.057L398.109,30.057L398.109,45.227ZM137.043,31.876L122.231,42.52L120.123,77.216L148.011,102.524L343.472,102.524L344.07,102.625L344.601,102.917L345.007,103.368L347.819,107.79L393.119,107.79L397.977,98.969L393.835,94.858L393.437,94.266L393.297,93.566L393.297,50.305L393.361,49.826L393.549,49.381L396.289,44.73L396.289,31.876L137.043,31.876Z" style="fill:rgb(133,134,133);"/>
        </g>
        <g id="Shape-8" serif:id="Shape 8" transform="matrix(1.71444,0,0,1,-110.727,-2.66454e-15)">
            <rect x="154.984" y="76.512" width="135.016" height="15.488" style="fill:rgb(133,133,133);"/>
        </g>
        <g transform="matrix(0.970437,0,0,0.970437,35.3041,20.5238)">
            <path d="M234.342,21.1L234.342,26.252L123.342,26.252L123.342,21.1L234.342,21.1ZM317.342,21.1L317.342,26.252L242.598,26.252L242.598,21.1L317.342,21.1ZM361.342,21.1L361.342,26.252L325.598,26.252L325.598,21.1L361.342,21.1Z" style="fill:rgb(133,134,133);"/>
        </g>
    </g>
</svg>
