<svg
  width="100%"
  height="100%"
  viewBox="0 0 1 37"
  version="1.1"
  xmlns="http://www.w3.org/2000/svg"
  xmlns:xlink="http://www.w3.org/1999/xlink"
  xml:space="preserve"
  style="fill-rule:evenodd;clip-rule:evenodd;stroke-linejoin:round;stroke-miterlimit:1.41421;"
>
  <path
    d="M0,34l0,1l1,0l0,-1l-1,0ZM1,32l-1,0l0,1l1,0l0,-1ZM1,28l-1,0l0,1l1,0l0,-1ZM1,22l-1,0l0,1l1,0l0,-1ZM1,14l-1,0l0,1l1,0l0,-1ZM1,8l-1,0l0,1l1,0l0,-1ZM1,4l-1,0l0,1l1,0l0,-1ZM1,2l-1,0l0,1l1,0l0,-1Z"
    style="fill:#484848;"
  />
</svg>
