<svg clip-rule="evenodd" fill-rule="evenodd" stroke-linejoin="round" stroke-miterlimit="1.41421" viewBox="0 0 488 415" xmlns="http://www.w3.org/2000/svg"><path d="m387 641h210l22-22v-29h2v-351h-7v-59h1v-3h-520v-1h521v60h1.5l1.5-1v-62h-320l-4-5v-5h2l4 3h324v69l-2 4h-1v351h3v29l-1 2-25 25h-212zm-305-478h213v5h-209.009l-22.991 22.991v28.009h-3v351h8v59h-1v3h520v1h-521v-60h-3v58.422c0 1.214.482 2.378 1.341 3.237s2.023 1.341 3.237 1.341h315.422l4 5v5h-2l-3-3h-316.94c-4.452 0-8.06-3.608-8.06-8.06v-61.93-.01h.01l1.99-1.99v-352.01h-2v-29.802l.446-1.039.062-.161z" fill="#2ba1cb" transform="matrix(.859213 0 0 .859213 -48.9752 -140.052)"/></svg>