<svg clip-rule="evenodd" fill-rule="evenodd" stroke-linejoin="round" stroke-miterlimit="1.41421" viewBox="0 0 57 12" xmlns="http://www.w3.org/2000/svg"><path d="m54.853.047c1.052.02 1.995.964 2.015 2.06v6.836s-.028.201-.171.313l-4.188 2.642c-.112.057-.148.051-.189.055-12.541 0-24.505.059-37.045.045-.406-.001-1.387-.412-1.793-.413-3.822-.006-7.676.024-11.498 0-1.052-.02-1.964-.582-1.984-1.692v-6.836s.028-.201.171-.313l4.188-2.642c.112-.057.148-.051.189-.055 16.769 0 33.537-.106 50.305 0zm-13.076.691c-12.375-.013-24.751.045-37.127.045l-3.319 2.094v6.684l-.381.759v-7.203l-.23.145c0 2.213-.04 4.426 0 6.639.008.251.092.491.228.695h51.142l-.749.222h-50.212c.036.036.073.069.112.101h12.639l1.066.298h37.271l3.303-2.083v-6.6l.382-.758v7.117l.246-.155c0-2.213.039-4.426-.001-6.639-.008-.263-.099-.515-.247-.726h-51.215l.748-.222h50.276c-.038-.036-.077-.069-.119-.101h-12.696l-1.117-.312z" fill="#cc7926" fill-rule="nonzero"/></svg>