<?xml version="1.0" encoding="UTF-8" standalone="no"?>
<!DOCTYPE svg PUBLIC "-//W3C//DTD SVG 1.1//EN" "http://www.w3.org/Graphics/SVG/1.1/DTD/svg11.dtd">
<svg width="100%" height="100%" viewBox="0 0 80 80" version="1.1" xmlns="http://www.w3.org/2000/svg" xmlns:xlink="http://www.w3.org/1999/xlink" xml:space="preserve" style="fill-rule:evenodd;clip-rule:evenodd;stroke-linejoin:round;stroke-miterlimit:1.41421;">
    <g transform="matrix(1,0,0,1,-1590,-634)">
        <path d="M1622,644.044L1622,642L1638,642L1638,644.044C1648.68,646.894 1657.11,655.315 1659.96,666L1662,666L1662,682L1659.96,682C1657.11,692.685 1648.68,701.106 1638,703.956L1638,706L1622,706L1622,703.956C1611.32,701.106 1602.89,692.685 1600.04,682L1598,682L1598,666L1600.04,666C1602.89,655.315 1611.32,646.894 1622,644.044ZM1636,704L1636,696L1624,696L1624,704L1636,704ZM1626,698L1630,698L1630,702L1626,702L1626,698ZM1602.12,682C1604.87,691.579 1612.42,699.133 1622,701.881L1622,682L1602.12,682ZM1657.88,682L1638,682L1638,701.881C1647.58,699.133 1655.13,691.579 1657.88,682ZM1624,690L1624,692L1636,692L1636,690L1624,690ZM1624,686L1624,688L1636,688L1636,686L1624,686ZM1636,662L1624,662L1624,668L1612,668L1612,680L1624,680L1624,684L1636,684L1636,680L1648,680L1648,668L1636,668L1636,662ZM1652,668L1652,680L1660,680L1660,668L1652,668ZM1600,668L1600,680L1608,680L1608,668L1600,668ZM1654,674L1658,674L1658,678L1654,678L1654,674ZM1602,670L1606,670L1606,674L1602,674L1602,670ZM1638,646.119L1638,666L1657.88,666C1655.13,656.421 1647.58,648.867 1638,646.119ZM1622,646.119C1612.42,648.867 1604.87,656.421 1602.12,666L1622,666L1622,646.119ZM1624,656L1624,658L1636,658L1636,656L1624,656ZM1624,644L1624,652L1636,652L1636,644L1624,644ZM1626,646L1628,646L1628,650L1626,650L1626,646ZM1632,646L1634,646L1634,650L1632,650L1632,646Z" style="fill:rgb(235,235,235);"/>
    </g>
</svg>
