<?xml version="1.0" encoding="UTF-8" standalone="no"?>
<!DOCTYPE svg PUBLIC "-//W3C//DTD SVG 1.1//EN" "http://www.w3.org/Graphics/SVG/1.1/DTD/svg11.dtd">
<svg width="100%" height="100%" viewBox="0 0 80 80" version="1.1" xmlns="http://www.w3.org/2000/svg" xmlns:xlink="http://www.w3.org/1999/xlink" xml:space="preserve" style="fill-rule:evenodd;clip-rule:evenodd;stroke-linejoin:round;stroke-miterlimit:1.41421;">
    <g transform="matrix(1,0,0,1,-1512,-558)">
        <path d="M1578.67,624L1525.33,624C1522.39,624 1520,621.612 1520,618.67L1520,577.33C1520,574.388 1522.39,572 1525.33,572L1578.67,572C1581.61,572 1584,574.388 1584,577.33L1584,618.67C1584,621.612 1581.61,624 1578.67,624ZM1578.7,575L1525.3,575C1524.03,575 1523,576.031 1523,577.3L1523,580L1524,580L1524,582L1523,582L1523,614L1524,614L1524,616L1523,616L1523,618.7C1523,619.969 1524.03,621 1525.3,621L1578.7,621C1579.97,621 1581,619.969 1581,618.7L1581,616L1580,616L1580,614L1581,614L1581,582L1580,582L1580,580L1581,580L1581,577.3C1581,576.031 1579.97,575 1578.7,575ZM1528,620L1526,620L1526,616L1528,616L1528,620ZM1574,620L1570,620L1570,618L1574,618L1574,620ZM1578,620L1576,620L1576,616L1578,616L1578,620ZM1532,620L1530,620L1530,618L1532,618L1532,620ZM1552,620L1536,620L1536,618L1552,618L1552,620ZM1566,614L1564,614L1564,616L1568,616L1568,618L1554,618L1554,616L1558,616L1558,614L1556,614L1556,612L1566,612L1566,614ZM1542,616L1532,616L1532,614L1534,614L1534,610L1536,610L1536,614L1540,614L1540,612L1542,612L1542,610L1544,610L1544,612L1546,612L1546,610L1548,610L1548,612L1550,612L1550,610L1552,610L1552,614L1542,614L1542,616ZM1554,616L1552,616L1552,614L1554,614L1554,616ZM1572,614L1574,614L1574,616L1568,616L1568,614L1570,614L1570,612L1572,612L1572,614ZM1562,614L1560,614L1560,616L1562,616L1562,614ZM1580,614L1574,614L1574,612L1580,612L1580,614ZM1532,614L1524,614L1524,612L1526,612L1526,608L1528,608L1528,612L1530,612L1530,610L1532,610L1532,614ZM1556,606L1526,606L1526,592L1556,592L1556,606ZM1580,606L1558,606L1558,592L1580,592L1580,606ZM1534,598L1532,598L1532,602L1528,602L1528,604L1534,604L1534,598ZM1578,594L1560,594L1560,604L1578,604L1578,594ZM1554,594L1536,594L1536,604L1554,604L1554,594ZM1552,602L1538,602L1538,600L1552,600L1552,602ZM1566,602L1562,602L1562,596L1566,596L1566,602ZM1576,602L1574,602L1574,598L1576,598L1576,602ZM1534,594L1528,594L1528,600L1530,600L1530,596L1534,596L1534,594ZM1572,600L1568,600L1568,596L1572,596L1572,600ZM1552,598L1538,598L1538,596L1552,596L1552,598ZM1544,586L1542,586L1542,590L1536,590L1536,586L1534,586L1534,584L1544,584L1544,586ZM1524,582L1534,582L1534,584L1532,584L1532,586L1530,586L1530,584L1528,584L1528,588L1526,588L1526,584L1524,584L1524,582ZM1540,586L1538,586L1538,588L1540,588L1540,586ZM1568,582L1580,582L1580,588L1578,588L1578,584L1576,584L1576,588L1574,588L1574,584L1572,584L1572,586L1570,586L1570,584L1566,584L1566,580L1564,580L1564,584L1556,584L1556,580L1552,580L1552,582L1550,582L1550,586L1548,586L1548,582L1546,582L1546,584L1544,584L1544,582L1546,582L1546,580L1552,580L1552,578L1568,578L1568,582ZM1562,580L1558,580L1558,582L1562,582L1562,580ZM1534,576L1538,576L1538,578L1540,578L1540,580L1536,580L1536,578L1534,578L1534,576ZM1548,576L1550,576L1550,578L1548,578L1548,576ZM1544,576L1546,576L1546,578L1544,578L1544,576ZM1526,576L1532,576L1532,578L1526,578L1526,576ZM1572,576L1578,576L1578,578L1572,578L1572,576Z" style="fill:rgb(216,216,216);"/>
    </g>
</svg>
