<?xml version="1.0" encoding="UTF-8" standalone="no"?>
<!DOCTYPE svg PUBLIC "-//W3C//DTD SVG 1.1//EN" "http://www.w3.org/Graphics/SVG/1.1/DTD/svg11.dtd">
<svg width="100%" height="100%" viewBox="0 0 80 80" version="1.1" xmlns="http://www.w3.org/2000/svg" xmlns:xlink="http://www.w3.org/1999/xlink" xml:space="preserve" style="fill-rule:evenodd;clip-rule:evenodd;stroke-linejoin:round;stroke-miterlimit:1.41421;">
    <g transform="matrix(1,0,0,1,-68.8717,-479.071)">
        <path d="M83.808,498.222L83.808,498.222L84.13,497.899L84.101,497.87L90.778,491.192L90.808,491.222L91.222,490.808L107.607,507.192L110.567,507.192L126.899,490.86L127.437,491.398L127.439,491.396L133.936,497.893L133.927,497.902L133.936,497.902L133.936,506.714L133.933,506.714L133.936,506.717L120.4,520.253L133.936,533.789L133.932,533.792L133.932,540.17L133.925,540.17L133.936,540.181L126.782,547.334L126.587,547.138L126.586,547.139L108.968,529.521L91.35,547.139L91.349,547.138L91.153,547.334L84,540.181L84.011,540.17L84.003,540.17L84.003,533.792L84,533.789L98,519.789L98,518.414L83.808,504.222L83.808,504.222L83.808,504.222L83.808,498.222ZM110.434,524.988L109.981,524.988L109.981,527.705L125.936,543.66L125.936,540.489L110.434,524.988ZM107.981,524.988L107.501,524.988L92,540.489L92,543.66L107.981,527.68L107.981,524.988ZM127.936,540.172L127.936,543.352L131.932,539.356L131.932,536.176L127.936,540.172ZM86.003,539.356L90,543.352L90,540.172L86.003,536.176L86.003,539.356ZM86.636,533.981L91.158,538.502L93.767,535.893L89.245,531.372L86.636,533.981ZM124.169,535.893L126.777,538.502L131.299,533.981L128.69,531.372L124.169,535.893ZM90.659,529.958L95.181,534.479L97.672,531.989L94.464,528.782L93.15,527.467L90.659,529.958ZM120.264,531.989L122.754,534.479L127.276,529.958L124.786,527.467L120.264,531.989ZM94.564,526.053L99.086,530.575L101.61,528.05L97.088,523.529L94.564,526.053ZM116.326,528.05L118.85,530.575L123.371,526.053L120.847,523.529L116.326,528.05ZM112.335,524.06L114.911,526.636L119.433,522.114L116.857,519.539L112.335,524.06ZM100.146,518.607L100,518.607L100,520.63L99.987,520.63L98.503,522.114L103.024,526.636L105.6,524.06L100.5,518.96L100.192,518.96L100.192,518.653L100.146,518.607ZM107.607,509.192L102.222,514.577L102.192,514.607L102.192,517.824L107.356,522.988L110.579,522.988L115.935,517.632L115.935,513.83L115.941,513.83L115.935,513.824L131.487,498.273L126.901,493.687L111.39,509.198L111.385,509.192L107.607,509.192ZM109.976,521L108,521L108,519L109.976,519L109.976,521ZM117.935,514.653L117.935,517.789L118.985,518.839L131.936,505.888L131.936,500.652L117.935,514.653ZM114,517L112,517L112,515L114,515L114,517ZM106,517L104,517L104,515L106,515L106,517ZM85.808,503.393L99.021,516.607L100.192,516.607L100.192,514.607L85.808,500.222L85.808,503.393ZM109.976,513L108,513L108,511L109.976,511L109.976,513ZM98.473,510.059L101.192,512.778L105.778,508.192L103.059,505.473L98.473,510.059ZM116,511L114,511L114,509L116,509L116,511ZM94.62,506.205L97.059,508.645L101.645,504.059L99.205,501.62L94.62,506.205ZM120,507L118,507L118,505L120,505L120,507ZM90.327,501.912L93.205,504.791L97.791,500.205L94.912,497.327L90.327,501.912ZM124,503L122,503L122,501L124,501L124,503ZM86.607,498.192L88.912,500.498L93.498,495.912L91.192,493.607L86.607,498.192ZM128,499L126,499L126,497L128,497L128,499Z" style="fill:rgb(216,216,216);"/>
    </g>
</svg>
