<?xml version="1.0" encoding="UTF-8" standalone="no"?>
<!DOCTYPE svg PUBLIC "-//W3C//DTD SVG 1.1//EN" "http://www.w3.org/Graphics/SVG/1.1/DTD/svg11.dtd">
<svg width="100%" height="100%" viewBox="0 0 80 80" version="1.1" xmlns="http://www.w3.org/2000/svg" xmlns:xlink="http://www.w3.org/1999/xlink" xml:space="preserve" style="fill-rule:evenodd;clip-rule:evenodd;stroke-linejoin:round;stroke-miterlimit:1.41421;">
    <g transform="matrix(1,0,0,1,-1435,-561)">
        <path d="M1446,580L1448,580L1448,572L1450,572L1450,580L1452,580L1452,622L1456,622L1456,592L1460,592C1460,592 1460,591.163 1460,589.973C1460,585.57 1463.57,582 1467.97,582C1470.56,582 1473.44,582 1476.03,582C1480.43,582 1484,585.57 1484,589.973C1484,591.163 1484,592 1484,592L1486,592L1486,598L1494,598L1494,596L1499.41,596L1499.41,596.005L1499.41,596L1504,600.585L1504,600.585L1504,626L1494,626L1494,622L1486,622L1486,630L1456,630L1456,624L1452,624L1452,626L1448,626L1448,624L1450,624L1450,580L1448,580L1448,624L1446,624L1446,580ZM1458,594L1458,628L1484,628L1484,594L1458,594ZM1466,614C1469.31,614 1472,616.689 1472,620C1472,623.311 1469.31,626 1466,626C1462.69,626 1460,623.311 1460,620C1460,616.689 1462.69,614 1466,614ZM1472,624L1482,624L1482,626L1472,626L1472,624ZM1496,598L1496,624L1501.98,624L1501.98,601.398L1498.59,598L1496,598ZM1462.55,617.968C1462.2,618.564 1462,619.259 1462,620C1462,622.208 1463.79,624 1466,624C1466.74,624 1467.44,623.798 1468.03,623.446L1462.55,617.968ZM1469.45,622.032C1469.8,621.436 1470,620.741 1470,620C1470,617.792 1468.21,616 1466,616C1465.26,616 1464.56,616.202 1463.97,616.554L1469.45,622.032ZM1474,620L1482,620L1482,622L1474,622L1474,620ZM1498,608L1500,608L1500,622L1498,622L1498,608ZM1486,618L1486,620L1494,620L1494,618L1486,618ZM1476,616L1482,616L1482,618L1476,618L1476,616ZM1486,604L1486,616L1494,616L1494,604L1486,604ZM1478,608L1482,608L1482,610L1478,610L1478,608ZM1472,600L1474,600L1474,596L1476,596L1476,610L1474,610L1474,604L1472,604L1472,600ZM1460,596L1470,596L1470,608L1460,608L1460,598C1460,598 1460,596 1460,596ZM1478,604L1482,604L1482,606L1478,606L1478,604ZM1464,606L1468,606L1468,598L1462,598L1462,602L1464,602L1464,600L1466,600L1466,604L1464,604L1464,606ZM1498,602L1500,602L1500,606L1498,606L1498,602ZM1486,600L1486,602L1494,602L1494,600L1486,600ZM1478,600L1482,600L1482,602L1478,602L1478,600ZM1478,596L1482,596L1482,598L1478,598L1478,596ZM1480.8,586.401C1479.47,587.405 1477.81,588 1476.01,588C1473.42,588 1470.55,588 1467.96,588C1466.17,588 1464.52,587.411 1463.19,586.417C1462.42,587.446 1462,588.701 1462,590C1462,591.148 1462,592 1462,592L1482,592C1482,592 1482,591.148 1482,590C1482,588.695 1481.58,587.433 1480.8,586.401ZM1479.31,584.995C1478.33,584.351 1477.18,584 1476,584C1473.47,584 1470.53,584 1468,584C1466.81,584 1465.65,584.355 1464.67,585.005C1465.65,585.649 1466.8,586 1467.98,586C1470.51,586 1473.45,586 1475.98,586C1477.17,586 1478.33,585.645 1479.31,584.995Z" style="fill:rgb(216,216,216);"/>
    </g>
</svg>
