<?xml version="1.0" encoding="UTF-8" standalone="no"?>
<!DOCTYPE svg PUBLIC "-//W3C//DTD SVG 1.1//EN" "http://www.w3.org/Graphics/SVG/1.1/DTD/svg11.dtd">
<svg width="100%" height="100%" viewBox="0 0 80 80" version="1.1" xmlns="http://www.w3.org/2000/svg" xmlns:xlink="http://www.w3.org/1999/xlink" xml:space="preserve" style="fill-rule:evenodd;clip-rule:evenodd;stroke-linejoin:round;stroke-miterlimit:1.41421;">
    <g transform="matrix(1,0,0,1,-832,-1191)">
        <path d="M862,1225.59L862,1219L866,1219L866,1207L868,1207L868,1219L870,1219L870,1203L872,1203L872,1219L874,1219L874,1205L876,1205L876,1219L878,1219L878,1215L880,1215L880,1219L882,1219L882,1225.62L892,1215.62L892,1207L894,1207L894,1225L893.447,1225L882,1236.45L882,1241L886,1241L886,1243L904,1243L904,1245L886,1245L886,1247L904,1247L904,1249L886,1249L886,1251L882,1251L882,1253C882,1256.31 879.314,1259 876,1259C873.47,1259 870.53,1259 868,1259C864.686,1259 862,1256.31 862,1253L862,1253L862,1251L858,1251L858,1249L840,1249L840,1247L858,1247L858,1245L840,1245L840,1243L858,1243L858,1241L862,1241L862,1238.41L850.586,1227L850,1227L850,1207L852,1207L852,1215.59L862,1225.59ZM880,1251L864,1251L864,1253C864,1254.06 864.421,1255.08 865.171,1255.83C865.921,1256.58 866.938,1257 867.998,1257C870.442,1257 873.556,1257 876,1257C878.209,1257 880,1255.21 880,1253L880,1253L880,1251ZM876,1255L868,1255L868,1253L876,1253L876,1255ZM884,1243L882,1243L882,1249L884,1249L884,1243ZM862,1243L860,1243L860,1249L862,1249L862,1243ZM880,1221L864,1221L864,1249L880,1249L880,1221ZM878,1247L876,1247L876,1225L866,1225L866,1223L878,1223L878,1247ZM870,1247L868,1247L868,1227L870,1227L870,1247ZM874,1247L872,1247L872,1243L874,1243L874,1247ZM874,1239L872,1239L872,1235L874,1235L874,1239ZM852,1225.59L862,1235.59L862,1228.41L852,1218.41L852,1225.59ZM882,1228.45L882,1233.62L892,1223.62L892,1218.45L882,1228.45Z" style="fill:rgb(235,235,235);"/>
    </g>
</svg>
