<?xml version="1.0" encoding="UTF-8" standalone="no"?>
<!DOCTYPE svg PUBLIC "-//W3C//DTD SVG 1.1//EN" "http://www.w3.org/Graphics/SVG/1.1/DTD/svg11.dtd">
<svg width="100%" height="100%" viewBox="0 0 80 80" version="1.1" xmlns="http://www.w3.org/2000/svg" xmlns:xlink="http://www.w3.org/1999/xlink" xml:space="preserve" style="fill-rule:evenodd;clip-rule:evenodd;stroke-linejoin:round;stroke-miterlimit:1.41421;">
    <g transform="matrix(1,0,0,1,-1510,-707.755)">
        <path d="M1554,756L1552,756L1552,766.672L1554,768.672L1554,756ZM1578,742L1568,742L1568,744L1578,744L1578,754L1568,754L1568,756L1578,756L1578,768L1558,768L1558,756L1562,756L1562,752L1558,752L1558,754L1556,754L1556,744L1558,744L1558,746L1562,746L1562,742L1558,742L1558,728L1578,728L1578,742ZM1532,766L1530,766L1530,760L1532,760L1532,766ZM1576,758L1574,758L1574,766L1576,766L1576,758ZM1572,758L1564,758L1564,766L1572,766L1572,758ZM1562,758L1560,758L1560,766L1562,766L1562,758ZM1570,764L1566,764L1566,762L1568,762L1568,760L1570,760L1570,764ZM1534,760L1532,760L1532,756L1534,756L1534,760ZM1530,760L1528,760L1528,756L1530,756L1530,760ZM1526,758L1524,758L1524,756L1526,756L1526,758ZM1528,756L1526,756L1526,754L1528,754L1528,756ZM1532,756L1530,756L1530,754L1532,754L1532,756ZM1538,756L1534,756L1534,754L1538,754L1538,756ZM1566,742L1564,742L1564,748L1558,748L1558,750L1564,750L1564,756L1566,756L1566,742ZM1526,754L1524,754L1524,750L1526,750L1526,754ZM1529,752L1526,749C1526,749 1529,746 1529,746L1530,746L1530,744L1528,744L1528,746L1526,746L1526,744L1528,744L1528,742L1526,742L1526,740L1528,740L1528,738L1530,738L1530,740L1532,740L1532,742L1534,742L1534,744L1532,744L1532,746L1546,746L1546,742L1550,742L1550,728L1550.01,728L1554,724.01L1554,724L1556,724L1556,744L1548,744L1548,746L1551,746L1554,749L1551,752L1548,752L1548,754L1556,754L1556,771.51L1554,771.51L1554,771.5L1550.01,767.51L1550,767.51L1550,756L1546,756L1546,752L1534,752L1534,754L1532,754L1532,752L1530,752L1530,754L1528,754L1528,752L1529,752ZM1576,750L1572.25,750L1572.25,752L1576,752L1576,750ZM1551,749L1550,748C1546.34,748 1533.66,748 1530,748L1529,749C1529,749 1530,750 1530,750C1533.66,750 1546.34,750 1550,750L1551,749C1551,749 1551,749 1551,749ZM1569.88,746L1568,746L1568,750L1569.88,750L1569.88,746ZM1576,746L1572.25,746L1572.25,748L1576,748L1576,746ZM1526,748L1522,748L1522,746L1526,746L1526,748ZM1536,742L1534,742L1534,740L1536,740L1536,742ZM1552,728.839L1552,742L1554,742L1554,726.839L1552,728.839ZM1524,742L1522,742L1522,740L1524,740L1524,742ZM1538,740L1536,740L1536,738L1538,738L1538,740ZM1534,740L1532,740L1532,736L1534,736L1534,740ZM1576,734L1560,734L1560,740L1576,740L1576,738L1570,738L1570,736L1576,736L1576,734ZM1528,738L1526,738L1526,736L1528,736L1528,738ZM1566,738L1562,738L1562,736L1566,736L1566,738ZM1540,738L1538,738L1538,736L1540,736L1540,738ZM1536,736L1534,736L1534,732L1536,732L1536,736ZM1576,730L1560,730L1560,732L1576,732L1576,730Z" style="fill:rgb(216,216,216);"/>
    </g>
</svg>
