<?xml version="1.0" encoding="UTF-8" standalone="no"?>
<!DOCTYPE svg PUBLIC "-//W3C//DTD SVG 1.1//EN" "http://www.w3.org/Graphics/SVG/1.1/DTD/svg11.dtd">
<svg width="100%" height="100%" viewBox="0 0 80 80" version="1.1" xmlns="http://www.w3.org/2000/svg" xmlns:xlink="http://www.w3.org/1999/xlink" xml:space="preserve" style="fill-rule:evenodd;clip-rule:evenodd;stroke-linejoin:round;stroke-miterlimit:1.41421;">
    <g transform="matrix(1,0,0,1,-834,-481.914)">
        <path d="M848.231,554.828L844,550.586L844,495L866,495L866,489L878,489L878,495L899.425,495L904,499.638L904,554.828L848.231,554.828ZM847.243,551L849.243,553L900.414,553L898.414,551L847.243,551ZM900,549.757L902,551.757L902,500.414L900,498.414L900,549.757ZM898,497L846,497L846,549L898,549L898,497ZM872,499C885.246,499 896,509.754 896,523C896,536.246 885.246,547 872,547C858.754,547 848,536.246 848,523C848,509.754 858.754,499 872,499ZM848,543L852,543L852,547L848,547L848,543ZM892,543L896,543L896,547L892,547L892,543ZM872,501C884.142,501 894,510.858 894,523C894,535.142 884.142,545 872,545C859.858,545 850,535.142 850,523C850,510.858 859.858,501 872,501ZM872,503C883.038,503 892,511.962 892,523C892,534.038 883.038,543 872,543C860.962,543 852,534.038 852,523C852,511.962 860.962,503 872,503ZM872,505C881.934,505 890,513.066 890,523C890,532.934 881.934,541 872,541C862.066,541 854,532.934 854,523C854,513.066 862.066,505 872,505ZM872,507C880.831,507 888,514.169 888,523C888,531.831 880.831,539 872,539C863.169,539 856,531.831 856,523C856,514.169 863.169,507 872,507ZM872,509C879.727,509 886,515.273 886,523C886,530.727 879.727,537 872,537C864.273,537 858,530.727 858,523C858,515.273 864.273,509 872,509ZM872,511C878.623,511 884,516.377 884,523C884,529.623 878.623,535 872,535C865.377,535 860,529.623 860,523C860,516.377 865.377,511 872,511ZM872,513C877.519,513 882,517.481 882,523C882,528.519 877.519,533 872,533C866.481,533 862,528.519 862,523C862,517.481 866.481,513 872,513ZM872,515C876.415,515 880,518.585 880,523C880,527.415 876.415,531 872,531C867.585,531 864,527.415 864,523C864,518.585 867.585,515 872,515ZM872,517C875.311,517 878,519.689 878,523C878,526.311 875.311,529 872,529C868.689,529 866,526.311 866,523C866,519.689 868.689,517 872,517ZM872,519C874.208,519 876,520.792 876,523C876,525.208 874.208,527 872,527C869.792,527 868,525.208 868,523C868,520.792 869.792,519 872,519ZM872,521C873.104,521 874,521.896 874,523C874,524.104 873.104,525 872,525C870.896,525 870,524.104 870,523C870,521.896 870.896,521 872,521ZM848,499L852,499L852,503L848,503L848,499ZM892,499L896,499L896,503L892,503L892,499ZM870,491L868,491L868,495L876,495L876,491L874,491L874,493L870,493L870,491Z" style="fill:rgb(235,235,235);"/>
    </g>
</svg>
