<?xml version="1.0" encoding="UTF-8" standalone="no"?>
<!DOCTYPE svg PUBLIC "-//W3C//DTD SVG 1.1//EN" "http://www.w3.org/Graphics/SVG/1.1/DTD/svg11.dtd">
<svg width="100%" height="100%" viewBox="0 0 80 80" version="1.1" xmlns="http://www.w3.org/2000/svg" xmlns:xlink="http://www.w3.org/1999/xlink" xml:space="preserve" style="fill-rule:evenodd;clip-rule:evenodd;stroke-linejoin:round;stroke-miterlimit:1.41421;">
    <g transform="matrix(1,0,0,1,-1202,-634)">
        <path d="M1226,706L1226,642L1258,642L1258,706L1226,706ZM1256,656L1228,656L1228,704L1256,704L1256,656ZM1230,686L1244,686L1244,688L1248,688L1248,694L1246,694L1246,696L1244,696L1244,698L1248,698L1248,702L1246,702L1246,700L1244,700L1244,702L1230,702L1230,686ZM1250,688L1254,688L1254,702L1250,702L1250,688ZM1234,688L1232,688L1232,700L1234,700L1234,698L1236,698L1236,700L1238,700L1238,698L1240,698L1240,700L1242,700L1242,688L1240,688L1240,690L1238,690L1238,688L1236,688L1236,690L1234,690L1234,688ZM1234,692L1236,692L1236,696L1234,696L1234,692ZM1238,692L1240,692L1240,696L1238,696L1238,692ZM1244,690L1244,692L1246,692L1246,690L1244,690ZM1250,670L1254,670L1254,672L1252,672L1252,682L1250,682L1250,684L1230,684L1230,682L1248,682L1248,672L1250,672L1250,670ZM1242,672L1244,672L1244,680L1242,680L1242,672ZM1232,670L1234,670L1234,680L1232,680L1232,670ZM1236,676L1240,676L1240,678L1236,678L1236,676ZM1236,672L1240,672L1240,674L1236,674L1236,672ZM1230,666L1240,666L1240,664L1244,664L1244,666L1254,666L1254,668L1244,668L1244,670L1240,670L1240,668L1230,668L1230,666ZM1230,658L1254,658L1254,662L1238,662L1238,664L1230,664L1230,658ZM1256,644L1228,644L1228,654L1256,654L1256,644ZM1230,646L1238,646L1238,652L1230,652L1230,646ZM1240,646L1242,646L1242,652L1240,652L1240,646ZM1244,648L1246,648L1246,650L1248,650L1248,652L1244,652L1244,648ZM1252,648L1254,648L1254,652L1252,652L1252,650L1250,650L1250,646L1252,646L1252,648Z" style="fill:rgb(235,235,235);"/>
    </g>
</svg>
