<?xml version="1.0" encoding="UTF-8" standalone="no"?>
<!DOCTYPE svg PUBLIC "-//W3C//DTD SVG 1.1//EN" "http://www.w3.org/Graphics/SVG/1.1/DTD/svg11.dtd">
<svg width="100%" height="100%" viewBox="0 0 80 80" version="1.1" xmlns="http://www.w3.org/2000/svg" xmlns:xlink="http://www.w3.org/1999/xlink" xml:space="preserve" style="fill-rule:evenodd;clip-rule:evenodd;stroke-linejoin:round;stroke-miterlimit:1.41421;">
    <g transform="matrix(1,0,0,1,-1124,-708)">
        <path d="M1150,780L1148,780L1148,756L1152,756L1152,752L1156,752L1156,740L1152,740L1152,730L1154,730L1154,738L1156,738L1156,736L1158,736L1158,740L1160,740L1160,742L1158,742L1158,758L1156,758L1156,754L1154,754L1154,762L1152,762L1152,758L1150,758L1150,770L1156,770L1156,764L1158,764L1158,770L1170,770L1170,764L1172,764L1172,770L1178,770L1178,758L1176,758L1176,762L1174,762L1174,754L1172,754L1172,758L1170,758L1170,736L1172,736L1172,738L1174,738L1174,730L1176,730L1176,740L1172,740L1172,752L1176,752L1176,756L1180,756L1180,772L1178,772L1178,774L1180,774L1180,780L1178,780L1178,776L1174,776L1174,780L1172,780L1172,774L1176,774L1176,772L1170,772L1170,780L1168,780L1168,772L1162,772L1162,774L1166,774L1166,780L1164,780L1164,776L1162,776L1162,780L1160,780L1160,776L1156,776L1156,772L1154,772L1154,780L1152,780L1152,772L1150,772L1150,780ZM1160,772L1158,772L1158,774L1160,774L1160,772ZM1166,764L1162,764L1162,762L1166,762L1166,764ZM1174,764L1172,764L1172,762L1174,762L1174,764ZM1156,764L1154,764L1154,762L1156,762L1156,764ZM1162,762L1160,762L1160,760L1162,760L1162,762ZM1168,762L1166,762L1166,760L1168,760L1168,762ZM1160,760L1158,760L1158,758L1160,758L1160,760ZM1170,760L1168,760L1168,758L1170,758L1170,760ZM1168,758L1166,758L1166,756L1168,756L1168,758ZM1162,758L1160,758L1160,756L1162,756L1162,758ZM1166,756L1162,756L1162,754L1166,754L1166,756ZM1168,752L1166,752L1166,750L1168,750L1168,752ZM1162,752L1160,752L1160,750L1162,750L1162,752ZM1168,748L1166,748L1166,746L1168,746L1168,748ZM1164,746L1162,746L1162,744L1164,744L1164,746ZM1168,742L1166,742L1166,740L1168,740L1168,742ZM1166,740L1162,740L1162,738L1166,738L1166,740ZM1162,738L1160,738L1160,736L1162,736L1162,738ZM1168,738L1166,738L1166,736L1168,736L1168,738ZM1160,736L1158,736L1158,734L1160,734L1160,736ZM1170,736L1168,736L1168,734L1170,734L1170,736ZM1162,734L1160,734L1160,732L1162,732L1162,734ZM1168,734L1166,734L1166,732L1168,732L1168,734ZM1166,732L1162,732L1162,730L1166,730L1166,732ZM1174,730L1172,730L1172,728L1170,728L1170,726L1172,726L1172,716L1174,716L1174,730ZM1156,730L1154,730L1154,716L1156,716L1156,726L1158,726L1158,728L1156,728L1156,730ZM1170,726L1168,726L1168,722L1166,722L1166,720L1168,720L1168,716L1170,716L1170,726ZM1160,720L1162,720L1162,722L1160,722L1160,726L1158,726L1158,716L1160,716L1160,720ZM1166,720L1162,720L1162,718L1166,718L1166,720Z" style="fill:rgb(235,235,235);"/>
    </g>
</svg>
