<?xml version="1.0" encoding="UTF-8" standalone="no"?>
<!DOCTYPE svg PUBLIC "-//W3C//DTD SVG 1.1//EN" "http://www.w3.org/Graphics/SVG/1.1/DTD/svg11.dtd">
<svg width="100%" height="100%" viewBox="0 0 80 80" version="1.1" xmlns="http://www.w3.org/2000/svg" xmlns:xlink="http://www.w3.org/1999/xlink" xml:space="preserve" style="fill-rule:evenodd;clip-rule:evenodd;stroke-linejoin:round;stroke-miterlimit:1.41421;">
    <g transform="matrix(1,0,0,1,-832,-1015)">
        <path d="M874,1083L870,1083L870,1082.93C856.139,1081.95 845.051,1070.86 844.071,1057L844,1057L844,1053L844.071,1053C845.051,1039.14 856.139,1028.05 870,1027.07L870,1027L874,1027L874,1027.07C887.861,1028.05 898.949,1039.14 899.929,1053L900,1053L900,1057L899.929,1057C898.949,1070.86 887.861,1081.95 874,1082.93L874,1083ZM856.462,1071.95L855.047,1073.37C859.045,1077.06 864.25,1079.46 870,1079.92L870,1077.91C864.802,1077.46 860.095,1075.28 856.462,1071.95ZM887.538,1071.95C883.905,1075.28 879.198,1077.46 874,1077.91L874,1079.92C879.75,1079.46 884.955,1077.06 888.953,1073.37L887.538,1071.95ZM884.707,1069.12C881.805,1071.73 878.095,1073.47 874,1073.9L874,1075.91C878.647,1075.47 882.855,1073.51 886.122,1070.54L884.707,1069.12ZM859.293,1069.12L857.878,1070.54C861.145,1073.51 865.353,1075.47 870,1075.91L870,1073.9C865.905,1073.47 862.195,1071.73 859.293,1069.12ZM896.921,1057L894.914,1057C894.465,1062.2 892.284,1066.9 888.952,1070.54L890.367,1071.95C894.06,1067.95 896.465,1062.75 896.921,1057ZM849.086,1057L847.079,1057C847.535,1062.75 849.94,1067.95 853.633,1071.95L855.048,1070.54C851.716,1066.9 849.535,1062.2 849.086,1057ZM862.126,1066.29L860.709,1067.7C863.244,1069.96 866.456,1071.47 870,1071.88L870,1069.87C867.007,1069.47 864.292,1068.18 862.126,1066.29ZM881.874,1066.29C879.708,1068.18 876.993,1069.47 874,1069.87L874,1071.88C877.544,1071.47 880.756,1069.96 883.291,1067.7L881.874,1066.29ZM892.906,1057L890.896,1057C890.466,1061.1 888.734,1064.81 886.121,1067.71L887.537,1069.12C890.509,1065.86 892.466,1061.65 892.906,1057ZM853.104,1057L851.094,1057C851.534,1061.65 853.491,1065.86 856.463,1069.12L857.879,1067.71C855.266,1064.81 853.534,1061.1 853.104,1057ZM879.038,1063.45C877.617,1064.64 875.893,1065.47 874,1065.82L874,1067.85C876.443,1067.47 878.662,1066.41 880.456,1064.87L879.038,1063.45ZM864.962,1063.45L863.544,1064.87C865.338,1066.41 867.557,1067.47 870,1067.85L870,1065.82C868.107,1065.47 866.383,1064.64 864.962,1063.45ZM888.883,1057L886.868,1057C886.468,1059.99 885.184,1062.71 883.288,1064.87L884.705,1066.29C886.959,1063.76 888.467,1060.54 888.883,1057ZM857.132,1057L855.117,1057C855.533,1060.54 857.041,1063.76 859.295,1066.29L860.712,1064.87C858.816,1062.71 857.532,1059.99 857.132,1057ZM876.905,1061.32C876.056,1061.98 875.071,1062.47 874,1062.75L874,1063.78C875.344,1063.47 876.575,1062.86 877.616,1062.03L876.905,1061.32ZM867.095,1061.32L866.384,1062.03C867.425,1062.86 868.656,1063.47 870,1063.78L870,1062.75C868.929,1062.47 867.944,1061.98 867.095,1061.32ZM861.182,1057L859.153,1057C859.531,1059.44 860.59,1061.66 862.129,1063.46L863.548,1062.04C862.364,1060.62 861.53,1058.89 861.182,1057ZM884.847,1057L882.818,1057C882.47,1058.89 881.636,1060.62 880.452,1062.04L881.871,1063.46C883.41,1061.66 884.469,1059.44 884.847,1057ZM872,1049C875.311,1049 878,1051.69 878,1055C878,1058.31 875.311,1061 872,1061C868.689,1061 866,1058.31 866,1055C866,1051.69 868.689,1049 872,1049ZM879.748,1057C879.471,1058.07 878.979,1059.06 878.319,1059.9L879.031,1060.62C879.864,1059.58 880.471,1058.34 880.777,1057L879.748,1057ZM864.252,1057L863.223,1057C863.529,1058.35 864.136,1059.58 864.969,1060.62L865.681,1059.9C865.021,1059.06 864.529,1058.07 864.252,1057ZM878.319,1050.1C878.979,1050.94 879.471,1051.93 879.748,1053L880.777,1053C880.471,1051.66 879.864,1050.42 879.031,1049.38L878.319,1050.1ZM865.681,1050.1L864.969,1049.38C864.136,1050.42 863.529,1051.65 863.223,1053L864.252,1053C864.529,1051.93 865.021,1050.94 865.681,1050.1ZM881.871,1046.54L880.452,1047.96C881.637,1049.38 882.47,1051.11 882.818,1053L884.847,1053C884.469,1050.56 883.41,1048.34 881.871,1046.54ZM862.129,1046.54C860.59,1048.34 859.531,1050.56 859.153,1053L861.182,1053C861.53,1051.11 862.363,1049.38 863.548,1047.96L862.129,1046.54ZM884.705,1043.71L883.288,1045.13C885.184,1047.29 886.468,1050.01 886.868,1053L888.883,1053C888.467,1049.46 886.959,1046.24 884.705,1043.71ZM859.295,1043.71C857.041,1046.24 855.533,1049.46 855.117,1053L857.132,1053C857.532,1050.01 858.816,1047.29 860.712,1045.13L859.295,1043.71ZM887.537,1040.88L886.121,1042.29C888.734,1045.19 890.466,1048.9 890.896,1053L892.906,1053C892.466,1048.35 890.509,1044.14 887.537,1040.88ZM856.463,1040.88C853.491,1044.14 851.534,1048.35 851.094,1053L853.104,1053C853.534,1048.9 855.266,1045.19 857.879,1042.29L856.463,1040.88ZM890.367,1038.05L888.952,1039.46C892.284,1043.1 894.465,1047.8 894.914,1053L896.921,1053C896.465,1047.25 894.06,1042.05 890.367,1038.05ZM853.633,1038.05C849.94,1042.05 847.535,1047.25 847.079,1053L849.086,1053C849.535,1047.8 851.716,1043.1 855.048,1039.46L853.633,1038.05ZM874,1047.25C875.071,1047.53 876.056,1048.02 876.905,1048.68L877.616,1047.97C876.575,1047.14 875.344,1046.53 874,1046.22L874,1047.25ZM870,1047.25L870,1046.22C868.656,1046.53 867.425,1047.14 866.384,1047.97L867.095,1048.68C867.944,1048.02 868.929,1047.53 870,1047.25ZM864.962,1046.55C866.383,1045.36 868.107,1044.53 870,1044.18L870,1042.15C867.557,1042.53 865.338,1043.59 863.544,1045.13L864.962,1046.55ZM880.456,1045.13C878.662,1043.59 876.443,1042.53 874,1042.15L874,1044.18C875.893,1044.53 877.617,1045.36 879.038,1046.55L880.456,1045.13ZM883.291,1042.3C880.756,1040.04 877.544,1038.53 874,1038.12L874,1040.13C876.993,1040.53 879.708,1041.82 881.874,1043.71L883.291,1042.3ZM862.126,1043.71C864.292,1041.82 867.007,1040.53 870,1040.13L870,1038.12C866.456,1038.53 863.244,1040.04 860.709,1042.3L862.126,1043.71ZM859.293,1040.88C862.195,1038.27 865.905,1036.53 870,1036.1L870,1034.09C865.353,1034.53 861.145,1036.49 857.878,1039.46L859.293,1040.88ZM886.122,1039.46C882.855,1036.49 878.647,1034.53 874,1034.09L874,1036.1C878.095,1036.53 881.805,1038.27 884.707,1040.88L886.122,1039.46ZM888.953,1036.63C884.955,1032.94 879.75,1030.54 874,1030.08L874,1032.09C879.198,1032.54 883.905,1034.72 887.538,1038.05L888.953,1036.63ZM856.462,1038.05C860.095,1034.72 864.802,1032.54 870,1032.09L870,1030.08C864.25,1030.54 859.045,1032.94 855.047,1036.63L856.462,1038.05Z" style="fill:rgb(235,235,235);"/>
    </g>
</svg>
