<?xml version="1.0" encoding="UTF-8" standalone="no"?>
<!DOCTYPE svg PUBLIC "-//W3C//DTD SVG 1.1//EN" "http://www.w3.org/Graphics/SVG/1.1/DTD/svg11.dtd">
<svg width="100%" height="100%" viewBox="0 0 80 190" version="1.1" xmlns="http://www.w3.org/2000/svg" xmlns:xlink="http://www.w3.org/1999/xlink" xml:space="preserve" style="fill-rule:evenodd;clip-rule:evenodd;stroke-linejoin:round;stroke-miterlimit:1.41421;">
    <g transform="matrix(6.33935e-17,-1.03529,1.09836,6.72552e-17,-272.984,263.718)">
        <path d="M247,269.25C247,260.833 239.75,254 230.821,254L93.179,254C84.25,254 77,260.833 77,269.25L77,299.75C77,308.167 84.25,315 93.179,315L230.821,315C239.75,315 247,308.167 247,299.75L247,269.25Z"/>
    </g>
    <g transform="matrix(1.22465e-16,-2,1,6.12323e-17,-242,485)">
        <rect x="231" y="249" width="1" height="66" style="fill:white;"/>
    </g>
    <g transform="matrix(1.22465e-16,-2,1,6.12323e-17,-242,631)">
        <rect x="231" y="249" width="1" height="66" style="fill:white;"/>
    </g>
    <g transform="matrix(1.22465e-16,-2,0.151515,9.27763e-18,-26.7273,627)">
        <rect x="231" y="249" width="1" height="66" style="fill:white;"/>
    </g>
    <g transform="matrix(1.22465e-16,-2,0.151515,9.27763e-18,-26.7273,489)">
        <rect x="231" y="249" width="1" height="66" style="fill:white;"/>
    </g>
    <g transform="matrix(1.22465e-16,-2,0.393939,2.41218e-17,-75.0909,489)">
        <rect x="231" y="249" width="1" height="66" style="fill:white;"/>
    </g>
    <g transform="matrix(1.22465e-16,-2,0.393939,2.41218e-17,-75.0909,543)">
        <rect x="231" y="249" width="1" height="66" style="fill:white;"/>
    </g>
    <g transform="matrix(1.22465e-16,-2,0.393939,2.41218e-17,-75.0909,547)">
        <rect x="231" y="249" width="1" height="66" style="fill:white;"/>
    </g>
    <g transform="matrix(1.22465e-16,-2,0.393939,2.41218e-17,-75.0909,599)">
        <rect x="231" y="249" width="1" height="66" style="fill:white;"/>
    </g>
    <g transform="matrix(1.22465e-16,-2,0.393939,2.41218e-17,-75.0909,603)">
        <rect x="231" y="249" width="1" height="66" style="fill:white;"/>
    </g>
    <g transform="matrix(-2,-2.44929e-16,4.82437e-17,-0.393939,511,263.091)">
        <rect x="231" y="249" width="1" height="66" style="fill:white;"/>
    </g>
    <g transform="matrix(-2,-2.44929e-16,4.82437e-17,-0.393939,487,263.091)">
        <rect x="231" y="249" width="1" height="66" style="fill:white;"/>
    </g>
    <g transform="matrix(-2,-2.44929e-16,1.00198e-16,-0.818182,487,340.727)">
        <rect x="231" y="249" width="1" height="66" style="fill:white;"/>
    </g>
    <g id="_.28.Ellipse.29." transform="matrix(1.2891e-17,-0.210526,0.666667,4.08216e-17,-19,194.053)">
        <ellipse cx="90.5" cy="90" rx="9.5" ry="3"/>
        <path d="M109.495,90.153L109.476,90.306L109.446,90.459L109.403,90.61L109.348,90.761L109.282,90.91L109.204,91.059L109.114,91.206L109.013,91.353L108.901,91.498L108.778,91.641L108.644,91.784L108.499,91.924L108.344,92.063L108.178,92.201L108.002,92.336L107.816,92.471L107.62,92.603L107.415,92.734L107.2,92.862L106.976,92.989L106.743,93.113L106.5,93.236L106.248,93.357L105.988,93.475L105.72,93.591L105.442,93.706L105.157,93.818L104.863,93.927L104.561,94.035L104.252,94.14L103.934,94.242L103.609,94.343L103.276,94.44L102.936,94.536L102.589,94.628L102.235,94.719L101.873,94.806L101.505,94.891L101.13,94.973L100.748,95.053L100.36,95.129L99.964,95.203L99.563,95.274L99.157,95.342L98.743,95.406L98.324,95.468L97.9,95.527L97.47,95.583L97.034,95.635L96.593,95.684L96.147,95.73L95.697,95.772L95.242,95.811L94.784,95.846L94.32,95.878L93.853,95.907L93.383,95.931L92.908,95.952L92.432,95.969L91.952,95.983L91.47,95.992L90.986,95.998L90.5,96L90.014,95.998L89.53,95.992L89.048,95.983L88.568,95.969L88.092,95.952L87.617,95.931L87.147,95.907L86.68,95.878L86.216,95.846L85.758,95.811L85.303,95.772L84.853,95.73L84.407,95.684L83.966,95.635L83.53,95.583L83.1,95.527L82.676,95.468L82.257,95.406L81.843,95.342L81.437,95.274L81.036,95.203L80.64,95.129L80.252,95.053L79.87,94.973L79.495,94.891L79.127,94.806L78.765,94.719L78.411,94.628L78.064,94.536L77.724,94.44L77.391,94.343L77.066,94.242L76.748,94.14L76.439,94.035L76.137,93.927L75.843,93.818L75.558,93.706L75.28,93.591L75.012,93.475L74.752,93.357L74.5,93.236L74.257,93.113L74.024,92.989L73.8,92.862L73.585,92.734L73.38,92.603L73.184,92.471L72.998,92.336L72.822,92.201L72.656,92.063L72.501,91.924L72.356,91.784L72.222,91.641L72.099,91.498L71.987,91.353L71.886,91.206L71.796,91.059L71.718,90.91L71.652,90.761L71.597,90.61L71.554,90.459L71.524,90.306L71.505,90.153L71.499,90L71.505,89.847L71.524,89.694L71.554,89.541L71.597,89.39L71.652,89.239L71.718,89.09L71.796,88.941L71.886,88.794L71.987,88.647L72.099,88.502L72.222,88.359L72.356,88.216L72.501,88.076L72.656,87.937L72.822,87.799L72.998,87.664L73.184,87.529L73.38,87.397L73.585,87.266L73.8,87.138L74.024,87.011L74.257,86.887L74.5,86.764L74.752,86.643L75.012,86.525L75.28,86.409L75.558,86.294L75.843,86.182L76.137,86.073L76.439,85.965L76.748,85.86L77.066,85.758L77.391,85.657L77.724,85.56L78.064,85.464L78.411,85.372L78.765,85.281L79.127,85.194L79.495,85.109L79.87,85.027L80.252,84.947L80.64,84.871L81.036,84.797L81.437,84.726L81.843,84.658L82.257,84.594L82.676,84.532L83.1,84.473L83.53,84.417L83.966,84.365L84.407,84.316L84.853,84.27L85.303,84.228L85.758,84.189L86.216,84.154L86.68,84.122L87.147,84.093L87.617,84.069L88.092,84.048L88.568,84.031L89.048,84.017L89.53,84.008L90.014,84.002L90.5,84L90.986,84.002L91.47,84.008L91.952,84.017L92.432,84.031L92.908,84.048L93.383,84.069L93.853,84.093L94.32,84.122L94.784,84.154L95.242,84.189L95.697,84.228L96.147,84.27L96.593,84.316L97.034,84.365L97.47,84.417L97.9,84.473L98.324,84.532L98.743,84.594L99.157,84.658L99.563,84.726L99.964,84.797L100.36,84.871L100.748,84.947L101.13,85.027L101.505,85.109L101.873,85.194L102.235,85.281L102.589,85.372L102.936,85.464L103.276,85.56L103.609,85.657L103.934,85.758L104.252,85.86L104.561,85.965L104.863,86.073L105.157,86.182L105.442,86.294L105.72,86.409L105.988,86.525L106.248,86.643L106.5,86.764L106.743,86.887L106.976,87.011L107.2,87.138L107.415,87.266L107.62,87.397L107.816,87.529L108.002,87.664L108.178,87.799L108.344,87.937L108.499,88.076L108.644,88.216L108.778,88.359L108.901,88.502L109.013,88.647L109.114,88.794L109.204,88.941L109.282,89.09L109.348,89.239L109.403,89.39L109.446,89.541L109.476,89.694L109.495,89.847L109.501,90L109.495,90.153ZM99.997,89.923L99.988,89.846L99.972,89.769L99.951,89.693L99.924,89.618L99.89,89.543L99.852,89.469L99.807,89.396L99.757,89.323L99.701,89.251L99.639,89.179L99.573,89.108L99.501,89.038L99.423,88.969L99.341,88.9L99.253,88.833L99.16,88.766L99.063,88.7L98.96,88.635L98.853,88.571L98.741,88.507L98.624,88.445L98.502,88.384L98.377,88.323L98.246,88.264L98.112,88.206L97.973,88.148L97.83,88.092L97.682,88.037L97.531,87.983L97.375,87.931L97.216,87.879L97.053,87.829L96.886,87.78L96.716,87.732L96.541,87.685L96.364,87.64L96.182,87.596L95.998,87.554L95.81,87.513L95.619,87.473L95.425,87.435L95.227,87.398L95.027,87.362L94.823,87.328L94.617,87.296L94.408,87.265L94.196,87.236L93.982,87.208L93.765,87.182L93.546,87.158L93.324,87.135L93.099,87.114L92.873,87.095L92.644,87.077L92.414,87.061L92.181,87.047L91.946,87.035L91.709,87.024L91.471,87.016L91.23,87.009L90.989,87.004L90.745,87.001L90.5,87L90.255,87.001L90.011,87.004L89.77,87.009L89.529,87.016L89.291,87.024L89.054,87.035L88.819,87.047L88.586,87.061L88.356,87.077L88.127,87.095L87.901,87.114L87.676,87.135L87.454,87.158L87.235,87.182L87.018,87.208L86.804,87.236L86.592,87.265L86.383,87.296L86.177,87.328L85.973,87.362L85.773,87.398L85.575,87.435L85.381,87.473L85.19,87.513L85.002,87.554L84.818,87.596L84.636,87.64L84.459,87.685L84.284,87.732L84.114,87.78L83.947,87.829L83.784,87.879L83.625,87.931L83.469,87.983L83.318,88.037L83.17,88.092L83.027,88.148L82.888,88.206L82.754,88.264L82.623,88.323L82.498,88.384L82.376,88.445L82.259,88.507L82.147,88.571L82.04,88.635L81.937,88.7L81.84,88.766L81.747,88.833L81.659,88.9L81.577,88.969L81.499,89.038L81.427,89.108L81.361,89.179L81.299,89.251L81.243,89.323L81.193,89.396L81.148,89.469L81.11,89.543L81.076,89.618L81.049,89.693L81.028,89.769L81.012,89.846L81.003,89.923L81,90L81.003,90.077L81.012,90.154L81.028,90.231L81.049,90.307L81.076,90.382L81.11,90.457L81.148,90.531L81.193,90.604L81.243,90.677L81.299,90.749L81.361,90.821L81.427,90.892L81.499,90.962L81.577,91.031L81.659,91.1L81.747,91.167L81.84,91.234L81.937,91.3L82.04,91.365L82.147,91.429L82.259,91.493L82.376,91.555L82.498,91.616L82.623,91.677L82.754,91.736L82.888,91.794L83.027,91.852L83.17,91.908L83.318,91.963L83.469,92.017L83.625,92.069L83.784,92.121L83.947,92.171L84.114,92.22L84.284,92.268L84.459,92.315L84.636,92.36L84.818,92.404L85.002,92.446L85.19,92.487L85.381,92.527L85.575,92.565L85.773,92.602L85.973,92.638L86.177,92.672L86.383,92.704L86.592,92.735L86.804,92.764L87.018,92.792L87.235,92.818L87.454,92.842L87.676,92.865L87.901,92.886L88.127,92.905L88.356,92.923L88.586,92.939L88.819,92.953L89.054,92.965L89.291,92.976L89.529,92.984L89.77,92.991L90.011,92.996L90.255,92.999L90.5,93L90.745,92.999L90.989,92.996L91.23,92.991L91.471,92.984L91.709,92.976L91.946,92.965L92.181,92.953L92.414,92.939L92.644,92.923L92.873,92.905L93.099,92.886L93.324,92.865L93.546,92.842L93.765,92.818L93.982,92.792L94.196,92.764L94.408,92.735L94.617,92.704L94.823,92.672L95.027,92.638L95.227,92.602L95.425,92.565L95.619,92.527L95.81,92.487L95.998,92.446L96.182,92.404L96.364,92.36L96.541,92.315L96.716,92.268L96.886,92.22L97.053,92.171L97.216,92.121L97.375,92.069L97.531,92.017L97.682,91.963L97.83,91.908L97.973,91.852L98.112,91.794L98.246,91.736L98.377,91.677L98.502,91.616L98.624,91.555L98.741,91.493L98.853,91.429L98.96,91.365L99.063,91.3L99.16,91.234L99.253,91.167L99.341,91.1L99.423,91.031L99.501,90.962L99.573,90.892L99.639,90.821L99.701,90.749L99.757,90.677L99.807,90.604L99.852,90.531L99.89,90.457L99.924,90.382L99.951,90.307L99.972,90.231L99.988,90.154L99.997,90.077L100,90L99.997,89.923Z" style="fill:white;"/>
    </g>
    <g id="_.28.Ellipse.29.1" transform="matrix(1.2891e-17,-0.210526,0.666667,4.08216e-17,-31,194.053)">
        <ellipse cx="90.5" cy="90" rx="9.5" ry="3"/>
        <path d="M109.495,90.153L109.476,90.306L109.446,90.459L109.403,90.61L109.348,90.761L109.282,90.91L109.204,91.059L109.114,91.206L109.013,91.353L108.901,91.498L108.778,91.641L108.644,91.784L108.499,91.924L108.344,92.063L108.178,92.201L108.002,92.336L107.816,92.471L107.62,92.603L107.415,92.734L107.2,92.862L106.976,92.989L106.743,93.113L106.5,93.236L106.248,93.357L105.988,93.475L105.72,93.591L105.442,93.706L105.157,93.818L104.863,93.927L104.561,94.035L104.252,94.14L103.934,94.242L103.609,94.343L103.276,94.44L102.936,94.536L102.589,94.628L102.235,94.719L101.873,94.806L101.505,94.891L101.13,94.973L100.748,95.053L100.36,95.129L99.964,95.203L99.563,95.274L99.157,95.342L98.743,95.406L98.324,95.468L97.9,95.527L97.47,95.583L97.034,95.635L96.593,95.684L96.147,95.73L95.697,95.772L95.242,95.811L94.784,95.846L94.32,95.878L93.853,95.907L93.383,95.931L92.908,95.952L92.432,95.969L91.952,95.983L91.47,95.992L90.986,95.998L90.5,96L90.014,95.998L89.53,95.992L89.048,95.983L88.568,95.969L88.092,95.952L87.617,95.931L87.147,95.907L86.68,95.878L86.216,95.846L85.758,95.811L85.303,95.772L84.853,95.73L84.407,95.684L83.966,95.635L83.53,95.583L83.1,95.527L82.676,95.468L82.257,95.406L81.843,95.342L81.437,95.274L81.036,95.203L80.64,95.129L80.252,95.053L79.87,94.973L79.495,94.891L79.127,94.806L78.765,94.719L78.411,94.628L78.064,94.536L77.724,94.44L77.391,94.343L77.066,94.242L76.748,94.14L76.439,94.035L76.137,93.927L75.843,93.818L75.558,93.706L75.28,93.591L75.012,93.475L74.752,93.357L74.5,93.236L74.257,93.113L74.024,92.989L73.8,92.862L73.585,92.734L73.38,92.603L73.184,92.471L72.998,92.336L72.822,92.201L72.656,92.063L72.501,91.924L72.356,91.784L72.222,91.641L72.099,91.498L71.987,91.353L71.886,91.206L71.796,91.059L71.718,90.91L71.652,90.761L71.597,90.61L71.554,90.459L71.524,90.306L71.505,90.153L71.499,90L71.505,89.847L71.524,89.694L71.554,89.541L71.597,89.39L71.652,89.239L71.718,89.09L71.796,88.941L71.886,88.794L71.987,88.647L72.099,88.502L72.222,88.359L72.356,88.216L72.501,88.076L72.656,87.937L72.822,87.799L72.998,87.664L73.184,87.529L73.38,87.397L73.585,87.266L73.8,87.138L74.024,87.011L74.257,86.887L74.5,86.764L74.752,86.643L75.012,86.525L75.28,86.409L75.558,86.294L75.843,86.182L76.137,86.073L76.439,85.965L76.748,85.86L77.066,85.758L77.391,85.657L77.724,85.56L78.064,85.464L78.411,85.372L78.765,85.281L79.127,85.194L79.495,85.109L79.87,85.027L80.252,84.947L80.64,84.871L81.036,84.797L81.437,84.726L81.843,84.658L82.257,84.594L82.676,84.532L83.1,84.473L83.53,84.417L83.966,84.365L84.407,84.316L84.853,84.27L85.303,84.228L85.758,84.189L86.216,84.154L86.68,84.122L87.147,84.093L87.617,84.069L88.092,84.048L88.568,84.031L89.048,84.017L89.53,84.008L90.014,84.002L90.5,84L90.986,84.002L91.47,84.008L91.952,84.017L92.432,84.031L92.908,84.048L93.383,84.069L93.853,84.093L94.32,84.122L94.784,84.154L95.242,84.189L95.697,84.228L96.147,84.27L96.593,84.316L97.034,84.365L97.47,84.417L97.9,84.473L98.324,84.532L98.743,84.594L99.157,84.658L99.563,84.726L99.964,84.797L100.36,84.871L100.748,84.947L101.13,85.027L101.505,85.109L101.873,85.194L102.235,85.281L102.589,85.372L102.936,85.464L103.276,85.56L103.609,85.657L103.934,85.758L104.252,85.86L104.561,85.965L104.863,86.073L105.157,86.182L105.442,86.294L105.72,86.409L105.988,86.525L106.248,86.643L106.5,86.764L106.743,86.887L106.976,87.011L107.2,87.138L107.415,87.266L107.62,87.397L107.816,87.529L108.002,87.664L108.178,87.799L108.344,87.937L108.499,88.076L108.644,88.216L108.778,88.359L108.901,88.502L109.013,88.647L109.114,88.794L109.204,88.941L109.282,89.09L109.348,89.239L109.403,89.39L109.446,89.541L109.476,89.694L109.495,89.847L109.501,90L109.495,90.153ZM99.997,89.923L99.988,89.846L99.972,89.769L99.951,89.693L99.924,89.618L99.89,89.543L99.852,89.469L99.807,89.396L99.757,89.323L99.701,89.251L99.639,89.179L99.573,89.108L99.501,89.038L99.423,88.969L99.341,88.9L99.253,88.833L99.16,88.766L99.063,88.7L98.96,88.635L98.853,88.571L98.741,88.507L98.624,88.445L98.502,88.384L98.377,88.323L98.246,88.264L98.112,88.206L97.973,88.148L97.83,88.092L97.682,88.037L97.531,87.983L97.375,87.931L97.216,87.879L97.053,87.829L96.886,87.78L96.716,87.732L96.541,87.685L96.364,87.64L96.182,87.596L95.998,87.554L95.81,87.513L95.619,87.473L95.425,87.435L95.227,87.398L95.027,87.362L94.823,87.328L94.617,87.296L94.408,87.265L94.196,87.236L93.982,87.208L93.765,87.182L93.546,87.158L93.324,87.135L93.099,87.114L92.873,87.095L92.644,87.077L92.414,87.061L92.181,87.047L91.946,87.035L91.709,87.024L91.471,87.016L91.23,87.009L90.989,87.004L90.745,87.001L90.5,87L90.255,87.001L90.011,87.004L89.77,87.009L89.529,87.016L89.291,87.024L89.054,87.035L88.819,87.047L88.586,87.061L88.356,87.077L88.127,87.095L87.901,87.114L87.676,87.135L87.454,87.158L87.235,87.182L87.018,87.208L86.804,87.236L86.592,87.265L86.383,87.296L86.177,87.328L85.973,87.362L85.773,87.398L85.575,87.435L85.381,87.473L85.19,87.513L85.002,87.554L84.818,87.596L84.636,87.64L84.459,87.685L84.284,87.732L84.114,87.78L83.947,87.829L83.784,87.879L83.625,87.931L83.469,87.983L83.318,88.037L83.17,88.092L83.027,88.148L82.888,88.206L82.754,88.264L82.623,88.323L82.498,88.384L82.376,88.445L82.259,88.507L82.147,88.571L82.04,88.635L81.937,88.7L81.84,88.766L81.747,88.833L81.659,88.9L81.577,88.969L81.499,89.038L81.427,89.108L81.361,89.179L81.299,89.251L81.243,89.323L81.193,89.396L81.148,89.469L81.11,89.543L81.076,89.618L81.049,89.693L81.028,89.769L81.012,89.846L81.003,89.923L81,90L81.003,90.077L81.012,90.154L81.028,90.231L81.049,90.307L81.076,90.382L81.11,90.457L81.148,90.531L81.193,90.604L81.243,90.677L81.299,90.749L81.361,90.821L81.427,90.892L81.499,90.962L81.577,91.031L81.659,91.1L81.747,91.167L81.84,91.234L81.937,91.3L82.04,91.365L82.147,91.429L82.259,91.493L82.376,91.555L82.498,91.616L82.623,91.677L82.754,91.736L82.888,91.794L83.027,91.852L83.17,91.908L83.318,91.963L83.469,92.017L83.625,92.069L83.784,92.121L83.947,92.171L84.114,92.22L84.284,92.268L84.459,92.315L84.636,92.36L84.818,92.404L85.002,92.446L85.19,92.487L85.381,92.527L85.575,92.565L85.773,92.602L85.973,92.638L86.177,92.672L86.383,92.704L86.592,92.735L86.804,92.764L87.018,92.792L87.235,92.818L87.454,92.842L87.676,92.865L87.901,92.886L88.127,92.905L88.356,92.923L88.586,92.939L88.819,92.953L89.054,92.965L89.291,92.976L89.529,92.984L89.77,92.991L90.011,92.996L90.255,92.999L90.5,93L90.745,92.999L90.989,92.996L91.23,92.991L91.471,92.984L91.709,92.976L91.946,92.965L92.181,92.953L92.414,92.939L92.644,92.923L92.873,92.905L93.099,92.886L93.324,92.865L93.546,92.842L93.765,92.818L93.982,92.792L94.196,92.764L94.408,92.735L94.617,92.704L94.823,92.672L95.027,92.638L95.227,92.602L95.425,92.565L95.619,92.527L95.81,92.487L95.998,92.446L96.182,92.404L96.364,92.36L96.541,92.315L96.716,92.268L96.886,92.22L97.053,92.171L97.216,92.121L97.375,92.069L97.531,92.017L97.682,91.963L97.83,91.908L97.973,91.852L98.112,91.794L98.246,91.736L98.377,91.677L98.502,91.616L98.624,91.555L98.741,91.493L98.853,91.429L98.96,91.365L99.063,91.3L99.16,91.234L99.253,91.167L99.341,91.1L99.423,91.031L99.501,90.962L99.573,90.892L99.639,90.821L99.701,90.749L99.757,90.677L99.807,90.604L99.852,90.531L99.89,90.457L99.924,90.382L99.951,90.307L99.972,90.231L99.988,90.154L99.997,90.077L100,90L99.997,89.923Z" style="fill:white;"/>
    </g>
    <g id="_.28.Ellipse.29.2" transform="matrix(1.2891e-17,-0.210526,0.666667,4.08216e-17,-7,194.053)">
        <ellipse cx="90.5" cy="90" rx="9.5" ry="3"/>
        <path d="M109.495,90.153L109.476,90.306L109.446,90.459L109.403,90.61L109.348,90.761L109.282,90.91L109.204,91.059L109.114,91.206L109.013,91.353L108.901,91.498L108.778,91.641L108.644,91.784L108.499,91.924L108.344,92.063L108.178,92.201L108.002,92.337L107.816,92.471L107.62,92.603L107.415,92.734L107.2,92.862L106.976,92.989L106.742,93.114L106.5,93.236L106.248,93.357L105.988,93.475L105.719,93.592L105.443,93.706L105.157,93.818L104.863,93.927L104.561,94.035L104.252,94.14L103.934,94.242L103.609,94.343L103.276,94.44L102.936,94.536L102.589,94.628L102.235,94.718L101.873,94.806L101.505,94.891L101.13,94.973L100.748,95.053L100.36,95.129L99.964,95.203L99.563,95.274L99.156,95.342L98.743,95.406L98.324,95.468L97.9,95.527L97.47,95.583L97.034,95.635L96.593,95.684L96.147,95.73L95.697,95.772L95.243,95.811L94.784,95.846L94.32,95.878L93.853,95.907L93.383,95.931L92.909,95.952L92.432,95.969L91.952,95.983L91.47,95.992L90.986,95.998L90.5,96L90.014,95.998L89.53,95.992L89.048,95.983L88.568,95.969L88.091,95.952L87.617,95.931L87.147,95.907L86.68,95.878L86.216,95.846L85.757,95.811L85.303,95.772L84.853,95.73L84.407,95.684L83.966,95.635L83.53,95.583L83.1,95.527L82.676,95.468L82.257,95.406L81.844,95.342L81.437,95.274L81.036,95.203L80.64,95.129L80.252,95.053L79.87,94.973L79.495,94.891L79.127,94.806L78.765,94.718L78.411,94.628L78.064,94.536L77.724,94.44L77.391,94.343L77.066,94.242L76.748,94.14L76.439,94.035L76.137,93.927L75.843,93.818L75.557,93.706L75.281,93.592L75.012,93.475L74.752,93.357L74.5,93.236L74.258,93.114L74.024,92.989L73.8,92.862L73.585,92.734L73.38,92.603L73.184,92.471L72.998,92.337L72.822,92.201L72.656,92.063L72.501,91.924L72.356,91.784L72.222,91.641L72.099,91.498L71.987,91.353L71.886,91.206L71.796,91.059L71.718,90.91L71.652,90.761L71.597,90.61L71.554,90.459L71.524,90.306L71.505,90.153L71.499,90L71.505,89.847L71.524,89.694L71.554,89.541L71.597,89.39L71.652,89.239L71.718,89.09L71.796,88.941L71.886,88.794L71.987,88.647L72.099,88.502L72.222,88.359L72.356,88.216L72.501,88.076L72.656,87.937L72.822,87.799L72.998,87.664L73.184,87.529L73.38,87.397L73.585,87.266L73.8,87.138L74.024,87.011L74.257,86.887L74.5,86.764L74.752,86.643L75.012,86.525L75.28,86.409L75.558,86.294L75.843,86.182L76.137,86.073L76.439,85.965L76.748,85.86L77.066,85.758L77.391,85.657L77.724,85.56L78.064,85.464L78.411,85.372L78.765,85.281L79.127,85.194L79.495,85.109L79.87,85.027L80.252,84.947L80.64,84.871L81.036,84.797L81.437,84.726L81.843,84.658L82.257,84.594L82.676,84.532L83.1,84.473L83.53,84.417L83.966,84.365L84.407,84.316L84.853,84.27L85.303,84.228L85.758,84.189L86.216,84.154L86.68,84.122L87.147,84.093L87.617,84.069L88.092,84.048L88.568,84.031L89.048,84.017L89.53,84.008L90.014,84.002L90.5,84L90.986,84.002L91.47,84.008L91.952,84.017L92.432,84.031L92.908,84.048L93.383,84.069L93.853,84.093L94.32,84.122L94.784,84.154L95.242,84.189L95.697,84.228L96.147,84.27L96.593,84.316L97.034,84.365L97.47,84.417L97.9,84.473L98.324,84.532L98.743,84.594L99.157,84.658L99.563,84.726L99.964,84.797L100.36,84.871L100.748,84.947L101.13,85.027L101.505,85.109L101.873,85.194L102.235,85.281L102.589,85.372L102.936,85.464L103.276,85.56L103.609,85.657L103.934,85.758L104.252,85.86L104.561,85.965L104.863,86.073L105.157,86.182L105.442,86.294L105.72,86.409L105.988,86.525L106.248,86.643L106.5,86.764L106.743,86.887L106.976,87.011L107.2,87.138L107.415,87.266L107.62,87.397L107.816,87.529L108.002,87.664L108.178,87.799L108.344,87.937L108.499,88.076L108.644,88.216L108.778,88.359L108.901,88.502L109.013,88.647L109.114,88.794L109.204,88.941L109.282,89.09L109.348,89.239L109.403,89.39L109.446,89.541L109.476,89.694L109.495,89.847L109.501,90L109.495,90.153ZM99.997,89.923L99.988,89.846L99.972,89.769L99.951,89.693L99.924,89.618L99.89,89.543L99.852,89.469L99.807,89.396L99.757,89.323L99.701,89.251L99.639,89.179L99.573,89.108L99.501,89.038L99.423,88.969L99.341,88.9L99.253,88.833L99.16,88.766L99.063,88.7L98.96,88.635L98.853,88.571L98.741,88.507L98.624,88.445L98.502,88.384L98.377,88.323L98.246,88.264L98.112,88.206L97.973,88.148L97.83,88.092L97.682,88.037L97.531,87.983L97.375,87.931L97.216,87.879L97.053,87.829L96.886,87.78L96.716,87.732L96.541,87.685L96.364,87.64L96.182,87.596L95.998,87.554L95.81,87.513L95.619,87.473L95.425,87.435L95.227,87.398L95.027,87.362L94.823,87.328L94.617,87.296L94.408,87.265L94.196,87.236L93.982,87.208L93.765,87.182L93.546,87.158L93.324,87.135L93.099,87.114L92.873,87.095L92.644,87.077L92.414,87.061L92.181,87.047L91.946,87.035L91.709,87.024L91.471,87.016L91.23,87.009L90.989,87.004L90.745,87.001L90.5,87L90.255,87.001L90.011,87.004L89.77,87.009L89.529,87.016L89.291,87.024L89.054,87.035L88.819,87.047L88.586,87.061L88.356,87.077L88.127,87.095L87.901,87.114L87.676,87.135L87.454,87.158L87.235,87.182L87.018,87.208L86.804,87.236L86.592,87.265L86.383,87.296L86.177,87.328L85.973,87.362L85.773,87.398L85.575,87.435L85.381,87.473L85.19,87.513L85.002,87.554L84.818,87.596L84.636,87.64L84.459,87.685L84.284,87.732L84.114,87.78L83.947,87.829L83.784,87.879L83.625,87.931L83.469,87.983L83.318,88.037L83.17,88.092L83.027,88.148L82.888,88.206L82.754,88.264L82.623,88.323L82.498,88.384L82.376,88.445L82.259,88.507L82.147,88.571L82.04,88.635L81.937,88.7L81.84,88.766L81.747,88.833L81.659,88.9L81.577,88.969L81.499,89.038L81.427,89.108L81.361,89.179L81.299,89.251L81.243,89.323L81.193,89.396L81.148,89.469L81.11,89.543L81.076,89.618L81.049,89.693L81.028,89.769L81.012,89.846L81.003,89.923L81,90L81.003,90.077L81.012,90.154L81.028,90.231L81.049,90.307L81.076,90.382L81.11,90.457L81.148,90.531L81.193,90.604L81.243,90.677L81.299,90.749L81.361,90.821L81.427,90.892L81.499,90.962L81.577,91.031L81.659,91.1L81.747,91.167L81.84,91.234L81.937,91.3L82.04,91.365L82.147,91.429L82.259,91.493L82.376,91.555L82.498,91.616L82.623,91.677L82.754,91.736L82.888,91.794L83.027,91.852L83.17,91.908L83.318,91.963L83.469,92.017L83.625,92.069L83.784,92.121L83.947,92.171L84.114,92.22L84.284,92.268L84.459,92.315L84.636,92.36L84.818,92.404L85.002,92.446L85.19,92.487L85.381,92.527L85.575,92.565L85.773,92.602L85.973,92.638L86.177,92.672L86.383,92.704L86.592,92.735L86.804,92.764L87.018,92.792L87.235,92.818L87.454,92.842L87.676,92.865L87.901,92.886L88.127,92.905L88.356,92.923L88.586,92.939L88.819,92.953L89.054,92.965L89.291,92.976L89.529,92.984L89.77,92.991L90.011,92.996L90.255,92.999L90.5,93L90.745,92.999L90.989,92.996L91.23,92.991L91.471,92.984L91.709,92.976L91.946,92.965L92.181,92.953L92.414,92.939L92.644,92.923L92.873,92.905L93.099,92.886L93.324,92.865L93.546,92.842L93.765,92.818L93.982,92.792L94.196,92.764L94.408,92.735L94.617,92.704L94.823,92.672L95.027,92.638L95.227,92.602L95.425,92.565L95.619,92.527L95.81,92.487L95.998,92.446L96.182,92.404L96.364,92.36L96.541,92.315L96.716,92.268L96.886,92.22L97.053,92.171L97.216,92.121L97.375,92.069L97.531,92.017L97.682,91.963L97.83,91.908L97.973,91.852L98.112,91.794L98.246,91.736L98.377,91.677L98.502,91.616L98.624,91.555L98.741,91.493L98.853,91.429L98.96,91.365L99.063,91.3L99.16,91.234L99.253,91.167L99.341,91.1L99.423,91.031L99.501,90.962L99.573,90.892L99.639,90.821L99.701,90.749L99.757,90.677L99.807,90.604L99.852,90.531L99.89,90.457L99.924,90.382L99.951,90.307L99.972,90.231L99.988,90.154L99.997,90.077L100,90L99.997,89.923Z" style="fill:white;"/>
    </g>
    <g id="_.28.Ellipse.29.3" transform="matrix(4.51186e-17,-0.736842,2.33333,1.42875e-16,-150,138.684)">
        <ellipse cx="90.5" cy="90" rx="9.5" ry="3"/>
        <path d="M102.713,90.05L102.71,90.099L102.705,90.148L102.698,90.198L102.69,90.247L102.679,90.296L102.666,90.345L102.651,90.393L102.635,90.442L102.616,90.49L102.596,90.538L102.574,90.586L102.549,90.634L102.523,90.682L102.496,90.729L102.466,90.776L102.435,90.823L102.401,90.87L102.366,90.917L102.329,90.963L102.291,91.009L102.25,91.055L102.208,91.101L102.164,91.146L102.119,91.192L102.071,91.237L102.022,91.281L101.972,91.326L101.919,91.37L101.865,91.414L101.81,91.458L101.753,91.501L101.694,91.545L101.633,91.587L101.571,91.63L101.508,91.672L101.442,91.714L101.376,91.756L101.307,91.798L101.238,91.839L101.166,91.88L101.093,91.92L101.019,91.96L100.943,92L100.866,92.04L100.787,92.079L100.707,92.118L100.626,92.157L100.543,92.195L100.458,92.233L100.372,92.271L100.285,92.308L100.197,92.345L100.107,92.381L100.015,92.418L99.923,92.453L99.829,92.489L99.734,92.524L99.637,92.559L99.539,92.593L99.44,92.627L99.34,92.661L99.238,92.694L99.136,92.727L99.031,92.759L98.926,92.792L98.82,92.823L98.712,92.855L98.603,92.885L98.493,92.916L98.382,92.946L98.269,92.976L98.156,93.005L98.041,93.034L97.925,93.062L97.808,93.09L97.69,93.118L97.571,93.145L97.451,93.171L97.33,93.198L97.208,93.223L97.084,93.249L96.96,93.273L96.834,93.298L96.708,93.322L96.581,93.345L96.452,93.368L96.323,93.391L96.193,93.413L96.061,93.434L95.929,93.455L95.796,93.476L95.662,93.496L95.527,93.516L95.391,93.535L95.254,93.553L95.117,93.572L94.978,93.589L94.839,93.606L94.699,93.623L94.558,93.639L94.416,93.654L94.274,93.669L94.131,93.683L93.986,93.697L93.842,93.711L93.696,93.723L93.55,93.736L93.403,93.747L93.255,93.758L93.107,93.769L92.958,93.779L92.809,93.788L92.659,93.797L92.508,93.805L92.356,93.813L92.204,93.82L92.052,93.826L91.899,93.832L91.745,93.837L91.591,93.842L91.437,93.846L91.282,93.849L91.126,93.852L90.97,93.854L90.814,93.856L90.657,93.857L90.5,93.857L90.343,93.857L90.186,93.856L90.03,93.854L89.874,93.852L89.718,93.849L89.563,93.846L89.409,93.842L89.255,93.837L89.101,93.832L88.948,93.826L88.796,93.82L88.644,93.813L88.492,93.805L88.341,93.797L88.191,93.788L88.042,93.779L87.893,93.769L87.745,93.758L87.597,93.747L87.45,93.736L87.304,93.723L87.158,93.711L87.014,93.697L86.869,93.683L86.726,93.669L86.584,93.654L86.442,93.639L86.301,93.623L86.161,93.606L86.022,93.589L85.883,93.572L85.746,93.553L85.609,93.535L85.473,93.516L85.338,93.496L85.204,93.476L85.071,93.455L84.939,93.434L84.807,93.413L84.677,93.391L84.548,93.368L84.419,93.345L84.292,93.322L84.166,93.298L84.04,93.273L83.916,93.249L83.792,93.223L83.67,93.198L83.549,93.171L83.429,93.145L83.31,93.118L83.192,93.09L83.075,93.062L82.959,93.034L82.844,93.005L82.731,92.976L82.618,92.946L82.507,92.916L82.397,92.885L82.288,92.855L82.18,92.823L82.074,92.792L81.969,92.759L81.864,92.727L81.762,92.694L81.66,92.661L81.56,92.627L81.461,92.593L81.363,92.559L81.266,92.524L81.171,92.489L81.077,92.453L80.985,92.418L80.893,92.381L80.803,92.345L80.715,92.308L80.628,92.271L80.542,92.233L80.457,92.195L80.374,92.157L80.293,92.118L80.213,92.079L80.134,92.04L80.057,92L79.981,91.96L79.907,91.92L79.834,91.88L79.762,91.839L79.693,91.798L79.624,91.756L79.558,91.714L79.492,91.672L79.429,91.63L79.367,91.587L79.306,91.545L79.247,91.501L79.19,91.458L79.135,91.414L79.081,91.37L79.028,91.326L78.978,91.281L78.929,91.237L78.881,91.192L78.836,91.146L78.792,91.101L78.75,91.055L78.709,91.009L78.671,90.963L78.634,90.917L78.599,90.87L78.566,90.823L78.534,90.776L78.504,90.729L78.477,90.682L78.451,90.634L78.426,90.586L78.404,90.538L78.384,90.49L78.365,90.442L78.349,90.393L78.334,90.345L78.321,90.296L78.31,90.247L78.302,90.198L78.295,90.149L78.29,90.099L78.287,90.05L78.286,90L78.287,89.95L78.29,89.901L78.295,89.851L78.302,89.802L78.31,89.753L78.321,89.704L78.334,89.655L78.349,89.607L78.365,89.558L78.384,89.51L78.404,89.462L78.426,89.414L78.451,89.366L78.477,89.318L78.504,89.271L78.534,89.224L78.566,89.177L78.599,89.13L78.634,89.083L78.671,89.037L78.709,88.991L78.75,88.945L78.792,88.899L78.836,88.854L78.881,88.808L78.929,88.763L78.978,88.719L79.028,88.674L79.081,88.63L79.135,88.586L79.19,88.542L79.247,88.499L79.306,88.455L79.367,88.413L79.429,88.37L79.492,88.328L79.558,88.286L79.624,88.244L79.693,88.202L79.762,88.161L79.834,88.12L79.907,88.08L79.981,88.04L80.057,88L80.134,87.96L80.213,87.921L80.293,87.882L80.374,87.843L80.458,87.805L80.542,87.767L80.628,87.729L80.715,87.692L80.803,87.655L80.893,87.619L80.985,87.582L81.077,87.547L81.171,87.511L81.266,87.476L81.363,87.441L81.461,87.407L81.56,87.373L81.66,87.339L81.762,87.306L81.865,87.273L81.969,87.241L82.074,87.208L82.18,87.177L82.288,87.145L82.397,87.115L82.507,87.084L82.618,87.054L82.731,87.024L82.844,86.995L82.959,86.966L83.075,86.938L83.192,86.91L83.31,86.882L83.429,86.855L83.549,86.829L83.67,86.802L83.792,86.777L83.916,86.751L84.04,86.727L84.166,86.702L84.292,86.678L84.419,86.655L84.548,86.632L84.677,86.609L84.807,86.587L84.939,86.566L85.071,86.545L85.204,86.524L85.338,86.504L85.473,86.484L85.609,86.465L85.746,86.447L85.883,86.428L86.022,86.411L86.161,86.394L86.301,86.377L86.442,86.361L86.584,86.346L86.726,86.331L86.87,86.317L87.014,86.303L87.158,86.289L87.304,86.277L87.45,86.264L87.597,86.253L87.744,86.242L87.893,86.231L88.042,86.221L88.191,86.212L88.341,86.203L88.492,86.195L88.644,86.187L88.796,86.18L88.948,86.174L89.101,86.168L89.255,86.163L89.409,86.158L89.563,86.154L89.718,86.151L89.874,86.148L90.03,86.146L90.186,86.144L90.343,86.143L90.5,86.143L90.657,86.143L90.814,86.144L90.97,86.146L91.126,86.148L91.282,86.151L91.437,86.154L91.591,86.158L91.745,86.163L91.899,86.168L92.052,86.174L92.204,86.18L92.356,86.187L92.508,86.195L92.659,86.203L92.809,86.212L92.958,86.221L93.107,86.231L93.256,86.242L93.403,86.253L93.55,86.264L93.696,86.277L93.842,86.289L93.986,86.303L94.13,86.317L94.274,86.331L94.416,86.346L94.558,86.361L94.699,86.377L94.839,86.394L94.978,86.411L95.117,86.428L95.254,86.447L95.391,86.465L95.527,86.484L95.662,86.504L95.796,86.524L95.929,86.545L96.061,86.566L96.193,86.587L96.323,86.609L96.452,86.632L96.581,86.655L96.708,86.678L96.834,86.702L96.96,86.727L97.084,86.751L97.208,86.777L97.33,86.802L97.451,86.829L97.571,86.855L97.69,86.882L97.808,86.91L97.925,86.938L98.041,86.966L98.156,86.995L98.269,87.024L98.382,87.054L98.493,87.084L98.603,87.115L98.712,87.145L98.82,87.177L98.926,87.208L99.031,87.241L99.135,87.273L99.238,87.306L99.34,87.339L99.44,87.373L99.539,87.407L99.637,87.441L99.734,87.476L99.829,87.511L99.923,87.547L100.015,87.582L100.107,87.619L100.197,87.655L100.285,87.692L100.372,87.729L100.458,87.767L100.542,87.805L100.626,87.843L100.707,87.882L100.787,87.921L100.866,87.96L100.943,88L101.019,88.04L101.093,88.08L101.166,88.12L101.238,88.161L101.307,88.202L101.376,88.244L101.442,88.286L101.508,88.328L101.571,88.37L101.633,88.413L101.694,88.455L101.753,88.499L101.81,88.542L101.865,88.586L101.919,88.63L101.972,88.674L102.022,88.719L102.071,88.763L102.119,88.808L102.164,88.854L102.208,88.899L102.25,88.945L102.291,88.991L102.329,89.037L102.366,89.083L102.401,89.13L102.435,89.177L102.466,89.224L102.496,89.271L102.523,89.318L102.549,89.366L102.574,89.414L102.596,89.462L102.616,89.51L102.635,89.558L102.651,89.607L102.666,89.655L102.679,89.704L102.69,89.753L102.698,89.802L102.705,89.852L102.71,89.901L102.713,89.95L102.714,90L102.713,90.05ZM99.999,89.961L99.997,89.923L99.993,89.884L99.988,89.846L99.981,89.807L99.972,89.769L99.962,89.731L99.951,89.693L99.938,89.656L99.924,89.618L99.908,89.581L99.89,89.543L99.872,89.506L99.852,89.469L99.83,89.432L99.807,89.396L99.782,89.359L99.757,89.323L99.729,89.287L99.701,89.251L99.671,89.215L99.639,89.179L99.607,89.144L99.573,89.108L99.537,89.073L99.501,89.038L99.462,89.003L99.423,88.969L99.383,88.935L99.341,88.9L99.297,88.866L99.253,88.833L99.207,88.799L99.16,88.766L99.112,88.733L99.063,88.7L99.012,88.667L98.96,88.635L98.907,88.603L98.853,88.571L98.797,88.539L98.741,88.507L98.683,88.476L98.624,88.445L98.564,88.414L98.502,88.384L98.44,88.353L98.377,88.323L98.312,88.293L98.246,88.264L98.18,88.235L98.112,88.206L98.043,88.177L97.973,88.148L97.902,88.12L97.83,88.092L97.756,88.065L97.682,88.037L97.607,88.01L97.531,87.983L97.454,87.957L97.375,87.931L97.296,87.905L97.216,87.879L97.135,87.854L97.053,87.829L96.97,87.804L96.886,87.78L96.801,87.756L96.716,87.732L96.629,87.709L96.541,87.685L96.453,87.663L96.364,87.64L96.274,87.618L96.182,87.596L96.091,87.575L95.998,87.554L95.904,87.533L95.81,87.513L95.715,87.493L95.619,87.473L95.522,87.454L95.425,87.435L95.326,87.416L95.227,87.398L95.127,87.38L95.027,87.362L94.925,87.345L94.823,87.328L94.721,87.312L94.617,87.296L94.513,87.28L94.408,87.265L94.303,87.25L94.196,87.236L94.089,87.222L93.982,87.208L93.874,87.195L93.765,87.182L93.656,87.17L93.546,87.158L93.435,87.146L93.324,87.135L93.212,87.124L93.099,87.114L92.987,87.104L92.873,87.095L92.759,87.085L92.644,87.077L92.529,87.069L92.414,87.061L92.297,87.054L92.181,87.047L92.064,87.041L91.946,87.035L91.828,87.029L91.709,87.024L91.59,87.02L91.471,87.016L91.351,87.012L91.23,87.009L91.11,87.006L90.989,87.004L90.867,87.002L90.745,87.001L90.623,87L90.5,87L90.377,87L90.255,87.001L90.133,87.002L90.011,87.004L89.89,87.006L89.77,87.009L89.649,87.012L89.529,87.016L89.41,87.02L89.291,87.024L89.172,87.029L89.054,87.035L88.936,87.041L88.819,87.047L88.703,87.054L88.586,87.061L88.471,87.069L88.356,87.077L88.241,87.085L88.127,87.095L88.013,87.104L87.901,87.114L87.788,87.124L87.676,87.135L87.565,87.146L87.454,87.158L87.344,87.17L87.235,87.182L87.126,87.195L87.018,87.208L86.911,87.222L86.804,87.236L86.697,87.25L86.592,87.265L86.487,87.28L86.383,87.296L86.279,87.312L86.177,87.328L86.075,87.345L85.973,87.362L85.873,87.38L85.773,87.398L85.674,87.416L85.575,87.435L85.478,87.454L85.381,87.473L85.285,87.493L85.19,87.513L85.096,87.533L85.002,87.554L84.909,87.575L84.818,87.596L84.726,87.618L84.636,87.64L84.547,87.663L84.459,87.685L84.371,87.709L84.284,87.732L84.199,87.756L84.114,87.78L84.03,87.804L83.947,87.829L83.865,87.854L83.784,87.879L83.704,87.905L83.625,87.931L83.546,87.957L83.469,87.983L83.393,88.01L83.318,88.037L83.244,88.065L83.17,88.092L83.098,88.12L83.027,88.148L82.957,88.177L82.888,88.206L82.82,88.235L82.754,88.264L82.688,88.293L82.623,88.323L82.56,88.353L82.498,88.384L82.436,88.414L82.376,88.445L82.317,88.476L82.259,88.507L82.203,88.539L82.147,88.571L82.093,88.603L82.04,88.635L81.988,88.667L81.937,88.7L81.888,88.733L81.84,88.766L81.793,88.799L81.747,88.833L81.703,88.866L81.659,88.9L81.617,88.935L81.577,88.969L81.538,89.003L81.499,89.038L81.463,89.073L81.427,89.108L81.393,89.144L81.361,89.179L81.329,89.215L81.299,89.251L81.271,89.287L81.243,89.323L81.218,89.359L81.193,89.396L81.17,89.432L81.148,89.469L81.128,89.506L81.11,89.543L81.092,89.581L81.076,89.618L81.062,89.656L81.049,89.693L81.038,89.731L81.028,89.769L81.019,89.807L81.012,89.846L81.007,89.884L81.003,89.923L81.001,89.961L81,90L81.001,90.039L81.003,90.077L81.007,90.116L81.012,90.154L81.019,90.193L81.028,90.231L81.038,90.269L81.049,90.307L81.062,90.344L81.076,90.382L81.092,90.419L81.11,90.457L81.128,90.494L81.148,90.531L81.17,90.568L81.193,90.604L81.218,90.641L81.243,90.677L81.271,90.713L81.299,90.749L81.329,90.785L81.361,90.821L81.393,90.856L81.427,90.892L81.463,90.927L81.499,90.962L81.538,90.997L81.577,91.031L81.617,91.065L81.659,91.1L81.703,91.134L81.747,91.167L81.793,91.201L81.84,91.234L81.888,91.267L81.937,91.3L81.988,91.333L82.04,91.365L82.093,91.397L82.147,91.429L82.203,91.461L82.259,91.493L82.317,91.524L82.376,91.555L82.436,91.586L82.498,91.616L82.56,91.647L82.623,91.677L82.688,91.707L82.754,91.736L82.82,91.765L82.888,91.794L82.957,91.823L83.027,91.852L83.098,91.88L83.17,91.908L83.244,91.935L83.318,91.963L83.393,91.99L83.469,92.017L83.546,92.043L83.625,92.069L83.704,92.095L83.784,92.121L83.865,92.146L83.947,92.171L84.03,92.196L84.114,92.22L84.199,92.244L84.284,92.268L84.371,92.291L84.459,92.315L84.547,92.337L84.636,92.36L84.726,92.382L84.818,92.404L84.909,92.425L85.002,92.446L85.096,92.467L85.19,92.487L85.285,92.507L85.381,92.527L85.478,92.546L85.575,92.565L85.674,92.584L85.773,92.602L85.873,92.62L85.973,92.638L86.075,92.655L86.177,92.672L86.279,92.688L86.383,92.704L86.487,92.72L86.592,92.735L86.697,92.75L86.804,92.764L86.911,92.778L87.018,92.792L87.126,92.805L87.235,92.818L87.344,92.83L87.454,92.842L87.565,92.854L87.676,92.865L87.788,92.876L87.901,92.886L88.013,92.896L88.127,92.905L88.241,92.915L88.356,92.923L88.471,92.931L88.586,92.939L88.703,92.946L88.819,92.953L88.936,92.959L89.054,92.965L89.172,92.971L89.291,92.976L89.41,92.98L89.529,92.984L89.649,92.988L89.77,92.991L89.89,92.994L90.011,92.996L90.133,92.998L90.255,92.999L90.377,93L90.5,93L90.623,93L90.745,92.999L90.867,92.998L90.989,92.996L91.11,92.994L91.23,92.991L91.351,92.988L91.471,92.984L91.59,92.98L91.709,92.976L91.828,92.971L91.946,92.965L92.064,92.959L92.181,92.953L92.297,92.946L92.414,92.939L92.529,92.931L92.644,92.923L92.759,92.915L92.873,92.905L92.987,92.896L93.099,92.886L93.212,92.876L93.324,92.865L93.435,92.854L93.546,92.842L93.656,92.83L93.765,92.818L93.874,92.805L93.982,92.792L94.089,92.778L94.196,92.764L94.303,92.75L94.408,92.735L94.513,92.72L94.617,92.704L94.721,92.688L94.823,92.672L94.925,92.655L95.027,92.638L95.127,92.62L95.227,92.602L95.326,92.584L95.425,92.565L95.522,92.546L95.619,92.527L95.715,92.507L95.81,92.487L95.904,92.467L95.998,92.446L96.091,92.425L96.182,92.404L96.274,92.382L96.364,92.36L96.453,92.337L96.541,92.315L96.629,92.291L96.716,92.268L96.801,92.244L96.886,92.22L96.97,92.196L97.053,92.171L97.135,92.146L97.216,92.121L97.296,92.095L97.375,92.069L97.454,92.043L97.531,92.017L97.607,91.99L97.682,91.963L97.756,91.935L97.83,91.908L97.902,91.88L97.973,91.852L98.043,91.823L98.112,91.794L98.18,91.765L98.246,91.736L98.312,91.707L98.377,91.677L98.44,91.647L98.502,91.616L98.564,91.586L98.624,91.555L98.683,91.524L98.741,91.493L98.797,91.461L98.853,91.429L98.907,91.397L98.96,91.365L99.012,91.333L99.063,91.3L99.112,91.267L99.16,91.234L99.207,91.201L99.253,91.167L99.297,91.134L99.341,91.1L99.383,91.065L99.423,91.031L99.462,90.997L99.501,90.962L99.537,90.927L99.573,90.892L99.607,90.856L99.639,90.821L99.671,90.785L99.701,90.749L99.729,90.713L99.757,90.677L99.782,90.641L99.807,90.604L99.83,90.568L99.852,90.531L99.872,90.494L99.89,90.457L99.908,90.419L99.924,90.382L99.938,90.344L99.951,90.307L99.962,90.269L99.972,90.231L99.981,90.193L99.988,90.154L99.993,90.116L99.997,90.077L99.999,90.039L100,90L99.999,89.961Z" style="fill:white;"/>
    </g>
    <g id="_.28.Ellipse.29.4" transform="matrix(4.51186e-17,-0.736842,2.33333,1.42875e-16,-150,119.684)">
        <ellipse cx="90.5" cy="90" rx="9.5" ry="3"/>
        <path d="M102.713,90.05L102.71,90.099L102.705,90.148L102.698,90.198L102.69,90.247L102.679,90.296L102.666,90.345L102.651,90.393L102.635,90.442L102.616,90.49L102.596,90.538L102.574,90.586L102.549,90.634L102.523,90.682L102.496,90.729L102.466,90.776L102.434,90.823L102.401,90.87L102.366,90.917L102.329,90.963L102.291,91.009L102.25,91.055L102.208,91.101L102.164,91.146L102.119,91.192L102.071,91.237L102.022,91.281L101.972,91.326L101.919,91.37L101.865,91.414L101.81,91.458L101.753,91.501L101.694,91.545L101.633,91.587L101.571,91.63L101.508,91.672L101.442,91.714L101.376,91.756L101.307,91.798L101.238,91.839L101.166,91.88L101.093,91.92L101.019,91.96L100.943,92L100.866,92.04L100.787,92.079L100.707,92.118L100.626,92.157L100.543,92.195L100.458,92.233L100.372,92.271L100.285,92.308L100.197,92.345L100.107,92.381L100.015,92.418L99.923,92.453L99.829,92.489L99.734,92.524L99.637,92.559L99.539,92.593L99.44,92.627L99.34,92.661L99.238,92.694L99.136,92.727L99.031,92.759L98.926,92.792L98.82,92.823L98.712,92.855L98.603,92.885L98.493,92.916L98.382,92.946L98.269,92.976L98.156,93.005L98.041,93.034L97.925,93.062L97.808,93.09L97.69,93.118L97.571,93.145L97.451,93.171L97.33,93.198L97.208,93.223L97.084,93.249L96.96,93.273L96.834,93.298L96.708,93.322L96.581,93.345L96.452,93.368L96.323,93.391L96.193,93.413L96.061,93.434L95.929,93.455L95.796,93.476L95.662,93.496L95.527,93.516L95.391,93.535L95.254,93.553L95.117,93.572L94.978,93.589L94.839,93.606L94.699,93.623L94.558,93.639L94.416,93.654L94.274,93.669L94.131,93.683L93.986,93.697L93.842,93.711L93.696,93.723L93.55,93.736L93.403,93.747L93.255,93.758L93.107,93.769L92.958,93.779L92.809,93.788L92.659,93.797L92.508,93.805L92.356,93.813L92.204,93.82L92.052,93.826L91.899,93.832L91.745,93.837L91.591,93.842L91.437,93.846L91.282,93.849L91.126,93.852L90.97,93.854L90.814,93.856L90.657,93.857L90.5,93.857L90.343,93.857L90.186,93.856L90.03,93.854L89.874,93.852L89.718,93.849L89.563,93.846L89.409,93.842L89.255,93.837L89.101,93.832L88.948,93.826L88.796,93.82L88.644,93.813L88.492,93.805L88.341,93.797L88.191,93.788L88.042,93.779L87.893,93.769L87.745,93.758L87.597,93.747L87.45,93.736L87.304,93.723L87.158,93.711L87.014,93.697L86.869,93.683L86.726,93.669L86.584,93.654L86.442,93.639L86.301,93.623L86.161,93.606L86.022,93.589L85.883,93.572L85.746,93.553L85.609,93.535L85.473,93.516L85.338,93.496L85.204,93.476L85.071,93.455L84.939,93.434L84.807,93.413L84.677,93.391L84.548,93.368L84.419,93.345L84.292,93.322L84.166,93.298L84.04,93.273L83.916,93.249L83.792,93.223L83.67,93.198L83.549,93.171L83.429,93.145L83.31,93.118L83.192,93.09L83.075,93.062L82.959,93.034L82.844,93.005L82.731,92.976L82.618,92.946L82.507,92.916L82.397,92.885L82.288,92.855L82.18,92.823L82.074,92.792L81.969,92.759L81.864,92.727L81.762,92.694L81.66,92.661L81.56,92.627L81.461,92.593L81.363,92.559L81.266,92.524L81.171,92.489L81.077,92.453L80.985,92.418L80.893,92.381L80.803,92.345L80.715,92.308L80.628,92.271L80.542,92.233L80.457,92.195L80.374,92.157L80.293,92.118L80.213,92.079L80.134,92.04L80.057,92L79.981,91.96L79.907,91.92L79.834,91.88L79.762,91.839L79.693,91.798L79.624,91.756L79.558,91.714L79.492,91.672L79.429,91.63L79.367,91.587L79.306,91.545L79.247,91.501L79.19,91.458L79.135,91.414L79.081,91.37L79.028,91.326L78.978,91.281L78.929,91.237L78.881,91.192L78.836,91.146L78.792,91.101L78.75,91.055L78.709,91.009L78.671,90.963L78.634,90.917L78.599,90.87L78.565,90.823L78.534,90.776L78.504,90.729L78.477,90.682L78.451,90.634L78.426,90.586L78.404,90.538L78.384,90.49L78.365,90.442L78.349,90.393L78.334,90.345L78.321,90.296L78.31,90.247L78.302,90.198L78.295,90.148L78.29,90.099L78.287,90.05L78.286,90L78.287,89.95L78.29,89.901L78.295,89.852L78.302,89.802L78.31,89.753L78.321,89.704L78.334,89.655L78.349,89.607L78.365,89.558L78.384,89.51L78.404,89.462L78.426,89.414L78.451,89.366L78.477,89.318L78.504,89.271L78.534,89.224L78.565,89.177L78.599,89.13L78.634,89.083L78.671,89.037L78.709,88.991L78.75,88.945L78.792,88.899L78.836,88.854L78.881,88.808L78.929,88.763L78.978,88.719L79.028,88.674L79.081,88.63L79.135,88.586L79.19,88.542L79.247,88.499L79.306,88.455L79.367,88.413L79.429,88.37L79.492,88.328L79.558,88.286L79.624,88.244L79.693,88.202L79.762,88.161L79.834,88.12L79.907,88.08L79.981,88.04L80.057,88L80.134,87.96L80.213,87.921L80.293,87.882L80.374,87.843L80.458,87.805L80.542,87.767L80.628,87.729L80.715,87.692L80.803,87.655L80.893,87.619L80.985,87.582L81.077,87.547L81.171,87.511L81.266,87.476L81.363,87.441L81.461,87.407L81.56,87.373L81.66,87.339L81.762,87.306L81.865,87.273L81.969,87.241L82.074,87.208L82.18,87.177L82.288,87.145L82.397,87.115L82.507,87.084L82.618,87.054L82.731,87.024L82.844,86.995L82.959,86.966L83.075,86.938L83.192,86.91L83.31,86.882L83.429,86.855L83.549,86.829L83.67,86.802L83.792,86.777L83.916,86.751L84.04,86.727L84.166,86.702L84.292,86.678L84.419,86.655L84.548,86.632L84.677,86.609L84.807,86.587L84.939,86.566L85.071,86.545L85.204,86.524L85.338,86.504L85.473,86.484L85.609,86.465L85.746,86.447L85.883,86.428L86.022,86.411L86.161,86.394L86.301,86.377L86.442,86.361L86.584,86.346L86.726,86.331L86.87,86.317L87.014,86.303L87.158,86.289L87.304,86.277L87.45,86.264L87.597,86.253L87.744,86.242L87.893,86.231L88.042,86.221L88.191,86.212L88.341,86.203L88.492,86.195L88.644,86.187L88.796,86.18L88.948,86.174L89.101,86.168L89.255,86.163L89.409,86.158L89.563,86.154L89.718,86.151L89.874,86.148L90.03,86.146L90.186,86.144L90.343,86.143L90.5,86.143L90.657,86.143L90.814,86.144L90.97,86.146L91.126,86.148L91.282,86.151L91.437,86.154L91.591,86.158L91.745,86.163L91.899,86.168L92.052,86.174L92.204,86.18L92.356,86.187L92.508,86.195L92.659,86.203L92.809,86.212L92.958,86.221L93.107,86.231L93.256,86.242L93.403,86.253L93.55,86.264L93.696,86.277L93.842,86.289L93.986,86.303L94.13,86.317L94.274,86.331L94.416,86.346L94.558,86.361L94.699,86.377L94.839,86.394L94.978,86.411L95.117,86.428L95.254,86.447L95.391,86.465L95.527,86.484L95.662,86.504L95.796,86.524L95.929,86.545L96.061,86.566L96.193,86.587L96.323,86.609L96.452,86.632L96.581,86.655L96.708,86.678L96.834,86.702L96.96,86.727L97.084,86.751L97.208,86.777L97.33,86.802L97.451,86.829L97.571,86.855L97.69,86.882L97.808,86.91L97.925,86.938L98.041,86.966L98.156,86.995L98.269,87.024L98.382,87.054L98.493,87.084L98.603,87.115L98.712,87.145L98.82,87.177L98.926,87.208L99.031,87.241L99.136,87.273L99.238,87.306L99.34,87.339L99.44,87.373L99.539,87.407L99.637,87.441L99.734,87.476L99.829,87.511L99.923,87.547L100.015,87.582L100.107,87.619L100.197,87.655L100.285,87.692L100.372,87.729L100.458,87.767L100.542,87.805L100.626,87.843L100.707,87.882L100.787,87.921L100.866,87.96L100.943,88L101.019,88.04L101.093,88.08L101.166,88.12L101.238,88.161L101.307,88.202L101.376,88.244L101.442,88.286L101.508,88.328L101.571,88.37L101.633,88.413L101.694,88.455L101.753,88.499L101.81,88.542L101.865,88.586L101.919,88.63L101.972,88.674L102.022,88.719L102.071,88.763L102.119,88.808L102.164,88.854L102.208,88.899L102.25,88.945L102.291,88.991L102.329,89.037L102.366,89.083L102.401,89.13L102.434,89.177L102.466,89.224L102.496,89.271L102.523,89.318L102.549,89.366L102.574,89.414L102.596,89.462L102.616,89.51L102.635,89.558L102.651,89.607L102.666,89.655L102.679,89.704L102.69,89.753L102.698,89.802L102.705,89.852L102.71,89.901L102.713,89.95L102.714,90L102.713,90.05ZM99.999,89.961L99.997,89.923L99.993,89.884L99.988,89.846L99.981,89.807L99.972,89.769L99.962,89.731L99.951,89.693L99.938,89.656L99.924,89.618L99.908,89.581L99.89,89.543L99.872,89.506L99.852,89.469L99.83,89.432L99.807,89.396L99.782,89.359L99.757,89.323L99.729,89.287L99.701,89.251L99.671,89.215L99.639,89.179L99.607,89.144L99.573,89.108L99.537,89.073L99.501,89.038L99.462,89.003L99.423,88.969L99.383,88.935L99.341,88.9L99.297,88.866L99.253,88.833L99.207,88.799L99.16,88.766L99.112,88.733L99.063,88.7L99.012,88.667L98.96,88.635L98.907,88.603L98.853,88.571L98.797,88.539L98.741,88.507L98.683,88.476L98.624,88.445L98.564,88.414L98.502,88.384L98.44,88.353L98.377,88.323L98.312,88.293L98.246,88.264L98.18,88.235L98.112,88.206L98.043,88.177L97.973,88.148L97.902,88.12L97.83,88.092L97.756,88.065L97.682,88.037L97.607,88.01L97.531,87.983L97.454,87.957L97.375,87.931L97.296,87.905L97.216,87.879L97.135,87.854L97.053,87.829L96.97,87.804L96.886,87.78L96.801,87.756L96.716,87.732L96.629,87.709L96.541,87.685L96.453,87.663L96.364,87.64L96.274,87.618L96.182,87.596L96.091,87.575L95.998,87.554L95.904,87.533L95.81,87.513L95.715,87.493L95.619,87.473L95.522,87.454L95.425,87.435L95.326,87.416L95.227,87.398L95.127,87.38L95.027,87.362L94.925,87.345L94.823,87.328L94.721,87.312L94.617,87.296L94.513,87.28L94.408,87.265L94.303,87.25L94.196,87.236L94.089,87.222L93.982,87.208L93.874,87.195L93.765,87.182L93.656,87.17L93.546,87.158L93.435,87.146L93.324,87.135L93.212,87.124L93.099,87.114L92.987,87.104L92.873,87.095L92.759,87.085L92.644,87.077L92.529,87.069L92.414,87.061L92.297,87.054L92.181,87.047L92.064,87.041L91.946,87.035L91.828,87.029L91.709,87.024L91.59,87.02L91.471,87.016L91.351,87.012L91.23,87.009L91.11,87.006L90.989,87.004L90.867,87.002L90.745,87.001L90.623,87L90.5,87L90.377,87L90.255,87.001L90.133,87.002L90.011,87.004L89.89,87.006L89.77,87.009L89.649,87.012L89.529,87.016L89.41,87.02L89.291,87.024L89.172,87.029L89.054,87.035L88.936,87.041L88.819,87.047L88.703,87.054L88.586,87.061L88.471,87.069L88.356,87.077L88.241,87.085L88.127,87.095L88.013,87.104L87.901,87.114L87.788,87.124L87.676,87.135L87.565,87.146L87.454,87.158L87.344,87.17L87.235,87.182L87.126,87.195L87.018,87.208L86.911,87.222L86.804,87.236L86.697,87.25L86.592,87.265L86.487,87.28L86.383,87.296L86.279,87.312L86.177,87.328L86.075,87.345L85.973,87.362L85.873,87.38L85.773,87.398L85.674,87.416L85.575,87.435L85.478,87.454L85.381,87.473L85.285,87.493L85.19,87.513L85.096,87.533L85.002,87.554L84.909,87.575L84.818,87.596L84.726,87.618L84.636,87.64L84.547,87.663L84.459,87.685L84.371,87.709L84.284,87.732L84.199,87.756L84.114,87.78L84.03,87.804L83.947,87.829L83.865,87.854L83.784,87.879L83.704,87.905L83.625,87.931L83.546,87.957L83.469,87.983L83.393,88.01L83.318,88.037L83.244,88.065L83.17,88.092L83.098,88.12L83.027,88.148L82.957,88.177L82.888,88.206L82.82,88.235L82.754,88.264L82.688,88.293L82.623,88.323L82.56,88.353L82.498,88.384L82.436,88.414L82.376,88.445L82.317,88.476L82.259,88.507L82.203,88.539L82.147,88.571L82.093,88.603L82.04,88.635L81.988,88.667L81.937,88.7L81.888,88.733L81.84,88.766L81.793,88.799L81.747,88.833L81.703,88.866L81.659,88.9L81.617,88.935L81.577,88.969L81.538,89.003L81.499,89.038L81.463,89.073L81.427,89.108L81.393,89.144L81.361,89.179L81.329,89.215L81.299,89.251L81.271,89.287L81.243,89.323L81.218,89.359L81.193,89.396L81.17,89.432L81.148,89.469L81.128,89.506L81.11,89.543L81.092,89.581L81.076,89.618L81.062,89.656L81.049,89.693L81.038,89.731L81.028,89.769L81.019,89.807L81.012,89.846L81.007,89.884L81.003,89.923L81.001,89.961L81,90L81.001,90.039L81.003,90.077L81.007,90.116L81.012,90.154L81.019,90.193L81.028,90.231L81.038,90.269L81.049,90.307L81.062,90.344L81.076,90.382L81.092,90.419L81.11,90.457L81.128,90.494L81.148,90.531L81.17,90.568L81.193,90.604L81.218,90.641L81.243,90.677L81.271,90.713L81.299,90.749L81.329,90.785L81.361,90.821L81.393,90.856L81.427,90.892L81.463,90.927L81.499,90.962L81.538,90.997L81.577,91.031L81.617,91.065L81.659,91.1L81.703,91.134L81.747,91.167L81.793,91.201L81.84,91.234L81.888,91.267L81.937,91.3L81.988,91.333L82.04,91.365L82.093,91.397L82.147,91.429L82.203,91.461L82.259,91.493L82.317,91.524L82.376,91.555L82.436,91.586L82.498,91.616L82.56,91.647L82.623,91.677L82.688,91.707L82.754,91.736L82.82,91.765L82.888,91.794L82.957,91.823L83.027,91.852L83.098,91.88L83.17,91.908L83.244,91.935L83.318,91.963L83.393,91.99L83.469,92.017L83.546,92.043L83.625,92.069L83.704,92.095L83.784,92.121L83.865,92.146L83.947,92.171L84.03,92.196L84.114,92.22L84.199,92.244L84.284,92.268L84.371,92.291L84.459,92.315L84.547,92.337L84.636,92.36L84.726,92.382L84.818,92.404L84.909,92.425L85.002,92.446L85.096,92.467L85.19,92.487L85.285,92.507L85.381,92.527L85.478,92.546L85.575,92.565L85.674,92.584L85.773,92.602L85.873,92.62L85.973,92.638L86.075,92.655L86.177,92.672L86.279,92.688L86.383,92.704L86.487,92.72L86.592,92.735L86.697,92.75L86.804,92.764L86.911,92.778L87.018,92.792L87.126,92.805L87.235,92.818L87.344,92.83L87.454,92.842L87.565,92.854L87.676,92.865L87.788,92.876L87.901,92.886L88.013,92.896L88.127,92.905L88.241,92.915L88.356,92.923L88.471,92.931L88.586,92.939L88.703,92.946L88.819,92.953L88.936,92.959L89.054,92.965L89.172,92.971L89.291,92.976L89.41,92.98L89.529,92.984L89.649,92.988L89.77,92.991L89.89,92.994L90.011,92.996L90.133,92.998L90.255,92.999L90.377,93L90.5,93L90.623,93L90.745,92.999L90.867,92.998L90.989,92.996L91.11,92.994L91.23,92.991L91.351,92.988L91.471,92.984L91.59,92.98L91.709,92.976L91.828,92.971L91.946,92.965L92.064,92.959L92.181,92.953L92.297,92.946L92.414,92.939L92.529,92.931L92.644,92.923L92.759,92.915L92.873,92.905L92.987,92.896L93.099,92.886L93.212,92.876L93.324,92.865L93.435,92.854L93.546,92.842L93.656,92.83L93.765,92.818L93.874,92.805L93.982,92.792L94.089,92.778L94.196,92.764L94.303,92.75L94.408,92.735L94.513,92.72L94.617,92.704L94.721,92.688L94.823,92.672L94.925,92.655L95.027,92.638L95.127,92.62L95.227,92.602L95.326,92.584L95.425,92.565L95.522,92.546L95.619,92.527L95.715,92.507L95.81,92.487L95.904,92.467L95.998,92.446L96.091,92.425L96.182,92.404L96.274,92.382L96.364,92.36L96.453,92.337L96.541,92.315L96.629,92.291L96.716,92.268L96.801,92.244L96.886,92.22L96.97,92.196L97.053,92.171L97.135,92.146L97.216,92.121L97.296,92.095L97.375,92.069L97.454,92.043L97.531,92.017L97.607,91.99L97.682,91.963L97.756,91.935L97.83,91.908L97.902,91.88L97.973,91.852L98.043,91.823L98.112,91.794L98.18,91.765L98.246,91.736L98.312,91.707L98.377,91.677L98.44,91.647L98.502,91.616L98.564,91.586L98.624,91.555L98.683,91.524L98.741,91.493L98.797,91.461L98.853,91.429L98.907,91.397L98.96,91.365L99.012,91.333L99.063,91.3L99.112,91.267L99.16,91.234L99.207,91.201L99.253,91.167L99.297,91.134L99.341,91.1L99.383,91.065L99.423,91.031L99.462,90.997L99.501,90.962L99.537,90.927L99.573,90.892L99.607,90.856L99.639,90.821L99.671,90.785L99.701,90.749L99.729,90.713L99.757,90.677L99.782,90.641L99.807,90.604L99.83,90.568L99.852,90.531L99.872,90.494L99.89,90.457L99.908,90.419L99.924,90.382L99.938,90.344L99.951,90.307L99.962,90.269L99.972,90.231L99.981,90.193L99.988,90.154L99.993,90.116L99.997,90.077L99.999,90.039L100,90L99.999,89.961Z" style="fill:white;"/>
    </g>
    <g id="_.28.Ellipse.29.5" transform="matrix(4.51186e-17,-0.736842,2.33333,1.42875e-16,-150,100.684)">
        <ellipse cx="90.5" cy="90" rx="9.5" ry="3"/>
        <path d="M102.713,90.05L102.71,90.099L102.705,90.148L102.698,90.198L102.69,90.247L102.679,90.296L102.666,90.345L102.651,90.393L102.635,90.442L102.616,90.49L102.596,90.538L102.574,90.586L102.549,90.634L102.523,90.682L102.496,90.729L102.466,90.776L102.434,90.823L102.401,90.87L102.366,90.917L102.329,90.963L102.291,91.009L102.25,91.055L102.208,91.101L102.164,91.146L102.119,91.192L102.071,91.237L102.022,91.281L101.972,91.326L101.919,91.37L101.865,91.414L101.81,91.458L101.753,91.501L101.694,91.545L101.633,91.587L101.571,91.63L101.508,91.672L101.442,91.714L101.376,91.756L101.307,91.798L101.238,91.839L101.166,91.88L101.093,91.92L101.019,91.96L100.943,92L100.866,92.04L100.787,92.079L100.707,92.118L100.626,92.157L100.543,92.195L100.458,92.233L100.372,92.271L100.285,92.308L100.197,92.345L100.107,92.381L100.015,92.418L99.923,92.453L99.829,92.489L99.734,92.524L99.637,92.559L99.539,92.593L99.44,92.627L99.34,92.661L99.238,92.694L99.136,92.727L99.031,92.759L98.926,92.792L98.82,92.823L98.712,92.855L98.603,92.885L98.493,92.916L98.382,92.946L98.269,92.976L98.156,93.005L98.041,93.034L97.925,93.062L97.808,93.09L97.69,93.118L97.571,93.145L97.451,93.171L97.33,93.198L97.208,93.223L97.084,93.249L96.96,93.273L96.834,93.298L96.708,93.322L96.581,93.345L96.452,93.368L96.323,93.391L96.193,93.413L96.061,93.434L95.929,93.455L95.796,93.476L95.662,93.496L95.527,93.516L95.391,93.535L95.254,93.553L95.117,93.572L94.978,93.589L94.839,93.606L94.699,93.623L94.558,93.639L94.416,93.654L94.274,93.669L94.131,93.683L93.986,93.697L93.842,93.711L93.696,93.723L93.55,93.736L93.403,93.747L93.255,93.758L93.107,93.769L92.958,93.779L92.809,93.788L92.659,93.797L92.508,93.805L92.356,93.813L92.204,93.82L92.052,93.826L91.899,93.832L91.745,93.837L91.591,93.842L91.437,93.846L91.282,93.849L91.126,93.852L90.97,93.854L90.814,93.856L90.657,93.857L90.5,93.857L90.343,93.857L90.186,93.856L90.03,93.854L89.874,93.852L89.718,93.849L89.563,93.846L89.409,93.842L89.255,93.837L89.101,93.832L88.948,93.826L88.796,93.82L88.644,93.813L88.492,93.805L88.341,93.797L88.191,93.788L88.042,93.779L87.893,93.769L87.745,93.758L87.597,93.747L87.45,93.736L87.304,93.723L87.158,93.711L87.014,93.697L86.869,93.683L86.726,93.669L86.584,93.654L86.442,93.639L86.301,93.623L86.161,93.606L86.022,93.589L85.883,93.572L85.746,93.553L85.609,93.535L85.473,93.516L85.338,93.496L85.204,93.476L85.071,93.455L84.939,93.434L84.807,93.413L84.677,93.391L84.548,93.368L84.419,93.345L84.292,93.322L84.166,93.298L84.04,93.273L83.916,93.249L83.792,93.223L83.67,93.198L83.549,93.171L83.429,93.145L83.31,93.118L83.192,93.09L83.075,93.062L82.959,93.034L82.844,93.005L82.731,92.976L82.618,92.946L82.507,92.916L82.397,92.885L82.288,92.855L82.18,92.823L82.074,92.792L81.969,92.759L81.864,92.727L81.762,92.694L81.66,92.661L81.56,92.627L81.461,92.593L81.363,92.559L81.266,92.524L81.171,92.489L81.077,92.453L80.985,92.418L80.893,92.381L80.803,92.345L80.715,92.308L80.628,92.271L80.542,92.233L80.457,92.195L80.374,92.157L80.293,92.118L80.213,92.079L80.134,92.04L80.057,92L79.981,91.96L79.907,91.92L79.834,91.88L79.762,91.839L79.693,91.798L79.624,91.756L79.558,91.714L79.492,91.672L79.429,91.63L79.367,91.587L79.306,91.545L79.247,91.501L79.19,91.458L79.135,91.414L79.081,91.37L79.028,91.326L78.978,91.281L78.929,91.237L78.881,91.192L78.836,91.146L78.792,91.101L78.75,91.055L78.709,91.009L78.671,90.963L78.634,90.917L78.599,90.87L78.566,90.823L78.534,90.776L78.504,90.729L78.477,90.682L78.451,90.634L78.426,90.586L78.404,90.538L78.384,90.49L78.365,90.442L78.349,90.393L78.334,90.345L78.321,90.296L78.31,90.247L78.302,90.198L78.295,90.148L78.29,90.099L78.287,90.05L78.286,90L78.287,89.95L78.29,89.901L78.295,89.852L78.302,89.802L78.31,89.753L78.321,89.704L78.334,89.655L78.349,89.607L78.365,89.558L78.384,89.51L78.404,89.462L78.426,89.414L78.451,89.366L78.477,89.318L78.504,89.271L78.534,89.224L78.566,89.177L78.599,89.13L78.634,89.083L78.671,89.037L78.709,88.991L78.75,88.945L78.792,88.899L78.836,88.854L78.881,88.808L78.929,88.763L78.978,88.719L79.028,88.674L79.081,88.63L79.135,88.586L79.19,88.542L79.247,88.499L79.306,88.455L79.367,88.413L79.429,88.37L79.492,88.328L79.558,88.286L79.624,88.244L79.693,88.202L79.762,88.161L79.834,88.12L79.907,88.08L79.981,88.04L80.057,88L80.134,87.96L80.213,87.921L80.293,87.882L80.374,87.843L80.457,87.805L80.542,87.767L80.628,87.729L80.715,87.692L80.803,87.655L80.893,87.619L80.985,87.582L81.077,87.547L81.171,87.511L81.266,87.476L81.363,87.441L81.461,87.407L81.56,87.373L81.66,87.339L81.762,87.306L81.865,87.273L81.969,87.241L82.074,87.208L82.18,87.177L82.288,87.145L82.397,87.115L82.507,87.084L82.618,87.054L82.731,87.024L82.844,86.995L82.959,86.966L83.075,86.938L83.192,86.91L83.31,86.882L83.429,86.855L83.549,86.829L83.67,86.802L83.792,86.777L83.916,86.751L84.04,86.727L84.166,86.702L84.292,86.678L84.419,86.655L84.548,86.632L84.677,86.609L84.807,86.587L84.939,86.566L85.071,86.545L85.204,86.524L85.338,86.504L85.473,86.484L85.609,86.465L85.746,86.447L85.883,86.428L86.022,86.411L86.161,86.394L86.301,86.377L86.442,86.361L86.584,86.346L86.726,86.331L86.87,86.317L87.014,86.303L87.158,86.289L87.304,86.277L87.45,86.264L87.597,86.253L87.744,86.242L87.893,86.231L88.042,86.221L88.191,86.212L88.341,86.203L88.492,86.195L88.644,86.187L88.796,86.18L88.948,86.174L89.101,86.168L89.255,86.163L89.409,86.158L89.563,86.154L89.718,86.151L89.874,86.148L90.03,86.146L90.186,86.144L90.343,86.143L90.5,86.143L90.657,86.143L90.814,86.144L90.97,86.146L91.126,86.148L91.282,86.151L91.437,86.154L91.591,86.158L91.745,86.163L91.899,86.168L92.052,86.174L92.204,86.18L92.356,86.187L92.508,86.195L92.659,86.203L92.809,86.212L92.958,86.221L93.107,86.231L93.256,86.242L93.403,86.253L93.55,86.264L93.696,86.277L93.842,86.289L93.986,86.303L94.13,86.317L94.274,86.331L94.416,86.346L94.558,86.361L94.699,86.377L94.839,86.394L94.978,86.411L95.117,86.428L95.254,86.447L95.391,86.465L95.527,86.484L95.662,86.504L95.796,86.524L95.929,86.545L96.061,86.566L96.193,86.587L96.323,86.609L96.452,86.632L96.581,86.655L96.708,86.678L96.834,86.702L96.96,86.727L97.084,86.751L97.208,86.777L97.33,86.802L97.451,86.829L97.571,86.855L97.69,86.882L97.808,86.91L97.925,86.938L98.041,86.966L98.156,86.995L98.269,87.024L98.382,87.054L98.493,87.084L98.603,87.115L98.712,87.145L98.82,87.177L98.926,87.208L99.031,87.241L99.135,87.273L99.238,87.306L99.34,87.339L99.44,87.373L99.539,87.407L99.637,87.441L99.734,87.476L99.829,87.511L99.923,87.547L100.015,87.582L100.107,87.619L100.197,87.655L100.285,87.692L100.372,87.729L100.458,87.767L100.543,87.805L100.626,87.843L100.707,87.882L100.787,87.921L100.866,87.96L100.943,88L101.019,88.04L101.093,88.08L101.166,88.12L101.238,88.161L101.307,88.202L101.376,88.244L101.442,88.286L101.508,88.328L101.571,88.37L101.633,88.413L101.694,88.455L101.753,88.499L101.81,88.542L101.865,88.586L101.919,88.63L101.972,88.674L102.022,88.719L102.071,88.763L102.119,88.808L102.164,88.854L102.208,88.899L102.25,88.945L102.291,88.991L102.329,89.037L102.366,89.083L102.401,89.13L102.434,89.177L102.466,89.224L102.496,89.271L102.523,89.318L102.549,89.366L102.574,89.414L102.596,89.462L102.616,89.51L102.635,89.558L102.651,89.607L102.666,89.655L102.679,89.704L102.69,89.753L102.698,89.802L102.705,89.852L102.71,89.901L102.713,89.95L102.714,90L102.713,90.05ZM99.999,89.961L99.997,89.923L99.993,89.884L99.988,89.846L99.981,89.807L99.972,89.769L99.962,89.731L99.951,89.693L99.938,89.656L99.924,89.618L99.908,89.581L99.89,89.543L99.872,89.506L99.852,89.469L99.83,89.432L99.807,89.396L99.782,89.359L99.757,89.323L99.729,89.287L99.701,89.251L99.671,89.215L99.639,89.179L99.607,89.144L99.573,89.108L99.537,89.073L99.501,89.038L99.462,89.003L99.423,88.969L99.383,88.935L99.341,88.9L99.297,88.866L99.253,88.833L99.207,88.799L99.16,88.766L99.112,88.733L99.063,88.7L99.012,88.667L98.96,88.635L98.907,88.603L98.853,88.571L98.797,88.539L98.741,88.507L98.683,88.476L98.624,88.445L98.564,88.414L98.502,88.384L98.44,88.353L98.377,88.323L98.312,88.293L98.246,88.264L98.18,88.235L98.112,88.206L98.043,88.177L97.973,88.148L97.902,88.12L97.83,88.092L97.756,88.065L97.682,88.037L97.607,88.01L97.531,87.983L97.454,87.957L97.375,87.931L97.296,87.905L97.216,87.879L97.135,87.854L97.053,87.829L96.97,87.804L96.886,87.78L96.801,87.756L96.716,87.732L96.629,87.709L96.541,87.685L96.453,87.663L96.364,87.64L96.274,87.618L96.182,87.596L96.091,87.575L95.998,87.554L95.904,87.533L95.81,87.513L95.715,87.493L95.619,87.473L95.522,87.454L95.425,87.435L95.326,87.416L95.227,87.398L95.127,87.38L95.027,87.362L94.925,87.345L94.823,87.328L94.721,87.312L94.617,87.296L94.513,87.28L94.408,87.265L94.303,87.25L94.196,87.236L94.089,87.222L93.982,87.208L93.874,87.195L93.765,87.182L93.656,87.17L93.546,87.158L93.435,87.146L93.324,87.135L93.212,87.124L93.099,87.114L92.987,87.104L92.873,87.095L92.759,87.085L92.644,87.077L92.529,87.069L92.414,87.061L92.297,87.054L92.181,87.047L92.064,87.041L91.946,87.035L91.828,87.029L91.709,87.024L91.59,87.02L91.471,87.016L91.351,87.012L91.23,87.009L91.11,87.006L90.989,87.004L90.867,87.002L90.745,87.001L90.623,87L90.5,87L90.377,87L90.255,87.001L90.133,87.002L90.011,87.004L89.89,87.006L89.77,87.009L89.649,87.012L89.529,87.016L89.41,87.02L89.291,87.024L89.172,87.029L89.054,87.035L88.936,87.041L88.819,87.047L88.703,87.054L88.586,87.061L88.471,87.069L88.356,87.077L88.241,87.085L88.127,87.095L88.013,87.104L87.901,87.114L87.788,87.124L87.676,87.135L87.565,87.146L87.454,87.158L87.344,87.17L87.235,87.182L87.126,87.195L87.018,87.208L86.911,87.222L86.804,87.236L86.697,87.25L86.592,87.265L86.487,87.28L86.383,87.296L86.279,87.312L86.177,87.328L86.075,87.345L85.973,87.362L85.873,87.38L85.773,87.398L85.674,87.416L85.575,87.435L85.478,87.454L85.381,87.473L85.285,87.493L85.19,87.513L85.096,87.533L85.002,87.554L84.909,87.575L84.818,87.596L84.726,87.618L84.636,87.64L84.547,87.663L84.459,87.685L84.371,87.709L84.284,87.732L84.199,87.756L84.114,87.78L84.03,87.804L83.947,87.829L83.865,87.854L83.784,87.879L83.704,87.905L83.625,87.931L83.546,87.957L83.469,87.983L83.393,88.01L83.318,88.037L83.244,88.065L83.17,88.092L83.098,88.12L83.027,88.148L82.957,88.177L82.888,88.206L82.82,88.235L82.754,88.264L82.688,88.293L82.623,88.323L82.56,88.353L82.498,88.384L82.436,88.414L82.376,88.445L82.317,88.476L82.259,88.507L82.203,88.539L82.147,88.571L82.093,88.603L82.04,88.635L81.988,88.667L81.937,88.7L81.888,88.733L81.84,88.766L81.793,88.799L81.747,88.833L81.703,88.866L81.659,88.9L81.617,88.935L81.577,88.969L81.538,89.003L81.499,89.038L81.463,89.073L81.427,89.108L81.393,89.144L81.361,89.179L81.329,89.215L81.299,89.251L81.271,89.287L81.243,89.323L81.218,89.359L81.193,89.396L81.17,89.432L81.148,89.469L81.128,89.506L81.11,89.543L81.092,89.581L81.076,89.618L81.062,89.656L81.049,89.693L81.038,89.731L81.028,89.769L81.019,89.807L81.012,89.846L81.007,89.884L81.003,89.923L81.001,89.961L81,90L81.001,90.039L81.003,90.077L81.007,90.116L81.012,90.154L81.019,90.193L81.028,90.231L81.038,90.269L81.049,90.307L81.062,90.344L81.076,90.382L81.092,90.419L81.11,90.457L81.128,90.494L81.148,90.531L81.17,90.568L81.193,90.604L81.218,90.641L81.243,90.677L81.271,90.713L81.299,90.749L81.329,90.785L81.361,90.821L81.393,90.856L81.427,90.892L81.463,90.927L81.499,90.962L81.538,90.997L81.577,91.031L81.617,91.065L81.659,91.1L81.703,91.134L81.747,91.167L81.793,91.201L81.84,91.234L81.888,91.267L81.937,91.3L81.988,91.333L82.04,91.365L82.093,91.397L82.147,91.429L82.203,91.461L82.259,91.493L82.317,91.524L82.376,91.555L82.436,91.586L82.498,91.616L82.56,91.647L82.623,91.677L82.688,91.707L82.754,91.736L82.82,91.765L82.888,91.794L82.957,91.823L83.027,91.852L83.098,91.88L83.17,91.908L83.244,91.935L83.318,91.963L83.393,91.99L83.469,92.017L83.546,92.043L83.625,92.069L83.704,92.095L83.784,92.121L83.865,92.146L83.947,92.171L84.03,92.196L84.114,92.22L84.199,92.244L84.284,92.268L84.371,92.291L84.459,92.315L84.547,92.337L84.636,92.36L84.726,92.382L84.818,92.404L84.909,92.425L85.002,92.446L85.096,92.467L85.19,92.487L85.285,92.507L85.381,92.527L85.478,92.546L85.575,92.565L85.674,92.584L85.773,92.602L85.873,92.62L85.973,92.638L86.075,92.655L86.177,92.672L86.279,92.688L86.383,92.704L86.487,92.72L86.592,92.735L86.697,92.75L86.804,92.764L86.911,92.778L87.018,92.792L87.126,92.805L87.235,92.818L87.344,92.83L87.454,92.842L87.565,92.854L87.676,92.865L87.788,92.876L87.901,92.886L88.013,92.896L88.127,92.905L88.241,92.915L88.356,92.923L88.471,92.931L88.586,92.939L88.703,92.946L88.819,92.953L88.936,92.959L89.054,92.965L89.172,92.971L89.291,92.976L89.41,92.98L89.529,92.984L89.649,92.988L89.77,92.991L89.89,92.994L90.011,92.996L90.133,92.998L90.255,92.999L90.377,93L90.5,93L90.623,93L90.745,92.999L90.867,92.998L90.989,92.996L91.11,92.994L91.23,92.991L91.351,92.988L91.471,92.984L91.59,92.98L91.709,92.976L91.828,92.971L91.946,92.965L92.064,92.959L92.181,92.953L92.297,92.946L92.414,92.939L92.529,92.931L92.644,92.923L92.759,92.915L92.873,92.905L92.987,92.896L93.099,92.886L93.212,92.876L93.324,92.865L93.435,92.854L93.546,92.842L93.656,92.83L93.765,92.818L93.874,92.805L93.982,92.792L94.089,92.778L94.196,92.764L94.303,92.75L94.408,92.735L94.513,92.72L94.617,92.704L94.721,92.688L94.823,92.672L94.925,92.655L95.027,92.638L95.127,92.62L95.227,92.602L95.326,92.584L95.425,92.565L95.522,92.546L95.619,92.527L95.715,92.507L95.81,92.487L95.904,92.467L95.998,92.446L96.091,92.425L96.182,92.404L96.274,92.382L96.364,92.36L96.453,92.337L96.541,92.315L96.629,92.291L96.716,92.268L96.801,92.244L96.886,92.22L96.97,92.196L97.053,92.171L97.135,92.146L97.216,92.121L97.296,92.095L97.375,92.069L97.454,92.043L97.531,92.017L97.607,91.99L97.682,91.963L97.756,91.935L97.83,91.908L97.902,91.88L97.973,91.852L98.043,91.823L98.112,91.794L98.18,91.765L98.246,91.736L98.312,91.707L98.377,91.677L98.44,91.647L98.502,91.616L98.564,91.586L98.624,91.555L98.683,91.524L98.741,91.493L98.797,91.461L98.853,91.429L98.907,91.397L98.96,91.365L99.012,91.333L99.063,91.3L99.112,91.267L99.16,91.234L99.207,91.201L99.253,91.167L99.297,91.134L99.341,91.1L99.383,91.065L99.423,91.031L99.462,90.997L99.501,90.962L99.537,90.927L99.573,90.892L99.607,90.856L99.639,90.821L99.671,90.785L99.701,90.749L99.729,90.713L99.757,90.677L99.782,90.641L99.807,90.604L99.83,90.568L99.852,90.531L99.872,90.494L99.89,90.457L99.908,90.419L99.924,90.382L99.938,90.344L99.951,90.307L99.962,90.269L99.972,90.231L99.981,90.193L99.988,90.154L99.993,90.116L99.997,90.077L99.999,90.039L100,90L99.999,89.961Z" style="fill:white;"/>
    </g>
    <g transform="matrix(-2,-2.44929e-16,1.00198e-16,-0.818182,511,340.727)">
        <rect x="231" y="249" width="1" height="66" style="fill:white;"/>
    </g>
    <g transform="matrix(-2,-2.44929e-16,1.02054e-16,-0.833333,511,287.5)">
        <rect x="231" y="249" width="1" height="66" style="fill:white;"/>
    </g>
    <g transform="matrix(-2,-2.44929e-16,1.02054e-16,-0.833333,487,287.5)">
        <rect x="231" y="249" width="1" height="66" style="fill:white;"/>
    </g>
    <g transform="matrix(-2,-2.44929e-16,2.57918e-16,-2.10606,483,688.409)">
        <rect x="231" y="249" width="1" height="66" style="fill:white;"/>
    </g>
    <g transform="matrix(-2,-2.44929e-16,2.57918e-16,-2.10606,475,688.909)">
        <rect x="231" y="249" width="1" height="66" style="fill:white;"/>
    </g>
    <g transform="matrix(1.22465e-16,-2,0.393939,2.41218e-17,-75.0909,627)">
        <rect x="231" y="249" width="1" height="66" style="fill:white;"/>
    </g>
    <g transform="matrix(6.12323e-17,-1,1,6.12323e-17,-242,255)">
        <path d="M252,270C252,256.193 240.807,245 227,245C191.84,245 128.16,245 93,245C79.193,245 68,256.193 68,270C68,277.738 68,286.262 68,294C68,307.807 79.193,319 93,319C128.16,319 191.84,319 227,319C240.807,319 252,307.807 252,294C252,286.262 252,277.738 252,270ZM246,269C246,264.226 244.104,259.648 240.728,256.272C237.352,252.896 232.774,251 228,251C194.967,251 125.033,251 92,251C87.226,251 82.648,252.896 79.272,256.272C75.896,259.648 74,264.226 74,269C74,277.176 74,286.824 74,295C74,299.774 75.896,304.352 79.272,307.728C82.648,311.104 87.226,313 92,313C125.033,313 194.967,313 228,313C232.774,313 237.352,311.104 240.728,307.728C244.104,304.352 246,299.774 246,295C246,286.824 246,277.176 246,269Z" style="fill:white;"/>
    </g>
</svg>
