<?xml version="1.0" encoding="UTF-8" standalone="no"?><!DOCTYPE svg PUBLIC "-//W3C//DTD SVG 1.1//EN" "http://www.w3.org/Graphics/SVG/1.1/DTD/svg11.dtd"><svg width="100%" height="100%" viewBox="0 0 34 39" version="1.1" xmlns="http://www.w3.org/2000/svg" xmlns:xlink="http://www.w3.org/1999/xlink" xml:space="preserve" xmlns:serif="http://www.serif.com/" style="fill-rule:evenodd;clip-rule:evenodd;stroke-linejoin:round;stroke-miterlimit:1.41421;"><g><path d="M3.733,18.177l8.765,0l0,2.273l-8.765,0l0,9.934l-2.825,0l0,-22.368l13.181,0l-0.325,2.337l-10.031,0l0,7.824Z" style="fill:#fff;fill-rule:nonzero;"/><path d="M24.64,7.659c1.364,0 2.565,0.254 3.604,0.762c1.039,0.509 1.84,1.191 2.402,2.046c0.563,0.855 0.845,1.791 0.845,2.808c0,1.299 -0.422,2.43 -1.267,3.393c-0.844,0.963 -1.872,1.563 -3.084,1.802c1.407,0.108 2.603,0.638 3.588,1.59c0.984,0.953 1.477,2.251 1.477,3.896c0,1.277 -0.325,2.435 -0.974,3.474c-0.649,1.039 -1.564,1.851 -2.743,2.435c-1.18,0.584 -2.527,0.876 -4.042,0.876c-1.321,0 -2.592,-0.248 -3.815,-0.746c-1.223,-0.498 -2.235,-1.234 -3.036,-2.208l1.818,-1.493c0.606,0.714 1.348,1.26 2.224,1.639c0.877,0.379 1.791,0.568 2.744,0.568c1.558,0 2.775,-0.405 3.652,-1.217c0.877,-0.812 1.315,-1.921 1.315,-3.328c0,-2.835 -1.548,-4.253 -4.643,-4.253l-1.85,0l0.324,-2.175l1.332,0c1.168,0 2.164,-0.33 2.986,-0.99c0.823,-0.66 1.234,-1.629 1.234,-2.906c0,-1.19 -0.395,-2.115 -1.185,-2.776c-0.79,-0.66 -1.802,-0.99 -3.035,-0.99c-0.931,0 -1.759,0.163 -2.484,0.487c-0.725,0.325 -1.477,0.844 -2.256,1.559l-1.494,-1.656c1.818,-1.732 3.939,-2.597 6.363,-2.597Z" style="fill:#fff;fill-rule:nonzero;"/></g></svg>