<?xml version="1.0" encoding="UTF-8" standalone="no"?><!DOCTYPE svg PUBLIC "-//W3C//DTD SVG 1.1//EN" "http://www.w3.org/Graphics/SVG/1.1/DTD/svg11.dtd"><svg width="100%" height="100%" viewBox="0 0 34 39" version="1.1" xmlns="http://www.w3.org/2000/svg" xmlns:xlink="http://www.w3.org/1999/xlink" xml:space="preserve" xmlns:serif="http://www.serif.com/" style="fill-rule:evenodd;clip-rule:evenodd;stroke-linejoin:round;stroke-miterlimit:1.41421;"><g><path d="M3.733,18.177l8.765,0l0,2.273l-8.765,0l0,9.934l-2.825,0l0,-22.368l13.181,0l-0.325,2.337l-10.031,0l0,7.824Z" style="fill:#fff;fill-rule:nonzero;"/><path d="M31.328,10.223l-8.831,0l0,7.045c0.628,-0.368 1.25,-0.622 1.867,-0.763c0.617,-0.14 1.272,-0.211 1.964,-0.211c1.862,0 3.35,0.617 4.464,1.851c1.115,1.233 1.672,2.954 1.672,5.162c0,1.471 -0.308,2.77 -0.925,3.895c-0.617,1.126 -1.499,1.997 -2.646,2.614c-1.147,0.617 -2.478,0.925 -3.993,0.925c-2.489,0 -4.654,-0.887 -6.493,-2.662l1.688,-1.656c1.364,1.385 2.965,2.078 4.805,2.078c1.493,0 2.651,-0.454 3.474,-1.364c0.822,-0.909 1.233,-2.218 1.233,-3.928c0,-1.688 -0.368,-2.905 -1.104,-3.652c-0.735,-0.747 -1.72,-1.12 -2.954,-1.12c-0.584,0 -1.115,0.054 -1.591,0.162c-0.476,0.108 -1.103,0.303 -1.883,0.585l-2.207,0l0,-11.168l11.849,0l-0.389,2.207Z" style="fill:#fff;fill-rule:nonzero;"/></g></svg>