<?xml version="1.0" encoding="UTF-8" standalone="no"?><!DOCTYPE svg PUBLIC "-//W3C//DTD SVG 1.1//EN" "http://www.w3.org/Graphics/SVG/1.1/DTD/svg11.dtd"><svg width="100%" height="100%" viewBox="0 0 34 39" version="1.1" xmlns="http://www.w3.org/2000/svg" xmlns:xlink="http://www.w3.org/1999/xlink" xml:space="preserve" xmlns:serif="http://www.serif.com/" style="fill-rule:evenodd;clip-rule:evenodd;stroke-linejoin:round;stroke-miterlimit:1.41421;"><g><path d="M3.733,18.177l8.765,0l0,2.273l-8.765,0l0,9.934l-2.825,0l0,-22.368l13.181,0l-0.325,2.337l-10.031,0l0,7.824Z" style="fill:#fff;fill-rule:nonzero;"/><path d="M26.62,15.84c1.169,0 2.235,0.259 3.198,0.779c0.963,0.519 1.726,1.304 2.289,2.354c0.563,1.049 0.844,2.342 0.844,3.879c0,1.602 -0.314,3.003 -0.941,4.204c-0.628,1.202 -1.472,2.116 -2.533,2.744c-1.06,0.627 -2.251,0.941 -3.571,0.941c-2.597,0 -4.485,-0.941 -5.665,-2.824c-1.179,-1.883 -1.769,-4.578 -1.769,-8.084c0,-2.467 0.33,-4.616 0.99,-6.444c0.66,-1.829 1.612,-3.242 2.857,-4.237c1.244,-0.996 2.732,-1.494 4.464,-1.494c1.623,0 3.106,0.444 4.447,1.332l-1.071,1.818c-1.06,-0.628 -2.197,-0.942 -3.409,-0.942c-1.688,0 -3.019,0.806 -3.993,2.419c-0.974,1.612 -1.482,3.793 -1.526,6.541c0.693,-1.038 1.483,-1.796 2.37,-2.272c0.888,-0.476 1.894,-0.714 3.019,-0.714Zm-0.714,12.693c1.385,0 2.441,-0.492 3.166,-1.477c0.725,-0.984 1.087,-2.353 1.087,-4.106c0,-3.269 -1.32,-4.903 -3.961,-4.903c-1.038,0 -1.975,0.282 -2.808,0.844c-0.833,0.563 -1.542,1.331 -2.126,2.305c0.043,2.554 0.433,4.416 1.168,5.584c0.736,1.169 1.894,1.753 3.474,1.753Z" style="fill:#fff;fill-rule:nonzero;"/></g></svg>