<?xml version="1.0" encoding="UTF-8" standalone="no"?><!DOCTYPE svg PUBLIC "-//W3C//DTD SVG 1.1//EN" "http://www.w3.org/Graphics/SVG/1.1/DTD/svg11.dtd"><svg width="100%" height="100%" viewBox="0 0 34 39" version="1.1" xmlns="http://www.w3.org/2000/svg" xmlns:xlink="http://www.w3.org/1999/xlink" xml:space="preserve" xmlns:serif="http://www.serif.com/" style="fill-rule:evenodd;clip-rule:evenodd;stroke-linejoin:round;stroke-miterlimit:1.41421;"><path id="path7857" d="M17.952,6.68l-0.006,-0.018l-2.497,-3.575c-0.08,-0.112 -0.144,-0.238 -0.189,-0.375c-0.244,-0.741 0.159,-1.54 0.9,-1.784c0.294,-0.096 0.597,-0.092 0.87,-0.004l15.661,4.601l-9.864,13.005c-0.168,0.233 -0.409,0.417 -0.703,0.513c-0.741,0.244 -1.539,-0.159 -1.783,-0.9c-0.045,-0.137 -0.068,-0.276 -0.071,-0.413l-0.113,-4.272c-6.899,1.048 -12.186,7.005 -12.186,14.197l0,9.888l-7.062,0l0,-9.888c0,-10.331 7.312,-18.953 17.043,-20.975" style="fill:#fff;fill-rule:nonzero;"/></svg>