<?xml version="1.0" encoding="UTF-8" standalone="no"?><!DOCTYPE svg PUBLIC "-//W3C//DTD SVG 1.1//EN" "http://www.w3.org/Graphics/SVG/1.1/DTD/svg11.dtd"><svg width="100%" height="100%" viewBox="0 0 512 512" version="1.1" xmlns="http://www.w3.org/2000/svg" xmlns:xlink="http://www.w3.org/1999/xlink" xml:space="preserve" xmlns:serif="http://www.serif.com/" style="fill-rule:evenodd;clip-rule:evenodd;stroke-linejoin:round;stroke-miterlimit:1.41421;"><path d="M232.495,365.689l0,70.515l23.505,0l7.835,-70.515l-31.34,0Z" style="fill:#134a79;fill-rule:nonzero;"/><g><rect x="256" y="365.689" width="23.505" height="70.515" style="fill:#092339;"/><rect x="326.515" y="365.689" width="47.01" height="70.515" style="fill:#092339;"/></g><rect x="138.475" y="365.689" width="47.01" height="70.515" style="fill:#134a79;"/><path d="M257.607,365.689l14.063,-137.112l-15.67,-152.781l-0.783,0l-179.421,303.996l0,1.567l74.432,0l11.753,-15.67l11.752,15.67l70.514,0l13.36,-15.67Z" style="fill:#bfbfbf;fill-rule:nonzero;"/><path d="M256.783,75.796l-0.783,0l0,289.893l11.753,15.67l70.514,0l11.752,-15.67l11.753,15.67l74.432,0l0,-1.567l-179.421,-303.996Z" style="fill:#9c9c9c;fill-rule:nonzero;"/><rect x="338.267" y="326.515" width="23.505" height="54.845" style="fill:#a4c6e2;"/><rect x="244.247" y="326.515" width="23.505" height="54.845" style="fill:#d2e3f1;"/><g><rect x="244.247" y="277.421" width="23.505" height="23.505" style="fill:#134a79;"/><rect x="291.257" y="277.421" width="23.505" height="23.505" style="fill:#134a79;"/></g><rect x="197.238" y="277.421" width="23.505" height="23.505" style="fill:#1d71b8;"/><rect x="150.228" y="326.515" width="23.505" height="54.845" style="fill:#d2e3f1;"/><path d="M255.388,167.994l-42.544,72.081l43.156,0l7.835,-36.041l-7.835,-36.04l-0.612,0Z" style="fill:#fff;fill-rule:nonzero;"/><path d="M256.612,167.994l-0.612,0l0,72.081l43.156,0l-42.544,-72.081Z" style="fill:#fac15c;fill-rule:nonzero;"/></svg>