<?xml version="1.0" encoding="UTF-8" standalone="no"?>
<!DOCTYPE svg PUBLIC "-//W3C//DTD SVG 1.1//EN" "http://www.w3.org/Graphics/SVG/1.1/DTD/svg11.dtd">
<svg width="100%" height="100%" viewBox="0 0 128 128" version="1.1" xmlns="http://www.w3.org/2000/svg" xmlns:xlink="http://www.w3.org/1999/xlink" xml:space="preserve" style="fill-rule:evenodd;clip-rule:evenodd;stroke-linejoin:round;stroke-miterlimit:1.41421;">
    <g transform="matrix(1.09375,0,0,1.09375,-6,-6)">
        <g id="Template">
            <g id="Layer1">
                <g id="EngineControl">
                    <path d="M128,0L128,128L0,128L0,0L128,0ZM64,19C39.187,19 19,39.187 19,64C19,88.813 39.187,109 64,109C88.813,109 109,88.813 109,64C109,39.187 88.813,19 64,19ZM64,104C41.944,104 24,86.056 24,64C24,41.944 41.944,24 64,24C86.056,24 104,41.944 104,64C104,86.056 86.056,104 64,104ZM64.106,26.5C73.137,26.525 81.425,29.76 87.893,35.118C88.059,35.23 88.212,35.361 88.35,35.514C91.508,38.218 94.212,41.435 96.333,45.037C96.441,45.186 96.536,45.345 96.61,45.519C98.657,49.117 100.123,53.082 100.887,57.292C100.891,57.307 100.892,57.322 100.895,57.336C101.285,59.501 101.5,61.725 101.5,64C101.5,70.733 99.708,77.051 96.588,82.519C96.514,82.686 96.425,82.847 96.314,82.998C94.191,86.595 91.486,89.806 88.328,92.505C88.19,92.654 88.039,92.793 87.864,92.907C81.378,98.27 73.064,101.498 64.01,101.5C64.009,101.5 64.008,101.5 64.008,101.5L64.003,101.501C64.002,101.501 64.002,101.501 64.001,101.501C63.998,101.501 63.995,101.5 63.992,101.5C59.511,101.499 55.212,100.706 51.225,99.257C51.222,99.256 51.219,99.255 51.216,99.254C47.087,97.752 43.296,95.543 39.986,92.776C39.89,92.702 39.797,92.627 39.711,92.538C36.518,89.816 33.787,86.57 31.65,82.933C31.563,82.81 31.488,82.68 31.424,82.541C29.359,78.927 27.88,74.941 27.112,70.707C27.109,70.694 27.108,70.679 27.105,70.666C26.715,68.501 26.5,66.276 26.5,64C26.5,57.267 28.292,50.949 31.412,45.481C31.486,45.314 31.575,45.153 31.687,45.003C33.81,41.406 36.515,38.195 39.673,35.496C39.811,35.347 39.962,35.208 40.137,35.094C46.625,29.728 54.943,26.5 64,26.5L64.106,26.5ZM56.121,95.529C59.537,90.506 62.017,84.87 63.431,78.971C63.499,78.974 63.566,78.98 63.635,78.981C64.284,84.823 63.801,90.785 62.174,96.445C60.099,96.33 58.076,96.018 56.121,95.529ZM68.587,78.276C68.653,78.255 68.716,78.227 68.782,78.205C71.39,83.472 72.974,89.239 73.382,95.114C71.45,95.698 69.444,96.11 67.38,96.324C68.871,90.439 69.274,84.3 68.587,78.276ZM45.821,90.927C50.743,87.378 54.996,82.936 58.339,77.882C58.403,77.908 58.469,77.928 58.533,77.953C57.145,83.664 54.652,89.1 51.188,93.863C49.301,93.051 47.504,92.068 45.821,90.927ZM73.187,75.832C73.241,75.79 73.297,75.752 73.35,75.71C77.601,79.766 81.061,84.641 83.454,90.019C81.825,91.24 80.076,92.309 78.232,93.212C77.618,87.169 75.896,81.259 73.187,75.832ZM37.716,83.084C43.557,81.431 49.074,78.708 53.945,75.1C53.995,75.145 54.044,75.191 54.094,75.236C50.839,80.126 46.641,84.38 41.762,87.67C40.276,86.272 38.92,84.737 37.716,83.084ZM87.356,86.565C84.714,81.103 81.077,76.145 76.68,71.977C76.716,71.92 76.75,71.861 76.785,71.804C82.167,74.161 87.087,77.558 91.175,81.794C90.053,83.504 88.773,85.1 87.356,86.565ZM32.763,72.949C33.977,73.038 35.194,73.083 36.41,73.083C41.256,73.083 46.09,72.358 50.734,70.981C50.769,71.047 50.799,71.116 50.835,71.181C46.105,74.659 40.706,77.219 34.998,78.64C34.082,76.832 33.331,74.929 32.763,72.949ZM78.657,67.165C78.672,67.097 78.69,67.03 78.703,66.961C84.564,67.337 90.345,68.848 95.632,71.43C95.16,73.44 94.502,75.378 93.675,77.226C89.326,72.997 84.214,69.581 78.657,67.165ZM64,74C58.486,74 54,69.514 54,64C54,58.486 58.486,54 64,54C69.514,54 74,58.486 74,64C74,69.514 69.514,74 64,74ZM49.156,66.042C49.165,66.109 49.176,66.175 49.187,66.241C43.547,67.895 37.591,68.455 31.735,67.836C31.585,66.577 31.5,65.299 31.5,64C31.5,63.23 31.537,62.469 31.589,61.712C37.128,64.203 43.103,65.675 49.156,66.042ZM65.77,65.77C66.23,65.3 66.5,64.66 66.5,64C66.5,63.34 66.229,62.7 65.77,62.23C64.831,61.3 63.17,61.3 62.23,62.23C61.77,62.7 61.5,63.34 61.5,64C61.5,64.66 61.77,65.3 62.229,65.77C62.7,66.23 63.34,66.5 64,66.5C64.66,66.5 65.3,66.23 65.77,65.77ZM78.845,61.961C78.836,61.893 78.824,61.827 78.814,61.759C84.455,60.105 90.411,59.545 96.266,60.163C96.415,61.423 96.5,62.701 96.5,64C96.5,64.768 96.464,65.526 96.411,66.281C90.874,63.792 84.895,62.329 78.845,61.961ZM34.325,50.773C38.674,55.003 43.787,58.419 49.343,60.834C49.328,60.902 49.31,60.969 49.297,61.037C43.436,60.661 37.654,59.151 32.368,56.569C32.839,54.559 33.497,52.621 34.325,50.773ZM95.239,55.058C89.186,54.613 83.071,55.282 77.259,57.005C77.227,56.944 77.198,56.88 77.165,56.819C81.895,53.341 87.294,50.781 93.002,49.36C93.919,51.17 94.67,53.075 95.239,55.058ZM40.644,41.435C43.286,46.897 46.923,51.855 51.32,56.023C51.284,56.08 51.25,56.139 51.215,56.196C45.833,53.839 40.913,50.442 36.825,46.206C37.947,44.496 39.227,42.9 40.644,41.435ZM90.284,44.916C84.443,46.569 78.926,49.292 74.055,52.9C74.005,52.855 73.956,52.809 73.906,52.764C77.161,47.874 81.359,43.62 86.238,40.33C87.724,41.728 89.08,43.263 90.284,44.916ZM54.813,52.168C54.759,52.21 54.703,52.248 54.65,52.29C50.399,48.234 46.939,43.359 44.546,37.981C46.175,36.76 47.924,35.691 49.768,34.788C50.382,40.831 52.104,46.741 54.813,52.168ZM82.179,37.073C77.257,40.622 73.004,45.064 69.661,50.118C69.597,50.092 69.531,50.072 69.467,50.047C70.855,44.336 73.348,38.9 76.812,34.137C78.699,34.949 80.496,35.932 82.179,37.073ZM59.413,49.724C59.347,49.745 59.284,49.773 59.218,49.795C56.61,44.528 55.026,38.761 54.618,32.886C56.55,32.302 58.556,31.89 60.62,31.676C59.129,37.561 58.726,43.7 59.413,49.724ZM71.879,32.471C68.463,37.494 65.983,43.13 64.569,49.029C64.501,49.026 64.434,49.02 64.365,49.019C63.716,43.177 64.199,37.215 65.826,31.555C67.901,31.67 69.924,31.982 71.879,32.471Z"/>
                </g>
            </g>
        </g>
    </g>
</svg>
