<?xml version="1.0" encoding="UTF-8" standalone="no"?>
<!DOCTYPE svg PUBLIC "-//W3C//DTD SVG 1.1//EN" "http://www.w3.org/Graphics/SVG/1.1/DTD/svg11.dtd">
<svg width="100%" height="100%" viewBox="0 0 128 128" version="1.1" xmlns="http://www.w3.org/2000/svg" xmlns:xlink="http://www.w3.org/1999/xlink" xml:space="preserve" style="fill-rule:evenodd;clip-rule:evenodd;stroke-linejoin:round;stroke-miterlimit:1.41421;">
    <g id="Template">
        <g id="PowerDistributionBattery">
            <path d="M128,0L128,128L0,128L0,0L128,0ZM84.305,36.07C85.609,36.12 86.889,36.349 88.116,36.801C91.391,38.01 94.039,40.658 95.248,43.933C95.7,45.16 95.929,46.44 95.979,47.744C96.118,58.602 96.118,69.462 95.979,80.32C95.929,81.624 95.7,82.904 95.248,84.131C94.039,87.405 91.391,90.054 88.116,91.262C86.889,91.715 85.609,91.944 84.305,91.994C79.955,92.05 75.604,91.997 71.253,91.997C70.96,91.985 70.885,91.991 70.595,91.943C70.161,91.87 69.739,91.726 69.352,91.516C67.971,90.769 67.142,89.236 67.272,87.672C67.308,87.233 67.418,86.801 67.594,86.398C67.771,85.994 68.015,85.621 68.314,85.297C68.837,84.728 69.524,84.319 70.272,84.129C70.598,84.047 70.919,84.021 71.253,84.007C75.569,84.007 79.888,84.168 84.201,84.002C84.594,83.976 84.979,83.903 85.349,83.766C86.448,83.36 87.345,82.463 87.751,81.364C87.9,80.962 87.974,80.542 87.991,80.114C88.129,69.36 88.401,58.596 87.987,47.848C87.962,47.455 87.888,47.07 87.751,46.7C87.345,45.6 86.448,44.704 85.349,44.298C84.947,44.149 84.527,44.075 84.1,44.058C81.402,44.024 78.705,44.057 76.007,44.057C75.673,44.043 75.352,44.017 75.026,43.934C74.278,43.745 73.591,43.336 73.068,42.767C72.005,41.613 71.718,39.894 72.349,38.457C72.526,38.053 72.77,37.68 73.068,37.356C73.366,37.032 73.718,36.758 74.106,36.548C74.493,36.338 74.915,36.193 75.35,36.121C75.64,36.073 75.714,36.079 76.007,36.066C78.773,36.066 81.539,36.035 84.305,36.07ZM41.141,36.08C41.431,36.116 41.506,36.117 41.791,36.189C42.54,36.378 43.227,36.787 43.75,37.356C44.048,37.68 44.292,38.053 44.469,38.457C45.1,39.894 44.813,41.613 43.75,42.767C43.452,43.091 43.1,43.365 42.712,43.575C42.325,43.785 41.903,43.93 41.468,44.002C41.178,44.05 41.104,44.044 40.811,44.057C36.495,44.057 32.176,43.896 27.863,44.062C27.47,44.087 27.085,44.161 26.714,44.298C25.615,44.704 24.718,45.6 24.313,46.7C24.164,47.102 24.089,47.522 24.073,47.949C23.935,58.704 23.663,69.468 24.077,80.216C24.102,80.609 24.176,80.994 24.313,81.364C24.718,82.463 25.615,83.36 26.714,83.766C27.117,83.914 27.536,83.989 27.964,84.006C30.661,84.04 33.359,84.007 36.057,84.007C36.391,84.021 36.711,84.047 37.037,84.129C37.786,84.319 38.473,84.728 38.996,85.297C39.294,85.621 39.538,85.994 39.715,86.398C40.345,87.835 40.059,89.553 38.996,90.708C38.697,91.032 38.345,91.306 37.958,91.516C37.571,91.726 37.149,91.87 36.714,91.943C36.424,91.991 36.349,91.985 36.057,91.997C33.291,91.997 30.525,92.029 27.759,91.994C26.454,91.944 25.174,91.715 23.948,91.262C20.673,90.054 18.025,87.405 16.816,84.131C16.363,82.904 16.135,81.624 16.085,80.32C15.945,69.462 15.945,58.602 16.085,47.744C16.135,46.44 16.363,45.16 16.816,43.933C18.025,40.658 20.673,38.01 23.948,36.801C25.174,36.349 26.454,36.12 27.759,36.07C32.219,36.013 36.684,35.896 41.141,36.08ZM51.511,60.037L63.351,42.278C63.642,41.807 63.86,41.317 63.959,40.77C64.255,39.124 63.462,37.424 62.011,36.594C61.446,36.271 60.837,36.119 60.193,36.07C59.918,36.068 59.92,36.068 59.648,36.084C59.375,36.12 59.111,36.163 58.847,36.245C58.238,36.433 57.677,36.768 57.223,37.215C57.026,37.409 56.863,37.622 56.703,37.845C51.326,45.91 45.682,53.803 40.581,62.045C40.325,62.527 40.142,63.025 40.078,63.57C39.888,65.21 40.76,66.839 42.229,67.59C42.718,67.84 43.234,67.963 43.777,68.018L44.047,68.027L60.552,68.027L48.713,85.786C48.373,86.336 48.137,86.918 48.066,87.564C48.006,88.107 48.059,88.661 48.22,89.182C48.628,90.503 49.722,91.539 51.062,91.877C51.415,91.965 51.78,92.006 52.143,91.996C52.598,91.984 53.05,91.893 53.475,91.73C54.069,91.5 54.606,91.128 55.028,90.65C55.189,90.469 55.22,90.415 55.361,90.218C60.737,82.154 66.381,74.26 71.483,66.019C71.738,65.536 71.922,65.039 71.985,64.493C72.176,62.854 71.304,61.225 69.834,60.474C69.345,60.224 68.829,60.101 68.286,60.046L68.017,60.037L51.511,60.037ZM108.08,56.043C108.53,56.062 108.971,56.143 109.392,56.304C110.483,56.721 111.353,57.616 111.739,58.717C111.875,59.108 111.944,59.512 111.961,59.925C112,62.7 112.073,65.478 111.956,68.251C111.914,68.851 111.756,69.432 111.464,69.959C111.265,70.319 111.011,70.648 110.712,70.93C109.608,71.974 107.962,72.301 106.543,71.759C106.089,71.586 105.668,71.33 105.306,71.006C104.915,70.657 104.595,70.232 104.368,69.76C104.123,69.251 103.998,68.702 103.974,68.139C103.935,65.364 103.862,62.585 103.979,59.813C104.008,59.401 104.088,58.999 104.235,58.612C104.611,57.629 105.376,56.82 106.336,56.39C106.713,56.221 107.111,56.119 107.52,56.067C107.707,56.049 107.892,56.041 108.08,56.043Z"/>
        </g>
    </g>
</svg>
