<?xml version="1.0" encoding="UTF-8" standalone="no"?>
<!DOCTYPE svg PUBLIC "-//W3C//DTD SVG 1.1//EN" "http://www.w3.org/Graphics/SVG/1.1/DTD/svg11.dtd">
<svg width="100%" height="100%" viewBox="0 0 128 128" version="1.1" xmlns="http://www.w3.org/2000/svg" xmlns:xlink="http://www.w3.org/1999/xlink" xml:space="preserve" style="fill-rule:evenodd;clip-rule:evenodd;stroke-linejoin:round;stroke-miterlimit:1.41421;">
    <g id="Template">
        <g id="ProbeConstruction">
            <path d="M128,0L128,128L0,128L0,0L128,0ZM50.291,62.396L52.4,64.506C46.248,70.93 42.165,76.191 32.458,90.13L32.512,92.389L32.065,93.493L31.173,94.371L30.763,94.658L26.313,96.769L27.808,98.265L27.584,98.707L29.218,100.341L29.606,100.136L31.108,101.632L33.242,97.136C33.743,96.418 33.792,96.458 34.406,95.835L35.511,95.387L37.769,95.441L56.405,82.464L63.382,75.487L65.503,77.608L58.432,84.679L58.229,84.849L39.081,98.183L38.188,98.452L36.088,98.402L35.843,98.651L32.714,105.246L30.298,105.664L28.529,103.894L28.443,103.33L27.88,103.245L24.695,100.06L24.599,99.458L23.997,99.362L22.236,97.601L22.653,95.185L29.248,92.056L29.497,91.811L29.447,89.712L29.716,88.819L43.05,69.67L43.22,69.467L50.291,62.396ZM82.811,71.36L82.811,73.481L74.093,82.199L71.972,82.199L45.802,56.029L45.802,53.908L54.52,45.191L56.641,45.191C65.364,53.914 74.087,62.637 82.811,71.36ZM48.984,54.969L73.033,79.017L79.629,72.421L55.649,48.439C55.649,48.439 49.389,54.564 48.984,54.969ZM63.008,49.679L67.218,45.469L68.222,45.03L76.373,44.719L76.73,44.355L78.923,38.55C78.886,38.365 78.887,38.366 78.853,38.18C78.783,37.762 78.727,37.342 78.693,36.919C78.61,35.863 78.651,34.798 78.815,33.752C79.035,32.342 79.481,30.968 80.132,29.697C81.138,27.733 82.632,26.027 84.443,24.766C85.307,24.163 86.243,23.663 87.224,23.279C88.237,22.883 89.297,22.61 90.375,22.468C90.857,22.404 91.341,22.37 91.827,22.355C91.989,22.352 92.151,22.351 92.312,22.352C92.907,22.363 93.499,22.405 94.087,22.49C95.436,22.685 96.755,23.084 97.984,23.673C99.62,24.457 101.09,25.575 102.289,26.937C103.433,28.235 104.322,29.752 104.893,31.386C105.447,32.971 105.701,34.658 105.641,36.336C105.587,37.854 105.276,39.362 104.722,40.777C104.256,41.969 103.618,43.093 102.834,44.105C101.719,45.545 100.314,46.758 98.723,47.645C97.008,48.602 95.086,49.174 93.127,49.315C91.833,49.408 90.533,49.31 89.264,49.039L89.213,49.028L83.544,51.17L83.18,51.527L82.869,59.677L82.431,60.681L78.22,64.891L76.099,62.77L79.893,58.975L80.205,50.816C80.355,50.478 80.436,50.101 80.654,49.803C81.195,49.059 81.539,48.89 82.189,48.475L88.585,46.058L90.204,46.43L89.487,46.008C89.625,46.044 89.764,46.077 89.903,46.108C90.04,46.137 90.178,46.165 90.316,46.19C91.311,46.361 92.326,46.397 93.33,46.284C94.65,46.136 95.94,45.736 97.111,45.108C98.45,44.39 99.627,43.376 100.542,42.163C101.115,41.405 101.582,40.568 101.929,39.684C102.359,38.583 102.601,37.41 102.643,36.229C102.688,34.965 102.505,33.695 102.103,32.497C101.675,31.224 101,30.039 100.125,29.021C99.205,27.948 98.071,27.062 96.804,26.435C95.853,25.965 94.831,25.642 93.784,25.478C93.326,25.407 92.866,25.368 92.403,25.354C92.277,25.352 92.151,25.351 92.025,25.352C91.646,25.359 91.269,25.381 90.893,25.427C90.054,25.527 89.227,25.729 88.437,26.027C87.672,26.316 86.942,26.694 86.266,27.153C84.529,28.331 83.16,30.028 82.387,31.981C82.042,32.854 81.815,33.774 81.713,34.707C81.624,35.527 81.631,36.357 81.735,37.175C81.784,37.562 81.857,37.944 81.945,38.324L81.887,39.193L79.424,45.71L79.092,46.231C78.211,47.128 78.233,47.185 77.083,47.694L68.924,48.006C67.571,49.358 66.307,50.616 65.122,51.793L63.008,49.679Z"/>
        </g>
    </g>
</svg>
