<svg xmlns="http://www.w3.org/2000/svg" fill-rule="evenodd" clip-rule="evenodd" viewBox="0 0 96 86"><defs/><path fill="#dcddde" stroke="#231f20" stroke-width=".12" d="M4.62 32.05h86.76v42.51H4.62z"/><path fill="#dcddde" stroke="#231f20" stroke-width=".12" d="M4.53 5.19h86.76V32.1H4.53z"/><path fill="none" stroke="#231f20" stroke-width=".12" d="M72.27 25.9a.3.3 0 01-.3.3H5.78a.3.3 0 01-.3-.3V14.28c0-.16.14-.3.3-.3h66.2c.17 0 .3.14.3.3V25.9zm17.69 46.37a.3.3 0 01-.3.29H74.72a.3.3 0 01-.3-.3V60.65c0-.16.14-.3.3-.3h14.94c.16 0 .3.14.3.3v11.63zm0-14.91a.3.3 0 01-.3.3H74.72a.3.3 0 01-.3-.3v-4.7c0-.16.14-.3.3-.3h14.94c.16 0 .3.13.3.3v4.7z"/><path fill="#dcddde" fill-rule="nonzero" stroke="#231f20" stroke-width=".12" d="M4.62.54C3.15.58 2.32.56 2 .56c-.32 0-.68.13-.73.69C-1.06 27.93.5 72.5.61 74.55a64 64 0 001.06 10.31c.2.58.69.56.96.57l1.99.03V.54zM91.38.54c1.47.04 2.3.02 2.62.02.32 0 .68.13.72.69 2.34 26.68.78 71.26.67 73.3 0 2.94-.59 8.2-1.06 10.31-.2.58-.69.56-.97.57l-1.98.03V.54z"/><path fill="#dcddde" fill-rule="nonzero" stroke="#231f20" stroke-width=".12" d="M4.62.54L3.38.58s-1-.06-1.15 1.4C1.92 4.95.72 19.02 2.12 30.63c.14 1.19 1.25 1.4 1.52 1.4l.98.02V.54zM91.38.54l1.24.04s1-.06 1.15 1.4c.31 2.97 1.52 17.04.11 28.65-.14 1.19-1.25 1.4-1.52 1.4l-.98.02V.54z"/><path fill="#dcddde" stroke="#231f20" stroke-width=".12" d="M4.62 74.57h86.76v10.87H4.62zM4.62.54h86.76v4.63H4.62z"/><path fill="#231f20" fill-rule="nonzero" d="M80.83 57.1h.13c.04 0 .06-.02.07-.03.02 0 .02-.03.02-.07 0-.04 0-.07-.02-.08 0-.01-.03-.02-.07-.02h-.13v.2m-.1.25v-.54h.23c.08 0 .13.02.15.04.03.02.05.07.05.15 0 .07-.02.12-.05.15-.03.02-.08.03-.15.03h-.13v.17h-.1zM81.32 57.09h.14c.04 0 .07 0 .08-.02l.02-.08c0-.04 0-.06-.02-.07-.01-.01-.03-.02-.07-.02h-.15v.19m.16.09h-.16v.17h-.1v-.54h.28c.06 0 .1.02.12.04.03.02.04.06.04.13l-.01.1c-.02.02-.04.04-.09.05.04 0 .06.02.08.04l.02.08v.1h-.1v-.1c0-.05-.03-.07-.08-.07M81.84 56.9v.14h.25v.08h-.25v.15h.27v.08h-.37v-.54h.37v.1h-.27zM82.17 57.18h.1v.03c0 .03.01.05.03.05a.3.3 0 00.1.01l.08-.01c.02-.01.02-.03.02-.07l-.01-.05-.04-.02h-.17l-.08-.05c-.02-.02-.03-.06-.03-.1 0-.08.02-.12.06-.14a.41.41 0 01.17-.02c.07 0 .11 0 .14.02.04.02.06.06.06.12v.02h-.1v-.02c0-.02-.02-.04-.03-.05a.2.2 0 00-.07 0h-.1c-.02.01-.02.03-.02.06s0 .05.02.06l.1.02c.08 0 .14.01.16.03.03.02.05.06.05.12 0 .08-.02.12-.06.14-.02.02-.08.03-.15.03a.5.5 0 01-.16-.02c-.05-.02-.07-.06-.07-.13v-.03M82.78 56.9v.14h.25v.08h-.25v.15h.27v.08h-.38v-.54h.37v.1h-.27zM83.34 56.9v.45h-.1v-.45h-.16v-.09h.42v.1h-.16zM78.31 57.43l-.59-.31.6-.3v.6zM86.08 56.81l.6.31-.6.3v-.6zM77.35 48.91v.14h.26v.08h-.26v.15h.27v.08h-.37v-.54h.37v.1h-.27zM77.8 49.28h.18c.03 0 .05-.02.07-.04a.17.17 0 00.02-.09v-.13c0-.04 0-.07-.02-.09l-.09-.02h-.15v.37m-.1.08v-.54h.25c.08 0 .13.02.16.05.04.03.05.08.05.15v.13c0 .07 0 .12-.03.15-.03.04-.09.06-.16.06h-.28z"/><path fill="#231f20" d="M78.25 48.82h.1v.54h-.1z"/><path fill="#231f20" fill-rule="nonzero" d="M78.67 48.91v.45h-.1v-.45h-.17v-.09h.42v.1h-.15zM85.73 48.92v.13H86v.09h-.25v.14H86v.1h-.37v-.55H86v.09h-.27zM86.54 48.83l-.17.26.18.28h-.12l-.14-.23-.14.23h-.12l.18-.28-.16-.26h.12l.12.21.13-.21h.12z"/><path fill="#231f20" d="M86.59 48.83h.1v.54h-.1z"/><path fill="#231f20" fill-rule="nonzero" d="M87 48.92v.45h-.1v-.45h-.16v-.1h.42v.1H87zM85.29 42.88v.46h.25v.09h-.36v-.55h.1zM85.69 42.97v.14h.25v.08h-.25v.15h.27v.09h-.38v-.55h.37v.1h-.26zM86.34 43.25l-.1-.28-.09.28h.19m.02.08h-.23l-.03.1h-.11l.18-.55h.15l.18.55h-.1l-.04-.1zM86.65 43.16h.14c.04 0 .06 0 .07-.02.02-.01.02-.04.02-.08 0-.03 0-.06-.02-.07 0-.01-.03-.02-.07-.02h-.14v.19m.16.09h-.16v.18h-.1v-.55h.27c.06 0 .1.02.13.04.02.02.04.07.04.13 0 .05 0 .08-.02.1-.01.03-.04.04-.08.05.04 0 .06.02.07.04.02.02.02.04.02.09v.1h-.1v-.1c0-.06-.02-.08-.07-.08M87.48 43.34l-.01-.46h.1v.55h-.17l-.23-.46v.46h-.1v-.55h.17l.23.46zM76.84 43.26h.1v.02c0 .03.02.05.03.06a.3.3 0 00.1.01c.05 0 .08 0 .09-.02l.02-.06c0-.02 0-.04-.02-.05l-.04-.02h-.06l-.11-.01a.12.12 0 01-.08-.04c-.02-.02-.02-.06-.02-.11 0-.07.02-.11.06-.13a.4.4 0 01.16-.02c.07 0 .12 0 .14.02.04.02.06.06.06.12v.02h-.1v-.02c0-.03-.01-.04-.02-.05a.2.2 0 00-.08 0h-.1l-.02.06c0 .03 0 .05.02.06l.1.01c.09 0 .15.02.17.03.03.02.04.07.04.13 0 .07-.02.12-.05.14-.03.02-.08.03-.16.03a.5.5 0 01-.16-.02c-.04-.02-.07-.07-.07-.14v-.02M77.57 42.98v.45h-.1v-.45h-.16v-.09h.42v.09h-.16zM77.99 42.97c-.06 0-.1.01-.1.03-.02 0-.03.04-.03.08v.15c0 .05.01.09.03.1.01.01.04.02.1.02.05 0 .08 0 .1-.02.02-.02.02-.05.02-.1v-.15c0-.05 0-.07-.02-.09l-.1-.02m0-.08c.08 0 .14 0 .17.03.04.03.06.08.06.16v.15c0 .08-.02.14-.06.17-.03.02-.09.04-.17.04-.1 0-.15-.02-.18-.04-.03-.03-.05-.09-.05-.17v-.15c0-.08.02-.13.05-.16.03-.02.09-.03.18-.03M78.4 43.16h.13l.08-.01.02-.08c0-.04 0-.06-.02-.08l-.07-.01h-.15v.19m.16.08h-.16v.18h-.1v-.54h.28c.06 0 .1.01.12.04.03.02.04.06.04.12l-.01.1c-.02.03-.04.05-.08.06.03 0 .05.01.07.03l.02.1v.1h-.1v-.1c0-.06-.03-.09-.08-.09M78.91 42.98v.14h.26v.08h-.26v.14h.27v.1h-.37v-.55h.37v.09h-.27zM23.38 72.11v-.21H23.55c.03-.02.05-.04.05-.09l-.02-.1-.14-.02c-.06 0-.1 0-.11.02-.03.01-.04.05-.04.1v.03h-.27v-.04c0-.14.04-.23.11-.28a.7.7 0 01.33-.05c.12 0 .21.01.27.04.1.04.14.13.14.25 0 .15-.05.23-.17.24v.01c.12 0 .18.09.18.24 0 .13-.04.21-.12.26a.61.61 0 01-.3.06.74.74 0 01-.32-.05c-.1-.05-.14-.14-.14-.28v-.06h.28v.03c0 .06.02.1.04.11.02.02.07.02.12.02.07 0 .11 0 .13-.02.03-.01.04-.05.04-.1s0-.07-.03-.09c-.02-.01-.06-.02-.14-.02h-.07M31.9 72.14v-.44l-.33.44h.33m.28-.66v.66h.1v.2h-.1v.22h-.28v-.21h-.56v-.31l.41-.56h.43zM39.74 72.24H40c0 .05.02.07.04.09l.1.01c.07 0 .11 0 .13-.02.02-.01.04-.06.04-.12 0-.08-.01-.12-.03-.14-.02-.02-.06-.03-.14-.03a.6.6 0 00-.1 0 .07.07 0 00-.04.05h-.25v-.6h.79v.2H40v.21a.24.24 0 01.1-.06l.14-.02c.13 0 .22.03.27.09.05.05.07.14.07.27 0 .16-.03.27-.1.33-.06.05-.17.07-.34.07-.14 0-.24-.02-.3-.06-.07-.05-.1-.14-.11-.27M48.5 72.13l-.1.01c-.03.01-.04.04-.04.08 0 .05.01.09.03.1.02.01.05.02.11.02.08 0 .13 0 .15-.02.02-.01.03-.05.03-.1s-.02-.07-.04-.08a.46.46 0 00-.14-.01m.46-.32h-.27c0-.06-.02-.09-.04-.1a.29.29 0 00-.12-.02c-.07 0-.11 0-.13.02-.02.02-.04.06-.04.13v.17c.02-.05.05-.08.08-.1l.12-.01c.14 0 .24.02.3.05.06.04.1.13.1.26 0 .14-.04.24-.11.3-.06.04-.17.06-.32.06-.18 0-.3-.03-.35-.08-.06-.06-.09-.18-.09-.36v-.27c0-.16.03-.27.1-.32.06-.05.18-.07.34-.07.15 0 .24.01.3.04.09.04.13.12.13.25v.05zM57.27 71.48v.24l-.36.84h-.3l.36-.84h-.52v-.24h.82zM65.24 71.9c.07 0 .1 0 .13-.02.02-.01.02-.04.02-.1 0-.03 0-.06-.02-.07-.02-.01-.06-.02-.13-.02a.3.3 0 00-.1.01c-.03.02-.04.05-.04.1s0 .07.03.09l.11.01m0 .21l-.12.01c-.03.02-.04.05-.04.1 0 .06 0 .09.03.1l.13.02c.08 0 .13 0 .15-.02l.02-.1c0-.05 0-.08-.03-.09-.02-.01-.06-.02-.14-.02m0 .46a.72.72 0 01-.3-.05c-.1-.05-.14-.13-.14-.26 0-.07.02-.12.05-.17a.18.18 0 01.15-.08V72a.23.23 0 01-.14-.09.29.29 0 01-.04-.16c0-.12.05-.2.13-.24a.72.72 0 01.3-.04c.14 0 .23.01.3.04.08.04.12.13.12.25 0 .08-.01.13-.03.16-.03.03-.07.06-.14.08v.01c.13.02.19.1.19.25 0 .13-.05.22-.13.26a.76.76 0 01-.32.05M15.51 72.33v.23h-.85v-.23c0-.12.02-.2.06-.25a.78.78 0 01.32-.12c.1-.02.15-.03.17-.05.02-.01.03-.04.03-.1 0-.05-.02-.09-.04-.1a.27.27 0 00-.12-.02c-.06 0-.1 0-.12.02-.02.02-.03.05-.03.1v.06h-.27v-.05c0-.14.03-.24.1-.29.07-.04.17-.06.32-.06s.25.02.31.05c.08.05.12.15.12.29 0 .11-.02.2-.06.24-.04.04-.12.08-.24.1-.07.03-.15.05-.22.06-.04.02-.06.06-.06.12h.58M7.01 71.48v1.08h-.29v-.83l-.27.26-.17-.19.4-.32H7z"/><path fill="none" stroke="#231f20" stroke-linecap="round" stroke-linejoin="round" stroke-width=".12" d="M72.27 33.48v39.08M64 33.48v39.08m-8.37-39.08v39.08m-8.35-39.08v39.08m-8.36-39.08v39.08m-8.36-39.08v39.08M22.2 33.48v39.08M5.48 33.48v39.08m8.36-39.08v39.08"/><path fill="#feffff" fill-rule="nonzero" d="M89.66 25.61a.3.3 0 01-.3.3H75.02a.3.3 0 01-.3-.3v-.96c0-.16.14-.3.3-.3h14.36c.16 0 .29.14.29.3v.96M89.66 71.97a.3.3 0 01-.3.3H75.02a.3.3 0 01-.3-.3v-.96c0-.16.14-.3.3-.3h14.36c.16 0 .29.14.29.3v.96M89.66 66.03a.3.3 0 01-.3.3H75.02a.3.3 0 01-.3-.3v-.96c0-.16.14-.3.3-.3h14.36c.16 0 .29.14.29.3v.96M89.66 19.67a.3.3 0 01-.3.3H75.02a.3.3 0 01-.3-.3v-.96c0-.16.14-.3.3-.3h14.36c.16 0 .29.14.29.3v.96"/><path fill="none" stroke="#231f20" stroke-width=".12" d="M89.95 25.9a.3.3 0 01-.29.3H74.72a.3.3 0 01-.3-.3V14.28c0-.16.14-.3.3-.3h14.94c.16 0 .3.14.3.3V25.9zM89.95 49.38a.3.3 0 01-.29.3H74.72a.3.3 0 01-.3-.3V38.74c0-.16.14-.3.3-.3h14.94c.16 0 .3.14.3.3v10.64z"/><path fill="#feffff" fill-rule="nonzero" d="M71.98 25.61a.3.3 0 01-.3.3H6.06a.3.3 0 01-.29-.3v-.96c0-.16.13-.3.3-.3h65.62c.16 0 .29.14.29.3v.96M71.98 19.68a.3.3 0 01-.3.29H6.06a.3.3 0 01-.29-.3v-.96c0-.16.13-.3.3-.3h65.62c.16 0 .29.14.29.3v.96"/><path fill="#dcddde" d="M78.35 13.66h7.45v.72h-7.45z"/><path fill="#231f20" fill-rule="nonzero" d="M78.76 13.8v.13h.25v.09h-.25v.14h.27v.09h-.37v-.54h.37v.09h-.27zM79.52 14.16l-.01-.45h.1v.54h-.17l-.23-.45v.45h-.1v-.54h.17l.23.45zM80.13 13.89h-.1v-.03c0-.03 0-.05-.02-.06h-.1l-.1.01-.02.1v.13c0 .05 0 .09.02.1.02.02.05.02.1.02h.1c.02-.02.02-.04.02-.08v-.03h.1v.04c0 .05 0 .09-.02.11a.11.11 0 01-.08.04l-.11.01c-.1 0-.16 0-.2-.04-.02-.03-.03-.09-.03-.17v-.13c0-.08.02-.14.05-.17.03-.02.1-.04.18-.04a.4.4 0 01.15.02c.04.02.06.07.06.14v.03M80.42 13.8l-.1.01c-.02.02-.02.04-.02.09v.15c0 .05 0 .08.02.1l.1.01c.05 0 .08 0 .1-.02.02-.01.03-.04.03-.1v-.14c0-.05-.01-.08-.03-.1h-.1m0-.1c.09 0 .14.01.17.04.04.02.06.08.06.16v.15c0 .08-.02.14-.05.16-.03.03-.1.04-.18.04-.09 0-.15 0-.17-.03-.04-.03-.06-.09-.06-.17v-.15c0-.08.02-.13.05-.16.03-.03.1-.04.18-.04M80.83 14.16H81c.03 0 .06-.01.07-.04a.16.16 0 00.02-.08v-.13c0-.05 0-.08-.02-.1l-.09-.01h-.15v.36m-.1.09v-.54h.25c.08 0 .13.01.17.04.03.03.05.09.05.16v.13c0 .06-.02.11-.04.14-.03.05-.08.07-.16.07h-.27zM81.37 13.8v.13h.25v.09h-.25v.14h.27v.09h-.38v-.54h.38v.09h-.27zM81.82 13.98h.14c.04 0 .06 0 .07-.02.02 0 .02-.03.02-.07l-.01-.08-.08-.01h-.14v.18m.16.1h-.16v.17h-.1v-.54h.27c.06 0 .1.01.13.03.02.03.04.07.04.13 0 .05 0 .08-.02.1-.01.03-.04.05-.08.05.04 0 .06.02.08.04l.01.09v.1h-.1v-.1c0-.05-.02-.08-.07-.08M82.7 13.96h.24v.1c0 .08 0 .13-.04.16-.03.02-.1.03-.19.03s-.15 0-.18-.04c-.04-.02-.06-.08-.06-.17v-.13c0-.08.02-.14.06-.17.03-.03.1-.04.18-.04h.12c.04.01.07.03.09.05.02.02.03.07.02.12h-.1c0-.04 0-.06-.03-.07a.27.27 0 00-.1 0l-.11.01-.02.1v.13c0 .06 0 .1.02.1.02.02.05.02.11.02h.1c.02-.02.03-.05.03-.1v-.02h-.13v-.08M83.12 13.98h.14c.04 0 .06 0 .08-.02 0 0 .02-.03.02-.07l-.02-.08-.07-.01h-.15v.18m.16.1h-.16v.17h-.1v-.54h.28c.06 0 .1.01.12.03.03.03.04.07.04.13 0 .05 0 .08-.02.1-.01.03-.04.05-.08.05.04 0 .06.02.08.04l.02.09v.1h-.1v-.1c0-.05-.03-.08-.08-.08M83.75 13.8l-.1.01c-.02.02-.02.04-.02.09v.15c0 .05 0 .08.02.1l.1.01c.05 0 .09 0 .1-.02.02-.01.03-.04.03-.1v-.14c0-.05-.01-.08-.03-.1h-.1m0-.1c.09 0 .15.01.18.04.03.02.05.08.05.16v.15c0 .08-.01.14-.05.16-.03.03-.1.04-.18.04-.09 0-.14 0-.17-.03-.04-.03-.06-.09-.06-.17v-.15c0-.08.02-.13.05-.16.04-.03.1-.04.18-.04M84.4 13.7h.11v.4c0 .06-.02.1-.06.13a.38.38 0 01-.17.02c-.07 0-.13 0-.16-.02-.04-.02-.06-.07-.06-.14v-.38h.1v.38c0 .03.01.05.03.06l.1.01h.1l.02-.07v-.38M84.7 13.98h.14l.07-.01.02-.08c0-.04-.01-.06-.02-.07-.01-.02-.03-.02-.07-.02h-.14v.18m-.1.27v-.54h.24c.07 0 .12.01.15.03.03.03.04.08.04.15 0 .08-.02.13-.04.15-.03.02-.08.03-.15.03h-.14v.18h-.1zM85.08 14.08h.1v.02c0 .03 0 .05.02.06h.2l.01-.07-.01-.05-.04-.02h-.07l-.1-.01c-.04 0-.07-.02-.08-.04-.02-.03-.03-.06-.03-.11 0-.07.02-.11.06-.14a.4.4 0 01.16-.02c.07 0 .12 0 .14.02.04.02.06.06.06.13v.02h-.1v-.02c0-.03 0-.05-.02-.05l-.08-.01-.1.01-.02.06c0 .03 0 .05.02.06l.1.01c.1 0 .15.02.17.03.03.02.04.06.04.13s-.01.11-.05.14c-.03.02-.08.02-.16.02l-.16-.01c-.04-.02-.06-.07-.06-.14v-.02"/><path fill="none" stroke="#231f20" stroke-width=".12" d="M72.45 9.44h.6c.16 0 .3.14.3.3v9.16c0 .16.13.3.29.3h.79"/><path fill="#231f20" fill-rule="nonzero" d="M75.32 34.09v-.05c0-.03-.01-.05-.03-.06a.1.1 0 00-.06-.02h-.59v-.17h.59c.06 0 .09-.03.09-.08v-.05c0-.05-.03-.08-.1-.08h-.65v.6h.66c.06 0 .09-.03.09-.1m.17 0a.26.26 0 01-.26.25l-.82.01v-.93h.82c.07 0 .13.02.18.07.05.05.08.11.08.18v.05c0 .06-.02.12-.07.16l.06.1v.12"/><path fill="#231f20" d="M75.7 33.8h.64v.15h-.64z"/><path fill="#231f20" fill-rule="nonzero" d="M77.6 34.34h-.78a.25.25 0 01-.18-.07.23.23 0 01-.08-.18v-.43c0-.07.02-.13.08-.18a.26.26 0 01.18-.07h.78v.17h-.78a.1.1 0 00-.06.02.08.08 0 00-.03.06v.43c0 .05.03.08.09.08h.78v.17M78.68 34.09v-.43a.08.08 0 00-.03-.06.09.09 0 00-.06-.02h-.56a.1.1 0 00-.06.02.08.08 0 00-.03.06v.43c0 .05.03.08.1.08h.55c.06 0 .1-.02.1-.08m.16 0c0 .07-.03.13-.08.18a.26.26 0 01-.18.07h-.56a.27.27 0 01-.18-.07.24.24 0 01-.07-.18v-.43c0-.07.02-.13.07-.18a.26.26 0 01.18-.07h.56c.07 0 .13.02.18.07.05.05.08.11.08.18v.43zM80.11 34.09c0 .07-.02.13-.07.18a.26.26 0 01-.18.07h-.12a.26.26 0 01-.18-.07.24.24 0 01-.08-.18v-.43c0-.05-.03-.08-.09-.08h-.11c-.06 0-.1.02-.1.08v.68h-.16v-.68c0-.07.02-.13.08-.18a.25.25 0 01.18-.07h.11a.25.25 0 01.26.25v.43c0 .05.03.08.1.08h.1c.07 0 .1-.02.1-.08v-.68h.16v.68M81.33 33.58h-.43v.76h-.17v-.76h-.42v-.17h1.02v.17zM82.6 34.34h-.18v-.3c0-.03 0-.05-.02-.06a.1.1 0 00-.07-.02h-.6v-.17h.6c.06 0 .1-.03.1-.08v-.05c0-.05-.04-.08-.1-.08h-.65v.76h-.17v-.93h.82c.08 0 .14.02.19.07.05.05.07.11.07.18v.05c0 .06-.02.12-.06.16.04.05.06.1.06.17v.3M83.7 34.09v-.43c0-.02 0-.04-.02-.06a.1.1 0 00-.06-.02h-.56c-.02 0-.04 0-.06.02a.08.08 0 00-.03.06v.43c0 .05.03.08.09.08h.56c.06 0 .09-.02.09-.08m.17 0c0 .07-.03.13-.08.18a.26.26 0 01-.18.07h-.56a.26.26 0 01-.18-.07.23.23 0 01-.08-.18v-.43c0-.07.03-.13.08-.18a.26.26 0 01.18-.07h.56c.06 0 .12.02.18.07.05.05.08.11.08.18v.43zM84.98 34.34h-.66a.26.26 0 01-.18-.07.24.24 0 01-.08-.18v-.68h.17v.68c0 .05.03.08.1.08h.65v.17"/><path fill="#231f20" fill-rule="nonzero" stroke="#231f20" stroke-linecap="round" stroke-linejoin="round" stroke-width=".12" d="M74.45 34.8l.7.42-.7.42v-.85z"/><path fill="none" stroke="#231f20" stroke-width=".07" d="M82.14 35.68h-.17l.06-.3-.01-.06a.1.1 0 00-.07-.02h-.54l.03-.17H82c.06 0 .1-.02.11-.08l.01-.05c.01-.05-.01-.08-.08-.08h-.68l-.17.76h-.17l.2-.93h.86c.08 0 .14.03.18.07.04.05.05.11.04.18l-.01.05a.3.3 0 01-.1.17c.03.05.04.1.03.16l-.07.3zm-1.37 0h-.82a.22.22 0 01-.17-.07c-.05-.05-.06-.1-.05-.18l.1-.43a.3.3 0 01.11-.17.34.34 0 01.2-.08h.83l-.04.17h-.82c-.02 0-.04 0-.07.02A.1.1 0 0080 35l-.03.13h.92l-.04.17h-.91l-.03.13c-.01.06.01.08.08.08h.82l-.04.17zm-1.45-.25l.1-.43-.03-.06a.08.08 0 00-.06-.02h-.69l-.12.6h.69c.06 0 .1-.03.11-.09zm.18 0a.3.3 0 01-.12.18.33.33 0 01-.2.07h-.87l.2-.93h.86c.07 0 .13.02.17.08.05.04.06.1.05.17l-.1.43zm-1.43.25h-.19l-.02-.38h-.4l.08-.17h.31V35c0-.05-.03-.08-.08-.08h-.21c-.05 0-.09.03-.12.08l-.31.68h-.2l.33-.68c.07-.16.18-.25.32-.25h.24c.14 0 .21.09.22.25l.03.68zm-1.29-.38h-.91l-.09.38h-.17l.14-.68a.3.3 0 01.13-.17.33.33 0 01.2-.08h.82l-.04.17h-.82c-.02 0-.04 0-.07.02l-.04.06-.03.13h.92l-.04.17z"/><path fill="#231f20" fill-rule="nonzero" d="M75.1 37.37v-.04c0-.02 0-.04-.02-.05a.08.08 0 00-.05-.01h-.46v-.14h.46c.05 0 .07-.02.07-.06v-.04c0-.04-.02-.06-.07-.06h-.5v.46h.5c.05 0 .07-.02.07-.06m.13 0c0 .05-.02.1-.06.14a.2.2 0 01-.14.05h-.64v-.72h.64c.06 0 .1.02.14.06.04.03.06.08.06.13v.04c0 .05-.02.1-.05.13.02.02.04.05.04.08l.01.09M76.18 37.56h-.6a.2.2 0 01-.15-.05.18.18 0 01-.05-.14v-.34c0-.05.02-.1.06-.13a.2.2 0 01.14-.06h.6v.13h-.6c-.02 0-.04 0-.05.02a.06.06 0 00-.03.04v.34c0 .04.03.06.08.06h.6v.13M77.12 37.27h-.67v.29h-.13v-.53c0-.05.02-.1.06-.13a.2.2 0 01.14-.06h.6v.13h-.6c-.02 0-.04 0-.05.02a.06.06 0 00-.02.04v.1h.67v.14M77.87 37.56h-.44a.2.2 0 01-.14-.06.18.18 0 01-.06-.13v-.04c0-.06.02-.1.06-.14a.21.21 0 01.14-.06h.23c.05 0 .08-.02.08-.06v-.04l-.02-.04-.05-.02h-.4v-.13h.4c.05 0 .1.02.14.06.04.04.06.08.06.13v.04c0 .06-.02.1-.06.14a.2.2 0 01-.14.05h-.24c-.05 0-.07.02-.07.07v.04c0 .01 0 .03.02.04.02.02.03.02.05.02h.44v.13M78.54 37.37v-.34L78.5 37a.08.08 0 00-.04-.02h-.26c-.02 0-.04 0-.05.02a.06.06 0 00-.02.04v.34c0 .04.02.06.07.06h.26c.04 0 .07-.02.07-.06m.13 0c0 .05-.02.1-.06.14a.2.2 0 01-.14.05h-.26a.2.2 0 01-.14-.05.18.18 0 01-.06-.14v-.34c0-.05.02-.1.06-.13a.19.19 0 01.14-.06h.26c.05 0 .1.02.14.06.04.04.06.08.06.13v.34zM79.34 37.37v-.34c0-.01 0-.03-.02-.04a.07.07 0 00-.05-.02h-.26c-.01 0-.03 0-.05.02a.06.06 0 00-.02.04v.34c0 .04.03.06.07.06h.26c.05 0 .07-.02.07-.06m.13 0c0 .05-.02.1-.05.14a.2.2 0 01-.15.05h-.26a.2.2 0 01-.14-.05.18.18 0 01-.06-.14v-.34c0-.05.02-.1.07-.13a.19.19 0 01.13-.06h.26c.06 0 .1.02.14.06.04.04.06.08.06.13v.34zM80.15 37.37v-.34c0-.01 0-.03-.02-.04a.07.07 0 00-.05-.02h-.26c-.02 0-.03 0-.05.02a.06.06 0 00-.02.04v.34c0 .04.02.06.07.06h.26c.05 0 .07-.02.07-.06m.13 0c0 .05-.02.1-.06.14a.2.2 0 01-.14.05h-.26a.2.2 0 01-.14-.05.19.19 0 01-.06-.14v-.34c0-.05.02-.1.06-.13a.2.2 0 01.14-.06h.26c.05 0 .1.02.14.06.04.04.06.08.06.13v.34zM75.23 73.95a.2.2 0 01-.2.2h-.42a.2.2 0 01-.14-.05.2.2 0 01-.06-.15v-.55h.13v.55c0 .05.02.07.07.07h.42c.05 0 .07-.02.07-.07v-.55h.13v.55M76.15 73.54h-.6c-.02 0-.03 0-.05.02a.07.07 0 00-.02.05v.04c0 .04.02.06.07.06h.4c.06 0 .1.02.14.06a.2.2 0 01.06.15v.03a.2.2 0 01-.06.15.2.2 0 01-.14.06h-.6v-.14h.6c.02 0 .03 0 .05-.02a.06.06 0 00.02-.05v-.03c0-.05-.02-.07-.07-.07h-.4a.2.2 0 01-.2-.2v-.04c0-.06.02-.1.06-.14a.19.19 0 01.14-.06h.6v.13M76.96 73.95v-.04l-.02-.05a.1.1 0 00-.05-.01h-.45v-.14h.45c.04 0 .07-.02.07-.06v-.04c0-.05-.03-.07-.07-.07h-.5v.48h.5c.04 0 .07-.02.07-.07m.13 0a.2.2 0 01-.06.15.2.2 0 01-.14.06h-.63v-.75h.63c.05 0 .1.02.14.05a.2.2 0 01.05.15v.04a.2.2 0 01-.04.13.2.2 0 01.04.08v.1M77.66 73.78a.2.2 0 01-.06.14.2.2 0 01-.14.06.2.2 0 01-.14-.06.2.2 0 010-.28.2.2 0 01.14-.06c.06 0 .1.02.14.06a.2.2 0 01.06.14M78.93 74.16h-.13v-.55c0-.05-.02-.07-.07-.07h-.09c-.05 0-.07.02-.07.07v.34a.2.2 0 01-.05.15.2.2 0 01-.15.06.2.2 0 01-.14-.06.19.19 0 01-.05-.15v-.34c0-.05-.03-.07-.07-.07H78c-.04 0-.06.02-.06.07v.55h-.13v-.55c0-.06.02-.11.06-.15a.19.19 0 01.14-.05h.09c.05 0 .1.02.14.05.03.04.05.09.05.15v.34c0 .05.03.07.08.07.04 0 .06-.02.06-.07v-.34c0-.06.02-.11.06-.15a.19.19 0 01.14-.05h.09c.05 0 .1.02.14.05.04.04.06.09.06.15v.55"/><path fill="#231f20" d="M79.06 73.41h.13v.75h-.13z"/><path fill="#231f20" fill-rule="nonzero" d="M80.01 73.95v-.34c0-.02 0-.03-.02-.05a.06.06 0 00-.05-.02h-.5v.48h.5c.05 0 .07-.02.07-.07m.13 0a.2.2 0 01-.06.15.2.2 0 01-.14.06h-.63v-.75h.63c.05 0 .1.02.14.05a.2.2 0 01.06.15v.34z"/><path fill="#231f20" d="M80.26 73.41h.13v.75h-.13z"/><path fill="#231f20" fill-rule="nonzero" d="M80.97 73.78a.2.2 0 01-.2.2.2.2 0 01-.14-.06.19.19 0 01-.06-.14c0-.05.02-.1.06-.14a.2.2 0 01.14-.06.2.2 0 01.2.2M81.94 74.16h-.6a.2.2 0 01-.2-.2v-.35c0-.06.02-.1.06-.15a.2.2 0 01.14-.05h.6v.13h-.6c-.02 0-.03 0-.05.02a.06.06 0 00-.02.05v.34c0 .05.03.07.07.07h.6v.14M82.74 73.95v-.34c0-.02 0-.03-.02-.05a.07.07 0 00-.05-.02h-.42c-.02 0-.03 0-.05.02a.07.07 0 00-.02.05v.34c0 .05.02.07.07.07h.42c.05 0 .07-.02.07-.07m.13 0a.2.2 0 01-.06.15.2.2 0 01-.14.06h-.42a.2.2 0 01-.2-.2v-.35c0-.06.02-.1.06-.15a.2.2 0 01.14-.05h.42c.05 0 .1.02.14.05a.2.2 0 01.06.15v.34zM83.81 73.95a.2.2 0 01-.05.15.2.2 0 01-.14.06h-.09a.2.2 0 01-.14-.06.2.2 0 01-.06-.15v-.34c0-.05-.02-.07-.07-.07h-.09c-.04 0-.06.02-.06.07v.55h-.13v-.55c0-.06.02-.11.05-.15a.2.2 0 01.14-.05h.1c.05 0 .1.02.13.05.04.04.06.09.06.15v.34c0 .05.02.07.07.07h.09c.04 0 .07-.02.07-.07v-.55h.12v.55M84.72 73.54h-.33v.62h-.13v-.62h-.32v-.14h.78v.14zM85.66 74.16h-.13v-.25c0-.02 0-.03-.02-.05a.09.09 0 00-.05-.01H85v-.14h.46c.05 0 .07-.02.07-.06v-.04c0-.05-.02-.07-.07-.07h-.5v.62h-.13v-.75h.63c.06 0 .1.02.14.05a.2.2 0 01.06.15v.04a.2.2 0 01-.05.13.2.2 0 01.05.13v.25M86.49 73.95v-.34c0-.02 0-.03-.02-.05a.07.07 0 00-.05-.02H86c-.02 0-.04 0-.05.02a.06.06 0 00-.03.05v.34c0 .05.03.07.08.07h.42c.05 0 .07-.02.07-.07m.13 0a.2.2 0 01-.06.15.2.2 0 01-.14.06H86a.2.2 0 01-.2-.2v-.35c0-.06.02-.1.06-.15a.2.2 0 01.14-.05h.42c.05 0 .1.02.14.05a.2.2 0 01.06.15v.34zM87.44 74.16h-.5a.2.2 0 01-.14-.06.2.2 0 01-.06-.15v-.55h.13v.55c0 .05.02.07.07.07h.5v.14M88.25 74.16h-.5a.2.2 0 01-.14-.06.2.2 0 01-.06-.15v-.55h.13v.55c0 .05.02.07.07.07h.5v.14M89.16 74.16h-.6a.2.2 0 01-.2-.2v-.35c0-.06.03-.1.07-.15a.19.19 0 01.13-.05h.6v.13h-.6c-.01 0-.03 0-.04.02a.06.06 0 00-.02.05v.1h.66v.14h-.66v.1c0 .05.02.07.06.07h.6v.14M90.1 74.16h-.14v-.25c0-.02 0-.03-.02-.05a.09.09 0 00-.05-.01h-.46v-.14h.46c.05 0 .07-.02.07-.06v-.04c0-.05-.02-.07-.07-.07h-.5v.62h-.12v-.75h.63a.2.2 0 01.2.2v.04a.2.2 0 01-.06.13.2.2 0 01.05.13v.25M12.55 12.76v.45h-.1v-.45h-.14v-.09h.38v.1h-.14zM13.16 12.67l-.18.34v.2h-.1v-.2l-.17-.34h.1l.12.23.12-.23h.11zM13.3 12.95h.13c.03 0 .05 0 .06-.02.02 0 .02-.03.02-.07l-.01-.08-.07-.02h-.12v.19m-.1.26v-.54h.22c.07 0 .11.01.14.04.02.02.03.07.03.15 0 .07 0 .12-.04.15-.02.02-.06.03-.13.03h-.12v.17h-.1zM13.78 12.76v.14h.23v.08h-.23v.14h.24v.1h-.33v-.55h.33v.1h-.24zM21.1 12.85H21v-.03c0-.03 0-.05-.02-.05l-.08-.01c-.05 0-.08 0-.1.02l-.01.1V13c0 .06 0 .1.02.1 0 .02.04.03.09.03l.08-.01c.02-.01.03-.04.03-.07v-.03h.09v.04a.2.2 0 01-.03.1.1.1 0 01-.07.05h-.1c-.09.01-.14 0-.17-.04-.03-.03-.04-.08-.04-.17v-.12c0-.08.02-.14.05-.17.03-.03.08-.04.16-.04.07 0 .12 0 .14.02.04.02.05.06.05.13v.03M21.6 12.67v.54h-.09v-.23h-.23v.23h-.09v-.54h.1v.22h.22v-.22h.1zM29.16 12.95h.12c.03 0 .06 0 .07-.02l.01-.07-.01-.08-.07-.02h-.12v.19m-.1.26v-.54h.22c.07 0 .11.01.14.04.02.02.03.07.03.15 0 .07 0 .12-.04.15-.02.02-.06.03-.13.03h-.12v.17h-.1zM29.82 13.03l-.09-.28-.08.28h.17m.02.08h-.21l-.03.1h-.1l.16-.54h.14l.16.54h-.09l-.03-.1zM30.12 12.95h.13c.03 0 .05 0 .07-.02l.01-.08-.01-.07-.07-.02h-.13v.19m.15.09h-.15v.17h-.1v-.54h.26c.05 0 .09.01.11.04.02.02.03.06.03.12a.3.3 0 010 .1c-.02.03-.05.05-.08.06.03 0 .05.01.07.03l.01.1v.1h-.1v-.1c0-.06-.01-.08-.05-.08M37.74 12.67h.1l-.16.54h-.14l-.16-.54h.1l.13.46.13-.46zM38.17 13.03l-.08-.28-.09.28h.17m.02.08h-.21l-.03.1h-.1l.16-.54h.14l.17.54h-.1l-.03-.1zM38.48 12.67v.46h.23v.08h-.33v-.54h.1zM39.31 12.67v.54h-.09v-.45l-.12.14-.06-.06.16-.17h.11zM46.1 12.67h.1l-.16.54h-.14l-.16-.54h.1l.13.46.13-.46zM46.53 13.03l-.08-.28-.09.28h.17m.02.08h-.21l-.03.1h-.1l.16-.54h.14l.17.54h-.1l-.03-.1zM46.84 12.67v.46h.22v.08h-.32v-.54h.1zM47.76 13.13v.08h-.37v-.1c0-.06.01-.1.04-.13a.31.31 0 01.12-.04l.07-.01c.02 0 .03-.02.04-.03v-.07l-.01-.06c-.01-.01-.03-.02-.07-.02-.05 0-.07 0-.08.02-.02 0-.02.04-.02.1h-.09l.01-.12a.1.1 0 01.05-.06.3.3 0 01.13-.02c.06 0 .1 0 .13.03.03.02.05.07.05.13 0 .07-.01.12-.04.14-.02.02-.06.03-.13.05a.38.38 0 00-.09.02c-.01 0-.02.03-.02.07v.02h.28M54.63 12.76l-.15.45h-.09l-.15-.45v.45h-.09v-.54h.15l.13.4.14-.4h.15v.54h-.1l.01-.45zM55.02 12.76c-.05 0-.08 0-.1.02l-.01.09V13c0 .05 0 .09.02.1.01.01.04.02.1.02.04 0 .06 0 .08-.02.02-.02.02-.05.02-.1v-.14c0-.05 0-.08-.02-.1l-.09-.01m0-.1c.08 0 .13.02.16.04.03.03.05.08.05.17V13c0 .08-.02.14-.05.17-.03.03-.08.04-.16.04s-.13-.01-.16-.04-.05-.08-.05-.17v-.14c0-.08.02-.14.05-.17.03-.02.08-.03.16-.03M55.41 13.13h.16c.03 0 .05-.02.06-.04a.18.18 0 00.02-.09v-.13c0-.04 0-.07-.02-.09l-.08-.02h-.14v.37m-.1.08v-.54h.24c.07 0 .12.02.15.05.03.03.04.08.04.15V13c0 .07 0 .12-.03.15-.03.04-.08.06-.14.06h-.25zM55.92 12.76v.14h.23v.08h-.23v.14h.25v.1h-.34v-.55h.34v.1h-.25zM89.64 6.74c-.1-.48-.5-.83-.97-.83H75.7c-.25 0-.5.1-.68.29a1.1 1.1 0 00-.3.54 13.2 13.2 0 000 5.32c.1.49.51.84.98.84h12.96c.47 0 .87-.35.97-.84a13.2 13.2 0 000-5.32M86.67 36.75a.28.28 0 00-.28.28v.22c0 .03.02.05.05.05h.06v-.27a.17.17 0 01.33-.07h.1a.28.28 0 00-.26-.21M85.27 36.97a.17.17 0 01.16-.12c.07 0 .13.05.16.12h-.32zm.16-.22a.28.28 0 000 .56c.12 0 .23-.09.26-.2h-.11a.18.18 0 01-.15.1.17.17 0 01-.17-.14h.44v-.04a.28.28 0 00-.27-.28M88.51 36.97a.17.17 0 01.32 0h-.32zm.16-.22a.28.28 0 00-.28.28.28.28 0 00.55.08h-.12a.17.17 0 01-.15.1.17.17 0 01-.17-.14h.45v-.04a.28.28 0 00-.28-.28M88.06 37.2a.17.17 0 110-.34.17.17 0 010 .34m0-.45a.28.28 0 10.17.5v.03c0 .1-.08.17-.17.17a.17.17 0 01-.16-.1h-.11c.02.12.13.2.27.2.15 0 .27-.12.27-.27v-.25a.28.28 0 00-.27-.28M87.04 36.58a.05.05 0 00-.05.05c0 .03.02.05.05.05.03 0 .05-.02.05-.05a.05.05 0 00-.05-.05M87.44 36.75a.28.28 0 00-.27.28v.22c0 .03.02.05.05.05h.05v-.27a.17.17 0 11.35 0v.22c0 .03.02.05.05.05h.05v-.27a.28.28 0 00-.28-.28M89.29 36.75a.28.28 0 00-.28.28v.22c0 .03.02.05.05.05h.05v-.27a.17.17 0 01.34-.07h.1a.28.28 0 00-.26-.21M84.81 37.2a.17.17 0 110-.35.17.17 0 010 .35m0-.45a.28.28 0 00-.17.06v-.21a.05.05 0 00-.06-.05h-.04v.47c0 .16.12.28.27.28.16 0 .28-.12.28-.27a.28.28 0 00-.28-.28M86.99 37.25c0 .03.02.05.05.05h.05v-.55H87v.5zM86.04 36.75a.28.28 0 00-.17.06v-.21a.05.05 0 00-.05-.05h-.06v.7c0 .03.03.05.06.05h.05v-.28c0-.1.08-.17.17-.17.1 0 .17.08.17.18v.22c0 .03.03.05.05.05h.06v-.27a.28.28 0 00-.28-.28M85.28 36.12l-.01-.01-.02-.04-.01-.03-.01-.02v-.13l.01-.02.02-.03 1.6-2.18v-.02l.02-.01.02-.01.03-.03.03-.01.04-.02H87.1l.02.01.03.02.03.01.03.03.01.01 1.6 2.18.01.03.02.04v.15l-.02.03-.02.04-.02.02-.02.02-.03.02h-.01l-.02.02h-.04l-.01.01H85.4l-.04-.01-.03-.02-.03-.02-.02-.02zm.07.13l.04.01h.02l.05.01H88.7l.04-.02.03-.01.02-.01.04-.03.01-.02.02-.02.02-.01.02-.04.02-.05v-.02l.01-.05v-.09l-.01-.03-.02-.04-.02-.04-1.6-2.19-.01-.02-.02-.02h-.02l-.04-.03-.04-.02h-.03l-.04-.02h-.05l-.05.01-.04.02-.05.02-.04.03-.01.01-.02.02-.01.02-1.6 2.16v.02l-.03.04v.03l-.02.05V36.03l.01.03.02.04.03.04v.02l.03.02.01.02.04.02.05.03z"/><path fill="#231f20" fill-rule="nonzero" d="M86.25 35.8a.3.3 0 00.19.07l.21-.02c.06-.02.16-.06.3-.15.11-.07.24-.19.33-.3.14-.15.27-.39.28-.58.04-.48-.39-.41-.55-.36-.13.05-.27.14-.29.15v.02h.01s.11-.07.24-.11c.1-.03.2-.04.27.01.22.12.1.49-.06.73-.1.14-.24.3-.4.4a.69.69 0 01-.37.13c-.29 0-.25-.32-.25-.32l-.01-.02-.01.02c0 .05-.03.22.11.34"/><path fill="#231f20" fill-rule="nonzero" d="M86.26 35.34l.11-.03a1 1 0 00.3-.2c.1-.08.15-.18.15-.26 0-.1-.13-.11-.17-.1l-.03.01-.38.55c-.02.02 0 .04.02.03"/><path fill="#fff" fill-rule="nonzero" d="M89.33 11.8c.35-1.58.35-3.22 0-4.8a.96.96 0 00-.93-.76H75.98c-.24 0-.47.1-.65.26a.98.98 0 00-.28.5 11.3 11.3 0 000 4.8c.1.45.48.77.93.77H88.4c.44 0 .83-.32.93-.76"/><path fill="#231f20" fill-rule="nonzero" d="M76.73 11.63a.6.6 0 01-.58-.49c-.2-1.15-.2-2.33 0-3.47a.6.6 0 01.58-.5h10.91c.3 0 .54.21.6.5.2 1.14.2 2.32 0 3.47a.6.6 0 01-.6.5h-10.9"/><path fill="none" stroke="#2b2929" stroke-miterlimit="500" stroke-width=".11" d="M67.44 54.06h-1.76"/><path fill="none" stroke="#2b2929" stroke-miterlimit="500" stroke-width=".07" d="M67.44 66.77h-1.76m1.76-1.82h-1.76m1.76-1.81h-1.76m1.76-1.82h-1.76m1.76-1.82h-1.76m1.76-1.81h-1.76m1.76-1.82h-1.76"/><path fill="none" stroke="#2b2929" stroke-miterlimit="500" stroke-width=".11" d="M67.44 68.58h-1.76"/><path fill="none" stroke="#2b2929" stroke-miterlimit="500" stroke-width=".07" d="M67.44 41.35h-1.76m1.76 1.81h-1.76m1.76 1.82h-1.76m1.76 1.82h-1.76m1.76 1.81h-1.76m1.76 1.82h-1.76m1.76 1.81h-1.76"/><path fill="none" stroke="#2b2929" stroke-miterlimit="500" stroke-width=".11" d="M67.44 39.53h-1.76"/><path fill="none" stroke="#2b2929" stroke-miterlimit="500" stroke-width=".07" d="M67 40.44H65.7M67 42.26H65.7M67 44.07H65.7M67 45.9H65.7M67 47.7H65.7M67 49.52H65.7M67 51.33H65.7M67 53.16H65.7M67 67.67H65.7M67 65.86H65.7M67 64.04H65.7M67 62.23H65.7M67 60.4H65.7M67 58.6H65.7M67 56.78H65.7M67 54.97H65.7m.87 13.16h-.87m.87-.91h-.87m.87-.9h-.87m.87-.91h-.87m.82-22.7h-.82m.82-.9h-.82m.82-.91h-.82m.82-.91h-.82"/><path fill="none" stroke="#2b2929" stroke-miterlimit="500" stroke-width=".11" d="M68.89 54.06h1.75"/><path fill="none" stroke="#2b2929" stroke-miterlimit="500" stroke-width=".07" d="M68.89 66.77h1.75m-1.75-1.82h1.75m-1.75-1.81h1.75m-1.75-1.82h1.75M68.9 59.5h1.75M68.9 57.7h1.75m-1.75-1.82h1.75"/><path fill="none" stroke="#2b2929" stroke-miterlimit="500" stroke-width=".11" d="M68.89 68.58h1.75"/><path fill="none" stroke="#2b2929" stroke-miterlimit="500" stroke-width=".07" d="M68.89 41.35h1.75m-1.75 1.81h1.75m-1.75 1.82h1.75M68.9 46.8h1.75M68.9 48.6h1.75m-1.75 1.82h1.75m-1.75 1.81h1.75"/><path fill="none" stroke="#2b2929" stroke-miterlimit="500" stroke-width=".11" d="M68.89 39.53h1.75"/><path fill="none" stroke="#2b2929" stroke-width=".07" d="M69.77 68.13h.88m-.88-.91h.88m-.88-.9h.88m-.88-.91h.88m-.88-22.7h.88m-.88-.9h.88m-.88-.91h.88m-.88-.91h.88"/><path fill="none" stroke="#2b2929" stroke-miterlimit="500" stroke-width=".07" d="M69.39 40.44h1.26m-1.26 1.82h1.26m-1.26 1.81h1.26m-1.26 1.82h1.26m-1.26 1.81h1.26m-1.26 1.82h1.26m-1.26 1.81h1.26m-1.26 1.82h1.26m-1.26 14.52h1.26m-1.26-1.81h1.26m-1.26-1.82h1.26m-1.26-1.81h1.26m-1.26-1.82h1.26m-1.26-1.81h1.26m-1.26-1.82h1.26m-1.26-1.81h1.26"/><path fill="#2b2929" fill-rule="nonzero" d="M71.55 54.2l-.3.6-.31-.6h.6z"/><path fill="none" stroke="#2b2929" stroke-width=".08" d="M70.94 68.58h.6m-.6-29.05h.6m-.3.3v-.6"/><path fill="#2b2929" fill-rule="nonzero" d="M71.55 53.91l-.3-.58-.31.58h.6z"/><path fill="#231f20" fill-rule="nonzero" d="M68.46 38.33a.3.3 0 00-.6 0V69.7c0 .17.14.3.3.3a.3.3 0 00.3-.3V38.33"/><path id="slider8" fill="#fff" fill-rule="nonzero" stroke="#231f20" stroke-linejoin="round" stroke-width=".3" d="M68.16 65.16c-.71 0-1.24.24-1.38.4-.17.18-.33 1.68-.32 3.07 0 1.4.13 2.63.3 2.9.18.28 1.05.39 1.4.4.34.01 1.23-.1 1.4-.35.17-.24.35-.9.35-2.88 0-1.97-.14-2.97-.34-3.18-.21-.21-.78-.36-1.4-.36z"/><path fill="none" stroke="#2b2929" stroke-miterlimit="500" stroke-width=".11" d="M59.05 54.06H57.3"/><path fill="none" stroke="#2b2929" stroke-miterlimit="500" stroke-width=".07" d="M59.05 66.77H57.3m1.75-1.82H57.3m1.75-1.81H57.3m1.75-1.82H57.3m1.75-1.82H57.3m1.75-1.81H57.3m1.75-1.82H57.3"/><path fill="none" stroke="#2b2929" stroke-miterlimit="500" stroke-width=".11" d="M59.05 68.58H57.3"/><path fill="none" stroke="#2b2929" stroke-miterlimit="500" stroke-width=".07" d="M59.05 41.35H57.3m1.75 1.81H57.3m1.75 1.82H57.3m1.75 1.82H57.3m1.75 1.81H57.3m1.75 1.82H57.3m1.75 1.81H57.3"/><path fill="none" stroke="#2b2929" stroke-miterlimit="500" stroke-width=".11" d="M59.05 39.53H57.3"/><path fill="none" stroke="#2b2929" stroke-miterlimit="500" stroke-width=".07" d="M58.62 40.44h-1.31m1.31 1.82h-1.31m1.31 1.81h-1.31m1.31 1.82h-1.31m1.31 1.81h-1.31m1.31 1.82h-1.31m1.31 1.81h-1.31m1.31 1.82h-1.31m1.31 14.52h-1.31m1.31-1.81h-1.31m1.31-1.82h-1.31m1.31-1.81h-1.31m1.31-1.82h-1.31m1.31-1.81h-1.31m1.31-1.82h-1.31m1.31-1.81h-1.31m.87 13.16h-.88m.88-.91h-.88m.88-.9h-.88m.88-.91h-.88m.83-22.7h-.83m.83-.9h-.83m.83-.91h-.83m.83-.91h-.83"/><path fill="none" stroke="#2b2929" stroke-miterlimit="500" stroke-width=".11" d="M60.5 54.06h1.76"/><path fill="none" stroke="#2b2929" stroke-miterlimit="500" stroke-width=".07" d="M60.5 66.77h1.76m-1.75-1.82h1.75m-1.75-1.81h1.75m-1.75-1.82h1.75M60.5 59.5h1.75M60.5 57.7h1.75m-1.75-1.82h1.75"/><path fill="none" stroke="#2b2929" stroke-miterlimit="500" stroke-width=".11" d="M60.5 68.58h1.76"/><path fill="none" stroke="#2b2929" stroke-miterlimit="500" stroke-width=".07" d="M60.5 41.35h1.76m-1.75 1.81h1.75m-1.75 1.82h1.75M60.5 46.8h1.75M60.5 48.6h1.75m-1.75 1.82h1.75m-1.75 1.81h1.75"/><path fill="none" stroke="#2b2929" stroke-miterlimit="500" stroke-width=".11" d="M60.5 39.53h1.76"/><path fill="none" stroke="#2b2929" stroke-width=".07" d="M61.39 68.13h.87m-.87-.91h.87m-.87-.9h.87m-.87-.91h.87m-.87-22.7h.87m-.87-.9h.87m-.87-.91h.87m-.87-.91h.87"/><path fill="none" stroke="#2b2929" stroke-miterlimit="500" stroke-width=".07" d="M61 40.44h1.26m-1.25 1.82h1.25m-1.25 1.81h1.25m-1.25 1.82h1.25m-1.25 1.81h1.25m-1.25 1.82h1.25m-1.25 1.81h1.25m-1.25 1.82h1.25m-1.25 14.52h1.25m-1.25-1.81h1.25m-1.25-1.82h1.25m-1.25-1.81h1.25m-1.25-1.82h1.25m-1.25-1.81h1.25m-1.25-1.82h1.25m-1.25-1.81h1.25"/><path fill="#2b2929" fill-rule="nonzero" d="M63.17 54.2l-.3.6-.32-.6h.62z"/><path fill="none" stroke="#2b2929" stroke-width=".08" d="M62.55 68.58h.62m-.62-29.05h.62m-.3.3v-.6"/><path fill="#2b2929" fill-rule="nonzero" d="M63.17 53.91l-.3-.58-.32.58h.62z"/><path fill="#231f20" fill-rule="nonzero" d="M60.08 38.33a.3.3 0 00-.3-.3.3.3 0 00-.3.3V69.7c0 .17.14.3.3.3a.3.3 0 00.3-.3V38.33"/><path fill="none" stroke="#2b2929" stroke-miterlimit="500" stroke-width=".11" d="M50.75 54.06H49"/><path fill="none" stroke="#2b2929" stroke-miterlimit="500" stroke-width=".07" d="M50.75 66.77H49m1.75-1.82H49m1.75-1.81H49m1.75-1.82H49m1.75-1.82H49m1.75-1.81H49m1.75-1.82H49"/><path fill="none" stroke="#2b2929" stroke-miterlimit="500" stroke-width=".11" d="M50.75 68.58H49"/><path fill="none" stroke="#2b2929" stroke-miterlimit="500" stroke-width=".07" d="M50.75 41.35H49m1.75 1.81H49m1.75 1.82H49m1.75 1.82H49m1.75 1.81H49m1.75 1.82H49m1.75 1.81H49"/><path fill="none" stroke="#2b2929" stroke-miterlimit="500" stroke-width=".11" d="M50.75 39.53H49"/><path fill="none" stroke="#2b2929" stroke-miterlimit="500" stroke-width=".07" d="M50.32 40.44h-1.31m1.31 1.82h-1.31m1.31 1.81h-1.31m1.31 1.82h-1.31m1.31 1.81h-1.31m1.31 1.82h-1.31m1.31 1.81h-1.31m1.31 1.82h-1.31m1.31 14.52h-1.31m1.31-1.81h-1.31m1.31-1.82h-1.31m1.31-1.81h-1.31m1.31-1.82h-1.31m1.31-1.81h-1.31m1.31-1.82h-1.31m1.31-1.81h-1.31m.87 13.16h-.87m.87-.91h-.87m.87-.9h-.87m.87-.91h-.87m.82-22.7h-.82m.82-.9h-.82m.82-.91h-.82m.82-.91h-.82"/><path fill="none" stroke="#2b2929" stroke-miterlimit="500" stroke-width=".11" d="M52.2 54.06h1.76"/><path fill="none" stroke="#2b2929" stroke-miterlimit="500" stroke-width=".07" d="M52.2 66.77h1.76m-1.75-1.82h1.75m-1.75-1.81h1.75m-1.75-1.82h1.75M52.2 59.5h1.75M52.2 57.7h1.75m-1.75-1.82h1.75"/><path fill="none" stroke="#2b2929" stroke-miterlimit="500" stroke-width=".11" d="M52.2 68.58h1.76"/><path fill="none" stroke="#2b2929" stroke-miterlimit="500" stroke-width=".07" d="M52.2 41.35h1.76m-1.75 1.81h1.75m-1.75 1.82h1.75M52.2 46.8h1.75M52.2 48.6h1.75m-1.75 1.82h1.75m-1.75 1.81h1.75"/><path fill="none" stroke="#2b2929" stroke-miterlimit="500" stroke-width=".11" d="M52.2 39.53h1.76"/><path fill="none" stroke="#2b2929" stroke-width=".07" d="M53.09 68.13h.87m-.87-.91h.87m-.87-.9h.87m-.87-.91h.87m-.87-22.7h.87m-.87-.9h.87m-.87-.91h.87m-.87-.91h.87"/><path fill="none" stroke="#2b2929" stroke-miterlimit="500" stroke-width=".07" d="M52.7 40.44h1.26m-1.25 1.82h1.25m-1.25 1.81h1.25m-1.25 1.82h1.25m-1.25 1.81h1.25m-1.25 1.82h1.25m-1.25 1.81h1.25m-1.25 1.82h1.25m-1.25 14.52h1.25m-1.25-1.81h1.25m-1.25-1.82h1.25m-1.25-1.81h1.25m-1.25-1.82h1.25m-1.25-1.81h1.25m-1.25-1.82h1.25m-1.25-1.81h1.25"/><path fill="#2b2929" fill-rule="nonzero" d="M54.87 54.2l-.3.6-.32-.6h.62z"/><path fill="none" stroke="#2b2929" stroke-width=".08" d="M54.25 68.58h.62m-.62-29.05h.62m-.3.3v-.6"/><path fill="#2b2929" fill-rule="nonzero" d="M54.87 53.91l-.3-.58-.32.58h.62z"/><path fill="#231f20" fill-rule="nonzero" d="M51.78 38.33a.3.3 0 00-.3-.3.3.3 0 00-.3.3V69.7c0 .17.14.3.3.3a.3.3 0 00.3-.3V38.33"/><path fill="none" stroke="#2b2929" stroke-miterlimit="500" stroke-width=".11" d="M42.37 54.06h-1.75"/><path fill="none" stroke="#2b2929" stroke-miterlimit="500" stroke-width=".07" d="M42.37 66.77h-1.75m1.75-1.82h-1.75m1.75-1.81h-1.75m1.75-1.82h-1.75m1.75-1.82h-1.75m1.75-1.81h-1.75m1.75-1.82h-1.75"/><path fill="none" stroke="#2b2929" stroke-miterlimit="500" stroke-width=".11" d="M42.37 68.58h-1.75"/><path fill="none" stroke="#2b2929" stroke-miterlimit="500" stroke-width=".07" d="M42.37 41.35h-1.75m1.75 1.81h-1.75m1.75 1.82h-1.75m1.75 1.82h-1.75m1.75 1.81h-1.75m1.75 1.82h-1.75m1.75 1.81h-1.75"/><path fill="none" stroke="#2b2929" stroke-miterlimit="500" stroke-width=".11" d="M42.37 39.53h-1.75"/><path fill="none" stroke="#2b2929" stroke-miterlimit="500" stroke-width=".07" d="M41.94 40.44h-1.32m1.32 1.82h-1.32m1.32 1.81h-1.32m1.32 1.82h-1.32m1.32 1.81h-1.32m1.32 1.82h-1.32m1.32 1.81h-1.32m1.32 1.82h-1.32m1.32 14.52h-1.32m1.32-1.81h-1.32m1.32-1.82h-1.32m1.32-1.81h-1.32m1.32-1.82h-1.32m1.32-1.81h-1.32m1.32-1.82h-1.32m1.32-1.81h-1.32m.88 13.16h-.88m.88-.91h-.88m.88-.9h-.88m.88-.91h-.88m.83-22.7h-.83m.83-.9h-.83m.83-.91h-.83m.83-.91h-.83"/><path fill="none" stroke="#2b2929" stroke-miterlimit="500" stroke-width=".11" d="M43.82 54.06h1.76"/><path fill="none" stroke="#2b2929" stroke-miterlimit="500" stroke-width=".07" d="M43.82 66.77h1.76m-1.76-1.82h1.76m-1.76-1.81h1.76m-1.76-1.82h1.76m-1.76-1.82h1.76m-1.76-1.81h1.76m-1.76-1.82h1.76M43.82 41.35h1.76m-1.76 1.81h1.76m-1.76 1.82h1.76m-1.76 1.82h1.76m-1.76 1.81h1.76m-1.76 1.82h1.76m-1.76 1.81h1.76"/><path fill="none" stroke="#2b2929" stroke-miterlimit="500" stroke-width=".11" d="M43.82 39.53h1.76"/><path fill="none" stroke="#2b2929" stroke-width=".07" d="M44.7 68.13h.88m-.88-.91h.88m-.88-.9h.88m-.88-.91h.88m-.88-22.7h.88m-.88-.9h.88m-.88-.91h.88m-.88-.91h.88"/><path fill="none" stroke="#2b2929" stroke-miterlimit="500" stroke-width=".07" d="M44.33 40.44h1.25m-1.25 1.82h1.25m-1.25 1.81h1.25m-1.25 1.82h1.25m-1.25 1.81h1.25m-1.25 1.82h1.25m-1.25 1.81h1.25m-1.25 1.82h1.25m-1.25 14.52h1.25m-1.25-1.81h1.25m-1.25-1.82h1.25m-1.25-1.81h1.25m-1.25-1.82h1.25m-1.25-1.81h1.25m-1.25-1.82h1.25m-1.25-1.81h1.25"/><path fill="#2b2929" fill-rule="nonzero" d="M46.48 54.2l-.3.6-.3-.6h.6z"/><path fill="none" stroke="#2b2929" stroke-width=".08" d="M45.87 68.58h.61m-.6-29.05h.6m-.3.3v-.6"/><path fill="#2b2929" fill-rule="nonzero" d="M46.48 53.91l-.3-.58-.3.58h.6z"/><path fill="#231f20" fill-rule="nonzero" d="M43.4 38.33a.3.3 0 00-.6 0V69.7c0 .17.13.3.3.3a.3.3 0 00.3-.3V38.33"/><path fill="none" stroke="#2b2929" stroke-miterlimit="500" stroke-width=".11" d="M33.99 54.06h-1.75"/><path fill="none" stroke="#2b2929" stroke-miterlimit="500" stroke-width=".07" d="M33.99 66.77h-1.75m1.75-1.82h-1.75m1.75-1.81h-1.75m1.75-1.82h-1.75m1.75-1.82h-1.75m1.75-1.81h-1.75m1.75-1.82h-1.75"/><path fill="none" stroke="#2b2929" stroke-miterlimit="500" stroke-width=".11" d="M33.99 68.58h-1.75"/><path fill="none" stroke="#2b2929" stroke-miterlimit="500" stroke-width=".07" d="M33.99 41.35h-1.75m1.75 1.81h-1.75m1.75 1.82h-1.75m1.75 1.82h-1.75m1.75 1.81h-1.75m1.75 1.82h-1.75m1.75 1.81h-1.75"/><path fill="none" stroke="#2b2929" stroke-miterlimit="500" stroke-width=".11" d="M33.99 39.53h-1.75"/><path fill="none" stroke="#2b2929" stroke-miterlimit="500" stroke-width=".07" d="M33.55 40.44h-1.31m1.31 1.82h-1.31m1.31 1.81h-1.31m1.31 1.82h-1.31m1.31 1.81h-1.31m1.31 1.82h-1.31m1.31 1.81h-1.31m1.31 1.82h-1.31m1.31 14.52h-1.31m1.31-1.81h-1.31m1.31-1.82h-1.31m1.31-1.81h-1.31m1.31-1.82h-1.31m1.31-1.81h-1.31m1.31-1.82h-1.31m1.31-1.81h-1.31m.88 13.16h-.88m.88-.91h-.88m.88-.9h-.88m.88-.91h-.88m.83-22.7h-.83m.83-.9h-.83m.83-.91h-.83m.83-.91h-.83"/><path fill="none" stroke="#2b2929" stroke-miterlimit="500" stroke-width=".11" d="M35.44 54.06h1.75"/><path fill="none" stroke="#2b2929" stroke-miterlimit="500" stroke-width=".07" d="M35.44 66.77h1.75m-1.75-1.82h1.75m-1.75-1.81h1.75m-1.75-1.82h1.75m-1.75-1.82h1.75m-1.75-1.81h1.75m-1.75-1.82h1.75"/><path fill="none" stroke="#2b2929" stroke-miterlimit="500" stroke-width=".11" d="M35.44 68.58h1.75"/><path fill="none" stroke="#2b2929" stroke-miterlimit="500" stroke-width=".07" d="M35.44 41.35h1.75m-1.75 1.81h1.75m-1.75 1.82h1.75m-1.75 1.82h1.75m-1.75 1.81h1.75m-1.75 1.82h1.75m-1.75 1.81h1.75"/><path fill="none" stroke="#2b2929" stroke-miterlimit="500" stroke-width=".11" d="M35.44 39.53h1.75"/><path fill="none" stroke="#2b2929" stroke-width=".07" d="M36.32 68.13h.88m-.88-.91h.88m-.88-.9h.88m-.88-.91h.88m-.88-22.7h.88m-.88-.9h.88m-.88-.91h.88m-.88-.91h.88"/><path fill="none" stroke="#2b2929" stroke-miterlimit="500" stroke-width=".07" d="M35.94 40.44h1.26m-1.26 1.82h1.26m-1.26 1.81h1.26m-1.26 1.82h1.26m-1.26 1.81h1.26m-1.26 1.82h1.26m-1.26 1.81h1.26m-1.26 1.82h1.26m-1.26 14.52h1.26m-1.26-1.81h1.26m-1.26-1.82h1.26m-1.26-1.81h1.26m-1.26-1.82h1.26m-1.26-1.81h1.26m-1.26-1.82h1.26m-1.26-1.81h1.26"/><path fill="#2b2929" fill-rule="nonzero" d="M38.1 54.2l-.3.6-.31-.6h.61z"/><path fill="none" stroke="#2b2929" stroke-width=".08" d="M37.49 68.58h.61m-.61-29.05h.61m-.3.3v-.6"/><path fill="#2b2929" fill-rule="nonzero" d="M38.1 53.91l-.3-.58-.31.58h.61z"/><path fill="#231f20" fill-rule="nonzero" d="M35.01 38.33a.3.3 0 00-.3-.3.3.3 0 00-.3.3V69.7c0 .17.14.3.3.3a.3.3 0 00.3-.3V38.33"/><path fill="none" stroke="#2b2929" stroke-miterlimit="500" stroke-width=".11" d="M25.6 54.06h-1.75"/><path fill="none" stroke="#2b2929" stroke-miterlimit="500" stroke-width=".07" d="M25.6 66.77h-1.75m1.75-1.82h-1.75m1.75-1.81h-1.75m1.75-1.82h-1.75m1.75-1.82h-1.75m1.75-1.81h-1.75m1.75-1.82h-1.75"/><path fill="none" stroke="#2b2929" stroke-miterlimit="500" stroke-width=".11" d="M25.6 68.58h-1.75"/><path fill="none" stroke="#2b2929" stroke-miterlimit="500" stroke-width=".07" d="M25.6 41.35h-1.75m1.75 1.81h-1.75m1.75 1.82h-1.75m1.75 1.82h-1.75m1.75 1.81h-1.75m1.75 1.82h-1.75m1.75 1.81h-1.75"/><path fill="none" stroke="#2b2929" stroke-miterlimit="500" stroke-width=".11" d="M25.6 39.53h-1.75"/><path fill="none" stroke="#2b2929" stroke-miterlimit="500" stroke-width=".07" d="M25.17 40.44h-1.31m1.31 1.82h-1.31m1.31 1.81h-1.31m1.31 1.82h-1.31m1.31 1.81h-1.31m1.31 1.82h-1.31m1.31 1.81h-1.31m1.31 1.82h-1.31m1.31 14.52h-1.31m1.31-1.81h-1.31m1.31-1.82h-1.31m1.31-1.81h-1.31m1.31-1.82h-1.31m1.31-1.81h-1.31m1.31-1.82h-1.31m1.31-1.81h-1.31m.87 13.16h-.87m.87-.91h-.87m.87-.9h-.87m.87-.91h-.87m.82-22.7h-.82m.82-.9h-.82m.82-.91h-.82m.82-.91h-.82"/><path fill="none" stroke="#2b2929" stroke-miterlimit="500" stroke-width=".11" d="M27.06 54.06h1.75"/><path fill="none" stroke="#2b2929" stroke-miterlimit="500" stroke-width=".07" d="M27.06 66.77h1.75m-1.75-1.82h1.75m-1.75-1.81h1.75m-1.75-1.82h1.75m-1.75-1.82h1.75m-1.75-1.81h1.75m-1.75-1.82h1.75"/><path fill="none" stroke="#2b2929" stroke-miterlimit="500" stroke-width=".11" d="M27.06 68.58h1.75"/><path fill="none" stroke="#2b2929" stroke-miterlimit="500" stroke-width=".07" d="M27.06 41.35h1.75m-1.75 1.81h1.75m-1.75 1.82h1.75m-1.75 1.82h1.75m-1.75 1.81h1.75m-1.75 1.82h1.75m-1.75 1.81h1.75"/><path fill="none" stroke="#2b2929" stroke-miterlimit="500" stroke-width=".11" d="M27.06 39.53h1.75"/><path fill="none" stroke="#2b2929" stroke-width=".07" d="M27.94 68.13h.88m-.88-.91h.88m-.88-.9h.88m-.88-.91h.88m-.88-22.7h.88m-.88-.9h.88m-.88-.91h.88m-.88-.91h.88"/><path fill="none" stroke="#2b2929" stroke-miterlimit="500" stroke-width=".07" d="M27.56 40.44h1.26m-1.26 1.82h1.26m-1.26 1.81h1.26m-1.26 1.82h1.26m-1.26 1.81h1.26m-1.26 1.82h1.26m-1.26 1.81h1.26m-1.26 1.82h1.26m-1.26 14.52h1.26m-1.26-1.81h1.26m-1.26-1.82h1.26m-1.26-1.81h1.26m-1.26-1.82h1.26m-1.26-1.81h1.26m-1.26-1.82h1.26m-1.26-1.81h1.26"/><path fill="#2b2929" fill-rule="nonzero" d="M29.72 54.2l-.3.6-.31-.6h.6z"/><path fill="none" stroke="#2b2929" stroke-width=".08" d="M29.1 68.58h.62m-.61-29.05h.6m-.3.3v-.6"/><path fill="#2b2929" fill-rule="nonzero" d="M29.72 53.91l-.3-.58-.31.58h.6z"/><path fill="#231f20" fill-rule="nonzero" d="M26.63 38.33a.3.3 0 00-.3-.3.3.3 0 00-.3.3V69.7c0 .17.14.3.3.3a.3.3 0 00.3-.3V38.33"/><path fill="none" stroke="#2b2929" stroke-miterlimit="500" stroke-width=".11" d="M17.3 54.06h-1.75"/><path fill="none" stroke="#2b2929" stroke-miterlimit="500" stroke-width=".07" d="M17.3 66.77h-1.75m1.76-1.82h-1.76m1.76-1.81h-1.76m1.76-1.82h-1.76m1.76-1.82h-1.76m1.76-1.81h-1.76m1.76-1.82h-1.76"/><path fill="none" stroke="#2b2929" stroke-miterlimit="500" stroke-width=".11" d="M17.3 68.58h-1.75"/><path fill="none" stroke="#2b2929" stroke-miterlimit="500" stroke-width=".07" d="M17.3 41.35h-1.75m1.76 1.81h-1.76m1.76 1.82h-1.76m1.76 1.82h-1.76m1.76 1.81h-1.76m1.76 1.82h-1.76m1.76 1.81h-1.76"/><path fill="none" stroke="#2b2929" stroke-miterlimit="500" stroke-width=".11" d="M17.3 39.53h-1.75"/><path fill="none" stroke="#2b2929" stroke-miterlimit="500" stroke-width=".07" d="M16.87 40.44h-1.31m1.31 1.82h-1.31m1.31 1.81h-1.31m1.31 1.82h-1.31m1.31 1.81h-1.31m1.31 1.82h-1.31m1.31 1.81h-1.31m1.31 1.82h-1.31m1.31 14.52h-1.31m1.31-1.81h-1.31m1.31-1.82h-1.31m1.31-1.81h-1.31m1.31-1.82h-1.31m1.31-1.81h-1.31m1.31-1.82h-1.31m1.31-1.81h-1.31m.87 13.16h-.87m.87-.91h-.87m.87-.9h-.87m.87-.91h-.87m.82-22.7h-.82m.82-.9h-.82m.82-.91h-.82m.82-.91h-.82"/><path fill="none" stroke="#2b2929" stroke-miterlimit="500" stroke-width=".11" d="M18.76 54.06h1.75"/><path fill="none" stroke="#2b2929" stroke-miterlimit="500" stroke-width=".07" d="M18.76 66.77h1.75m-1.75-1.82h1.75m-1.75-1.81h1.75m-1.75-1.82h1.75m-1.75-1.82h1.75m-1.75-1.81h1.75m-1.75-1.82h1.75"/><path fill="none" stroke="#2b2929" stroke-miterlimit="500" stroke-width=".11" d="M18.76 68.58h1.75"/><path fill="none" stroke="#2b2929" stroke-miterlimit="500" stroke-width=".07" d="M18.76 41.35h1.75m-1.75 1.81h1.75m-1.75 1.82h1.75m-1.75 1.82h1.75m-1.75 1.81h1.75m-1.75 1.82h1.75m-1.75 1.81h1.75"/><path fill="none" stroke="#2b2929" stroke-miterlimit="500" stroke-width=".11" d="M18.76 39.53h1.75"/><path fill="none" stroke="#2b2929" stroke-width=".07" d="M19.64 68.13h.88m-.88-.91h.88m-.88-.9h.88m-.88-.91h.88m-.88-22.7h.88m-.88-.9h.88m-.88-.91h.88m-.88-.91h.88"/><path fill="none" stroke="#2b2929" stroke-miterlimit="500" stroke-width=".07" d="M19.26 40.44h1.26m-1.26 1.82h1.26m-1.26 1.81h1.26m-1.26 1.82h1.26m-1.26 1.81h1.26m-1.26 1.82h1.26m-1.26 1.81h1.26m-1.26 1.82h1.26m-1.26 14.52h1.26m-1.26-1.81h1.26m-1.26-1.82h1.26m-1.26-1.81h1.26m-1.26-1.82h1.26m-1.26-1.81h1.26m-1.26-1.82h1.26m-1.26-1.81h1.26"/><path fill="#2b2929" fill-rule="nonzero" d="M21.42 54.2l-.3.6-.31-.6h.6z"/><path fill="none" stroke="#2b2929" stroke-width=".08" d="M20.8 68.58h.62m-.61-29.05h.6m-.3.3v-.6"/><path fill="#2b2929" fill-rule="nonzero" d="M21.42 53.91l-.3-.58-.31.58h.6z"/><path fill="#231f20" fill-rule="nonzero" d="M18.33 38.33a.3.3 0 00-.6 0V69.7c0 .17.14.3.3.3a.3.3 0 00.3-.3V38.33"/><path fill="none" stroke="#2b2929" stroke-miterlimit="500" stroke-width=".11" d="M8.92 54.06H7.17"/><path fill="none" stroke="#2b2929" stroke-miterlimit="500" stroke-width=".07" d="M8.92 66.77H7.17m1.75-1.82H7.17m1.75-1.81H7.17m1.75-1.82H7.17m1.75-1.82H7.17m1.75-1.81H7.17m1.75-1.82H7.17"/><path fill="none" stroke="#2b2929" stroke-miterlimit="500" stroke-width=".11" d="M8.92 68.58H7.17"/><path fill="none" stroke="#2b2929" stroke-miterlimit="500" stroke-width=".07" d="M8.92 41.35H7.17m1.75 1.81H7.17m1.75 1.82H7.17m1.75 1.82H7.17m1.75 1.81H7.17m1.75 1.82H7.17m1.75 1.81H7.17"/><path fill="none" stroke="#2b2929" stroke-miterlimit="500" stroke-width=".11" d="M8.92 39.53H7.17"/><path fill="none" stroke="#2b2929" stroke-miterlimit="500" stroke-width=".07" d="M8.49 40.44H7.17m1.32 1.82H7.17m1.32 1.81H7.17M8.5 45.9H7.17M8.5 47.7H7.17m1.32 1.82H7.17m1.32 1.81H7.17m1.32 1.82H7.17M8.5 67.67H7.17m1.32-1.81H7.17m1.32-1.82H7.17m1.32-1.81H7.17M8.5 60.4H7.17M8.5 58.6H7.17m1.32-1.82H7.17m1.32-1.81H7.17m.88 13.16h-.88m.88-.91h-.88m.88-.9h-.88m.88-.91h-.88M8 42.7h-.83m.83-.9h-.83M8 40.9h-.83m.83-.91h-.83"/><path fill="none" stroke="#2b2929" stroke-miterlimit="500" stroke-width=".11" d="M10.38 54.06h1.75"/><path fill="none" stroke="#2b2929" stroke-miterlimit="500" stroke-width=".07" d="M10.38 66.77h1.75m-1.75-1.82h1.75m-1.75-1.81h1.75m-1.75-1.82h1.75m-1.75-1.82h1.75m-1.75-1.81h1.75m-1.75-1.82h1.75"/><path fill="none" stroke="#2b2929" stroke-miterlimit="500" stroke-width=".11" d="M10.38 68.58h1.75"/><path fill="none" stroke="#2b2929" stroke-miterlimit="500" stroke-width=".07" d="M10.38 41.35h1.75m-1.75 1.81h1.75m-1.75 1.82h1.75m-1.75 1.82h1.75m-1.75 1.81h1.75m-1.75 1.82h1.75m-1.75 1.81h1.75"/><path fill="none" stroke="#2b2929" stroke-miterlimit="500" stroke-width=".11" d="M10.38 39.53h1.75"/><path fill="none" stroke="#2b2929" stroke-width=".07" d="M11.26 68.13h.87m-.87-.91h.87m-.87-.9h.87m-.87-.91h.87m-.87-22.7h.87m-.87-.9h.87m-.87-.91h.87m-.87-.91h.87"/><path fill="none" stroke="#2b2929" stroke-miterlimit="500" stroke-width=".07" d="M10.88 40.44h1.25m-1.25 1.82h1.25m-1.25 1.81h1.25m-1.25 1.82h1.25m-1.25 1.81h1.25m-1.25 1.82h1.25m-1.25 1.81h1.25m-1.25 1.82h1.25m-1.25 14.52h1.25m-1.25-1.81h1.25m-1.25-1.82h1.25m-1.25-1.81h1.25m-1.25-1.82h1.25m-1.25-1.81h1.25m-1.25-1.82h1.25m-1.25-1.81h1.25"/><path fill="#2b2929" fill-rule="nonzero" d="M13.04 54.2l-.3.6-.32-.6h.62z"/><path fill="none" stroke="#2b2929" stroke-width=".08" d="M12.42 68.58h.62m-.62-29.05h.62m-.3.3v-.6"/><path fill="#2b2929" fill-rule="nonzero" d="M13.04 53.91l-.3-.58-.32.58h.62z"/><path fill="#231f20" fill-rule="nonzero" d="M9.95 38.33a.3.3 0 00-.3-.3.3.3 0 00-.3.3V69.7c0 .17.13.3.3.3a.3.3 0 00.3-.3V38.33"/><path id="slider1" fill="#fff" fill-rule="nonzero" stroke="#000" stroke-linejoin="round" stroke-width=".3" d="M9.65 65.16c-.71 0-1.25.24-1.38.4-.17.18-.34 1.68-.33 3.07.01 1.4.14 2.63.31 2.9.17.28 1.04.39 1.4.4.34.01 1.22-.1 1.4-.35.16-.24.35-.9.35-2.88 0-1.97-.14-2.97-.35-3.18-.2-.21-.77-.36-1.4-.36z"/><path id="slider2" fill="#fff" fill-rule="nonzero" stroke="#231f20" stroke-linejoin="round" stroke-width=".3" d="M18.01 65.16c-.72 0-1.25.24-1.39.4-.16.18-.33 1.68-.32 3.07.01 1.4.14 2.63.31 2.9.17.28 1.04.39 1.39.4.35.01 1.23-.1 1.4-.35.17-.24.36-.9.36-2.88 0-1.97-.14-2.97-.35-3.18-.2-.21-.78-.36-1.4-.36z"/><path id="slider3" fill="#fff" fill-rule="nonzero" stroke="#231f20" stroke-linejoin="round" stroke-width=".3" d="M26.37 65.16c-.72 0-1.25.24-1.39.4-.17.18-.33 1.68-.32 3.07.01 1.4.14 2.63.3 2.9.18.28 1.05.39 1.4.4.35.01 1.23-.1 1.4-.35.17-.24.36-.9.36-2.88 0-1.97-.14-2.97-.35-3.18-.2-.21-.78-.36-1.4-.36z"/><path id="slider4" fill="#fff" fill-rule="nonzero" stroke="#231f20" stroke-linejoin="round" stroke-width=".3" d="M34.73 65.16c-.72 0-1.25.24-1.39.4-.17.18-.33 1.68-.32 3.07.01 1.4.13 2.63.3 2.9.18.28 1.05.39 1.4.4.35.01 1.23-.1 1.4-.35.17-.24.36-.9.36-2.88 0-1.97-.14-2.97-.35-3.18-.2-.21-.78-.36-1.4-.36z"/><path id="slider5" fill="#fff" fill-rule="nonzero" stroke="#231f20" stroke-linejoin="round" stroke-width=".3" d="M43.09 65.16c-.72 0-1.25.24-1.39.4-.17.18-.33 1.68-.32 3.07.01 1.4.13 2.63.3 2.9.18.28 1.05.39 1.4.4.34.01 1.23-.1 1.4-.35.17-.24.35-.9.35-2.88 0-1.97-.13-2.97-.34-3.18-.2-.21-.78-.36-1.4-.36z"/><path id="slider6" fill="#fff" fill-rule="nonzero" stroke="#231f20" stroke-linejoin="round" stroke-width=".3" d="M51.45 65.16c-.72 0-1.25.24-1.39.4-.17.18-.33 1.68-.32 3.07.01 1.4.13 2.63.3 2.9.18.28 1.05.39 1.4.4.34.01 1.23-.1 1.4-.35.17-.24.35-.9.35-2.88 0-1.97-.14-2.97-.34-3.18-.2-.21-.78-.36-1.4-.36z"/><path id="slider7" fill="#fff" fill-rule="nonzero" stroke="#231f20" stroke-linejoin="round" stroke-width=".3" d="M59.8 65.16c-.71 0-1.24.24-1.38.4-.17.18-.33 1.68-.32 3.07 0 1.4.13 2.63.3 2.9.18.28 1.05.39 1.4.4.34.01 1.23-.1 1.4-.35.17-.24.35-.9.35-2.88 0-1.97-.14-2.97-.34-3.18-.2-.21-.78-.36-1.4-.36z"/><path fill="#2c292a" fill-rule="nonzero" d="M79.97 53.45a.55.55 0 00-.5-.3h-2.9c-.21 0-.4.12-.5.3a2.75 2.75 0 000 2.44c.1.19.29.3.5.3h2.9c.21 0 .4-.11.5-.3.38-.77.38-1.66 0-2.44"/><path fill="none" stroke="#231f20" stroke-linejoin="round" stroke-width=".08" d="M79.97 53.45a.55.55 0 00-.5-.3h-2.9c-.21 0-.4.12-.5.3a2.75 2.75 0 000 2.44c.1.19.29.3.5.3h2.9c.21 0 .4-.11.5-.3.38-.77.38-1.66 0-2.44z"/><path fill="#231f20" fill-rule="nonzero" d="M79.69 55.76a.25.25 0 01-.22.14h-2.9a.24.24 0 01-.21-.14 2.46 2.46 0 010-2.17.24.24 0 01.22-.14h2.89c.05 0 .1.02.14.04l.08.1c.34.68.34 1.48 0 2.17m.07-2.22a.24.24 0 00-.09-.1.25.25 0 00-.14-.04H76.5c-.1 0-.19.05-.23.14a2.57 2.57 0 000 2.27c.02.04.05.08.1.1.04.03.08.04.13.04h3.02c.1 0 .19-.05.23-.14.35-.72.35-1.55 0-2.27"/><path fill="#fff" fill-rule="nonzero" d="M79.69 53.58a.27.27 0 00-.08-.09.26.26 0 00-.14-.04h-2.9c-.09 0-.17.05-.21.13a2.46 2.46 0 000 2.18.25.25 0 00.22.14h2.89c.1 0 .18-.06.22-.14.34-.69.34-1.49 0-2.18"/><path fill="#fff" fill-rule="nonzero" stroke="#231f20" stroke-linejoin="round" stroke-width=".08" d="M76.58 55.75c-.31-.67-.31-1.44 0-2.1h2.89c.3.66.3 1.43 0 2.1h-2.9z"/><path fill="#2c292a" fill-rule="nonzero" d="M88.33 53.45a.55.55 0 00-.5-.3h-2.9c-.2 0-.4.12-.5.3a2.76 2.76 0 000 2.44c.1.19.3.3.5.3h2.9c.22 0 .4-.11.5-.3.38-.77.38-1.66 0-2.44"/><path fill="none" stroke="#231f20" stroke-linejoin="round" stroke-width=".08" d="M88.33 53.45a.55.55 0 00-.5-.3h-2.9c-.2 0-.4.12-.5.3a2.76 2.76 0 000 2.44c.1.19.3.3.5.3h2.9c.22 0 .4-.11.5-.3.38-.77.38-1.66 0-2.44z"/><path fill="#231f20" fill-rule="nonzero" d="M88.05 55.76a.25.25 0 01-.22.14h-2.9a.24.24 0 01-.22-.14 2.46 2.46 0 010-2.17.25.25 0 01.23-.14h2.89c.05 0 .1.02.14.04l.08.1c.34.68.34 1.48 0 2.17m.07-2.22a.24.24 0 00-.08-.1.25.25 0 00-.15-.04h-3.02c-.1 0-.19.05-.23.14a2.57 2.57 0 000 2.27c.02.04.06.08.1.1.04.03.08.04.13.04h3.02c.1 0 .19-.05.23-.14.35-.72.35-1.55 0-2.27"/><path fill="#fff" fill-rule="nonzero" d="M88.05 53.58a.27.27 0 00-.08-.09.26.26 0 00-.14-.04h-2.9c-.09 0-.17.05-.21.13a2.46 2.46 0 000 2.18.24.24 0 00.22.14h2.89c.1 0 .18-.06.22-.14.34-.69.34-1.49 0-2.18"/><path fill="#fff" fill-rule="nonzero" stroke="#231f20" stroke-linejoin="round" stroke-width=".08" d="M84.94 55.75c-.3-.67-.3-1.44 0-2.1h2.89c.3.66.3 1.43 0 2.1h-2.9z"/><path id="button1" fill="#fff" fill-rule="nonzero" stroke="#231f20" stroke-linejoin="round" stroke-width=".3" d="M11.6 15.2a.55.55 0 00-.49-.3h-2.9c-.21 0-.4.12-.5.3a2.76 2.76 0 000 2.44c.1.18.29.3.5.3h2.9c.21 0 .4-.12.5-.3.37-.77.37-1.67 0-2.44z"/><path id="button2" fill="#fff" fill-rule="nonzero" stroke="#231f20" stroke-linejoin="round" stroke-width=".3" d="M19.97 15.2a.55.55 0 00-.5-.3h-2.9c-.21 0-.4.12-.5.3a2.76 2.76 0 000 2.44c.1.18.29.3.5.3h2.9c.21 0 .4-.12.5-.3.37-.77.37-1.67 0-2.44z"/><path id="button3" fill="#fff" fill-rule="nonzero" stroke="#231f20" stroke-linejoin="round" stroke-width=".3" d="M28.33 15.2a.55.55 0 00-.5-.3h-2.9c-.21 0-.4.12-.5.3a2.76 2.76 0 000 2.44c.1.18.29.3.5.3h2.9c.22 0 .4-.12.5-.3.38-.77.38-1.67 0-2.44z"/><path id="button4" fill="#fff" fill-rule="nonzero" stroke="#231f20" stroke-linejoin="round" stroke-width=".3" d="M36.7 15.2a.55.55 0 00-.5-.3h-2.9c-.22 0-.4.12-.5.3a2.76 2.76 0 000 2.44c.1.18.28.3.5.3h2.9c.2 0 .4-.12.5-.3.37-.77.37-1.67 0-2.44z"/><path id="button5" fill="#fff" fill-rule="nonzero" stroke="#231f20" stroke-linejoin="round" stroke-width=".3" d="M45.05 15.2a.55.55 0 00-.49-.3h-2.9c-.22 0-.4.12-.5.3a2.76 2.76 0 000 2.44c.1.18.28.3.5.3h2.9c.21 0 .4-.12.5-.3.37-.77.37-1.67 0-2.44z"/><path id="button6" fill="#fff" fill-rule="nonzero" stroke="#231f20" stroke-linejoin="round" stroke-width=".3" d="M53.41 15.2a.55.55 0 00-.49-.3h-2.9c-.21 0-.4.12-.5.3a2.76 2.76 0 000 2.44c.1.18.29.3.5.3h2.9c.21 0 .4-.12.5-.3.37-.77.37-1.67 0-2.44z"/><path id="button7" fill="#fff" fill-rule="nonzero" stroke="#231f20" stroke-linejoin="round" stroke-width=".3" d="M61.78 15.2a.55.55 0 00-.5-.3h-2.9c-.21 0-.4.12-.5.3a2.76 2.76 0 000 2.44c.1.18.29.3.5.3h2.9c.21 0 .4-.12.5-.3.37-.77.37-1.67 0-2.44z"/><path id="button8" fill="#fff" fill-rule="nonzero" stroke="#231f20" stroke-linejoin="round" stroke-width=".3" d="M70.14 15.2a.55.55 0 00-.5-.3h-2.9c-.21 0-.4.12-.5.3a2.75 2.75 0 000 2.44c.1.18.29.3.5.3h2.9c.22 0 .4-.12.5-.3.38-.77.38-1.67 0-2.44z"/><path id="button9" fill="#fff" fill-rule="nonzero" stroke="#231f20" stroke-linejoin="round" stroke-width=".3" d="M11.6 20.91a.55.55 0 00-.49-.3h-2.9c-.21 0-.4.12-.5.3a2.76 2.76 0 000 2.44c.1.18.29.3.5.3h2.9c.21 0 .4-.12.5-.3.37-.77.37-1.67 0-2.44z"/><path id="button10" fill="#fff" fill-rule="nonzero" stroke="#231f20" stroke-linejoin="round" stroke-width=".3" d="M19.97 20.91a.55.55 0 00-.5-.3h-2.9c-.21 0-.4.12-.5.3a2.76 2.76 0 000 2.44c.1.18.29.3.5.3h2.9c.21 0 .4-.12.5-.3.37-.77.37-1.67 0-2.44z"/><path id="button11" fill="#fff" fill-rule="nonzero" stroke="#231f20" stroke-linejoin="round" stroke-width=".3" d="M28.33 20.91a.55.55 0 00-.5-.3h-2.9c-.21 0-.4.12-.5.3a2.76 2.76 0 000 2.44c.1.18.29.3.5.3h2.9c.22 0 .4-.12.5-.3.38-.77.38-1.67 0-2.44z"/><path id="button12" fill="#fff" fill-rule="nonzero" stroke="#231f20" stroke-linejoin="round" stroke-width=".3" d="M36.7 20.91a.55.55 0 00-.5-.3h-2.9c-.22 0-.4.12-.5.3a2.76 2.76 0 000 2.44c.1.18.28.3.5.3h2.9c.2 0 .4-.12.5-.3.37-.77.37-1.67 0-2.44z"/><path id="button13" fill="#fff" fill-rule="nonzero" stroke="#231f20" stroke-linejoin="round" stroke-width=".3" d="M45.05 20.91a.55.55 0 00-.49-.3h-2.9c-.22 0-.4.12-.5.3a2.76 2.76 0 000 2.44c.1.18.28.3.5.3h2.9c.21 0 .4-.12.5-.3.37-.77.37-1.67 0-2.44z"/><path id="button14" fill="#fff" fill-rule="nonzero" stroke="#231f20" stroke-linejoin="round" stroke-width=".3" d="M53.41 20.91a.55.55 0 00-.49-.3h-2.9c-.21 0-.4.12-.5.3a2.76 2.76 0 000 2.44c.1.18.29.3.5.3h2.9c.21 0 .4-.12.5-.3.37-.77.37-1.67 0-2.44z"/><path id="button15" fill="#fff" fill-rule="nonzero" stroke="#231f20" stroke-linejoin="round" stroke-width=".3" d="M61.78 20.91a.55.55 0 00-.5-.3h-2.9c-.21 0-.4.12-.5.3a2.76 2.76 0 000 2.44c.1.18.29.3.5.3h2.9c.21 0 .4-.12.5-.3.37-.77.37-1.67 0-2.44z"/><path id="button16" fill="#fff" fill-rule="nonzero" stroke="#231f20" stroke-linejoin="round" stroke-width=".3" d="M70.14 20.91a.55.55 0 00-.5-.3h-2.9c-.21 0-.4.12-.5.3a2.75 2.75 0 000 2.44c.1.18.29.3.5.3h2.9c.22 0 .4-.12.5-.3.38-.77.38-1.67 0-2.44z"/><path id="encoder3" fill="#fff" fill-rule="nonzero" stroke="#231f20" stroke-linejoin="round" stroke-width=".3" d="M80.13 21.09a.55.55 0 00-.49-.3h-2.9c-.21 0-.4.11-.5.3a2.76 2.76 0 000 2.43c.1.19.29.3.5.3h2.9c.21 0 .4-.11.5-.3.37-.77.37-1.66 0-2.43z"/><path id="encoder4" fill="#fff" fill-rule="nonzero" stroke="#231f20" stroke-linejoin="round" stroke-width=".3" d="M88.13 21.09a.55.55 0 00-.49-.3h-2.9c-.21 0-.4.11-.5.3a2.76 2.76 0 000 2.43c.1.19.29.3.5.3h2.9c.21 0 .4-.11.5-.3.37-.77.37-1.66 0-2.43z"/><path id="encoder1" fill="#fff" fill-rule="nonzero" stroke="#231f20" stroke-linejoin="round" stroke-width=".3" d="M80.13 15.09a.55.55 0 00-.49-.3h-2.9c-.21 0-.4.11-.5.3a2.76 2.76 0 000 2.43c.1.19.29.3.5.3h2.9c.21 0 .4-.11.5-.3.37-.77.37-1.66 0-2.43z"/><path id="encoder2" fill="#fff" fill-rule="nonzero" stroke="#231f20" stroke-linejoin="round" stroke-width=".3" d="M88.13 15.09a.55.55 0 00-.49-.3h-2.9c-.21 0-.4.11-.5.3a2.76 2.76 0 000 2.43c.1.19.29.3.5.3h2.9c.21 0 .4-.11.5-.3.37-.77.37-1.66 0-2.43z"/><path fill="#231f20" fill-rule="nonzero" d="M79.98 39.53a.55.55 0 00-.49-.3h-2.9c-.21 0-.4.12-.5.3a2.76 2.76 0 000 2.44c.1.18.29.3.5.3h2.9c.21 0 .4-.12.5-.3.37-.77.37-1.67 0-2.44"/><path fill="none" stroke="#231f20" stroke-linejoin="round" stroke-width=".08" d="M79.98 39.53a.55.55 0 00-.49-.3h-2.9c-.21 0-.4.12-.5.3a2.76 2.76 0 000 2.44c.1.18.29.3.5.3h2.9c.21 0 .4-.12.5-.3.37-.77.37-1.67 0-2.44z"/><path fill="#231f20" fill-rule="nonzero" d="M79.7 41.84a.25.25 0 01-.22.13H76.6a.24.24 0 01-.22-.13 2.45 2.45 0 010-2.18.24.24 0 01.22-.13h2.9c.05 0 .1.01.14.04.03.02.06.05.08.1.33.68.33 1.48 0 2.17m.07-2.23a.23.23 0 00-.09-.09.25.25 0 00-.14-.05h-3.02c-.1 0-.2.06-.23.15a2.56 2.56 0 000 2.27c.02.04.05.08.1.1.03.02.08.04.13.04h3.02c.1 0 .18-.06.23-.14.35-.72.35-1.56 0-2.27"/><path fill="#fff" fill-rule="nonzero" d="M79.7 39.66a.26.26 0 00-.22-.14H76.6c-.1 0-.18.06-.22.14a2.46 2.46 0 000 2.18.24.24 0 00.22.13h2.9c.09 0 .17-.05.22-.13.33-.7.33-1.5 0-2.18"/><path fill="#fff" fill-rule="nonzero" stroke="#231f20" stroke-linejoin="round" stroke-width=".08" d="M76.6 41.83c-.31-.67-.31-1.44 0-2.1h2.88c.31.66.31 1.43 0 2.1H76.6z"/><path fill="#231f20" fill-rule="nonzero" d="M78.42 41.63h-.77a.25.25 0 01-.26-.25c0-.14.12-.25.26-.25h.77c.14 0 .26.11.26.25s-.12.25-.26.25m0-.55h-.77a.33.33 0 00-.32.32c0 .17.14.31.32.32h.77c.18 0 .33-.15.32-.33a.33.33 0 00-.32-.31M88.35 39.53a.55.55 0 00-.5-.3h-2.9c-.21 0-.4.12-.5.3a2.75 2.75 0 000 2.44c.1.18.29.3.5.3h2.9c.21 0 .4-.12.5-.3.38-.77.38-1.67 0-2.44"/><path fill="none" stroke="#231f20" stroke-linejoin="round" stroke-width=".08" d="M88.35 39.53a.55.55 0 00-.5-.3h-2.9c-.21 0-.4.12-.5.3a2.75 2.75 0 000 2.44c.1.18.29.3.5.3h2.9c.21 0 .4-.12.5-.3.38-.77.38-1.67 0-2.44z"/><path fill="#231f20" fill-rule="nonzero" d="M88.07 41.84a.25.25 0 01-.22.13h-2.9a.24.24 0 01-.22-.13 2.45 2.45 0 010-2.18.25.25 0 01.22-.13h2.9c.05 0 .1.01.14.04.03.02.06.05.08.1.34.68.34 1.48 0 2.17m.07-2.23a.22.22 0 00-.09-.09.25.25 0 00-.14-.05h-3.02c-.1 0-.19.06-.23.15a2.57 2.57 0 000 2.27c.02.04.05.08.1.1.03.02.08.04.13.04h3.02c.1 0 .19-.06.23-.14.35-.72.35-1.56 0-2.27"/><path fill="#fff" fill-rule="nonzero" d="M88.07 39.66a.24.24 0 00-.08-.09.26.26 0 00-.14-.05h-2.9c-.09 0-.17.06-.22.14a2.46 2.46 0 000 2.18.24.24 0 00.22.13h2.9c.09 0 .18-.05.22-.13.34-.7.34-1.5 0-2.18"/><path fill="#fff" fill-rule="nonzero" stroke="#231f20" stroke-linejoin="round" stroke-width=".08" d="M84.95 41.83c-.3-.67-.3-1.44 0-2.1h2.9c.3.66.3 1.43 0 2.1h-2.9z"/><path fill="#231f20" fill-rule="nonzero" d="M86.78 41.63h-.77a.25.25 0 01-.25-.25c0-.14.11-.25.25-.25h.77c.15 0 .26.11.26.25s-.11.25-.26.25m0-.55h-.77a.33.33 0 00-.32.32c0 .17.15.31.32.32h.77c.19 0 .33-.15.33-.33a.33.33 0 00-.33-.31M79.98 45.42a.55.55 0 00-.49-.3h-2.9c-.21 0-.4.12-.5.3a2.76 2.76 0 000 2.44c.1.18.29.3.5.3h2.9c.21 0 .4-.12.5-.3.37-.77.37-1.67 0-2.44"/><path fill="none" stroke="#231f20" stroke-linejoin="round" stroke-width=".08" d="M79.98 45.42a.55.55 0 00-.49-.3h-2.9c-.21 0-.4.12-.5.3a2.76 2.76 0 000 2.44c.1.18.29.3.5.3h2.9c.21 0 .4-.12.5-.3.37-.77.37-1.67 0-2.44z"/><path fill="#231f20" fill-rule="nonzero" d="M79.7 47.73a.25.25 0 01-.22.13H76.6a.24.24 0 01-.13-.03.24.24 0 01-.09-.1 2.46 2.46 0 010-2.18.24.24 0 01.22-.13h2.9a.25.25 0 01.22.13c.33.69.33 1.49 0 2.18m.07-2.23a.26.26 0 00-.23-.14h-3.02c-.1 0-.2.06-.23.14a2.56 2.56 0 000 2.27.26.26 0 00.23.15h3.02c.1 0 .18-.06.23-.15.35-.71.35-1.55 0-2.27"/><path fill="#fff" fill-rule="nonzero" d="M79.7 45.55a.25.25 0 00-.22-.14H76.6c-.1 0-.18.06-.22.14a2.46 2.46 0 000 2.18c.02.04.05.07.1.1.03.02.08.03.12.03h2.9c.09 0 .17-.05.22-.13.33-.7.33-1.5 0-2.18"/><path fill="#fff" fill-rule="nonzero" stroke="#231f20" stroke-linejoin="round" stroke-width=".08" d="M76.6 47.71c-.31-.66-.31-1.43 0-2.1h2.88c.31.67.31 1.44 0 2.1H76.6z"/><path fill="#231f20" fill-rule="nonzero" d="M78.42 47.52h-.77a.25.25 0 01-.26-.25c0-.14.12-.25.26-.25h.77c.14 0 .26.11.26.25s-.12.25-.26.25m0-.55h-.77a.32.32 0 00-.32.32c0 .17.14.31.32.32h.77c.18 0 .33-.15.32-.33a.33.33 0 00-.32-.31M88.35 45.42a.55.55 0 00-.5-.3h-2.9c-.21 0-.4.12-.5.3a2.75 2.75 0 000 2.44c.1.18.29.3.5.3h2.9c.21 0 .4-.12.5-.3.38-.77.38-1.67 0-2.44"/><path fill="none" stroke="#231f20" stroke-linejoin="round" stroke-width=".08" d="M88.35 45.42a.55.55 0 00-.5-.3h-2.9c-.21 0-.4.12-.5.3a2.75 2.75 0 000 2.44c.1.18.29.3.5.3h2.9c.21 0 .4-.12.5-.3.38-.77.38-1.67 0-2.44z"/><path fill="#231f20" fill-rule="nonzero" d="M88.07 47.73a.25.25 0 01-.22.13h-2.9a.23.23 0 01-.12-.03.24.24 0 01-.1-.1 2.46 2.46 0 010-2.18.24.24 0 01.22-.13h2.9a.25.25 0 01.22.13c.34.69.34 1.49 0 2.18m.07-2.23a.24.24 0 00-.09-.1.25.25 0 00-.14-.04h-3.02c-.1 0-.19.06-.23.14a2.57 2.57 0 000 2.27c.02.05.05.08.1.1.03.03.08.05.13.05h3.02c.1 0 .19-.06.23-.15.35-.71.35-1.55 0-2.27"/><path fill="#fff" fill-rule="nonzero" d="M88.07 45.55a.25.25 0 00-.22-.14h-2.9c-.09 0-.17.06-.22.14a2.46 2.46 0 000 2.18c.02.04.06.07.1.1.03.02.08.03.12.03h2.9c.09 0 .18-.05.22-.13.34-.7.34-1.5 0-2.18"/><path fill="#fff" fill-rule="nonzero" stroke="#231f20" stroke-linejoin="round" stroke-width=".08" d="M84.95 47.71c-.3-.66-.3-1.43 0-2.1h2.9c.3.67.3 1.44 0 2.1h-2.9z"/><path fill="#231f20" fill-rule="nonzero" d="M86.78 47.52h-.77a.25.25 0 01-.25-.25c0-.14.11-.25.25-.25h.77c.15 0 .26.11.26.25s-.11.25-.26.25m0-.55h-.77a.33.33 0 00-.32.32c0 .17.15.31.32.32h.77c.19 0 .33-.15.33-.33a.33.33 0 00-.33-.31"/><path id="button17" fill="#fff" fill-rule="nonzero" stroke="#231f20" stroke-linejoin="round" stroke-width=".3" d="M79.98 61.44a.55.55 0 00-.49-.3h-2.9c-.21 0-.4.11-.5.3a2.76 2.76 0 000 2.43c.1.19.29.3.5.3h2.9c.21 0 .4-.11.5-.3.37-.77.37-1.66 0-2.43z"/><path id="button18" fill="#fff" fill-rule="nonzero" stroke="#231f20" stroke-linejoin="round" stroke-width=".3" d="M88.35 61.44a.55.55 0 00-.5-.3h-2.9c-.21 0-.4.11-.5.3a2.75 2.75 0 000 2.43c.1.19.29.3.5.3h2.9c.21 0 .4-.11.5-.3.38-.77.38-1.66 0-2.43z"/><path id="button19" fill="#fff" fill-rule="nonzero" stroke="#231f20" stroke-linejoin="round" stroke-width=".3" d="M79.98 67.33a.55.55 0 00-.49-.3h-2.9c-.21 0-.4.11-.5.3a2.76 2.76 0 000 2.43c.1.18.29.3.5.3h2.9c.21 0 .4-.12.5-.3.37-.77.37-1.67 0-2.43z"/><path id="button20" fill="#fff" fill-rule="nonzero" stroke="#231f20" stroke-linejoin="round" stroke-width=".3" d="M88.35 67.33a.55.55 0 00-.5-.3h-2.9c-.21 0-.4.11-.5.3a2.75 2.75 0 000 2.43c.1.18.29.3.5.3h2.9c.21 0 .4-.12.5-.3.38-.77.38-1.67 0-2.43z"/><path id="rotor1" fill="#fff" fill-rule="nonzero" stroke="#231f20" stroke-width=".25" d="M9.7 5.61a3.82 3.82 0 00-3.82 3.8 3.82 3.82 0 007.65 0c0-2.1-1.71-3.8-3.83-3.8z"/><path id="rotor9" fill="#fff" fill-rule="nonzero" stroke="#231f20" stroke-width=".25" d="M67.83 5.6A3.82 3.82 0 0064 9.42c0 2.1 1.71 3.81 3.83 3.81 2.11 0 3.82-1.7 3.82-3.8 0-2.1-1.71-3.81-3.82-3.81z"/><path id="rotor7" fill="#fff" fill-rule="nonzero" stroke="#231f20" stroke-width=".25" d="M59.52 5.6a3.82 3.82 0 00-3.82 3.81 3.82 3.82 0 007.65 0c0-2.1-1.71-3.8-3.83-3.8z"/><path id="rotor6" fill="#fff" fill-rule="nonzero" stroke="#231f20" stroke-width=".25" d="M51.22 5.6a3.82 3.82 0 00-3.83 3.81c0 2.1 1.72 3.81 3.83 3.81 2.11 0 3.83-1.7 3.83-3.8 0-2.1-1.72-3.81-3.83-3.81z"/><path id="rotor5" fill="#fff" fill-rule="nonzero" stroke="#231f20" stroke-width=".25" d="M42.92 5.6a3.82 3.82 0 00-3.83 3.81c0 2.1 1.71 3.81 3.83 3.81 2.11 0 3.82-1.7 3.82-3.8 0-2.1-1.71-3.81-3.82-3.81z"/><path id="rotor4" fill="#fff" fill-rule="nonzero" stroke="#231f20" stroke-width=".25" d="M34.61 5.6a3.82 3.82 0 00-3.82 3.81 3.82 3.82 0 007.65 0c0-2.1-1.71-3.8-3.83-3.8z"/><path id="rotor3" fill="#fff" fill-rule="nonzero" stroke="#231f20" stroke-width=".25" d="M26.3 5.6a3.82 3.82 0 00-3.82 3.81c0 2.1 1.72 3.81 3.83 3.81 2.11 0 3.82-1.7 3.82-3.8 0-2.1-1.7-3.81-3.82-3.81z"/><path id="rotor2" fill="#fff" fill-rule="nonzero" stroke="#231f20" stroke-width=".25" d="M18 5.6a3.82 3.82 0 00-3.82 3.81c0 2.1 1.71 3.81 3.83 3.81 2.1 0 3.82-1.7 3.82-3.8 0-2.1-1.71-3.81-3.82-3.81z"/><path fill="#fff" d="M82.73 8.34l-.1.08-.03.83.08.09.1-.09.05-.83-.1-.08z"/><path fill="#fff" fill-rule="nonzero" d="M77.63 10.58l-.1.09.1.07h1.1l.1-.07-.09-.09h-1.1z"/><path fill="#fff" d="M78.98 9.5l-.1.09-.05.91.1.08.09-.08.05-.91-.08-.09zM84.21 8.34l-.1.08-.04.83.08.09.1-.09.05-.83-.09-.08zM84.14 9.5l-.1.09-.05.91.1.08.09-.08.05-.91-.09-.09zM82.86 9.34l-.1.08.09.08h1.1l.1-.08-.08-.08h-1.11zM77.58 8.34l-.1.08-.04.83.08.09.1-.09.05-.83-.1-.08zM77.51 9.5l-.1.09-.05.91.09.08.1-.08.04-.91-.08-.09zM79.05 8.34l-.1.08-.05.83.1.09.1-.09.04-.83-.09-.08z"/><path fill="#fff" fill-rule="nonzero" d="M80.13 9.34l-.1.08.1.08h1.1l.1-.08-.09-.08h-1.1z"/></svg>