<svg xmlns="http://www.w3.org/2000/svg" fill-rule="evenodd" clip-rule="evenodd" viewBox="0 0 96 86"><defs/><path fill="#dcddde" stroke="#231f20" stroke-width=".12" d="M4.618 32.055H91.38v42.513H4.618z"/><path fill="#dcddde" stroke="#231f20" stroke-width=".12" d="M4.532 5.193h86.764v26.909H4.532z"/><path fill="none" stroke="#231f20" stroke-width=".12" d="M72.27 25.907a.293.293 0 01-.293.293H5.77a.293.293 0 01-.293-.293V14.268c0-.161.132-.293.293-.293h66.207c.161 0 .293.132.293.293v11.639zm17.685 46.361c0 .16-.131.291-.293.291H74.717a.294.294 0 01-.293-.291V60.637c0-.161.133-.293.293-.293h14.945c.162 0 .293.132.293.293v11.631zm0-14.908c0 .16-.131.292-.293.292H74.717a.294.294 0 01-.293-.292v-4.703c0-.162.133-.293.293-.293h14.945c.162 0 .293.131.293.293v4.703z"/><path fill="#dcddde" fill-rule="nonzero" stroke="#231f20" stroke-width=".12" d="M4.619.538C3.155.576 2.327.557 2.003.557c-.327 0-.681.134-.729.69C-1.058 27.928.502 72.514.615 74.551c0 2.943.583 8.208 1.059 10.314.19.572.685.555.961.567.275.011 1.984.03 1.984.03V.538zM91.381.538c1.465.038 2.291.019 2.617.019.325 0 .679.134.727.69 2.333 26.681.773 71.267.66 73.304 0 2.943-.583 8.208-1.06 10.314-.189.572-.685.555-.96.567-.276.011-1.984.03-1.984.03V.538z"/><path fill="#dcddde" fill-rule="nonzero" stroke="#231f20" stroke-width=".12" d="M4.619.538L3.382.584S2.383.517 2.23 1.982C1.916 4.948.716 19.018 2.115 30.631c.144 1.188 1.253 1.401 1.526 1.406l.978.017V.538zM91.381.538l1.237.046s.999-.067 1.153 1.398c.313 2.966 1.514 17.036.113 28.649-.144 1.188-1.253 1.401-1.527 1.406l-.976.017V.538z"/><path fill="#dcddde" stroke="#231f20" stroke-width=".12" d="M4.618 74.567H91.38V85.44H4.618zM4.618.538H91.38v4.63H4.618z"/><path fill="#231f20" fill-rule="nonzero" d="M80.825 57.091h.136c.037 0 .061-.007.073-.017.011-.012.017-.037.017-.075 0-.04-.006-.065-.017-.079-.01-.013-.035-.018-.073-.018h-.136v.189m-.104.264v-.543h.24c.074 0 .125.013.151.038.028.024.043.075.043.149s-.016.123-.044.147c-.027.022-.076.033-.149.033h-.137v.176h-.104zM81.324 57.087h.138c.039 0 .065-.006.076-.018.013-.012.019-.038.019-.077 0-.038-.005-.063-.017-.074-.011-.011-.034-.016-.072-.016h-.144v.185m.16.089h-.16v.179h-.104v-.543h.277c.06 0 .102.013.127.037.024.023.037.065.037.126a.257.257 0 01-.014.101c-.013.028-.041.045-.082.052v.003c.035.003.059.014.074.035.012.018.018.047.018.088v.101h-.104v-.101c0-.052-.022-.078-.069-.078M81.843 56.902v.135h.252v.085h-.252v.144h.269v.089h-.372v-.543h.369v.09h-.266zM82.168 57.182h.104v.025c0 .03.01.048.026.056a.31.31 0 00.098.01c.045 0 .076-.006.089-.017.012-.009.018-.03.018-.062 0-.025-.004-.043-.014-.052-.008-.009-.022-.015-.04-.017l-.067-.003a1.058 1.058 0 01-.107-.009c-.034-.008-.06-.021-.075-.042-.02-.024-.029-.06-.029-.11 0-.067.022-.111.064-.132a.412.412 0 01.161-.021c.07 0 .117.006.142.021.039.02.059.062.059.125v.018h-.104v-.018c0-.027-.008-.045-.021-.052a.205.205 0 00-.076-.008.25.25 0 00-.099.012c-.014.008-.022.027-.022.055 0 .033.008.052.02.061a.345.345 0 00.1.014.471.471 0 01.169.03c.029.02.043.062.043.128 0 .071-.018.117-.053.139-.027.018-.079.025-.158.025a.492.492 0 01-.159-.017c-.045-.02-.069-.064-.069-.134v-.025M82.775 56.902v.135h.254v.085h-.254v.144h.271v.089h-.375v-.543h.372v.09h-.268zM83.342 56.902v.453h-.104v-.453h-.158v-.09h.422v.09h-.16zM78.314 57.426l-.593-.307.593-.307v.614zM86.081 56.812l.592.308-.592.306v-.614zM77.354 48.911v.135h.254v.086h-.254v.144h.269v.088h-.374v-.542h.372v.089h-.267zM77.805 49.276h.172c.032 0 .058-.013.073-.039a.167.167 0 00.02-.085v-.129c0-.044-.008-.074-.025-.089-.015-.015-.044-.023-.085-.023h-.155v.365m-.104.088v-.542h.259c.076 0 .13.016.163.046.034.031.051.083.051.155v.129a.254.254 0 01-.037.148c-.03.042-.084.064-.16.064h-.276z"/><path fill="#231f20" d="M78.249 48.822h.104v.542h-.104z"/><path fill="#231f20" fill-rule="nonzero" d="M78.665 48.911v.453h-.104v-.453h-.159v-.089h.422v.089h-.159zM85.735 48.917v.136h.254v.086h-.254v.143h.269v.089h-.373v-.542h.371v.088h-.267zM86.536 48.829l-.161.262.173.28h-.121l-.136-.23-.138.23h-.122l.179-.28-.165-.262h.12l.126.215.125-.215h.12z"/><path fill="#231f20" d="M86.587 48.829h.104v.542h-.104z"/><path fill="#231f20" fill-rule="nonzero" d="M87.002 48.917v.454h-.104v-.454h-.158v-.088h.422v.088h-.16zM85.286 42.885v.453h.253v.089h-.357v-.542h.104zM85.686 42.974v.135h.254v.085h-.254v.144h.269v.089h-.373v-.542h.371v.089h-.267zM86.34 43.247l-.093-.282h-.001l-.094.282h.188m.023.078h-.234l-.034.102h-.107l.179-.542h.153l.184.542h-.106l-.035-.102zM86.649 43.159h.138c.039 0 .064-.005.076-.018.013-.012.019-.037.019-.077 0-.037-.006-.063-.017-.074-.01-.011-.033-.016-.071-.016h-.145v.185m.159.089h-.159v.179h-.103v-.542h.275c.062 0 .104.013.127.036.026.024.038.066.038.127a.245.245 0 01-.014.101c-.014.028-.04.045-.083.051v.003c.037.003.061.015.075.036.012.018.018.046.018.087v.101h-.104v-.101c0-.052-.023-.078-.07-.078M87.476 43.338l-.008-.453h.104v.542H87.4l-.23-.453h-.004l.009.453h-.103v-.542h.171l.232.453h.001zM76.843 43.26h.103v.025c0 .03.01.048.027.056.014.006.046.01.097.01.046 0 .075-.006.089-.017.013-.01.019-.03.019-.062 0-.025-.005-.043-.014-.053a.068.068 0 00-.041-.016l-.068-.003a.832.832 0 01-.107-.01.12.12 0 01-.074-.041c-.019-.024-.028-.06-.028-.11 0-.067.021-.111.063-.132a.393.393 0 01.161-.021c.069 0 .116.006.142.019.039.021.059.063.059.127v.018h-.104v-.018c0-.028-.007-.045-.021-.052a.202.202 0 00-.076-.008.273.273 0 00-.098.011c-.015.009-.022.027-.022.056 0 .033.006.052.021.06a.287.287 0 00.099.015.442.442 0 01.168.03c.029.019.044.062.044.128 0 .07-.018.116-.055.139-.026.018-.079.025-.157.025a.492.492 0 01-.159-.017c-.045-.02-.068-.064-.068-.134v-.025M77.57 42.979v.453h-.104v-.453h-.16v-.089h.423v.089h-.159zM77.987 42.974c-.054 0-.089.007-.104.022-.014.013-.021.042-.021.087v.146c0 .053.008.087.024.1.014.013.048.019.101.019.05 0 .084-.006.099-.02.02-.015.028-.047.028-.099v-.146c0-.048-.01-.078-.028-.092-.015-.012-.049-.017-.099-.017m0-.088c.085 0 .144.01.174.034.038.027.057.082.057.163v.146c0 .084-.018.14-.054.169-.031.026-.091.038-.177.038-.089 0-.147-.012-.177-.037-.034-.027-.052-.084-.052-.17v-.146c0-.081.017-.135.05-.161.031-.024.09-.036.179-.036M78.394 43.165h.137c.04 0 .065-.006.077-.018.013-.012.019-.038.019-.077 0-.038-.005-.063-.017-.075-.01-.011-.033-.016-.072-.016h-.144v.186m.16.088h-.16v.179h-.104v-.542h.277c.061 0 .103.013.126.037.026.023.038.065.038.126a.242.242 0 01-.014.101c-.014.028-.04.046-.082.052v.002c.035.003.059.015.074.036a.161.161 0 01.018.087v.101h-.105v-.101c0-.052-.022-.078-.068-.078M78.912 42.979v.136h.254v.084h-.254v.145h.27v.088h-.374v-.542h.372v.089h-.268zM23.375 72.11v-.21h.069a.54.54 0 00.106-.005c.031-.011.046-.038.046-.083 0-.048-.007-.081-.02-.095-.018-.016-.062-.025-.132-.025-.06 0-.1.006-.115.017-.025.014-.039.051-.039.109v.022h-.273v-.037c0-.143.039-.237.116-.285.058-.034.165-.051.324-.051.123 0 .214.014.272.041.094.045.141.129.141.25 0 .15-.055.23-.166.245v.011c.12.005.18.084.18.232 0 .13-.04.218-.122.265-.062.038-.164.057-.305.057-.152 0-.259-.017-.321-.05-.087-.048-.131-.142-.131-.281v-.056h.274v.034c0 .056.016.091.045.109.02.012.061.018.12.018.067 0 .109-.006.129-.018.024-.018.037-.055.037-.113 0-.039-.009-.065-.027-.077-.02-.016-.067-.024-.139-.024h-.069M31.904 72.136v-.438h-.011l-.328.438h.339m.274-.659v.659h.093v.21h-.093v.213h-.274v-.213h-.566v-.31l.414-.559h.426zM39.739 72.244h.273c.004.041.017.069.042.083.017.01.05.015.097.015.069 0 .112-.006.129-.019.024-.018.036-.059.036-.123 0-.075-.008-.12-.023-.138-.018-.02-.066-.031-.142-.031a.607.607 0 00-.098.005.068.068 0 00-.041.046h-.249v-.605h.784v.209h-.535v.208a.24.24 0 01.096-.067.47.47 0 01.142-.013c.129 0 .218.028.269.085.048.052.071.142.071.27 0 .165-.034.275-.103.329-.057.047-.17.07-.336.07-.143 0-.245-.02-.304-.062-.07-.048-.106-.135-.108-.262M48.503 72.126a.266.266 0 00-.112.016c-.018.012-.027.039-.027.08 0 .051.008.083.025.098.016.014.054.022.114.022.079 0 .127-.006.146-.02.019-.013.028-.048.028-.106 0-.043-.014-.069-.039-.079a.46.46 0 00-.135-.011m.456-.319h-.274c0-.052-.012-.085-.034-.099a.286.286 0 00-.116-.016c-.072 0-.116.007-.135.021-.023.017-.036.061-.036.13v.171h.002c.018-.05.043-.083.077-.1a.372.372 0 01.121-.014c.141 0 .238.017.289.049.066.045.098.131.098.262 0 .143-.034.24-.104.291-.059.044-.163.066-.312.066-.18 0-.299-.028-.356-.083-.06-.057-.089-.176-.089-.355v-.271c0-.161.035-.268.105-.323.059-.046.172-.068.34-.068.141 0 .239.012.296.039.086.042.128.127.128.254v.046zM57.267 71.477v.242l-.36.84h-.303l.367-.841-.521.001v-.242h.817zM65.244 71.902c.064 0 .105-.006.123-.019.018-.014.028-.044.028-.094 0-.04-.008-.066-.023-.077-.019-.013-.061-.02-.128-.02a.294.294 0 00-.108.012c-.026.013-.039.045-.039.096 0 .045.011.072.034.086.017.01.056.016.113.016m-.004.21a.414.414 0 00-.116.011c-.031.015-.046.05-.046.105 0 .047.011.077.033.092a.273.273 0 00.129.022c.078 0 .127-.008.147-.023.015-.014.024-.046.024-.095 0-.05-.01-.082-.028-.094-.018-.012-.066-.018-.143-.018m.004.456a.717.717 0 01-.307-.049c-.089-.046-.134-.131-.134-.26 0-.067.015-.123.047-.168a.183.183 0 01.15-.081V72a.232.232 0 01-.139-.086.287.287 0 01-.039-.161c0-.119.045-.2.131-.243a.719.719 0 01.291-.042.73.73 0 01.299.043c.084.043.126.129.126.253 0 .075-.012.127-.034.157-.022.032-.065.058-.131.079v.01c.121.017.181.099.181.249 0 .131-.044.218-.129.262a.758.758 0 01-.312.047M15.511 72.334v.225h-.854v-.225c0-.125.022-.208.066-.249.044-.042.15-.082.315-.121a.664.664 0 00.171-.052c.018-.012.027-.046.027-.1 0-.055-.014-.09-.04-.105a.268.268 0 00-.112-.015c-.067 0-.11.007-.127.021-.018.013-.026.049-.026.105v.054h-.274v-.054c0-.139.037-.234.11-.286.062-.044.167-.064.317-.064.146 0 .249.018.309.055.079.049.118.144.118.285 0 .117-.022.198-.065.242-.036.041-.114.076-.233.109l-.223.054c-.04.017-.059.057-.059.121h.58M7.015 71.477v1.082h-.29v-.828l-.28.257-.163-.185.394-.326h.339z"/><path fill="none" stroke="#231f20" stroke-linecap="round" stroke-linejoin="round" stroke-width=".12" d="M72.27 33.481v39.078m-8.275-39.078v39.078m-8.36-39.078v39.078m-8.359-39.078v39.078m-8.36-39.078v39.078m-8.36-39.078v39.078m-8.359-39.078v39.078M5.477 33.481v39.078m8.36-39.078v39.078"/><path fill="#feffff" fill-rule="nonzero" d="M89.66 25.615a.292.292 0 01-.292.292h-14.36a.294.294 0 01-.295-.292v-.966c0-.16.133-.292.295-.292h14.36c.161 0 .292.132.292.292v.966M89.66 71.975a.293.293 0 01-.292.293h-14.36a.295.295 0 01-.295-.293v-.966c0-.16.133-.292.295-.292h14.36c.161 0 .292.132.292.292v.966M89.66 66.032a.293.293 0 01-.292.293h-14.36a.295.295 0 01-.295-.293v-.966c0-.16.133-.292.295-.292h14.36c.161 0 .292.132.292.292v.966M89.66 19.674a.292.292 0 01-.292.292h-14.36a.294.294 0 01-.295-.292v-.965c0-.161.133-.293.295-.293h14.36c.161 0 .292.132.292.293v.965"/><path fill="none" stroke="#231f20" stroke-width=".12" d="M89.955 25.907a.293.293 0 01-.293.293H74.717a.294.294 0 01-.293-.293v-11.64c0-.16.133-.292.293-.292h14.945c.162 0 .293.132.293.292v11.64zM89.955 49.379c0 .16-.131.292-.293.292H74.717a.294.294 0 01-.293-.292V38.738c0-.162.133-.293.293-.293h14.945c.162 0 .293.131.293.293v10.641z"/><path fill="#feffff" fill-rule="nonzero" d="M71.977 25.615a.292.292 0 01-.292.292H6.062a.292.292 0 01-.292-.292v-.966c0-.16.131-.292.292-.292h65.623c.161 0 .292.132.292.292v.966M71.977 19.675a.291.291 0 01-.292.291H6.062a.291.291 0 01-.292-.291v-.966c0-.161.131-.293.292-.293h65.623c.161 0 .292.132.292.293v.966"/><path fill="#dcddde" d="M78.354 13.657h7.452v.718h-7.452z"/><path fill="#231f20" fill-rule="nonzero" d="M78.761 13.796v.136h.254v.085h-.254v.144h.269v.088h-.373v-.542h.372v.089h-.268zM79.518 14.161l-.009-.454h.105v.542h-.173l-.231-.453h-.003l.009.453h-.104v-.542h.171l.232.454h.003zM80.134 13.888h-.104v-.03c0-.03-.007-.049-.024-.056-.013-.008-.043-.011-.091-.011-.053 0-.087.007-.1.021-.017.016-.023.049-.023.102v.121c0 .056.006.092.021.106.014.016.048.024.102.024a.256.256 0 00.092-.011c.019-.011.028-.034.028-.07v-.03h.104v.037c0 .051-.008.088-.028.112a.112.112 0 01-.079.041.99.99 0 01-.117.009c-.092.004-.154-.011-.187-.045-.026-.029-.04-.085-.04-.169v-.124c0-.084.018-.141.052-.172.034-.027.091-.041.175-.041.081 0 .134.007.159.02.04.02.06.065.06.137v.029M80.421 13.791c-.054 0-.088.008-.103.022-.014.013-.021.042-.021.087v.147c0 .053.008.085.023.099.014.012.048.019.101.019.051 0 .084-.007.1-.02.017-.015.027-.047.027-.098V13.9c0-.048-.01-.079-.028-.093-.015-.011-.048-.016-.099-.016m0-.088c.085 0 .144.01.174.033.039.027.057.083.057.164v.147c0 .083-.017.139-.053.168-.032.026-.091.039-.178.039-.088 0-.147-.013-.176-.038-.035-.027-.052-.084-.052-.169V13.9c0-.081.016-.135.048-.161.032-.024.091-.036.18-.036M80.829 14.161h.172a.08.08 0 00.073-.039.162.162 0 00.019-.085v-.128c0-.045-.008-.075-.023-.09-.017-.015-.046-.023-.086-.023h-.155v.365m-.103.088v-.542h.258c.076 0 .13.016.164.047.032.03.05.083.05.155v.128a.25.25 0 01-.037.148c-.031.043-.084.064-.16.064h-.275zM81.37 13.796v.136h.253v.085h-.253v.144h.269v.088h-.374v-.542h.371v.089h-.266zM81.82 13.982h.138c.039 0 .064-.006.076-.018.012-.012.019-.038.019-.077s-.006-.064-.017-.075c-.011-.01-.034-.016-.071-.016h-.145v.186m.16.089h-.16v.178h-.104v-.542h.277c.06 0 .102.013.127.036.024.024.038.066.038.126a.24.24 0 01-.015.102c-.013.029-.041.046-.083.052v.003c.036.003.061.014.075.034.013.018.019.047.019.089v.1h-.105v-.1c0-.053-.024-.078-.069-.078M82.706 13.961h.239v.099c0 .079-.013.132-.043.156-.03.025-.094.037-.189.037-.092 0-.153-.012-.185-.038-.036-.029-.054-.087-.054-.174v-.126c0-.086.019-.145.056-.173.033-.027.093-.04.183-.04.059 0 .1.002.12.005.037.006.066.02.083.043.02.025.03.066.029.12h-.104c0-.036-.01-.06-.031-.069a.27.27 0 00-.097-.01c-.061 0-.098.007-.113.021-.014.015-.022.049-.022.103v.126c0 .055.008.09.023.104.015.012.052.019.112.019.053 0 .086-.004.101-.013.018-.013.027-.043.027-.091v-.019h-.135v-.08M83.122 13.982h.136c.04 0 .065-.006.078-.018.012-.012.019-.038.019-.077s-.006-.064-.017-.075c-.011-.01-.035-.016-.071-.016h-.145v.186m.159.089h-.159v.178h-.104v-.542h.277c.06 0 .102.013.127.036.024.024.037.066.037.126a.284.284 0 01-.014.102c-.015.029-.041.046-.083.052v.003c.036.003.06.014.074.034a.163.163 0 01.019.089v.1h-.104v-.1c0-.053-.024-.078-.07-.078M83.753 13.791c-.054 0-.089.008-.104.022-.014.013-.021.042-.021.087v.147c0 .053.008.085.023.099.014.012.049.019.102.019.05 0 .083-.007.099-.02.017-.015.027-.047.027-.098V13.9c0-.048-.01-.079-.028-.093-.015-.011-.047-.016-.098-.016m0-.088c.085 0 .143.01.173.033.039.027.058.083.058.164v.147c0 .083-.018.139-.055.168-.031.026-.09.039-.176.039-.089 0-.147-.013-.178-.038-.033-.027-.051-.084-.051-.169V13.9c0-.081.016-.135.049-.161.032-.024.09-.036.18-.036M84.406 13.707h.104v.386c0 .068-.021.114-.064.136a.384.384 0 01-.163.024.366.366 0 01-.159-.024c-.044-.022-.066-.068-.066-.136v-.386h.104v.387c0 .027.008.046.024.057a.224.224 0 00.097.014c.05 0 .082-.005.099-.014.016-.01.024-.03.024-.057v-.387M84.701 13.985h.135c.038 0 .061-.006.073-.017.01-.012.016-.037.016-.075 0-.039-.006-.065-.016-.078-.01-.012-.034-.019-.073-.019h-.135v.189m-.105.263v-.541h.24c.075 0 .125.013.152.037.027.025.042.075.042.149 0 .075-.015.123-.044.148-.026.021-.075.032-.15.032h-.135v.175h-.105zM85.076 14.076h.104v.025c0 .031.008.05.025.056.015.007.046.01.098.01.046 0 .075-.005.089-.016.012-.01.018-.03.018-.063 0-.025-.004-.042-.014-.052-.007-.009-.021-.014-.04-.016l-.068-.003c-.055-.004-.09-.006-.106-.009-.034-.007-.06-.021-.075-.042-.019-.024-.028-.06-.028-.11 0-.068.022-.111.064-.133a.402.402 0 01.16-.021c.068 0 .115.007.142.02.038.021.058.063.058.126v.018H85.4v-.018c0-.027-.008-.044-.022-.051a.185.185 0 00-.075-.009c-.053 0-.085.004-.099.013-.014.007-.021.026-.021.055 0 .032.006.052.021.06.01.007.044.013.098.015a.49.49 0 01.169.03c.03.02.043.062.043.127 0 .07-.018.117-.053.14-.027.017-.079.025-.158.025a.488.488 0 01-.159-.017c-.045-.02-.068-.065-.068-.134v-.026"/><path fill="none" stroke="#231f20" stroke-width=".12" d="M72.45 9.443h.602c.162 0 .294.133.294.293V18.9c0 .161.131.292.292.292h.792"/><path fill="#231f20" fill-rule="nonzero" d="M75.319 34.089v-.051a.066.066 0 00-.027-.057.108.108 0 00-.064-.02h-.587v-.171h.587c.061 0 .091-.026.091-.078v-.049c0-.055-.03-.084-.091-.084h-.656v.593h.656c.061 0 .091-.027.091-.083m.168 0a.237.237 0 01-.076.18.26.26 0 01-.183.071h-.821v-.929h.821c.071 0 .133.023.183.07.05.048.076.109.076.181v.049a.236.236 0 01-.065.164.256.256 0 01.056.098.637.637 0 01.009.116"/><path fill="#231f20" d="M75.705 33.795h.641v.153h-.641z"/><path fill="#231f20" fill-rule="nonzero" d="M77.595 34.34h-.778a.253.253 0 01-.181-.071.234.234 0 01-.077-.18v-.428c0-.07.026-.128.078-.178a.256.256 0 01.18-.073h.778v.167h-.778a.095.095 0 00-.062.025.081.081 0 00-.028.06v.427c0 .056.03.083.09.083h.778v.168M78.681 34.089v-.427a.077.077 0 00-.03-.06.086.086 0 00-.062-.025h-.556a.091.091 0 00-.062.025.079.079 0 00-.029.06v.427c0 .056.031.083.091.083h.556c.061 0 .092-.027.092-.083m.168 0a.234.234 0 01-.076.18.261.261 0 01-.183.071h-.557a.265.265 0 01-.184-.071.235.235 0 01-.074-.18v-.428c0-.07.025-.129.078-.178a.258.258 0 01.18-.073h.557c.067 0 .127.024.179.073.053.049.08.108.08.178v.428zM80.115 34.089a.234.234 0 01-.077.18.259.259 0 01-.182.071h-.114a.255.255 0 01-.18-.068.24.24 0 01-.079-.183v-.427c0-.057-.029-.085-.09-.085h-.116c-.059 0-.09.028-.09.085v.678h-.167v-.679a.23.23 0 01.076-.181.25.25 0 01.181-.07h.116a.251.251 0 01.257.251v.428c0 .056.031.083.092.083h.113c.061 0 .092-.027.092-.083v-.679h.168v.679M81.334 33.577h-.433v.763h-.166v-.763h-.429v-.168h1.028v.168zM82.592 34.34h-.168v-.302a.064.064 0 00-.028-.057.105.105 0 00-.063-.02h-.605v-.171h.605c.06 0 .091-.026.091-.078v-.049c0-.055-.031-.084-.091-.084h-.656v.761h-.165v-.929h.821c.072 0 .133.023.183.07.05.048.076.109.076.181v.049a.233.233 0 01-.067.164.236.236 0 01.067.163v.302M83.707 34.089v-.427a.078.078 0 00-.028-.06.094.094 0 00-.063-.025h-.556a.087.087 0 00-.061.025.076.076 0 00-.029.06v.427c0 .056.029.083.09.083h.556c.062 0 .091-.027.091-.083m.168 0a.233.233 0 01-.075.18.261.261 0 01-.183.071h-.557a.26.26 0 01-.183-.071.233.233 0 01-.075-.18v-.428c0-.07.025-.129.078-.178a.256.256 0 01.18-.073h.557c.068 0 .126.024.18.073a.232.232 0 01.078.178v.428zM84.979 34.34h-.656a.262.262 0 01-.181-.071.238.238 0 01-.077-.18v-.679h.169v.679c0 .056.029.083.09.083h.655v.168"/><path fill="#231f20" fill-rule="nonzero" stroke="#231f20" stroke-linecap="round" stroke-linejoin="round" stroke-width=".12" d="M74.449 34.793l.693.426-.693.423v-.849z"/><path fill="none" stroke="#231f20" stroke-width=".07" d="M82.143 35.681h-.175l.064-.302c.006-.024 0-.043-.015-.056a.097.097 0 00-.064-.021h-.546l.038-.171h.544c.064 0 .102-.025.113-.077l.01-.05c.011-.056-.013-.084-.078-.084h-.688l-.163.761h-.175l.198-.928h.864c.075 0 .136.023.178.07.043.047.056.107.04.18l-.01.05a.298.298 0 01-.104.164.185.185 0 01.034.162l-.065.302zm-1.373 0h-.819a.222.222 0 01-.176-.07c-.044-.047-.058-.107-.042-.181l.092-.428a.29.29 0 01.12-.177.335.335 0 01.204-.074h.819l-.036.168h-.818a.119.119 0 00-.071.024.107.107 0 00-.044.06l-.027.128h.915l-.036.171h-.915l-.027.129c-.012.055.015.083.078.083h.819l-.036.167zm-1.45-.25l.092-.428a.066.066 0 00-.019-.06.08.08 0 00-.06-.024h-.689l-.127.595h.69c.064 0 .101-.028.113-.083zm.176-.001a.302.302 0 01-.118.181.33.33 0 01-.207.07h-.865l.198-.93h.866c.069 0 .127.024.171.074.046.049.061.108.046.177l-.091.428zm-1.426.251h-.188l-.017-.379h-.399l.077-.171h.312a7.257 7.257 0 00-.006-.127c-.003-.056-.029-.084-.077-.084h-.215c-.049 0-.087.028-.113.083l-.319.678h-.187l.318-.678c.079-.167.189-.25.325-.25h.238c.138 0 .211.083.218.25l.033.678zm-1.287-.379h-.917l-.081.379h-.175l.144-.679a.298.298 0 01.122-.177.333.333 0 01.204-.074h.819l-.036.168h-.819a.118.118 0 00-.07.024c-.026.018-.039.038-.043.06l-.028.128h.915l-.035.171z"/><path fill="#231f20" fill-rule="nonzero" d="M75.101 37.365v-.04a.051.051 0 00-.021-.044.077.077 0 00-.049-.015h-.457v-.132h.457c.047 0 .07-.021.07-.061v-.038c0-.043-.023-.066-.07-.066h-.509v.46h.509c.047 0 .07-.021.07-.064m.13 0c0 .058-.02.104-.058.14a.206.206 0 01-.142.055h-.637v-.719h.637c.055 0 .102.018.142.055a.182.182 0 01.058.139v.038a.182.182 0 01-.052.126.187.187 0 01.045.078.44.44 0 01.007.088M76.178 37.56h-.601a.206.206 0 01-.143-.055.178.178 0 01-.058-.139v-.332c0-.054.02-.099.061-.137a.198.198 0 01.14-.056h.601v.128h-.601a.075.075 0 00-.05.021.059.059 0 00-.023.044v.331c0 .044.025.064.073.064h.601v.131M77.12 37.266h-.674v.294h-.129v-.526c0-.053.021-.098.061-.137a.2.2 0 01.14-.056h.602v.128h-.604a.073.073 0 00-.048.021.057.057 0 00-.022.044v.1h.674v.132M77.867 37.56h-.437a.2.2 0 01-.138-.057.179.179 0 01-.062-.138v-.038c0-.057.02-.103.059-.142a.212.212 0 01.142-.051h.234c.049 0 .071-.023.071-.064v-.036a.055.055 0 00-.02-.044c-.017-.013-.032-.021-.051-.021h-.402v-.128h.402c.053 0 .099.018.141.056.04.038.061.083.061.137v.036c0 .056-.02.103-.06.138a.204.204 0 01-.142.055h-.234c-.047 0-.071.021-.071.064v.038a.06.06 0 00.022.047c.015.013.031.02.048.02h.437v.128M78.537 37.365v-.33a.058.058 0 00-.022-.046.077.077 0 00-.049-.02h-.259a.075.075 0 00-.049.02.058.058 0 00-.022.046v.33c0 .043.023.064.071.064h.259c.048 0 .071-.021.071-.064m.128 0a.178.178 0 01-.057.14.2.2 0 01-.141.055h-.26a.2.2 0 01-.141-.055.177.177 0 01-.06-.14v-.33c0-.054.022-.1.063-.137a.189.189 0 01.138-.057h.26c.053 0 .099.018.139.057.04.037.059.083.059.137v.33zM79.344 37.365v-.33a.056.056 0 00-.023-.046.07.07 0 00-.048-.02h-.259a.073.073 0 00-.049.02.061.061 0 00-.022.046v.33c0 .043.024.064.071.064h.259c.047 0 .071-.021.071-.064m.13 0a.18.18 0 01-.059.14.202.202 0 01-.142.055h-.259a.201.201 0 01-.141-.055.176.176 0 01-.059-.14v-.33c0-.054.02-.1.062-.137a.189.189 0 01.138-.057h.259c.053 0 .1.018.141.057a.18.18 0 01.06.137v.33zM80.151 37.365v-.33a.06.06 0 00-.023-.046.073.073 0 00-.048-.02h-.26a.075.075 0 00-.048.02.058.058 0 00-.022.046v.33c0 .043.023.064.07.064h.26c.047 0 .071-.021.071-.064m.13 0a.18.18 0 01-.059.14.204.204 0 01-.142.055h-.258a.206.206 0 01-.143-.055.186.186 0 01-.058-.14v-.33c0-.054.022-.1.061-.137a.195.195 0 01.14-.057h.258c.053 0 .099.018.14.057a.18.18 0 01.061.137v.33zM75.229 73.953a.195.195 0 01-.197.203h-.426a.193.193 0 01-.139-.056.197.197 0 01-.058-.147v-.548h.128v.548c0 .044.022.066.069.066h.425c.047 0 .07-.022.07-.066v-.548h.128v.548M76.149 73.541h-.6a.073.073 0 00-.048.021.066.066 0 00-.021.048v.037c0 .045.022.068.069.068h.403c.054 0 .1.018.138.053a.2.2 0 01.059.147v.038a.2.2 0 01-.06.145.197.197 0 01-.137.058h-.601v-.137h.601a.071.071 0 00.047-.019.062.062 0 00.021-.047v-.037c0-.044-.023-.066-.069-.066h-.402a.197.197 0 01-.198-.203v-.037c0-.057.021-.105.061-.144a.186.186 0 01.136-.061h.601v.136M76.957 73.952v-.041a.06.06 0 00-.021-.047.092.092 0 00-.049-.016h-.448v-.135h.448c.046 0 .07-.022.07-.063v-.039c0-.046-.024-.068-.07-.068h-.498v.476h.498c.046 0 .07-.022.07-.067m.128.001a.2.2 0 01-.057.147.196.196 0 01-.141.056h-.627v-.749h.627c.056 0 .102.019.141.057a.197.197 0 01.057.146v.039a.198.198 0 01-.049.132.192.192 0 01.043.079.536.536 0 01.006.093M77.66 73.781c0 .055-.02.101-.058.14a.193.193 0 01-.141.058.192.192 0 01-.142-.058.194.194 0 010-.281.191.191 0 01.142-.057.196.196 0 01.199.198M78.926 74.156h-.129v-.546c0-.046-.022-.069-.068-.069h-.087c-.047 0-.069.023-.069.069v.344a.205.205 0 01-.058.146.2.2 0 01-.141.056.192.192 0 01-.14-.056.189.189 0 01-.058-.146v-.344c0-.046-.024-.069-.069-.069h-.09c-.046 0-.069.023-.069.069v.546h-.129v-.549a.19.19 0 01.059-.144.19.19 0 01.139-.058h.09c.053 0 .1.02.138.058a.19.19 0 01.059.144v.346c0 .044.024.066.071.066.045 0 .068-.022.068-.066v-.346c0-.059.021-.108.06-.146a.188.188 0 01.139-.056h.087c.055 0 .101.02.14.058a.188.188 0 01.057.144v.549"/><path fill="#231f20" d="M79.065 73.405h.128v.751h-.128z"/><path fill="#231f20" fill-rule="nonzero" d="M80.011 73.953v-.343a.065.065 0 00-.023-.048.062.062 0 00-.047-.021h-.5v.478h.5c.047 0 .07-.022.07-.066m.127 0a.2.2 0 01-.056.147.196.196 0 01-.14.056h-.628v-.751h.628c.05 0 .096.02.137.059.04.04.059.088.059.143v.346z"/><path fill="#231f20" d="M80.263 73.405h.128v.751h-.128z"/><path fill="#231f20" fill-rule="nonzero" d="M80.969 73.781a.197.197 0 01-.199.198.194.194 0 01-.142-.058.187.187 0 01-.059-.14c0-.055.019-.102.059-.141a.193.193 0 01.142-.057.196.196 0 01.199.198M81.936 74.156h-.595a.195.195 0 01-.197-.203v-.346c0-.055.02-.103.06-.143a.194.194 0 01.137-.059h.595v.136h-.593a.068.068 0 00-.048.021.065.065 0 00-.023.048v.343c0 .044.024.066.071.066h.593v.137M82.743 73.953v-.343a.065.065 0 00-.023-.048.066.066 0 00-.047-.021h-.425a.07.07 0 00-.048.021.067.067 0 00-.022.048v.343c0 .044.023.066.07.066h.425c.046 0 .07-.022.07-.066m.127 0a.197.197 0 01-.057.147.197.197 0 01-.14.056h-.425a.196.196 0 01-.198-.203v-.346c0-.055.02-.103.06-.143a.196.196 0 01.138-.059h.425c.051 0 .097.02.138.059.04.04.059.088.059.143v.346zM83.813 73.953a.197.197 0 01-.057.147.197.197 0 01-.14.056h-.086a.19.19 0 01-.138-.055.201.201 0 01-.059-.147v-.344c0-.046-.022-.069-.07-.069h-.088c-.046 0-.069.023-.069.069v.546h-.128v-.549c0-.059.018-.107.057-.144a.195.195 0 01.14-.058h.088c.055 0 .1.02.14.058a.19.19 0 01.059.144v.346c0 .044.022.066.068.066h.086c.046 0 .07-.022.07-.066v-.548h.127v.548M84.724 73.541h-.331v.615h-.129v-.615h-.325v-.136h.785v.136zM85.658 74.156h-.127v-.245a.057.057 0 00-.022-.047.087.087 0 00-.049-.016h-.461v-.135h.461c.046 0 .071-.022.071-.063v-.039c0-.046-.025-.068-.07-.068h-.499v.613h-.129v-.749h.628c.055 0 .101.019.141.057a.2.2 0 01.056.146v.039a.198.198 0 01-.049.132.198.198 0 01.049.131v.244M86.49 73.953v-.343a.067.067 0 00-.022-.048.068.068 0 00-.048-.021h-.424a.068.068 0 00-.048.021.065.065 0 00-.023.048v.343c0 .044.025.066.071.066h.424c.047 0 .07-.022.07-.066m.129 0a.194.194 0 01-.059.147.194.194 0 01-.14.056h-.425a.195.195 0 01-.197-.203v-.346c0-.055.02-.103.06-.143a.192.192 0 01.137-.059h.425a.19.19 0 01.138.059c.041.04.061.088.061.143v.346zM87.439 74.156h-.5a.192.192 0 01-.14-.056.197.197 0 01-.058-.147v-.548h.128v.548c0 .044.023.066.07.066h.5v.137M88.251 74.156h-.5a.192.192 0 01-.139-.056.194.194 0 01-.059-.147v-.548h.129v.548c0 .044.023.066.069.066h.5v.137M89.158 74.156h-.595a.195.195 0 01-.197-.203v-.346c0-.055.021-.103.061-.143a.19.19 0 01.136-.059h.595v.136h-.594c-.018 0-.032.007-.048.021a.062.062 0 00-.021.048v.105h.663v.135h-.663v.103c0 .044.022.066.069.066h.594v.137M90.092 74.156h-.128v-.245a.057.057 0 00-.021-.047.09.09 0 00-.049-.016h-.461v-.135h.461c.047 0 .07-.022.07-.063v-.039c0-.046-.023-.068-.07-.068h-.497v.613h-.13v-.749h.628a.194.194 0 01.197.203v.039a.198.198 0 01-.049.132.198.198 0 01.049.131v.244M12.547 12.761v.453h-.093v-.453h-.143v-.088h.379v.088h-.143zM13.16 12.673l-.18.333v.208h-.094v-.208l-.176-.333h.108l.115.23h.002l.117-.23h.108zM13.308 12.95h.122c.034 0 .055-.006.065-.017.011-.011.015-.037.015-.075 0-.039-.004-.065-.014-.079-.009-.011-.031-.018-.066-.018h-.122v.189m-.093.264v-.541h.215c.067 0 .112.012.137.035.025.027.037.076.037.15 0 .075-.013.123-.039.148-.023.021-.068.031-.135.031h-.122v.177h-.093zM13.78 12.761v.135h.229v.085h-.229v.144h.244v.089h-.337v-.541h.334v.088h-.241zM21.094 12.854h-.093v-.03c0-.03-.007-.049-.022-.057-.012-.007-.038-.011-.083-.011-.047 0-.077.008-.09.022-.014.015-.02.049-.02.102V13c0 .056.006.091.019.106s.043.024.091.024c.043 0 .07-.005.083-.011.018-.011.027-.035.027-.07v-.029h.093v.035a.2.2 0 01-.026.113.103.103 0 01-.07.041.665.665 0 01-.107.009c-.082.004-.137-.011-.165-.045-.026-.03-.039-.085-.039-.169v-.124c0-.084.017-.141.048-.171.03-.027.082-.041.156-.041s.122.006.145.019c.035.02.053.066.053.137v.03M21.605 12.673v.541h-.094v-.232h-.227v.232h-.094v-.541h.094v.221h.227v-.221h.094zM29.158 12.95h.123c.032 0 .055-.006.065-.017.01-.011.015-.037.015-.075 0-.039-.005-.065-.014-.079-.01-.011-.033-.018-.066-.018h-.123v.189m-.093.264v-.541h.216c.066 0 .111.012.136.035.024.027.037.076.037.15 0 .075-.013.123-.039.148-.023.021-.068.031-.134.031h-.123v.177h-.093zM29.817 13.033l-.084-.282h-.002l-.084.282h.17m.02.08h-.211l-.03.101h-.097l.162-.541h.138l.165.541h-.094l-.033-.101zM30.122 12.946h.124c.034 0 .058-.005.069-.018.01-.012.016-.037.016-.077 0-.038-.005-.062-.015-.074-.009-.01-.031-.016-.065-.016h-.129v.185m.144.089h-.144v.179h-.094v-.541h.249c.054 0 .092.012.115.035.021.024.032.066.032.126a.295.295 0 01-.011.101c-.013.029-.038.046-.075.052v.004c.032.002.054.013.067.034a.176.176 0 01.016.088v.101h-.093v-.101c0-.053-.021-.078-.062-.078M37.74 12.673h.096l-.158.541h-.14l-.156-.541h.095l.129.454h.003l.131-.454zM38.17 13.033l-.084-.282h-.001l-.084.282h.169m.022.08h-.212l-.031.101h-.096l.161-.541h.139l.165.541h-.095l-.031-.101zM38.478 12.673v.452h.228v.089h-.321v-.541h.093zM39.311 12.673v.541h-.088v-.455l-.127.141-.054-.064.156-.163h.113zM46.098 12.673h.098l-.157.541h-.142l-.155-.541h.095l.13.454h.001l.13-.454zM46.53 13.033l-.084-.282h-.001l-.084.282h.169m.021.08h-.211l-.03.101h-.098l.162-.541h.138l.165.541h-.094l-.032-.101zM46.837 12.673v.452h.228v.089h-.321v-.541h.093zM47.758 13.128v.086h-.367v-.103c0-.064.012-.107.038-.129a.314.314 0 01.12-.04c.049-.008.073-.014.075-.014a.056.056 0 00.036-.026.159.159 0 00.009-.068c0-.034-.006-.057-.019-.067-.011-.01-.035-.014-.07-.014-.045 0-.073.005-.083.015-.012.011-.019.044-.019.097h-.087a.42.42 0 01.009-.11.103.103 0 01.051-.066.293.293 0 01.129-.021c.063 0 .107.009.131.029.032.025.047.071.047.137 0 .068-.012.115-.036.137-.018.02-.062.034-.127.046a.383.383 0 00-.091.022c-.018.01-.026.034-.026.072v.017h.28M54.631 12.758l-.153.456h-.085l-.155-.454h-.002l.008.454h-.094v-.541h.152l.132.401h.003l.129-.401h.154v.541h-.094l.008-.456h-.003zM55.021 12.756c-.049 0-.081.008-.095.022-.012.013-.018.042-.018.088v.145c0 .053.007.086.021.099.012.013.043.02.092.02.045 0 .074-.007.089-.02.017-.016.025-.048.025-.099v-.145c0-.048-.008-.079-.025-.093-.014-.011-.044-.017-.089-.017m0-.088c.076 0 .129.011.156.034.035.026.051.082.051.164v.145c0 .083-.015.14-.049.169-.027.026-.081.038-.158.038-.08 0-.134-.012-.16-.037-.031-.028-.046-.084-.046-.17v-.145c0-.081.015-.136.044-.162.027-.025.081-.036.162-.036M55.414 13.125h.155a.07.07 0 00.064-.038.176.176 0 00.018-.085v-.128c0-.044-.007-.074-.022-.09-.015-.015-.04-.023-.076-.023h-.139v.364m-.095.089v-.541h.234c.067 0 .117.014.145.046.032.03.046.082.046.155v.127a.28.28 0 01-.032.149c-.029.043-.077.064-.143.064h-.25zM55.925 12.761v.135h.229v.085h-.229v.144h.244v.089h-.337v-.541h.335v.088h-.242zM89.643 6.745c-.101-.49-.505-.839-.975-.838H75.71a.984.984 0 00-.683.29 1.1 1.1 0 00-.292.548 13.208 13.208 0 000 5.314c.101.491.506.84.975.84h12.958c.47 0 .874-.349.975-.84.36-1.749.36-3.563 0-5.314M86.668 36.749a.278.278 0 00-.278.279l-.001.22c.001.029.022.05.049.052h.057v-.272a.172.172 0 01.333-.064h.11a.278.278 0 00-.27-.215M85.266 36.965a.17.17 0 01.16-.11c.075 0 .137.045.162.11h-.322zm.16-.216a.278.278 0 000 .556.28.28 0 00.268-.196h-.114a.175.175 0 01-.154.092.174.174 0 01-.168-.135h.444a.158.158 0 00.004-.038.28.28 0 00-.28-.279M88.51 36.965a.173.173 0 01.323 0h-.323zm.162-.216a.279.279 0 00-.278.279.277.277 0 00.543.081h-.113a.173.173 0 01-.152.092.174.174 0 01-.169-.135h.444c.001-.012.003-.025.003-.038a.28.28 0 00-.278-.279M88.056 37.201a.173.173 0 11.002-.346.173.173 0 01-.002.346m0-.452a.278.278 0 10.174.496v.035a.174.174 0 01-.173.173.171.171 0 01-.16-.11h-.11a.278.278 0 00.548-.063v-.252a.28.28 0 00-.279-.279M87.041 36.578a.053.053 0 00-.053.052c0 .03.024.054.053.054a.054.054 0 00.053-.054.053.053 0 00-.053-.052M87.445 36.749a.28.28 0 00-.279.279v.22c0 .029.023.052.053.052h.052l.001-.272a.172.172 0 11.345 0v.22c0 .029.024.052.053.052h.053v-.272a.279.279 0 00-.278-.279M89.286 36.749a.28.28 0 00-.279.279v.222c.003.028.024.05.053.05h.053v-.272a.172.172 0 01.333-.064h.11a.278.278 0 00-.27-.215M84.814 37.201a.173.173 0 110-.346.173.173 0 010 .346m0-.452a.279.279 0 00-.176.064v-.214a.053.053 0 00-.053-.053h-.048v.477l-.001.005c0 .153.124.277.278.277a.278.278 0 000-.556M86.988 37.248c0 .029.024.052.053.052v.001h.053v-.547h-.106v.494zM86.042 36.749a.281.281 0 00-.173.06v-.21a.053.053 0 00-.053-.053h-.053v.702c0 .03.024.054.053.054h.053v-.283a.172.172 0 01.173-.164c.095 0 .172.077.172.173v.22c0 .029.023.05.05.052h.055l.001-.272a.279.279 0 00-.278-.279M85.282 36.121l-.012-.015-.019-.032-.015-.036-.006-.017-.006-.037v-.039l.003-.017.009-.038.006-.018.018-.035 1.598-2.179.011-.014.014-.015.013-.012.03-.023.034-.018.037-.011.036-.005h.037l.038.005.017.006.036.015.032.019.028.024.012.014 1.589 2.179.02.033.015.034.006.019.005.038v.038l-.005.037-.006.016-.015.037-.02.034-.022.027-.015.012-.033.023-.013.008-.018.009-.038.012-.017.003-.039.003h-3.161l-.04-.003-.017-.003-.036-.012-.035-.017-.031-.023-.013-.012-.012-.014zm.064.126l.044.015.023.005.049.004h3.167l.045-.003.025-.006.044-.014.024-.01.02-.011.039-.028.018-.017.019-.02.012-.016.025-.04.019-.047.007-.021.007-.046.002-.048-.007-.048-.009-.028-.017-.041-.026-.041-1.59-2.183-.017-.02-.02-.018-.016-.013-.041-.025-.042-.017-.025-.008-.048-.007h-.046l-.046.006-.047.014-.043.021-.042.031-.016.014-.018.02-.014.017-1.587 2.165-.013.018-.022.043-.01.024-.011.048-.003.022-.001.048.007.047.008.026.016.042.027.043.013.018.017.018.018.017.038.027.044.023z"/><path fill="#231f20" fill-rule="nonzero" d="M86.255 35.809a.305.305 0 00.181.062.633.633 0 00.214-.026 1.02 1.02 0 00.292-.14c.118-.078.244-.191.342-.304.133-.155.264-.387.278-.577.034-.479-.39-.415-.55-.361-.13.043-.268.134-.288.148h-.001l-.001.001h-.001c-.006.005-.009.012-.006.017.003.005.011.005.018.001 0 0 .108-.074.238-.112.091-.026.192-.033.273.013.211.122.102.488-.066.731a1.5 1.5 0 01-.394.392.687.687 0 01-.377.133c-.283.001-.252-.314-.252-.314h-.001.001c0-.01-.003-.018-.008-.018-.004-.001-.008.006-.009.016v.001c-.004.046-.032.217.117.337"/><path fill="#231f20" fill-rule="nonzero" d="M86.264 35.343a.545.545 0 00.111-.032.99.99 0 00.297-.198c.091-.086.148-.184.147-.261-.003-.111-.124-.112-.171-.107a.038.038 0 00-.029.015c-.054.08-.367.534-.38.551-.015.022-.006.037.025.032"/><path fill="#fff" fill-rule="nonzero" d="M89.33 11.807a11.265 11.265 0 000-4.808.956.956 0 00-.934-.759H75.983a.972.972 0 00-.655.261.98.98 0 00-.279.498 11.297 11.297 0 000 4.808c.096.444.486.76.934.759h12.413a.956.956 0 00.934-.759"/><path fill="#231f20" fill-rule="nonzero" d="M76.733 11.631a.597.597 0 01-.586-.491 10.083 10.083 0 010-3.474.596.596 0 01.586-.491h10.912c.289 0 .537.207.586.491a10.033 10.033 0 010 3.474.595.595 0 01-.586.491H76.733"/><path fill="none" stroke="#2b2929" stroke-miterlimit="500" stroke-width=".11" d="M67.436 54.057h-1.752"/><path fill="none" stroke="#2b2929" stroke-miterlimit="500" stroke-width=".07" d="M67.436 66.767h-1.752m1.752-1.817h-1.752m1.752-1.815h-1.752m1.752-1.815h-1.752m1.752-1.815h-1.752m1.752-1.816h-1.752m1.752-1.816h-1.752"/><path fill="none" stroke="#2b2929" stroke-miterlimit="500" stroke-width=".11" d="M67.436 68.582h-1.752"/><path fill="none" stroke="#2b2929" stroke-miterlimit="500" stroke-width=".07" d="M67.436 41.35h-1.752m1.752 1.815h-1.752m1.752 1.816h-1.752m1.752 1.814h-1.752m1.752 1.817h-1.752m1.752 1.815h-1.752m1.752 1.816h-1.752"/><path fill="none" stroke="#2b2929" stroke-miterlimit="500" stroke-width=".11" d="M67.436 39.533h-1.752"/><path fill="none" stroke="#2b2929" stroke-miterlimit="500" stroke-width=".07" d="M67.003 40.443h-1.315m1.315 1.814h-1.315m1.315 1.815h-1.315m1.315 1.816h-1.315m1.315 1.816h-1.315m1.315 1.814h-1.315m1.315 1.817h-1.315m1.315 1.815h-1.315m1.315 14.523h-1.315m1.315-1.816h-1.315m1.315-1.814h-1.315m1.315-1.816h-1.315m1.315-1.815h-1.315m1.315-1.815h-1.315m1.315-1.816h-1.315m1.315-1.816h-1.315m.876 13.162h-.876m.876-.908h-.876m.876-.908h-.876m.876-.906h-.876m.825-22.693h-.825m.825-.908h-.825m.825-.908h-.825m.825-.907h-.825"/><path fill="none" stroke="#2b2929" stroke-miterlimit="500" stroke-width=".11" d="M68.888 54.057h1.753"/><path fill="none" stroke="#2b2929" stroke-miterlimit="500" stroke-width=".07" d="M68.888 66.767h1.753m-1.753-1.817h1.753m-1.753-1.815h1.753m-1.753-1.815h1.753m-1.753-1.815h1.753m-1.753-1.816h1.753m-1.753-1.816h1.753"/><path fill="none" stroke="#2b2929" stroke-miterlimit="500" stroke-width=".11" d="M68.888 68.582h1.753"/><path fill="none" stroke="#2b2929" stroke-miterlimit="500" stroke-width=".07" d="M68.888 41.35h1.753m-1.753 1.815h1.753m-1.753 1.816h1.753m-1.753 1.814h1.753m-1.753 1.817h1.753m-1.753 1.815h1.753m-1.753 1.816h1.753"/><path fill="none" stroke="#2b2929" stroke-miterlimit="500" stroke-width=".11" d="M68.888 39.533h1.753"/><path fill="none" stroke="#2b2929" stroke-width=".07" d="M69.77 68.127h.876m-.876-.908h.876m-.876-.908h.876m-.876-.906h.876m-.876-22.693h.876m-.876-.907h.876m-.876-.909h.876m-.876-.907h.876"/><path fill="none" stroke="#2b2929" stroke-miterlimit="500" stroke-width=".07" d="M69.39 40.443h1.256m-1.256 1.814h1.256m-1.256 1.815h1.256m-1.256 1.816h1.256m-1.256 1.816h1.256m-1.256 1.814h1.256m-1.256 1.817h1.256M69.39 53.15h1.256M69.39 67.673h1.256m-1.256-1.816h1.256m-1.256-1.814h1.256m-1.256-1.816h1.256m-1.256-1.815h1.256m-1.256-1.815h1.256m-1.256-1.816h1.256m-1.256-1.816h1.256"/><path fill="#2b2929" fill-rule="nonzero" d="M71.549 54.203l-.306.59-.306-.59h.612z"/><path fill="none" stroke="#2b2929" stroke-width=".08" d="M70.937 68.579h.612m-.612-29.046h.612m-.305.304v-.61"/><path fill="#2b2929" fill-rule="nonzero" d="M71.549 53.914l-.306-.588-.306.588h.612z"/><path fill="#231f20" fill-rule="nonzero" d="M68.46 38.326a.297.297 0 00-.594 0v31.376a.297.297 0 00.594 0V38.326"/><path id="slider8" fill="#fff" fill-rule="nonzero" stroke="#231f20" stroke-linejoin="round" stroke-width=".3" d="M68.163 65.155c-.715 0-1.246.248-1.385.402-.168.18-.332 1.683-.321 3.073.011 1.391.133 2.627.307 2.904.173.274 1.042.386 1.389.397.348.009 1.235-.108 1.405-.35.169-.243.353-.907.353-2.88 0-1.973-.139-2.97-.346-3.181-.205-.211-.777-.363-1.402-.365z"/><path fill="none" stroke="#2b2929" stroke-miterlimit="500" stroke-width=".11" d="M59.053 54.057h-1.752"/><path fill="none" stroke="#2b2929" stroke-miterlimit="500" stroke-width=".07" d="M59.053 66.767h-1.752m1.752-1.817h-1.752m1.752-1.815h-1.752m1.752-1.815h-1.752m1.752-1.815h-1.752m1.752-1.816h-1.752m1.752-1.816h-1.752"/><path fill="none" stroke="#2b2929" stroke-miterlimit="500" stroke-width=".11" d="M59.053 68.582h-1.752"/><path fill="none" stroke="#2b2929" stroke-miterlimit="500" stroke-width=".07" d="M59.053 41.35h-1.752m1.752 1.815h-1.752m1.752 1.816h-1.752m1.752 1.814h-1.752m1.752 1.817h-1.752m1.752 1.815h-1.752m1.752 1.816h-1.752"/><path fill="none" stroke="#2b2929" stroke-miterlimit="500" stroke-width=".11" d="M59.053 39.533h-1.752"/><path fill="none" stroke="#2b2929" stroke-miterlimit="500" stroke-width=".07" d="M58.62 40.443h-1.315m1.315 1.814h-1.315m1.315 1.815h-1.315m1.315 1.816h-1.315m1.315 1.816h-1.315m1.315 1.814h-1.315m1.315 1.817h-1.315m1.315 1.815h-1.315m1.315 14.523h-1.315m1.315-1.816h-1.315m1.315-1.814h-1.315m1.315-1.816h-1.315m1.315-1.815h-1.315m1.315-1.815h-1.315m1.315-1.816h-1.315m1.315-1.816h-1.315m.877 13.162h-.877m.877-.908h-.877m.877-.908h-.877m.877-.906h-.877m.826-22.693h-.826m.826-.908h-.826m.826-.908h-.826m.826-.907h-.826"/><path fill="none" stroke="#2b2929" stroke-miterlimit="500" stroke-width=".11" d="M60.506 54.057h1.752"/><path fill="none" stroke="#2b2929" stroke-miterlimit="500" stroke-width=".07" d="M60.506 66.767h1.752m-1.752-1.817h1.752m-1.752-1.815h1.752m-1.752-1.815h1.752m-1.752-1.815h1.752m-1.752-1.816h1.752m-1.752-1.816h1.752"/><path fill="none" stroke="#2b2929" stroke-miterlimit="500" stroke-width=".11" d="M60.506 68.582h1.752"/><path fill="none" stroke="#2b2929" stroke-miterlimit="500" stroke-width=".07" d="M60.506 41.35h1.752m-1.752 1.815h1.752m-1.752 1.816h1.752m-1.752 1.814h1.752m-1.752 1.817h1.752m-1.752 1.815h1.752m-1.752 1.816h1.752"/><path fill="none" stroke="#2b2929" stroke-miterlimit="500" stroke-width=".11" d="M60.506 39.533h1.752"/><path fill="none" stroke="#2b2929" stroke-width=".07" d="M61.387 68.127h.876m-.876-.908h.876m-.876-.908h.876m-.876-.906h.876m-.876-22.693h.876m-.876-.907h.876m-.876-.909h.876m-.876-.907h.876"/><path fill="none" stroke="#2b2929" stroke-miterlimit="500" stroke-width=".07" d="M61.007 40.443h1.256m-1.256 1.814h1.256m-1.256 1.815h1.256m-1.256 1.816h1.256m-1.256 1.816h1.256m-1.256 1.814h1.256m-1.256 1.817h1.256m-1.256 1.815h1.256m-1.256 14.523h1.256m-1.256-1.816h1.256m-1.256-1.814h1.256m-1.256-1.816h1.256m-1.256-1.815h1.256m-1.256-1.815h1.256m-1.256-1.816h1.256m-1.256-1.816h1.256"/><path fill="#2b2929" fill-rule="nonzero" d="M63.166 54.203l-.305.59-.308-.59h.613z"/><path fill="none" stroke="#2b2929" stroke-width=".08" d="M62.553 68.579h.613m-.613-29.046h.613m-.305.304v-.61"/><path fill="#2b2929" fill-rule="nonzero" d="M63.166 53.914l-.305-.588-.308.588h.613z"/><path fill="#231f20" fill-rule="nonzero" d="M60.077 38.326a.296.296 0 00-.297-.295.295.295 0 00-.297.295v31.376c0 .164.132.296.297.296a.296.296 0 00.297-.296V38.326"/><path fill="none" stroke="#2b2929" stroke-miterlimit="500" stroke-width=".11" d="M50.754 54.057h-1.752"/><path fill="none" stroke="#2b2929" stroke-miterlimit="500" stroke-width=".07" d="M50.754 66.767h-1.752m1.752-1.817h-1.752m1.752-1.815h-1.752m1.752-1.815h-1.752m1.752-1.815h-1.752m1.752-1.816h-1.752m1.752-1.816h-1.752"/><path fill="none" stroke="#2b2929" stroke-miterlimit="500" stroke-width=".11" d="M50.754 68.582h-1.752"/><path fill="none" stroke="#2b2929" stroke-miterlimit="500" stroke-width=".07" d="M50.754 41.35h-1.752m1.752 1.815h-1.752m1.752 1.816h-1.752m1.752 1.814h-1.752m1.752 1.817h-1.752m1.752 1.815h-1.752m1.752 1.816h-1.752"/><path fill="none" stroke="#2b2929" stroke-miterlimit="500" stroke-width=".11" d="M50.754 39.533h-1.752"/><path fill="none" stroke="#2b2929" stroke-miterlimit="500" stroke-width=".07" d="M50.321 40.443h-1.315m1.315 1.814h-1.315m1.315 1.815h-1.315m1.315 1.816h-1.315m1.315 1.816h-1.315m1.315 1.814h-1.315m1.315 1.817h-1.315m1.315 1.815h-1.315m1.315 14.523h-1.315m1.315-1.816h-1.315m1.315-1.814h-1.315m1.315-1.816h-1.315m1.315-1.815h-1.315m1.315-1.815h-1.315m1.315-1.816h-1.315m1.315-1.816h-1.315m.877 13.162h-.877m.877-.908h-.877m.877-.908h-.877m.877-.906h-.877m.825-22.693h-.825m.825-.908h-.825m.825-.908h-.825m.825-.907h-.825"/><path fill="none" stroke="#2b2929" stroke-miterlimit="500" stroke-width=".11" d="M52.206 54.057h1.753"/><path fill="none" stroke="#2b2929" stroke-miterlimit="500" stroke-width=".07" d="M52.206 66.767h1.753m-1.753-1.817h1.753m-1.753-1.815h1.753m-1.753-1.815h1.753m-1.753-1.815h1.753m-1.753-1.816h1.753m-1.753-1.816h1.753"/><path fill="none" stroke="#2b2929" stroke-miterlimit="500" stroke-width=".11" d="M52.206 68.582h1.753"/><path fill="none" stroke="#2b2929" stroke-miterlimit="500" stroke-width=".07" d="M52.206 41.35h1.753m-1.753 1.815h1.753m-1.753 1.816h1.753m-1.753 1.814h1.753m-1.753 1.817h1.753m-1.753 1.815h1.753m-1.753 1.816h1.753"/><path fill="none" stroke="#2b2929" stroke-miterlimit="500" stroke-width=".11" d="M52.206 39.533h1.753"/><path fill="none" stroke="#2b2929" stroke-width=".07" d="M53.088 68.127h.876m-.876-.908h.876m-.876-.908h.876m-.876-.906h.876m-.876-22.693h.876m-.876-.907h.876m-.876-.909h.876m-.876-.907h.876"/><path fill="none" stroke="#2b2929" stroke-miterlimit="500" stroke-width=".07" d="M52.708 40.443h1.256m-1.256 1.814h1.256m-1.256 1.815h1.256m-1.256 1.816h1.256m-1.256 1.816h1.256m-1.256 1.814h1.256m-1.256 1.817h1.256m-1.256 1.815h1.256m-1.256 14.523h1.256m-1.256-1.816h1.256m-1.256-1.814h1.256m-1.256-1.816h1.256m-1.256-1.815h1.256m-1.256-1.815h1.256m-1.256-1.816h1.256m-1.256-1.816h1.256"/><path fill="#2b2929" fill-rule="nonzero" d="M54.867 54.203l-.306.59-.307-.59h.613z"/><path fill="none" stroke="#2b2929" stroke-width=".08" d="M54.254 68.579h.613m-.613-29.046h.613m-.305.304v-.61"/><path fill="#2b2929" fill-rule="nonzero" d="M54.867 53.914l-.306-.588-.307.588h.613z"/><path fill="#231f20" fill-rule="nonzero" d="M51.778 38.326a.297.297 0 00-.298-.295.296.296 0 00-.297.295v31.376a.297.297 0 00.595 0V38.326"/><path fill="none" stroke="#2b2929" stroke-miterlimit="500" stroke-width=".11" d="M42.371 54.057h-1.752"/><path fill="none" stroke="#2b2929" stroke-miterlimit="500" stroke-width=".07" d="M42.371 66.767h-1.752m1.752-1.817h-1.752m1.752-1.815h-1.752m1.752-1.815h-1.752m1.752-1.815h-1.752m1.752-1.816h-1.752m1.752-1.816h-1.752"/><path fill="none" stroke="#2b2929" stroke-miterlimit="500" stroke-width=".11" d="M42.371 68.582h-1.752"/><path fill="none" stroke="#2b2929" stroke-miterlimit="500" stroke-width=".07" d="M42.371 41.35h-1.752m1.752 1.815h-1.752m1.752 1.816h-1.752m1.752 1.814h-1.752m1.752 1.817h-1.752m1.752 1.815h-1.752m1.752 1.816h-1.752"/><path fill="none" stroke="#2b2929" stroke-miterlimit="500" stroke-width=".11" d="M42.371 39.533h-1.752"/><path fill="none" stroke="#2b2929" stroke-miterlimit="500" stroke-width=".07" d="M41.938 40.443h-1.315m1.315 1.814h-1.315m1.315 1.815h-1.315m1.315 1.816h-1.315m1.315 1.816h-1.315m1.315 1.814h-1.315m1.315 1.817h-1.315m1.315 1.815h-1.315m1.315 14.523h-1.315m1.315-1.816h-1.315m1.315-1.814h-1.315m1.315-1.816h-1.315m1.315-1.815h-1.315m1.315-1.815h-1.315m1.315-1.816h-1.315m1.315-1.816h-1.315m.877 13.162h-.877m.877-.908h-.877m.877-.908h-.877m.877-.906h-.877m.826-22.693h-.826m.826-.908h-.826m.826-.908h-.826m.826-.907h-.826"/><path fill="none" stroke="#2b2929" stroke-miterlimit="500" stroke-width=".11" d="M43.824 54.057h1.752"/><path fill="none" stroke="#2b2929" stroke-miterlimit="500" stroke-width=".07" d="M43.824 66.767h1.752m-1.752-1.817h1.752m-1.752-1.815h1.752m-1.752-1.815h1.752m-1.752-1.815h1.752m-1.752-1.816h1.752m-1.752-1.816h1.752M43.824 41.35h1.752m-1.752 1.815h1.752m-1.752 1.816h1.752m-1.752 1.814h1.752m-1.752 1.817h1.752m-1.752 1.815h1.752m-1.752 1.816h1.752"/><path fill="none" stroke="#2b2929" stroke-miterlimit="500" stroke-width=".11" d="M43.824 39.533h1.752"/><path fill="none" stroke="#2b2929" stroke-width=".07" d="M44.704 68.127h.877m-.877-.908h.877m-.877-.908h.877m-.877-.906h.877m-.877-22.693h.877m-.877-.907h.877m-.877-.909h.877m-.877-.907h.877"/><path fill="none" stroke="#2b2929" stroke-miterlimit="500" stroke-width=".07" d="M44.325 40.443h1.256m-1.256 1.814h1.256m-1.256 1.815h1.256m-1.256 1.816h1.256m-1.256 1.816h1.256m-1.256 1.814h1.256m-1.256 1.817h1.256m-1.256 1.815h1.256m-1.256 14.523h1.256m-1.256-1.816h1.256m-1.256-1.814h1.256m-1.256-1.816h1.256m-1.256-1.815h1.256m-1.256-1.815h1.256m-1.256-1.816h1.256m-1.256-1.816h1.256"/><path fill="#2b2929" fill-rule="nonzero" d="M46.484 54.203l-.306.59-.307-.59h.613z"/><path fill="none" stroke="#2b2929" stroke-width=".08" d="M45.872 68.579h.612m-.612-29.046h.612m-.305.304v-.61"/><path fill="#2b2929" fill-rule="nonzero" d="M46.484 53.914l-.306-.588-.307.588h.613z"/><path fill="#231f20" fill-rule="nonzero" d="M43.395 38.326a.297.297 0 00-.594 0v31.376a.297.297 0 00.594 0V38.326"/><path fill="none" stroke="#2b2929" stroke-miterlimit="500" stroke-width=".11" d="M33.988 54.057h-1.752"/><path fill="none" stroke="#2b2929" stroke-miterlimit="500" stroke-width=".07" d="M33.988 66.767h-1.752m1.752-1.817h-1.752m1.752-1.815h-1.752m1.752-1.815h-1.752m1.752-1.815h-1.752m1.752-1.816h-1.752m1.752-1.816h-1.752"/><path fill="none" stroke="#2b2929" stroke-miterlimit="500" stroke-width=".11" d="M33.988 68.582h-1.752"/><path fill="none" stroke="#2b2929" stroke-miterlimit="500" stroke-width=".07" d="M33.988 41.35h-1.752m1.752 1.815h-1.752m1.752 1.816h-1.752m1.752 1.814h-1.752m1.752 1.817h-1.752m1.752 1.815h-1.752m1.752 1.816h-1.752"/><path fill="none" stroke="#2b2929" stroke-miterlimit="500" stroke-width=".11" d="M33.988 39.533h-1.752"/><path fill="none" stroke="#2b2929" stroke-miterlimit="500" stroke-width=".07" d="M33.555 40.443H32.24m1.315 1.814H32.24m1.315 1.815H32.24m1.315 1.816H32.24m1.315 1.816H32.24m1.315 1.814H32.24m1.315 1.817H32.24m1.315 1.815H32.24m1.315 14.523H32.24m1.315-1.816H32.24m1.315-1.814H32.24m1.315-1.816H32.24m1.315-1.815H32.24m1.315-1.815H32.24m1.315-1.816H32.24m1.315-1.816H32.24m.876 13.162h-.876m.876-.908h-.876m.876-.908h-.876m.876-.906h-.876m.826-22.693h-.826m.826-.908h-.826m.826-.908h-.826m.826-.907h-.826"/><path fill="none" stroke="#2b2929" stroke-miterlimit="500" stroke-width=".11" d="M35.441 54.057h1.752"/><path fill="none" stroke="#2b2929" stroke-miterlimit="500" stroke-width=".07" d="M35.441 66.767h1.752m-1.752-1.817h1.752m-1.752-1.815h1.752m-1.752-1.815h1.752m-1.752-1.815h1.752m-1.752-1.816h1.752m-1.752-1.816h1.752"/><path fill="none" stroke="#2b2929" stroke-miterlimit="500" stroke-width=".11" d="M35.441 68.582h1.752"/><path fill="none" stroke="#2b2929" stroke-miterlimit="500" stroke-width=".07" d="M35.441 41.35h1.752m-1.752 1.815h1.752m-1.752 1.816h1.752m-1.752 1.814h1.752m-1.752 1.817h1.752m-1.752 1.815h1.752m-1.752 1.816h1.752"/><path fill="none" stroke="#2b2929" stroke-miterlimit="500" stroke-width=".11" d="M35.441 39.533h1.752"/><path fill="none" stroke="#2b2929" stroke-width=".07" d="M36.322 68.127h.876m-.876-.908h.876m-.876-.908h.876m-.876-.906h.876m-.876-22.693h.876m-.876-.907h.876m-.876-.909h.876m-.876-.907h.876"/><path fill="none" stroke="#2b2929" stroke-miterlimit="500" stroke-width=".07" d="M35.942 40.443h1.256m-1.256 1.814h1.256m-1.256 1.815h1.256m-1.256 1.816h1.256m-1.256 1.816h1.256m-1.256 1.814h1.256m-1.256 1.817h1.256m-1.256 1.815h1.256m-1.256 14.523h1.256m-1.256-1.816h1.256m-1.256-1.814h1.256m-1.256-1.816h1.256m-1.256-1.815h1.256m-1.256-1.815h1.256m-1.256-1.816h1.256m-1.256-1.816h1.256"/><path fill="#2b2929" fill-rule="nonzero" d="M38.101 54.203l-.305.59-.307-.59h.612z"/><path fill="none" stroke="#2b2929" stroke-width=".08" d="M37.489 68.579h.612m-.612-29.046h.612m-.305.304v-.61"/><path fill="#2b2929" fill-rule="nonzero" d="M38.101 53.914l-.305-.588-.307.588h.612z"/><path fill="#231f20" fill-rule="nonzero" d="M35.012 38.326a.296.296 0 00-.298-.295.295.295 0 00-.296.295v31.376a.296.296 0 00.594 0V38.326"/><path fill="none" stroke="#2b2929" stroke-miterlimit="500" stroke-width=".11" d="M25.605 54.057h-1.752"/><path fill="none" stroke="#2b2929" stroke-miterlimit="500" stroke-width=".07" d="M25.605 66.767h-1.752m1.752-1.817h-1.752m1.752-1.815h-1.752m1.752-1.815h-1.752m1.752-1.815h-1.752m1.752-1.816h-1.752m1.752-1.816h-1.752"/><path fill="none" stroke="#2b2929" stroke-miterlimit="500" stroke-width=".11" d="M25.605 68.582h-1.752"/><path fill="none" stroke="#2b2929" stroke-miterlimit="500" stroke-width=".07" d="M25.605 41.35h-1.752m1.752 1.815h-1.752m1.752 1.816h-1.752m1.752 1.814h-1.752m1.752 1.817h-1.752m1.752 1.815h-1.752m1.752 1.816h-1.752"/><path fill="none" stroke="#2b2929" stroke-miterlimit="500" stroke-width=".11" d="M25.605 39.533h-1.752"/><path fill="none" stroke="#2b2929" stroke-miterlimit="500" stroke-width=".07" d="M25.172 40.443h-1.315m1.315 1.814h-1.315m1.315 1.815h-1.315m1.315 1.816h-1.315m1.315 1.816h-1.315m1.315 1.814h-1.315m1.315 1.817h-1.315m1.315 1.815h-1.315m1.315 14.523h-1.315m1.315-1.816h-1.315m1.315-1.814h-1.315m1.315-1.816h-1.315m1.315-1.815h-1.315m1.315-1.815h-1.315m1.315-1.816h-1.315m1.315-1.816h-1.315m.877 13.162h-.877m.877-.908h-.877m.877-.908h-.877m.877-.906h-.877m.826-22.693h-.826m.826-.908h-.826m.826-.908h-.826m.826-.907h-.826"/><path fill="none" stroke="#2b2929" stroke-miterlimit="500" stroke-width=".11" d="M27.058 54.057h1.752"/><path fill="none" stroke="#2b2929" stroke-miterlimit="500" stroke-width=".07" d="M27.058 66.767h1.752m-1.752-1.817h1.752m-1.752-1.815h1.752m-1.752-1.815h1.752m-1.752-1.815h1.752m-1.752-1.816h1.752m-1.752-1.816h1.752"/><path fill="none" stroke="#2b2929" stroke-miterlimit="500" stroke-width=".11" d="M27.058 68.582h1.752"/><path fill="none" stroke="#2b2929" stroke-miterlimit="500" stroke-width=".07" d="M27.058 41.35h1.752m-1.752 1.815h1.752m-1.752 1.816h1.752m-1.752 1.814h1.752m-1.752 1.817h1.752m-1.752 1.815h1.752m-1.752 1.816h1.752"/><path fill="none" stroke="#2b2929" stroke-miterlimit="500" stroke-width=".11" d="M27.058 39.533h1.752"/><path fill="none" stroke="#2b2929" stroke-width=".07" d="M27.939 68.127h.876m-.876-.908h.876m-.876-.908h.876m-.876-.906h.876m-.876-22.693h.876m-.876-.907h.876m-.876-.909h.876m-.876-.907h.876"/><path fill="none" stroke="#2b2929" stroke-miterlimit="500" stroke-width=".07" d="M27.559 40.443h1.256m-1.256 1.814h1.256m-1.256 1.815h1.256m-1.256 1.816h1.256m-1.256 1.816h1.256m-1.256 1.814h1.256m-1.256 1.817h1.256m-1.256 1.815h1.256m-1.256 14.523h1.256m-1.256-1.816h1.256m-1.256-1.814h1.256m-1.256-1.816h1.256m-1.256-1.815h1.256m-1.256-1.815h1.256m-1.256-1.816h1.256m-1.256-1.816h1.256"/><path fill="#2b2929" fill-rule="nonzero" d="M29.718 54.203l-.305.59-.307-.59h.612z"/><path fill="none" stroke="#2b2929" stroke-width=".08" d="M29.106 68.579h.612m-.612-29.046h.612m-.304.304v-.61"/><path fill="#2b2929" fill-rule="nonzero" d="M29.718 53.914l-.305-.588-.307.588h.612z"/><path fill="#231f20" fill-rule="nonzero" d="M26.629 38.326a.296.296 0 00-.298-.295.295.295 0 00-.296.295v31.376a.296.296 0 00.594 0V38.326"/><path fill="none" stroke="#2b2929" stroke-miterlimit="500" stroke-width=".11" d="M17.306 54.057h-1.752"/><path fill="none" stroke="#2b2929" stroke-miterlimit="500" stroke-width=".07" d="M17.306 66.767h-1.752m1.752-1.817h-1.752m1.752-1.815h-1.752m1.752-1.815h-1.752m1.752-1.815h-1.752m1.752-1.816h-1.752m1.752-1.816h-1.752"/><path fill="none" stroke="#2b2929" stroke-miterlimit="500" stroke-width=".11" d="M17.306 68.582h-1.752"/><path fill="none" stroke="#2b2929" stroke-miterlimit="500" stroke-width=".07" d="M17.306 41.35h-1.752m1.752 1.815h-1.752m1.752 1.816h-1.752m1.752 1.814h-1.752m1.752 1.817h-1.752m1.752 1.815h-1.752m1.752 1.816h-1.752"/><path fill="none" stroke="#2b2929" stroke-miterlimit="500" stroke-width=".11" d="M17.306 39.533h-1.752"/><path fill="none" stroke="#2b2929" stroke-miterlimit="500" stroke-width=".07" d="M16.873 40.443h-1.315m1.315 1.814h-1.315m1.315 1.815h-1.315m1.315 1.816h-1.315m1.315 1.816h-1.315m1.315 1.814h-1.315m1.315 1.817h-1.315m1.315 1.815h-1.315m1.315 14.523h-1.315m1.315-1.816h-1.315m1.315-1.814h-1.315m1.315-1.816h-1.315m1.315-1.815h-1.315m1.315-1.815h-1.315m1.315-1.816h-1.315m1.315-1.816h-1.315m.876 13.162h-.876m.876-.908h-.876m.876-.908h-.876m.876-.906h-.876m.825-22.693h-.825m.825-.908h-.825m.825-.908h-.825m.825-.907h-.825"/><path fill="none" stroke="#2b2929" stroke-miterlimit="500" stroke-width=".11" d="M18.759 54.057h1.752"/><path fill="none" stroke="#2b2929" stroke-miterlimit="500" stroke-width=".07" d="M18.759 66.767h1.752m-1.752-1.817h1.752m-1.752-1.815h1.752m-1.752-1.815h1.752m-1.752-1.815h1.752m-1.752-1.816h1.752m-1.752-1.816h1.752"/><path fill="none" stroke="#2b2929" stroke-miterlimit="500" stroke-width=".11" d="M18.759 68.582h1.752"/><path fill="none" stroke="#2b2929" stroke-miterlimit="500" stroke-width=".07" d="M18.759 41.35h1.752m-1.752 1.815h1.752m-1.752 1.816h1.752m-1.752 1.814h1.752m-1.752 1.817h1.752m-1.752 1.815h1.752m-1.752 1.816h1.752"/><path fill="none" stroke="#2b2929" stroke-miterlimit="500" stroke-width=".11" d="M18.759 39.533h1.752"/><path fill="none" stroke="#2b2929" stroke-width=".07" d="M19.64 68.127h.876m-.876-.908h.876m-.876-.908h.876m-.876-.906h.876m-.876-22.693h.876m-.876-.907h.876m-.876-.909h.876m-.876-.907h.876"/><path fill="none" stroke="#2b2929" stroke-miterlimit="500" stroke-width=".07" d="M19.26 40.443h1.256m-1.256 1.814h1.256m-1.256 1.815h1.256m-1.256 1.816h1.256m-1.256 1.816h1.256m-1.256 1.814h1.256m-1.256 1.817h1.256M19.26 53.15h1.256M19.26 67.673h1.256m-1.256-1.816h1.256m-1.256-1.814h1.256m-1.256-1.816h1.256m-1.256-1.815h1.256m-1.256-1.815h1.256m-1.256-1.816h1.256m-1.256-1.816h1.256"/><path fill="#2b2929" fill-rule="nonzero" d="M21.419 54.203l-.306.59-.306-.59h.612z"/><path fill="none" stroke="#2b2929" stroke-width=".08" d="M20.806 68.579h.613m-.613-29.046h.613m-.305.304v-.61"/><path fill="#2b2929" fill-rule="nonzero" d="M21.419 53.914l-.306-.588-.306.588h.612z"/><path fill="#231f20" fill-rule="nonzero" d="M18.33 38.326a.297.297 0 00-.594 0v31.376a.297.297 0 00.594 0V38.326"/><path fill="none" stroke="#2b2929" stroke-miterlimit="500" stroke-width=".11" d="M8.923 54.057H7.171"/><path fill="none" stroke="#2b2929" stroke-miterlimit="500" stroke-width=".07" d="M8.923 66.767H7.171m1.752-1.817H7.171m1.752-1.815H7.171m1.752-1.815H7.171m1.752-1.815H7.171m1.752-1.816H7.171m1.752-1.816H7.171"/><path fill="none" stroke="#2b2929" stroke-miterlimit="500" stroke-width=".11" d="M8.923 68.582H7.171"/><path fill="none" stroke="#2b2929" stroke-miterlimit="500" stroke-width=".07" d="M8.923 41.35H7.171m1.752 1.815H7.171m1.752 1.816H7.171m1.752 1.814H7.171m1.752 1.817H7.171m1.752 1.815H7.171m1.752 1.816H7.171"/><path fill="none" stroke="#2b2929" stroke-miterlimit="500" stroke-width=".11" d="M8.923 39.533H7.171"/><path fill="none" stroke="#2b2929" stroke-miterlimit="500" stroke-width=".07" d="M8.49 40.443H7.175m1.315 1.814H7.175m1.315 1.815H7.175m1.315 1.816H7.175m1.315 1.816H7.175m1.315 1.814H7.175m1.315 1.817H7.175M8.49 53.15H7.175M8.49 67.673H7.175m1.315-1.816H7.175m1.315-1.814H7.175m1.315-1.816H7.175m1.315-1.815H7.175m1.315-1.815H7.175m1.315-1.816H7.175m1.315-1.816H7.175m.876 13.162h-.876m.876-.908h-.876m.876-.908h-.876m.876-.906h-.876M8 42.712h-.825M8 41.804h-.825M8 40.896h-.825M8 39.989h-.825"/><path fill="none" stroke="#2b2929" stroke-miterlimit="500" stroke-width=".11" d="M10.376 54.057h1.752"/><path fill="none" stroke="#2b2929" stroke-miterlimit="500" stroke-width=".07" d="M10.376 66.767h1.752m-1.752-1.817h1.752m-1.752-1.815h1.752m-1.752-1.815h1.752m-1.752-1.815h1.752m-1.752-1.816h1.752m-1.752-1.816h1.752"/><path fill="none" stroke="#2b2929" stroke-miterlimit="500" stroke-width=".11" d="M10.376 68.582h1.752"/><path fill="none" stroke="#2b2929" stroke-miterlimit="500" stroke-width=".07" d="M10.376 41.35h1.752m-1.752 1.815h1.752m-1.752 1.816h1.752m-1.752 1.814h1.752m-1.752 1.817h1.752m-1.752 1.815h1.752m-1.752 1.816h1.752"/><path fill="none" stroke="#2b2929" stroke-miterlimit="500" stroke-width=".11" d="M10.376 39.533h1.752"/><path fill="none" stroke="#2b2929" stroke-width=".07" d="M11.257 68.127h.876m-.876-.908h.876m-.876-.908h.876m-.876-.906h.876m-.876-22.693h.876m-.876-.907h.876m-.876-.909h.876m-.876-.907h.876"/><path fill="none" stroke="#2b2929" stroke-miterlimit="500" stroke-width=".07" d="M10.877 40.443h1.256m-1.256 1.814h1.256m-1.256 1.815h1.256m-1.256 1.816h1.256m-1.256 1.816h1.256m-1.256 1.814h1.256m-1.256 1.817h1.256m-1.256 1.815h1.256m-1.256 14.523h1.256m-1.256-1.816h1.256m-1.256-1.814h1.256m-1.256-1.816h1.256m-1.256-1.815h1.256m-1.256-1.815h1.256m-1.256-1.816h1.256m-1.256-1.816h1.256"/><path fill="#2b2929" fill-rule="nonzero" d="M13.036 54.203l-.305.59-.308-.59h.613z"/><path fill="none" stroke="#2b2929" stroke-width=".08" d="M12.424 68.579h.612m-.612-29.046h.612m-.305.304v-.61"/><path fill="#2b2929" fill-rule="nonzero" d="M13.036 53.914l-.305-.588-.308.588h.613z"/><path fill="#231f20" fill-rule="nonzero" d="M9.947 38.326a.296.296 0 00-.297-.295.295.295 0 00-.297.295v31.376c0 .164.132.296.297.296a.296.296 0 00.297-.296V38.326"/><path id="slider1" fill="#fff" fill-rule="nonzero" stroke="#000" stroke-linejoin="round" stroke-width=".3" d="M9.651 65.155c-.715 0-1.247.248-1.386.402-.168.18-.332 1.683-.321 3.073.011 1.391.134 2.627.307 2.904.173.274 1.042.386 1.39.397.347.009 1.234-.108 1.404-.35.169-.243.353-.907.353-2.88 0-1.973-.139-2.97-.346-3.181-.205-.211-.776-.363-1.401-.365z"/><path id="slider2" fill="#fff" fill-rule="nonzero" stroke="#231f20" stroke-linejoin="round" stroke-width=".3" d="M18.01 65.155c-.715 0-1.247.248-1.386.402-.168.18-.332 1.683-.321 3.073.011 1.391.134 2.627.307 2.904.173.274 1.042.386 1.39.397.347.009 1.234-.108 1.404-.35.169-.243.353-.907.353-2.88 0-1.973-.139-2.97-.346-3.181-.205-.211-.776-.363-1.401-.365z"/><path id="slider3" fill="#fff" fill-rule="nonzero" stroke="#231f20" stroke-linejoin="round" stroke-width=".3" d="M26.369 65.155c-.715 0-1.247.248-1.386.402-.168.18-.332 1.683-.321 3.073.011 1.391.134 2.627.307 2.904.173.274 1.042.386 1.39.397.347.009 1.234-.108 1.404-.35.169-.243.353-.907.353-2.88 0-1.973-.139-2.97-.346-3.181-.205-.211-.776-.363-1.401-.365z"/><path id="slider4" fill="#fff" fill-rule="nonzero" stroke="#231f20" stroke-linejoin="round" stroke-width=".3" d="M34.728 65.155c-.715 0-1.247.248-1.386.402-.168.18-.332 1.683-.321 3.073.011 1.391.134 2.627.307 2.904.173.274 1.042.386 1.39.397.347.009 1.234-.108 1.404-.35.169-.243.353-.907.353-2.88 0-1.973-.139-2.97-.346-3.181-.205-.211-.776-.363-1.401-.365z"/><path id="slider5" fill="#fff" fill-rule="nonzero" stroke="#231f20" stroke-linejoin="round" stroke-width=".3" d="M43.087 65.155c-.715 0-1.247.248-1.386.402-.168.18-.332 1.683-.321 3.073.011 1.391.134 2.627.307 2.904.173.274 1.042.386 1.39.397.347.009 1.234-.108 1.404-.35.169-.243.353-.907.353-2.88 0-1.973-.139-2.97-.346-3.181-.205-.211-.776-.363-1.401-.365z"/><path id="slider6" fill="#fff" fill-rule="nonzero" stroke="#231f20" stroke-linejoin="round" stroke-width=".3" d="M51.446 65.155c-.715 0-1.247.248-1.386.402-.168.18-.332 1.683-.321 3.073.011 1.391.134 2.627.307 2.904.173.274 1.042.386 1.39.397.347.009 1.234-.108 1.404-.35.169-.243.353-.907.353-2.88 0-1.973-.139-2.97-.346-3.181-.205-.211-.776-.363-1.401-.365z"/><path id="slider7" fill="#fff" fill-rule="nonzero" stroke="#231f20" stroke-linejoin="round" stroke-width=".3" d="M59.805 65.155c-.715 0-1.247.248-1.386.402-.168.18-.332 1.683-.321 3.073.011 1.391.134 2.627.307 2.904.173.274 1.042.386 1.39.397.347.009 1.234-.108 1.404-.35.169-.243.353-.907.353-2.88 0-1.973-.139-2.97-.346-3.181-.205-.211-.776-.363-1.401-.365z"/><path fill="#2c292a" fill-rule="nonzero" d="M79.968 53.455a.55.55 0 00-.493-.302h-2.907c-.209 0-.4.118-.49.302a2.752 2.752 0 000 2.436c.09.184.281.303.49.303h2.907a.552.552 0 00.493-.303 2.758 2.758 0 000-2.436"/><path fill="none" stroke="#231f20" stroke-linejoin="round" stroke-width=".08" d="M79.968 53.455a.55.55 0 00-.493-.302h-2.907c-.209 0-.4.118-.49.302a2.752 2.752 0 000 2.436c.09.184.281.303.49.303h2.907a.552.552 0 00.493-.303 2.758 2.758 0 000-2.436z"/><path fill="#231f20" fill-rule="nonzero" d="M79.687 55.76a.245.245 0 01-.219.135h-2.893a.244.244 0 01-.22-.135 2.46 2.46 0 010-2.175.245.245 0 01.22-.136h2.893c.05 0 .099.017.14.044.032.024.06.053.079.092a2.453 2.453 0 010 2.175m.072-2.222a.242.242 0 00-.084-.095.248.248 0 00-.146-.048h-3.02a.257.257 0 00-.23.143 2.57 2.57 0 000 2.272.253.253 0 00.097.103.254.254 0 00.133.038h3.02a.258.258 0 00.23-.141 2.57 2.57 0 000-2.272"/><path fill="#fff" fill-rule="nonzero" d="M79.687 53.584a.267.267 0 00-.079-.091.258.258 0 00-.14-.044h-2.893a.246.246 0 00-.22.135 2.462 2.462 0 000 2.176.247.247 0 00.22.135h2.893a.244.244 0 00.219-.135 2.455 2.455 0 000-2.176"/><path fill="#fff" fill-rule="nonzero" stroke="#231f20" stroke-linejoin="round" stroke-width=".08" d="M76.575 55.748a2.521 2.521 0 010-2.102h2.892a2.521 2.521 0 010 2.102h-2.892z"/><path fill="#2c292a" fill-rule="nonzero" d="M88.329 53.455a.547.547 0 00-.491-.302H84.93a.55.55 0 00-.491.302 2.758 2.758 0 000 2.436.55.55 0 00.491.303h2.908a.548.548 0 00.491-.303 2.752 2.752 0 000-2.436"/><path fill="none" stroke="#231f20" stroke-linejoin="round" stroke-width=".08" d="M88.329 53.455a.547.547 0 00-.491-.302H84.93a.55.55 0 00-.491.302 2.758 2.758 0 000 2.436.55.55 0 00.491.303h2.908a.548.548 0 00.491-.303 2.752 2.752 0 000-2.436z"/><path fill="#231f20" fill-rule="nonzero" d="M88.05 55.76a.248.248 0 01-.221.135h-2.892a.242.242 0 01-.22-.135 2.46 2.46 0 010-2.175.246.246 0 01.22-.136h2.892c.051 0 .1.017.141.044.033.024.06.053.08.092a2.46 2.46 0 010 2.175m.071-2.222a.242.242 0 00-.084-.095.248.248 0 00-.146-.048h-3.02a.256.256 0 00-.229.143 2.57 2.57 0 000 2.272.245.245 0 00.096.103.252.252 0 00.133.038h3.02a.258.258 0 00.23-.141 2.57 2.57 0 000-2.272"/><path fill="#fff" fill-rule="nonzero" d="M88.05 53.584a.27.27 0 00-.08-.091.258.258 0 00-.141-.044h-2.892a.247.247 0 00-.22.135 2.462 2.462 0 000 2.176.242.242 0 00.22.135h2.892a.247.247 0 00.221-.135 2.462 2.462 0 000-2.176"/><path fill="#fff" fill-rule="nonzero" stroke="#231f20" stroke-linejoin="round" stroke-width=".08" d="M84.937 55.748a2.521 2.521 0 010-2.102h2.892a2.521 2.521 0 010 2.102h-2.892z"/><path id="button1" fill="#fff" fill-rule="nonzero" stroke="#231f20" stroke-linejoin="round" stroke-width=".3" d="M11.605 15.2a.548.548 0 00-.492-.303H8.206c-.21 0-.4.118-.491.303a2.756 2.756 0 000 2.435.548.548 0 00.491.303h2.907a.55.55 0 00.492-.303 2.756 2.756 0 000-2.435z"/><path id="button2" fill="#fff" fill-rule="nonzero" stroke="#231f20" stroke-linejoin="round" stroke-width=".3" d="M19.967 15.2a.548.548 0 00-.492-.303h-2.907c-.21 0-.4.118-.491.303a2.756 2.756 0 000 2.435.548.548 0 00.49.303h2.908a.55.55 0 00.492-.303 2.756 2.756 0 000-2.435z"/><path id="button3" fill="#fff" fill-rule="nonzero" stroke="#231f20" stroke-linejoin="round" stroke-width=".3" d="M28.329 15.2a.548.548 0 00-.492-.303H24.93c-.21 0-.4.118-.491.303a2.756 2.756 0 000 2.435.548.548 0 00.49.303h2.908a.55.55 0 00.492-.303 2.756 2.756 0 000-2.435z"/><path id="button4" fill="#fff" fill-rule="nonzero" stroke="#231f20" stroke-linejoin="round" stroke-width=".3" d="M36.69 15.2a.548.548 0 00-.491-.303h-2.907c-.21 0-.4.118-.491.303a2.756 2.756 0 000 2.435.548.548 0 00.49.303H36.2a.55.55 0 00.492-.303 2.756 2.756 0 000-2.435z"/><path id="button5" fill="#fff" fill-rule="nonzero" stroke="#231f20" stroke-linejoin="round" stroke-width=".3" d="M45.053 15.2a.548.548 0 00-.492-.303h-2.907c-.21 0-.4.118-.491.303a2.756 2.756 0 000 2.435.548.548 0 00.49.303h2.908a.55.55 0 00.492-.303 2.756 2.756 0 000-2.435z"/><path id="button6" fill="#fff" fill-rule="nonzero" stroke="#231f20" stroke-linejoin="round" stroke-width=".3" d="M53.415 15.2a.548.548 0 00-.492-.303h-2.908c-.21 0-.4.118-.49.303a2.756 2.756 0 000 2.435.548.548 0 00.49.303h2.908a.55.55 0 00.491-.303 2.756 2.756 0 000-2.435z"/><path id="button7" fill="#fff" fill-rule="nonzero" stroke="#231f20" stroke-linejoin="round" stroke-width=".3" d="M61.776 15.2a.548.548 0 00-.492-.303h-2.907c-.21 0-.4.118-.49.303a2.756 2.756 0 000 2.435.548.548 0 00.49.303h2.907a.55.55 0 00.492-.303 2.756 2.756 0 000-2.435z"/><path id="button8" fill="#fff" fill-rule="nonzero" stroke="#231f20" stroke-linejoin="round" stroke-width=".3" d="M70.139 15.2a.55.55 0 00-.492-.303H66.74c-.21 0-.4.118-.491.303a2.75 2.75 0 000 2.435.548.548 0 00.491.303h2.907a.551.551 0 00.492-.303 2.756 2.756 0 000-2.435z"/><path id="button9" fill="#fff" fill-rule="nonzero" stroke="#231f20" stroke-linejoin="round" stroke-width=".3" d="M11.605 20.911a.548.548 0 00-.492-.303H8.206c-.21 0-.4.118-.491.303a2.756 2.756 0 000 2.435.548.548 0 00.491.303h2.907a.55.55 0 00.492-.303 2.756 2.756 0 000-2.435z"/><path id="button10" fill="#fff" fill-rule="nonzero" stroke="#231f20" stroke-linejoin="round" stroke-width=".3" d="M19.967 20.911a.548.548 0 00-.492-.303h-2.907c-.21 0-.4.118-.491.303a2.756 2.756 0 000 2.435.548.548 0 00.49.303h2.908a.55.55 0 00.492-.303 2.756 2.756 0 000-2.435z"/><path id="button11" fill="#fff" fill-rule="nonzero" stroke="#231f20" stroke-linejoin="round" stroke-width=".3" d="M28.329 20.911a.548.548 0 00-.492-.303H24.93c-.21 0-.4.118-.491.303a2.756 2.756 0 000 2.435.548.548 0 00.49.303h2.908a.55.55 0 00.492-.303 2.756 2.756 0 000-2.435z"/><path id="button12" fill="#fff" fill-rule="nonzero" stroke="#231f20" stroke-linejoin="round" stroke-width=".3" d="M36.69 20.911a.548.548 0 00-.491-.303h-2.907c-.21 0-.4.118-.491.303a2.756 2.756 0 000 2.435.548.548 0 00.49.303H36.2a.55.55 0 00.492-.303 2.756 2.756 0 000-2.435z"/><path id="button13" fill="#fff" fill-rule="nonzero" stroke="#231f20" stroke-linejoin="round" stroke-width=".3" d="M45.053 20.911a.548.548 0 00-.492-.303h-2.907c-.21 0-.4.118-.491.303a2.756 2.756 0 000 2.435.548.548 0 00.49.303h2.908a.55.55 0 00.492-.303 2.756 2.756 0 000-2.435z"/><path id="button14" fill="#fff" fill-rule="nonzero" stroke="#231f20" stroke-linejoin="round" stroke-width=".3" d="M53.415 20.911a.548.548 0 00-.492-.303h-2.908c-.21 0-.4.118-.49.303a2.756 2.756 0 000 2.435.548.548 0 00.49.303h2.908a.55.55 0 00.491-.303 2.756 2.756 0 000-2.435z"/><path id="button15" fill="#fff" fill-rule="nonzero" stroke="#231f20" stroke-linejoin="round" stroke-width=".3" d="M61.776 20.911a.548.548 0 00-.492-.303h-2.907c-.21 0-.4.118-.49.303a2.756 2.756 0 000 2.435.548.548 0 00.49.303h2.907a.55.55 0 00.492-.303 2.756 2.756 0 000-2.435z"/><path id="button16" fill="#fff" fill-rule="nonzero" stroke="#231f20" stroke-linejoin="round" stroke-width=".3" d="M70.139 20.911a.55.55 0 00-.492-.303H66.74c-.21 0-.4.118-.491.303a2.75 2.75 0 000 2.435.548.548 0 00.491.303h2.907a.551.551 0 00.492-.303 2.756 2.756 0 000-2.435z"/><path id="encoder3" fill="#fff" fill-rule="nonzero" stroke="#231f20" stroke-linejoin="round" stroke-width=".3" d="M80.133 21.089a.547.547 0 00-.491-.303h-2.907c-.209 0-.4.118-.49.303a2.756 2.756 0 000 2.435c.09.184.281.302.49.302h2.907c.21 0 .4-.118.492-.302a2.75 2.75 0 000-2.435z"/><path id="encoder4" fill="#fff" fill-rule="nonzero" stroke="#231f20" stroke-linejoin="round" stroke-width=".3" d="M88.133 21.089a.547.547 0 00-.491-.303h-2.907c-.209 0-.4.118-.49.303a2.756 2.756 0 000 2.435c.09.184.281.302.49.302h2.907c.21 0 .4-.118.492-.302a2.75 2.75 0 000-2.435z"/><path id="encoder1" fill="#fff" fill-rule="nonzero" stroke="#231f20" stroke-linejoin="round" stroke-width=".3" d="M80.133 15.089a.547.547 0 00-.491-.303h-2.907c-.209 0-.4.118-.49.303a2.756 2.756 0 000 2.435c.09.184.281.302.49.302h2.907c.21 0 .4-.118.492-.302a2.75 2.75 0 000-2.435z"/><path id="encoder2" fill="#fff" fill-rule="nonzero" stroke="#231f20" stroke-linejoin="round" stroke-width=".3" d="M88.133 15.089a.547.547 0 00-.491-.303h-2.907c-.209 0-.4.118-.49.303a2.756 2.756 0 000 2.435c.09.184.281.302.49.302h2.907c.21 0 .4-.118.492-.302a2.75 2.75 0 000-2.435z"/><path fill="#231f20" fill-rule="nonzero" d="M79.984 39.532a.546.546 0 00-.492-.302h-2.907c-.208 0-.4.117-.49.302a2.756 2.756 0 000 2.435c.09.184.282.303.49.303h2.907a.55.55 0 00.492-.303 2.75 2.75 0 000-2.435"/><path fill="none" stroke="#231f20" stroke-linejoin="round" stroke-width=".08" d="M79.984 39.532a.546.546 0 00-.492-.302h-2.907c-.208 0-.4.117-.49.302a2.756 2.756 0 000 2.435c.09.184.282.303.49.303h2.907a.55.55 0 00.492-.303 2.75 2.75 0 000-2.435z"/><path fill="#231f20" fill-rule="nonzero" d="M79.705 41.837a.248.248 0 01-.22.135h-2.893a.244.244 0 01-.219-.135 2.453 2.453 0 010-2.175.244.244 0 01.219-.137h2.893c.051 0 .099.018.14.045a.24.24 0 01.08.092 2.466 2.466 0 010 2.175m.071-2.222a.226.226 0 00-.083-.095.252.252 0 00-.147-.047h-3.02a.253.253 0 00-.229.142 2.56 2.56 0 000 2.271.26.26 0 00.096.104.26.26 0 00.133.037h3.02a.255.255 0 00.23-.141 2.567 2.567 0 000-2.271"/><path fill="#fff" fill-rule="nonzero" d="M79.705 39.661a.256.256 0 00-.22-.136h-2.893a.245.245 0 00-.219.136 2.455 2.455 0 000 2.176.244.244 0 00.219.135h2.893a.248.248 0 00.22-.135 2.468 2.468 0 000-2.176"/><path fill="#fff" fill-rule="nonzero" stroke="#231f20" stroke-linejoin="round" stroke-width=".08" d="M76.592 41.825a2.521 2.521 0 010-2.102h2.892a2.521 2.521 0 010 2.102h-2.892z"/><path fill="#231f20" fill-rule="nonzero" d="M78.423 41.631h-.771a.254.254 0 01-.257-.251c0-.139.115-.252.257-.252h.771c.142 0 .257.113.257.252a.254.254 0 01-.257.251m0-.555h-.771a.325.325 0 00-.322.326.325.325 0 00.322.315h.771a.323.323 0 00.321-.325.325.325 0 00-.321-.316M88.347 39.532a.549.549 0 00-.492-.302h-2.907a.545.545 0 00-.491.302 2.75 2.75 0 000 2.435c.09.184.282.303.491.303h2.907c.209 0 .4-.119.492-.303a2.756 2.756 0 000-2.435"/><path fill="none" stroke="#231f20" stroke-linejoin="round" stroke-width=".08" d="M88.347 39.532a.549.549 0 00-.492-.302h-2.907a.545.545 0 00-.491.302 2.75 2.75 0 000 2.435c.09.184.282.303.491.303h2.907c.209 0 .4-.119.492-.303a2.756 2.756 0 000-2.435z"/><path fill="#231f20" fill-rule="nonzero" d="M88.066 41.837a.246.246 0 01-.22.135h-2.892a.241.241 0 01-.219-.135 2.453 2.453 0 010-2.175.245.245 0 01.219-.137h2.892c.052 0 .1.018.141.045.033.023.06.053.079.092a2.453 2.453 0 010 2.175m.072-2.222a.221.221 0 00-.084-.095.246.246 0 00-.145-.047h-3.02a.255.255 0 00-.231.142 2.567 2.567 0 000 2.271.27.27 0 00.097.104.264.264 0 00.134.037h3.02a.254.254 0 00.229-.141 2.567 2.567 0 000-2.271"/><path fill="#fff" fill-rule="nonzero" d="M88.066 39.661a.241.241 0 00-.079-.091.257.257 0 00-.141-.045h-2.892a.246.246 0 00-.219.136 2.455 2.455 0 000 2.176.244.244 0 00.219.135h2.892a.246.246 0 00.22-.135 2.455 2.455 0 000-2.176"/><path fill="#fff" fill-rule="nonzero" stroke="#231f20" stroke-linejoin="round" stroke-width=".08" d="M84.954 41.825a2.521 2.521 0 010-2.102h2.892a2.521 2.521 0 010 2.102h-2.892z"/><path fill="#231f20" fill-rule="nonzero" d="M86.785 41.631h-.771a.254.254 0 01-.257-.251c0-.139.115-.252.257-.252h.771c.141 0 .257.113.257.252a.255.255 0 01-.257.251m0-.555h-.771a.326.326 0 00-.322.326.325.325 0 00.322.315h.771a.323.323 0 00.321-.325.325.325 0 00-.321-.316M79.984 45.421a.547.547 0 00-.492-.303h-2.907c-.208 0-.4.118-.49.303a2.756 2.756 0 000 2.435c.09.185.282.303.49.303h2.907c.21 0 .401-.118.492-.303a2.75 2.75 0 000-2.435"/><path fill="none" stroke="#231f20" stroke-linejoin="round" stroke-width=".08" d="M79.984 45.421a.547.547 0 00-.492-.303h-2.907c-.208 0-.4.118-.49.303a2.756 2.756 0 000 2.435c.09.185.282.303.49.303h2.907c.21 0 .401-.118.492-.303a2.75 2.75 0 000-2.435z"/><path fill="#231f20" fill-rule="nonzero" d="M79.705 47.726a.248.248 0 01-.22.135h-2.893a.238.238 0 01-.128-.036.235.235 0 01-.091-.099 2.455 2.455 0 010-2.176.243.243 0 01.219-.135h2.893a.247.247 0 01.22.135 2.468 2.468 0 010 2.176m.071-2.223a.26.26 0 00-.23-.142h-3.02a.254.254 0 00-.229.142 2.563 2.563 0 000 2.272.26.26 0 00.229.142h3.02a.255.255 0 00.23-.142 2.57 2.57 0 000-2.272"/><path fill="#fff" fill-rule="nonzero" d="M79.705 45.55a.248.248 0 00-.22-.136h-2.893a.243.243 0 00-.219.136 2.455 2.455 0 000 2.176c.02.041.052.076.091.099a.246.246 0 00.128.035h2.893a.247.247 0 00.22-.134 2.468 2.468 0 000-2.176"/><path fill="#fff" fill-rule="nonzero" stroke="#231f20" stroke-linejoin="round" stroke-width=".08" d="M76.592 47.714a2.521 2.521 0 010-2.102h2.892a2.521 2.521 0 010 2.102h-2.892z"/><path fill="#231f20" fill-rule="nonzero" d="M78.423 47.52h-.771a.254.254 0 01-.257-.251c0-.139.115-.252.257-.252h.771c.142 0 .257.113.257.252a.254.254 0 01-.257.251m0-.555h-.771a.325.325 0 00-.322.325.325.325 0 00.322.316h.771a.323.323 0 00.321-.325.325.325 0 00-.321-.316M88.347 45.421a.55.55 0 00-.492-.303h-2.907a.546.546 0 00-.491.303 2.75 2.75 0 000 2.435c.09.185.282.303.491.303h2.907a.55.55 0 00.492-.303 2.756 2.756 0 000-2.435"/><path fill="none" stroke="#231f20" stroke-linejoin="round" stroke-width=".08" d="M88.347 45.421a.55.55 0 00-.492-.303h-2.907a.546.546 0 00-.491.303 2.75 2.75 0 000 2.435c.09.185.282.303.491.303h2.907a.55.55 0 00.492-.303 2.756 2.756 0 000-2.435z"/><path fill="#231f20" fill-rule="nonzero" d="M88.066 47.726a.246.246 0 01-.22.135h-2.892a.233.233 0 01-.128-.036.235.235 0 01-.091-.099 2.455 2.455 0 010-2.176.244.244 0 01.219-.135h2.892a.248.248 0 01.22.135 2.455 2.455 0 010 2.176m.072-2.223a.24.24 0 00-.084-.095.253.253 0 00-.145-.047h-3.02a.256.256 0 00-.231.142 2.57 2.57 0 000 2.272.27.27 0 00.097.104.255.255 0 00.134.038h3.02a.255.255 0 00.229-.142 2.57 2.57 0 000-2.272"/><path fill="#fff" fill-rule="nonzero" d="M88.066 45.55a.249.249 0 00-.22-.136h-2.892a.245.245 0 00-.219.136 2.455 2.455 0 000 2.176.241.241 0 00.219.134h2.892a.245.245 0 00.22-.134 2.455 2.455 0 000-2.176"/><path fill="#fff" fill-rule="nonzero" stroke="#231f20" stroke-linejoin="round" stroke-width=".08" d="M84.954 47.714a2.521 2.521 0 010-2.102h2.892a2.521 2.521 0 010 2.102h-2.892z"/><path fill="#231f20" fill-rule="nonzero" d="M86.785 47.52h-.771a.254.254 0 01-.257-.251c0-.139.115-.252.257-.252h.771c.141 0 .257.113.257.252a.255.255 0 01-.257.251m0-.555h-.771a.326.326 0 00-.322.325.325.325 0 00.322.316h.771a.323.323 0 00.321-.325.325.325 0 00-.321-.316"/><path id="button17" fill="#fff" fill-rule="nonzero" stroke="#231f20" stroke-linejoin="round" stroke-width=".3" d="M79.984 61.437a.547.547 0 00-.492-.303h-2.907c-.208 0-.4.118-.49.303a2.756 2.756 0 000 2.435c.09.184.282.303.49.303h2.907a.55.55 0 00.492-.303 2.75 2.75 0 000-2.435z"/><path id="button18" fill="#fff" fill-rule="nonzero" stroke="#231f20" stroke-linejoin="round" stroke-width=".3" d="M88.347 61.437a.55.55 0 00-.492-.303h-2.907a.546.546 0 00-.491.303 2.75 2.75 0 000 2.435c.09.184.282.303.491.303h2.907c.209 0 .4-.119.492-.303a2.756 2.756 0 000-2.435z"/><path id="button19" fill="#fff" fill-rule="nonzero" stroke="#231f20" stroke-linejoin="round" stroke-width=".3" d="M79.984 67.326a.547.547 0 00-.492-.303h-2.907c-.208 0-.4.118-.49.303a2.756 2.756 0 000 2.435c.09.184.282.303.49.303h2.907a.55.55 0 00.492-.303 2.75 2.75 0 000-2.435z"/><path id="button20" fill="#fff" fill-rule="nonzero" stroke="#231f20" stroke-linejoin="round" stroke-width=".3" d="M88.347 67.326a.55.55 0 00-.492-.303h-2.907a.546.546 0 00-.491.303 2.75 2.75 0 000 2.435c.09.184.282.303.491.303h2.907c.209 0 .4-.119.492-.303a2.756 2.756 0 000-2.435z"/><path id="rotor1" fill="#fff" fill-rule="nonzero" stroke="#231f20" stroke-width=".25" d="M9.702 5.611c-2.113 0-3.826 1.705-3.826 3.805 0 2.102 1.713 3.806 3.826 3.806 2.114 0 3.826-1.704 3.826-3.806 0-2.1-1.712-3.805-3.826-3.805z"/><path id="rotor8" fill="#fff" fill-rule="nonzero" stroke="#231f20" stroke-width=".25" d="M67.826 5.609C65.713 5.609 64 7.314 64 9.412c0 2.102 1.713 3.806 3.826 3.806 2.114 0 3.826-1.704 3.826-3.806 0-2.1-1.712-3.805-3.826-3.805z"/><path id="rotor7" fill="#fff" fill-rule="nonzero" stroke="#231f20" stroke-width=".25" d="M59.523 5.609c-2.113 0-3.826 1.705-3.826 3.804 0 2.102 1.713 3.806 3.826 3.806 2.114 0 3.826-1.704 3.826-3.806 0-2.1-1.712-3.805-3.826-3.805z"/><path id="rotor6" fill="#fff" fill-rule="nonzero" stroke="#231f20" stroke-width=".25" d="M51.22 5.609c-2.114 0-3.827 1.705-3.827 3.804 0 2.102 1.713 3.806 3.826 3.806 2.114 0 3.826-1.704 3.826-3.806 0-2.1-1.712-3.805-3.826-3.805z"/><path id="rotor5" fill="#fff" fill-rule="nonzero" stroke="#231f20" stroke-width=".25" d="M42.916 5.609c-2.113 0-3.826 1.705-3.826 3.804 0 2.102 1.713 3.806 3.826 3.806 2.114 0 3.826-1.704 3.826-3.806 0-2.1-1.712-3.805-3.826-3.805z"/><path id="rotor4" fill="#fff" fill-rule="nonzero" stroke="#231f20" stroke-width=".25" d="M34.612 5.609c-2.113 0-3.826 1.705-3.826 3.804 0 2.102 1.713 3.806 3.826 3.806 2.114 0 3.826-1.704 3.826-3.806 0-2.1-1.712-3.805-3.826-3.805z"/><path id="rotor3" fill="#fff" fill-rule="nonzero" stroke="#231f20" stroke-width=".25" d="M26.309 5.609c-2.113 0-3.826 1.705-3.826 3.804 0 2.102 1.713 3.806 3.826 3.806 2.114 0 3.826-1.704 3.826-3.806 0-2.1-1.712-3.805-3.826-3.805z"/><path id="rotor2" fill="#fff" fill-rule="nonzero" stroke="#231f20" stroke-width=".25" d="M18.005 5.609c-2.113 0-3.826 1.705-3.826 3.804 0 2.102 1.713 3.806 3.826 3.806 2.114 0 3.826-1.704 3.826-3.806 0-2.1-1.712-3.805-3.826-3.805z"/><path id="button25" fill="#fff" fill-rule="nonzero" stroke="#231f20" stroke-width=".119315" d="M42.917 7.6a1.821 1.821 0 00-1.826 1.816c0 1.003.818 1.817 1.826 1.817a1.821 1.821 0 001.826-1.817A1.821 1.821 0 0042.917 7.6z"/><path id="button27" fill="#fff" fill-rule="nonzero" stroke="#231f20" stroke-width=".119315" d="M59.525 7.6a1.821 1.821 0 00-1.826 1.816c0 1.003.817 1.817 1.826 1.817a1.821 1.821 0 001.826-1.817A1.821 1.821 0 0059.525 7.6z"/><path id="button26" fill="#fff" fill-rule="nonzero" stroke="#231f20" stroke-width=".119315" d="M51.221 7.6a1.821 1.821 0 00-1.826 1.816c0 1.003.818 1.817 1.826 1.817a1.821 1.821 0 001.826-1.817A1.821 1.821 0 0051.221 7.6z"/><path id="button21" fill="#fff" fill-rule="nonzero" stroke="#231f20" stroke-width=".119315" d="M9.702 7.6a1.821 1.821 0 00-1.826 1.816c0 1.003.818 1.817 1.826 1.817a1.821 1.821 0 001.826-1.817A1.821 1.821 0 009.702 7.6z"/><path id="button24" fill="#fff" fill-rule="nonzero" stroke="#231f20" stroke-width=".119315" d="M34.613 7.6a1.821 1.821 0 00-1.826 1.816c0 1.003.818 1.817 1.826 1.817a1.821 1.821 0 001.826-1.817A1.821 1.821 0 0034.613 7.6z"/><path id="button23" fill="#fff" fill-rule="nonzero" stroke="#231f20" stroke-width=".119315" d="M26.31 7.6a1.821 1.821 0 00-1.826 1.816c0 1.003.817 1.817 1.826 1.817a1.821 1.821 0 001.826-1.817A1.821 1.821 0 0026.31 7.6z"/><path id="button22" fill="#fff" fill-rule="nonzero" stroke="#231f20" stroke-width=".119315" d="M18.006 7.6a1.821 1.821 0 00-1.826 1.816c0 1.003.817 1.817 1.826 1.817a1.821 1.821 0 001.826-1.817A1.821 1.821 0 0018.006 7.6z"/><path id="button28" fill="#fff" fill-rule="nonzero" stroke="#231f20" stroke-width=".11915" d="M67.826 7.6a1.819 1.819 0 00-1.823 1.814c0 1.002.816 1.814 1.823 1.814a1.818 1.818 0 001.823-1.814c0-1.001-.815-1.814-1.823-1.814z"/><path fill="#fff" d="M82.735 8.338l-.098.086-.039.828.082.085.097-.085.052-.828-.094-.086z"/><path fill="#fff" fill-rule="nonzero" d="M77.632 10.584l-.097.086.088.074h1.104l.099-.074-.084-.086h-1.11z"/><path fill="#fff" d="M78.985 9.5l-.098.088-.053.914.089.082.097-.082.047-.914-.082-.088zM84.21 8.338l-.097.086-.047.828.088.085.098-.085.052-.828-.094-.086zM84.145 9.5l-.097.088-.054.914.089.082.097-.082.048-.914-.083-.088zM82.857 9.336l-.096.087.086.075h1.104l.099-.075-.084-.087h-1.109zM77.575 8.338l-.097.086-.041.828.083.085.096-.085.053-.828-.094-.086zM77.51 9.5l-.097.088-.054.914.088.082.104-.082.042-.914-.083-.088zM79.05 8.338l-.098.086-.047.828.089.085.098-.085.052-.828-.094-.086z"/><path fill="#fff" fill-rule="nonzero" d="M80.133 9.336l-.098.087.088.075h1.104l.097-.075-.082-.087h-1.109z"/></svg>