<?xml version="1.0" encoding="UTF-8" standalone="no"?>
<!DOCTYPE svg PUBLIC "-//W3C//DTD SVG 1.1//EN" "http://www.w3.org/Graphics/SVG/1.1/DTD/svg11.dtd">
<svg width="100%" height="100%" viewBox="0 0 80 80" version="1.1" xmlns="http://www.w3.org/2000/svg" xmlns:xlink="http://www.w3.org/1999/xlink" xml:space="preserve" style="fill-rule:evenodd;clip-rule:evenodd;stroke-linejoin:round;stroke-miterlimit:1.41421;">
    <g transform="matrix(1,0,0,1,-1586,-558)">
        <path d="M1622,582.494L1622,572L1624,572L1624,566L1626,566L1626,572L1632,572L1632,566L1634,566L1634,572L1636,572L1636,582.494L1650.51,597L1644.42,603.089L1647.68,606.354L1647.68,609.174L1647.69,609.182L1646.44,610.436L1654,618L1654,618L1654,630L1652,630L1652,618.829L1645.02,611.85L1642.44,614.436L1648,620L1648,620L1648,620L1648,630L1646,630L1646,620.831L1643.05,617.881L1643.05,617.88L1641.02,615.85L1639.39,617.482L1639.38,617.475L1636.56,617.475L1637.97,616.064L1636.56,617.475L1633.3,614.21L1629,618.506L1624.25,613.753L1622,616L1619.99,616L1614,621.989L1614,622L1598,622L1598,620L1613.16,620L1618,615.161L1618,612L1615.99,612L1612,615.989L1612,616L1598,616L1598,614L1611.16,614L1614,611.161L1614,608L1616.25,605.753L1607.49,597L1622,582.494ZM1643,604.503L1634.71,612.796L1637.94,616.022L1646.23,607.729L1643,604.503ZM1647.51,597L1629,578.494L1610.49,597L1629,615.506L1647.51,597ZM1616.83,608L1616,608.828L1616,610L1618,610L1620,612L1620,614L1621.88,614L1622,613.879L1622,611.506L1618.49,608L1616.83,608ZM1642.56,597L1629,583.444L1615.44,597L1629,610.556L1642.56,597ZM1636.46,598L1634.92,598C1634.5,600.511 1632.51,602.495 1630,602.917L1630,604.459C1630.9,604.267 1631.74,603.818 1632.4,603.156C1633.3,602.261 1634.26,601.295 1635.16,600.401C1635.82,599.738 1636.27,598.902 1636.46,598ZM1621.54,598C1621.73,598.902 1622.18,599.738 1622.84,600.401C1623.74,601.295 1624.7,602.261 1625.6,603.156C1626.26,603.818 1627.1,604.267 1628,604.459L1628,602.917C1625.49,602.495 1623.51,600.511 1623.08,598L1621.54,598ZM1628,598L1625.13,598C1625.49,599.405 1626.6,600.512 1628,600.874L1628,598ZM1632.87,598L1630,598L1630,600.874C1631.4,600.512 1632.51,599.405 1632.87,598ZM1630,589.541L1630,591.083C1632.51,591.505 1634.5,593.489 1634.92,596L1636.46,596C1636.27,595.098 1635.82,594.262 1635.16,593.599C1634.26,592.705 1633.3,591.739 1632.4,590.844C1631.74,590.182 1630.9,589.733 1630,589.541ZM1628,589.541C1627.1,589.733 1626.26,590.182 1625.6,590.844C1624.7,591.739 1623.74,592.705 1622.84,593.599C1622.18,594.262 1621.73,595.098 1621.54,596L1623.08,596C1623.51,593.489 1625.49,591.505 1628,591.083L1628,589.541ZM1630,593.126L1630,596L1632.87,596C1632.51,594.595 1631.4,593.488 1630,593.126ZM1628,593.126C1626.6,593.488 1625.49,594.595 1625.13,596L1628,596L1628,593.126ZM1634,580.494L1634,574L1624,574L1624,580.494L1629,575.494L1634,580.494Z" style="fill:rgb(216,216,216);"/>
    </g>
</svg>
