<?xml version="1.0" encoding="UTF-8" standalone="no"?>
<!DOCTYPE svg PUBLIC "-//W3C//DTD SVG 1.1//EN" "http://www.w3.org/Graphics/SVG/1.1/DTD/svg11.dtd">
<svg width="100%" height="100%" viewBox="0 0 80 80" version="1.1" xmlns="http://www.w3.org/2000/svg" xmlns:xlink="http://www.w3.org/1999/xlink" xml:space="preserve" style="fill-rule:evenodd;clip-rule:evenodd;stroke-linejoin:round;stroke-miterlimit:1.41421;">
    <g transform="matrix(1,0,0,1,-1519,-633)">
        <path d="M1534,648L1538,648L1538,644L1540,644L1540,642L1542,642L1542,644L1546,644L1546,642L1548,642L1548,644L1550,644L1550,648L1554,648L1554,644L1556,644L1556,642L1560,642L1560,644L1562,644L1562,648L1566,648L1566,648.128L1573.87,656L1574,656L1574,660L1584,660L1584,662L1572,662L1572,659.393C1570.42,659.831 1569.26,661.281 1569.26,663C1569.26,664.719 1570.42,666.169 1572,666.607L1572,664L1584,664L1584,666L1574,666L1574,704L1542,704L1542,703.857L1534.14,696L1534,696L1534,648ZM1536.97,696L1542.97,702L1570.64,702L1564.64,696L1536.97,696ZM1572,657.634L1572,656.957L1566,650.957L1566,694.528L1572,700.528L1572,668.366C1569.47,667.896 1567.54,665.67 1567.54,663C1567.54,660.33 1569.47,658.104 1572,657.634ZM1564,694L1564,650L1536,650L1536,694L1564,694ZM1538,688L1540,688L1540,686L1542,686L1542,690L1540,690L1540,692L1538,692L1538,688ZM1538,684L1540,684L1540,686L1538,686L1538,684ZM1554,668L1562,668L1562,682L1554,682L1554,680L1560,680L1560,676L1556,676L1556,674L1560,674L1560,670L1554,670L1554,668ZM1538,680L1542,680L1542,682L1538,682L1538,680ZM1538,674L1542,674L1542,676L1540,676L1540,678L1538,678L1538,674ZM1538,668L1540,668L1540,670L1542,670L1542,672L1538,672L1538,668ZM1542,652L1544,652L1544,664L1562,664L1562,666L1542,666L1542,652ZM1556,652L1558,652L1558,660L1562,660L1562,662L1556,662L1556,652ZM1556,646L1556,648L1560,648L1560,646L1556,646ZM1540,646L1540,648L1548,648L1548,646L1540,646Z" style="fill:rgb(235,235,235);"/>
    </g>
</svg>
