<?xml version="1.0" encoding="UTF-8" standalone="no"?>
<!DOCTYPE svg PUBLIC "-//W3C//DTD SVG 1.1//EN" "http://www.w3.org/Graphics/SVG/1.1/DTD/svg11.dtd">
<svg width="100%" height="100%" viewBox="0 0 80 80" version="1.1" xmlns="http://www.w3.org/2000/svg" xmlns:xlink="http://www.w3.org/1999/xlink" xml:space="preserve" style="fill-rule:evenodd;clip-rule:evenodd;stroke-linejoin:round;stroke-miterlimit:1.41421;">
    <g transform="matrix(1,0,0,1,-1124,-634)">
        <path d="M1132,684L1132,682L1140,682L1140,686L1142,686L1142,662L1140,662L1140,666L1132,666L1132,664L1138,664L1138,660L1142,660L1142,652L1186,652L1186,660L1190,660L1190,664L1196,664L1196,666L1188,666L1188,662L1186,662L1186,686L1188,686L1188,682L1196,682L1196,684L1190,684L1190,688L1186,688L1186,696L1142,696L1142,688L1138,688L1138,684L1132,684ZM1144,654L1144,694L1184,694L1184,654L1144,654ZM1182,666.959C1182,665.113 1181.27,663.343 1179.96,662.038C1178.66,660.733 1176.89,660 1175.04,660C1168.68,660 1159.32,660 1152.96,660C1151.11,660 1149.34,660.733 1148.04,662.038C1146.73,663.343 1146,665.113 1146,666.959C1146,671.255 1146,676.745 1146,681.041C1146,682.887 1146.73,684.657 1148.04,685.962C1149.34,687.267 1151.11,688 1152.96,688C1159.32,688 1168.68,688 1175.04,688C1176.89,688 1178.66,687.267 1179.96,685.962C1181.27,684.657 1182,682.887 1182,681.041C1182,676.745 1182,671.255 1182,666.959ZM1180,676.862C1179.43,675.971 1178.95,675.029 1178.47,674.084C1178.05,673.232 1177.64,672.376 1177.22,671.525C1176.86,670.814 1176.5,670.105 1176.09,669.421C1175.86,669.023 1175.6,668.631 1175.32,668.264C1175.15,668.039 1174.96,667.822 1174.75,667.632C1174.64,667.53 1174.52,667.435 1174.39,667.358C1174.3,667.311 1174.22,667.27 1174.13,667.245C1174.07,667.23 1174.02,667.22 1173.96,667.219C1173.87,667.217 1173.77,667.236 1173.68,667.277C1173.62,667.305 1173.57,667.347 1173.52,667.39C1173.43,667.466 1173.35,667.553 1173.27,667.643C1173.21,667.713 1173.15,667.786 1173.1,667.861C1173.06,667.917 1173.02,667.973 1172.98,668.031C1172.79,668.306 1172.63,668.596 1172.47,668.89C1172.28,669.249 1172.1,669.616 1171.93,669.986C1171.47,670.989 1171.06,672.016 1170.66,673.044C1170.17,674.314 1169.7,675.589 1169.2,676.859C1169.06,677.236 1168.91,677.612 1168.76,677.988C1168.32,679.079 1167.87,680.168 1167.33,681.216C1167.03,681.806 1166.71,682.388 1166.31,682.922C1166.08,683.234 1165.83,683.533 1165.53,683.78C1165.34,683.936 1165.13,684.072 1164.9,684.165C1164.74,684.229 1164.58,684.273 1164.41,684.29C1164.3,684.301 1164.19,684.302 1164.08,684.291C1163.42,684.23 1162.88,683.795 1162.46,683.32C1162.37,683.221 1162.29,683.118 1162.2,683.014C1162.09,682.866 1161.98,682.714 1161.88,682.559C1161.77,682.394 1161.66,682.226 1161.56,682.055C1161.42,681.827 1161.3,681.595 1161.17,681.36C1161.01,681.058 1160.86,680.752 1160.71,680.443C1160.52,680.058 1160.35,679.668 1160.17,679.277C1159.97,678.803 1159.77,678.328 1159.57,677.85C1159.32,677.231 1159.07,676.608 1158.82,675.985C1158.48,675.115 1158.14,674.244 1157.79,673.376C1157.65,673.02 1157.51,672.664 1157.36,672.309C1157.09,671.659 1156.82,671.011 1156.52,670.374C1156.31,669.928 1156.09,669.487 1155.85,669.059C1155.77,668.916 1155.69,668.774 1155.6,668.635C1155.54,668.543 1155.48,668.452 1155.42,668.362C1155.38,668.31 1155.34,668.255 1155.3,668.204C1155.25,668.136 1155.19,668.069 1155.14,668.005C1155.07,667.931 1155,667.86 1154.92,667.798C1154.88,667.762 1154.84,667.728 1154.79,667.704C1154.71,667.667 1154.62,667.647 1154.54,667.646C1154.48,667.645 1154.43,667.653 1154.38,667.667C1154.27,667.697 1154.16,667.752 1154.07,667.816C1153.92,667.912 1153.79,668.03 1153.67,668.154C1153.5,668.34 1153.34,668.543 1153.18,668.752C1152.92,669.119 1152.69,669.508 1152.47,669.902C1152.1,670.572 1151.76,671.263 1151.44,671.956C1151.09,672.703 1150.74,673.453 1150.39,674.199C1150.02,674.985 1149.63,675.769 1149.19,676.522C1149.06,676.742 1148.93,676.959 1148.79,677.172C1148.75,677.23 1148.71,677.289 1148.67,677.347C1148.62,677.429 1148.56,677.509 1148.48,677.574C1148.41,677.637 1148.32,677.685 1148.23,677.715C1148.15,677.739 1148.08,677.75 1148,677.749L1148,681.951C1148,683.025 1148.43,684.055 1149.19,684.814C1149.94,685.573 1150.98,686 1152.05,686C1158.19,686 1169.81,686 1175.95,686C1177.03,686 1178.06,685.573 1178.81,684.814C1179.57,684.055 1180,683.025 1180,681.951L1180,676.862ZM1180,673.781L1180,666.049C1180,664.975 1179.57,663.945 1178.81,663.186C1178.06,662.427 1177.03,662 1175.95,662C1169.81,662 1158.19,662 1152.05,662C1150.98,662 1149.94,662.427 1149.19,663.186C1148.43,663.945 1148,664.975 1148,666.049L1148,675.586C1148.3,675.065 1148.57,674.529 1148.83,673.989C1149.29,673.03 1149.73,672.057 1150.18,671.093C1150.29,670.872 1150.4,670.652 1150.51,670.431C1150.89,669.647 1151.3,668.865 1151.79,668.136C1152.08,667.697 1152.41,667.272 1152.8,666.914C1153.05,666.684 1153.33,666.483 1153.64,666.343C1153.84,666.253 1154.05,666.19 1154.27,666.162C1154.43,666.142 1154.59,666.14 1154.75,666.158C1154.88,666.172 1155.01,666.199 1155.14,666.238C1155.26,666.274 1155.38,666.321 1155.49,666.379C1155.75,666.515 1155.98,666.708 1156.18,666.921C1156.41,667.167 1156.61,667.436 1156.79,667.717C1156.89,667.873 1156.99,668.032 1157.08,668.193C1157.18,668.366 1157.28,668.541 1157.37,668.717C1157.53,669.003 1157.67,669.293 1157.81,669.586C1157.98,669.956 1158.15,670.329 1158.31,670.705C1158.51,671.165 1158.71,671.629 1158.89,672.093C1159.14,672.705 1159.39,673.319 1159.63,673.933C1159.92,674.682 1160.22,675.433 1160.51,676.182C1160.66,676.548 1160.81,676.914 1160.96,677.28C1161.26,678.021 1161.58,678.759 1161.91,679.486C1162.14,679.97 1162.38,680.45 1162.64,680.918C1162.81,681.227 1162.99,681.532 1163.19,681.823C1163.31,681.997 1163.44,682.166 1163.58,682.324C1163.65,682.406 1163.73,682.486 1163.81,682.559C1163.86,682.602 1163.91,682.643 1163.96,682.68C1164,682.703 1164.03,682.725 1164.07,682.745C1164.09,682.756 1164.11,682.767 1164.13,682.775C1164.17,682.788 1164.2,682.798 1164.23,682.799C1164.29,682.799 1164.35,682.771 1164.4,682.744C1164.43,682.728 1164.45,682.711 1164.48,682.693C1164.53,682.658 1164.58,682.619 1164.63,682.577C1164.71,682.506 1164.78,682.428 1164.85,682.347C1164.97,682.219 1165.07,682.083 1165.17,681.943C1165.37,681.662 1165.55,681.366 1165.71,681.065C1166.03,680.501 1166.31,679.918 1166.57,679.329C1167.01,678.338 1167.41,677.328 1167.81,676.317C1168.3,675.047 1168.78,673.772 1169.27,672.502C1169.46,672.013 1169.65,671.525 1169.85,671.04C1170.01,670.639 1170.18,670.24 1170.35,669.843C1170.49,669.526 1170.63,669.211 1170.79,668.899C1170.9,668.658 1171.02,668.419 1171.15,668.182C1171.43,667.655 1171.74,667.131 1172.13,666.673C1172.39,666.356 1172.71,666.061 1173.1,665.894C1173.32,665.799 1173.56,665.745 1173.8,665.724C1173.86,665.72 1173.93,665.719 1174,665.719C1174.14,665.725 1174.29,665.742 1174.43,665.775C1175.1,665.929 1175.65,666.376 1176.11,666.87C1176.2,666.971 1176.29,667.075 1176.38,667.182C1176.49,667.319 1176.6,667.461 1176.7,667.605C1176.83,667.786 1176.95,667.971 1177.08,668.159C1177.22,668.389 1177.37,668.624 1177.5,668.86C1177.66,669.144 1177.82,669.431 1177.98,669.72C1178.18,670.095 1178.37,670.475 1178.56,670.855C1178.98,671.707 1179.39,672.564 1179.82,673.416C1179.88,673.538 1179.94,673.66 1180,673.781Z" style="fill:rgb(235,235,235);"/>
    </g>
</svg>
