<?xml version="1.0" encoding="UTF-8" standalone="no"?>
<!DOCTYPE svg PUBLIC "-//W3C//DTD SVG 1.1//EN" "http://www.w3.org/Graphics/SVG/1.1/DTD/svg11.dtd">
<svg width="100%" height="100%" viewBox="0 0 80 80" version="1.1" xmlns="http://www.w3.org/2000/svg" xmlns:xlink="http://www.w3.org/1999/xlink" xml:space="preserve" style="fill-rule:evenodd;clip-rule:evenodd;stroke-linejoin:round;stroke-miterlimit:1.41421;">
    <g transform="matrix(1,0,0,1,-318.116,-480.884)">
        <path d="M374.316,495.273C374.495,495.104 374.737,495 375.004,495C376.711,495 380,495 380,495C381.061,495 382.078,495.421 382.828,496.172C383.579,496.922 384,497.939 384,499C384,500.823 384,502.831 384,504C384,504.231 383.92,504.454 383.776,504.631L383.779,504.635L383.707,504.707C383.707,504.707 344.571,543.843 344.571,543.843C343.349,545.61 341.309,546.769 339,546.769C335.264,546.769 332.231,543.736 332.231,540C332.231,538.577 332.671,537.257 333.422,536.167L333.421,536.165L333.429,536.157C333.896,535.482 334.482,534.896 335.157,534.429L374.314,495.272L374.316,495.273ZM374,498.414L334.783,537.635C334.39,538.334 334.165,539.141 334.165,540C334.165,542.668 336.332,544.835 339,544.835C339.829,544.835 340.61,544.626 341.292,544.257L380.584,505L378,505C376.939,505 375.922,504.579 375.172,503.828C374.421,503.078 374,502.061 374,501L374,498.414ZM346,533L348,533L348,535L346,535L346,537L344,537L344,535L342,535L342,533L344,533L344,531L346,531L346,533ZM358,521L360,521L360,523L358,523L358,525L356,525L356,523L354,523L354,521L356,521L356,519L358,519L358,521ZM370,513L368,513L368,511L366,511L366,509L368,509L368,507L370,507L370,509L372,509L372,511L370,511L370,513ZM379.383,497L376,497L376,501C376,502.105 376.895,503 378,503C379.745,503 382,503 382,503C382,503 382,501.233 382,499.617C382,498.172 380.828,497 379.383,497ZM378,499L380,499L380,501L378,501L378,499Z" style="fill:rgb(235,235,235);"/>
    </g>
</svg>
