<?xml version="1.0" encoding="UTF-8" standalone="no"?>
<!DOCTYPE svg PUBLIC "-//W3C//DTD SVG 1.1//EN" "http://www.w3.org/Graphics/SVG/1.1/DTD/svg11.dtd">
<svg width="100%" height="100%" viewBox="0 0 80 80" version="1.1" xmlns="http://www.w3.org/2000/svg" xmlns:xlink="http://www.w3.org/1999/xlink" xml:space="preserve" style="fill-rule:evenodd;clip-rule:evenodd;stroke-linejoin:round;stroke-miterlimit:1.41421;">
    <g transform="matrix(1,0,0,1,-1357,-635.002)">
        <path d="M1372.45,664L1372,663.547L1370.45,662L1369.99,661.481L1369.99,658L1370.01,658L1369.99,657.982L1379.98,648L1379.98,648.004L1379.98,648L1411.5,648L1411.5,648.004L1411.51,648L1424,660.492L1424,660.496L1424,660.496L1424,692L1423.98,692L1424,692.023L1414.02,702.005L1414,701.987L1414,702.005L1410.72,702.005L1408,699.314L1408,698L1406,698L1406,694.539L1416,684.592L1416.54,684L1418,684L1418,680.955L1413.05,676.001L1412,675.001L1412,665.237L1406.77,660.004L1397,660.004L1396,658.962L1391.04,654L1388,654L1388,655.395L1387.41,656L1378,665.408L1377.37,666L1374,666L1374,664L1372.46,664L1372.46,664.005L1372.45,664ZM1410.68,650L1380.8,650L1372,658.803L1372,660.719L1373.28,662L1374.58,662L1384,652.58L1384.54,652L1392,652L1392,652.129L1397.87,658.004L1407.56,658.004L1414,664.417L1414,674.131L1419.87,680L1420,680L1420,687.405L1419.42,688L1410,697.42L1410,698.469L1411.53,699.997L1413.2,699.997L1422,691.194L1422,661.321L1410.68,650ZM1418,686L1417.42,686L1408,695.42L1408,696L1408.59,696L1418,686.592L1418,686ZM1404.98,692.521L1412.6,684.893L1411.19,683.479L1403.56,691.107L1404.98,692.521ZM1401.56,689.935L1410.6,680.893L1409.19,679.479L1400.15,688.521L1401.56,689.935ZM1396,666C1401.52,666 1406,670.481 1406,676C1406,681.519 1401.52,686 1396,686C1390.48,686 1386,681.519 1386,676C1386,670.481 1390.48,666 1396,666ZM1402,673C1402,671.343 1400.66,670 1399,670C1397.17,670 1394.83,670 1393,670C1391.34,670 1390,671.343 1390,673C1390,674.832 1390,677.168 1390,679C1390,680.657 1391.34,682 1393,682C1394.83,682 1397.17,682 1399,682C1400.66,682 1402,680.657 1402,679C1402,677.168 1402,674.832 1402,673ZM1396,672C1398.21,672 1400,673.792 1400,676C1400,678.208 1398.21,680 1396,680C1393.79,680 1392,678.208 1392,676C1392,673.792 1393.79,672 1396,672ZM1391.02,661.565L1381.98,670.607L1383.39,672.021L1392.43,662.979L1391.02,661.565ZM1387.61,658.979L1379.98,666.607L1381.39,668.021L1389.02,660.393L1387.61,658.979ZM1386,654L1385.41,654L1376,663.408L1376,664L1376.58,664L1386,654.58L1386,654Z" style="fill:rgb(235,235,235);"/>
    </g>
</svg>
