<?xml version="1.0" encoding="UTF-8" standalone="no"?>
<!DOCTYPE svg PUBLIC "-//W3C//DTD SVG 1.1//EN" "http://www.w3.org/Graphics/SVG/1.1/DTD/svg11.dtd">
<svg width="100%" height="100%" viewBox="0 0 80 80" version="1.1" xmlns="http://www.w3.org/2000/svg" xmlns:xlink="http://www.w3.org/1999/xlink" xml:space="preserve" style="fill-rule:evenodd;clip-rule:evenodd;stroke-linejoin:round;stroke-miterlimit:1.41421;">
    <g transform="matrix(1,0,0,1,-1434,-634)">
        <path d="M1474,646C1489.45,646 1502,658.546 1502,674C1502,689.454 1489.45,702 1474,702C1458.55,702 1446,689.454 1446,674C1446,658.546 1458.55,646 1474,646ZM1448.08,676C1449.05,688.757 1459.24,698.952 1472,699.924L1472,697.918C1460.35,696.955 1451.05,687.652 1450.08,676L1448.08,676ZM1499.92,676L1497.92,676C1496.95,687.652 1487.65,696.955 1476,697.918L1476,699.924C1488.76,698.952 1498.95,688.757 1499.92,676ZM1461.03,687.882L1458.91,690.004C1462.4,693.291 1466.95,695.454 1472,695.91L1472,692.896C1467.78,692.454 1463.97,690.628 1461.03,687.882ZM1486.66,688.162C1483.77,690.752 1480.07,692.469 1476,692.896L1476,695.91C1480.9,695.468 1485.34,693.415 1488.79,690.285L1486.66,688.162ZM1476,690.883C1477.17,690.746 1478.31,690.489 1479.39,690.125L1476,681.936L1476,690.883ZM1468.1,689.945C1469.34,690.405 1470.64,690.724 1472,690.883L1472,681.829C1471.84,681.788 1471.68,681.741 1471.52,681.69L1468.1,689.945ZM1485.25,686.745L1478.91,680.413C1478.57,680.675 1478.21,680.911 1477.83,681.117L1481.25,689.379C1482.71,688.69 1484.05,687.8 1485.25,686.745ZM1462.45,686.467C1463.59,687.523 1464.87,688.424 1466.26,689.139L1469.7,680.841C1469.37,680.634 1469.06,680.403 1468.76,680.151L1462.45,686.467ZM1495.91,676L1492.9,676C1492.46,680.117 1490.72,683.844 1488.08,686.752L1490.2,688.875C1493.38,685.418 1495.46,680.944 1495.91,676ZM1452.09,676C1452.52,680.798 1454.5,685.154 1457.52,688.567L1459.64,686.441C1457.16,683.581 1455.52,679.972 1455.1,676L1452.09,676ZM1489.33,681.351L1481.06,677.924C1480.85,678.306 1480.61,678.668 1480.34,679.009L1486.66,685.336C1487.73,684.146 1488.63,682.806 1489.33,681.351ZM1458.57,681.148C1459.23,682.555 1460.07,683.857 1461.06,685.023L1467.41,678.674C1467.2,678.373 1467,678.056 1466.83,677.726L1458.57,681.148ZM1478.94,680.393L1478.94,680.393L1478.94,680.393L1478.94,680.393ZM1479.04,680.316L1479.04,680.316L1479.04,680.316L1479.04,680.316ZM1479.11,680.256L1479.11,680.257L1479.11,680.257L1479.11,680.256ZM1479.18,680.196L1479.18,680.197L1479.18,680.197L1479.18,680.196ZM1479.21,680.176L1479.2,680.178L1479.21,680.177L1479.21,680.176ZM1479.25,680.136L1479.25,680.136L1479.25,680.136L1479.25,680.136ZM1479.28,680.115L1479.28,680.117L1479.28,680.116L1479.28,680.115ZM1479.3,680.095L1479.3,680.095L1479.3,680.095L1479.3,680.095ZM1480,673.018C1479.53,670.129 1477.02,667.921 1474,667.921C1470.98,667.921 1468.47,670.129 1468,673.018L1468,674.982C1468.47,677.871 1470.98,680.079 1474,680.079C1477.02,680.079 1479.53,677.871 1480,674.982L1480,673.018ZM1479.35,680.052L1479.35,680.055L1479.35,680.054L1479.35,680.052ZM1479.37,680.032L1479.37,680.034L1479.37,680.033L1479.37,680.032ZM1479.42,679.99L1479.42,679.992L1479.42,679.991L1479.42,679.99ZM1479.44,679.969L1479.44,679.972L1479.44,679.97L1479.44,679.969ZM1479.51,679.905L1479.51,679.908L1479.51,679.906L1479.51,679.905ZM1479.53,679.884L1479.53,679.886L1479.53,679.885L1479.53,679.884ZM1479.58,679.841L1479.58,679.843L1479.58,679.842L1479.58,679.841ZM1479.6,679.819L1479.6,679.822L1479.6,679.82L1479.6,679.819ZM1479.67,679.754L1479.67,679.756L1479.67,679.755L1479.67,679.754ZM1479.74,679.688L1479.74,679.689L1479.74,679.688L1479.74,679.688ZM1479.76,679.666L1479.76,679.666L1479.76,679.666L1479.76,679.666ZM1479.82,679.599L1479.82,679.599L1479.82,679.599L1479.82,679.599ZM1468.13,679.546L1468.13,679.547L1468.13,679.546L1468.13,679.546ZM1490.88,676L1481.83,676L1481.81,676.069L1490.09,679.501C1490.47,678.382 1490.74,677.21 1490.88,676ZM1468.06,679.478L1468.06,679.478L1468.06,679.477L1468.06,679.478ZM1468.04,679.455L1468.04,679.455L1468.04,679.454L1468.04,679.455ZM1468,679.408L1468,679.408L1468,679.408L1468,679.408ZM1467.98,679.385L1467.98,679.386L1467.98,679.384L1467.98,679.385ZM1467.92,679.314L1467.92,679.316L1467.91,679.313L1467.92,679.314ZM1467.9,679.291L1467.9,679.292L1467.9,679.29L1467.9,679.291ZM1457.12,676C1457.25,677.133 1457.5,678.233 1457.84,679.287L1465.77,676L1457.12,676ZM1467.86,679.243L1467.86,679.244L1467.85,679.242L1467.86,679.243ZM1467.84,679.219L1467.84,679.221L1467.83,679.218L1467.84,679.219ZM1467.8,679.171L1467.8,679.172L1467.79,679.17L1467.8,679.171ZM1467.78,679.147L1467.78,679.149L1467.77,679.145L1467.78,679.147ZM1467.76,679.123L1467.76,679.125L1467.75,679.123L1467.76,679.123ZM1467.71,679.074L1467.72,679.076L1467.71,679.072L1467.71,679.074ZM1467.69,679.05L1467.7,679.052L1467.69,679.049L1467.69,679.05ZM1467.66,679.001L1467.66,679.002L1467.65,678.999L1467.66,679.001ZM1467.64,678.976L1467.64,678.979L1467.63,678.974L1467.64,678.976ZM1467.62,678.952L1467.62,678.952L1467.62,678.951L1467.62,678.952ZM1467.6,678.927L1467.6,678.927L1467.6,678.927L1467.6,678.927ZM1467.58,678.902L1467.58,678.904L1467.58,678.9L1467.58,678.902ZM1467.56,678.877L1467.56,678.879L1467.56,678.876L1467.56,678.877ZM1467.52,678.827L1467.52,678.828L1467.52,678.825L1467.52,678.827ZM1467.5,678.801L1467.51,678.804L1467.5,678.8L1467.5,678.801ZM1467.47,678.751L1467.47,678.751L1467.47,678.75L1467.47,678.751ZM1467.45,678.725L1467.45,678.727L1467.45,678.723L1467.45,678.725ZM1467.43,678.7L1467.43,678.702L1467.43,678.699L1467.43,678.7ZM1481.59,676.762L1481.59,676.762L1481.59,676.762L1481.59,676.762ZM1481.63,676.672L1481.62,676.674L1481.63,676.673L1481.63,676.672ZM1481.67,676.553L1481.67,676.555L1481.67,676.554L1481.67,676.553ZM1481.7,676.463L1481.7,676.465L1481.7,676.464L1481.7,676.463ZM1481.71,676.433L1481.7,676.435L1481.7,676.434L1481.71,676.433ZM1481.73,676.343L1481.73,676.344L1481.73,676.344L1481.73,676.343ZM1481.74,676.313L1481.74,676.313L1481.74,676.313L1481.74,676.313ZM1481.77,676.222L1481.77,676.223L1481.77,676.222L1481.77,676.222ZM1481.8,676.1L1481.8,676.1L1481.8,676.1L1481.8,676.1ZM1476,648.076L1476,650.082C1487.65,651.045 1496.95,660.348 1497.92,672L1499.92,672C1498.95,659.243 1488.76,649.048 1476,648.076ZM1490,658.911L1487.88,661.032C1490.63,663.971 1492.45,667.781 1492.9,672L1495.91,672C1495.45,666.953 1493.29,662.396 1490,658.911ZM1489.96,668.138L1481.7,671.561C1481.75,671.705 1481.79,671.852 1481.83,672L1490.88,672C1490.73,670.659 1490.41,669.366 1489.96,668.138ZM1472,648.076C1459.24,649.048 1449.05,659.243 1448.08,672L1450.08,672C1451.05,660.348 1460.35,651.045 1472,650.082L1472,648.076ZM1457.71,659.215C1454.59,662.659 1452.53,667.099 1452.09,672L1455.1,672C1455.53,667.926 1457.25,664.233 1459.84,661.338L1457.71,659.215ZM1457.96,668.35C1457.55,669.514 1457.27,670.736 1457.12,672L1466.17,672C1466.19,671.925 1466.21,671.851 1466.23,671.777L1457.96,668.35ZM1466.45,671.118L1466.45,671.119L1466.45,671.118L1466.45,671.118ZM1466.49,671.031L1466.49,671.031L1466.49,671.03L1466.49,671.031ZM1466.5,671.001L1466.5,671.003L1466.5,671.001L1466.5,671.001ZM1466.53,670.914L1466.53,670.916L1466.53,670.912L1466.53,670.914ZM1466.54,670.885L1466.54,670.887L1466.54,670.885L1466.54,670.885ZM1466.57,670.828L1466.57,670.829L1466.57,670.826L1466.57,670.828ZM1466.58,670.799L1466.58,670.801L1466.58,670.797L1466.58,670.799ZM1466.59,670.77L1466.59,670.772L1466.59,670.77L1466.59,670.77ZM1466.62,670.713L1466.62,670.715L1466.62,670.71L1466.62,670.713ZM1466.63,670.684L1466.63,670.688L1466.63,670.682L1466.63,670.684ZM1466.66,670.628L1466.66,670.628L1466.66,670.625L1466.66,670.628ZM1466.67,670.599L1466.67,670.602L1466.67,670.596L1466.67,670.599ZM1466.68,670.571L1466.68,670.574L1466.68,670.569L1466.68,670.571ZM1466.71,670.515L1466.71,670.516L1466.71,670.511L1466.71,670.515ZM1466.72,670.486L1466.72,670.49L1466.73,670.483L1466.72,670.486ZM1466.74,670.458L1466.74,670.461L1466.74,670.457L1466.74,670.458ZM1466.75,670.43L1466.75,670.431L1466.75,670.429L1466.75,670.43ZM1466.77,670.402L1466.76,670.405L1466.77,670.399L1466.77,670.402ZM1466.78,670.375L1466.78,670.379L1466.78,670.372L1466.78,670.375ZM1466.79,670.347L1466.79,670.348L1466.79,670.347L1466.79,670.347ZM1466.81,670.319L1466.81,670.32L1466.81,670.315L1466.81,670.319ZM1466.82,670.291L1466.82,670.295L1466.82,670.288L1466.82,670.291ZM1466.84,670.264L1466.83,670.268L1466.84,670.262L1466.84,670.264ZM1466.87,670.209L1466.86,670.211L1466.87,670.205L1466.87,670.209ZM1466.88,670.181L1466.88,670.185L1466.88,670.178L1466.88,670.181ZM1466.89,670.154L1466.89,670.157L1466.89,670.153L1466.89,670.154ZM1466.91,670.127L1466.91,670.127L1466.91,670.124L1466.91,670.127ZM1466.92,670.099L1466.92,670.102L1466.93,670.095L1466.92,670.099ZM1466.94,670.072L1466.94,670.076L1466.94,670.07L1466.94,670.072ZM1466.95,670.045L1466.95,670.046L1466.95,670.045L1466.95,670.045ZM1466.97,670.018L1466.97,670.019L1466.97,670.014L1466.97,670.018ZM1466.99,669.991L1466.98,669.994L1466.99,669.987L1466.99,669.991ZM1467,669.964L1467,669.968L1467,669.962L1467,669.964ZM1461.26,662.755C1460.26,663.882 1459.41,665.143 1458.74,666.506L1467.02,669.937C1467.19,669.642 1467.38,669.358 1467.59,669.087L1461.26,662.755ZM1486.47,662.447L1480.15,668.764C1480.41,669.071 1480.65,669.398 1480.87,669.743L1489.16,666.305C1488.44,664.895 1487.53,663.597 1486.47,662.447ZM1466.41,658.789C1465.04,659.471 1463.79,660.33 1462.66,661.336L1468.99,667.663C1469.26,667.449 1469.54,667.253 1469.84,667.074L1466.41,658.789ZM1478.9,667.579L1478.9,667.579L1478.9,667.579L1478.9,667.579ZM1478.83,667.522L1478.83,667.523L1478.83,667.522L1478.83,667.522ZM1478.8,667.503L1478.8,667.505L1478.8,667.504L1478.8,667.503ZM1478.72,667.447L1478.73,667.449L1478.73,667.448L1478.72,667.447ZM1478.7,667.429L1478.7,667.431L1478.7,667.43L1478.7,667.429ZM1481.11,658.554L1477.68,666.809C1478.03,666.987 1478.36,667.188 1478.67,667.411L1485.02,661.062C1483.85,660.057 1482.53,659.21 1481.11,658.554ZM1472,657.117C1470.7,657.27 1469.44,657.57 1468.24,658.001L1471.67,666.263C1471.78,666.23 1471.89,666.199 1472,666.171L1472,657.117ZM1476,665.65L1479.24,657.825C1478.2,657.488 1477.12,657.248 1476,657.117L1476,665.65ZM1472,652.09C1467.06,652.536 1462.58,654.621 1459.12,657.797L1461.25,659.92C1464.16,657.284 1467.88,655.536 1472,655.104L1472,652.09ZM1476,652.09L1476,655.104C1479.97,655.521 1483.58,657.162 1486.44,659.644L1488.57,657.519C1485.15,654.5 1480.8,652.523 1476,652.09Z" style="fill:rgb(235,235,235);"/>
    </g>
</svg>
