<?xml version="1.0" encoding="UTF-8" standalone="no"?>
<!DOCTYPE svg PUBLIC "-//W3C//DTD SVG 1.1//EN" "http://www.w3.org/Graphics/SVG/1.1/DTD/svg11.dtd">
<svg width="100%" height="100%" viewBox="0 0 80 80" version="1.1" xmlns="http://www.w3.org/2000/svg" xmlns:xlink="http://www.w3.org/1999/xlink" xml:space="preserve" style="fill-rule:evenodd;clip-rule:evenodd;stroke-linejoin:round;stroke-miterlimit:1.41421;">
    <g transform="matrix(1,0,0,1,-1434,-707)">
        <path d="M1444,728L1504,728L1504,734L1502,734L1456,734L1456,738.833C1458.31,739.842 1460.16,741.695 1461.17,744L1464.83,744C1466.38,740.469 1469.9,738 1474,738C1478.1,738 1481.62,740.469 1483.17,744L1486.83,744C1488.38,740.469 1491.9,738 1496,738C1501.52,738 1506,742.481 1506,748C1506,752.097 1503.53,755.622 1500,757.167L1500,760L1504,760L1504,766L1502,766L1446,766L1444,766L1444,760L1492,760L1492,757.167C1489.69,756.158 1487.84,754.305 1486.83,752L1483.17,752C1481.62,755.531 1478.1,758 1474,758C1469.9,758 1466.38,755.531 1464.83,752L1461.17,752C1459.62,755.531 1456.1,758 1452,758C1446.48,758 1442,753.519 1442,748C1442,743.903 1444.47,740.378 1448,738.833L1448,734L1446,734L1444,734L1444,728ZM1492,762L1446,762L1446,764L1502,764L1502,762L1500,762L1498,762L1494,762L1492,762ZM1498,757.8C1497.35,757.931 1496.68,758 1496,758C1495.32,758 1494.65,757.931 1494,757.8L1494,760L1498,760L1498,757.8ZM1452,740L1452,756C1456.41,756 1460,752.415 1460,748C1460,743.585 1456.41,740 1452,740ZM1476,740.252C1475.36,740.088 1474.69,740 1474,740C1473.31,740 1472.64,740.088 1472,740.252L1472,755.748C1472.64,755.912 1473.31,756 1474,756C1474.69,756 1475.36,755.912 1476,755.748L1476,740.252ZM1495.97,740C1491.57,740.014 1488,743.593 1488,748C1488,752.415 1491.59,756 1496,756L1496,740L1495.97,740ZM1498,740.252L1498,755.748C1501.45,754.858 1504,751.725 1504,748C1504,744.275 1501.45,741.142 1498,740.252ZM1450,740.252C1446.55,741.142 1444,744.275 1444,748C1444,751.725 1446.55,754.858 1450,755.748L1450,740.252ZM1470,741.072C1467.61,742.456 1466,745.041 1466,748C1466,750.959 1467.61,753.544 1470,754.928L1470,741.072ZM1478,741.072L1478,754.928C1480.39,753.544 1482,750.959 1482,748C1482,745.041 1480.39,742.456 1478,741.072ZM1486.2,746L1483.8,746C1483.93,746.646 1484,747.315 1484,748C1484,748.685 1483.93,749.354 1483.8,750L1486.2,750C1486.07,749.354 1486,748.685 1486,748C1486,747.315 1486.07,746.646 1486.2,746ZM1464.2,746L1461.8,746C1461.93,746.646 1462,747.315 1462,748C1462,748.685 1461.93,749.354 1461.8,750L1464.2,750C1464.07,749.354 1464,748.685 1464,748C1464,747.315 1464.07,746.646 1464.2,746ZM1454,738.2L1454,734L1450,734L1450,738.2C1450.65,738.069 1451.32,738 1452,738C1452.68,738 1453.35,738.069 1454,738.2ZM1446,730L1446,732L1502,732L1502,730L1446,730Z" style="fill:rgb(235,235,235);"/>
    </g>
</svg>
