<?xml version="1.0" encoding="UTF-8" standalone="no"?>
<!DOCTYPE svg PUBLIC "-//W3C//DTD SVG 1.1//EN" "http://www.w3.org/Graphics/SVG/1.1/DTD/svg11.dtd">
<svg width="100%" height="100%" viewBox="0 0 80 80" version="1.1" xmlns="http://www.w3.org/2000/svg" xmlns:xlink="http://www.w3.org/1999/xlink" xml:space="preserve" style="fill-rule:evenodd;clip-rule:evenodd;stroke-linejoin:round;stroke-miterlimit:1.41421;">
    <g transform="matrix(1,0,0,1,-1202,-709)">
        <path d="M1261,720L1261.03,720.067C1262.77,720.294 1264.4,721.089 1265.66,722.343C1266.16,722.842 1266.58,723.4 1266.93,724L1267,724L1267,724.062C1270.95,724.554 1274,727.92 1274,732L1274,754L1272,754L1272,758L1274,758L1274,770C1274,774.08 1270.95,777.446 1267,777.938L1267,778L1266,778L1218,778C1218,778 1217,778 1217,778L1217,777.938C1213.05,777.446 1210,774.08 1210,770L1210,768L1210,760L1210,758L1212,758L1212,754L1210,754L1210,752C1210,752 1210,736 1210,736C1210,736 1210,734 1210,734C1210,734 1210,732 1210,732C1210,727.92 1213.05,724.554 1217,724.062L1217,724L1219.07,724C1219.42,723.4 1219.84,722.842 1220.34,722.343C1221.84,720.843 1223.88,720 1226,720L1261,720ZM1271.91,770L1212.09,770C1212.55,772.863 1214.62,775.186 1217.35,776L1266.65,776C1269.38,775.186 1271.45,772.863 1271.91,770ZM1272,760L1270,760L1270,768L1272,768L1272,760ZM1214,760L1212,760L1212,768L1214,768L1214,760ZM1218,760L1216,760L1216,768L1218,768L1218,760ZM1226,760L1220,760L1220,768L1226,768L1226,760ZM1234,760L1228,760L1228,768L1234,768L1234,760ZM1248,760L1236,760L1236,768L1248,768L1248,760ZM1256,760L1250,760L1250,768L1256,768L1256,760ZM1264,760L1258,760L1258,768L1264,768L1264,760ZM1268,760L1266,760L1266,768L1268,768L1268,760ZM1270,754L1214,754L1214,758L1270,758L1270,754ZM1272,736L1270,736L1270,752L1272,752L1272,736ZM1214,736L1212,736L1212,752L1214,752L1214,736ZM1218,736L1216,736L1216,752L1218,752L1218,736ZM1226,736L1220,736L1220,752L1226,752L1226,736ZM1234,736L1228,736L1228,752L1234,752L1234,736ZM1248,736L1236,736L1236,752L1248,752L1248,736ZM1256,736L1250,736L1250,752L1256,752L1256,736ZM1264,736L1258,736L1258,752L1264,752L1264,736ZM1268,736L1266,736L1266,752L1268,752L1268,736ZM1266.65,726L1217.35,726C1214.26,726.924 1212,729.792 1212,733.187L1212,734L1272,734L1272,733.187C1272,729.792 1269.74,726.924 1266.65,726ZM1218,728L1226,728L1226,730L1224,730L1224,732L1216,732L1216,730L1218,730L1218,728ZM1244,728L1268,728L1268,730L1270,730L1270,732L1246,732L1246,730L1244,730L1244,728ZM1261.41,722L1224.59,722C1223.58,722.478 1222.68,723.163 1221.95,724L1264.05,724C1263.32,723.163 1262.42,722.478 1261.41,722Z" style="fill:rgb(235,235,235);"/>
    </g>
</svg>
