<?xml version="1.0" encoding="UTF-8" standalone="no"?>
<!DOCTYPE svg PUBLIC "-//W3C//DTD SVG 1.1//EN" "http://www.w3.org/Graphics/SVG/1.1/DTD/svg11.dtd">
<svg width="100%" height="100%" viewBox="0 0 80 80" version="1.1" xmlns="http://www.w3.org/2000/svg" xmlns:xlink="http://www.w3.org/1999/xlink" xml:space="preserve" style="fill-rule:evenodd;clip-rule:evenodd;stroke-linejoin:round;stroke-miterlimit:1.41421;">
    <g transform="matrix(1,0,0,1,-1280,-708.999)">
        <path d="M1300,772L1300,770L1306,770L1306,763.484L1304.52,762L1304,762L1304,736.486L1304,736.486L1304,736.485L1320,720.485L1320,719.994L1322,719.994L1322,720.446L1338.01,736.454L1338.01,736.455L1338.01,736.455L1338.01,754L1340,754L1340,745.994L1342,745.994L1342,746.542L1345.98,750.522L1345.99,750.522L1345.99,758.005L1346,758.005L1346,760.005L1340,760.005L1340,758.005L1340,756L1338.01,756L1338.01,761.969L1337.56,761.969L1334,765.524L1334,768L1336,768C1336,766.896 1336.9,766 1338,766L1350,766C1351.1,766 1352,766.896 1352,768L1352,772C1352,773.104 1351.1,774 1350,774L1338,774C1336.9,774 1336,773.104 1336,772L1336,770L1332,770L1332,768L1331.52,768L1322,777.523L1322,778.005L1320,778.005L1320,777.484L1308.52,766L1308,766L1308,770L1310,770L1310,776L1300,776L1300,774L1292,774L1292,768C1290.94,768 1289.92,767.579 1289.17,766.828C1288.42,766.078 1288,765.061 1288,764C1288,758.678 1288,749.322 1288,744C1288,742.939 1288.42,741.922 1289.17,741.172C1289.92,740.421 1290.94,740 1292,740L1296,740C1297.06,740 1298.08,740.421 1298.83,741.172C1299.58,741.922 1300,742.939 1300,744C1300,749.322 1300,758.678 1300,764C1300,765.061 1299.58,766.078 1298.83,766.828C1298.08,767.576 1297.07,767.997 1296.01,768L1296,768L1294,768L1294,772L1300,772ZM1332,751.543L1332,751.544L1322,761.54L1322,774.695L1336.01,760.686L1336.01,737.283L1322,723.274L1322,734.446L1332,744.444L1332,744.448L1332,744.448L1332,751.543L1332,751.543ZM1320,734.687L1320,723.313L1306,737.314L1306,760.655L1320,774.656L1320,761.274L1310.01,751.281L1310.01,751.281L1310.01,744.682L1310.01,744.682L1310.01,744.681L1320,734.687ZM1308,772L1302,772L1302,774L1308,774L1308,772ZM1349,768L1339,768C1338.45,768 1338,768.448 1338,769L1338,771C1338,771.552 1338.45,772 1339,772L1349,772C1349.55,772 1350,771.552 1350,771L1350,769C1350,768.448 1349.55,768 1349,768ZM1293,742C1291.34,742 1290,743.343 1290,745C1290,749.611 1290,758.389 1290,763C1290,764.657 1291.34,766 1293,766C1293.65,766 1294.35,766 1295,766L1295.01,766C1296.66,765.995 1298,764.654 1298,763C1298,758.389 1298,749.611 1298,745C1298,743.343 1296.66,742 1295,742L1293,742ZM1312.01,745.509L1312.01,750.452L1321.11,759.554L1330,750.663L1330,745.273L1321.12,736.395L1312.01,745.509ZM1342,749.37L1342,758.005L1343.99,758.005L1343.99,751.358L1342,749.37ZM1326.11,745C1326.11,743.343 1324.76,742 1323.11,742C1321.81,742 1320.3,742 1319,742C1317.34,742 1316,743.343 1316,745C1316,746.832 1316,749.168 1316,751C1316,752.657 1317.34,754 1319,754C1320.3,754 1321.81,754 1323.11,754C1324.76,754 1326.11,752.657 1326.11,751C1326.11,749.168 1326.11,746.832 1326.11,745ZM1324.11,746C1324.11,744.895 1323.21,744 1322.11,744C1321.43,744 1320.67,744 1320,744C1318.89,744 1318,744.895 1318,746C1318,747.222 1318,748.778 1318,750C1318,751.105 1318.89,752 1320,752C1320.67,752 1321.43,752 1322.11,752C1323.21,752 1324.11,751.105 1324.11,750C1324.11,748.778 1324.11,747.222 1324.11,746Z" style="fill:rgb(235,235,235);"/>
    </g>
</svg>
