<?xml version="1.0" encoding="UTF-8" standalone="no"?>
<!DOCTYPE svg PUBLIC "-//W3C//DTD SVG 1.1//EN" "http://www.w3.org/Graphics/SVG/1.1/DTD/svg11.dtd">
<svg width="100%" height="100%" viewBox="0 0 80 80" version="1.1" xmlns="http://www.w3.org/2000/svg" xmlns:xlink="http://www.w3.org/1999/xlink" xml:space="preserve" style="fill-rule:evenodd;clip-rule:evenodd;stroke-linejoin:round;stroke-miterlimit:1.41421;">
    <g transform="matrix(1,0,0,1,-574.998,-482.795)">
        <path d="M623.586,494L623.583,493.998L624.998,492.583L637.964,505.549L637.963,505.55L638.084,505.55L638.084,507L638.185,507C640.292,507 642,508.708 642,510.815C642,513.869 642,518.131 642,521.185C642,523.292 640.292,525 638.185,525L638.084,525L638.084,525.307L639.931,527.154L639.92,527.165L639.966,527.165L639.966,534.354L639.373,535L622.009,552.364L622,552.355L622,552.369L620.267,552.305L620,552.051L614.949,547L614.914,547L610.001,551.913L609.995,551.907L608.003,551.907L607.998,551.912L605.189,549.104L601.296,552.996L601.292,552.992L601.292,553L598.636,553L598.629,553.007L587.996,542.375L588.008,542.362L588,542.362L588,533.456L588.02,533.456L588.014,533.451L592,529.464L592,521.502L591.975,521.476L610.424,503.027L610.424,503.027L610.424,503.027L614.559,503.027L623.586,494ZM600,544.293L600,551.464L604,547.464L604,540.293L600,544.293ZM590,541.55L598,549.55L598,544.182L590,536.182L590,541.55ZM637.401,528.972L622,544.373L622,549.545L638,533.545L638,529.604L637.401,528.972ZM616,541L616,545.223L620,549.223L620,544.051L616.949,541L616,541ZM634.575,521.798L636,523.223L636,509.914L610,535.914L610,549.086L614,545.086L614,539.559L633.163,520.382L634.577,521.796L634.575,521.798ZM596,524.414L596,527.586L605.984,537.57L606,537.57L606,547.086L608,549.086L608,536.414L596,524.414ZM626,541L628,541L628,543L626,543L626,541ZM590.47,533.823L599.055,542.409L603.525,537.939L594.939,529.354L590.47,533.823ZM618,538.373L618,539.223L621.161,542.384L636,527.545L636,526.051L633.161,523.212L618,538.373ZM600.414,538L594.879,532.464L593.464,533.879L599,539.414L600.414,538ZM622,535L624,535L624,539L622,539L622,535ZM632,535L634,535L634,537L632,537L632,535ZM623.811,519.275L636,507.086L636,506.414L625,495.414L612.393,508.021L614.175,513.364L608.831,511.583L597.414,523L608.75,534.336L619.811,523.275L617.811,517.275L623.811,519.275ZM628,529L630,529L630,533L628,533L628,529ZM610,515C613.311,515 616,517.689 616,521C616,524.311 613.311,527 610,527C606.689,527 604,524.311 604,521C604,517.689 606.689,515 610,515ZM610,517C612.208,517 614,518.792 614,521C614,523.208 612.208,525 610,525C607.792,525 606,523.208 606,521C606,518.792 607.792,517 610,517ZM611.265,505L594,522.265L594,523.586L612.586,505L611.265,505ZM610,519C611.104,519 612,519.896 612,521C612,522.104 611.104,523 610,523C608.896,523 608,522.104 608,521C608,519.896 608.896,519 610,519ZM638.084,509.036L638.084,522.964C639.173,522.772 640,521.821 640,520.677C640,518.085 640,513.915 640,511.323C640,510.179 639.173,509.228 638.084,509.036ZM622,503C625.311,503 628,505.689 628,509C628,512.311 625.311,515 622,515C618.689,515 616,512.311 616,509C616,505.689 618.689,503 622,503ZM622,505C624.208,505 626,506.792 626,509C626,511.208 624.208,513 622,513C619.792,513 618,511.208 618,509C618,506.792 619.792,505 622,505ZM622,507C623.104,507 624,507.896 624,509C624,510.104 623.104,511 622,511C620.896,511 620,510.104 620,509C620,507.896 620.896,507 622,507Z" style="fill:rgb(216,216,216);"/>
    </g>
</svg>
