<?xml version="1.0" encoding="UTF-8" standalone="no"?>
<!DOCTYPE svg PUBLIC "-//W3C//DTD SVG 1.1//EN" "http://www.w3.org/Graphics/SVG/1.1/DTD/svg11.dtd">
<svg width="100%" height="100%" viewBox="0 0 80 80" version="1.1" xmlns="http://www.w3.org/2000/svg" xmlns:xlink="http://www.w3.org/1999/xlink" xml:space="preserve" style="fill-rule:evenodd;clip-rule:evenodd;stroke-linejoin:round;stroke-miterlimit:1.41421;">
    <g transform="matrix(1,0,0,1,-1356,-558)">
        <path d="M1379.03,592C1381.5,585.012 1388.17,580 1396,580C1403.83,580 1410.5,585.012 1412.97,592L1418,592L1418,594L1428,594L1428,596L1416,596L1416,594L1413.55,594C1413.85,595.287 1414,596.625 1414,598C1414,599.375 1413.85,600.713 1413.55,602L1416,602L1416,600L1428,600L1428,602L1418,602L1418,604L1412.97,604C1410.5,610.988 1403.83,616 1396,616C1388.17,616 1381.5,610.988 1379.03,604L1374,604L1374,602L1364,602L1364,600L1376,600L1376,602L1378.45,602C1378.15,600.713 1378,599.375 1378,598C1378,596.625 1378.15,595.287 1378.45,594L1376,594L1376,596L1364,596L1364,594L1374,594L1374,592L1379.03,592ZM1400,613.495L1400,604L1392,604L1392,613.495C1393.28,613.825 1394.62,614 1396,614C1397.38,614 1398.72,613.825 1400,613.495ZM1390,612.835L1390,604L1381.16,604C1382.79,608.008 1385.99,611.211 1390,612.835ZM1410.84,604L1402,604L1402,612.835C1406.01,611.211 1409.21,608.008 1410.84,604ZM1394,608L1396,608L1396,612L1394,612L1394,608ZM1396,606L1398,606L1398,608L1396,608L1396,606ZM1386,606L1388,606L1388,608L1386,608L1386,606ZM1380.51,602L1390,602L1390,594L1380.51,594C1380.17,595.279 1380,596.619 1380,598C1380,599.381 1380.17,600.721 1380.51,602ZM1392,594L1392,602L1400,602L1400,594L1392,594ZM1411.5,594L1402,594L1402,602L1411.5,602C1411.83,600.721 1412,599.381 1412,598C1412,596.619 1411.83,595.279 1411.5,594ZM1394,596L1398,596L1398,600L1394,600L1394,596ZM1404,596L1406,596L1406,598L1410,598L1410,600L1404,600L1404,596ZM1388,596L1388,600L1386,600L1386,598L1382,598L1382,596L1388,596ZM1390,583.165C1385.99,584.789 1382.79,587.992 1381.16,592L1390,592L1390,583.165ZM1400,582.505C1398.72,582.175 1397.38,582 1396,582C1394.62,582 1393.28,582.175 1392,582.505L1392,592L1400,592L1400,582.505ZM1402,583.165L1402,592L1410.84,592C1409.21,587.992 1406.01,584.789 1402,583.165ZM1404,588L1406,588L1406,590L1404,590L1404,588ZM1394,588L1396,588L1396,590L1394,590L1394,588ZM1396,584L1398,584L1398,588L1396,588L1396,584Z" style="fill:rgb(235,235,235);"/>
    </g>
</svg>
