<?xml version="1.0" encoding="UTF-8" standalone="no"?>
<!DOCTYPE svg PUBLIC "-//W3C//DTD SVG 1.1//EN" "http://www.w3.org/Graphics/SVG/1.1/DTD/svg11.dtd">
<svg width="100%" height="100%" viewBox="0 0 80 80" version="1.1" xmlns="http://www.w3.org/2000/svg" xmlns:xlink="http://www.w3.org/1999/xlink" xml:space="preserve" style="fill-rule:evenodd;clip-rule:evenodd;stroke-linejoin:round;stroke-miterlimit:1.41421;">
    <g transform="matrix(1,0,0,1,-1356,-708)">
        <path d="M1420,778L1424,778L1424,780L1420,780L1420,778ZM1368,778L1372,778L1372,780L1368,780L1368,778ZM1374,748L1376,748L1376,754L1378,754L1378,756L1376,756L1376,774L1387,774C1387,776.208 1388.79,778 1391,778L1401,778C1403.21,778 1405,776.208 1405,774L1416,774L1416,756L1414,756L1414,754L1416,754L1416,748L1418,748L1418,776L1406.9,776C1406.44,778.281 1404.42,780 1402,780L1390,780C1387.58,780 1385.56,778.281 1385.1,776L1374,776L1374,748ZM1368,768C1370.21,768 1372,769.792 1372,772C1372,774.208 1370.21,776 1368,776C1365.79,776 1364,774.208 1364,772C1364,769.792 1365.79,768 1368,768ZM1424,768C1426.21,768 1428,769.792 1428,772C1428,774.208 1426.21,776 1424,776C1421.79,776 1420,774.208 1420,772C1420,769.792 1421.79,768 1424,768ZM1390,774L1394,774L1394,776L1390,776L1390,774ZM1398,774L1402,774L1402,776L1398,776L1398,774ZM1368,770C1369.1,770 1370,770.896 1370,772C1370,773.104 1369.1,774 1368,774C1366.9,774 1366,773.104 1366,772C1366,770.896 1366.9,770 1368,770ZM1424,770C1425.1,770 1426,770.896 1426,772C1426,773.104 1425.1,774 1424,774C1422.9,774 1422,773.104 1422,772C1422,770.896 1422.9,770 1424,770ZM1407,772L1385,772C1381.14,772 1378,768.863 1378,765C1378,761.137 1381.14,758 1385,758L1407,758C1410.86,758 1414,761.137 1414,765C1414,768.863 1410.86,772 1407,772ZM1388,760L1388,770L1390,770L1390,760L1388,760ZM1392,760L1392,770L1400,770L1400,760L1392,760ZM1402,760L1402,770L1404,770L1404,760L1402,760ZM1386,770L1386,760L1385,760C1384.66,760 1384.32,760.035 1384,760.1L1384,769.9C1384.32,769.966 1384.66,770 1385,770L1386,770ZM1407,760L1406,760L1406,770L1407,770C1407.34,770 1407.68,769.966 1408,769.9L1408,760.1C1407.68,760.035 1407.34,760 1407,760ZM1382,761.001C1380.79,761.913 1380,763.366 1380,765C1380,766.634 1380.79,768.087 1382,768.999L1382,761.001ZM1410,761.001L1410,768.999C1411.21,768.087 1412,766.634 1412,765C1412,763.366 1411.21,761.913 1410,761.001ZM1428,750C1432.41,750 1436,753.585 1436,758C1436,762.415 1432.41,766 1428,766C1423.59,766 1420,762.415 1420,758C1420,753.585 1423.59,750 1428,750ZM1364,750C1368.41,750 1372,753.585 1372,758C1372,762.415 1368.41,766 1364,766C1359.59,766 1356,762.415 1356,758C1356,753.585 1359.59,750 1364,750ZM1428,752C1431.31,752 1434,754.689 1434,758C1434,761.311 1431.31,764 1428,764C1424.69,764 1422,761.311 1422,758C1422,754.689 1424.69,752 1428,752ZM1364,752C1367.31,752 1370,754.689 1370,758C1370,761.311 1367.31,764 1364,764C1360.69,764 1358,761.311 1358,758C1358,754.689 1360.69,752 1364,752ZM1428,754C1430.21,754 1432,755.792 1432,758C1432,760.208 1430.21,762 1428,762C1425.79,762 1424,760.208 1424,758C1424,755.792 1425.79,754 1428,754ZM1364,754C1366.21,754 1368,755.792 1368,758C1368,760.208 1366.21,762 1364,762C1361.79,762 1360,760.208 1360,758C1360,755.792 1361.79,754 1364,754ZM1404,752L1408,752L1408,756L1404,756L1404,752ZM1384,752L1388,752L1388,756L1384,756L1384,752ZM1396,738C1400.41,738 1404,741.585 1404,746C1404,750.415 1400.41,754 1396,754C1391.59,754 1388,750.415 1388,746C1388,741.585 1391.59,738 1396,738ZM1378,740L1380,740L1380,754L1378,754L1378,740ZM1414,754L1412,754L1412,740L1414,740L1414,754ZM1396,740C1399.31,740 1402,742.689 1402,746C1402,749.311 1399.31,752 1396,752C1392.69,752 1390,749.311 1390,746C1390,742.689 1392.69,740 1396,740ZM1396,742C1398.21,742 1400,743.792 1400,746C1400,748.208 1398.21,750 1396,750C1393.79,750 1392,748.208 1392,746C1392,743.792 1393.79,742 1396,742ZM1382,744L1386,744L1386,748L1382,748L1382,744ZM1406,744L1410,744L1410,748L1406,748L1406,744ZM1372,744L1374,744L1374,748L1372,748L1372,744ZM1420,748L1418,748L1418,744L1420,744L1420,748ZM1368,736L1370,736L1370,740L1372,740L1372,744L1370,744L1370,742L1364,742L1364,740L1368,740L1368,736ZM1374,740L1376,740L1376,744L1374,744L1374,740ZM1424,740L1428,740L1428,742L1422,742L1422,744L1420,744L1420,740L1422,740L1422,736L1424,736L1424,740ZM1418,744L1416,744L1416,740L1418,740L1418,744ZM1384,736L1388,736L1388,740L1384,740L1384,736ZM1404,736L1408,736L1408,740L1404,740L1404,736ZM1380,738L1382,738L1382,740L1380,740L1380,738ZM1372,738L1374,738L1374,740L1372,740L1372,738ZM1412,740L1410,740L1410,738L1412,738L1412,740ZM1420,740L1418,740L1418,738L1420,738L1420,740ZM1378,736L1380,736L1380,738L1378,738L1378,736ZM1374,736L1376,736L1376,738L1374,738L1374,736ZM1414,738L1412,738L1412,736L1414,736L1414,738ZM1418,738L1416,738L1416,736L1418,736L1418,738ZM1366,732L1368,732L1368,736L1366,736L1366,732ZM1376,734L1378,734L1378,736L1376,736L1376,734ZM1426,736L1424,736L1424,732L1426,732L1426,736ZM1416,736L1414,736L1414,734L1416,734L1416,736ZM1414,730L1413.33,730C1412.2,732.364 1409.79,734 1407,734L1385,734C1382.21,734 1379.8,732.364 1378.67,730L1378,730L1378,728L1414,728L1414,730ZM1372,728L1376,728L1376,730L1374,730L1374,732L1372,732L1372,734L1370,734L1370,730L1372,730L1372,728ZM1416,728L1420,728L1420,730L1422,730L1422,734L1420,734L1420,732L1418,732L1418,730L1416,730L1416,728ZM1381,730C1381.91,731.214 1383.37,732 1385,732L1407,732C1408.63,732 1410.09,731.214 1411,730L1381,730ZM1364,729L1364.02,729C1364.65,721.78 1378.74,716 1396,716C1413.26,716 1427.35,721.78 1427.98,729L1427.98,732L1426,732L1426,729L1425.97,729C1425.29,722.885 1412.12,718 1396,718C1379.88,718 1366.71,722.885 1366.03,729L1366,729L1366,732L1364,732L1364,729ZM1384,724L1388.1,724C1388.56,721.719 1390.58,720 1393,720L1399,720C1401.42,720 1403.44,721.719 1403.9,724L1408,724L1408,726L1384,726L1384,724ZM1390.54,724L1401.46,724C1400.77,722.805 1399.48,722 1398,722L1394,722C1392.52,722 1391.23,722.805 1390.54,724Z" style="fill:rgb(216,216,216);"/>
    </g>
</svg>
