<?xml version="1.0" encoding="UTF-8" standalone="no"?>
<!DOCTYPE svg PUBLIC "-//W3C//DTD SVG 1.1//EN" "http://www.w3.org/Graphics/SVG/1.1/DTD/svg11.dtd">
<svg width="100%" height="100%" viewBox="0 0 80 80" version="1.1" xmlns="http://www.w3.org/2000/svg" xmlns:xlink="http://www.w3.org/1999/xlink" xml:space="preserve" style="fill-rule:evenodd;clip-rule:evenodd;stroke-linejoin:round;stroke-miterlimit:1.41421;">
    <g transform="matrix(1,0,0,1,-1046.25,-632)">
        <path d="M1062,688L1056,688L1056,686L1054,686L1054,684L1056,684L1056,680L1054,680L1054,678L1056,678L1056,676L1054,676L1054,674L1056,674L1056,670L1054,670L1054,668L1056,668L1056,666L1054,666L1054,664L1056,664L1056,660L1054,660L1054,658L1056,658L1056,656L1062,656L1062,656.511L1089.09,663.426L1110,657.556L1110,656L1116,656L1116,658L1118.5,658L1118.5,660L1116,660L1116,664L1118.5,664L1118.5,666L1116,666L1116,668L1118.5,668L1118.5,670L1116,670L1116,674L1118.5,674L1118.5,676L1116,676L1116,678L1118.5,678L1118.5,680L1116,680L1116,684L1118.5,684L1118.5,686L1116,686L1116,688L1110,688L1110,685.76C1107.25,685.198 1099.49,683.717 1095.18,683.971C1089.52,684.304 1082.71,687.637 1077.02,687.971C1072.64,688.227 1064.77,686.74 1062,686.179L1062,688ZM1060,658L1058,658L1058,686L1060,686L1060,658ZM1114,658L1112,658L1112,686L1114,686L1114,658ZM1110,679.79C1107.25,679.227 1099.49,677.746 1095.18,678C1089.52,678.333 1082.71,681.667 1077.02,682C1072.64,682.256 1064.77,680.769 1062,680.208L1062,684.18C1064.76,684.742 1072.54,686.224 1076.87,685.971C1082.56,685.637 1089.46,682.304 1095.15,681.971C1099.47,681.717 1107.25,683.199 1110,683.761L1110,679.79ZM1063.97,678.595C1067.49,679.256 1073.34,680.207 1076.87,680C1082.56,679.667 1089.46,676.333 1095.15,676C1099.47,675.747 1107.25,677.228 1110,677.79L1110,676.827L1089.19,671.515L1063.97,678.595ZM1110,659.633L1062,673.109L1062,677.07L1110,663.594L1110,659.633ZM1110,670.827L1100.38,668.372L1093.04,670.433L1110,674.763L1110,670.827ZM1062,664.575L1062,671.031L1074.05,667.65L1062,664.575ZM1110,665.671L1104.23,667.291L1110,668.763L1110,665.671ZM1062,658.575L1062,662.511L1077.9,666.569L1085.24,664.507L1062,658.575Z" style="fill:rgb(235,235,235);"/>
    </g>
</svg>
