<?xml version="1.0" encoding="UTF-8" standalone="no"?>
<!DOCTYPE svg PUBLIC "-//W3C//DTD SVG 1.1//EN" "http://www.w3.org/Graphics/SVG/1.1/DTD/svg11.dtd">
<svg width="100%" height="100%" viewBox="0 0 80 80" version="1.1" xmlns="http://www.w3.org/2000/svg" xmlns:xlink="http://www.w3.org/1999/xlink" xml:space="preserve" style="fill-rule:evenodd;clip-rule:evenodd;stroke-linejoin:round;stroke-miterlimit:1.41421;">
    <g transform="matrix(1,0,0,1,-1591,-708)">
        <path d="M1624,780L1622,780L1622,764L1620,764L1620,760L1618,760L1618,758L1644,758L1644,760L1642,760L1642,764L1640,764L1640,780L1638,780L1638,764L1636,764L1636,780L1634,780L1634,764L1632,764L1632,760L1630,760L1630,764L1628,764L1628,780L1626,780L1626,764L1624,764L1624,780ZM1628,760L1622,760L1622,762L1628,762L1628,760ZM1640,762L1640,760L1634,760L1634,762L1640,762ZM1618,758L1616,758L1616,748L1612,748L1612,746C1609.67,746.333 1598,742 1598,742L1598,740C1598,740 1609.67,743.667 1612,744L1612,738C1609.67,738.333 1598,734 1598,734L1598,732C1598,732 1609.67,735.667 1612,736L1612,734L1616,734L1616,726L1618,726L1618,758ZM1646,758L1644,758L1644,726L1646,726L1646,734L1650,734L1650,736C1652.33,735.667 1664,732 1664,732L1664,734C1664,734 1652.33,738.333 1650,738L1650,744C1652.33,743.667 1664,740 1664,740L1664,742C1664,742 1652.33,746.333 1650,746L1650,748L1646,748L1646,758ZM1620,728L1630,728L1630,738L1636,738L1636,740L1630,740L1630,756L1628,756L1628,740L1620,740L1620,734L1622,734L1622,738L1628,738L1628,730L1620,730L1620,728ZM1620,742L1622,742L1622,754L1626,754L1626,756L1620,756L1620,742ZM1632,752L1634,752L1634,756L1632,756L1632,752ZM1636,752L1642,752L1642,754L1636,754L1636,752ZM1624,744L1626,744L1626,752L1624,752L1624,744ZM1632,746L1634,746L1634,750L1632,750L1632,746ZM1636,746L1638,746L1638,750L1636,750L1636,746ZM1640,746L1642,746L1642,750L1640,750L1640,746ZM1616,736L1614,736L1614,746L1616,746L1616,736ZM1648,746L1648,736L1646,736L1646,746L1648,746ZM1632,734L1642,734L1642,744L1632,744L1632,742L1640,742L1640,736L1632,736L1632,734ZM1634,730L1634,732L1632,732L1632,728L1642,728L1642,730L1638,730L1638,732L1636,732L1636,730L1634,730ZM1644,726L1618,726L1618,724L1624,724L1624,720L1626,720L1626,716L1628,716L1628,720L1634,720L1634,716L1636,716L1636,720L1638,720L1638,724L1644,724L1644,726ZM1636,722L1626,722L1626,724L1636,724L1636,722Z" style="fill:rgb(235,235,235);"/>
    </g>
</svg>
