<?xml version="1.0" encoding="UTF-8" standalone="no"?>
<!DOCTYPE svg PUBLIC "-//W3C//DTD SVG 1.1//EN" "http://www.w3.org/Graphics/SVG/1.1/DTD/svg11.dtd">
<svg width="100%" height="100%" viewBox="0 0 80 80" version="1.1" xmlns="http://www.w3.org/2000/svg" xmlns:xlink="http://www.w3.org/1999/xlink" xml:space="preserve" style="fill-rule:evenodd;clip-rule:evenodd;stroke-linejoin:round;stroke-miterlimit:1.41421;">
    <g transform="matrix(1,0,0,1,-1045,-708)">
        <path d="M1070,726L1068,726L1068,728L1074,728L1074,726L1072,726L1072,716L1074,716L1074,724L1076,724L1076,728L1078,728L1078,724L1080,724L1080,716L1082,716L1082,726L1080,726L1080,728L1086,728L1086,726L1084,726L1084,716L1086,716L1086,724L1088,724L1088,728L1090,728L1090,724L1092,724L1092,716L1094,716L1094,726L1092,726L1092,728L1098,728L1098,726L1096,726L1096,716L1098,716L1098,724L1100,724L1100,728L1106,728L1106,770L1098,770L1098,774L1096,774L1096,780L1094,780L1094,774L1088,774L1088,780L1086,780L1086,774L1084,774L1084,770L1064,770L1064,728L1066,728L1066,724L1068,724L1068,716L1070,716L1070,726ZM1096,770L1086,770L1086,772L1096,772L1096,770ZM1102,730L1068,730L1068,732L1066,732L1066,766L1068,766L1068,768L1102,768L1102,766L1104,766L1104,732L1102,732L1102,734L1100,734L1100,732L1102,732L1102,730ZM1070,766L1068,766L1068,764L1070,764L1070,766ZM1102,766L1100,766L1100,764L1102,764L1102,766ZM1100,764L1070,764L1070,734L1100,734L1100,764ZM1098,736L1072,736L1072,762L1098,762L1098,736ZM1089.4,739.841C1086.97,737.412 1083.03,737.412 1080.6,739.841C1079.08,741.367 1077.37,743.077 1075.84,744.603C1073.41,747.031 1073.41,750.969 1075.84,753.397C1077.37,754.923 1079.08,756.633 1080.6,758.159C1083.03,760.588 1086.97,760.588 1089.4,758.159C1090.92,756.633 1092.63,754.923 1094.16,753.397C1096.59,750.969 1096.59,747.031 1094.16,744.603C1092.63,743.077 1090.92,741.367 1089.4,739.841ZM1088.28,743.384C1086.47,741.571 1083.53,741.571 1081.72,743.384C1080.95,744.145 1080.14,744.955 1079.38,745.716C1077.57,747.53 1077.57,750.47 1079.38,752.284C1080.14,753.045 1080.95,753.855 1081.72,754.616C1083.53,756.429 1086.47,756.429 1088.28,754.616C1089.05,753.855 1089.86,753.045 1090.62,752.284C1092.43,750.47 1092.43,747.53 1090.62,745.716C1089.86,744.955 1089.05,744.145 1088.28,743.384ZM1085,743.929L1090.07,749L1085,754.071L1079.93,749L1085,743.929ZM1085,745.957L1081.96,749L1085,752.043L1088.04,749L1085,745.957ZM1070,734L1068,734L1068,732L1070,732L1070,734Z" style="fill:rgb(235,235,235);"/>
    </g>
</svg>
