<?xml version="1.0" encoding="UTF-8" standalone="no"?>
<!DOCTYPE svg PUBLIC "-//W3C//DTD SVG 1.1//EN" "http://www.w3.org/Graphics/SVG/1.1/DTD/svg11.dtd">
<svg width="100%" height="100%" viewBox="0 0 80 155" version="1.1" xmlns="http://www.w3.org/2000/svg" xmlns:xlink="http://www.w3.org/1999/xlink" xml:space="preserve" style="fill-rule:evenodd;clip-rule:evenodd;stroke-linecap:round;stroke-linejoin:round;stroke-miterlimit:1.5;">
    <g id="Short-Range-Probe" transform="matrix(6.12323e-17,-1,1,6.12323e-17,-69.1909,221.608)">
        <path d="M79,80.191L93,74L167,74L181,83L205,87L217,103L212,125L200,132L179,136L166,144L86,143L74,133L71,93L79,80.191Z"/>
        <g transform="matrix(0.5,-0.866025,0.385184,0.222386,50.226,200.626)">
            <rect x="158" y="76" width="2" height="67" style="fill:white;"/>
        </g>
        <rect x="158" y="76" width="2" height="67" style="fill:white;"/>
        <g transform="matrix(1,0,0,0.761194,26,26.1493)">
            <rect x="158" y="76" width="2" height="67" style="fill:white;"/>
        </g>
        <g transform="matrix(6.12323e-17,-1,0.395522,2.42188e-17,128.44,268.191)">
            <rect x="158" y="76" width="2" height="67" style="fill:white;"/>
        </g>
        <g transform="matrix(-0.258819,-0.965926,0.382045,-0.102369,171.068,287.982)">
            <rect x="158" y="76" width="2" height="67" style="fill:white;"/>
        </g>
        <g transform="matrix(-0.5,-0.866025,0.389771,-0.225035,209.07,293.242)">
            <rect x="158" y="76" width="2" height="67" style="fill:white;"/>
        </g>
        <g transform="matrix(0.258819,-0.965926,0.382045,0.102369,88.7638,237.564)">
            <rect x="158" y="76" width="2" height="67" style="fill:white;"/>
        </g>
        <g transform="matrix(0.947368,0,0,1,5.26316,0)">
            <ellipse cx="90.5" cy="90" rx="9.5" ry="3"/>
            <path d="M102.109,90.115L102.102,90.229L102.091,90.343L102.075,90.455L102.055,90.566L102.031,90.676L102.003,90.784L101.971,90.89L101.935,90.994L101.896,91.095L101.854,91.194L101.809,91.291L101.762,91.385L101.712,91.476L101.66,91.565L101.606,91.652L101.55,91.735L101.492,91.816L101.432,91.895L101.372,91.972L101.309,92.046L101.246,92.119L101.181,92.189L101.116,92.257L101.049,92.323L100.982,92.387L100.913,92.45L100.844,92.511L100.774,92.57L100.703,92.627L100.632,92.684L100.559,92.738L100.486,92.792L100.413,92.844L100.338,92.895L100.263,92.945L100.188,92.994L100.111,93.042L100.034,93.089L99.956,93.134L99.878,93.179L99.794,93.226L99.639,93.309L99.476,93.391L99.311,93.471L99.142,93.547L98.971,93.621L98.797,93.693L98.62,93.762L98.44,93.829L98.258,93.894L98.072,93.957L97.884,94.018L97.693,94.077L97.498,94.134L97.301,94.19L97.102,94.243L96.899,94.295L96.693,94.344L96.485,94.392L96.274,94.438L96.06,94.483L95.844,94.526L95.625,94.567L95.403,94.606L95.179,94.643L94.952,94.679L94.723,94.712L94.491,94.744L94.257,94.775L94.021,94.803L93.782,94.83L93.542,94.854L93.299,94.877L93.054,94.898L92.807,94.917L92.557,94.934L92.306,94.95L92.053,94.963L91.799,94.974L91.542,94.983L91.284,94.991L91.024,94.996L90.763,94.999L90.5,95L90.237,94.999L89.976,94.996L89.716,94.991L89.458,94.983L89.201,94.974L88.947,94.963L88.694,94.95L88.443,94.934L88.194,94.917L87.946,94.898L87.701,94.877L87.458,94.854L87.218,94.83L86.979,94.803L86.743,94.775L86.509,94.744L86.277,94.712L86.048,94.679L85.821,94.643L85.597,94.606L85.375,94.567L85.156,94.526L84.94,94.483L84.726,94.438L84.515,94.392L84.307,94.344L84.101,94.295L83.898,94.243L83.699,94.19L83.502,94.134L83.307,94.077L83.116,94.018L82.928,93.957L82.742,93.894L82.559,93.829L82.38,93.762L82.203,93.693L82.029,93.621L81.858,93.547L81.689,93.47L81.524,93.391L81.361,93.309L81.206,93.226L81.122,93.179L81.044,93.134L80.966,93.089L80.889,93.042L80.812,92.994L80.737,92.945L80.662,92.895L80.587,92.844L80.514,92.792L80.441,92.739L80.368,92.684L80.297,92.627L80.226,92.57L80.156,92.51L80.087,92.45L80.018,92.387L79.951,92.323L79.884,92.257L79.819,92.189L79.754,92.119L79.691,92.047L79.629,91.972L79.568,91.895L79.508,91.816L79.45,91.735L79.394,91.651L79.34,91.565L79.288,91.476L79.238,91.385L79.19,91.291L79.146,91.194L79.104,91.095L79.065,90.994L79.029,90.89L78.998,90.784L78.969,90.676L78.945,90.566L78.925,90.455L78.909,90.343L78.898,90.229L78.891,90.115L78.889,90L78.891,89.885L78.898,89.771L78.909,89.657L78.925,89.545L78.945,89.434L78.969,89.324L78.998,89.216L79.029,89.11L79.065,89.006L79.104,88.905L79.146,88.806L79.19,88.709L79.238,88.615L79.288,88.524L79.34,88.435L79.394,88.349L79.45,88.265L79.508,88.184L79.568,88.105L79.629,88.028L79.691,87.953L79.754,87.881L79.819,87.811L79.884,87.743L79.951,87.677L80.019,87.613L80.087,87.55L80.156,87.49L80.226,87.43L80.297,87.373L80.368,87.316L80.441,87.261L80.514,87.208L80.587,87.156L80.662,87.105L80.737,87.055L80.812,87.006L80.889,86.958L80.966,86.911L81.044,86.866L81.122,86.821L81.206,86.774L81.361,86.691L81.524,86.609L81.689,86.53L81.858,86.453L82.029,86.379L82.203,86.307L82.38,86.238L82.559,86.171L82.742,86.106L82.928,86.043L83.116,85.982L83.307,85.923L83.502,85.866L83.699,85.81L83.898,85.757L84.101,85.705L84.307,85.656L84.515,85.608L84.726,85.562L84.94,85.517L85.156,85.474L85.375,85.433L85.597,85.394L85.821,85.357L86.048,85.321L86.277,85.288L86.509,85.256L86.743,85.225L86.979,85.197L87.218,85.17L87.458,85.146L87.701,85.123L87.946,85.102L88.194,85.083L88.443,85.066L88.694,85.05L88.947,85.037L89.201,85.026L89.458,85.017L89.716,85.009L89.976,85.004L90.237,85.001L90.5,85L90.763,85.001L91.024,85.004L91.284,85.009L91.542,85.017L91.799,85.026L92.053,85.037L92.306,85.05L92.557,85.066L92.807,85.083L93.054,85.102L93.299,85.123L93.542,85.146L93.782,85.17L94.021,85.197L94.257,85.225L94.491,85.256L94.723,85.288L94.952,85.321L95.179,85.357L95.403,85.394L95.625,85.433L95.844,85.474L96.06,85.517L96.274,85.562L96.485,85.608L96.693,85.656L96.899,85.705L97.102,85.757L97.301,85.81L97.498,85.866L97.693,85.923L97.884,85.982L98.072,86.043L98.258,86.106L98.44,86.171L98.62,86.238L98.797,86.307L98.971,86.379L99.142,86.453L99.311,86.529L99.476,86.609L99.639,86.691L99.794,86.774L99.878,86.821L99.956,86.866L100.034,86.911L100.111,86.958L100.188,87.006L100.263,87.055L100.338,87.105L100.413,87.156L100.486,87.208L100.559,87.262L100.632,87.316L100.703,87.373L100.774,87.43L100.844,87.489L100.913,87.55L100.982,87.613L101.049,87.677L101.116,87.743L101.181,87.811L101.246,87.881L101.309,87.954L101.372,88.028L101.432,88.105L101.492,88.184L101.55,88.265L101.606,88.348L101.66,88.435L101.712,88.524L101.762,88.615L101.809,88.709L101.854,88.806L101.896,88.905L101.935,89.006L101.971,89.11L102.003,89.216L102.031,89.324L102.055,89.434L102.075,89.545L102.091,89.657L102.102,89.771L102.109,89.885L102.112,90L102.109,90.115ZM99.999,89.961L99.997,89.923L99.993,89.884L99.988,89.846L99.981,89.807L99.972,89.769L99.962,89.731L99.951,89.693L99.938,89.656L99.924,89.618L99.908,89.581L99.89,89.543L99.872,89.506L99.852,89.469L99.83,89.432L99.807,89.396L99.782,89.359L99.757,89.323L99.729,89.287L99.701,89.251L99.671,89.215L99.639,89.179L99.607,89.144L99.573,89.108L99.537,89.073L99.501,89.038L99.462,89.003L99.423,88.969L99.383,88.935L99.341,88.9L99.297,88.866L99.253,88.833L99.207,88.799L99.16,88.766L99.112,88.733L99.063,88.7L99.012,88.667L98.96,88.635L98.907,88.603L98.853,88.571L98.797,88.539L98.741,88.507L98.624,88.445L98.502,88.384L98.377,88.323L98.246,88.264L98.112,88.206L97.973,88.148L97.83,88.092L97.682,88.037L97.531,87.983L97.375,87.931L97.216,87.879L97.053,87.829L96.886,87.78L96.716,87.732L96.541,87.685L96.364,87.64L96.182,87.596L95.998,87.554L95.81,87.513L95.619,87.473L95.425,87.435L95.227,87.398L95.027,87.362L94.823,87.328L94.617,87.296L94.408,87.265L94.196,87.236L93.982,87.208L93.765,87.182L93.546,87.158L93.324,87.135L93.099,87.114L92.873,87.095L92.644,87.077L92.414,87.061L92.181,87.047L91.946,87.035L91.709,87.024L91.471,87.016L91.23,87.009L90.989,87.004L90.745,87.001L90.5,87L90.255,87.001L90.011,87.004L89.77,87.009L89.529,87.016L89.291,87.024L89.054,87.035L88.819,87.047L88.586,87.061L88.356,87.077L88.127,87.095L87.901,87.114L87.676,87.135L87.454,87.158L87.235,87.182L87.018,87.208L86.804,87.236L86.592,87.265L86.383,87.296L86.177,87.328L85.973,87.362L85.773,87.398L85.575,87.435L85.381,87.473L85.19,87.513L85.002,87.554L84.818,87.596L84.636,87.64L84.459,87.685L84.284,87.732L84.114,87.78L83.947,87.829L83.784,87.879L83.625,87.931L83.469,87.983L83.318,88.037L83.17,88.092L83.027,88.148L82.888,88.206L82.754,88.264L82.623,88.323L82.498,88.384L82.376,88.445L82.259,88.507L82.203,88.539L82.147,88.571L82.093,88.603L82.04,88.635L81.988,88.667L81.937,88.7L81.888,88.733L81.84,88.766L81.793,88.799L81.747,88.833L81.703,88.866L81.659,88.9L81.617,88.935L81.577,88.969L81.538,89.003L81.499,89.038L81.463,89.073L81.427,89.108L81.393,89.144L81.361,89.179L81.329,89.215L81.299,89.251L81.271,89.287L81.243,89.323L81.218,89.359L81.193,89.396L81.17,89.432L81.148,89.469L81.128,89.506L81.11,89.543L81.092,89.581L81.076,89.618L81.062,89.656L81.049,89.693L81.038,89.731L81.028,89.769L81.019,89.807L81.012,89.846L81.007,89.884L81.003,89.923L81.001,89.961L81,90L81.001,90.039L81.003,90.077L81.007,90.116L81.012,90.154L81.019,90.193L81.028,90.231L81.038,90.269L81.049,90.307L81.062,90.344L81.076,90.382L81.092,90.419L81.11,90.457L81.128,90.494L81.148,90.531L81.17,90.568L81.193,90.604L81.218,90.641L81.243,90.677L81.271,90.713L81.299,90.749L81.329,90.785L81.361,90.821L81.393,90.856L81.427,90.892L81.463,90.927L81.499,90.962L81.538,90.997L81.577,91.031L81.617,91.065L81.659,91.1L81.703,91.134L81.747,91.167L81.793,91.201L81.84,91.234L81.888,91.267L81.937,91.3L81.988,91.333L82.04,91.365L82.093,91.397L82.147,91.429L82.203,91.461L82.259,91.493L82.376,91.555L82.498,91.616L82.623,91.677L82.754,91.736L82.888,91.794L83.027,91.852L83.17,91.908L83.318,91.963L83.469,92.017L83.625,92.069L83.784,92.121L83.947,92.171L84.114,92.22L84.284,92.268L84.459,92.315L84.636,92.36L84.818,92.404L85.002,92.446L85.19,92.487L85.381,92.527L85.575,92.565L85.773,92.602L85.973,92.638L86.177,92.672L86.383,92.704L86.592,92.735L86.804,92.764L87.018,92.792L87.235,92.818L87.454,92.842L87.676,92.865L87.901,92.886L88.127,92.905L88.356,92.923L88.586,92.939L88.819,92.953L89.054,92.965L89.291,92.976L89.529,92.984L89.77,92.991L90.011,92.996L90.255,92.999L90.5,93L90.745,92.999L90.989,92.996L91.23,92.991L91.471,92.984L91.709,92.976L91.946,92.965L92.181,92.953L92.414,92.939L92.644,92.923L92.873,92.905L93.099,92.886L93.324,92.865L93.546,92.842L93.765,92.818L93.982,92.792L94.196,92.764L94.408,92.735L94.617,92.704L94.823,92.672L95.027,92.638L95.227,92.602L95.425,92.565L95.619,92.527L95.81,92.487L95.998,92.446L96.182,92.404L96.364,92.36L96.541,92.315L96.716,92.268L96.886,92.22L97.053,92.171L97.216,92.121L97.375,92.069L97.531,92.017L97.682,91.963L97.83,91.908L97.973,91.852L98.112,91.794L98.246,91.736L98.377,91.677L98.502,91.616L98.624,91.555L98.741,91.493L98.797,91.461L98.853,91.429L98.907,91.397L98.96,91.365L99.012,91.333L99.063,91.3L99.112,91.267L99.16,91.234L99.207,91.201L99.253,91.167L99.297,91.134L99.341,91.1L99.383,91.065L99.423,91.031L99.462,90.997L99.501,90.962L99.537,90.927L99.573,90.892L99.607,90.856L99.639,90.821L99.671,90.785L99.701,90.749L99.729,90.713L99.757,90.677L99.782,90.641L99.807,90.604L99.83,90.568L99.852,90.531L99.872,90.494L99.89,90.457L99.908,90.419L99.924,90.382L99.938,90.344L99.951,90.307L99.962,90.269L99.972,90.231L99.981,90.193L99.988,90.154L99.993,90.116L99.997,90.077L99.999,90.039L100,90L99.999,89.961Z" style="fill:white;"/>
        </g>
        <g transform="matrix(0.947368,0,0,1,5.26316,39)">
            <ellipse cx="90.5" cy="90" rx="9.5" ry="3"/>
            <path d="M102.109,90.115L102.102,90.229L102.091,90.343L102.075,90.455L102.055,90.567L102.031,90.676L102.003,90.784L101.971,90.89L101.935,90.994L101.896,91.095L101.854,91.194L101.809,91.291L101.762,91.385L101.712,91.476L101.66,91.565L101.606,91.652L101.55,91.735L101.492,91.816L101.432,91.895L101.372,91.972L101.309,92.046L101.246,92.119L101.181,92.189L101.116,92.257L101.049,92.323L100.982,92.387L100.913,92.45L100.844,92.511L100.774,92.57L100.703,92.627L100.632,92.684L100.559,92.738L100.486,92.792L100.413,92.844L100.338,92.895L100.263,92.945L100.188,92.994L100.111,93.042L100.034,93.089L99.956,93.134L99.878,93.179L99.794,93.226L99.639,93.309L99.476,93.391L99.311,93.471L99.142,93.547L98.971,93.621L98.797,93.693L98.62,93.762L98.44,93.829L98.258,93.894L98.072,93.957L97.884,94.018L97.693,94.077L97.498,94.134L97.301,94.19L97.102,94.243L96.899,94.295L96.693,94.344L96.485,94.392L96.274,94.438L96.06,94.483L95.844,94.526L95.625,94.567L95.403,94.606L95.179,94.643L94.952,94.679L94.723,94.712L94.491,94.744L94.257,94.775L94.021,94.803L93.782,94.83L93.542,94.854L93.299,94.877L93.054,94.898L92.806,94.917L92.557,94.934L92.306,94.95L92.053,94.963L91.799,94.974L91.542,94.983L91.284,94.991L91.024,94.996L90.763,94.999L90.5,95L90.237,94.999L89.976,94.996L89.716,94.991L89.458,94.983L89.201,94.974L88.947,94.963L88.694,94.95L88.443,94.934L88.194,94.917L87.946,94.898L87.701,94.877L87.458,94.854L87.218,94.83L86.979,94.803L86.743,94.775L86.509,94.744L86.277,94.712L86.048,94.679L85.821,94.643L85.597,94.606L85.375,94.567L85.156,94.526L84.94,94.483L84.726,94.438L84.515,94.392L84.307,94.344L84.101,94.295L83.898,94.243L83.699,94.19L83.502,94.134L83.307,94.077L83.116,94.018L82.928,93.957L82.742,93.894L82.56,93.829L82.38,93.762L82.203,93.693L82.029,93.621L81.858,93.547L81.689,93.47L81.524,93.391L81.361,93.309L81.206,93.226L81.122,93.179L81.044,93.134L80.966,93.089L80.889,93.042L80.812,92.994L80.737,92.945L80.662,92.895L80.587,92.844L80.514,92.792L80.441,92.738L80.368,92.684L80.297,92.627L80.226,92.57L80.156,92.51L80.087,92.45L80.018,92.387L79.951,92.323L79.884,92.257L79.819,92.189L79.754,92.119L79.691,92.047L79.629,91.972L79.568,91.895L79.508,91.816L79.45,91.735L79.394,91.651L79.34,91.565L79.288,91.476L79.238,91.384L79.19,91.291L79.146,91.194L79.104,91.095L79.065,90.994L79.029,90.89L78.998,90.784L78.969,90.676L78.945,90.567L78.925,90.455L78.909,90.343L78.898,90.229L78.891,90.115L78.889,90L78.891,89.885L78.898,89.771L78.909,89.657L78.925,89.545L78.945,89.433L78.969,89.324L78.998,89.216L79.029,89.11L79.065,89.006L79.104,88.905L79.146,88.806L79.19,88.709L79.238,88.615L79.288,88.524L79.34,88.435L79.394,88.349L79.45,88.265L79.508,88.184L79.568,88.105L79.629,88.028L79.691,87.954L79.754,87.881L79.819,87.811L79.884,87.743L79.951,87.677L80.018,87.613L80.087,87.55L80.156,87.49L80.226,87.43L80.297,87.373L80.368,87.316L80.441,87.261L80.514,87.208L80.587,87.156L80.662,87.105L80.737,87.055L80.812,87.006L80.889,86.958L80.966,86.911L81.044,86.866L81.122,86.821L81.206,86.774L81.361,86.691L81.524,86.609L81.689,86.53L81.858,86.453L82.029,86.379L82.203,86.307L82.38,86.238L82.559,86.171L82.742,86.106L82.928,86.043L83.116,85.982L83.307,85.923L83.502,85.866L83.699,85.81L83.898,85.757L84.101,85.705L84.307,85.656L84.515,85.608L84.726,85.562L84.94,85.517L85.156,85.474L85.375,85.433L85.597,85.394L85.821,85.357L86.048,85.321L86.277,85.288L86.509,85.256L86.743,85.225L86.979,85.197L87.218,85.17L87.458,85.146L87.701,85.123L87.946,85.102L88.194,85.083L88.443,85.066L88.694,85.05L88.947,85.037L89.201,85.026L89.458,85.017L89.716,85.009L89.976,85.004L90.237,85.001L90.5,85L90.763,85.001L91.024,85.004L91.284,85.009L91.542,85.017L91.799,85.026L92.053,85.037L92.306,85.05L92.557,85.066L92.807,85.083L93.054,85.102L93.299,85.123L93.542,85.146L93.782,85.17L94.021,85.197L94.257,85.225L94.491,85.256L94.723,85.288L94.952,85.321L95.179,85.357L95.403,85.394L95.625,85.433L95.844,85.474L96.06,85.517L96.274,85.562L96.485,85.608L96.693,85.656L96.899,85.705L97.102,85.757L97.301,85.81L97.498,85.866L97.693,85.923L97.884,85.982L98.072,86.043L98.258,86.106L98.441,86.171L98.62,86.238L98.797,86.307L98.971,86.379L99.142,86.453L99.311,86.529L99.476,86.609L99.639,86.691L99.794,86.774L99.878,86.821L99.956,86.866L100.034,86.911L100.111,86.958L100.188,87.006L100.263,87.055L100.338,87.105L100.413,87.156L100.486,87.208L100.559,87.262L100.632,87.316L100.703,87.373L100.774,87.43L100.844,87.489L100.913,87.55L100.982,87.613L101.049,87.677L101.116,87.743L101.181,87.811L101.246,87.881L101.309,87.954L101.372,88.028L101.432,88.105L101.492,88.184L101.55,88.265L101.606,88.348L101.66,88.435L101.712,88.524L101.762,88.615L101.809,88.709L101.854,88.806L101.896,88.905L101.935,89.006L101.971,89.11L102.003,89.216L102.031,89.324L102.055,89.433L102.075,89.545L102.091,89.657L102.102,89.771L102.109,89.885L102.112,90L102.109,90.115ZM99.999,89.961L99.997,89.923L99.993,89.884L99.988,89.846L99.981,89.807L99.972,89.769L99.962,89.731L99.951,89.693L99.938,89.656L99.924,89.618L99.908,89.581L99.89,89.543L99.872,89.506L99.852,89.469L99.83,89.432L99.807,89.396L99.782,89.359L99.757,89.323L99.729,89.287L99.701,89.251L99.671,89.215L99.639,89.179L99.607,89.144L99.573,89.108L99.537,89.073L99.501,89.038L99.462,89.003L99.423,88.969L99.383,88.935L99.341,88.9L99.297,88.866L99.253,88.833L99.207,88.799L99.16,88.766L99.112,88.733L99.063,88.7L99.012,88.667L98.96,88.635L98.907,88.603L98.853,88.571L98.797,88.539L98.741,88.507L98.624,88.445L98.502,88.384L98.377,88.323L98.246,88.264L98.112,88.206L97.973,88.148L97.83,88.092L97.682,88.037L97.531,87.983L97.375,87.931L97.216,87.879L97.053,87.829L96.886,87.78L96.716,87.732L96.541,87.685L96.364,87.64L96.182,87.596L95.998,87.554L95.81,87.513L95.619,87.473L95.425,87.435L95.227,87.398L95.027,87.362L94.823,87.328L94.617,87.296L94.408,87.265L94.196,87.236L93.982,87.208L93.765,87.182L93.546,87.158L93.324,87.135L93.099,87.114L92.873,87.095L92.644,87.077L92.414,87.061L92.181,87.047L91.946,87.035L91.709,87.024L91.471,87.016L91.23,87.009L90.989,87.004L90.745,87.001L90.5,87L90.255,87.001L90.011,87.004L89.77,87.009L89.529,87.016L89.291,87.024L89.054,87.035L88.819,87.047L88.586,87.061L88.356,87.077L88.127,87.095L87.901,87.114L87.676,87.135L87.454,87.158L87.235,87.182L87.018,87.208L86.804,87.236L86.592,87.265L86.383,87.296L86.177,87.328L85.973,87.362L85.773,87.398L85.575,87.435L85.381,87.473L85.19,87.513L85.002,87.554L84.818,87.596L84.636,87.64L84.459,87.685L84.284,87.732L84.114,87.78L83.947,87.829L83.784,87.879L83.625,87.931L83.469,87.983L83.318,88.037L83.17,88.092L83.027,88.148L82.888,88.206L82.754,88.264L82.623,88.323L82.498,88.384L82.376,88.445L82.259,88.507L82.203,88.539L82.147,88.571L82.093,88.603L82.04,88.635L81.988,88.667L81.937,88.7L81.888,88.733L81.84,88.766L81.793,88.799L81.747,88.833L81.703,88.866L81.659,88.9L81.617,88.935L81.577,88.969L81.538,89.003L81.499,89.038L81.463,89.073L81.427,89.108L81.393,89.144L81.361,89.179L81.329,89.215L81.299,89.251L81.271,89.287L81.243,89.323L81.218,89.359L81.193,89.396L81.17,89.432L81.148,89.469L81.128,89.506L81.11,89.543L81.092,89.581L81.076,89.618L81.062,89.656L81.049,89.693L81.038,89.731L81.028,89.769L81.019,89.807L81.012,89.846L81.007,89.884L81.003,89.923L81.001,89.961L81,90L81.001,90.039L81.003,90.077L81.007,90.116L81.012,90.154L81.019,90.193L81.028,90.231L81.038,90.269L81.049,90.307L81.062,90.344L81.076,90.382L81.092,90.419L81.11,90.457L81.128,90.494L81.148,90.531L81.17,90.568L81.193,90.604L81.218,90.641L81.243,90.677L81.271,90.713L81.299,90.749L81.329,90.785L81.361,90.821L81.393,90.856L81.427,90.892L81.463,90.927L81.499,90.962L81.538,90.997L81.577,91.031L81.617,91.065L81.659,91.1L81.703,91.134L81.747,91.167L81.793,91.201L81.84,91.234L81.888,91.267L81.937,91.3L81.988,91.333L82.04,91.365L82.093,91.397L82.147,91.429L82.203,91.461L82.259,91.493L82.376,91.555L82.498,91.616L82.623,91.677L82.754,91.736L82.888,91.794L83.027,91.852L83.17,91.908L83.318,91.963L83.469,92.017L83.625,92.069L83.784,92.121L83.947,92.171L84.114,92.22L84.284,92.268L84.459,92.315L84.636,92.36L84.818,92.404L85.002,92.446L85.19,92.487L85.381,92.527L85.575,92.565L85.773,92.602L85.973,92.638L86.177,92.672L86.383,92.704L86.592,92.735L86.804,92.764L87.018,92.792L87.235,92.818L87.454,92.842L87.676,92.865L87.901,92.886L88.127,92.905L88.356,92.923L88.586,92.939L88.819,92.953L89.054,92.965L89.291,92.976L89.529,92.984L89.77,92.991L90.011,92.996L90.255,92.999L90.5,93L90.745,92.999L90.989,92.996L91.23,92.991L91.471,92.984L91.709,92.976L91.946,92.965L92.181,92.953L92.414,92.939L92.644,92.923L92.873,92.905L93.099,92.886L93.324,92.865L93.546,92.842L93.765,92.818L93.982,92.792L94.196,92.764L94.408,92.735L94.617,92.704L94.823,92.672L95.027,92.638L95.227,92.602L95.425,92.565L95.619,92.527L95.81,92.487L95.998,92.446L96.182,92.404L96.364,92.36L96.541,92.315L96.716,92.268L96.886,92.22L97.053,92.171L97.216,92.121L97.375,92.069L97.531,92.017L97.682,91.963L97.83,91.908L97.973,91.852L98.112,91.794L98.246,91.736L98.377,91.677L98.502,91.616L98.624,91.555L98.741,91.493L98.797,91.461L98.853,91.429L98.907,91.397L98.96,91.365L99.012,91.333L99.063,91.3L99.112,91.267L99.16,91.234L99.207,91.201L99.253,91.167L99.297,91.134L99.341,91.1L99.383,91.065L99.423,91.031L99.462,90.997L99.501,90.962L99.537,90.927L99.573,90.892L99.607,90.856L99.639,90.821L99.671,90.785L99.701,90.749L99.729,90.713L99.757,90.677L99.782,90.641L99.807,90.604L99.83,90.568L99.852,90.531L99.872,90.494L99.89,90.457L99.908,90.419L99.924,90.382L99.938,90.344L99.951,90.307L99.962,90.269L99.972,90.231L99.981,90.193L99.988,90.154L99.993,90.116L99.997,90.077L99.999,90.039L100,90L99.999,89.961Z" style="fill:white;"/>
        </g>
        <path d="M68,109.191C68,109.191 68,103.22 68,96C68,82.193 79.193,71 93,71L166,71C171.205,70.998 181.541,80.607 186.034,80.604C194.797,80.598 220.321,83.024 220.216,109.191C220.321,135.358 194.797,137.784 186.034,137.778C181.542,137.775 171.206,147.383 166,147.382L93,147.382C79.193,147.382 68,136.189 68,122.382L68,109.191ZM73.957,109.191L73.957,120.309C73.957,131.947 83.391,141.382 95.029,141.382L162.561,141.382C166.948,141.384 175.66,133.284 179.447,133.287C186.833,133.292 214.347,131.247 214.259,109.191C214.347,87.135 186.833,85.09 179.447,85.095C175.66,85.098 166.948,76.998 162.561,77L95.029,77C83.391,77 73.957,86.435 73.957,98.072C73.957,104.158 73.957,109.191 73.957,109.191Z" style="fill:rgb(235,235,235);"/>
        <path d="M127,96.76C117.452,97.418 110,102.736 110,109.191C110,115.645 117.452,120.964 127,121.622L127,138.191L111,138.191C111,138.191 106.382,125.569 101.549,121.43C96.716,117.29 82,113.354 82,113.354L82,105.027C82,105.027 96.716,101.092 101.549,96.952C106.382,92.813 111,80.191 111,80.191L127,80.191L127,96.76ZM155,138.191L131,138.191L131,121.622C140.548,120.964 148,115.645 148,109.191C148,102.736 140.548,97.418 131,96.76L131,80.191L155,80.191L155,138.191Z" style="fill:none;stroke:white;stroke-width:2px;"/>
    </g>
</svg>
