<?xml version="1.0" standalone="no"?>
<!DOCTYPE svg PUBLIC "-//W3C//DTD SVG 1.1//EN" "http://www.w3.org/Graphics/SVG/1.1/DTD/svg11.dtd">
<svg width="32px" height="32px" version="1.1" xmlns="http://www.w3.org/2000/svg" xmlns:xlink="http://www.w3.org/1999/xlink" xml:space="preserve" style="fill-rule:evenodd;clip-rule:evenodd;stroke-linejoin:round;stroke-miterlimit:1.41421;">
    <g>
        <g>
            <path d="M2.82326,16C2.82326,8.7264 8.71967,2.82999 15.9933,2.82999L16.0194,2.83263L16.0194,16L29.1633,16C28.6358,23.7866 22.9432,29.17 15.9933,29.17L15.9933,16L2.82326,16Z" style="fill:rgb(0,225,0);"/>
        </g>
        <path d="M16.9956,29.2081L16.9956,32L14.991,32L14.991,29.2081C8.34513,28.3742 3.55308,23.5899 2.78513,17.0023L-0.00672935,17.0023L-0.00672935,14.9977L2.78513,14.9977C3.61904,8.35186 8.40341,3.55981 14.991,2.79186L14.991,0L16.9956,0L16.9956,2.79186C23.6414,3.62577 28.4335,8.41014 29.2014,14.9977L31.9933,14.9977L31.9933,17.0023L29.2014,17.0023C28.3675,23.6481 23.5831,28.4402 16.9956,29.2081ZM27.5045,17.0023L16.9956,17.0023L16.9956,27.5112C22.7336,26.564 26.6519,22.6691 27.5045,17.0023ZM14.991,27.5112L14.991,17.0023L4.48203,17.0023C5.42923,22.7403 9.32414,26.6586 14.991,27.5112ZM4.48203,14.9977L14.991,14.9977L14.991,4.48876C9.25299,5.43596 5.33467,9.33087 4.48203,14.9977ZM16.9956,4.48876L16.9956,14.9977L27.5045,14.9977C26.5573,9.25972 22.6624,5.3414 16.9956,4.48876Z" style="fill:rgb(0,235,0);"/>
    </g>
</svg>
