<?xml version="1.0" encoding="UTF-8" standalone="no"?><!DOCTYPE svg PUBLIC "-//W3C//DTD SVG 1.1//EN" "http://www.w3.org/Graphics/SVG/1.1/DTD/svg11.dtd"><svg width="100%" height="100%" viewBox="0 0 261 153" version="1.1" xmlns="http://www.w3.org/2000/svg" xmlns:xlink="http://www.w3.org/1999/xlink" xml:space="preserve" xmlns:serif="http://www.serif.com/" style="fill-rule:evenodd;clip-rule:evenodd;stroke-linecap:round;stroke-linejoin:round;stroke-miterlimit:1.5;"><g id="Crystal"><g><path d="M117.371,8.784l24.518,0l4.769,4.769l32.331,0l23.184,21.456l-14.096,11.102l-35.251,-0.187l-6.168,10.399l-4.618,0.985l-24.669,-0.161l-5.534,5.55l-56.098,-0.013l-46.474,-26.764l32.947,-32.67l69.625,0l5.534,5.534Z" style="fill:#9bb6ff;fill-opacity:0.419608;"/><path d="M117.371,8.784l24.518,0l4.769,4.769l32.331,0l23.184,21.456l-14.096,11.102l-35.251,-0.187l-6.168,10.399l-4.618,0.985l-24.669,-0.161l-5.534,5.55l-56.098,-0.013l-46.474,-26.764l32.947,-32.67l69.625,0l5.534,5.534Zm-75.06,-5.294l-32.653,32.379l46.145,26.575l55.935,0.013l5.463,-5.479l0.078,-0.053l0.093,-0.018l24.643,0.161l4.491,-0.958l6.113,-10.308l0.054,-0.063l0.072,-0.041l0.082,-0.014l35.167,0.186l13.81,-10.876l-22.909,-21.201l-32.237,0l-0.091,-0.018l-0.078,-0.052l-4.699,-4.699l-24.419,0l-0.092,-0.019l-0.078,-0.052l-5.463,-5.463l-69.427,0Z" style="fill:#9d63ff;"/></g><path d="M141.801,14.454l4.692,4.692l0.53,0" style="fill:none;stroke:#9d69fb;stroke-width:0.24px;"/><path d="M149.064,19.146l0.987,0" style="fill:none;stroke:#9d69fb;stroke-width:0.24px;"/><path d="M151.349,19.146l10.251,0" style="fill:none;stroke:#9d69fb;stroke-width:0.24px;"/><path d="M162.837,19.146l15.615,0l4.927,3.508" style="fill:none;stroke:#9d69fb;stroke-width:0.24px;"/><path d="M185.426,24.186l3.841,2.631" style="fill:none;stroke:#9d69fb;stroke-width:0.24px;"/><path d="M189.267,30.026l9.133,2.109" style="fill:none;stroke:#9d69fb;stroke-width:0.24px;"/><path d="M197.326,31.08l-5.574,-2.882" style="fill:none;stroke:#9d69fb;stroke-width:0.24px;"/><path d="M182.991,28.198l4.002,0.779" style="fill:none;stroke:#9d69fb;stroke-width:0.24px;"/><path d="M178.603,14.032l0,12.282" style="fill:none;stroke:#9d69fb;stroke-width:0.24px;"/><path d="M14.95,37.497l21.663,10.468" style="fill:none;stroke:#9d69fb;stroke-width:0.24px;"/><path d="M39.231,49.399l8.365,3.737" style="fill:none;stroke:#9d69fb;stroke-width:0.24px;"/><path d="M49.217,54.087l5.908,2.999l3.989,0.019" style="fill:none;stroke:#9d69fb;stroke-width:0.24px;"/><path d="M60.875,57.105l1.643,0" style="fill:none;stroke:#9d69fb;stroke-width:0.24px;"/><path d="M64.878,57.105l10.704,0" style="fill:none;stroke:#9d69fb;stroke-width:0.24px;"/><path d="M78.241,57.105l32.86,0l4.755,-4.756" style="fill:none;stroke:#9d69fb;stroke-width:0.24px;"/><path d="M116.951,51.267l17.915,0" style="fill:none;stroke:#9d69fb;stroke-width:0.24px;"/><path d="M116.951,47.678l0,3.589" style="fill:none;stroke:#9d69fb;stroke-width:0.24px;"/><path d="M116.951,57.105l0,-4.002" style="fill:none;stroke:#9d69fb;stroke-width:0.24px;"/><path d="M111.212,62.346l0.018,-3.761" style="fill:none;stroke:#9d69fb;stroke-width:0.24px;"/><path d="M111.221,57.105l0.009,-7.632" style="fill:none;stroke:#9d69fb;stroke-width:0.24px;"/><path d="M22.979,38.529l13.686,3.171" style="fill:none;stroke:#9d69fb;stroke-width:0.24px;"/><path d="M57.912,45.676l-6.539,0l-12.257,-3.066" style="fill:none;stroke:#9d69fb;stroke-width:0.24px;"/><path d="M60.449,45.676l4.368,0" style="fill:none;stroke:#9d69fb;stroke-width:0.24px;"/><path d="M67.118,45.676l9.216,0" style="fill:none;stroke:#9d69fb;stroke-width:0.24px;"/><path d="M80.659,45.676l17.636,0" style="fill:none;stroke:#9d69fb;stroke-width:0.24px;"/><path d="M19.651,28.332l16.363,-13.004" style="fill:none;stroke:#9d69fb;stroke-width:0.24px;"/><path d="M37.434,14.083l6.237,-5.361" style="fill:none;stroke:#9d69fb;stroke-width:0.24px;"/><path d="M19.035,32.133l4.71,-1.014" style="fill:none;stroke:#9d69fb;stroke-width:0.24px;"/><path d="M25.272,30.526l4.886,-1.337" style="fill:none;stroke:#9d69fb;stroke-width:0.24px;"/><path d="M33.893,27.84l4.452,-1.509" style="fill:none;stroke:#9d69fb;stroke-width:0.24px;"/><path d="M40.065,25.54l7.377,-2.572l7.589,0" style="fill:none;stroke:#9d69fb;stroke-width:0.24px;"/><path d="M57.552,22.968l4.467,0" style="fill:none;stroke:#9d69fb;stroke-width:0.24px;"/><path d="M64.357,22.968l12.039,0" style="fill:none;stroke:#9d69fb;stroke-width:0.24px;"/><path d="M80.467,22.968l17.837,0" style="fill:none;stroke:#9d69fb;stroke-width:0.24px;"/><path d="M55.971,62.375l0.053,-1.224l-0.157,-1.894" style="fill:none;stroke:#9d69fb;stroke-width:0.24px;"/><path d="M52.979,47.696l2.364,9.248" style="fill:none;stroke:#9d69fb;stroke-width:0.24px;"/><path d="M52.419,45.676l-2.789,-12.484" style="fill:none;stroke:#9d69fb;stroke-width:0.24px;"/><path d="M49.011,30.174l-1.581,-7.02" style="fill:none;stroke:#9d69fb;stroke-width:0.24px;"/><path d="M46.854,21.563l-1.088,-4.407" style="fill:none;stroke:#9d69fb;stroke-width:0.24px;"/><path d="M45.216,15.328l-1.545,-6.606l4.491,0" style="fill:none;stroke:#9d69fb;stroke-width:0.24px;"/><path d="M51.621,8.722l4.599,0" style="fill:none;stroke:#9d69fb;stroke-width:0.24px;"/><path d="M57.927,8.722l14.985,0" style="fill:none;stroke:#9d69fb;stroke-width:0.24px;"/><path d="M75.226,8.722l35.946,0l4.801,4.802" style="fill:none;stroke:#9d69fb;stroke-width:0.24px;"/><path d="M119.621,14.461l6.898,-0.007" style="fill:none;stroke:#9d69fb;stroke-width:0.24px;"/><path d="M128.191,14.461l13.61,0" style="fill:none;stroke:#9d69fb;stroke-width:0.24px;"/><path d="M43.322,6.974l-0.917,-3.5" style="fill:none;stroke:#9d69fb;stroke-width:0.24px;"/></g><g id="Holder"><path d="M81.545,152.4c0,0 3.227,-5.919 4.451,-8.163c0.287,-0.527 0.829,-0.865 1.429,-0.89c1.466,-0.062 4.235,-0.179 5.686,-0.24c0.585,-0.024 1.117,-0.347 1.409,-0.854c1.385,-2.401 5.418,-9.396 6.471,-11.221c0.16,-0.279 0.436,-0.473 0.752,-0.53c0.544,-0.098 1.417,-0.255 2.02,-0.364c0.408,-0.074 0.74,-0.373 0.856,-0.772c0.714,-2.465 3.247,-11.214 3.969,-13.707c0.114,-0.394 0.478,-0.662 0.888,-0.655c2.329,0.042 9.786,0.175 11.064,0.197c0.122,0.003 0.242,0.038 0.345,0.104c0.756,0.476 4.01,2.529 5.198,3.279c0.271,0.171 0.436,0.47 0.436,0.791c0,1.622 0,6.514 0,6.514l38.687,0c0,0 0,-15.919 0,-20.071c0,-0.645 -0.157,-1.279 -0.456,-1.849c-3.122,-5.938 -21.384,-40.679 -27.647,-52.593c-1.296,-2.464 -3.85,-4.008 -6.634,-4.008c-7.378,0 -21.97,0 -29.971,0c-1.477,0 -2.893,-0.586 -3.938,-1.631c-1.044,-1.044 -1.631,-2.461 -1.631,-3.938c0,-4.338 0,-10.331 0,-14.669c0,-3.075 2.493,-5.569 5.569,-5.569c17.185,0 68.231,0 68.231,0c0,0 64.607,34.398 81.772,43.536c2.579,1.373 4.266,3.979 4.463,6.893c1.206,17.809 5.436,80.291 5.436,80.291l-178.855,0.119" style="fill:#222;stroke:#747474;stroke-width:0.55px;"/><path d="M104.256,131.238c-0.039,0.011 -0.08,0.012 -0.122,0l-2.817,0c-0.613,-0.088 -0.389,-0.664 0,-0.72l2.498,0c0.004,-0.192 0.027,-0.4 0.042,-0.593c0.021,-0.183 0.185,-0.331 0.376,-0.325c0.049,0.003 0.094,0.016 0.134,0.038c0.002,-0.205 0.005,-0.409 0.009,-0.614c0.013,-0.195 0.145,-0.348 0.376,-0.343c0.466,0.031 0.397,0.972 0.357,1.837l8.581,0c0.128,-1.136 0.12,-2.328 0.662,-3.278c0.718,-1.259 2.252,-1.993 3.705,-1.758l1.786,0.3c0.076,0.025 0.14,0.068 0.188,0.122c0.166,-0.044 0.339,-0.069 0.513,-0.071l7.612,0c0.034,0.005 0.068,0.01 0.102,0.015c0.171,0.078 0.199,0.136 0.226,0.196c0.096,0.21 0.052,0.455 -0.328,0.509c-2.548,0 -5.097,-0.032 -7.645,0.001c-0.726,0.027 -1.348,0.66 -1.357,1.394l0,2.57l77.587,0c-0.001,-1.322 -0.001,-2.643 0.001,-3.965l-31.56,0c-0.378,-0.035 -0.48,-0.675 0,-0.72l31.562,0c0.003,-1.011 0.007,-2.021 0.013,-3.032c0.043,-2.22 1.978,-4.199 4.215,-4.27c3.704,-0.07 7.41,-0.024 11.114,-0.001c2.244,0.043 4.257,1.987 4.271,4.327l0,2.976l0,0l42.121,0c0.025,0.003 0.05,0.005 0.075,0.008c0.349,0.113 0.363,0.666 -0.075,0.712l-42.121,0l0,0l0,13.752l0.563,0l0,-9.427c0.014,-0.169 0.062,-0.267 0.156,-0.299c0.051,-0.035 0.12,-0.057 0.206,-0.061c2.668,0 5.338,-0.121 8.003,0l33.402,0l0.138,0.027c0.396,0.265 0.195,0.471 0.195,0.471c-0.175,0.262 -0.329,0.223 -0.333,0.222l-35.307,0l0,0.815l35.098,0l0.07,0.007c0.357,0.108 0.356,0.671 -0.07,0.713l-35.098,0l0,10.688c-0.063,0.314 -0.223,0.333 -0.223,0.333l-0.138,0.027l-32.895,0c-0.054,0.014 -0.109,0.015 -0.161,0l-97.949,0l-0.332,-0.222c0,0 -0.1,-0.127 0.078,-0.392l0.254,-0.106l25.205,0c-0.001,-0.007 -0.002,-0.014 -0.003,-0.021c0,-3.428 0.044,-6.858 -0.001,-10.286c-0.032,-0.832 -0.757,-1.545 -1.599,-1.556l-11.36,0Zm118.403,0l-5.139,0l0,9.367c-0.018,0.237 -0.077,0.282 -0.3,0.3l-0.863,0l0,0.033l-19.6,0l0,-0.033l-0.829,0c-0.237,-0.019 -0.282,-0.078 -0.3,-0.3l0,-9.367l-5.184,0c0.02,0.904 0.017,1.808 -0.009,2.711l0,9.152l32.224,0l0,-11.863Zm-32.964,1.633l-70.596,0l0,10.23l70.616,0l0,-9.154c-0.011,-0.359 -0.017,-0.717 -0.02,-1.076Zm-70.556,-6.489c-0.772,-0.154 -1.536,-0.317 -2.249,-0.171c-1.163,0.238 -2.11,1.261 -2.266,2.448l-0.209,1.859c0.422,0 0.884,-0.014 1.323,0.003c1.183,0.075 2.182,1.089 2.198,2.312l0.019,10.141l0.423,-0.01l0,-10.453c0.028,-0.209 0.143,-0.332 0.361,-0.361l0.161,0c-0.008,-0.318 -0.017,-0.648 -0.014,-0.912l-0.092,0c-0.208,-0.027 -0.331,-0.143 -0.36,-0.36c0,-1.308 -0.234,-2.742 0.147,-3.707c0.12,-0.305 0.315,-0.574 0.558,-0.789Zm69.039,15.175l-6.944,0l0,-6.949l6.944,0l0,6.949Zm-8.649,0l-6.944,0l0,-6.949l6.944,0l0,6.949Zm-5.814,-6.349l-0.53,0l0,5.749l0.53,0l0,-5.749Zm13.863,0l-4.614,0l0,5.749l4.614,0l0,-5.749Zm-8.649,0l-4.614,0l0,5.749l4.614,0l0,-5.749Zm3.435,0l-0.53,0l0,5.749l0.53,0l0,-5.749Zm33.393,5.097c0.001,-5.848 0.109,-11.698 -0.001,-17.545c-0.06,-1.894 -1.72,-3.569 -3.629,-3.629c-3.68,-0.07 -7.361,-0.001 -11.041,-0.001c-1.96,0.012 -3.716,1.744 -3.729,3.729l0,17.446l18.4,0Zm-19.015,-9.067l-0.514,0l0,9.067l0.529,0c-0.001,-3.022 -0.011,-6.044 -0.015,-9.067Zm16.216,4.987c0.288,0.01 0.564,0.128 0.77,0.33l1.202,1.201c-0.909,0.91 -1.947,2.029 -2.796,1.202l-1.202,-1.202c0.64,-0.64 1.218,-1.541 2.026,-1.531Zm-0.039,0.6c-0.136,0.005 -0.265,0.061 -0.363,0.157l-0.775,0.774c0.487,0.488 1.052,1.237 1.526,0.775l0.774,-0.775c-0.386,-0.387 -0.757,-0.936 -1.162,-0.931Zm-88.115,-2.795c0.7,0.027 1.279,0.755 1.098,1.456c-0.123,0.478 -0.569,0.841 -1.068,0.873c-1.566,0.059 -3.455,0.278 -3.525,-1.104c-0.032,-0.62 0.499,-1.201 1.133,-1.225c0.787,-0.01 1.575,-0.01 2.362,0Zm-2.329,0.72c-0.463,0.006 -0.547,0.87 -0.014,0.89c0.782,0.009 1.566,0.049 2.347,-0.001c0.416,-0.037 0.596,-0.85 -0.011,-0.888c-0.774,-0.03 -1.548,-0.001 -2.322,-0.001Zm67.231,-3.512l-70.075,0c0.003,0.169 -0.003,0.346 -0.003,0.508c0,0.132 0.012,0.271 0.018,0.404l70.047,0c0.002,-0.304 0.006,-0.608 0.013,-0.912Zm-80.148,-3.635c0.538,0.041 0.962,0.592 0.825,1.123c-0.224,0.869 -1.642,0.675 -2.77,0.675c-0.851,-0.022 -1.35,-1.698 -0.041,-1.798c0.662,-0.017 1.324,-0.017 1.986,0Zm-1.935,0.719c-0.194,0.005 -0.227,0.342 -0.014,0.358c0.64,0.016 1.283,0.048 1.921,-0.001c0.027,-0.003 0.051,-0.011 0.074,-0.024c0.127,-0.078 0.089,-0.311 -0.074,-0.332c-0.634,-0.049 -1.272,-0.001 -1.907,-0.001Zm134.324,-49.494c1.917,0.015 3.659,1.614 3.831,3.531c0.567,7.311 1.09,14.625 1.565,21.943c0.147,2.854 -2.221,5.547 -5.217,5.61c-17.484,0.136 -34.969,0.124 -52.453,0.073c-4.064,-0.046 -7.987,-2.287 -10.081,-5.803c-4.216,-7.207 -8.429,-14.415 -12.552,-21.676c-0.838,-1.534 0.353,-3.756 2.195,-3.8c24.237,-0.154 48.475,0.082 72.712,0.122Zm-72.701,0.599c-1.253,0.029 -2.22,1.552 -1.577,2.729c4.12,7.255 8.331,14.458 12.543,21.66c1.957,3.285 5.623,5.406 9.466,5.448c17.479,0.052 34.959,0.064 52.437,-0.072c2.479,-0.052 4.64,-2.304 4.509,-4.848c-0.475,-7.324 -0.913,-14.653 -1.567,-21.963c-0.155,-1.524 -1.53,-2.802 -3.073,-2.832c-24.246,-0.186 -48.493,-0.277 -72.738,-0.122Zm20.077,25.21c0.695,0.027 1.262,0.766 1.067,1.451c-0.3,1.057 -2.044,0.845 -3.467,0.828c-0.686,-0.027 -1.251,-0.739 -1.075,-1.424c0.275,-1.065 2.026,-0.872 3.475,-0.855Zm-2.369,0.72c-0.436,0.006 -0.517,0.819 -0.013,0.839c0.795,0.009 1.592,0.048 2.385,-0.001c0.393,-0.035 0.561,-0.801 -0.01,-0.837c-0.787,-0.03 -1.575,-0.001 -2.362,-0.001Zm8.272,-58.718c2.829,0.028 5.641,0.738 8.143,2.057c12.883,6.915 25.771,13.819 38.567,20.892c1.233,0.71 1.433,2.565 0.596,3.809c-0.589,0.873 -1.609,1.425 -2.67,1.449c-23.47,0.219 -46.941,0.254 -70.411,0.235c-4.052,-0.036 -7.968,-2.177 -10.167,-5.684c-3.748,-6.086 -7.493,-12.174 -11.167,-18.304c-1.077,-1.87 0.252,-4.675 2.669,-4.722c14.813,-0.035 29.627,0.179 44.44,0.268Zm-44.433,0.452c-1.667,0.033 -2.921,2.075 -2.076,3.601c3.571,6.201 7.426,12.232 11.178,18.324c2.027,3.233 5.715,5.311 9.559,5.345c23.477,0.018 46.959,0.296 70.429,-0.236c1.377,-0.047 2.62,-1.341 2.479,-2.719c-0.024,-0.232 -0.101,-0.458 -0.224,-0.656c-0.136,-0.22 -0.33,-0.404 -0.556,-0.534c-12.79,-7.071 -25.674,-13.972 -38.551,-20.884c-2.368,-1.248 -5.019,-1.925 -7.68,-1.971c-14.852,-0.148 -29.705,-0.305 -44.558,-0.27Zm21.28,18.876c1.659,0.064 2.918,2.138 1.942,3.66c-0.418,0.651 -1.161,1.065 -1.942,1.095c-1.532,0.02 -3.065,0.001 -4.597,0.001c-1.45,-0.019 -2.673,-1.527 -2.301,-2.972c0.255,-0.989 1.193,-1.744 2.242,-1.784c1.552,-0.019 3.104,-0.019 4.656,0Zm-4.593,0.72c-1.033,0.013 -1.885,1.098 -1.597,2.111c0.192,0.676 0.842,1.177 1.552,1.204c1.54,0.02 3.08,0.02 4.62,0c1.021,-0.039 1.854,-1.141 1.54,-2.15c-0.204,-0.657 -0.843,-1.138 -1.54,-1.165c-1.525,-0.019 -3.05,0 -4.575,0Zm-6.716,-39.589c1.977,0.023 3.937,0.512 5.7,1.429c5.814,3.084 11.632,6.162 17.408,9.318c1.888,1.073 1.546,4.782 -1.209,4.884c-12.374,0.152 -24.75,0.072 -37.125,-0.003c-2.503,-0.048 -4.757,-2.182 -4.797,-4.813c-0.006,-2.012 0,-4.025 0.02,-6.037c0.055,-2.501 2.183,-4.729 4.795,-4.778c5.069,-0.032 10.138,-0.02 15.208,0Zm-25.197,0.36c1.542,0.029 2.918,1.366 2.948,2.947c0.019,3.017 0.056,6.035 -0.001,9.051c-0.049,1.528 -1.402,2.88 -2.947,2.909c-2.029,0.013 -4.059,0.038 -6.088,0c-1.528,-0.049 -2.88,-1.402 -2.909,-2.947c-0.019,-3.017 -0.057,-6.035 0.001,-9.051c0.048,-1.528 1.402,-2.88 2.947,-2.909c2.016,-0.013 4.033,-0.013 6.049,0Zm10.052,0.36c-2.135,0.013 -4.061,1.862 -4.136,4.016c-0.045,2.024 -0.028,4.048 -0.022,6.072c0.033,2.145 1.92,4.059 4.086,4.1c12.366,0.075 24.733,0.155 37.098,0.003c0.922,-0.034 1.742,-0.786 1.834,-1.702c0.072,-0.73 -0.317,-1.469 -0.958,-1.833c-5.77,-3.153 -11.583,-6.228 -17.392,-9.309c-1.66,-0.864 -3.509,-1.325 -5.371,-1.347c-5.046,-0.02 -10.092,0 -15.139,0Zm-16.061,0.36c-1.174,0.007 -2.23,1.019 -2.267,2.207c-0.059,3.017 -0.059,6.036 0,9.053c0.037,1.162 1.064,2.185 2.236,2.207c2.02,0.013 4.041,0.038 6.06,0c1.164,-0.037 2.185,-1.065 2.208,-2.236c0.018,-3.008 0.057,-6.017 -0.001,-9.024c-0.037,-1.162 -1.064,-2.185 -2.236,-2.207c-2,-0.013 -4,0 -6,0Zm15.881,2.045c0.411,0.031 0.747,0.366 0.779,0.779c0.026,1.053 0.001,2.106 0.001,3.159c-0.01,0.423 -0.353,0.784 -0.78,0.816c-0.814,0.021 -1.729,-0.015 -1.787,-0.779c-0.027,-1.052 -0.001,-2.106 -0.001,-3.158c0.011,-0.424 0.353,-0.784 0.78,-0.817c0.336,-0.008 0.672,-0.008 1.008,0Zm-0.961,0.719c-0.058,0.002 -0.102,0.044 -0.106,0.096c-0.027,1.045 -0.132,2.098 0.001,3.134c0.039,0.222 1.096,0.225 1.125,-0.005c0.08,-1.043 0.132,-2.101 -0.001,-3.139c-0.031,-0.177 -0.602,-0.086 -1.019,-0.086Z" style="fill:#747474;fill-rule:nonzero;"/><path d="M107.473,25.681l0.056,0l0.056,0.001l0.055,0.001l0.056,0.002l0.055,0.002l0.056,0.002l0.055,0.003l0.055,0.003l0.055,0.003l0.055,0.004l0.055,0.004l0.055,0.004l0.054,0.005l0.055,0.005l0.054,0.005l0.055,0.006l0.054,0.006l0.054,0.006l0.054,0.007l0.054,0.007l0.054,0.007l0.054,0.008l0.053,0.008l0.054,0.008l0.053,0.009l0.054,0.009l0.053,0.01l0.053,0.009l0.053,0.01l0.053,0.01l0.053,0.011l0.052,0.011l0.053,0.011l0.052,0.012l0.053,0.012l0.052,0.012l0.052,0.013l0.052,0.012l0.051,0.014l0.052,0.013l0.052,0.014l0.051,0.014l0.051,0.014l0.052,0.015l0.051,0.015l0.051,0.015l0.05,0.016l0.051,0.016l0.05,0.016l0.051,0.017l0.05,0.017l0.05,0.017l0.05,0.017l0.05,0.018l0.05,0.018l0.049,0.018l0.05,0.019l0.049,0.019l0.049,0.019l0.049,0.02l0.049,0.019l0.048,0.02l0.049,0.021l0.048,0.02l0.048,0.021l0.048,0.022l0.048,0.021l0.048,0.022l0.048,0.022l0.047,0.022l0.047,0.023l0.048,0.023l0.047,0.023l0.046,0.023l0.047,0.024l0.046,0.024l0.047,0.024l0.046,0.025l0.046,0.025l0.046,0.025l0.045,0.025l0.046,0.026l0.045,0.026l0.045,0.026l0.045,0.026l0.045,0.027l0.045,0.027l0.044,0.027l0.044,0.028l0.044,0.027l0.044,0.028l0.044,0.028l0.044,0.029l0.043,0.029l0.043,0.029l0.043,0.029l0.043,0.029l0.043,0.03l0.042,0.03l0.042,0.03l0.042,0.031l0.042,0.031l0.042,0.031l0.041,0.031l0.042,0.031l0.041,0.032l0.041,0.032l0.04,0.032l0.041,0.033l0.04,0.032l0.04,0.033l0.04,0.033l0.04,0.034l0.039,0.033l0.04,0.034l0.039,0.034l0.039,0.035l0.038,0.034l0.039,0.035l0.038,0.035l0.038,0.035l0.038,0.035l0.038,0.036l0.037,0.036l0.037,0.036l0.037,0.036l0.037,0.037l0.036,0.037l0.037,0.037l0.036,0.037l0.036,0.037l0.035,0.038l0.036,0.038l0.035,0.038l0.035,0.038l0.035,0.038l0.034,0.039l0.035,0.039l0.034,0.039l0.034,0.039l0.033,0.04l0.034,0.04l0.033,0.04l0.033,0.04l0.032,0.04l0.033,0.04l0.032,0.041l0.032,0.041l0.031,0.041l0.032,0.041l0.031,0.042l0.031,0.042l0.031,0.041l0.03,0.043l0.031,0.042l0.03,0.042l0.029,0.043l0.03,0.043l0.029,0.043l0.029,0.043l0.029,0.043l0.028,0.044l0.029,0.043l0.028,0.044l0.027,0.044l0.028,0.045l0.027,0.044l0.027,0.045l0.027,0.045l0.026,0.045l0.026,0.045l0.026,0.045l0.026,0.045l0.025,0.046l0.025,0.046l0.025,0.046l0.024,0.046l0.025,0.046l0.024,0.047l0.023,0.046l0.024,0.047l0.023,0.047l0.023,0.047l0.023,0.048l0.022,0.047l0.022,0.048l0.022,0.047l0.021,0.048l0.021,0.048l0.021,0.049l0.021,0.048l0.02,0.049l0.02,0.048l0.02,0.049l0.02,0.049l0.019,0.049l0.019,0.049l0.018,0.05l0.019,0.049l0.018,0.05l0.018,0.05l0.017,0.05l0.017,0.05l0.017,0.05l0.017,0.05l0.016,0.051l0.016,0.051l0.015,0.05l0.016,0.051l0.015,0.051l0.014,0.051l0.015,0.052l0.014,0.051l0.014,0.052l0.013,0.051l0.013,0.052l0.013,0.052l0.013,0.052l0.012,0.052l0.012,0.053l0.011,0.052l0.012,0.053l0.011,0.052l0.01,0.053l0.011,0.053l0.01,0.053l0.009,0.053l0.01,0.053l0.009,0.053l0.008,0.054l0.009,0.053l0.008,0.054l0.007,0.054l0.008,0.054l0.007,0.054l0.007,0.054l0.006,0.054l0.006,0.054l0.006,0.055l0.005,0.054l0.005,0.055l0.005,0.054l0.004,0.055l0.004,0.055l0.004,0.055l0.003,0.055l0.003,0.055l0.003,0.055l0.002,0.056l0.002,0.055l0.002,0.055l0.001,0.056l0.001,0.056l0,0.055l0,0.056l0,0.056l0,0.056l-0.001,0.055l-0.001,0.056l-0.002,0.056l-0.002,0.055l-0.002,0.055l-0.003,0.056l-0.003,0.055l-0.003,0.055l-0.004,0.055l-0.004,0.055l-0.004,0.054l-0.005,0.055l-0.005,0.055l-0.005,0.054l-0.006,0.054l-0.006,0.055l-0.006,0.054l-0.007,0.054l-0.007,0.054l-0.008,0.054l-0.007,0.053l-0.008,0.054l-0.009,0.054l-0.008,0.053l-0.009,0.053l-0.01,0.054l-0.009,0.053l-0.01,0.053l-0.011,0.053l-0.01,0.052l-0.011,0.053l-0.012,0.053l-0.011,0.052l-0.012,0.052l-0.012,0.052l-0.013,0.052l-0.013,0.052l-0.013,0.052l-0.013,0.052l-0.014,0.051l-0.014,0.052l-0.015,0.051l-0.014,0.051l-0.015,0.051l-0.016,0.051l-0.015,0.051l-0.016,0.051l-0.016,0.05l-0.017,0.05l-0.017,0.051l-0.017,0.05l-0.017,0.05l-0.018,0.05l-0.018,0.049l-0.019,0.05l-0.018,0.049l-0.019,0.049l-0.019,0.05l-0.02,0.049l-0.02,0.048l-0.02,0.049l-0.02,0.048l-0.021,0.049l-0.021,0.048l-0.021,0.048l-0.021,0.048l-0.022,0.048l-0.022,0.047l-0.022,0.048l-0.023,0.047l-0.023,0.047l-0.023,0.047l-0.024,0.047l-0.023,0.047l-0.024,0.046l-0.025,0.046l-0.024,0.047l-0.025,0.046l-0.025,0.045l-0.025,0.046l-0.026,0.046l-0.026,0.045l-0.026,0.045l-0.026,0.045l-0.027,0.045l-0.027,0.044l-0.027,0.045l-0.028,0.044l-0.027,0.044l-0.028,0.044l-0.029,0.044l-0.028,0.043l-0.029,0.044l-0.029,0.043l-0.029,0.043l-0.03,0.043l-0.029,0.042l-0.03,0.043l-0.031,0.042l-0.03,0.042l-0.031,0.042l-0.031,0.042l-0.031,0.041l-0.032,0.041l-0.031,0.041l-0.032,0.041l-0.032,0.041l-0.033,0.041l-0.032,0.04l-0.033,0.04l-0.033,0.04l-0.034,0.04l-0.033,0.039l-0.034,0.039l-0.034,0.039l-0.035,0.039l-0.034,0.039l-0.035,0.038l-0.035,0.039l-0.035,0.038l-0.036,0.038l-0.035,0.037l-0.036,0.038l-0.036,0.037l-0.037,0.037l-0.036,0.037l-0.037,0.036l-0.037,0.036l-0.037,0.037l-0.037,0.035l-0.038,0.036l-0.038,0.036l-0.038,0.035l-0.038,0.035l-0.039,0.034l-0.038,0.035l-0.039,0.034l-0.039,0.034l-0.04,0.034l-0.039,0.034l-0.04,0.033l-0.04,0.033l-0.04,0.033l-0.04,0.033l-0.041,0.032l-0.04,0.032l-0.041,0.032l-0.041,0.032l-0.042,0.032l-0.041,0.031l-0.042,0.031l-0.042,0.031l-0.042,0.03l-0.042,0.03l-0.042,0.03l-0.043,0.03l-0.043,0.03l-0.043,0.029l-0.043,0.029l-0.043,0.029l-0.044,0.028l-0.044,0.028l-0.044,0.028l-0.044,0.028l-0.044,0.027l-0.044,0.028l-0.045,0.027l-0.045,0.026l-0.045,0.027l-0.045,0.026l-0.045,0.026l-0.046,0.025l-0.045,0.026l-0.046,0.025l-0.046,0.025l-0.046,0.024l-0.047,0.024l-0.046,0.024l-0.047,0.024l-0.046,0.024l-0.047,0.023l-0.048,0.023l-0.047,0.022l-0.047,0.023l-0.048,0.022l-0.048,0.021l-0.048,0.022l-0.048,0.021l-0.048,0.021l-0.048,0.021l-0.049,0.02l-0.048,0.02l-0.049,0.02l-0.049,0.019l-0.049,0.02l-0.049,0.019l-0.05,0.018l-0.049,0.018l-0.05,0.018l-0.05,0.018l-0.05,0.018l-0.05,0.017l-0.05,0.017l-0.051,0.016l-0.05,0.016l-0.051,0.016l-0.05,0.016l-0.051,0.015l-0.051,0.015l-0.052,0.015l-0.051,0.014l-0.051,0.015l-0.052,0.013l-0.052,0.014l-0.051,0.013l-0.052,0.013l-0.052,0.012l-0.052,0.013l-0.053,0.012l-0.052,0.011l-0.053,0.011l-0.052,0.011l-0.053,0.011l-0.053,0.01l-0.053,0.01l-0.053,0.01l-0.053,0.009l-0.054,0.009l-0.053,0.009l-0.054,0.008l-0.053,0.008l-0.054,0.008l-0.054,0.008l-0.054,0.007l-0.054,0.006l-0.054,0.007l-0.054,0.006l-0.055,0.005l-0.054,0.006l-0.055,0.005l-0.054,0.004l-0.055,0.005l-0.055,0.004l-0.055,0.003l-0.055,0.004l-0.055,0.003l-0.055,0.002l-0.056,0.003l-0.055,0.002l-0.056,0.001l-0.055,0.001l-0.056,0.001l-0.056,0.001l-0.055,0l-0.056,0l-0.056,-0.001l-0.056,-0.001l-0.055,-0.001l-0.056,-0.001l-0.055,-0.002l-0.055,-0.003l-0.056,-0.002l-0.055,-0.003l-0.055,-0.004l-0.055,-0.003l-0.055,-0.004l-0.054,-0.005l-0.055,-0.004l-0.055,-0.005l-0.054,-0.006l-0.055,-0.005l-0.054,-0.006l-0.054,-0.007l-0.054,-0.006l-0.054,-0.007l-0.054,-0.008l-0.054,-0.008l-0.053,-0.008l-0.054,-0.008l-0.053,-0.009l-0.054,-0.009l-0.053,-0.009l-0.053,-0.01l-0.053,-0.01l-0.053,-0.01l-0.053,-0.011l-0.052,-0.011l-0.053,-0.011l-0.052,-0.011l-0.052,-0.012l-0.053,-0.013l-0.052,-0.012l-0.052,-0.013l-0.051,-0.013l-0.052,-0.014l-0.052,-0.013l-0.051,-0.015l-0.051,-0.014l-0.051,-0.015l-0.051,-0.015l-0.051,-0.015l-0.051,-0.016l-0.051,-0.016l-0.05,-0.016l-0.051,-0.016l-0.05,-0.017l-0.05,-0.017l-0.05,-0.018l-0.05,-0.018l-0.049,-0.018l-0.05,-0.018l-0.049,-0.018l-0.05,-0.019l-0.049,-0.02l-0.049,-0.019l-0.048,-0.02l-0.049,-0.02l-0.049,-0.02l-0.048,-0.021l-0.048,-0.021l-0.048,-0.021l-0.048,-0.022l-0.048,-0.021l-0.048,-0.022l-0.047,-0.023l-0.047,-0.022l-0.047,-0.023l-0.047,-0.023l-0.047,-0.024l-0.047,-0.024l-0.046,-0.024l-0.047,-0.024l-0.046,-0.024l-0.046,-0.025l-0.046,-0.025l-0.045,-0.026l-0.046,-0.025l-0.045,-0.026l-0.045,-0.026l-0.045,-0.027l-0.045,-0.026l-0.045,-0.027l-0.044,-0.028l-0.044,-0.027l-0.044,-0.028l-0.044,-0.028l-0.044,-0.028l-0.043,-0.028l-0.044,-0.029l-0.043,-0.029l-0.043,-0.029l-0.043,-0.03l-0.042,-0.03l-0.043,-0.03l-0.042,-0.03l-0.042,-0.03l-0.042,-0.031l-0.042,-0.031l-0.041,-0.031l-0.042,-0.032l-0.041,-0.032l-0.041,-0.032l-0.04,-0.032l-0.041,-0.032l-0.04,-0.033l-0.04,-0.033l-0.04,-0.033l-0.04,-0.033l-0.039,-0.034l-0.04,-0.034l-0.039,-0.034l-0.039,-0.034l-0.038,-0.035l-0.039,-0.034l-0.038,-0.035l-0.038,-0.035l-0.038,-0.036l-0.037,-0.036l-0.038,-0.035l-0.037,-0.037l-0.037,-0.036l-0.037,-0.036l-0.036,-0.037l-0.037,-0.037l-0.036,-0.037l-0.036,-0.038l-0.035,-0.037l-0.036,-0.038l-0.035,-0.038l-0.035,-0.039l-0.035,-0.038l-0.034,-0.039l-0.034,-0.039l-0.035,-0.039l-0.033,-0.039l-0.034,-0.039l-0.033,-0.04l-0.033,-0.04l-0.033,-0.04l-0.033,-0.04l-0.032,-0.041l-0.033,-0.041l-0.032,-0.041l-0.031,-0.041l-0.032,-0.041l-0.031,-0.041l-0.031,-0.042l-0.031,-0.042l-0.03,-0.042l-0.03,-0.042l-0.03,-0.043l-0.03,-0.042l-0.03,-0.043l-0.029,-0.043l-0.029,-0.043l-0.029,-0.044l-0.028,-0.043l-0.028,-0.044l-0.028,-0.044l-0.028,-0.044l-0.028,-0.044l-0.027,-0.045l-0.027,-0.044l-0.026,-0.045l-0.027,-0.045l-0.026,-0.045l-0.026,-0.045l-0.025,-0.046l-0.026,-0.046l-0.025,-0.045l-0.025,-0.046l-0.024,-0.047l-0.025,-0.046l-0.024,-0.046l-0.023,-0.047l-0.024,-0.047l-0.023,-0.047l-0.023,-0.047l-0.022,-0.047l-0.023,-0.048l-0.022,-0.047l-0.022,-0.048l-0.021,-0.048l-0.021,-0.048l-0.021,-0.048l-0.021,-0.049l-0.02,-0.048l-0.02,-0.049l-0.02,-0.048l-0.02,-0.049l-0.019,-0.05l-0.019,-0.049l-0.018,-0.049l-0.019,-0.05l-0.018,-0.049l-0.017,-0.05l-0.018,-0.05l-0.017,-0.05l-0.017,-0.051l-0.016,-0.05l-0.017,-0.05l-0.016,-0.051l-0.015,-0.051l-0.016,-0.051l-0.015,-0.051l-0.014,-0.051l-0.015,-0.051l-0.014,-0.052l-0.014,-0.051l-0.013,-0.052l-0.013,-0.052l-0.013,-0.052l-0.013,-0.052l-0.012,-0.052l-0.012,-0.052l-0.011,-0.052l-0.012,-0.053l-0.011,-0.053l-0.01,-0.052l-0.011,-0.053l-0.009,-0.053l-0.01,-0.053l-0.01,-0.054l-0.009,-0.053l-0.008,-0.053l-0.009,-0.054l-0.008,-0.054l-0.007,-0.053l-0.008,-0.054l-0.007,-0.054l-0.006,-0.054l-0.007,-0.054l-0.006,-0.055l-0.006,-0.054l-0.005,-0.054l-0.005,-0.055l-0.005,-0.055l-0.004,-0.054l-0.004,-0.055l-0.004,-0.055l-0.003,-0.055l-0.003,-0.055l-0.003,-0.056l-0.002,-0.055l-0.002,-0.055l-0.001,-0.056l-0.002,-0.056l0,-0.055l-0.001,-0.056l0,-0.056l0,-0.056l0.001,-0.055l0,-0.056l0.002,-0.056l0.001,-0.055l0.002,-0.055l0.002,-0.056l0.003,-0.055l0.003,-0.055l0.003,-0.055l0.004,-0.055l0.004,-0.055l0.004,-0.055l0.005,-0.054l0.005,-0.055l0.005,-0.054l0.006,-0.055l0.006,-0.054l0.007,-0.054l0.006,-0.054l0.007,-0.054l0.008,-0.054l0.007,-0.054l0.008,-0.054l0.009,-0.053l0.008,-0.054l0.009,-0.053l0.01,-0.053l0.01,-0.053l0.009,-0.053l0.011,-0.053l0.01,-0.053l0.011,-0.052l0.012,-0.053l0.011,-0.052l0.012,-0.053l0.012,-0.052l0.013,-0.052l0.013,-0.052l0.013,-0.052l0.013,-0.051l0.014,-0.052l0.014,-0.051l0.015,-0.052l0.014,-0.051l0.015,-0.051l0.016,-0.051l0.015,-0.05l0.016,-0.051l0.017,-0.051l0.016,-0.05l0.017,-0.05l0.017,-0.05l0.018,-0.05l0.017,-0.05l0.018,-0.05l0.019,-0.049l0.018,-0.05l0.019,-0.049l0.019,-0.049l0.02,-0.049l0.02,-0.049l0.02,-0.048l0.02,-0.049l0.021,-0.048l0.021,-0.049l0.021,-0.048l0.021,-0.048l0.022,-0.047l0.022,-0.048l0.023,-0.047l0.022,-0.048l0.023,-0.047l0.023,-0.047l0.024,-0.047l0.023,-0.046l0.024,-0.047l0.025,-0.046l0.024,-0.046l0.025,-0.046l0.025,-0.046l0.026,-0.046l0.025,-0.045l0.026,-0.045l0.026,-0.045l0.027,-0.045l0.026,-0.045l0.027,-0.045l0.027,-0.044l0.028,-0.045l0.028,-0.044l0.028,-0.044l0.028,-0.043l0.028,-0.044l0.029,-0.043l0.029,-0.043l0.029,-0.043l0.03,-0.043l0.03,-0.043l0.03,-0.042l0.03,-0.042l0.03,-0.043l0.031,-0.041l0.031,-0.042l0.031,-0.042l0.032,-0.041l0.031,-0.041l0.032,-0.041l0.033,-0.041l0.032,-0.04l0.033,-0.04l0.033,-0.04l0.033,-0.04l0.033,-0.04l0.034,-0.04l0.033,-0.039l0.035,-0.039l0.034,-0.039l0.034,-0.039l0.035,-0.038l0.035,-0.038l0.035,-0.038l0.036,-0.038l0.035,-0.038l0.036,-0.037l0.036,-0.037l0.037,-0.037l0.036,-0.037l0.037,-0.037l0.037,-0.036l0.037,-0.036l0.038,-0.036l0.037,-0.036l0.038,-0.035l0.038,-0.035l0.038,-0.035l0.039,-0.035l0.038,-0.034l0.039,-0.035l0.039,-0.034l0.04,-0.034l0.039,-0.033l0.04,-0.034l0.04,-0.033l0.04,-0.033l0.04,-0.032l0.041,-0.033l0.04,-0.032l0.041,-0.032l0.041,-0.032l0.042,-0.031l0.041,-0.031l0.042,-0.031l0.042,-0.031l0.042,-0.031l0.042,-0.03l0.043,-0.03l0.042,-0.03l0.043,-0.029l0.043,-0.029l0.043,-0.029l0.044,-0.029l0.043,-0.029l0.044,-0.028l0.044,-0.028l0.044,-0.027l0.044,-0.028l0.044,-0.027l0.045,-0.027l0.045,-0.027l0.045,-0.026l0.045,-0.026l0.045,-0.026l0.046,-0.026l0.045,-0.025l0.046,-0.025l0.046,-0.025l0.046,-0.025l0.047,-0.024l0.046,-0.024l0.047,-0.024l0.047,-0.023l0.047,-0.023l0.047,-0.023l0.047,-0.023l0.047,-0.022l0.048,-0.022l0.048,-0.022l0.048,-0.021l0.048,-0.022l0.048,-0.021l0.048,-0.02l0.049,-0.021l0.049,-0.02l0.048,-0.019l0.049,-0.02l0.049,-0.019l0.05,-0.019l0.049,-0.019l0.05,-0.018l0.049,-0.018l0.05,-0.018l0.05,-0.017l0.05,-0.017l0.05,-0.017l0.051,-0.017l0.05,-0.016l0.051,-0.016l0.051,-0.016l0.051,-0.015l0.051,-0.015l0.051,-0.015l0.051,-0.014l0.051,-0.014l0.052,-0.014l0.052,-0.013l0.051,-0.014l0.052,-0.012l0.052,-0.013l0.053,-0.012l0.052,-0.012l0.052,-0.012l0.053,-0.011l0.052,-0.011l0.053,-0.011l0.053,-0.01l0.053,-0.01l0.053,-0.009l0.053,-0.01l0.054,-0.009l0.053,-0.009l0.054,-0.008l0.053,-0.008l0.054,-0.008l0.054,-0.007l0.054,-0.007l0.054,-0.007l0.054,-0.006l0.054,-0.006l0.055,-0.006l0.054,-0.005l0.055,-0.005l0.055,-0.005l0.054,-0.004l0.055,-0.004l0.055,-0.004l0.055,-0.003l0.055,-0.003l0.056,-0.003l0.055,-0.002l0.055,-0.002l0.056,-0.002l0.055,-0.001l0.056,-0.001l0.056,0l0.056,-0.001l0.055,0.001Zm-0.11,0.25l-0.054,0l-0.054,0.001l-0.054,0.001l-0.054,0.002l-0.054,0.002l-0.053,0.002l-0.054,0.002l-0.054,0.003l-0.053,0.004l-0.053,0.003l-0.054,0.004l-0.053,0.004l-0.053,0.005l-0.053,0.005l-0.053,0.005l-0.053,0.005l-0.052,0.006l-0.053,0.006l-0.052,0.007l-0.053,0.007l-0.052,0.007l-0.052,0.007l-0.052,0.008l-0.052,0.008l-0.052,0.009l-0.052,0.009l-0.052,0.009l-0.051,0.009l-0.052,0.01l-0.051,0.01l-0.051,0.01l-0.051,0.011l-0.051,0.011l-0.051,0.011l-0.051,0.011l-0.051,0.012l-0.05,0.012l-0.051,0.013l-0.05,0.013l-0.05,0.013l-0.05,0.013l-0.05,0.014l-0.05,0.014l-0.05,0.014l-0.049,0.015l-0.05,0.015l-0.049,0.015l-0.049,0.015l-0.049,0.016l-0.049,0.016l-0.049,0.016l-0.048,0.017l-0.049,0.017l-0.048,0.017l-0.048,0.018l-0.049,0.018l-0.047,0.018l-0.048,0.018l-0.048,0.019l-0.047,0.019l-0.048,0.019l-0.047,0.019l-0.047,0.02l-0.047,0.02l-0.047,0.02l-0.047,0.021l-0.046,0.021l-0.047,0.021l-0.046,0.021l-0.046,0.022l-0.046,0.022l-0.045,0.022l-0.046,0.023l-0.046,0.023l-0.045,0.023l-0.045,0.023l-0.045,0.023l-0.045,0.024l-0.044,0.024l-0.045,0.025l-0.044,0.024l-0.044,0.025l-0.044,0.025l-0.044,0.026l-0.044,0.025l-0.043,0.026l-0.044,0.027l-0.043,0.026l-0.043,0.027l-0.043,0.026l-0.042,0.028l-0.043,0.027l-0.042,0.028l-0.042,0.028l-0.042,0.028l-0.042,0.028l-0.041,0.029l-0.042,0.029l-0.041,0.029l-0.041,0.029l-0.041,0.03l-0.041,0.03l-0.04,0.03l-0.04,0.03l-0.04,0.031l-0.04,0.031l-0.04,0.031l-0.04,0.031l-0.039,0.031l-0.039,0.032l-0.039,0.032l-0.039,0.032l-0.038,0.033l-0.039,0.032l-0.038,0.033l-0.038,0.033l-0.038,0.033l-0.037,0.034l-0.038,0.034l-0.037,0.034l-0.037,0.034l-0.036,0.034l-0.037,0.035l-0.036,0.035l-0.036,0.035l-0.036,0.035l-0.036,0.036l-0.035,0.035l-0.036,0.036l-0.035,0.036l-0.035,0.037l-0.034,0.036l-0.035,0.037l-0.034,0.037l-0.034,0.037l-0.034,0.038l-0.033,0.037l-0.033,0.038l-0.034,0.038l-0.032,0.038l-0.033,0.038l-0.032,0.039l-0.033,0.039l-0.032,0.039l-0.031,0.039l-0.032,0.039l-0.031,0.04l-0.031,0.039l-0.031,0.04l-0.031,0.04l-0.03,0.041l-0.03,0.04l-0.03,0.041l-0.029,0.041l-0.03,0.041l-0.029,0.041l-0.029,0.041l-0.028,0.042l-0.029,0.042l-0.028,0.042l-0.028,0.042l-0.028,0.042l-0.027,0.042l-0.027,0.043l-0.027,0.043l-0.027,0.043l-0.026,0.043l-0.026,0.043l-0.026,0.044l-0.026,0.043l-0.025,0.044l-0.025,0.044l-0.025,0.044l-0.025,0.045l-0.024,0.044l-0.024,0.045l-0.024,0.045l-0.024,0.045l-0.023,0.045l-0.023,0.045l-0.023,0.046l-0.022,0.045l-0.023,0.046l-0.022,0.046l-0.021,0.046l-0.022,0.046l-0.021,0.046l-0.021,0.047l-0.02,0.047l-0.021,0.046l-0.02,0.047l-0.019,0.048l-0.02,0.047l-0.019,0.047l-0.019,0.048l-0.019,0.047l-0.018,0.048l-0.018,0.048l-0.018,0.048l-0.017,0.048l-0.018,0.049l-0.017,0.048l-0.016,0.049l-0.017,0.049l-0.016,0.049l-0.015,0.049l-0.016,0.049l-0.015,0.049l-0.015,0.05l-0.014,0.049l-0.015,0.05l-0.014,0.05l-0.013,0.049l-0.014,0.051l-0.013,0.05l-0.013,0.05l-0.012,0.05l-0.012,0.051l-0.012,0.051l-0.012,0.05l-0.011,0.051l-0.011,0.051l-0.011,0.051l-0.01,0.052l-0.01,0.051l-0.01,0.051l-0.009,0.052l-0.009,0.052l-0.009,0.051l-0.008,0.052l-0.008,0.052l-0.008,0.052l-0.008,0.052l-0.007,0.053l-0.007,0.052l-0.006,0.053l-0.006,0.052l-0.006,0.053l-0.006,0.053l-0.005,0.053l-0.005,0.053l-0.004,0.053l-0.005,0.053l-0.004,0.053l-0.003,0.054l-0.003,0.053l-0.003,0.054l-0.003,0.053l-0.002,0.054l-0.002,0.054l-0.001,0.054l-0.002,0.054l-0.001,0.054l0,0.054l0,0.054l0,0.054l0,0.055l0.001,0.054l0.002,0.054l0.001,0.054l0.002,0.053l0.002,0.054l0.003,0.054l0.003,0.053l0.003,0.054l0.003,0.053l0.004,0.054l0.005,0.053l0.004,0.053l0.005,0.053l0.005,0.053l0.006,0.052l0.006,0.053l0.006,0.053l0.006,0.052l0.007,0.053l0.007,0.052l0.008,0.052l0.008,0.052l0.008,0.052l0.008,0.052l0.009,0.052l0.009,0.052l0.009,0.051l0.01,0.052l0.01,0.051l0.01,0.051l0.011,0.051l0.011,0.051l0.011,0.051l0.012,0.051l0.012,0.051l0.012,0.05l0.012,0.05l0.013,0.051l0.013,0.05l0.014,0.05l0.013,0.05l0.014,0.05l0.015,0.049l0.014,0.05l0.015,0.049l0.015,0.05l0.016,0.049l0.015,0.049l0.016,0.049l0.017,0.049l0.016,0.048l0.017,0.049l0.018,0.048l0.017,0.048l0.018,0.048l0.018,0.048l0.018,0.048l0.019,0.048l0.019,0.047l0.019,0.048l0.02,0.047l0.019,0.047l0.02,0.047l0.021,0.047l0.02,0.046l0.021,0.047l0.021,0.046l0.022,0.047l0.021,0.046l0.022,0.046l0.023,0.045l0.022,0.046l0.023,0.045l0.023,0.046l0.023,0.045l0.024,0.045l0.024,0.045l0.024,0.044l0.024,0.045l0.025,0.044l0.025,0.044l0.025,0.044l0.025,0.044l0.026,0.044l0.026,0.043l0.026,0.043l0.026,0.044l0.027,0.043l0.027,0.042l0.027,0.043l0.027,0.043l0.028,0.042l0.028,0.042l0.028,0.042l0.029,0.042l0.028,0.041l0.029,0.042l0.029,0.041l0.03,0.041l0.029,0.041l0.03,0.04l0.03,0.041l0.03,0.04l0.031,0.04l0.031,0.04l0.031,0.04l0.031,0.039l0.032,0.04l0.031,0.039l0.032,0.039l0.033,0.039l0.032,0.038l0.033,0.039l0.032,0.038l0.034,0.038l0.033,0.037l0.033,0.038l0.034,0.037l0.034,0.037l0.034,0.037l0.035,0.037l0.034,0.037l0.035,0.036l0.035,0.036l0.036,0.036l0.035,0.036l0.036,0.035l0.036,0.036l0.036,0.035l0.036,0.034l0.037,0.035l0.036,0.035l0.037,0.034l0.037,0.034l0.038,0.033l0.037,0.034l0.038,0.033l0.038,0.033l0.038,0.033l0.039,0.033l0.038,0.032l0.039,0.033l0.039,0.031l0.039,0.032l0.039,0.032l0.04,0.031l0.04,0.031l0.04,0.031l0.04,0.03l0.04,0.031l0.04,0.03l0.041,0.03l0.041,0.029l0.041,0.03l0.041,0.029l0.042,0.029l0.041,0.028l0.042,0.029l0.042,0.028l0.042,0.028l0.042,0.027l0.043,0.028l0.042,0.027l0.043,0.027l0.043,0.027l0.043,0.026l0.044,0.026l0.043,0.026l0.044,0.026l0.044,0.025l0.044,0.025l0.044,0.025l0.044,0.025l0.045,0.024l0.044,0.024l0.045,0.024l0.045,0.024l0.045,0.023l0.045,0.023l0.046,0.023l0.046,0.022l0.045,0.022l0.046,0.022l0.046,0.022l0.046,0.021l0.047,0.022l0.046,0.02l0.047,0.021l0.047,0.02l0.047,0.02l0.047,0.02l0.047,0.02l0.048,0.019l0.047,0.019l0.048,0.018l0.048,0.019l0.047,0.018l0.049,0.018l0.048,0.017l0.048,0.017l0.049,0.017l0.048,0.017l0.049,0.016l0.049,0.016l0.049,0.016l0.049,0.016l0.049,0.015l0.05,0.015l0.049,0.014l0.05,0.015l0.05,0.014l0.05,0.013l0.05,0.014l0.05,0.013l0.05,0.013l0.051,0.012l0.05,0.012l0.051,0.012l0.051,0.012l0.051,0.011l0.051,0.011l0.051,0.01l0.051,0.011l0.051,0.01l0.052,0.01l0.051,0.009l0.052,0.009l0.052,0.009l0.052,0.008l0.052,0.008l0.052,0.008l0.052,0.008l0.052,0.007l0.053,0.007l0.052,0.006l0.053,0.006l0.052,0.006l0.053,0.006l0.053,0.005l0.053,0.005l0.053,0.004l0.053,0.005l0.054,0.003l0.053,0.004l0.053,0.003l0.054,0.003l0.054,0.003l0.053,0.002l0.054,0.002l0.054,0.001l0.054,0.001l0.054,0.001l0.054,0.001l0.055,0l0.054,0l0.054,-0.001l0.054,-0.001l0.054,-0.001l0.054,-0.001l0.054,-0.002l0.054,-0.002l0.053,-0.003l0.054,-0.003l0.053,-0.003l0.054,-0.004l0.053,-0.003l0.053,-0.005l0.053,-0.004l0.053,-0.005l0.053,-0.005l0.053,-0.006l0.053,-0.006l0.052,-0.006l0.053,-0.006l0.052,-0.007l0.052,-0.007l0.053,-0.008l0.052,-0.008l0.052,-0.008l0.052,-0.008l0.051,-0.009l0.052,-0.009l0.052,-0.009l0.051,-0.01l0.051,-0.01l0.052,-0.011l0.051,-0.01l0.051,-0.011l0.05,-0.011l0.051,-0.012l0.051,-0.012l0.05,-0.012l0.051,-0.012l0.05,-0.013l0.05,-0.013l0.05,-0.014l0.05,-0.013l0.05,-0.014l0.05,-0.015l0.049,-0.014l0.05,-0.015l0.049,-0.015l0.049,-0.016l0.049,-0.016l0.049,-0.016l0.049,-0.016l0.048,-0.017l0.049,-0.017l0.048,-0.017l0.049,-0.017l0.048,-0.018l0.048,-0.018l0.047,-0.019l0.048,-0.018l0.048,-0.019l0.047,-0.019l0.047,-0.02l0.047,-0.02l0.047,-0.02l0.047,-0.02l0.047,-0.021l0.046,-0.02l0.047,-0.022l0.046,-0.021l0.046,-0.022l0.046,-0.022l0.046,-0.022l0.045,-0.022l0.046,-0.023l0.045,-0.023l0.045,-0.023l0.045,-0.024l0.045,-0.024l0.045,-0.024l0.044,-0.024l0.044,-0.025l0.045,-0.025l0.043,-0.025l0.044,-0.025l0.044,-0.026l0.043,-0.026l0.044,-0.026l0.043,-0.026l0.043,-0.027l0.043,-0.027l0.042,-0.027l0.043,-0.028l0.042,-0.027l0.042,-0.028l0.042,-0.028l0.042,-0.029l0.042,-0.028l0.041,-0.029l0.041,-0.029l0.041,-0.03l0.041,-0.029l0.041,-0.03l0.04,-0.03l0.04,-0.031l0.041,-0.03l0.039,-0.031l0.04,-0.031l0.04,-0.031l0.039,-0.032l0.039,-0.032l0.039,-0.031l0.039,-0.033l0.038,-0.032l0.039,-0.033l0.038,-0.033l0.038,-0.033l0.038,-0.033l0.037,-0.034l0.038,-0.033l0.037,-0.034l0.037,-0.034l0.037,-0.035l0.036,-0.035l0.036,-0.034l0.037,-0.035l0.035,-0.036l0.036,-0.035l0.036,-0.036l0.035,-0.036l0.035,-0.036l0.035,-0.036l0.034,-0.037l0.035,-0.037l0.034,-0.037l0.034,-0.037l0.034,-0.037l0.033,-0.038l0.034,-0.037l0.033,-0.038l0.033,-0.038l0.032,-0.039l0.033,-0.038l0.032,-0.039l0.032,-0.039l0.032,-0.039l0.031,-0.04l0.031,-0.039l0.031,-0.04l0.031,-0.04l0.031,-0.04l0.03,-0.04l0.03,-0.041l0.03,-0.04l0.03,-0.041l0.029,-0.041l0.029,-0.041l0.029,-0.042l0.029,-0.041l0.028,-0.042l0.028,-0.042l0.028,-0.042l0.028,-0.042l0.027,-0.043l0.027,-0.043l0.027,-0.042l0.027,-0.043l0.026,-0.044l0.026,-0.043l0.026,-0.043l0.026,-0.044l0.025,-0.044l0.026,-0.044l0.024,-0.044l0.025,-0.044l0.024,-0.045l0.024,-0.044l0.024,-0.045l0.024,-0.045l0.023,-0.045l0.023,-0.046l0.023,-0.045l0.023,-0.046l0.022,-0.045l0.022,-0.046l0.021,-0.046l0.022,-0.047l0.021,-0.046l0.021,-0.047l0.02,-0.046l0.021,-0.047l0.02,-0.047l0.02,-0.047l0.019,-0.047l0.019,-0.048l0.019,-0.047l0.019,-0.048l0.018,-0.048l0.018,-0.048l0.018,-0.048l0.018,-0.048l0.017,-0.048l0.017,-0.049l0.016,-0.048l0.017,-0.049l0.016,-0.049l0.016,-0.049l0.015,-0.049l0.015,-0.05l0.015,-0.049l0.015,-0.05l0.014,-0.049l0.014,-0.05l0.014,-0.05l0.013,-0.05l0.013,-0.05l0.013,-0.051l0.012,-0.05l0.013,-0.05l0.011,-0.051l0.012,-0.051l0.011,-0.051l0.011,-0.051l0.011,-0.051l0.01,-0.051l0.01,-0.051l0.01,-0.052l0.009,-0.051l0.009,-0.052l0.009,-0.052l0.008,-0.052l0.009,-0.052l0.007,-0.052l0.008,-0.052l0.007,-0.052l0.007,-0.053l0.006,-0.052l0.007,-0.053l0.005,-0.053l0.006,-0.052l0.005,-0.053l0.005,-0.053l0.005,-0.053l0.004,-0.053l0.004,-0.054l0.003,-0.053l0.004,-0.054l0.002,-0.053l0.003,-0.054l0.002,-0.054l0.002,-0.053l0.002,-0.054l0.001,-0.054l0.001,-0.054l0,-0.055l0,-0.054l0,-0.054l0,-0.054l-0.001,-0.054l-0.001,-0.054l-0.002,-0.054l-0.002,-0.054l-0.002,-0.054l-0.003,-0.053l-0.002,-0.054l-0.004,-0.053l-0.003,-0.054l-0.004,-0.053l-0.004,-0.053l-0.005,-0.053l-0.005,-0.053l-0.005,-0.053l-0.006,-0.053l-0.005,-0.053l-0.007,-0.052l-0.006,-0.053l-0.007,-0.052l-0.007,-0.053l-0.008,-0.052l-0.007,-0.052l-0.009,-0.052l-0.008,-0.052l-0.009,-0.051l-0.009,-0.052l-0.009,-0.052l-0.01,-0.051l-0.01,-0.051l-0.01,-0.052l-0.011,-0.051l-0.011,-0.051l-0.011,-0.051l-0.012,-0.05l-0.011,-0.051l-0.013,-0.051l-0.012,-0.05l-0.013,-0.05l-0.013,-0.05l-0.013,-0.051l-0.014,-0.049l-0.014,-0.05l-0.014,-0.05l-0.015,-0.049l-0.015,-0.05l-0.015,-0.049l-0.015,-0.049l-0.016,-0.049l-0.016,-0.049l-0.017,-0.049l-0.016,-0.049l-0.017,-0.048l-0.017,-0.049l-0.018,-0.048l-0.018,-0.048l-0.018,-0.048l-0.018,-0.048l-0.019,-0.047l-0.019,-0.048l-0.019,-0.047l-0.019,-0.047l-0.02,-0.048l-0.02,-0.047l-0.021,-0.046l-0.02,-0.047l-0.021,-0.046l-0.021,-0.047l-0.022,-0.046l-0.021,-0.046l-0.022,-0.046l-0.022,-0.046l-0.023,-0.045l-0.023,-0.046l-0.023,-0.045l-0.023,-0.045l-0.024,-0.045l-0.024,-0.045l-0.024,-0.045l-0.024,-0.044l-0.025,-0.045l-0.024,-0.044l-0.026,-0.044l-0.025,-0.044l-0.026,-0.043l-0.026,-0.044l-0.026,-0.043l-0.026,-0.043l-0.027,-0.043l-0.027,-0.043l-0.027,-0.043l-0.027,-0.042l-0.028,-0.042l-0.028,-0.042l-0.028,-0.042l-0.028,-0.042l-0.029,-0.042l-0.029,-0.041l-0.029,-0.041l-0.029,-0.041l-0.03,-0.041l-0.03,-0.041l-0.03,-0.04l-0.03,-0.041l-0.031,-0.04l-0.031,-0.04l-0.031,-0.039l-0.031,-0.04l-0.031,-0.039l-0.032,-0.039l-0.032,-0.039l-0.032,-0.039l-0.033,-0.039l-0.032,-0.038l-0.033,-0.038l-0.033,-0.038l-0.034,-0.038l-0.033,-0.037l-0.034,-0.038l-0.034,-0.037l-0.034,-0.037l-0.035,-0.037l-0.034,-0.036l-0.035,-0.037l-0.035,-0.036l-0.035,-0.036l-0.036,-0.035l-0.036,-0.036l-0.035,-0.035l-0.037,-0.035l-0.036,-0.035l-0.036,-0.035l-0.037,-0.034l-0.037,-0.034l-0.037,-0.034l-0.038,-0.034l-0.037,-0.034l-0.038,-0.033l-0.038,-0.033l-0.038,-0.033l-0.039,-0.032l-0.038,-0.033l-0.039,-0.032l-0.039,-0.032l-0.039,-0.032l-0.039,-0.031l-0.04,-0.031l-0.04,-0.031l-0.039,-0.031l-0.041,-0.031l-0.04,-0.03l-0.04,-0.03l-0.041,-0.03l-0.041,-0.03l-0.041,-0.029l-0.041,-0.029l-0.041,-0.029l-0.042,-0.029l-0.042,-0.028l-0.042,-0.028l-0.042,-0.028l-0.042,-0.028l-0.043,-0.027l-0.042,-0.028l-0.043,-0.026l-0.043,-0.027l-0.043,-0.026l-0.044,-0.027l-0.043,-0.026l-0.044,-0.025l-0.044,-0.026l-0.043,-0.025l-0.045,-0.025l-0.044,-0.024l-0.044,-0.025l-0.045,-0.024l-0.045,-0.024l-0.045,-0.023l-0.045,-0.023l-0.045,-0.023l-0.046,-0.023l-0.045,-0.023l-0.046,-0.022l-0.046,-0.022l-0.046,-0.022l-0.046,-0.021l-0.047,-0.021l-0.046,-0.021l-0.047,-0.021l-0.047,-0.02l-0.047,-0.02l-0.047,-0.02l-0.047,-0.019l-0.047,-0.019l-0.048,-0.019l-0.048,-0.019l-0.047,-0.018l-0.048,-0.018l-0.048,-0.018l-0.049,-0.018l-0.048,-0.017l-0.049,-0.017l-0.048,-0.017l-0.049,-0.016l-0.049,-0.016l-0.049,-0.016l-0.049,-0.015l-0.049,-0.015l-0.05,-0.015l-0.049,-0.015l-0.05,-0.014l-0.05,-0.014l-0.05,-0.014l-0.05,-0.013l-0.05,-0.013l-0.05,-0.013l-0.051,-0.013l-0.05,-0.012l-0.051,-0.012l-0.051,-0.011l-0.05,-0.011l-0.051,-0.011l-0.051,-0.011l-0.052,-0.01l-0.051,-0.01l-0.051,-0.01l-0.052,-0.009l-0.052,-0.009l-0.051,-0.009l-0.052,-0.009l-0.052,-0.008l-0.052,-0.008l-0.053,-0.007l-0.052,-0.007l-0.052,-0.007l-0.053,-0.007l-0.052,-0.006l-0.053,-0.006l-0.053,-0.005l-0.053,-0.005l-0.053,-0.005l-0.053,-0.005l-0.053,-0.004l-0.053,-0.004l-0.054,-0.003l-0.053,-0.004l-0.054,-0.003l-0.053,-0.002l-0.054,-0.002l-0.054,-0.002l-0.054,-0.002l-0.054,-0.001l-0.054,-0.001l-0.054,0l-0.054,-0.001l-0.055,0.001Z" style="fill:#747474;"/><path d="M107.466,26.897l0.047,0.001l0.048,0l0.048,0.001l0.048,0.002l0.047,0.001l0.048,0.002l0.047,0.003l0.048,0.002l0.047,0.003l0.047,0.003l0.047,0.004l0.047,0.003l0.047,0.004l0.047,0.005l0.047,0.004l0.047,0.005l0.046,0.005l0.047,0.006l0.046,0.006l0.047,0.006l0.046,0.006l0.046,0.007l0.046,0.007l0.046,0.007l0.046,0.007l0.046,0.008l0.046,0.008l0.045,0.008l0.046,0.009l0.045,0.009l0.046,0.009l0.045,0.009l0.045,0.01l0.045,0.01l0.045,0.01l0.045,0.011l0.044,0.01l0.045,0.012l0.045,0.011l0.044,0.011l0.044,0.012l0.044,0.012l0.045,0.013l0.044,0.012l0.043,0.013l0.044,0.013l0.044,0.014l0.043,0.014l0.044,0.014l0.043,0.014l0.043,0.014l0.043,0.015l0.043,0.015l0.043,0.015l0.043,0.016l0.042,0.015l0.043,0.016l0.042,0.017l0.042,0.016l0.042,0.017l0.042,0.017l0.042,0.017l0.042,0.018l0.041,0.017l0.041,0.018l0.042,0.019l0.041,0.018l0.041,0.019l0.041,0.019l0.041,0.019l0.04,0.019l0.041,0.02l0.04,0.02l0.04,0.02l0.04,0.02l0.04,0.021l0.04,0.021l0.04,0.021l0.039,0.021l0.04,0.022l0.039,0.022l0.039,0.022l0.039,0.022l0.039,0.022l0.038,0.023l0.039,0.023l0.038,0.023l0.038,0.024l0.038,0.023l0.038,0.024l0.038,0.024l0.037,0.024l0.038,0.025l0.037,0.024l0.037,0.025l0.037,0.025l0.037,0.026l0.037,0.025l0.036,0.026l0.036,0.026l0.036,0.026l0.036,0.027l0.036,0.026l0.036,0.027l0.035,0.027l0.036,0.027l0.035,0.028l0.035,0.028l0.035,0.027l0.034,0.028l0.035,0.029l0.034,0.028l0.034,0.029l0.034,0.029l0.034,0.029l0.033,0.029l0.034,0.03l0.033,0.029l0.033,0.03l0.033,0.03l0.033,0.03l0.032,0.031l0.032,0.03l0.033,0.031l0.032,0.031l0.031,0.032l0.032,0.031l0.031,0.032l0.031,0.031l0.032,0.032l0.03,0.032l0.031,0.033l0.03,0.032l0.031,0.033l0.03,0.033l0.03,0.033l0.029,0.033l0.03,0.033l0.029,0.034l0.029,0.034l0.029,0.034l0.029,0.034l0.028,0.034l0.028,0.035l0.028,0.034l0.028,0.035l0.028,0.035l0.027,0.035l0.028,0.035l0.027,0.036l0.026,0.036l0.027,0.035l0.027,0.036l0.026,0.036l0.026,0.037l0.025,0.036l0.026,0.037l0.025,0.037l0.026,0.037l0.024,0.037l0.025,0.037l0.025,0.037l0.024,0.038l0.024,0.038l0.024,0.038l0.023,0.038l0.024,0.038l0.023,0.038l0.023,0.039l0.022,0.038l0.023,0.039l0.022,0.039l0.022,0.039l0.022,0.039l0.021,0.04l0.022,0.039l0.021,0.04l0.021,0.04l0.02,0.039l0.021,0.041l0.02,0.04l0.02,0.04l0.019,0.041l0.02,0.04l0.019,0.041l0.019,0.041l0.019,0.041l0.018,0.041l0.018,0.041l0.018,0.042l0.018,0.041l0.018,0.042l0.017,0.042l0.017,0.042l0.017,0.042l0.016,0.042l0.016,0.042l0.016,0.043l0.016,0.042l0.016,0.043l0.015,0.043l0.015,0.043l0.015,0.043l0.014,0.043l0.014,0.043l0.014,0.044l0.014,0.043l0.013,0.044l0.014,0.043l0.012,0.044l0.013,0.044l0.012,0.044l0.013,0.045l0.011,0.044l0.012,0.044l0.011,0.045l0.011,0.044l0.011,0.045l0.011,0.045l0.01,0.045l0.01,0.045l0.01,0.045l0.009,0.045l0.009,0.046l0.009,0.045l0.009,0.045l0.008,0.046l0.008,0.046l0.008,0.046l0.007,0.046l0.007,0.046l0.007,0.046l0.007,0.046l0.006,0.046l0.006,0.046l0.006,0.047l0.005,0.046l0.006,0.047l0.004,0.047l0.005,0.047l0.004,0.046l0.004,0.047l0.004,0.048l0.004,0.047l0.003,0.047l0.003,0.047l0.002,0.048l0.002,0.047l0.002,0.048l0.002,0.047l0.001,0.048l0.001,0.048l0.001,0.047l0.001,0.048l0,0.048l0,0.048l-0.001,0.048l-0.001,0.048l-0.001,0.048l-0.001,0.047l-0.002,0.048l-0.002,0.047l-0.002,0.048l-0.002,0.047l-0.003,0.048l-0.003,0.047l-0.004,0.047l-0.004,0.047l-0.004,0.047l-0.004,0.047l-0.005,0.047l-0.004,0.046l-0.006,0.047l-0.005,0.047l-0.006,0.046l-0.006,0.046l-0.006,0.047l-0.007,0.046l-0.007,0.046l-0.007,0.046l-0.007,0.046l-0.008,0.046l-0.008,0.045l-0.008,0.046l-0.009,0.046l-0.009,0.045l-0.009,0.045l-0.009,0.046l-0.01,0.045l-0.01,0.045l-0.01,0.045l-0.011,0.044l-0.011,0.045l-0.011,0.045l-0.011,0.044l-0.012,0.045l-0.011,0.044l-0.013,0.044l-0.012,0.044l-0.013,0.044l-0.012,0.044l-0.014,0.044l-0.013,0.043l-0.014,0.044l-0.014,0.043l-0.014,0.044l-0.014,0.043l-0.015,0.043l-0.015,0.043l-0.015,0.042l-0.016,0.043l-0.016,0.043l-0.016,0.042l-0.016,0.042l-0.016,0.043l-0.017,0.042l-0.017,0.042l-0.017,0.041l-0.018,0.042l-0.018,0.042l-0.018,0.041l-0.018,0.041l-0.018,0.042l-0.019,0.041l-0.019,0.041l-0.019,0.04l-0.02,0.041l-0.019,0.04l-0.02,0.041l-0.02,0.04l-0.021,0.04l-0.02,0.04l-0.021,0.04l-0.021,0.039l-0.022,0.04l-0.021,0.039l-0.022,0.04l-0.022,0.039l-0.022,0.039l-0.023,0.038l-0.022,0.039l-0.023,0.038l-0.023,0.039l-0.024,0.038l-0.023,0.038l-0.024,0.038l-0.024,0.038l-0.024,0.037l-0.025,0.038l-0.025,0.037l-0.024,0.037l-0.026,0.037l-0.025,0.037l-0.026,0.036l-0.025,0.037l-0.026,0.036l-0.026,0.036l-0.027,0.036l-0.027,0.036l-0.026,0.036l-0.027,0.035l-0.028,0.035l-0.027,0.035l-0.028,0.035l-0.028,0.035l-0.028,0.035l-0.028,0.034l-0.028,0.035l-0.029,0.034l-0.029,0.034l-0.029,0.033l-0.029,0.034l-0.03,0.033l-0.029,0.034l-0.03,0.033l-0.03,0.033l-0.031,0.032l-0.03,0.033l-0.031,0.032l-0.03,0.032l-0.032,0.032l-0.031,0.032l-0.031,0.032l-0.032,0.031l-0.031,0.031l-0.032,0.031l-0.033,0.031l-0.032,0.031l-0.032,0.03l-0.033,0.03l-0.033,0.03l-0.033,0.03l-0.033,0.03l-0.034,0.029l-0.033,0.03l-0.034,0.029l-0.034,0.029l-0.034,0.028l-0.034,0.029l-0.035,0.028l-0.034,0.028l-0.035,0.028l-0.035,0.028l-0.035,0.027l-0.036,0.027l-0.035,0.027l-0.036,0.027l-0.036,0.027l-0.036,0.026l-0.036,0.026l-0.036,0.026l-0.036,0.026l-0.037,0.026l-0.037,0.025l-0.037,0.025l-0.037,0.025l-0.037,0.025l-0.038,0.024l-0.037,0.025l-0.038,0.024l-0.038,0.023l-0.038,0.024l-0.038,0.023l-0.038,0.023l-0.039,0.023l-0.038,0.023l-0.039,0.023l-0.039,0.022l-0.039,0.022l-0.039,0.022l-0.04,0.021l-0.039,0.021l-0.04,0.022l-0.04,0.02l-0.04,0.021l-0.04,0.02l-0.04,0.021l-0.04,0.019l-0.041,0.02l-0.04,0.02l-0.041,0.019l-0.041,0.019l-0.041,0.018l-0.041,0.019l-0.042,0.018l-0.041,0.018l-0.041,0.018l-0.042,0.017l-0.042,0.018l-0.042,0.017l-0.042,0.016l-0.042,0.017l-0.042,0.016l-0.043,0.016l-0.042,0.016l-0.043,0.015l-0.043,0.016l-0.043,0.015l-0.043,0.014l-0.043,0.015l-0.043,0.014l-0.044,0.014l-0.043,0.014l-0.044,0.013l-0.044,0.013l-0.043,0.013l-0.044,0.013l-0.045,0.012l-0.044,0.012l-0.044,0.012l-0.044,0.012l-0.045,0.011l-0.045,0.011l-0.044,0.011l-0.045,0.01l-0.045,0.011l-0.045,0.01l-0.045,0.009l-0.045,0.01l-0.046,0.009l-0.045,0.009l-0.046,0.008l-0.045,0.008l-0.046,0.009l-0.046,0.007l-0.046,0.008l-0.046,0.007l-0.046,0.007l-0.046,0.006l-0.046,0.007l-0.047,0.006l-0.046,0.006l-0.047,0.005l-0.046,0.005l-0.047,0.005l-0.047,0.005l-0.047,0.004l-0.047,0.004l-0.047,0.004l-0.047,0.003l-0.047,0.003l-0.047,0.003l-0.048,0.003l-0.047,0.002l-0.048,0.002l-0.047,0.002l-0.048,0.001l-0.048,0.001l-0.048,0.001l-0.047,0l-0.048,0.001l-0.048,-0.001l-0.048,0l-0.048,-0.001l-0.048,-0.001l-0.048,-0.001l-0.047,-0.002l-0.048,-0.002l-0.047,-0.002l-0.048,-0.003l-0.047,-0.003l-0.047,-0.003l-0.047,-0.003l-0.047,-0.004l-0.047,-0.004l-0.047,-0.004l-0.047,-0.005l-0.047,-0.005l-0.046,-0.005l-0.047,-0.005l-0.046,-0.006l-0.047,-0.006l-0.046,-0.007l-0.046,-0.006l-0.046,-0.007l-0.046,-0.007l-0.046,-0.008l-0.046,-0.007l-0.046,-0.009l-0.045,-0.008l-0.046,-0.008l-0.045,-0.009l-0.045,-0.009l-0.046,-0.01l-0.045,-0.009l-0.045,-0.01l-0.045,-0.011l-0.045,-0.01l-0.044,-0.011l-0.045,-0.011l-0.044,-0.011l-0.045,-0.012l-0.044,-0.012l-0.044,-0.012l-0.044,-0.012l-0.044,-0.013l-0.044,-0.013l-0.044,-0.013l-0.044,-0.013l-0.043,-0.014l-0.043,-0.014l-0.044,-0.014l-0.043,-0.015l-0.043,-0.014l-0.043,-0.015l-0.043,-0.016l-0.042,-0.015l-0.043,-0.016l-0.042,-0.016l-0.043,-0.016l-0.042,-0.017l-0.042,-0.016l-0.042,-0.017l-0.042,-0.018l-0.041,-0.017l-0.042,-0.018l-0.041,-0.018l-0.042,-0.018l-0.041,-0.019l-0.041,-0.018l-0.041,-0.019l-0.04,-0.019l-0.041,-0.02l-0.041,-0.02l-0.04,-0.019l-0.04,-0.021l-0.04,-0.02l-0.04,-0.021l-0.04,-0.02l-0.04,-0.022l-0.039,-0.021l-0.039,-0.021l-0.04,-0.022l-0.039,-0.022l-0.039,-0.022l-0.038,-0.023l-0.039,-0.023l-0.039,-0.023l-0.038,-0.023l-0.038,-0.023l-0.038,-0.024l-0.038,-0.023l-0.038,-0.024l-0.037,-0.025l-0.038,-0.024l-0.037,-0.025l-0.037,-0.025l-0.037,-0.025l-0.037,-0.025l-0.036,-0.026l-0.037,-0.026l-0.036,-0.026l-0.036,-0.026l-0.036,-0.026l-0.036,-0.027l-0.036,-0.027l-0.035,-0.027l-0.036,-0.027l-0.035,-0.027l-0.035,-0.028l-0.034,-0.028l-0.035,-0.028l-0.035,-0.028l-0.034,-0.029l-0.034,-0.028l-0.034,-0.029l-0.034,-0.029l-0.033,-0.03l-0.034,-0.029l-0.033,-0.03l-0.033,-0.03l-0.033,-0.03l-0.032,-0.03l-0.033,-0.03l-0.032,-0.031l-0.032,-0.031l-0.032,-0.031l-0.032,-0.031l-0.032,-0.031l-0.031,-0.032l-0.031,-0.032l-0.031,-0.032l-0.031,-0.032l-0.031,-0.032l-0.03,-0.033l-0.03,-0.032l-0.031,-0.033l-0.029,-0.033l-0.03,-0.034l-0.03,-0.033l-0.029,-0.034l-0.029,-0.033l-0.029,-0.034l-0.028,-0.034l-0.029,-0.035l-0.028,-0.034l-0.028,-0.035l-0.028,-0.035l-0.028,-0.035l-0.027,-0.035l-0.027,-0.035l-0.028,-0.035l-0.026,-0.036l-0.027,-0.036l-0.026,-0.036l-0.027,-0.036l-0.026,-0.036l-0.025,-0.037l-0.026,-0.036l-0.025,-0.037l-0.025,-0.037l-0.025,-0.037l-0.025,-0.037l-0.024,-0.038l-0.025,-0.037l-0.024,-0.038l-0.024,-0.038l-0.023,-0.038l-0.024,-0.038l-0.023,-0.039l-0.023,-0.038l-0.022,-0.039l-0.023,-0.038l-0.022,-0.039l-0.022,-0.039l-0.022,-0.04l-0.021,-0.039l-0.022,-0.04l-0.021,-0.039l-0.021,-0.04l-0.02,-0.04l-0.021,-0.04l-0.02,-0.04l-0.02,-0.041l-0.019,-0.04l-0.02,-0.041l-0.019,-0.04l-0.019,-0.041l-0.019,-0.041l-0.018,-0.042l-0.018,-0.041l-0.018,-0.041l-0.018,-0.042l-0.018,-0.042l-0.017,-0.041l-0.017,-0.042l-0.017,-0.042l-0.016,-0.043l-0.016,-0.042l-0.016,-0.042l-0.016,-0.043l-0.015,-0.043l-0.016,-0.042l-0.015,-0.043l-0.014,-0.043l-0.015,-0.043l-0.014,-0.044l-0.014,-0.043l-0.014,-0.044l-0.013,-0.043l-0.013,-0.044l-0.013,-0.044l-0.013,-0.044l-0.012,-0.044l-0.012,-0.044l-0.012,-0.044l-0.012,-0.045l-0.011,-0.044l-0.011,-0.045l-0.011,-0.045l-0.01,-0.044l-0.011,-0.045l-0.01,-0.045l-0.009,-0.045l-0.01,-0.046l-0.009,-0.045l-0.009,-0.045l-0.008,-0.046l-0.009,-0.046l-0.008,-0.045l-0.007,-0.046l-0.008,-0.046l-0.007,-0.046l-0.007,-0.046l-0.007,-0.046l-0.006,-0.047l-0.006,-0.046l-0.006,-0.046l-0.005,-0.047l-0.005,-0.047l-0.005,-0.046l-0.005,-0.047l-0.004,-0.047l-0.004,-0.047l-0.004,-0.047l-0.003,-0.047l-0.004,-0.047l-0.002,-0.048l-0.003,-0.047l-0.002,-0.048l-0.002,-0.047l-0.002,-0.048l-0.001,-0.047l-0.001,-0.048l-0.001,-0.048l-0.001,-0.048l0,-0.048l0,-0.048l0.001,-0.048l0.001,-0.047l0.001,-0.048l0.001,-0.048l0.002,-0.047l0.002,-0.048l0.002,-0.047l0.003,-0.048l0.002,-0.047l0.004,-0.047l0.003,-0.047l0.004,-0.048l0.004,-0.047l0.004,-0.046l0.005,-0.047l0.005,-0.047l0.005,-0.047l0.005,-0.046l0.006,-0.047l0.006,-0.046l0.006,-0.046l0.007,-0.046l0.007,-0.046l0.007,-0.046l0.008,-0.046l0.007,-0.046l0.008,-0.046l0.009,-0.046l0.008,-0.045l0.009,-0.045l0.009,-0.046l0.01,-0.045l0.009,-0.045l0.01,-0.045l0.011,-0.045l0.01,-0.045l0.011,-0.045l0.011,-0.044l0.011,-0.045l0.012,-0.044l0.012,-0.044l0.012,-0.045l0.012,-0.044l0.013,-0.044l0.013,-0.044l0.013,-0.043l0.013,-0.044l0.014,-0.043l0.014,-0.044l0.014,-0.043l0.015,-0.043l0.014,-0.043l0.015,-0.043l0.016,-0.043l0.015,-0.043l0.016,-0.042l0.016,-0.043l0.016,-0.042l0.016,-0.042l0.017,-0.042l0.017,-0.042l0.017,-0.042l0.018,-0.042l0.018,-0.041l0.018,-0.042l0.018,-0.041l0.018,-0.041l0.019,-0.041l0.019,-0.041l0.019,-0.041l0.02,-0.04l0.019,-0.041l0.02,-0.04l0.02,-0.04l0.021,-0.041l0.02,-0.039l0.021,-0.04l0.021,-0.04l0.022,-0.039l0.021,-0.04l0.022,-0.039l0.022,-0.039l0.022,-0.039l0.023,-0.039l0.022,-0.038l0.023,-0.039l0.023,-0.038l0.024,-0.038l0.023,-0.038l0.024,-0.038l0.024,-0.038l0.025,-0.038l0.024,-0.037l0.025,-0.037l0.025,-0.037l0.025,-0.037l0.025,-0.037l0.026,-0.037l0.025,-0.036l0.026,-0.037l0.027,-0.036l0.026,-0.036l0.027,-0.035l0.026,-0.036l0.028,-0.036l0.027,-0.035l0.027,-0.035l0.028,-0.035l0.028,-0.035l0.028,-0.034l0.028,-0.035l0.029,-0.034l0.028,-0.034l0.029,-0.034l0.029,-0.034l0.029,-0.034l0.03,-0.033l0.03,-0.033l0.029,-0.033l0.031,-0.033l0.03,-0.033l0.03,-0.032l0.031,-0.033l0.031,-0.032l0.031,-0.032l0.031,-0.031l0.031,-0.032l0.032,-0.031l0.032,-0.032l0.032,-0.031l0.032,-0.031l0.032,-0.03l0.033,-0.031l0.032,-0.03l0.033,-0.03l0.033,-0.03l0.033,-0.029l0.034,-0.03l0.033,-0.029l0.034,-0.029l0.034,-0.029l0.034,-0.029l0.034,-0.028l0.035,-0.029l0.035,-0.028l0.034,-0.027l0.035,-0.028l0.035,-0.028l0.036,-0.027l0.035,-0.027l0.036,-0.027l0.036,-0.026l0.036,-0.027l0.036,-0.026l0.036,-0.026l0.037,-0.026l0.036,-0.025l0.037,-0.026l0.037,-0.025l0.037,-0.025l0.037,-0.024l0.038,-0.025l0.037,-0.024l0.038,-0.024l0.038,-0.024l0.038,-0.023l0.038,-0.024l0.038,-0.023l0.039,-0.023l0.039,-0.023l0.038,-0.022l0.039,-0.022l0.039,-0.022l0.04,-0.022l0.039,-0.022l0.039,-0.021l0.04,-0.021l0.04,-0.021l0.04,-0.021l0.04,-0.02l0.04,-0.02l0.04,-0.02l0.041,-0.02l0.041,-0.019l0.04,-0.019l0.041,-0.019l0.041,-0.019l0.041,-0.018l0.042,-0.019l0.041,-0.018l0.042,-0.017l0.041,-0.018l0.042,-0.017l0.042,-0.017l0.042,-0.017l0.042,-0.016l0.043,-0.017l0.042,-0.016l0.043,-0.015l0.042,-0.016l0.043,-0.015l0.043,-0.015l0.043,-0.015l0.043,-0.014l0.044,-0.014l0.043,-0.014l0.043,-0.014l0.044,-0.014l0.044,-0.013l0.044,-0.013l0.044,-0.012l0.044,-0.013l0.044,-0.012l0.044,-0.012l0.045,-0.011l0.044,-0.011l0.045,-0.012l0.044,-0.01l0.045,-0.011l0.045,-0.01l0.045,-0.01l0.045,-0.01l0.046,-0.009l0.045,-0.009l0.045,-0.009l0.046,-0.009l0.045,-0.008l0.046,-0.008l0.046,-0.008l0.046,-0.007l0.046,-0.007l0.046,-0.007l0.046,-0.007l0.046,-0.006l0.047,-0.006l0.046,-0.006l0.047,-0.006l0.046,-0.005l0.047,-0.005l0.047,-0.004l0.047,-0.005l0.047,-0.004l0.047,-0.003l0.047,-0.004l0.047,-0.003l0.047,-0.003l0.048,-0.002l0.047,-0.003l0.048,-0.002l0.047,-0.001l0.048,-0.002l0.048,-0.001l0.048,0l0.048,-0.001l0.048,0l0.048,0Zm-0.095,0.25l-0.046,0.001l-0.046,0l-0.047,0.001l-0.046,0.002l-0.046,0.001l-0.046,0.002l-0.045,0.002l-0.046,0.003l-0.046,0.003l-0.046,0.003l-0.045,0.003l-0.046,0.004l-0.045,0.003l-0.045,0.005l-0.046,0.004l-0.045,0.005l-0.045,0.005l-0.045,0.005l-0.045,0.006l-0.044,0.006l-0.045,0.006l-0.045,0.006l-0.044,0.007l-0.045,0.007l-0.044,0.007l-0.044,0.007l-0.045,0.008l-0.044,0.008l-0.044,0.008l-0.044,0.009l-0.043,0.009l-0.044,0.009l-0.044,0.009l-0.043,0.01l-0.043,0.01l-0.044,0.01l-0.043,0.01l-0.043,0.011l-0.043,0.011l-0.043,0.011l-0.043,0.012l-0.042,0.011l-0.043,0.012l-0.042,0.012l-0.043,0.013l-0.042,0.013l-0.042,0.013l-0.042,0.013l-0.042,0.013l-0.042,0.014l-0.042,0.014l-0.041,0.014l-0.042,0.015l-0.041,0.014l-0.041,0.015l-0.041,0.016l-0.041,0.015l-0.041,0.016l-0.041,0.016l-0.041,0.016l-0.04,0.016l-0.041,0.017l-0.04,0.017l-0.04,0.017l-0.04,0.017l-0.04,0.018l-0.04,0.018l-0.039,0.018l-0.04,0.018l-0.039,0.019l-0.04,0.019l-0.039,0.019l-0.039,0.019l-0.038,0.019l-0.039,0.02l-0.039,0.02l-0.038,0.02l-0.039,0.02l-0.038,0.021l-0.038,0.021l-0.038,0.021l-0.037,0.021l-0.038,0.022l-0.037,0.021l-0.038,0.022l-0.037,0.022l-0.037,0.023l-0.037,0.022l-0.037,0.023l-0.036,0.023l-0.037,0.023l-0.036,0.024l-0.036,0.023l-0.036,0.024l-0.036,0.024l-0.036,0.025l-0.035,0.024l-0.036,0.025l-0.035,0.025l-0.035,0.025l-0.035,0.025l-0.035,0.026l-0.034,0.026l-0.035,0.025l-0.034,0.027l-0.034,0.026l-0.034,0.026l-0.034,0.027l-0.034,0.027l-0.033,0.027l-0.033,0.028l-0.034,0.027l-0.033,0.028l-0.032,0.028l-0.033,0.028l-0.032,0.028l-0.033,0.029l-0.032,0.028l-0.032,0.029l-0.032,0.029l-0.031,0.029l-0.032,0.03l-0.031,0.029l-0.031,0.03l-0.031,0.03l-0.03,0.03l-0.031,0.031l-0.03,0.03l-0.03,0.031l-0.03,0.031l-0.03,0.031l-0.03,0.031l-0.029,0.032l-0.03,0.031l-0.029,0.032l-0.028,0.032l-0.029,0.032l-0.029,0.032l-0.028,0.033l-0.028,0.032l-0.028,0.033l-0.028,0.033l-0.027,0.033l-0.027,0.034l-0.028,0.033l-0.026,0.034l-0.027,0.033l-0.027,0.034l-0.026,0.035l-0.026,0.034l-0.026,0.034l-0.026,0.035l-0.025,0.035l-0.026,0.035l-0.025,0.035l-0.025,0.035l-0.024,0.035l-0.025,0.036l-0.024,0.036l-0.024,0.035l-0.024,0.036l-0.024,0.037l-0.023,0.036l-0.023,0.036l-0.023,0.037l-0.023,0.037l-0.023,0.037l-0.022,0.037l-0.022,0.037l-0.022,0.037l-0.022,0.038l-0.022,0.037l-0.021,0.038l-0.021,0.038l-0.021,0.038l-0.02,0.038l-0.021,0.038l-0.02,0.039l-0.02,0.038l-0.019,0.039l-0.02,0.039l-0.019,0.039l-0.019,0.039l-0.019,0.039l-0.018,0.04l-0.019,0.039l-0.018,0.04l-0.018,0.04l-0.017,0.04l-0.018,0.04l-0.017,0.04l-0.017,0.04l-0.016,0.04l-0.017,0.041l-0.016,0.041l-0.016,0.04l-0.016,0.041l-0.015,0.041l-0.015,0.041l-0.015,0.042l-0.015,0.041l-0.014,0.041l-0.015,0.042l-0.014,0.042l-0.013,0.041l-0.014,0.042l-0.013,0.042l-0.013,0.043l-0.013,0.042l-0.012,0.042l-0.012,0.043l-0.012,0.042l-0.012,0.043l-0.012,0.043l-0.011,0.043l-0.011,0.043l-0.01,0.043l-0.011,0.043l-0.01,0.043l-0.01,0.044l-0.009,0.043l-0.01,0.044l-0.009,0.043l-0.009,0.044l-0.008,0.044l-0.009,0.044l-0.008,0.044l-0.007,0.044l-0.008,0.045l-0.007,0.044l-0.007,0.044l-0.007,0.045l-0.006,0.045l-0.006,0.044l-0.006,0.045l-0.006,0.045l-0.005,0.045l-0.005,0.045l-0.005,0.045l-0.004,0.045l-0.004,0.046l-0.004,0.045l-0.004,0.045l-0.003,0.046l-0.003,0.046l-0.003,0.045l-0.002,0.046l-0.003,0.046l-0.001,0.046l-0.002,0.046l-0.001,0.046l-0.001,0.046l-0.001,0.047l-0.001,0.046l0,0.046l0,0.047l0.001,0.046l0.001,0.046l0.001,0.046l0.001,0.046l0.002,0.046l0.001,0.046l0.003,0.046l0.002,0.046l0.003,0.046l0.003,0.045l0.003,0.046l0.004,0.045l0.004,0.046l0.004,0.045l0.004,0.045l0.005,0.046l0.005,0.045l0.005,0.045l0.006,0.044l0.006,0.045l0.006,0.045l0.006,0.045l0.007,0.044l0.007,0.045l0.007,0.044l0.008,0.044l0.007,0.044l0.008,0.044l0.009,0.044l0.008,0.044l0.009,0.044l0.009,0.044l0.01,0.043l0.009,0.044l0.01,0.043l0.01,0.044l0.011,0.043l0.01,0.043l0.011,0.043l0.011,0.043l0.012,0.043l0.012,0.042l0.012,0.043l0.012,0.042l0.012,0.043l0.013,0.042l0.013,0.042l0.013,0.042l0.014,0.042l0.013,0.042l0.014,0.042l0.015,0.041l0.014,0.042l0.015,0.041l0.015,0.041l0.015,0.041l0.015,0.041l0.016,0.041l0.016,0.041l0.016,0.041l0.017,0.04l0.016,0.04l0.017,0.041l0.017,0.04l0.018,0.04l0.017,0.04l0.018,0.04l0.018,0.039l0.019,0.04l0.018,0.039l0.019,0.039l0.019,0.039l0.019,0.039l0.02,0.039l0.019,0.039l0.02,0.039l0.02,0.038l0.021,0.038l0.02,0.039l0.021,0.038l0.021,0.037l0.021,0.038l0.022,0.038l0.022,0.037l0.022,0.038l0.022,0.037l0.022,0.037l0.023,0.037l0.023,0.037l0.023,0.036l0.023,0.037l0.023,0.036l0.024,0.036l0.024,0.036l0.024,0.036l0.024,0.036l0.025,0.035l0.024,0.036l0.025,0.035l0.025,0.035l0.026,0.035l0.025,0.035l0.026,0.034l0.026,0.035l0.026,0.034l0.026,0.034l0.027,0.034l0.027,0.034l0.026,0.033l0.028,0.034l0.027,0.033l0.027,0.033l0.028,0.033l0.028,0.033l0.028,0.033l0.028,0.032l0.029,0.032l0.029,0.033l0.028,0.032l0.029,0.031l0.03,0.032l0.029,0.031l0.03,0.032l0.03,0.031l0.03,0.031l0.03,0.03l0.03,0.031l0.031,0.03l0.03,0.03l0.031,0.03l0.031,0.03l0.031,0.03l0.032,0.029l0.031,0.029l0.032,0.029l0.032,0.029l0.032,0.029l0.033,0.028l0.032,0.029l0.033,0.028l0.033,0.028l0.032,0.027l0.034,0.028l0.033,0.027l0.033,0.027l0.034,0.027l0.034,0.027l0.034,0.027l0.034,0.026l0.034,0.026l0.035,0.026l0.034,0.026l0.035,0.025l0.035,0.026l0.035,0.025l0.035,0.025l0.036,0.024l0.035,0.025l0.036,0.024l0.036,0.024l0.036,0.024l0.036,0.024l0.036,0.023l0.037,0.023l0.036,0.023l0.037,0.023l0.037,0.023l0.037,0.022l0.037,0.022l0.038,0.022l0.037,0.022l0.038,0.021l0.037,0.022l0.038,0.021l0.038,0.02l0.038,0.021l0.039,0.02l0.038,0.021l0.039,0.02l0.039,0.019l0.038,0.02l0.039,0.019l0.039,0.019l0.04,0.019l0.039,0.018l0.04,0.019l0.039,0.018l0.04,0.017l0.04,0.018l0.04,0.017l0.04,0.018l0.04,0.017l0.041,0.016l0.04,0.017l0.041,0.016l0.041,0.016l0.041,0.015l0.041,0.016l0.041,0.015l0.041,0.015l0.041,0.015l0.042,0.014l0.041,0.014l0.042,0.014l0.042,0.014l0.042,0.014l0.042,0.013l0.042,0.013l0.042,0.013l0.043,0.012l0.042,0.012l0.043,0.012l0.042,0.012l0.043,0.011l0.043,0.012l0.043,0.01l0.043,0.011l0.043,0.011l0.044,0.01l0.043,0.01l0.043,0.009l0.044,0.01l0.044,0.009l0.043,0.009l0.044,0.008l0.044,0.008l0.044,0.008l0.045,0.008l0.044,0.008l0.044,0.007l0.045,0.007l0.044,0.006l0.045,0.007l0.045,0.006l0.044,0.006l0.045,0.005l0.045,0.006l0.045,0.005l0.045,0.004l0.046,0.005l0.045,0.004l0.045,0.004l0.046,0.004l0.045,0.003l0.046,0.003l0.046,0.003l0.046,0.002l0.045,0.002l0.046,0.002l0.046,0.002l0.046,0.001l0.047,0.001l0.046,0.001l0.046,0l0.047,0.001l0.046,-0.001l0.046,0l0.047,-0.001l0.046,-0.001l0.046,-0.001l0.046,-0.002l0.046,-0.002l0.046,-0.002l0.045,-0.002l0.046,-0.003l0.046,-0.003l0.045,-0.003l0.046,-0.004l0.045,-0.004l0.045,-0.004l0.046,-0.005l0.045,-0.004l0.045,-0.005l0.045,-0.006l0.045,-0.005l0.045,-0.006l0.044,-0.006l0.045,-0.007l0.044,-0.006l0.045,-0.007l0.044,-0.007l0.045,-0.008l0.044,-0.008l0.044,-0.008l0.044,-0.008l0.044,-0.008l0.043,-0.009l0.044,-0.009l0.044,-0.01l0.043,-0.009l0.044,-0.01l0.043,-0.01l0.043,-0.011l0.043,-0.011l0.043,-0.01l0.043,-0.012l0.043,-0.011l0.043,-0.012l0.042,-0.012l0.043,-0.012l0.042,-0.012l0.042,-0.013l0.042,-0.013l0.042,-0.013l0.042,-0.014l0.042,-0.014l0.042,-0.014l0.041,-0.014l0.042,-0.014l0.041,-0.015l0.041,-0.015l0.042,-0.015l0.041,-0.016l0.04,-0.015l0.041,-0.016l0.041,-0.016l0.04,-0.017l0.041,-0.016l0.04,-0.017l0.04,-0.018l0.04,-0.017l0.04,-0.018l0.04,-0.017l0.04,-0.018l0.039,-0.019l0.039,-0.018l0.04,-0.019l0.039,-0.019l0.039,-0.019l0.039,-0.02l0.038,-0.019l0.039,-0.02l0.038,-0.021l0.039,-0.02l0.038,-0.021l0.038,-0.02l0.038,-0.021l0.038,-0.022l0.037,-0.021l0.038,-0.022l0.037,-0.022l0.037,-0.022l0.037,-0.022l0.037,-0.023l0.037,-0.023l0.036,-0.023l0.037,-0.023l0.036,-0.023l0.036,-0.024l0.036,-0.024l0.036,-0.024l0.036,-0.024l0.036,-0.025l0.035,-0.024l0.035,-0.025l0.035,-0.025l0.035,-0.026l0.035,-0.025l0.035,-0.026l0.034,-0.026l0.034,-0.026l0.034,-0.026l0.034,-0.027l0.034,-0.027l0.034,-0.027l0.033,-0.027l0.034,-0.027l0.033,-0.028l0.033,-0.027l0.032,-0.028l0.033,-0.028l0.033,-0.029l0.032,-0.028l0.032,-0.029l0.032,-0.029l0.032,-0.029l0.031,-0.029l0.032,-0.029l0.031,-0.03l0.031,-0.03l0.031,-0.03l0.031,-0.03l0.03,-0.03l0.03,-0.031l0.031,-0.03l0.03,-0.031l0.029,-0.031l0.03,-0.032l0.029,-0.031l0.03,-0.032l0.029,-0.031l0.029,-0.032l0.028,-0.033l0.029,-0.032l0.028,-0.032l0.028,-0.033l0.028,-0.033l0.028,-0.033l0.027,-0.033l0.028,-0.033l0.027,-0.034l0.027,-0.033l0.026,-0.034l0.027,-0.034l0.026,-0.034l0.026,-0.034l0.026,-0.035l0.026,-0.034l0.026,-0.035l0.025,-0.035l0.025,-0.035l0.025,-0.035l0.025,-0.036l0.024,-0.035l0.024,-0.036l0.024,-0.036l0.024,-0.036l0.024,-0.036l0.023,-0.036l0.024,-0.037l0.023,-0.036l0.022,-0.037l0.023,-0.037l0.022,-0.037l0.023,-0.037l0.021,-0.038l0.022,-0.037l0.022,-0.038l0.021,-0.038l0.021,-0.037l0.021,-0.038l0.02,-0.039l0.021,-0.038l0.02,-0.038l0.02,-0.039l0.02,-0.039l0.019,-0.039l0.019,-0.039l0.019,-0.039l0.019,-0.039l0.019,-0.039l0.018,-0.04l0.018,-0.039l0.018,-0.04l0.017,-0.04l0.018,-0.04l0.017,-0.04l0.017,-0.041l0.017,-0.04l0.016,-0.04l0.016,-0.041l0.016,-0.041l0.016,-0.041l0.015,-0.041l0.015,-0.041l0.015,-0.041l0.015,-0.041l0.015,-0.042l0.014,-0.041l0.014,-0.042l0.014,-0.042l0.013,-0.042l0.013,-0.042l0.013,-0.042l0.013,-0.042l0.012,-0.043l0.013,-0.042l0.012,-0.043l0.011,-0.042l0.012,-0.043l0.011,-0.043l0.011,-0.043l0.01,-0.043l0.011,-0.043l0.01,-0.044l0.01,-0.043l0.01,-0.044l0.009,-0.043l0.009,-0.044l0.009,-0.044l0.008,-0.044l0.009,-0.044l0.008,-0.044l0.007,-0.044l0.008,-0.044l0.007,-0.044l0.007,-0.045l0.007,-0.044l0.006,-0.045l0.006,-0.045l0.006,-0.045l0.006,-0.044l0.005,-0.045l0.005,-0.045l0.005,-0.046l0.004,-0.045l0.004,-0.045l0.004,-0.046l0.004,-0.045l0.003,-0.046l0.003,-0.045l0.003,-0.046l0.002,-0.046l0.003,-0.046l0.002,-0.046l0.001,-0.046l0.001,-0.046l0.002,-0.046l0,-0.046l0.001,-0.046l0,-0.047l0,-0.046l-0.001,-0.046l0,-0.047l-0.002,-0.046l-0.001,-0.046l-0.001,-0.046l-0.002,-0.046l-0.003,-0.046l-0.002,-0.046l-0.003,-0.045l-0.003,-0.046l-0.003,-0.045l-0.004,-0.046l-0.004,-0.045l-0.004,-0.046l-0.004,-0.045l-0.005,-0.045l-0.005,-0.045l-0.005,-0.045l-0.006,-0.045l-0.006,-0.045l-0.006,-0.044l-0.006,-0.045l-0.007,-0.045l-0.007,-0.044l-0.007,-0.044l-0.008,-0.045l-0.007,-0.044l-0.008,-0.044l-0.009,-0.044l-0.008,-0.044l-0.009,-0.044l-0.009,-0.043l-0.009,-0.044l-0.01,-0.043l-0.01,-0.044l-0.01,-0.043l-0.011,-0.043l-0.01,-0.043l-0.011,-0.043l-0.011,-0.043l-0.012,-0.043l-0.011,-0.043l-0.012,-0.042l-0.013,-0.043l-0.012,-0.042l-0.013,-0.042l-0.013,-0.043l-0.013,-0.042l-0.013,-0.042l-0.014,-0.041l-0.014,-0.042l-0.014,-0.042l-0.015,-0.041l-0.015,-0.041l-0.015,-0.042l-0.015,-0.041l-0.015,-0.041l-0.016,-0.041l-0.016,-0.04l-0.016,-0.041l-0.016,-0.041l-0.017,-0.04l-0.017,-0.04l-0.017,-0.04l-0.018,-0.04l-0.017,-0.04l-0.018,-0.04l-0.018,-0.04l-0.018,-0.039l-0.019,-0.04l-0.019,-0.039l-0.019,-0.039l-0.019,-0.039l-0.019,-0.039l-0.02,-0.039l-0.02,-0.038l-0.02,-0.039l-0.021,-0.038l-0.02,-0.038l-0.021,-0.038l-0.021,-0.038l-0.021,-0.038l-0.022,-0.037l-0.022,-0.038l-0.021,-0.037l-0.023,-0.037l-0.022,-0.037l-0.023,-0.037l-0.022,-0.037l-0.023,-0.037l-0.024,-0.036l-0.023,-0.036l-0.024,-0.037l-0.024,-0.036l-0.024,-0.035l-0.024,-0.036l-0.024,-0.036l-0.025,-0.035l-0.025,-0.035l-0.025,-0.035l-0.025,-0.035l-0.026,-0.035l-0.026,-0.035l-0.026,-0.034l-0.026,-0.034l-0.026,-0.035l-0.027,-0.034l-0.026,-0.033l-0.027,-0.034l-0.027,-0.033l-0.028,-0.034l-0.027,-0.033l-0.028,-0.033l-0.028,-0.033l-0.028,-0.032l-0.028,-0.033l-0.029,-0.032l-0.028,-0.032l-0.029,-0.032l-0.029,-0.032l-0.03,-0.031l-0.029,-0.032l-0.03,-0.031l-0.029,-0.031l-0.03,-0.031l-0.031,-0.031l-0.03,-0.03l-0.03,-0.031l-0.031,-0.03l-0.031,-0.03l-0.031,-0.03l-0.031,-0.029l-0.032,-0.03l-0.031,-0.029l-0.032,-0.029l-0.032,-0.029l-0.032,-0.028l-0.032,-0.029l-0.033,-0.028l-0.033,-0.028l-0.032,-0.028l-0.033,-0.028l-0.033,-0.027l-0.034,-0.028l-0.033,-0.027l-0.034,-0.027l-0.034,-0.027l-0.034,-0.026l-0.034,-0.026l-0.034,-0.027l-0.034,-0.025l-0.035,-0.026l-0.035,-0.026l-0.035,-0.025l-0.035,-0.025l-0.035,-0.025l-0.035,-0.025l-0.036,-0.024l-0.036,-0.025l-0.036,-0.024l-0.036,-0.023l-0.036,-0.024l-0.036,-0.024l-0.037,-0.023l-0.036,-0.023l-0.037,-0.023l-0.037,-0.022l-0.037,-0.023l-0.037,-0.022l-0.037,-0.022l-0.038,-0.021l-0.037,-0.022l-0.038,-0.021l-0.038,-0.021l-0.038,-0.021l-0.038,-0.021l-0.039,-0.02l-0.038,-0.02l-0.039,-0.02l-0.038,-0.02l-0.039,-0.019l-0.039,-0.019l-0.039,-0.019l-0.04,-0.019l-0.039,-0.019l-0.039,-0.018l-0.04,-0.018l-0.04,-0.018l-0.04,-0.018l-0.04,-0.017l-0.04,-0.017l-0.04,-0.017l-0.041,-0.017l-0.04,-0.016l-0.041,-0.016l-0.041,-0.016l-0.04,-0.016l-0.041,-0.015l-0.042,-0.016l-0.041,-0.015l-0.041,-0.014l-0.042,-0.015l-0.041,-0.014l-0.042,-0.014l-0.042,-0.014l-0.042,-0.013l-0.042,-0.013l-0.042,-0.013l-0.042,-0.013l-0.042,-0.013l-0.043,-0.012l-0.042,-0.012l-0.043,-0.011l-0.043,-0.012l-0.043,-0.011l-0.043,-0.011l-0.043,-0.011l-0.043,-0.01l-0.043,-0.01l-0.044,-0.01l-0.043,-0.01l-0.044,-0.009l-0.044,-0.009l-0.043,-0.009l-0.044,-0.009l-0.044,-0.008l-0.044,-0.008l-0.044,-0.008l-0.045,-0.007l-0.044,-0.007l-0.045,-0.007l-0.044,-0.007l-0.045,-0.006l-0.044,-0.006l-0.045,-0.006l-0.045,-0.006l-0.045,-0.005l-0.045,-0.005l-0.045,-0.005l-0.046,-0.004l-0.045,-0.005l-0.045,-0.003l-0.046,-0.004l-0.045,-0.003l-0.046,-0.003l-0.046,-0.003l-0.045,-0.003l-0.046,-0.002l-0.046,-0.002l-0.046,-0.001l-0.046,-0.002l-0.046,-0.001l-0.047,0l-0.046,-0.001l-0.046,0l-0.047,0Z" style="fill:#747474;"/><path d="M107.448,29.551l0.031,0l0.031,0.001l0.031,0l0.03,0.001l0.031,0.001l0.03,0.001l0.031,0.002l0.03,0.002l0.031,0.001l0.03,0.002l0.03,0.003l0.03,0.002l0.031,0.003l0.03,0.002l0.03,0.003l0.03,0.003l0.03,0.004l0.03,0.003l0.03,0.004l0.029,0.004l0.03,0.004l0.03,0.004l0.029,0.005l0.03,0.004l0.029,0.005l0.03,0.005l0.029,0.005l0.03,0.006l0.029,0.005l0.029,0.006l0.029,0.006l0.029,0.006l0.029,0.006l0.029,0.006l0.029,0.007l0.029,0.007l0.028,0.007l0.029,0.007l0.029,0.007l0.028,0.007l0.029,0.008l0.028,0.008l0.028,0.008l0.029,0.008l0.028,0.008l0.028,0.009l0.028,0.008l0.028,0.009l0.028,0.009l0.028,0.009l0.027,0.009l0.028,0.01l0.028,0.009l0.027,0.01l0.027,0.01l0.055,0.021l0.054,0.021l0.054,0.021l0.054,0.023l0.053,0.023l0.053,0.023l0.053,0.024l0.052,0.025l0.052,0.026l0.052,0.026l0.051,0.026l0.051,0.028l0.05,0.027l0.05,0.029l0.05,0.029l0.049,0.029l0.049,0.031l0.049,0.03l0.048,0.032l0.048,0.032l0.047,0.032l0.047,0.033l0.047,0.033l0.046,0.035l0.046,0.034l0.045,0.035l0.045,0.036l0.044,0.036l0.044,0.037l0.044,0.037l0.043,0.038l0.042,0.038l0.042,0.039l0.042,0.039l0.041,0.04l0.041,0.04l0.04,0.041l0.04,0.041l0.039,0.042l0.039,0.042l0.038,0.042l0.038,0.043l0.037,0.044l0.037,0.044l0.036,0.044l0.036,0.045l0.035,0.045l0.034,0.046l0.034,0.046l0.034,0.047l0.033,0.047l0.032,0.047l0.032,0.048l0.031,0.048l0.031,0.048l0.03,0.049l0.03,0.05l0.029,0.049l0.028,0.051l0.028,0.05l0.027,0.051l0.027,0.051l0.026,0.052l0.026,0.052l0.024,0.052l0.025,0.053l0.023,0.053l0.023,0.053l0.022,0.053l0.022,0.054l0.021,0.055l0.021,0.054l0.01,0.028l0.009,0.027l0.01,0.028l0.009,0.028l0.01,0.027l0.009,0.028l0.009,0.028l0.009,0.028l0.008,0.028l0.009,0.028l0.008,0.028l0.008,0.028l0.008,0.029l0.008,0.028l0.007,0.029l0.008,0.028l0.007,0.029l0.007,0.028l0.007,0.029l0.007,0.029l0.007,0.029l0.006,0.029l0.006,0.029l0.006,0.029l0.006,0.029l0.006,0.029l0.005,0.029l0.006,0.03l0.005,0.029l0.005,0.029l0.005,0.03l0.004,0.029l0.005,0.03l0.004,0.03l0.004,0.029l0.004,0.03l0.004,0.03l0.003,0.03l0.003,0.03l0.004,0.03l0.002,0.03l0.003,0.03l0.003,0.03l0.002,0.031l0.002,0.03l0.002,0.03l0.002,0.031l0.002,0.03l0.001,0.03l0.002,0.031l0.001,0.031l0.001,0.03l0,0.031l0.001,0.031l0,0.03l0,0.031l0,0.031l0,0.031l-0.001,0.031l0,0.03l-0.001,0.031l-0.001,0.03l-0.002,0.031l-0.001,0.03l-0.002,0.031l-0.002,0.03l-0.002,0.031l-0.002,0.03l-0.002,0.03l-0.003,0.03l-0.003,0.03l-0.002,0.031l-0.004,0.03l-0.003,0.029l-0.003,0.03l-0.004,0.03l-0.004,0.03l-0.004,0.03l-0.004,0.029l-0.005,0.03l-0.004,0.03l-0.005,0.029l-0.005,0.03l-0.005,0.029l-0.006,0.029l-0.005,0.029l-0.006,0.03l-0.006,0.029l-0.006,0.029l-0.006,0.029l-0.006,0.029l-0.007,0.029l-0.007,0.028l-0.007,0.029l-0.007,0.029l-0.007,0.028l-0.008,0.029l-0.007,0.028l-0.008,0.029l-0.008,0.028l-0.008,0.028l-0.008,0.028l-0.009,0.029l-0.008,0.028l-0.009,0.028l-0.009,0.027l-0.009,0.028l-0.01,0.028l-0.009,0.028l-0.01,0.027l-0.009,0.028l-0.01,0.027l-0.021,0.055l-0.021,0.054l-0.022,0.054l-0.022,0.054l-0.023,0.053l-0.023,0.053l-0.025,0.053l-0.024,0.052l-0.026,0.052l-0.026,0.051l-0.027,0.052l-0.027,0.05l-0.028,0.051l-0.028,0.05l-0.029,0.05l-0.03,0.049l-0.03,0.049l-0.031,0.049l-0.031,0.048l-0.032,0.048l-0.032,0.047l-0.033,0.047l-0.034,0.046l-0.034,0.047l-0.034,0.045l-0.035,0.046l-0.036,0.044l-0.036,0.045l-0.037,0.044l-0.037,0.043l-0.038,0.043l-0.038,0.043l-0.039,0.042l-0.039,0.042l-0.04,0.041l-0.04,0.04l-0.041,0.041l-0.041,0.039l-0.042,0.04l-0.042,0.038l-0.042,0.039l-0.043,0.037l-0.044,0.038l-0.044,0.036l-0.044,0.037l-0.045,0.035l-0.045,0.035l-0.046,0.035l-0.046,0.034l-0.047,0.034l-0.047,0.033l-0.047,0.032l-0.048,0.032l-0.048,0.031l-0.049,0.031l-0.049,0.03l-0.049,0.03l-0.05,0.029l-0.05,0.028l-0.05,0.028l-0.051,0.027l-0.051,0.027l-0.052,0.026l-0.052,0.025l-0.052,0.025l-0.053,0.024l-0.053,0.024l-0.053,0.023l-0.054,0.022l-0.054,0.022l-0.054,0.021l-0.055,0.02l-0.027,0.01l-0.027,0.01l-0.028,0.01l-0.028,0.009l-0.027,0.009l-0.028,0.01l-0.028,0.008l-0.028,0.009l-0.028,0.009l-0.028,0.008l-0.028,0.009l-0.029,0.008l-0.028,0.008l-0.028,0.008l-0.029,0.007l-0.028,0.008l-0.029,0.007l-0.029,0.007l-0.028,0.007l-0.029,0.007l-0.029,0.006l-0.029,0.007l-0.029,0.006l-0.029,0.006l-0.029,0.006l-0.029,0.005l-0.029,0.006l-0.03,0.005l-0.029,0.005l-0.03,0.005l-0.029,0.005l-0.03,0.005l-0.029,0.004l-0.03,0.005l-0.03,0.004l-0.029,0.003l-0.03,0.004l-0.03,0.004l-0.03,0.003l-0.03,0.003l-0.03,0.003l-0.03,0.003l-0.031,0.002l-0.03,0.003l-0.03,0.002l-0.03,0.002l-0.031,0.002l-0.03,0.002l-0.031,0.001l-0.03,0.001l-0.031,0.001l-0.03,0.001l-0.031,0.001l-0.031,0l-0.031,0.001l-0.03,0l-0.031,0l-0.031,-0.001l-0.031,0l-0.03,-0.001l-0.031,-0.001l-0.031,-0.001l-0.03,-0.001l-0.031,-0.001l-0.03,-0.002l-0.03,-0.002l-0.031,-0.002l-0.03,-0.002l-0.03,-0.003l-0.03,-0.002l-0.031,-0.003l-0.03,-0.003l-0.03,-0.003l-0.03,-0.003l-0.03,-0.004l-0.029,-0.004l-0.03,-0.003l-0.03,-0.004l-0.03,-0.005l-0.029,-0.004l-0.03,-0.005l-0.029,-0.005l-0.03,-0.005l-0.029,-0.005l-0.029,-0.005l-0.03,-0.006l-0.029,-0.005l-0.029,-0.006l-0.029,-0.006l-0.029,-0.006l-0.029,-0.007l-0.029,-0.006l-0.029,-0.007l-0.028,-0.007l-0.029,-0.007l-0.029,-0.007l-0.028,-0.008l-0.029,-0.007l-0.028,-0.008l-0.028,-0.008l-0.028,-0.008l-0.029,-0.009l-0.028,-0.008l-0.028,-0.009l-0.028,-0.009l-0.028,-0.008l-0.027,-0.01l-0.028,-0.009l-0.028,-0.009l-0.027,-0.01l-0.028,-0.01l-0.027,-0.01l-0.055,-0.02l-0.054,-0.021l-0.054,-0.022l-0.054,-0.022l-0.053,-0.023l-0.053,-0.024l-0.053,-0.024l-0.052,-0.025l-0.052,-0.025l-0.052,-0.026l-0.051,-0.027l-0.051,-0.027l-0.05,-0.028l-0.05,-0.028l-0.05,-0.029l-0.049,-0.03l-0.049,-0.03l-0.049,-0.031l-0.048,-0.031l-0.048,-0.032l-0.047,-0.032l-0.047,-0.033l-0.047,-0.034l-0.046,-0.034l-0.045,-0.035l-0.046,-0.035l-0.045,-0.035l-0.044,-0.037l-0.044,-0.036l-0.043,-0.038l-0.043,-0.037l-0.043,-0.039l-0.042,-0.038l-0.042,-0.04l-0.041,-0.039l-0.041,-0.041l-0.04,-0.04l-0.04,-0.041l-0.039,-0.042l-0.039,-0.042l-0.038,-0.043l-0.038,-0.043l-0.037,-0.043l-0.037,-0.044l-0.036,-0.045l-0.035,-0.044l-0.036,-0.046l-0.034,-0.045l-0.034,-0.047l-0.034,-0.046l-0.033,-0.047l-0.032,-0.047l-0.032,-0.048l-0.031,-0.048l-0.031,-0.049l-0.03,-0.049l-0.03,-0.049l-0.029,-0.05l-0.028,-0.05l-0.028,-0.051l-0.027,-0.05l-0.027,-0.052l-0.026,-0.051l-0.025,-0.052l-0.025,-0.052l-0.024,-0.053l-0.024,-0.053l-0.023,-0.053l-0.022,-0.054l-0.022,-0.054l-0.021,-0.054l-0.02,-0.055l-0.01,-0.027l-0.01,-0.028l-0.01,-0.027l-0.009,-0.028l-0.01,-0.028l-0.009,-0.028l-0.009,-0.027l-0.008,-0.028l-0.009,-0.028l-0.009,-0.029l-0.008,-0.028l-0.008,-0.028l-0.008,-0.028l-0.008,-0.029l-0.007,-0.028l-0.008,-0.029l-0.007,-0.028l-0.007,-0.029l-0.007,-0.029l-0.007,-0.028l-0.006,-0.029l-0.007,-0.029l-0.006,-0.029l-0.006,-0.029l-0.006,-0.029l-0.006,-0.03l-0.005,-0.029l-0.005,-0.029l-0.006,-0.029l-0.005,-0.03l-0.004,-0.029l-0.005,-0.03l-0.004,-0.03l-0.005,-0.029l-0.004,-0.03l-0.004,-0.03l-0.003,-0.03l-0.004,-0.03l-0.003,-0.029l-0.003,-0.03l-0.003,-0.031l-0.003,-0.03l-0.003,-0.03l-0.002,-0.03l-0.002,-0.03l-0.002,-0.031l-0.002,-0.03l-0.002,-0.031l-0.001,-0.03l-0.001,-0.031l-0.002,-0.03l0,-0.031l-0.001,-0.03l-0.001,-0.031l0,-0.031l0,-0.031l0,-0.031l0,-0.03l0.001,-0.031l0.001,-0.031l0,-0.03l0.002,-0.031l0.001,-0.031l0.001,-0.03l0.002,-0.03l0.002,-0.031l0.002,-0.03l0.002,-0.03l0.002,-0.031l0.003,-0.03l0.003,-0.03l0.003,-0.03l0.003,-0.03l0.003,-0.03l0.004,-0.03l0.003,-0.03l0.004,-0.03l0.004,-0.029l0.005,-0.03l0.004,-0.03l0.005,-0.029l0.004,-0.03l0.005,-0.029l0.006,-0.029l0.005,-0.03l0.005,-0.029l0.006,-0.029l0.006,-0.029l0.006,-0.029l0.006,-0.029l0.007,-0.029l0.006,-0.029l0.007,-0.029l0.007,-0.029l0.007,-0.028l0.007,-0.029l0.008,-0.028l0.007,-0.029l0.008,-0.028l0.008,-0.029l0.008,-0.028l0.008,-0.028l0.009,-0.028l0.009,-0.028l0.008,-0.028l0.009,-0.028l0.009,-0.028l0.01,-0.027l0.009,-0.028l0.01,-0.028l0.01,-0.027l0.01,-0.028l0.02,-0.054l0.021,-0.055l0.022,-0.054l0.022,-0.053l0.023,-0.053l0.024,-0.053l0.024,-0.053l0.025,-0.052l0.025,-0.052l0.026,-0.052l0.027,-0.051l0.027,-0.051l0.028,-0.05l0.028,-0.051l0.029,-0.049l0.03,-0.05l0.03,-0.049l0.031,-0.048l0.031,-0.048l0.032,-0.048l0.032,-0.047l0.033,-0.047l0.034,-0.047l0.034,-0.046l0.034,-0.046l0.036,-0.045l0.035,-0.045l0.036,-0.044l0.037,-0.044l0.037,-0.044l0.038,-0.043l0.038,-0.042l0.039,-0.042l0.039,-0.042l0.04,-0.041l0.04,-0.041l0.041,-0.04l0.041,-0.04l0.042,-0.039l0.042,-0.039l0.043,-0.038l0.043,-0.038l0.043,-0.037l0.044,-0.037l0.044,-0.036l0.045,-0.036l0.046,-0.035l0.045,-0.034l0.046,-0.035l0.047,-0.033l0.047,-0.033l0.047,-0.032l0.048,-0.032l0.048,-0.032l0.049,-0.03l0.049,-0.031l0.049,-0.029l0.05,-0.029l0.05,-0.029l0.05,-0.027l0.051,-0.028l0.051,-0.026l0.052,-0.026l0.052,-0.026l0.052,-0.025l0.053,-0.024l0.053,-0.023l0.053,-0.023l0.054,-0.023l0.054,-0.021l0.054,-0.021l0.055,-0.021l0.027,-0.01l0.028,-0.01l0.027,-0.009l0.028,-0.01l0.028,-0.009l0.027,-0.009l0.028,-0.009l0.028,-0.009l0.028,-0.008l0.028,-0.009l0.029,-0.008l0.028,-0.008l0.028,-0.008l0.028,-0.008l0.029,-0.008l0.028,-0.007l0.029,-0.007l0.029,-0.007l0.028,-0.007l0.029,-0.007l0.029,-0.007l0.029,-0.006l0.029,-0.006l0.029,-0.006l0.029,-0.006l0.029,-0.006l0.03,-0.005l0.029,-0.006l0.029,-0.005l0.03,-0.005l0.029,-0.005l0.03,-0.004l0.029,-0.005l0.03,-0.004l0.03,-0.004l0.03,-0.004l0.029,-0.004l0.03,-0.003l0.03,-0.004l0.03,-0.003l0.03,-0.003l0.031,-0.002l0.03,-0.003l0.03,-0.002l0.03,-0.003l0.031,-0.002l0.03,-0.001l0.03,-0.002l0.031,-0.002l0.03,-0.001l0.031,-0.001l0.031,-0.001l0.03,0l0.031,-0.001l0.031,0l0.031,0l0.03,0Zm-0.06,0.25l-0.029,0l-0.029,0.001l-0.029,0l-0.029,0.001l-0.029,0.001l-0.029,0.001l-0.029,0.002l-0.029,0.001l-0.029,0.002l-0.028,0.002l-0.029,0.002l-0.029,0.002l-0.028,0.003l-0.029,0.002l-0.028,0.003l-0.029,0.003l-0.028,0.003l-0.029,0.004l-0.028,0.003l-0.028,0.004l-0.028,0.004l-0.028,0.004l-0.028,0.004l-0.028,0.004l-0.028,0.005l-0.028,0.004l-0.028,0.005l-0.028,0.005l-0.028,0.006l-0.027,0.005l-0.028,0.006l-0.027,0.005l-0.028,0.006l-0.027,0.006l-0.027,0.006l-0.028,0.007l-0.027,0.006l-0.027,0.007l-0.027,0.007l-0.027,0.007l-0.027,0.007l-0.027,0.008l-0.027,0.007l-0.027,0.008l-0.026,0.008l-0.027,0.008l-0.026,0.008l-0.027,0.008l-0.026,0.009l-0.027,0.008l-0.026,0.009l-0.026,0.009l-0.026,0.009l-0.026,0.01l-0.026,0.009l-0.052,0.019l-0.051,0.02l-0.052,0.021l-0.05,0.021l-0.051,0.022l-0.05,0.022l-0.05,0.023l-0.049,0.023l-0.05,0.025l-0.049,0.024l-0.048,0.025l-0.048,0.026l-0.048,0.027l-0.048,0.027l-0.047,0.027l-0.046,0.028l-0.047,0.029l-0.046,0.029l-0.046,0.029l-0.045,0.031l-0.045,0.03l-0.044,0.032l-0.044,0.031l-0.044,0.033l-0.043,0.033l-0.043,0.033l-0.043,0.034l-0.042,0.034l-0.041,0.035l-0.042,0.035l-0.04,0.036l-0.041,0.036l-0.04,0.037l-0.039,0.037l-0.039,0.038l-0.039,0.038l-0.038,0.038l-0.038,0.039l-0.037,0.04l-0.037,0.04l-0.036,0.04l-0.036,0.041l-0.035,0.041l-0.035,0.042l-0.034,0.042l-0.034,0.042l-0.033,0.043l-0.033,0.044l-0.032,0.043l-0.032,0.044l-0.031,0.045l-0.031,0.045l-0.03,0.045l-0.03,0.046l-0.029,0.046l-0.029,0.046l-0.028,0.047l-0.027,0.047l-0.027,0.048l-0.026,0.047l-0.026,0.049l-0.025,0.048l-0.025,0.049l-0.024,0.049l-0.024,0.05l-0.023,0.05l-0.022,0.05l-0.022,0.05l-0.021,0.051l-0.02,0.051l-0.02,0.052l-0.02,0.052l-0.009,0.025l-0.009,0.026l-0.01,0.027l-0.008,0.026l-0.009,0.026l-0.009,0.026l-0.008,0.027l-0.009,0.026l-0.008,0.027l-0.008,0.026l-0.008,0.027l-0.007,0.027l-0.008,0.027l-0.007,0.026l-0.008,0.027l-0.007,0.027l-0.007,0.028l-0.006,0.027l-0.007,0.027l-0.006,0.027l-0.006,0.027l-0.006,0.028l-0.006,0.027l-0.006,0.028l-0.006,0.027l-0.005,0.028l-0.005,0.028l-0.005,0.028l-0.005,0.027l-0.005,0.028l-0.004,0.028l-0.005,0.028l-0.004,0.028l-0.004,0.028l-0.004,0.029l-0.004,0.028l-0.003,0.028l-0.003,0.028l-0.004,0.029l-0.003,0.028l-0.002,0.029l-0.003,0.028l-0.003,0.029l-0.002,0.029l-0.002,0.028l-0.002,0.029l-0.002,0.029l-0.001,0.029l-0.001,0.029l-0.002,0.029l-0.001,0.029l0,0.029l-0.001,0.029l-0.001,0.029l0,0.029l0,0.029l0,0.029l0,0.03l0.001,0.029l0.001,0.029l0,0.029l0.001,0.029l0.002,0.029l0.001,0.029l0.001,0.029l0.002,0.028l0.002,0.029l0.002,0.029l0.002,0.029l0.003,0.028l0.003,0.029l0.002,0.028l0.003,0.029l0.004,0.028l0.003,0.028l0.003,0.029l0.004,0.028l0.004,0.028l0.004,0.028l0.004,0.028l0.005,0.028l0.004,0.028l0.005,0.028l0.005,0.028l0.005,0.028l0.005,0.027l0.005,0.028l0.006,0.028l0.006,0.027l0.006,0.028l0.006,0.027l0.006,0.027l0.006,0.028l0.007,0.027l0.006,0.027l0.007,0.027l0.007,0.027l0.008,0.027l0.007,0.027l0.008,0.027l0.007,0.026l0.008,0.027l0.008,0.027l0.008,0.026l0.009,0.027l0.008,0.026l0.009,0.027l0.009,0.026l0.008,0.026l0.01,0.026l0.009,0.026l0.009,0.026l0.02,0.052l0.02,0.051l0.02,0.051l0.021,0.051l0.022,0.051l0.022,0.05l0.023,0.05l0.024,0.049l0.024,0.049l0.025,0.049l0.025,0.049l0.026,0.048l0.026,0.048l0.027,0.047l0.027,0.048l0.028,0.046l0.029,0.047l0.029,0.046l0.03,0.045l0.03,0.046l0.031,0.045l0.031,0.044l0.032,0.044l0.032,0.044l0.033,0.043l0.033,0.043l0.034,0.043l0.034,0.042l0.035,0.041l0.035,0.041l0.036,0.041l0.036,0.041l0.037,0.04l0.037,0.039l0.038,0.039l0.038,0.039l0.039,0.038l0.039,0.037l0.039,0.038l0.04,0.036l0.041,0.037l0.04,0.035l0.042,0.036l0.041,0.035l0.042,0.034l0.043,0.034l0.043,0.033l0.043,0.033l0.044,0.032l0.044,0.032l0.044,0.031l0.045,0.031l0.045,0.03l0.046,0.03l0.046,0.029l0.047,0.028l0.046,0.028l0.047,0.028l0.048,0.027l0.048,0.026l0.048,0.026l0.048,0.025l0.049,0.025l0.05,0.024l0.049,0.024l0.05,0.023l0.05,0.022l0.051,0.022l0.05,0.021l0.052,0.02l0.051,0.02l0.052,0.02l0.026,0.009l0.026,0.009l0.026,0.009l0.026,0.009l0.026,0.009l0.027,0.009l0.026,0.008l0.027,0.009l0.026,0.008l0.027,0.008l0.026,0.008l0.027,0.007l0.027,0.008l0.027,0.007l0.027,0.007l0.027,0.007l0.027,0.007l0.027,0.007l0.027,0.007l0.027,0.006l0.028,0.006l0.027,0.006l0.028,0.006l0.027,0.006l0.028,0.005l0.027,0.006l0.028,0.005l0.028,0.005l0.028,0.005l0.028,0.005l0.028,0.004l0.028,0.005l0.028,0.004l0.028,0.004l0.028,0.004l0.028,0.003l0.028,0.004l0.029,0.003l0.028,0.003l0.029,0.003l0.028,0.003l0.029,0.003l0.028,0.002l0.029,0.003l0.029,0.002l0.028,0.002l0.029,0.001l0.029,0.002l0.029,0.001l0.029,0.001l0.029,0.001l0.029,0.001l0.029,0.001l0.029,0l0.029,0.001l0.03,0l0.029,0l0.029,-0.001l0.029,0l0.029,-0.001l0.029,-0.001l0.029,-0.001l0.029,-0.001l0.029,-0.001l0.029,-0.002l0.029,-0.001l0.029,-0.002l0.028,-0.002l0.029,-0.003l0.029,-0.002l0.028,-0.003l0.029,-0.003l0.028,-0.003l0.028,-0.003l0.029,-0.003l0.028,-0.004l0.028,-0.003l0.028,-0.004l0.029,-0.004l0.028,-0.004l0.028,-0.005l0.028,-0.004l0.027,-0.005l0.028,-0.005l0.028,-0.005l0.028,-0.005l0.027,-0.006l0.028,-0.005l0.027,-0.006l0.028,-0.006l0.027,-0.006l0.028,-0.006l0.027,-0.006l0.027,-0.007l0.027,-0.007l0.027,-0.007l0.027,-0.007l0.027,-0.007l0.027,-0.007l0.027,-0.008l0.027,-0.007l0.026,-0.008l0.027,-0.008l0.027,-0.008l0.026,-0.009l0.027,-0.008l0.026,-0.009l0.026,-0.009l0.026,-0.009l0.026,-0.009l0.026,-0.009l0.026,-0.009l0.052,-0.02l0.052,-0.02l0.051,-0.02l0.051,-0.021l0.05,-0.022l0.05,-0.022l0.05,-0.023l0.05,-0.024l0.049,-0.024l0.049,-0.025l0.048,-0.025l0.048,-0.026l0.048,-0.026l0.048,-0.027l0.047,-0.028l0.047,-0.028l0.046,-0.028l0.046,-0.029l0.046,-0.03l0.045,-0.03l0.045,-0.031l0.044,-0.031l0.044,-0.032l0.044,-0.032l0.043,-0.033l0.043,-0.033l0.043,-0.034l0.042,-0.034l0.042,-0.035l0.041,-0.036l0.041,-0.035l0.04,-0.037l0.04,-0.036l0.039,-0.038l0.039,-0.037l0.039,-0.038l0.038,-0.039l0.038,-0.039l0.037,-0.039l0.037,-0.04l0.036,-0.041l0.036,-0.041l0.035,-0.041l0.035,-0.041l0.034,-0.042l0.034,-0.043l0.033,-0.043l0.033,-0.043l0.032,-0.044l0.032,-0.044l0.031,-0.044l0.031,-0.045l0.03,-0.046l0.03,-0.045l0.029,-0.046l0.029,-0.047l0.028,-0.046l0.027,-0.048l0.027,-0.047l0.027,-0.048l0.025,-0.048l0.026,-0.049l0.024,-0.049l0.024,-0.049l0.024,-0.049l0.023,-0.05l0.022,-0.05l0.022,-0.051l0.021,-0.051l0.021,-0.051l0.02,-0.051l0.019,-0.052l0.009,-0.026l0.01,-0.026l0.009,-0.026l0.009,-0.026l0.008,-0.026l0.009,-0.027l0.009,-0.026l0.008,-0.027l0.008,-0.026l0.008,-0.027l0.008,-0.027l0.008,-0.026l0.007,-0.027l0.008,-0.027l0.007,-0.027l0.007,-0.027l0.007,-0.027l0.006,-0.027l0.007,-0.027l0.006,-0.028l0.007,-0.027l0.006,-0.027l0.006,-0.028l0.005,-0.027l0.006,-0.028l0.005,-0.028l0.005,-0.027l0.006,-0.028l0.004,-0.028l0.005,-0.028l0.005,-0.028l0.004,-0.028l0.004,-0.028l0.004,-0.028l0.004,-0.028l0.004,-0.028l0.003,-0.029l0.004,-0.028l0.003,-0.028l0.003,-0.029l0.003,-0.028l0.002,-0.029l0.003,-0.028l0.002,-0.029l0.002,-0.029l0.002,-0.029l0.002,-0.028l0.001,-0.029l0.002,-0.029l0.001,-0.029l0.001,-0.029l0.001,-0.029l0,-0.029l0.001,-0.029l0,-0.03l0,-0.029l0,-0.029l0,-0.029l-0.001,-0.029l0,-0.029l-0.001,-0.029l-0.001,-0.029l-0.001,-0.029l-0.002,-0.029l-0.001,-0.029l-0.002,-0.029l-0.002,-0.029l-0.002,-0.028l-0.002,-0.029l-0.003,-0.029l-0.002,-0.028l-0.003,-0.029l-0.003,-0.028l-0.003,-0.029l-0.004,-0.028l-0.003,-0.028l-0.004,-0.028l-0.004,-0.029l-0.004,-0.028l-0.004,-0.028l-0.004,-0.028l-0.005,-0.028l-0.005,-0.028l-0.004,-0.027l-0.006,-0.028l-0.005,-0.028l-0.005,-0.028l-0.006,-0.027l-0.005,-0.028l-0.006,-0.027l-0.006,-0.027l-0.007,-0.028l-0.006,-0.027l-0.007,-0.027l-0.006,-0.027l-0.007,-0.028l-0.007,-0.027l-0.007,-0.027l-0.008,-0.026l-0.007,-0.027l-0.008,-0.027l-0.008,-0.027l-0.008,-0.026l-0.008,-0.027l-0.008,-0.026l-0.009,-0.027l-0.009,-0.026l-0.008,-0.026l-0.009,-0.026l-0.009,-0.027l-0.01,-0.026l-0.009,-0.025l-0.019,-0.052l-0.02,-0.052l-0.021,-0.051l-0.021,-0.051l-0.022,-0.05l-0.022,-0.05l-0.023,-0.05l-0.024,-0.05l-0.024,-0.049l-0.024,-0.049l-0.026,-0.048l-0.025,-0.049l-0.027,-0.047l-0.027,-0.048l-0.027,-0.047l-0.028,-0.047l-0.029,-0.046l-0.029,-0.046l-0.03,-0.046l-0.03,-0.045l-0.031,-0.045l-0.031,-0.045l-0.032,-0.044l-0.032,-0.043l-0.033,-0.044l-0.033,-0.043l-0.034,-0.042l-0.034,-0.042l-0.035,-0.042l-0.035,-0.041l-0.036,-0.041l-0.036,-0.04l-0.037,-0.04l-0.037,-0.04l-0.038,-0.039l-0.038,-0.038l-0.039,-0.038l-0.039,-0.038l-0.039,-0.037l-0.04,-0.037l-0.04,-0.036l-0.041,-0.036l-0.041,-0.035l-0.042,-0.035l-0.042,-0.034l-0.043,-0.034l-0.043,-0.033l-0.043,-0.033l-0.044,-0.033l-0.044,-0.031l-0.044,-0.032l-0.045,-0.03l-0.045,-0.031l-0.046,-0.029l-0.046,-0.029l-0.046,-0.029l-0.047,-0.028l-0.047,-0.027l-0.048,-0.027l-0.048,-0.027l-0.048,-0.026l-0.048,-0.025l-0.049,-0.024l-0.049,-0.025l-0.05,-0.023l-0.05,-0.023l-0.05,-0.022l-0.05,-0.022l-0.051,-0.021l-0.051,-0.021l-0.052,-0.02l-0.052,-0.019l-0.026,-0.009l-0.026,-0.01l-0.026,-0.009l-0.026,-0.009l-0.026,-0.009l-0.026,-0.008l-0.027,-0.009l-0.026,-0.008l-0.027,-0.008l-0.027,-0.008l-0.026,-0.008l-0.027,-0.008l-0.027,-0.007l-0.027,-0.008l-0.027,-0.007l-0.027,-0.007l-0.027,-0.007l-0.027,-0.007l-0.027,-0.006l-0.027,-0.007l-0.028,-0.006l-0.027,-0.006l-0.028,-0.006l-0.027,-0.005l-0.028,-0.006l-0.027,-0.005l-0.028,-0.006l-0.028,-0.005l-0.028,-0.005l-0.027,-0.004l-0.028,-0.005l-0.028,-0.004l-0.028,-0.004l-0.029,-0.004l-0.028,-0.004l-0.028,-0.004l-0.028,-0.003l-0.029,-0.004l-0.028,-0.003l-0.028,-0.003l-0.029,-0.003l-0.028,-0.002l-0.029,-0.003l-0.029,-0.002l-0.028,-0.002l-0.029,-0.002l-0.029,-0.002l-0.029,-0.001l-0.029,-0.002l-0.029,-0.001l-0.029,-0.001l-0.029,-0.001l-0.029,0l-0.029,-0.001l-0.029,0l-0.029,0l-0.03,0Z" style="fill:#747474;"/><path d="M105.413,30.573c0.419,0.016 0.821,0.182 1.129,0.467c1.443,1.409 2.869,2.835 4.278,4.279c1.121,1.208 -0.667,4.014 -2.403,2.402c-1.444,-1.408 -2.87,-2.834 -4.278,-4.278c-0.908,-0.978 -0.183,-2.888 1.274,-2.87Zm-0.069,0.6c-0.82,0.03 -1.4,1.145 -0.789,1.837c1.371,1.477 2.833,2.869 4.276,4.277c0.781,0.724 2.596,-0.432 1.554,-1.555c-1.402,-1.436 -2.821,-2.855 -4.257,-4.257c-0.212,-0.196 -0.491,-0.306 -0.784,-0.302Z" style="fill:#747474;fill-rule:nonzero;"/><path d="M102.296,34.779l-1.995,0l0,-0.796l1.995,0c0,0.265 0,0.53 0,0.796Zm12.361,0l-1.984,0l0,-0.796l1.984,0c0,0.265 0,0.53 0,0.796Z" style="fill:#747474;fill-rule:nonzero;"/></g></svg>