<?xml version="1.0" standalone="no"?><!DOCTYPE svg PUBLIC "-//W3C//DTD SVG 1.1//EN" "http://www.w3.org/Graphics/SVG/1.1/DTD/svg11.dtd"><svg width="100%" height="100%" viewBox="0 0 72 72" version="1.1" xmlns="http://www.w3.org/2000/svg" xmlns:xlink="http://www.w3.org/1999/xlink" xml:space="preserve" style="fill-rule:evenodd;clip-rule:evenodd;stroke-linejoin:round;stroke-miterlimit:1.41421;"><g id="Layer1"><path d="M31.536,61.98l0.009,0.009l-5.48,5.479l-5.479,-5.479l0.009,-0.009l-0.009,-0.009l5.479,-5.48l5.48,5.48l-0.009,0.009ZM67.535,61.98l0.009,0.009l-5.48,5.479l-5.479,-5.479l0.009,-0.009l-0.009,-0.009l5.479,-5.48l5.48,5.48l-0.009,0.009ZM62.064,66.003l4.024,-4.023l-4.024,-4.024l-4.023,4.024l4.023,4.023ZM26.065,66.003l4.024,-4.023l-4.024,-4.024l-4.023,4.024l4.023,4.023ZM67.544,25.972l-5.48,-5.48l-5.479,5.48l5.479,5.479l5.48,-5.479ZM26.065,31.451l5.48,-5.479l-5.48,-5.48l-5.479,5.48l5.479,5.479ZM66.097,25.972l-4.033,-4.033l-4.032,4.033l4.032,4.032l4.033,-4.032ZM26.065,30.004l4.033,-4.032l-4.033,-4.033l-4.032,4.033l4.032,4.032Z" style="fill:#0c2030;"/><path d="M61.653,72.082l0,-5.884l0.822,0l0,5.884l-0.822,0ZM26.476,72.082l-0.822,0l0,-5.665l0.822,0l0,5.665ZM66.304,62.406l0,-0.823l5.835,0l0,0.823l-5.835,0ZM30.305,62.406l0,-0.846l27.575,0l0,0.846l-27.575,0ZM0,62.382l0,-0.822l21.881,0l0,0.822l-21.881,0ZM25.654,57.666l0,-27.491l0.822,0l0,27.491l-0.822,0ZM61.653,57.666l0,-27.491l0.822,0l0,27.491l-0.822,0ZM30.305,26.383l0,-0.822l27.575,0l0,0.822l-27.575,0ZM72.139,26.383l-5.246,0l0,-0.822l5.246,0l0,0.822ZM0,26.383l0,-0.822l21.881,0l0,0.822l-21.881,0ZM26.476,0l0,21.643l-0.822,0l0,-21.643l0.822,0ZM61.653,21.643l0,-21.643l0.822,0l0,21.643l-0.822,0Z" style="fill:#0c2030;"/><path d="M61.968,69.977l8.054,-8.055l-8.051,-8.05l-8.054,8.054l8.051,8.051ZM62.793,72.082l-1.645,0l0,-0.009l-9.275,-9.337l-51.767,0l-0.106,-0.001l0,-1.646l0.085,0.001l51.745,0l9.316,-9.316l0,-51.723l-0.051,-0.051l1.747,0l-0.051,0.051l0,51.724l9.32,9.338l0.028,0l0,1.645l-0.03,0l-9.316,9.317l0,0.007Z" style="fill:#143a5c;"/></g></svg>