<?xml version="1.0" encoding="UTF-8" standalone="no"?><!DOCTYPE svg PUBLIC "-//W3C//DTD SVG 1.1//EN" "http://www.w3.org/Graphics/SVG/1.1/DTD/svg11.dtd"><svg width="100%" height="100%" viewBox="0 0 45 45" version="1.1" xmlns="http://www.w3.org/2000/svg" xmlns:xlink="http://www.w3.org/1999/xlink" xml:space="preserve" xmlns:serif="http://www.serif.com/" style="fill-rule:evenodd;clip-rule:evenodd;stroke-linecap:round;stroke-linejoin:round;stroke-miterlimit:1.5;"><path d="M4.593,17.907l13.188,-13.188l9.438,0l12.853,12.853l0,9.856l-13.011,13.011l-9.122,0l-13.346,-13.346l0,-9.186Zm17.907,-4.244c4.878,0 8.837,3.959 8.837,8.837c0,4.878 -3.959,8.837 -8.837,8.837c-4.878,0 -8.837,-3.959 -8.837,-8.837c0,-4.878 3.959,-8.837 8.837,-8.837Z" style="fill:url(#checkpoint-on-gradient-1);stroke:#737373;stroke-width:0.85px;"/><circle cx="22.5" cy="22.5" r="10.112" style="fill:url(#checkpoint-on-gradient-2);"/><path d="M43,20.412c-1.084,0 -1.962,-0.878 -1.962,-1.962c-3.095,0 -8.763,0 -8.763,0l0,8.1l8.763,0c0,-1.084 0.878,-1.962 1.962,-1.962c0,-1.267 0,-2.909 0,-4.176Z" style="fill:url(#checkpoint-on-gradient-3);"/><path d="M12.725,18.45l-8.763,0c0,1.084 -0.878,1.962 -1.962,1.962c0,1.267 0,2.909 0,4.176c1.084,0 1.962,0.878 1.962,1.962c3.095,0 8.763,0 8.763,0l0,-8.1Z" style="fill:url(#checkpoint-on-gradient-4);"/><path d="M20.412,2c0,1.084 -0.878,1.962 -1.962,1.962c0,3.095 0,8.763 0,8.763l8.1,0l0,-8.763c-1.084,0 -1.962,-0.878 -1.962,-1.962c-1.267,0 -2.909,0 -4.176,0Z" style="fill:url(#checkpoint-on-gradient-5);"/><path d="M18.45,32.275l0,8.763c1.084,0 1.962,0.878 1.962,1.962c1.267,0 2.909,0 4.176,0c0,-1.084 0.878,-1.962 1.962,-1.962c0,-3.095 0,-8.763 0,-8.763l-8.1,0Z" style="fill:url(#checkpoint-on-gradient-6);"/><path d="M41.034,17.877l-1.013,-1.013l-8.684,0l0,11.272l8.684,0l1.013,-1.013l0,-9.246Z" style="fill:url(#checkpoint-on-gradient-7);"/><path d="M13.663,16.864l-8.684,0l-1.013,1.013l0,9.246l1.013,1.013l8.684,0l0,-11.272Z" style="fill:url(#checkpoint-on-gradient-8);"/><path d="M17.877,3.966l-1.013,1.013l0,8.684l11.272,0l0,-8.684l-1.013,-1.013l-9.246,0Z" style="fill:url(#checkpoint-on-gradient-9);"/><path d="M16.864,31.337l0,8.684l1.013,1.013l9.246,0l1.013,-1.013l0,-8.684l-11.272,0Z" style="fill:url(#checkpoint-on-gradient-10);"/><path d="M22.5,8.556c7.696,0 13.944,6.248 13.944,13.944c0,7.696 -6.248,13.944 -13.944,13.944c-7.696,0 -13.944,-6.248 -13.944,-13.944c0,-7.696 6.248,-13.944 13.944,-13.944Zm0,5.107c4.878,0 8.837,3.959 8.837,8.837c0,4.878 -3.959,8.837 -8.837,8.837c-4.878,0 -8.837,-3.959 -8.837,-8.837c0,-4.878 3.959,-8.837 8.837,-8.837Z" style="fill:url(#checkpoint-on-gradient-11);stroke:#a9a9a9;stroke-width:0.5px;"/><defs><radialGradient id="checkpoint-on-gradient-1" cx="0" cy="0" r="1" gradientUnits="userSpaceOnUse" gradientTransform="matrix(13.6954,0,0,13.6954,22.5,22.5)"><stop offset="0" style="stop-color:#fff;stop-opacity:1"/><stop offset="0.63" style="stop-color:#f3f3f3;stop-opacity:1"/><stop offset="0.83" style="stop-color:#d5d5d5;stop-opacity:1"/><stop offset="1" style="stop-color:#b3b3b3;stop-opacity:1"/></radialGradient><radialGradient id="checkpoint-on-gradient-2" cx="0" cy="0" r="1" gradientUnits="userSpaceOnUse" gradientTransform="matrix(7.57647,14.4743,-12.3412,7.91394,22.5,16.4695)"><stop offset="0" style="stop-color:#fff;stop-opacity:0.67"/><stop offset="0.39" style="stop-color:#fff;stop-opacity:0.57"/><stop offset="0.54" style="stop-color:#fff;stop-opacity:0.36"/><stop offset="0.68" style="stop-color:#fff;stop-opacity:0.15"/><stop offset="0.74" style="stop-color:#fff;stop-opacity:0.08"/><stop offset="0.81" style="stop-color:#fff;stop-opacity:0.02"/><stop offset="1" style="stop-color:#fff;stop-opacity:0"/></radialGradient><radialGradient id="checkpoint-on-gradient-3" cx="0" cy="0" r="1" gradientUnits="userSpaceOnUse" gradientTransform="matrix(24.0637,-0.272417,0.0892254,4.49547,37.6374,21.0664)"><stop offset="0" style="stop-color:#fff;stop-opacity:1"/><stop offset="0.57" style="stop-color:#adaeb2;stop-opacity:1"/><stop offset="1" style="stop-color:#888a90;stop-opacity:1"/></radialGradient><radialGradient id="checkpoint-on-gradient-4" cx="0" cy="0" r="1" gradientUnits="userSpaceOnUse" gradientTransform="matrix(24.0637,-0.272417,0.0892254,4.49547,7.36261,21.0664)"><stop offset="0" style="stop-color:#fff;stop-opacity:1"/><stop offset="0.57" style="stop-color:#adaeb2;stop-opacity:1"/><stop offset="1" style="stop-color:#888a90;stop-opacity:1"/></radialGradient><radialGradient id="checkpoint-on-gradient-5" cx="0" cy="0" r="1" gradientUnits="userSpaceOnUse" gradientTransform="matrix(-0.272417,-24.0637,4.49547,-0.0892254,21.0664,7.36261)"><stop offset="0" style="stop-color:#fff;stop-opacity:1"/><stop offset="0.57" style="stop-color:#adaeb2;stop-opacity:1"/><stop offset="1" style="stop-color:#888a90;stop-opacity:1"/></radialGradient><radialGradient id="checkpoint-on-gradient-6" cx="0" cy="0" r="1" gradientUnits="userSpaceOnUse" gradientTransform="matrix(-0.272417,-24.0637,4.49547,-0.0892254,21.0664,37.6374)"><stop offset="0" style="stop-color:#fff;stop-opacity:1"/><stop offset="0.57" style="stop-color:#adaeb2;stop-opacity:1"/><stop offset="1" style="stop-color:#888a90;stop-opacity:1"/></radialGradient><radialGradient id="checkpoint-on-gradient-7" cx="0" cy="0" r="1" gradientUnits="userSpaceOnUse" gradientTransform="matrix(21.7561,-0.379123,0.0806691,6.25637,36.1858,20.5049)"><stop offset="0" style="stop-color:#fff;stop-opacity:1"/><stop offset="0.57" style="stop-color:#adaeb2;stop-opacity:1"/><stop offset="1" style="stop-color:#888a90;stop-opacity:1"/></radialGradient><radialGradient id="checkpoint-on-gradient-8" cx="0" cy="0" r="1" gradientUnits="userSpaceOnUse" gradientTransform="matrix(21.7561,-0.379123,0.0806691,6.25637,8.81421,20.5049)"><stop offset="0" style="stop-color:#fff;stop-opacity:1"/><stop offset="0.57" style="stop-color:#adaeb2;stop-opacity:1"/><stop offset="1" style="stop-color:#888a90;stop-opacity:1"/></radialGradient><radialGradient id="checkpoint-on-gradient-9" cx="0" cy="0" r="1" gradientUnits="userSpaceOnUse" gradientTransform="matrix(-0.379123,-21.7561,6.25637,-0.0806691,20.5049,8.81421)"><stop offset="0" style="stop-color:#fff;stop-opacity:1"/><stop offset="0.57" style="stop-color:#adaeb2;stop-opacity:1"/><stop offset="1" style="stop-color:#888a90;stop-opacity:1"/></radialGradient><radialGradient id="checkpoint-on-gradient-10" cx="0" cy="0" r="1" gradientUnits="userSpaceOnUse" gradientTransform="matrix(-0.379123,-21.7561,6.25637,-0.0806691,20.5049,36.1858)"><stop offset="0" style="stop-color:#fff;stop-opacity:1"/><stop offset="0.57" style="stop-color:#adaeb2;stop-opacity:1"/><stop offset="1" style="stop-color:#888a90;stop-opacity:1"/></radialGradient><radialGradient id="checkpoint-on-gradient-11" cx="0" cy="0" r="1" gradientUnits="userSpaceOnUse" gradientTransform="matrix(13.6954,0,0,13.6954,22.5,22.5)"><stop offset="0" style="stop-color:#ffeb56;stop-opacity:1"/><stop offset="0.63" style="stop-color:#f6e149;stop-opacity:1"/><stop offset="0.83" style="stop-color:#dfc727;stop-opacity:1"/><stop offset="1" style="stop-color:#c4aa00;stop-opacity:1"/></radialGradient></defs></svg>