<?xml version="1.0" encoding="UTF-8" standalone="no"?><!DOCTYPE svg PUBLIC "-//W3C//DTD SVG 1.1//EN" "http://www.w3.org/Graphics/SVG/1.1/DTD/svg11.dtd"><svg width="100%" height="100%" viewBox="0 0 1696 319" version="1.1" xmlns="http://www.w3.org/2000/svg" style="fill-rule:evenodd;clip-rule:evenodd;stroke-linejoin:round;stroke-miterlimit:1.41421;"><g id="Layer1"><circle cx="149.045" cy="169.542" r="149.045" style="fill:url(#_Linear1);"/><path d="M182.609,299.158c0,0 71.399,-3.476 108.026,-83.439c27.636,-60.334 -2.616,-121.366 -2.616,-121.366c0,0 13.376,-13.05 19.095,-20.402c5.798,-7.455 16.217,-23.018 16.217,-23.018l-321.464,208.99c0,0 49.448,-18.042 98.087,-36.619c50.492,-19.284 100.058,-41.325 120.582,-21.186c51.854,50.882 -37.927,97.04 -37.927,97.04Zm88.147,-231.747c-29.926,11.817 -58.965,28.406 -86.316,42.374c-81.364,41.554 -150.194,69.457 -151.185,-1.831c-1.184,-85.149 154.724,-142.863 237.501,-40.543Z" style="fill:url(#_Linear2);"/><path d="M330.068,48.631c-4.334,-5.378 -9.983,-10.597 -14.495,-14.807c-5.365,-5.005 -17.483,-14.029 -17.483,-14.029l39.626,2.973c0,0 17.746,-13.126 26.697,-16.92c8.481,-3.596 27.008,-5.848 27.008,-5.848l-0.066,0.197c-0.652,1.931 -6.107,17.489 -11.392,24.95c-5.6,7.906 -22.21,22.488 -22.21,22.488l-5.523,39.352c0,0 -6.24,-13.76 -9.99,-20.067c-3.604,-6.062 -7.728,-12.773 -12.172,-18.289Z" style="fill:url(#_Linear3);"/></g><path d="M516.862,231.105l-13.078,0l0,-82.833c0,-16.47 8.234,-24.705 24.704,-24.705l29.064,0c16.47,0 24.705,8.235 24.705,24.705l0,36.33c0,16.469 -8.235,24.704 -24.705,24.704l-31.97,0l0,-13.078l31.97,0c7.751,0 11.626,-3.876 11.626,-11.626l0,-36.33c0,-7.751 -3.875,-11.626 -11.626,-11.626l-29.064,0c-7.75,0 -11.626,3.875 -11.626,11.626l0,82.833Zm-52.315,-21.799l-61.035,0l0,-13.078l61.035,0c7.75,0 11.626,-3.779 11.626,-11.336l0,-22.088c0,-7.751 -3.876,-11.626 -11.626,-11.626l-43.596,0c-16.47,0 -24.705,-8.235 -24.705,-24.705l0,-14.532c0,-16.469 8.235,-24.704 24.705,-24.704l61.034,0l0,13.079l-61.034,0c-7.751,0 -11.626,3.875 -11.626,11.625l0,14.532c0,7.751 3.875,11.626 11.626,11.626l43.596,0c16.47,0 24.704,8.235 24.704,24.705l0,22.088c0,16.276 -8.234,24.414 -24.704,24.414Zm1036.72,0l-13.08,0l0,-61.034c0,-16.47 8.23,-24.705 24.7,-24.705l10.18,0l0,13.079l-10.18,0c-7.75,0 -11.62,3.875 -11.62,11.626l0,61.034Zm-131.81,0l-12.06,0l0,-72.66l-7.27,0l0,-13.079l7.27,0l0,-36.33l12.06,0l0,36.33l15.55,0l0,13.079l-15.55,0l0,72.66Zm-617.177,0l-39.237,0c-16.47,0 -24.705,-8.234 -24.705,-24.704l0,-36.33c0,-16.47 8.235,-24.705 24.705,-24.705l39.237,0l0,13.079l-39.237,0c-7.751,0 -11.626,3.875 -11.626,11.626l0,36.33c0,7.75 3.875,11.626 11.626,11.626l39.237,0l0,13.078Zm919.007,0l-40.54,0l0,-13.078l40.54,0c7.75,0 11.63,-3.876 11.63,-11.626c0,-7.751 -3.88,-11.626 -11.63,-11.626l-21.79,0c-16.47,0 -24.71,-8.235 -24.71,-24.704c0,-16.47 8.24,-24.705 24.71,-24.705l39.23,0l0,13.079l-39.23,0c-7.75,0 -11.63,3.875 -11.63,11.626c0,7.75 3.88,11.625 11.63,11.625l21.79,0c16.47,0 24.71,8.235 24.71,24.705c0,16.469 -8.24,24.704 -24.71,24.704Zm-430.15,0l-46.5,0c-16.47,0 -24.7,-8.234 -24.7,-24.704l0,-36.33c0,-16.47 8.23,-24.705 24.7,-24.705l29.06,0c16.47,0 24.71,8.235 24.71,24.705l0,0.29c0,16.276 -8.24,24.414 -24.71,24.414l-31.97,0l0,-13.079l31.97,0c7.75,0 11.63,-3.778 11.63,-11.335l0,-0.29c0,-7.751 -3.88,-11.626 -11.63,-11.626l-29.06,0c-7.75,0 -11.62,3.875 -11.62,11.626l0,36.33c0,7.75 3.87,11.626 11.62,11.626l46.5,0l0,13.078Zm-406.025,0l-46.502,0c-16.47,0 -24.705,-8.234 -24.705,-24.704l0,-36.33c0,-16.47 8.235,-24.705 24.705,-24.705l29.064,0c16.47,0 24.705,8.235 24.705,24.705l0,0.29c0,16.276 -8.235,24.414 -24.705,24.414l-31.971,0l0,-13.079l31.971,0c7.75,0 11.626,-3.778 11.626,-11.335l0,-0.29c0,-7.751 -3.876,-11.626 -11.626,-11.626l-29.064,0c-7.751,0 -11.626,3.875 -11.626,11.626l0,36.33c0,7.75 3.875,11.626 11.626,11.626l46.502,0l0,13.078Zm770.785,0l-46.5,0c-16.47,0 -24.71,-8.234 -24.71,-24.704l0,-36.33c0,-16.47 8.24,-24.705 24.71,-24.705l29.06,0c16.47,0 24.7,8.235 24.7,24.705l0,0.29c0,16.276 -8.23,24.414 -24.7,24.414l-31.97,0l0,-13.079l31.97,0c7.75,0 11.63,-3.778 11.63,-11.335l0,-0.29c0,-7.751 -3.88,-11.626 -11.63,-11.626l-29.06,0c-7.75,0 -11.63,3.875 -11.63,11.626l0,36.33c0,7.75 3.88,11.626 11.63,11.626l46.5,0l0,13.078Zm-956.795,0l-29.065,0c-16.469,0 -24.704,-8.234 -24.704,-24.704l0,-0.291c0,-16.276 8.235,-24.414 24.704,-24.414l31.971,0l0,13.079l-31.971,0c-7.75,0 -11.625,3.779 -11.625,11.335l0,0.291c0,7.75 3.875,11.626 11.625,11.626l29.065,0c7.75,0 11.625,-3.876 11.625,-11.626l0,-36.33c0,-7.751 -3.875,-11.626 -11.625,-11.626l-46.503,0l0,-13.079l46.503,0c16.469,0 24.704,8.235 24.704,24.705l0,36.33c0,16.469 -8.235,24.704 -24.704,24.704Zm625.465,0l-13.08,0l0,-85.739l53.77,0c16.47,0 24.7,8.235 24.7,24.705l0,61.034l-13.08,0l0,-61.034c0,-7.751 -3.87,-11.626 -11.62,-11.626l-40.69,0l0,72.66Zm174.38,0l-29.06,0c-16.47,0 -24.71,-8.234 -24.71,-24.704l0,-61.035l13.08,0l0,61.035c0,7.75 3.88,11.626 11.63,11.626l29.06,0c7.75,0 11.63,-3.779 11.63,-11.336l0,-61.325l13.08,0l0,61.325c0,16.276 -8.24,24.414 -24.71,24.414Zm-485.952,0l-71.207,0l0,-122.069l71.207,0l0,13.079l-58.128,0l0,37.783l58.128,0l0,13.079l-58.128,0l0,45.05l58.128,0l0,13.078Zm68.302,0l-29.06,0c-16.475,0 -24.71,-8.234 -24.71,-24.704l0,-36.33c0,-16.47 8.235,-24.705 24.71,-24.705l31.96,0l0,13.079l-31.96,0c-7.756,0 -11.631,3.875 -11.631,11.626l0,36.33c0,7.75 3.875,11.626 11.631,11.626l29.06,0c7.75,0 11.62,-3.876 11.62,-11.626l0,-97.365l13.08,0l0,97.365c0,16.469 -8.23,24.704 -24.7,24.704Zm94.02,0l-11.77,0l-48.83,-122.069l14.24,0l40.55,103.032l40.25,-103.032l14.1,0l-48.54,122.069Z" style="fill-rule:nonzero;"/><defs><linearGradient id="_Linear1" x1="0" y1="0" x2="1" y2="0" gradientUnits="userSpaceOnUse" gradientTransform="matrix(-151.008,-244.542,244.542,-151.008,248.335,288.62)"><stop offset="0" style="stop-color:#641b1a;stop-opacity:1"/><stop offset="1" style="stop-color:#c74947;stop-opacity:1"/></linearGradient><linearGradient id="_Linear2" x1="0" y1="0" x2="1" y2="0" gradientUnits="userSpaceOnUse" gradientTransform="matrix(160.601,149.092,-149.092,160.601,123.519,106.457)"><stop offset="0" style="stop-color:#ffd5d4;stop-opacity:1"/><stop offset="1" style="stop-color:#a62d2a;stop-opacity:1"/></linearGradient><linearGradient id="_Linear3" x1="0" y1="0" x2="1" y2="0" gradientUnits="userSpaceOnUse" gradientTransform="matrix(54.1406,67.192,-67.192,54.1406,331.22,-6.90068)"><stop offset="0" style="stop-color:#ff5a57;stop-opacity:1"/><stop offset="1" style="stop-color:#922725;stop-opacity:1"/></linearGradient></defs></svg>