<?xml version="1.0" encoding="UTF-8" standalone="no"?><!DOCTYPE svg PUBLIC "-//W3C//DTD SVG 1.1//EN" "http://www.w3.org/Graphics/SVG/1.1/DTD/svg11.dtd"><svg width="100%" height="100%" viewBox="0 0 34 39" version="1.1" xmlns="http://www.w3.org/2000/svg" xmlns:xlink="http://www.w3.org/1999/xlink" xml:space="preserve" xmlns:serif="http://www.serif.com/" style="fill-rule:evenodd;clip-rule:evenodd;stroke-linejoin:round;stroke-miterlimit:1.41421;"><g><path d="M3.733,18.177l8.765,0l0,2.273l-8.765,0l0,9.934l-2.825,0l0,-22.368l13.181,0l-0.325,2.337l-10.031,0l0,7.824Z" style="fill:#fff;fill-rule:nonzero;"/><path d="M24.64,7.659c1.364,0 2.56,0.27 3.588,0.811c1.028,0.541 1.812,1.283 2.354,2.224c0.541,0.942 0.811,2.008 0.811,3.198c0,1.385 -0.319,2.727 -0.958,4.026c-0.638,1.298 -1.661,2.721 -3.068,4.269c-1.406,1.547 -3.398,3.501 -5.973,5.86l10.519,0l-0.325,2.337l-13.311,0l0,-2.207c2.922,-2.792 5.092,-4.978 6.509,-6.558c1.418,-1.58 2.398,-2.933 2.939,-4.059c0.541,-1.125 0.811,-2.315 0.811,-3.571c0,-1.255 -0.357,-2.24 -1.071,-2.954c-0.714,-0.714 -1.699,-1.071 -2.954,-1.071c-1.061,0 -1.943,0.178 -2.646,0.535c-0.704,0.357 -1.423,0.969 -2.159,1.835l-1.883,-1.461c0.887,-1.104 1.877,-1.916 2.97,-2.435c1.093,-0.52 2.376,-0.779 3.847,-0.779Z" style="fill:#fff;fill-rule:nonzero;"/></g></svg>