<svg clip-rule="evenodd" fill-rule="evenodd" stroke-linecap="round" stroke-linejoin="round" stroke-miterlimit="1.5" viewBox="0 0 32 32" xmlns="http://www.w3.org/2000/svg"><path d="m16.5 16.324c.107.557-.184 1.207-.714 1.197-1.056-.02-1.341-1.259-1.33-2.376.011-1.183.769-2.467 2.114-2.522 1.631-.066 3.047 1.281 3.12 3.565.082 2.597-.872 5.217-3.713 5.391-3.47.212-5.588-2.752-5.605-6.645-.02-4.457 3.25-6.411 5.634-6.51 3.451-.143 7.505 1.967 7.571 7.485.073 6.018-2.83 9.426-7.696 9.578-6.641.206-9.413-4.241-9.426-10.48-.014-7.38 5.616-10.655 10.091-10.622 4.899.036 11.428 3.967 10.986 12.243" fill="none" stroke="#e2e2e2" stroke-width=".75" transform="matrix(1.46364 0 0 1.46456 -8.86409 -5.94134)"/></svg>