<svg clip-rule="evenodd" fill-rule="evenodd" stroke-linejoin="round" stroke-miterlimit="1.41421" viewBox="0 0 32 32" xmlns="http://www.w3.org/2000/svg"><path d="m20.393 24.636c.28-.076.302-.053.411-.031.531.11.576.836 1.114 1.248l.634.098c.871-.367.409-.162.992.037.585.199.657.77.934 1.285.449.836-1.06 1.832-1.984 1.345 0 0-1.234 1.522-2.447.613-.129-.097-.886-.112-1.457-.697-1.232-.192-1.049-1.898-.537-2.611.838-1.168 1.395-1.226 2.207-1.287.045-.001.088-.004.133 0zm-13.677 3.711c.078-1.088.885-.776.885-.776.303.006.339-.499.76-.643 1.346-.46 3.278.176 1.777 1.421-.441.365-.556-.039-1.159.471-.467.395-1.126.372-1.489.403-.395.034-.803-.18-.774-.861 0-.003-.001.04 0-.015zm-3.002-2.451c.49.05.646.832.24 1.198-.077.069-.878.381-.985.532-.143.202-.196.24-.322.319-1.312.825-3.291-1.576-1.007-2.057.664-.14 1.345-.034 2.074.008zm24.739-7.427c1.21.042 2.486.972 2.572 1.463.391 2.242.292 3.115-1.041 3.263 0 0 .48 1.764-.96 1.734-.047.011-.094.018-.142.024-.712.064-1.299-.898-1.429-.959-.726-.301-.745-1.64-.745-1.64-.449-.153-.954-.317-.926-.818.07-.679.405-.595.553-1.548.135-.874.994-1.536 2.118-1.519zm-23.554-1.387c.778.004 1.593-.1 2.245.398.412.315.416.693.713.843 1.208.688 1.603 2.595.975 3.446-.524.667-1.126 1.645-1.126 1.645-.502.38-1.671.398-1.671.398-.047.022-.095.042-.144.061-.706.263-1.326-.115-1.89-.869-.263-.335-.591.244-1.286-.99-.46-.818.081-1.681.068-2.004-.043-.581-.201-.78-.15-1.615.056-.929 1.168-1.314 2.266-1.313zm18.727 3.611c.77.074 1.046 1.425-.251 1.359-.563 0 .424 1.105-1.026 1.148-1.386.005-1.081-2.381 1.12-2.507.053-.002.105-.002.157 0zm-8.444-.115c.58.031 1.362.429 1.412.431.053.001.107.002.16.003.322.01.891.399.842.918-.092.974-1.264 1.421-2.592 1.102-.615-.126-1.501-.016-1.501-.016-.461.075-1.039-.3-.885-.748.323-.941 1.481-1.693 2.564-1.69zm3.486-4.514c.328.017.412.196.683.372 1.062.729 1.103 1.41-.19 1.997.191.408-.43.885-.92.573-1.067-.679-.865-2.761.128-2.857.09-.057.192-.087.299-.085zm-4.195.861c.564.012.955.991.238 1.15-.816.18-.999-1.155-.238-1.15zm13.435-4.448c.635.031.423 1.41.423 1.41 1.031-.078.803 1.797-.765 1.443-1.255-.283-1.064-2.868.342-2.853zm-5.625-5.645c.795.045 1.73.756 1.73.756.567.184.554 1.227.554 1.227.19.228.167.27.202.382.39 1.229-.474 2.398-1.58 2.954 0 0 .029 1.517-1.05 1.735-.563.114-.938-.35-1.088.363-.253.963-1.663.945-2.232.876-1.099-.132-1.106-1.091-1.169-1.84-.096-1.125-.072-2.192.965-3.052.677-.589.558-1.603 1.678-2.534.568-.473 1.101-.883 1.99-.867zm-12.05 6.063c.536.031 1.052.558.666.97-.271.289-.565.123-.621.504-.162.925-2.227.387-1.106-1.079.25-.326.538-.409 1.061-.395zm-6.745-1.48c1.024.041 1.294 1.918.552 2.613-.592.554-1.334-.585-1.192-2.077.042-.319.361-.536.64-.536zm11.829-1.647c.427.016.859.148.976.654.28 1.213.193 3.09-1.771 1.558-.5-.39-.761-1.191.017-1.513 0 0 .248-.705.778-.699zm-4.271-7.377c1.691.181 2.555 2.147 2.391 3.103-.122.71-.52 1.138-.621 2.113-.121.89-1.485 1.254-1.64 1.317-.734.34-1.154.83-1.715.801-1.515-.1-2.766-1.064-2.592-3.135.048-.578.797-1.08.839-1.127.922-1.31 1.805-3.144 3.338-3.072zm19.202-.088c.556.065.604 1.109.604 1.109.034.052.066.104.097.158.03.055.058.11.084.166.264.615-.37 1.522-.37 1.522.288.962-.032 1.885-.905 1.818-.525-.041-1.106-.619-1.106-.619-.65.26-1.291.359-1.527-.211 0 0-.524-.854.154-1.234 0 0 .39-.136.414-.501.073-.557.686-.801.92-1.592.16-.487.635-.853 1.169-.543 0 0 .088-.085.466-.073zm-11.559 1.428c1.109.092.521 2.848-.418 1.901-.837.053-.862-1.953.418-1.901zm-16.144-1.884c.705.051.043.048.7-.179.959-.332 1.346 2.51.378 2.49-.347.11-.753.043-1.166.064-.466.016-1.039-.144-1.144-.713-.149-.801.559-1.688 1.232-1.662zm12.596.145c.581.027.245-.364.587-.888.722-1.106 2.871-.244 2.354 1.053-.195.489-.747.778-.747.778-.588.805-2.182.058-2.182.058-.602-.028-.758-1.027-.012-1.001zm9.886-1.437c.608.069.813 1.018.108 1.514-.841.591-.991.181-1.261.513-.682.772-1.999-1.244-.982-1.887.144-.393.837-.161.837-.161.432.02.534-.03 1.298.021zm-18.287.055c.075.005.149.02.219.046 1.129.411.718 2.704-1.005 1.723-.753-.429-.382-1.827.786-1.769z" fill="#eaeaea" fill-rule="nonzero"/></svg>