<svg clip-rule="evenodd" fill-rule="evenodd" stroke-linejoin="round" stroke-miterlimit="1.41421" viewBox="0 0 32 32" xmlns="http://www.w3.org/2000/svg"><g fill="#e4e4e4"><path d="m11 15h-6l-1-1v-7l2-2 2-3 2 1 4 3v4l-1 4zm-2-1v-2h-2v2zm2 0 1-1v-3h-2v4zm0-8-2-1v3l1 1h3v-3z"/><path d="m25 6h2l4 5h1v3l-1 1h-3l-2 1-3 .5-4-3.5v-2l1-2 2-3 2 1zm3.575 7.141-3.575-.141-1 1v1h3l1-1h2zm2.425-.141v-1h-1l.271 1.238zm-3-4h-1l-1 2 2 1 2.182-.204-.182-.546zm-2-1h-3l-1 1v2l2 .25 2-2.25z"/><path d="m18 18 1 2 2 1 1 2 2 1v3l-1 1-2 1v2h-11l-1-2-1-3 1-1 2-4 2-1 1-2zm2 11-2-1-2 1h-2l-1 1h5zm-8-4h3l1 1-1 1-2 1-1-2zm5 0v1l2 1 1 1 3-1.5-1-1.5-1-2zm-2-5 1.5-1 1.5 1 2 2-2 1-2-1-1-1z"/></g></svg>