<svg clip-rule="evenodd" fill-rule="evenodd" stroke-linejoin="round" stroke-miterlimit="1.41421" viewBox="0 0 32 32" xmlns="http://www.w3.org/2000/svg"><path d="m18.778 10.582c.546.041 1.02.037 1.766.597.433.325.138.877.502 1.37.296.444.119 1.297.119 1.297.326.052.339.086.453.166.42.295.278.816.479 1.384.232.731-.27 1.449-.336 1.636-.341 1.056-1.142 1.067-1.863 1.725-.92.785-2.193.664-3.619.668-.566.002-1.09-.413-1.232-1.07 0 0-1.761.164-3.009-.683-.454-.204-.984-.827-1.154-1.144-.121-.226.148-.492.136-.756-.013-.541.467-1.31.467-1.31.235-.425.74-.564 1.332-1.173.4-.379.702-.393 1.367-.818.674-.407 1.91-.328 1.958-.357.846-.56 1.609-1.553 2.634-1.532zm-1.862 7.649c.11-.132.269-.495.33-.626.024-.051.086-.13.04-.162-.166-.118-.794-.577-1.039-.546-.244.031-.486.484-.429.734.057.249.588.664.772.764.107.059.248-.071.326-.164zm3.837-2.422c-.13.179-.741.867-.75 1.062-.009.194.496.23.695.106.2-.125.49-.657.505-.853.014-.175-.34-.27-.415-.322-.01-.007-.028-.002-.035.007zm-6.919-1.923c-.234.05-1.051.602-1.349.986-.284.365-.439 1.316-.439 1.316 1.16.105 1.545-1.232 1.843-1.616.141-.181.169-.734-.055-.686zm5.292-2.11c-.128.017-.316.153-.364.298-.049.145-.057.443.074.573.132.131.567.215.714.208.099-.004.111-.192.168-.246.047-.044.24-.27.222-.331-.032-.106-.284-.178-.412-.303-.107-.105-.275-.215-.402-.199z" fill="#eaeaea" fill-rule="nonzero"/></svg>