<svg clip-rule="evenodd" fill-rule="evenodd" stroke-linejoin="round" stroke-miterlimit="1.41421" viewBox="0 0 32 32" xmlns="http://www.w3.org/2000/svg"><path d="m16.979 16.827c1.944.328 3.266-2.068 3.593-3.779.887-4.645-.383-10.838-3.666-11.685 0 0-.581-.776.139-.735 2.72.515 4.159 4.657 4.453 8.323.276 3.445-.059 7.77-3.192 8.592-.473.124-1.093.056-1.524-.02-.139.309-.339.585-.585.812 1.594 1.08 3.557 1.784 5.361 1.12 3.982-1.465 5.213-7.27 4.081-11.355 0 0-.09-.479.386-.474.612.075.483.774.585 1.378.864 5.134-1.567 11.775-6.898 11.461-1.498-.089-2.928-.785-4.185-1.686-.313.142-.661.221-1.027.221-.026 0-.051 0-.076-.001.475.807 1.076 1.909 1.846 2.661 2.187 2.137 5.75 2.703 8.457 1.049 2.036-1.244 3.335-3.443 3.909-5.798 0 0-.004-.329.43-.28.373.091.362.198.273.561-1.051 4.167-4.78 7.808-9.156 7.222-2.997-.401-5.472-2.78-6.718-5.638-.353-.161-.662-.401-.904-.699-.881 3.003-1.59 6.464.727 8.804 2.25 2.273 5.834 2.143 8.723 1.938.807-.057 1.986-.194 1.986-.194.395.019.476.625.089.74-2.279.406-4.9.435-7.17.016-2.628-.485-5.231-2.275-5.737-5.158-.412-2.345.154-4.794.895-7.117-.048-.194-.074-.397-.074-.606 0-.148.013-.293.038-.435-2.581 1.814-4.841 4.467-4.682 7.838.125 2.661 1.67 5.181 3.866 6.795 0 0 .144.133.152.28.019.318-.227.595-.695.252-3.482-2.629-5.252-7.491-3.094-11.528 1.151-2.152 3.109-3.754 5.172-4.994.084-.081.174-.157.269-.227-2.5-1.587-6.038-1.731-8.062.75-.452.554-.801 1.187-1.047 1.857-.791 2.161-.487 4.589.429 6.767 0 0-.438.894-.732.195-1.755-4.27-1.082-10.604 4.563-11.511 1.968-.316 3.971.387 5.622 1.561.222-.065.458-.1.701-.1.135 0 .267.011.396.031-1.602-4.458-8.262-6.96-11.717-2.714-1.084 1.332-1.595 3.033-1.807 4.73 0 0-.827.565-.728-.218.486-3.627 2.909-7.277 6.937-7.458.134-.005.268-.006.402-.005 3.53.07 6.855 2.608 7.797 5.987.099.059.193.124.282.195.073-.076.178-.155.321-.236.598-.352 1.093-.881 1.329-1.533.881-2.439-1.137-4.876-2.934-6.229-3.495-2.631-8.445-2.748-12.648-1.198 0 0-.2.047-.33-.035-.709-.448 1.447-1.21 3.092-1.514.884-.164 1.779-.251 2.678-.262.128 0 .128 0 .256.001 4.173.06 8.493 2.037 10.248 5.795.894 1.914.62 4.608-1.522 5.735.282.405.448.897.448 1.428 0 .111-.007.22-.021.327zm13.781 10.401c.629.073.244 1.167-.19 1.661-.897 1.02-2.241 1.664-3.61 1.865-.452.052-.622-.63.114-.782 1.499-.335 3.22-1.259 3.281-2.402.024-.206.193-.354.405-.342zm-16.26-12.228c.828 0 1.5.672 1.5 1.5s-.672 1.5-1.5 1.5-1.5-.672-1.5-1.5.672-1.5 1.5-1.5zm10.628-14.126c2.38.091 3.436 3.346 3.872 5.126.168.686.359 1.021.093 1.272-.97.917-1.188-3.247-2.105-4.466-.59-.785-1.923-1.065-2.167-1.271-.251-.213-.094-.666.307-.661z" fill="#ebebeb"/></svg>