<svg clip-rule="evenodd" fill-rule="evenodd" stroke-linejoin="round" stroke-miterlimit="1.41421" viewBox="0 0 32 32" xmlns="http://www.w3.org/2000/svg"><path d="m7455.66 7028.48c.22-.68.06-1.32.24-2.98 1.81 1.1 2.31-.51 2.55-2.12-1.67-.14-1.81 2.65-3.4 1.27.28-.43.98-.44.85-1.27-.06-.5-.77-.36-1.27-.43-1.04.59-.9 3.88-2.55 4.25.12-.26 1.06-1.63 0-1.7.07-.49.77-.36 1.27-.42-.81-1.98-2.37-2.51-1.7-4.25-2.08.1-.39 1.77-1.27 3.4.74-1.05.94-.86.85.85-1.59-.72-.67.25-2.13.42-2.53-3.26 3.01-4.08.85-6.8 1.07.06 1.33.81 1.7-.42-.22-.66-.44-.03-.42.42-1.5-.62-2.54-3.49-2.13-4.67.82 1.29 3.26 3.65 5.53 3.4.61-1.17 2.41-4.45.85-5.1.3-.94 1.99-1.42 2.55-.85.79.73-1.29-.3-1.7.85.91.5 2.53.77 2.55-.85 2.01.72.18 2.62.42 4.25.93.62 1.34-.57.43 1.27.36.63 1.37.62 2.12.85.12 1.39-1.65.9-1.7 2.13.07.95 1.08-.55 2.13 0-.76 2.89 2.4 4 2.12 6.8-1.48.07-2.13.98-2.55 2.12.14.58 1.07.36 1.71.43-.95.61-1.24 1.88-2.56 2.12.22 2.5-14.91-.45-13.6-1.7-.24-.88-1.21-1.37-.42-2.12-.48-1.08-2.09-1.03-2.13-2.55 1.51.14 1.05 1.17 2.55.42v1.28c.97.12 1.6-.1 1.7-.85.69 1.24 1.05.47 2.55.42-2.22.9 2.51 3.86-1.27 4.25.43.57.4 1.59 1.27 1.7 1.43-.38.05-.95.85-1.7.75.11.97.74.85 1.7-.31.68-3.13 1.04-4.25 0-.41.02 11.63.11 10.63-1.27-.62.66-3.01 1.46-3.83 1.27.68-1.07 2.65-2.46 3.83-1.7.83-.54-.66-2.06 1.7-1.7.12-.68-.4-.73-.43-1.27-1.24 1.11-1.6.47-3.4.85v2.12c-.37-.33-.96-.45-1.7-.42.11-.42 0-1.89-.24-1.7-.04.13-.1.27-.18.42.07-.25.13-.38.18-.42zm35.52-28.48h-2.12c1.72-1.35 1.13-2.43.85-4.67-.67-1.31-3.97-.71-4.25.85-.33-1.12-.01-4.22-1.7-5.11.99-.42.51-2.31 1.27-2.97-1.17-.1-.45-2.1-1.27-2.55 1.04-.59 2.08-2.7 3.4-1.7 1.21.49-.69.49-.85 0-.5.07-.36.77-.43 1.27.11.89 1.87.12 2.13.85-1.12 1.52-.48 3.08 1.27 3.83 1.43-.69-1.33-1.35 0-2.13 2.77 2.12 2.17-1.62 3.83-2.55 1.09.11-.59.74 0 1.7 1.33.2 1.36-.9 1.27-2.12-.88-.28-.56-.4-1.27-2.13 1 1.04.79-.63 2.12-.42-.89 1.57.94 1.53.43 3.82-2.07.23-2.34 3.31-.43 4.25.71-.05-.44-1.77 0-2.97.5.07.76-.09.85-.43.71.98 1.12 1.59 2.55.85-.23 1.04-1.64.91-1.27 2.55-.53-.18-.87-.54-.85-1.27-1.06 1.34.24 3.58 2.12 4.25-.56.85-1.88.95-2.97 1.27 2.14 1.59-.86 2.77 0 4.26-2.11-.43-1.36 1.34-2.98.42.23.34.45.69.43 1.28.55-.55 1.56-.55 2.12 0v1.7c-1.31-.32-.82 1.16-2.12.85-.07 1.2 1.27.99 1.27 2.12.53-.18.87-.54.85-1.27.38.33.96.45 1.7.42.03.54-.12 1.26.15 1.56.12.03.22.07.28.14-.12-.01-.21-.06-.28-.14-.94-.19-3.53.72-4.4.57v2.12c1.15.29.82-.88 1.28-1.27.63.36.61 1.36.85 2.12-1.15-.29-.82.88-1.28 1.28 1.23 1.46 3.45 1.94 3.4 4.67-.76.06-.89-.52-1.7-.42-.17-1.03.78-.93.43-2.13-.99.43-1.37 1.47-1.28 2.98 1.38-.11 1.33 1.17 2.98 1.7.3 1.3-2.63 3.44-3.4 2.12-1.12-.12-5 .73-5 .73l-.55 7.72s-4.27 1.89-4.23 1.33c-.38-1.43-.42-2.98-.42-2.98-.88-1.75-1.61-5.19-.85-6.8-1.29 1.16-4.86 2.22-5.53 0 1.7-.14 4.23.55 4.25-1.27.76-.26 1.77 1.24 2.13 0 .54.7 1.1 2.3.42 2.97.76.06.9-.52 1.7-.42-.65-.97.77-2.7.85-4.25-1.03-.67-2.37-1.03-3.4-1.7.86-2.28-.92-2.82.43-5.1-1.63-.35-.5 2.05-2.13 1.7-.97-2.06 2.14-2.8 2.98-3.4-.62 1.79 1.01 3.4.42 5.52.11.46.85.29.85.85 4.3-2.96-1.26-8.18-.42-10.62.78 3.02 1.83 1.28 4.25.85-.19-.38-.38-.76-.85-.85.51-.17 1.98-.12 2.12-1.7 1.34-.21 1.13 1.46 2.13.42-2.7-2.44 2.04-6.98-2.13-8.08.12-.87 1.88-.1 1.7-1.27-.84-.58-1.59-2.53-.85-3.4-.06-1.06-1.44-.12-1.7 0 .62.94 1.29 1.82 1.28 3.4-.8.34-1.56.71-2.55.85 2.36 1.2 2.51 2.59 2.12 5.95zm-52.28 27.2c1.65.14.23 3.35 2.55 1.7-.34 1.48.64 1.64.43 2.98-2.59-1.27-6.87 1.43-6.8-.43 1.32 1.2 2.47-.35 2.12-2.12.93.27 1.35-1.21 1.28.42 1.33-.59-.59-2.09.42-2.55zm28.48 1.7c.75.38 1.24 1.03 2.13 1.28-.17 1.25-2.81.17-2.13-1.28zm19.98-6.37c-.77.05-1-.42-.85-1.28-1.45.18-.54 1.15-2.13.43.01 1-.73 1.25-.42 2.55 1.05.55 1.76-1.25 2.12 0 .68 1.67-1.83.15-1.7 1.27 1.66.43.07 1.47.43 2.98 2.63-.23 3.03-.94 1.73-.34.56-1.83-1.63.24-1.31-1.36 2.66.18 3.26-1.79 1.7-1.7.42-1.28 1.51-1.9 1.28-3.83.57.14-1.79-1.11-1.28-.85.36.27 1.33 1.99.43 2.13zm-8.93 5.95c1.18.38 1.5 1.62 1.7 2.97-2.68.24-.7-1.53-1.7-2.97zm-54.4 2.55c-2.03-.96 1.89-3.01-.43-2.98 2.24-2.25 1.56 1.87.43 2.98zm48.87-3.83c-.51 1.33-1.83 1.85-2.12 3.4-2.09-1.1.94-2.91 2.12-3.4zm-41.31-6.53c-.44 1.71-.27 6.14-1.61 7.81-.07 1.2 1.2 1.06 1.7 1.7-.64.88-1.91-1.18-2.98-1.28.17-1.53-.16-3.55 1.28-3.82.02-.73-.32-1.1-.85-1.28-.79.07-.26 1.44-.85 1.7-1.1-1.81 1.4-3.69 1.27-5.95-.18-.63-.54.17-1.27 0 .03-1.09 1.82-.44 1.27-2.12.49.7 1.44 2.79 0 2.97-.16.59 1.61.68 2.04.27.03-.1.06-.19.09-.27.03.11-.01.2-.09.27zm23.04 6.11c-.75 1.24-1.39 2.58-2.55 3.4.3-1.31.3-.82 0-2.13 1.88.61 1.11-1.44 2.55-1.27zm-19.13-3.83v2.13c-.99-1.37-1.08 2.81 0 2.55-.47.66-1.38.88-1.27 2.12-2.72-1.67.3-3.43-.85-5.52 1.45.32.54-1.73 2.12-1.28zm15.3 4.68h-1.27c-.06 1.05-.08 2.06.85 2.12-.21-1.33 1.46-1.12.42-2.12zm-5.1 0c-.22.34-.44.69-.42 1.27-1.76-.11-1.66.56-2.98 0 .77-1.42 2.09-.08 3.4-1.27zm3.4 0c-.84-.89-1.81-.02-2.12.85.84.88 1.81.01 2.12-.85zm-11.05.42c-.63-.36-.91-1.06-.85-2.12 1.51.23 1.05-1.51 2.55-1.28-.05.77.52.9.43 1.7-1.71-1.03-1.12.98-2.13 1.7zm2.55-1.7c-.31-1.44 1.57-.7 1.7-1.7 1.66.98-1.9 1.18-.42 2.13-.46 1.45-.13-1.18-1.28-.43zm17.85-1.27c2.73.07-.42.3 0 1.7.81.79 1.07.04 2.13 0 .1-1.26-.39-4.11-.85-3.4.37 1.36-1.4.58-1.28 1.7zm17.43-.85c2.53-.08 1.74 1.97 3.83.42-.56 2.23-2.26.76-3.83 1.7-1.24-.36.26-1.36 0-2.12zm-2.98 0c-1.06-.07-1.33.65-1.7 1.27-.47.22-.07-3.16.85-1.7v-.85c-.82-.59-2.52-.66-2.12 1.7-2.81-.42.51-1.91 0-3.82.54.08 2.08 1.23 2.12.42.66.62.9 1.66.85 2.98zm-40.37-23.8c.38-.89 1.25-1.3 2.55-1.28-.11 2.23 1.89 2.36 2.97 3.4.11 1.39-1.65.9-1.7 2.13.52 3.14 2.11 3.02 1.28 6.8 2.09-1.39 1.8 1.73 3.82.42-.51 1.97-1.66.8-3.4 1.7-.12.69.4.73.43 1.28 1.58.45.67-1.6 2.12-1.28.12 1.11-.15 1.83-1.27 1.7.1.75.73.97 1.7.85.53-1.29 1.04-1.43 1.7 0 .67-2.29 1.38-2.09 2.97-3.4 1.35.08 1.16 1.68 1.28 2.98-.5-.07-.36-.78-.43-1.28-1.13.01-2.43-.16-2.97.43.22.34.44.69.42 1.27 2.17-2.07-.35 1.21 2.55.85.53 1.38-1.37.33-.85 1.7-2.01-.63-2.9-1.26-4.25 0 .17 1.25 2.47.37 1.7 2.55.9.49 1.24.17 2.55.85-.28.57-.91.79-1.7.85-.12-.68.4-.73.43-1.27-.38.33-.96.45-1.7.42-.38-.89-.66-1.89-1.28-2.55-.76-.05-.89.52-1.7.43.34 1.47-.63 1.63-.42 2.97-.84-1.33-1.33-2.08-.85-3.82-.28-.57-.91-.79-1.7-.85-1.96 1.42 1 2.93 1.27 4.67-.84 0-.54-1.16-1.7-.85-.44 2 2.1 1.02 1.7 2.98-1.93.09-1.58-2.11-2.55-2.98-.34.37-1.16.26-1.27.85-.65-.76-1.54-1.3-1.28-2.97h1.28v-2.55c-1.87.57-2.28-.04-3.83.85v-1.7c2.06.86 3.18.24 5.1.85-.74-.96-1.05-2.35-1.7-3.4.89-.18 1.13.29 1.7.42.21-1.33-1.46-1.12-.42-2.12-.39-1.16-.79 1.13-2.13.42.08-2.19 2.72-1.82 2.13-4.67-1.12.3-.84 1.99-1.7 2.55-.73-.28-.27-.98.42-.85-.1-.47-.84-.29-.85-.85.05-1.08.62-1.65 1.7-1.7-.26-1.16-1.77-1.06-1.7-2.55 1.73-.12 1.75-1.93 2.98-2.55-1.1.35-1.16-3.2-3.4-1.7zm45.9 22.95c.04-1.08 1.82-1.24 1.28.42h1.27c1.07-.08-1.6.74-2.55-.42zm-2.12-2.13c.4.56.19 1.4 0 2.55-1.51-.47-3.5-.46-3.4-2.55 1.02.18.92-.77 2.12-.42.74.86-.32.83.43 1.7.39-.31.64-.77.85-1.28zm-51.86-2.97c1.28.28 1.2 1.92 2.55 2.12-.88.96 1.14 2.74-1.27 2.55-.06-.76.52-.89.42-1.7-.79.06-1.42.28-1.7.85-1.17-.21 1.32-2.71-1.27-2.12.17-.82 1.64-.34 1.27-1.7zm32.73 0c1.86.73-1.51 4.52 1.27 3.4-1.09-.31 1.26-2.93.43-2.98-.12 1.01-1.14-.48-1.7-.42zm-2.13 2.55c.65-.34 2.95-2.62.85-2.98.3 1.33-2.37 1.83-.85 2.98zm-28.47-4.25h.85c-.08.36.16.4.42.42 0 .85-1.16.54-.85 1.7-.56-.15-.67-.75-1.27-.85.27-.43.97-.44.85-1.27zm52.28-.43c-.24 1.04-.37 2.19-1.7 2.13-.32-1.6.48-2.07 1.7-2.13zm-36.98 2.13c.67-.64.31-1.74-.43-2.13-.58.54-.65 2.08.43 2.13zm47.6-.43c-1.12-2.69 2.3-3.87.43-4.67-.43.56-.4 1.58-1.28 1.7-.08-.81.29-4.2-.42-2.98.01 1.86-1.36 2.33-1.7 3.83 1.39.3.6 2.8 2.97 2.12zm-17.42-5.52c.66.15-.38.74.42.85-.52 1.28-1.7-.23-1.7-.85-1.69 1.49 1.99 4.32-.85 4.67.12-1.11-.15-1.83-1.28-1.7-.34-2.64.45-2.28-1.7-2.55.25-1.03.37-2.18 1.7-2.12-1.32-3.58.7-3.74 0-7.23 2.98.38-.54-2.3 2.55-2.97-1.02.65-.67 2.03.43.85.65 1.33-.9 2.97-1.27 3.82-.03 1.45 2.18.65 2.12 2.13-2.1-1.69-1.6 2.17-2.97 2.55.12 1.01 1.14-.47 1.27-.85.63.36.62 1.37.85 2.12h-1.27c.31.45 1.62 2 1.7 1.28zm-42.51-6.38c-.35 3.03.99 6.63 2.55 8.93-1.2.52-2.62.52-3.82 0v-2.13c.34.23.69.44 1.27.43-.66-1.04-.25-3.15-2.12-2.98 2.44-2.42.31-1.78 2.12-4.25zm43.35 6.38c1.13-.23 1.45 2.46.86 2.55-1.54.4-.6-1.68-.86-2.55zm-51 0c1.57.05 1.07.62.85 1.7-1.57-.05-1.07-.62-.85-1.7zm76.51-4.68c-1.42 1-1.04 1.86-1.28 3.4.07.79 1.44.26 1.7.85.13.98-1.22.48-1.27 1.28-.62-.67.16-2.29-1.7-2.55.08-1.77.83-2.86 2.55-2.98zm-53.13.85c.62.37 1.34.64 1.27 1.7-.56.51-.67.17-1.27 0v.85c-1.29-.52.46-1.46 0-2.55zm10.2-11.47c-.07-1.19 1.2-1.39 1.7-.85-.01.41-.52.33-.85.42 2 1.28 3.41-1.68 4.25-2.98 1.29 2.17 1.91 4.13 0 5.96 1.43 1.08.01 2.48 1.28 3.4 1.19-.42-.62-1.14.42-1.7.72.17 1.42 2.49.42 2.97.52.62 1.63.65 2.13 1.28-.34 1.49-1.49.49-2.13 0-.02 2.67 2.15 2.01.43 3.82-1.35-2.27-.26 2.02-2.55 1.28-.01-1.13.24-2.51-.85-2.55.6-1.1 1.44-1.96 2.13-2.98-.81-1.42-2.81-2.59-2.13-4.25-.63-1.16-1.64-1.92-2.98-1.27.84 1.6-.83 1.8 0 3.4-.76.05-.89-.52-1.7-.43.15.99.44 1.83 1.28 2.13-.01 1.19-1.16-1.02-.85.85-1.49-.31-3.38-2.03-4.68-.43-1.6-.85 2.95-2.97.43-3.4.12-1.49 1.58 1.07 1.7-.42 1 .12-.49 1.13-.43 1.7.8.4 1.42-1.28 1.7 0 1.78-1.45 2.33-2.64 1.28-5.1.56.51.67.16 1.27 0-.18-.53-.54-.88-1.27-.85zm-13.6 9.77c1.17-.18.4 1.59 1.27 1.7-.36.63-1.07.92-2.12.85.61-1.61-1.17-.81-.85-2.12.67-.04 1.62.2 1.7-.43zm50.15 1.7c-.09-.8.48-.94.43-1.7-1.31.3-.82.3-2.13 0 .05 1.08.62 1.65 1.7 1.7zm-62.05-5.1c.1 1.1.73-.58 1.7 0-.63 1-.9.79-.43 2.13-1.34-.67-2.53.51-2.55-.85-1.68.16.66 2.26-1.7 2.12.71-.84-.04-.54 0-1.7 2-.18.54-1.35 1.28-2.97 1.36-.1 1.17.56 2.97-.43-.43.57-.4 1.58-1.27 1.7zm19.55.43c-.62.8-.95 1.88-2.55 1.7.56-.86 1.39-1.44 2.55-1.7zm23.8-1.7c.34.29 1.16.66 1.28 0 .61.09.14 1.27.85 1.27.31 1.31-1.17.82-.85 2.13-.42-.01-.33-.52-.43-.85-.07-.5-.78-.36-1.28-.43-.17-1.02.78-.92.43-2.12zm-47.6 0c.61.52.8 1.46.85 2.55-.77.05-.9-.52-1.7-.43.18-.81 1.21-.77.85-2.12zm50.58-1.7c-.14-.75 1.72 2.92 1.27 4.25-1.62-.23-1.18-2.51-1.27-4.25zm11.47 1.7h1.7c-.12.86-1.15.83-1.27 1.7-.58-.14-.36-1.07-.43-1.7zm-7.65-.85c1.63-.21 2.98 1.14 2.13 2.12-1.03-.39-1.74-1.1-2.13-2.12zm19.55-3.4c-.37-1.37 1.11-.89 1.28-1.7 1.34.68-.83 5.53 1.7 3.82-1.44 1.07.42 2.91-1.7 2.98 1.09-1.96-.77-4.54-1.28-5.1zm-56.1-1.7c1.5 2.27 3.24-.65 4.25 2.12-.69 2.13-.78 2.53-2.13 4.25-2.15-1.55-.73-3.91-2.12-6.37zm33.58 5.52v-1.27c.34-.37 1.16-.26 1.27-.85.29.7.14 1.9-1.27 2.12zm-8.51-2.12c-.15.48-.74 1.07-.85.42-.43.28-.44.98-1.27.85-.03-1.27 1.25-2.16 2.12-1.27zm-30.14-1.29c.4-.14 2.26-.88 2.09.86-.76-.05-.89.52-1.7.43-.08.36.17.4.43.42-1.09 1.33-.49-1.73-.82-1.71-.01 0-.02.01-.03.01.01-.01.02-.01.03-.01zm18.67.44c.74-.04 1.32.09 1.7.42-.13-1.74.59.07 1.7-.42.28-1.7-1.62-1.22-2.98-1.28.02.59-.2.93-.42 1.28zm28.9-2.13c.55-1.06 2.06.45 1.7 1.7-1.92.79-.74-1.53-1.7-1.7zm-17-1.27c.68.59 1.09 1.46 1.28 2.55-1.05.05-2.05.06-2.55-.43.24-.88.89-1.37 1.27-2.12zm-21.68 1.27c.28-.57.91-.79 1.7-.85-.83 1.45-.24 1.01 1.28.85-.06 1.94-2.41.23-2.98 0zm26.78-.85c.6-.86 1.47.42 2.55-.42.17 1.02-.78.92-.42 2.12-1.2-.08-1.17-1.39-2.13-1.7zm-51.86-.42c.29-1.65.01-1.52.43-2.55h.85c.22.34.44.69.43 1.27-1.24-.62-1.24 1.9 0 1.28-.01.84-1.16.54-.85 1.7-1.42-.14 1.27-2.02-.86-1.7zm48.04-1.71c1.11 1.57-3.44 1.09-2.98 3.41-2.2-1.4 2.14-2.35 2.98-3.41zm-36.18-4.03c.79.63 0 1.81-.38 2.76.11.88 1.87.12 2.13.85v2.13c-.8.33-1.56.7-2.55.85 1.05-1.42.39-3.38-1.28-4.25.45-.4.13-1.57 1.28-1.28.07-.93-.35-1.35-1.28-1.27-.75.38-.78 1.48-1.27 2.12-.35-.36-1.17-.25-1.28-.85-.82.04.9 1.82-1.27 1.28-.35 1 2.04 2.03 1.7.42 1.74.51-.1 2.42-1.28 2.55.18-.82-.29-1.54-.42-.85-1.02-.77-.24-3.33 0-4.25-.05-1.31-2.67-.52-2.98.43-.52-.01.11-2.41.43-2.98-1.82.65-.84-1.55-1.7-3.83h2.12c-.8 2.13.33 3.23 1.28 4.68.82-.87.47-2.92 2.12-2.98-.38.9-1.29 1.26-1.27 2.55 1.33.01 2.37-1.4 3.4-.42-.24.89-1.28-.63-.43.85 1.07.07 1.33-.65 1.7-1.28.91.64-.3 1.04.43 2.13.89-1.46 1.59.2 2.12-.42 1.07.85-.34 1.42-1.32 1.06-.1-.08-.23-.15-.38-.21.11.09.24.16.38.21zm13.22 3.61v2.13c-.52-.19-.87-.55-.85-1.28-.34.23-.69.44-1.27.42-.16-1.28 1.38-.88 2.12-1.27zm46.33 1.27c.24-1.23.67.66 1.28.43v-2.12c-.94-.18-2.35 1.27-1.28 1.69zm-68.43-3.82h1.28c-.18 1.4-1.76 2.37 0 2.97-.37.63-.64 1.35-1.7 1.28.11-1.44.67-2.44.42-4.25zm40.81 1.28c1.36-.12 1.54 1.86.85 2.55-.78-.9-1.47-1.24-.85-2.55zm16.57.85c.5.06.36.77.43 1.27-1.67-.17-2.71 1.1-3.4-.43.05-1.21 2.91.37 2.97-.84zm-14.45-.43h1.28v1.7c-1.42.43-1.4-.59-1.28-1.7zm-18.28-.42c-.33.37-.45.96-.42 1.69-.4-.45-1.57-.13-1.28-1.27.38-.33.96-.46 1.7-.42zm5.53-1.28c2.03-1.37.21 3.59.42 2.13-.63-1 .15-1.84-.42-2.13zm13.17-.85c.62.1.15 1.27.86 1.27-.12.88-1.89.11-1.71 1.28-.55-.97.41-1.35.85-2.55zm-6.79-4.25c1.81 1.3 2.32 3.91 3.39 5.95-3.45.27-1.99-3.98-5.1-2.55-.9-1.72 2.57-.18 1.71-3.4zm25.92 5.95c.74-.39 2.28.01 2.13-1.28-1.22-.08-2.32-.05-2.13 1.28zm-5.95-2.97c-.13 1-1.47.79-1.27 2.12-.62-.1-.15-1.27-.85-1.27.06-.94 1.07-.92 2.12-.85zm-28.9-9.78c.36-.08.4.16.42.42-.33 1.76 2.04.8 1.7 2.55-1.44.46-1.42 3.24-.42 3.83 1.56-.99-.39-3.73 2.12-4.25-.35 1.2.6 1.1.43 2.12-.73-.15-.8.34-.85.85.73.69 2.44.4 2.12 2.13-.34-.22-.69-.44-1.27-.42.69 1.25 2.04 3.05.42 4.25-.74-.39-1.47-.79-1.27-2.13-.64.92-1.93 1.18-2.55 2.13-1.44-1.33.7-2.68.42-4.25-1.13-1.8-2.79-.54-3.82-.86-.18-1.02.77-.92.42-2.12 1.52 1.78 2.9-1.88 1.7-3.4.42-.01.33-.52.43-.85zm13.18 7.23c.28-.57 1.06 2.85 1.7 0 1.12.15-1.48 3.6 1.27 2.97-1.08 1.98-3.32-.85-2.97-2.97zm-15.31 0c1.31-.32.52 1.46 2.13.84.34 1.48-.47 1.8-.85 2.56-1.39-.49.1-1.43-1.7-1.71.33-.37.46-.95.42-1.69zm49.31 0c-.5-.07-.76.09-.85.42-1.25-.36.25-1.37 0-2.12.49 1.06 1.48 1.63 1.27 3.39-.57-.13-.35-1.06-.42-1.69zm-52.71-1.28c.94.19 1.07 2.22 1.7.42 1.28.28-.4.91 0 1.7-.89-.92-1.21.22-2.55 0-.36-1.35.67-1.31.85-2.12zm41.23-22.53c.12-1.11.15-2.12-1.27-1.7.36-.81 1.86-1.15 2.55-.42-2.82 1.93 1.1 4.59-1.7 5.95 2.23 1.95 2.06 7.17 1.27 10.2 1.83-.37 1.35-.3 2.13.85.23-1.27.89-3.67 2.97-4.25.08.93-.34 1.35-1.27 1.27.13 1 .83 1.76 0 2.55 1 1.04.79-.63 2.12-.42.18.89-.29 1.12-.42 1.7 3.7-2.3-1.11-6.96 2.97-9.78-1.15 2.39.21 3.33-.85 5.53 2.61.34.01-4.53 2.55-4.25.38-1.37-1.1-.88-1.27-1.7.72-1.79.12-2.61 2.12-3.4-.41 2.85 1.72.52 2.13 1.27.41 1.54-1.84.76-2.13.43-.38 3.26.54 8.58-2.55 10.62-.17 1.03.78.93.43 2.13.76.05.9-.52 1.7-.43.37-2.55-.12-3.53.85-5.1 2.15 2.3 1.05 6.99 2.12 8.93-.84-.43-.67-1.88-2.12-1.7.1-.46.84-.29.85-.85-.13-.9-2.02-.09-1.7.85-.73-1.2-1.67.16-1.7-1.28-1.1.33-1.48 1.36-1.28 2.98-.78-.64-2.1-2.02-1.27-2.98-1.71-.16-1.89.8-2.55-.42-1 1.12.52 1.66 1.27 1.7.53 1.37-1.37.32-.85 1.7-.34-.23-.69-.44-1.27-.43v-2.12c-1.62-.35-1.65.9-2.13 1.7.37 1.23.64.48 1.7.42-.53 2.02-1.08 4.03-2.97 4.68-.71-1.33 1.58-1.74.42-2.12.19-.64.55.16 1.28 0-.23-1.42-2.02-2.78-.85-4.26-1.35 1.38-.16-1.26-1.7-.85.91-2.3.84-4.32 0-5.52-2.47.17-.73 3.45-2.98 2.97-.37-1.36.66-1.33 1.28-1.7-3.32-1.22 1.62-3.95-.85-5.1.43-1.19 1.8.12 2.55 0-.8-1.79-2.33-.96-3.83-.42-.7-1.38-.16-2.63.43-3.83 1.13.87 1.61.41 2.55.85.05.77-.52.9-.43 1.7.56-.15.67-.75 1.28-.85-.05-1.08-.78-1.49-1.28-2.12.74-.82-.38-3.5 1.7-2.98zm10.63 19.55c.43.74-1.87 2.37-1.7 4.26-1.59-1.89 1.18-3.06 1.7-4.26zm-64.61.43c.14 1.56-.47 2.36-.85 3.4-1.33-.55-.22-.88-.85-2.13 1.62.63.08-1.9 1.7-1.27zm-6.8 2.55c-.68-2.26 2.42-2.94 1.28-4.25.13-.58 1.06-.35 1.7-.43-.4 2.15-1.6 3.51-2.98 4.68zm7.65-6.38c1.51.05-.9 1.41.43 1.28-.63.64-2.54-.04-2.55 2.12-.73.16-.81-.33-.85-.85-.38.19-.76.38-.85.85.31.4.77.65 1.27.85-.45.4-.13 1.57-1.27 1.28.08-.34.42-.42.42-.85-.76-.06-.9.52-1.7.42-.8-1.43 1.92-1.39.43-2.12.84-.86 5.54-1.91 2.97-3.4.06-1.06 1.44-.13 1.7 0-.51.49-.16 1.08 0 .42zm52.71 2.13c.49.25-1.99 1.1-1.7 2.55-1.17-.01-1.01-2.01-.43-2.55-1.19-.06-1.22 1.04-1.27 2.12-.54-1.71-1.36-2.47-.85-4.25 1.12.11 1.39.88 1.27-.85 3-.07-.24 3.67 2.98 2.98zm-38.26-1.28c2.03 1.13-.81 3.36-2.12 3.83-.6-2.58 2.36-1.61 2.12-3.83zm17 2.55c-.15-1.34 1.66-2 .86-3.82 2.96 1.38-1.29 3.11 1.27 4.25-1.55.28-2.26-.29-2.98-.85.16-.6.75-.04.85.42zm-2.55-5.1c-.3 1.3.44 1.55.43 2.55-.87.12-.85 1.14-1.28 1.7-1.24-.36.56-1.06 0-2.12-.86.12-.83 1.15-1.7 1.27-.27-1.26 1.12-1.86 2.55-3.4zm-10.2 1.7c.35.3 1.17.67 1.28 0 1.06.07.12 1.44 0 1.7-.62-.37-1.65-.33-1.28-1.7zm-9.77-1.7c-1.3.52.62 1.63-.43 2.13-1.11-.57-.81-1.89-.42-2.98.76-.05.89.52 1.7.43.09.73-.73 1.1 0 1.27-.18 1.18-1.34.03-.85-.85zm-.28-16.55 12.6-1.72c2.18-.48.59 1.3.43 2.12 1.65 1.18.95 2.35 2.12 4.25-1.06-.18-2.79-.84-3.4.43.92 1.15 1.27 1.23 2.98.85v2.12c-2.43.41-2.38 3.29-3.83 4.68.5.07 1.21-.07 1.28.42-2.17.56-.36 1.02-.43 2.55-2.9-.39.9 1.36-.85 2.13-1.62-.79-1.39-3.43-2.55-4.68.76-.52 1.24-1.32 2.13-1.7-.93.08-1.35-.34-1.28-1.27 1.78.5.76-1.79 1.7-2.13.78 1.47 2.77.58 2.98-.85-2.77.67-2.6-2.48-3.83 0-.3-1.3.44-1.55.43-2.55-1.3-.54-2.08-1.6-2.98-2.55-.22.63-.63 1.07-.85 1.7.5.07 1.21-.07 1.28.43-.98-.13-.47 1.23-1.28 1.27-.97.12-1.6-.1-1.7-.85-.09-.8.48-.93.43-1.7-.84.13-.84-.57-1.28-.85-.68 1.68-5.1-.23-4.67 2.98-.87-.7-1.58-1.54-1.7-2.98.54.03.59.55 1.27.43v-2.13l.85-.34v-.08zm4.53 15.7c-.6.68-1.47 1.09-2.55 1.28.05-.76-.52-.9-.43-1.7 1.37 1.1 1.86-1.26 2.98.42zm0-1.7c1.26-.09 1.5 1.52.85 2.13-.84-.34-1.53-1.49-.85-2.13zm-15.73-2.12c.58.54.85 1.29 1.28 0 .92-.07.19 1.51.42 2.12-1.2-.35-1.1.6-2.12.43-.94-.9-.09-1.89.42-2.55zm45.06-.43c1.02.39 1.73 1.1 2.12 2.13-1.2-.35-1.1.6-2.12.42.47-1.34.04-.96 0-2.55zm-38.26.85c.12 1.11-.15 1.83-1.27 1.7-.12-1.11.15-1.83 1.27-1.7zm28.9 1.7c-2.23.17-1.55-3.89-4.67-3.82.72-1.47-.97-3.14 1.27-3.4-.79 1.23.33 2.34.85.85.1 1.16.54 1.96 1.28 3.4 1.59.42.93-2.09 2.13-.85-.97.8-2.52 2.83-.86 3.82zm-11.9-3.4c1.26-.52 2.31 2.88 0 3.4.44-1.2.18-2.81 0-3.4zm-33.57-2.12h1.27c-.06 3.18-2.3 1.63-2.13 3.4-1.32.19-1.35-.91-1.27-2.13 1.07-.8 2.28.96 2.13-1.27zm36.12 1.7c.39-.89 1.26-1.3 2.56-1.28.74 4.18.98 1-2.56 1.28zm33.16-2.98c-.74-.64.43-1.83-.85-2.55-.42.01-.33.52-.43.85-.99-.56-1.22-1.9-1.7-2.97 1.27.67 2.29 2.06 3.83 1.27-1.09 1.08.09 2.06.85 2.55 1.67-.05 1.3-1.85 2.97-.85.41.79-1.27 1.42 0 1.7.18.71-1.58-.04-1.7-.42-.94.76-1.54 1.85-1.27 3.82-1.43.16-.71-1.84-1.28-2.55.4-.45 1.57-.13 1.28-1.27.18-.71-1.59.03-1.7.42zm-44.21-1.27c.83 2.77-4.56 1.13-5.1 3.82-.17-1.02.78-.92.43-2.12-.43.27-.44.98-1.28.85.6-2.98 4.05-3.08 5.95-2.55zm-18.7.85c1.08.05 1.65.62 1.7 1.7-1.08-.05-1.65-.62-1.7-1.7zm6.8-3.83c.96.18-.06 2.33 1.28 2.13-.06 1.35-1.57 1.26-1.7 2.55-.24-1.21.27-2.85.42-4.68zm41.66.85c-.37 1.34-.79 2.61-2.13 2.98-.09-1.8.8-2.61 2.13-2.98zm4.25-1.27c2.2-2.76 19.35-.17 20.82 1.7-3.25.11-.51-4.51-2.97-3.4.7-.18-.04 1.58-.43 1.7.37-1.36-.37-1.62-.85-2.13 1.24-.75 3.03-3.24.85-3.82-.45.39-.13 1.57-1.27 1.27.16-.65-.13-.85-.42-1.06h-.01c-.29-.21-1.27-.9-1.27.64 1.61-.2 1.53 1.3 2.12 2.12-.28 1.53-3.4 2.91-1.27 4.25-.56.01-.39.75-.85.85-.82-2.26-1.9.2-2.98-.85.55-1.29 2.55-1.13 2.55-2.97-1.15-.53-1.05-1.64-2.55-.85.41-.96-2.14-3.17-3.4-2.55.49-1.16-3.68-4.05-4.25-.85.73.26.7 1.28 1.28 1.7.17-.54.54-.87 1.27-.85-.41 1-.74 2.09-2.55 1.7-.12 2.05.95 2.62.43 3.82-.69-1.4-1.75-.7-2.13.43-.26-.74-2.02.03-2.12-.85zm12.75-.43h-1.28v-1.7c1.12-.13 1.4.59 1.28 1.7zm8.5-3.4c1.21-.07-.52 2.78 1.27 2.13-.13.58-1.06.35-1.7.42-.18-1.64-.46-1.51.43-2.55zm-25.93-1.27c.46.1.29.84.85.85-.13 1-1.48.79-1.27 2.12-1.37.38-.59-1.4-1.7-1.27.91-.4 1.55-.22 2.12-1.7zm-10.63-.85c.62.09.15 1.27.86 1.27-.1.61-1.27.15-1.28.85-1.54-.77.75-1.17.42-2.12zm8.08.42c-.31-1.3 1.33-.9 2.13-.42.07.92-1.51.19-2.13.42z" fill="#e7e7e7" transform="matrix(.38159 0 0 .38159 -2831.79 -2652.87)"/></svg>