<svg clip-rule="evenodd" fill-rule="evenodd" stroke-linejoin="round" stroke-miterlimit="1.41421" viewBox="0 0 32 32" xmlns="http://www.w3.org/2000/svg"><path d="m25 29h1v1h-1zm-11 0h1v1h-1zm3 0h1v1h-1zm10-1h1v1h-1zm-4 0h1v1h-1zm-4 0h1v1h-1zm-10-1h1v1h-1zm20 0v1h-1v-1zm-6-1h1v1h-1zm-8 0h1v1h-1zm2 0h1v1h-1zm4 0h1v1h-1zm4 0h1v1h-1zm-14 0v1h-1v-1zm8-1h1v1h-1zm9 0h1v1h-1zm-21 0h1v1h-1zm8-1h1v1h-1zm-12 0h1v1h-1zm10 0h1v1h-1zm-5-1h1v1h-1zm3 0h1v1h-1zm8-1h1v1h-1zm-13 0h1v1h-1zm16 0h1v1h-1zm-5 0h1v1h-1zm-3-1h1v1h-1zm-5 0h1v1h-1zm17 0v1h-1v-1zm-14-1h1v1h-1zm10 0h1v1h-1zm4 0h1v1h-1zm-17-1h1v1h-1zm-3 0h1v1h-1zm23 0h1v1h-1zm-10 0h1v1h-1zm3 0v1h-1v-1zm-18-1h1v1h-1zm-2 0h1v1h-1zm13 0h1v1h-1zm-3 0h1v1h-1zm14 0h1v1h-1zm-7-1h1v1h-1zm-2 0h1v1h-1zm-7 0h1v1h-1zm4-1h1v1h-1zm14 0h1v1h-1zm-5 0h1v1h-1zm-2 0h1v1h-1zm-16-1h1v1h-1zm21 0h1v1h-1zm-7 0h1v1h-1zm-3 0h1v1h-1zm-4 0h1v1h-1zm-9 0h1v1h-1zm25-1h1v1h-1zm-7 0h1v1h-1zm-12 0h1v1h-1zm7-1h1v1h-1zm-10 0h1v1h-1zm19-1h1v1h-1zm-6 0h1v1h-1zm-17 0h1v1h-1zm9 0h1v1h-1zm5-1h1v1h-1zm-2 0h1v1h-1zm7 0h1v1h-1zm2-1h1v1h-1zm-19 0h1v1h-1zm2 0h1v1h-1zm6 0h1v1h-1zm6-1h1v1h-1zm-9 0h1v1h-1zm12 0h1v1h-1zm-16-1h1v1h-1zm7 0h1v1h-1zm15 0h1v1h-1zm-19 0v1h-1v-1zm0-1h1v1h-1zm16 0h1v1h-1zm-12-1h1v1h-1zm9 0h1v1h-1zm-17 0h1v1h-1zm15-1h1v1h-1zm6 0h1v1h-1zm-18-1h1v1h-1zm8 0h1v1h-1zm-5-1h1v1h-1zm5 0v1h-1v-1z" fill="#ebebeb" transform="translate(0 -.5)"/></svg>