<svg clip-rule="evenodd" fill-rule="evenodd" stroke-linejoin="round" stroke-miterlimit="1.41421" viewBox="0 0 32 32" xmlns="http://www.w3.org/2000/svg"><g fill="#e5e5e5"><circle cx="17" cy="15" r="2" transform="matrix(1.25 0 0 .75 -5.25 4.25)"/><g transform="translate(-.5)"><path d="m16.5 11c4.691 0 8.5 2.016 8.5 4.5s-3.809 4.5-8.5 4.5-8.5-2.016-8.5-4.5 3.809-4.5 8.5-4.5zm0 1c3.587 0 6.5 1.568 6.5 3.5s-2.913 3.5-6.5 3.5-6.5-1.568-6.5-3.5 2.913-3.5 6.5-3.5z"/><path d="m16.536 13c3.019.009 5.464 1.126 5.464 2.5 0 1.38-2.464 2.5-5.5 2.5s-5.5-1.12-5.5-2.5 2.464-2.5 5.5-2.5m0 0c2.484 0 4.5 1.12 4.5 2.5s-2.016 2.5-4.5 2.5-4.5-1.12-4.5-2.5 2.016-2.5 4.5-2.5z"/><path d="m16.5 10c6.347 0 11.5 2.464 11.5 5.5s-5.153 5.5-11.5 5.5-11.5-2.464-11.5-5.5 5.153-5.5 11.5-5.5zm0 0c5.243 0 9.5 3.016 9.5 5.5s-4.257 5.5-9.5 5.5-9.5-3.016-9.5-5.5 4.257-5.5 9.5-5.5z"/><path d="m16.5 8c8.003 0 14.5 3.361 14.5 7.5s-6.497 7.5-14.5 7.5-14.5-3.361-14.5-7.5 6.497-7.5 14.5-7.5zm0 1c6.899 0 12.5 2.913 12.5 6.5s-5.601 6.5-12.5 6.5-12.5-2.913-12.5-6.5 5.601-6.5 12.5-6.5z"/></g><path d="m16 7c8.831 0 16 3.809 16 8.5s-7.169 8.5-16 8.5c8.279 0 15-3.809 15-8.5s-6.721-8.5-15-8.5zm0 0c-8.279 0-15 3.809-15 8.5s6.721 8.5 15 8.5c-8.831 0-16-3.809-16-8.5s7.169-8.5 16-8.5z"/></g></svg>