<svg clip-rule="evenodd" fill-rule="evenodd" stroke-linejoin="round" stroke-miterlimit="1.41421" viewBox="0 0 32 32" xmlns="http://www.w3.org/2000/svg"><path d="m7152.57 7439.69c-.01-.05-.03-.1-.04-.15.02.05.03.1.04.15.43 1.28 2.8.62 2.42 2.71-1.8-.18-1.68-.74-2.87-.82-.15-.94.67-.89.45-1.89zm5.69 1.48c-1.15.06-1.18-1-1.23-2.04 1.15-.06 1.18 1 1.23 2.04zm-47.35-10.72c-1.05-1.01-1.51.88-2.86.82-.09 1.73 2.35.92 1.64 3.27 2.82.53 2.51-.55 4.91.41.48-1.29.85-2.69 2.04-3.27-.59-.64-2.09-.36-3.27-.41.73-1.46-.63-2.42-2.05-2.87.17.99-.74.89-.41 2.05zm13.09 3.68c1.1-.45 2.54-.17 3.27.82v-2.05c-1.76 1.08-.72-.94-2.04-1.22-.4.83-.84 1.61-1.23 2.45zm-103.86-.41c1.94.16 2.95-.6 2.87-2.45-2.21-.44-2.33 1.22-2.87 2.45zm-14.31-6.95c-.96.6-.76.86-2.04.41-.64 1.45 1.39.25 1.23 1.22-.84.26-.12 2.07-1.64 1.64-.24-1.65-2.28-1.18-2.86-.82.62.74 1.47 1.26 1.22 2.87-1.26-.54-2.32 1.16-1.22 1.63.04-1.05 1.52-.66 2.04-1.23-.18-.91-.94-2.21.41-2.45.34.48.54 1.1.41 2.05 1.28.19 1.6-.59 2.45-.82-.59-2.59.2-5.9 1.64-9.41-1.82.24-2.77 1.33-4.91 1.23 1.54.41.75 2.02.82 3.27.1-.72.7-.93 1.64-.82-.13.81.55.81.81 1.23zm9 3.68c-.24 2.16 1.68.26 2.04 1.23 0 .81-1.11.51-.82 1.63 1.59-.82 1.62-.66 2.87.41-.2-1.29.73-1.44.4-2.86-1.89.4-2.46-.53-3.67-.82-.09.32-.35.48-.82.41zm18.4 1.23v.81c.41 0 .48.33.81.41-.17-1.13 1.53-.38 1.64-1.22-1.41.33-1.73-.77-2.45 0zm-30.67-4.09h-1.63c.11-.66-.39-.71-.41-1.23-2.28.53-1.96 2.06-2.87 3.27-.47-2.08-1.71-1.48-.41-2.86-.26-1.22-.87.39-1.63 0 1.14-1.24 2.59-2.22 2.45-3.68 1.09.17 1.38 1.55 1.64-.41 1.02-.06 1.26.64 2.04.82.2 1.28-.51 1.67-1.22 2.04.3 1.07 1.94.78 2.04 2.05zm20.86-2.03c.4 1.08.42 2.07-.41 2.84-.93-.22-1.67-2.4-2.46-.4-.67-.74 2.67-2.36 4.09-4.09.42-.05.83 1.76 1.23.41.58.5.93 1.56.41 2.04 1.99.11 3.81-1.03 4.9-3.27 1.26.29.79.29 2.05 0-.94.93.59 1.48 1.63 1.64-.98 1.72-1.91 2.86-2.04 4.49-2.47-.7-2.47-.48-4.91 0 .05-1.02.77-1.26 0-2.04-1.38-.01-1.82 2.15-3.27.82-.3-1.12.81-.83.82-1.64-.11-.84-1.77-.12-2.04-.8 0 0 0-.01-.01-.02.01.01.01.02.01.02zm103.85 3.25c.17-.98-.75-.88-.41-2.04 2.94-.01 3.22-.25 4.91-1.64-2.52-1.15-2.72-.17-6.14-.81.5 2.21-.54 3.73 1.64 4.49zm26.17-1.22c-.33-3.69-5.01-.9-5.73-4.5-1.26-.31-.78 1.12-2.04.82-.24 1.32.28 1.9.41 2.86 1.78-.66 3.91-1.98 5.31 0-.58.1-.69.67-1.22.82-.95.12-.46-1.19-1.23-1.23-.02.25-.06.49-.41.41-.06.48-.73.93 0 1.23 1.14-.56 3.09.24 4.91-.41zm-132.48-1.64c.17-.79 1.59-.32 1.23-1.63-.48-.07-1.16.07-1.23-.41.3-.93 1.23-1.23 2.04-1.64-.41 1.37.57 1.34 1.64 1.23-.4-2.24-1.79-1.43-2.86-2.45-.34 1.02-1.1 1.62-1.64 2.45-.8.12-.81-.55-1.22-.82.07 1.02-.63 1.28-1.23 1.64-.96-.13-.76-1.42-2.04-1.23-.01 1.88-.74-.68-1.64-.41-.24 2.83 3.64 1.54 2.86 4.91 1.02.06 1.7-.21 2.05-.82-1.15-.4.59-1.09-.41-1.64 1.52.44 1.16-1.01 2.45-.81.56.93-1.05 1.53 0 1.63zm-11.15-2.42c-1.88.52-.97 3.84-3.16 4.06.89-.5 1.46-3.42.82-4.09.57-1.73.9.33 2.34.03.04-.01.07-.02.11-.03-.04.01-.07.02-.11.03zm114.19-6.15c-.19 1.71-1.94 1.87-2.45 3.26.11 1.11.15 1.73.19 2.33l.02.24c.04.6.08 1.22.19 2.33-1.51-.28-1.02 1.44-1.63 2.05-2.18-1.08 1.32-1.75.41-4.09-1.79-.16-2.11 1.17-3.68 1.23.06-1.27-.97-2.32 0-3.28-.78-.76-.74.25-2.05 0 .28-.95 1.36-1.09 1.64-2.04 3.36 2.93 4.85-.99 7.36-2.05zm-14.31 5.71c-.52.02-.57.52-1.23.41-.54-.01-.37-.72-.81-.82.32 1.82-2.2.81-2.05 2.45.74.76 1.98 1.02 2.45 2.05.49-2.92 5.67-1.15 6.95-3.27.38 1.81.92 3.44 3.27 3.27.22-2.53-3.73-.9-2.86-4.09-1.54-.59-.78 1.12-2.04.82.24-.85.86-1.32 1.23-2.05h-.82c-.09-.32-.34-.47-.82-.41.33 1.57-.87 1.59-1.64 2.05-1.5-1.1.56-3.26-1.63-3.68.12.95.87 1.76-.41 2.04.07-.89-.34-1.3-1.23-1.22-.65 2.01 2.12.61 1.64 2.45zm-10.63-.82c.04-1.05 1.59-.58 1.63-1.63.96.1.24 1.79 0 2.04-.85.17-1.08-.28-1.63-.41v1.23c-2.98-.82-5.15-.18-6.54 2.45-1.35-.29-3.08-.19-3.28-1.63 1.31-.25 1.27.76 2.05 0-.99-.68-.94-2.1-2.45-1.23v-1.64c1.29-.56 2.46 1.02 2.86 0-.51 1.58 3.74 3.38 4.49.41 1.09.01 2.34-.15 2.87.41zm-59.29.82c1.87-.31 2.64-1.72 3.68-2.86-.35-1.15-2.13-.87-2.86-1.64-.14 1.55-1.97 2.95-.82 4.5zm97.31-5.32c.07-.47.65-.44 1.23-.4-.23 2.27 2.64 1.44 2.86 3.27-.81-.86-1.74-.02-2.04.81 6.13 2.02 3.85-4.58 3.27-6.54-1.72.81.4 2.93-.82 4.09-1.11-.52-3.14-.13-2.86-2.04-.93-.33-2.74.45-1.64.81zm-145.44 2.83c2.59-.79-.51-2.75 2.33-3.64-.24 1.06.17 1.47 1.23 1.22.97-.33-3.68 1.8-1.23 3.27-1.23 1.24-.71-1.26-2.33-.85-.04.01-.08.02-.12.04.04-.02.08-.03.12-.04zm24.73.84c-1.77-.28-5.49 1.27-5.63-2.85 1.04.99 5.53 2.78 6.13.41 1.59.74-1.17 2.25-.5 2.44.03 0 .06.01.09.01-.03 0-.06 0-.09-.01zm1.73.01c.77-1.03 1.43.38 2.45-.4.13-1.08-.85-1.06-1.64-1.23.21.81-2.25.93-.81 1.63zm97.31-2.45c-2.03.31-2.18-1.25-3.68-.41.5.73.08 2.38.82 2.86-.19-1.85 1.91-1.11 2.86-.81zm-8.58 2.05c.61-.61.03-2.12-1.23-2.05-.08 1.17-.05 2.23 1.23 2.05zm-9.82-3.69c-.01.97.71 1.21.41 2.46 1.9 1.04 3.53-.15 5.32-.41-.12.93.1 1.54.82 1.64 1.44-4.25-3.67-4.37-6.55-3.69zm-60.51.41c.6.36 1.29.62 1.23 1.64 1.01-.05 1.26-.77 2.04 0 .21-1.31 2.8-2.35 2.04-3.27-1.16 1.96-4.25.2-5.31 1.63zm-11.86 1.23c.72-.23 2.4.49 2.45-.41-1.01-.16-.31-1.87.82-1.23-.79.75.35 1.39.82 2.05.54-.79-.3-1.65.41-2.86-.64-.04-1.42.05-1.23-.82.23 0 .47-.33 0-.41-1.38.94-2.24 2.39-3.27 3.68zm61.74-16.35c-.36 1.31 1.06.84 1.23 1.63-1.12 1.88-2.47 3.53-3.68 5.32-1.02.06-1.99.07-2.05-.82 1.38-2.19-2.63-2.77-.4-4.91-.36-1.55-2.56-1.26-2.87-2.86-1.65.53-3.19 1.17-4.09 2.45-.06 1.26 1.44 1.84.41 2.87.72.23 2.41-.5 2.46.41-.75 1.04-.75 3.07-2.46 2.04-1.25 1.08 1.66 1.38.41 2.45-.52-.02-.56-.52-1.23-.41.12 1.66-.14.93-1.22.82-.17.99.75.89.41 2.05 1.8.78 4.19.98 5.31 2.45-.89.85.21 1.17 0 2.45 1.65-.53 1.01-.81 2.46 0 .6-1.01-.79-2.84-2.05-3.27 1.08.12.32-1.58 1.64-1.23.98-.16-.23 1.87 1.22 1.23-.42-1.99-.07-2.55-.81-4.5 1.82-1.5 5.13.73 6.13 0-.48-.2-.93-.43-1.23-.81 2.28-.94 2.86 2.38 3.68.4-.98-1.9.24-3.48-.41-5.72.9-.28 4.28.03 3.28-1.63-1.25 1.92-4.01-.61-6.14-.41zm-80.14 7.76c1.47-.39.73 1.77.41 2.05.25.7 1.94-.03 2.04.82.32 1.83-2.13 3.02-1.22 4.08 1.1.11 4.18.65 4.9-1.63-1.04.21-1.58.7-1.63-.82 2.5.1 4.34-2.18 2.86-3.68 1.5-.74 1.65-.7 3.68-.41-1.03-1.5-2.42-1.72-3.68-3.68-.99-.16-.89.75-2.04.41-.34-1.44-1.82-1.99-.82-3.68-2.74 1.04-2 4.59-4.5 6.54zm-18.81 5.32c.48.07.45.65.41 1.23 1.52.43.8-1.38 1.64-1.64.41 0 .48.33.81.41.47-2.3-2.69-.79-2.86 0zm116.94-1.64h-1.63c.04-1.26-.19-2.26-.82-2.86-.54.77-.35 1.87 0 3.27-2.19-.28-1.79 2.03-3.68 2.05-.51-1.25-.31-1.59.41-2.46-.87.37-1.21 1.25-2.46 1.23-2.94-2.13-1.29-4.95-2.86-7.36 1.91-.05 3.76-.61 4.91.41.75-.62.96-1.76 1.63-2.45.47.07.23.41 0 .4-.19.88.59.78 1.23.82-.08 1.42-1.45 1.55-1.63 2.87 1.39.3.52-1.67 2.04-1.23.05.73-.5.86-.41 1.63 1.34-.43 1.45-2.09 2.05-3.27 2.8-.42 5.65 2.61 6.95 0 2.55 1.33-.32 4.46 2.04 6.14 1.83-.03.52-.94 1.23-1.64h1.63c-.99 1.49-1.61 2.33.41 3.27-.94.69-2.98.29-3.27 1.64-.75-1.98-1.98-3.48-2.04-6.14-.12-.97-1.11.46-1.23.82-1.02-.06-.12-1.38 0-1.63-.37-.36-1.21-.07-2.45-.41-.86.23-.51 2.64.4 2.45-.75 1.11-3.52.66-2.45 2.45zm-63.78-.81c.33 1.15-.58 1.06-.41 2.04.95-.13 1.57.07 2.04.41.58-1.06.51-2.77 2.46-2.45-.58-1.43 1.14-2.62 0-3.27-.07.47-.65.44-1.23.4-.33 1.89.45 1.17.82 1.64-.37 1.21-2.87 1.74-3.68 1.23zm-46.21-1.64c-.72-.5-2.15-.3-2.45-1.23 0 1.77-2.01 1.54-2.45 2.87 1.77-1.12 1.6.76 2.45 1.63.73-.22 1.7-.21 2.04-.82-.31-.09-.8-.01-.82-.4-.01-.57.2-.9.42-1.23-.94-.56-1.54 1.05-1.64 0 .69-1.24 1.84-.11 2.45-.82zm58.06-5.32c.49.07 1.16-.06 1.23.41-.76 1.11-2.1 2.09-3.68 1.23-.56 1.65.73 1.45 1.23 2.05-.24 1.43-2.38 2.99-1.64 4.9.26-1.37 1.96-1.31 3.68-1.22.24-1.48.69-2.75 0-4.09 1.02.07 1.28-.63 1.64-1.23-2.49-.26.32-1.26-.41-3.27-1.33.5-.31-1.32-1.64-.82-.34.48-.54 1.1-.41 2.04zm-19.21 5.32c.6.08.37.99.41 1.64.52.56 1.93.25 2.45.81-.77-1.5.27-2.26-.41-3.68-1.25-.02-2.08.38-2.45 1.23zm54.38-.82c.57 1.18-1.12 2.08 0 2.46.23-1.19.64.62 1.23.41-.12-1.25.06-2.8-1.23-2.87zm-62.97 1.64c.55 1.33 3.77 1.82 4.09 0-.76-.39-1.37 1.22-1.64 0 .12-.62 1.76-1.72.82-2.05-.87.91-3.47.07-3.27 2.05zm4.5-1.23c.18 1.18.86 1.87 2.04 2.05.22-.9.99-2.65-.41-2.87.42 1.24-.91.73-1.63.82zm39.25-.41c.81 1.45.53.81 0 2.46 1.83-.14 3.53-2.62.82-2.87-.09.32-.34.48-.82.41zm-4.5 0c2.58-.45 2.07.95 1.23 2.05 2.35.17 1.37-3 3.27-3.27-1.86.04-3.56.25-4.5 1.22zm-8.17 2.05c.96.01 1.2-.71 2.45-.41-.23-.6.48-2.11-.41-2.05-.73.77-1.46 1.54-2.04 2.46zm-59.7 0c-.05-.74.4-.96 1.22-.82.07-1.15-1.15-1.03-1.63-1.64-.56.53-.71 2.45.41 2.46zm-9-3.27c-.01-.57.2-.9.41-1.23-3.09.81 1 1.69.82 3.27 1-.23 2.1-.35 2.04-1.63-2.64 1.29-.46-1.29-2.04-2.05.11 1.07-.15 1.76-1.23 1.64zm130.44 1.63c.28-1.51-1.44-1.02-2.05-1.63.08 1.15.71 1.74 2.05 1.63zm-54.79 0c.32-1.6 2.12-3.85 1.63-4.9-1.46 1.47-2.92 3.31-1.63 4.9zm-20.04-1.22h-1.23c-.09-1.96-1.45.31-2.45 0 .3-.39.74-.62 1.23-.82-.18-.37-.36-.73-.82-.82-1.55-.6-.08 1.83-1.63 1.23-.23-.6.47-2.12-.41-2.05 1.56-.96.93-1.58 1.22-3.68 1.29.07 1.11 1.62 1.23 2.86h3.68c-1.5 1.04-2.81 1.81-.82 3.28zm-13.9-1.23c1.3-.35 1.26.64 2.04.82.47-1.93-1.56-1.9-2.04-.82zm-47.43-1.23c1.03.05 2.32-1.73 2.86-.81-.32.94.14 1.83-1.23 2.45 1.81.45 2.04-.7 3.27-.82-.1-1.53-.64-2.63-1.63-3.27-1.33.57-2.71 1.1-3.27 2.45zm-13.09.41c.61.65 2.12 1.42 2.05-.41-.96-.12-1.76-.87-2.05.41zm6.55-.82c2.19-1.49 1.42 2.39 3.27.82-.32-.09-.81-.01-.82-.41.5-1.38-.66-1.73.41-3.68-1.06.99-3.02 1.07-2.86 3.27zm-7.36-1.22c.65-.71 1.53-1.2 2.45-1.64.13.96 1.27.92 1.64 1.64-.01.81-1.12.52-.82 1.63 1.11.3.82-.81 1.63-.82.22-1.49-1.79-1.83-.81-2.86.81.01.52 1.12 1.63.82-.32-1.41.46-1.73.82-2.45-2.16.43-3.94 1.24-5.72 2.04-.56-1.78 1.58-.87 1.22-2.45-1.56.47-3.76 2.81-2.04 4.09zm35.16.82c.92.27 2.05 1.22 2.86.4.11-1.33-1.27-1.18-1.63-2.04.36 1.31-1.35.56-1.23 1.64zm61.74-2.05c-1.2.03-1.52.94-2.04 1.64.96 1.06 2.94-.84 2.04-1.64zm42.53.82c.62 1.25-2.67 1.25-2.05 0zm-126.35-1.23v2.04c1.28-.35 2.26-1.01 2.86-2.04-1.69.11-1.59-.54-2.86 0zm124.71.41c1.36-1.05 1.77 1.32 2.45-.41-.81 0-.52-1.11-1.63-.82-.1.59-.67.69-.82 1.23zm-67.06-3.27c1.49.5 3.23-.82 3.68 0 .47 1.83-2.14 1.82-.82 3.27 1.89-.98 2.08-4.76 0-5.72-.28 1.49-2.49 1.04-2.86 2.45zm-28.62 1.64c-.99.22-2.1.34-2.04 1.63.99-.23 2.1-.35 2.04-1.63zm53.16-.82c-.24 1.46 1.21 1.24 2.45 1.22-1.22-1.37 1.35-3.12-.41-3.68-1.04 1.28.25 3.32-2.04 2.46zm-22.9-11.04c2.43.11 2.23-2.41 3.68-3.27-.96 0-1.21-.71-2.45-.41-.3 1.84-3.91 2.51-1.64 4.49-1.53-.03-1.24 1.77-3.27 1.23 1.64-1.85-1.83-1.2-2.05-2.45-1.5.3-2.13 2.17-2.86 0-.53.83-1.98.74-1.63 2.45.93.56 1.53-1.05 1.63 0-.9 1.53-.66 2.01 0 3.68-.97.25-.67 1.78-2.45 1.23.15 1.65.88 3.49-.41 4.9.99.17.89-.74 2.04-.41-.62-1.98 1.19-1.53 1.23-2.86-1.06.25-1.47-.16-1.23-1.22 1.95.79 1.59.55 3.68 0-.1 1.26-1.47 1.25-2.04 2.04 1.79.35 2.78-.88 3.27.41.23-.63 2.27-1.5.82-2.45-.27.55-.87.76-1.64.81v-1.63c2.9.17 5.31-.15 7.77-.41.03-1.87-1.2-.82-2.04-.41-2.19-1.94 2.08-3.97-.41-5.72zm21.67 7.77c2.56-.29-.08 2.07 1.63 2.45.25-.85.87-1.32 1.23-2.05-3.3.55.6-3.46-2.04-2.45.96.01-.15 1.12-.82.82-.09-.77.46-.9.41-1.64-1.9.04-.09 1.86-.41 2.87zm49.88-23.31c-.2-1.29 2.03-.15 1.64-1.64-1.76.43-1.58.24-2.86-.41-.03.25-.07.49-.41.41v.82c.12.71 1.42-.53 1.22 1.23-2.97-1.05-3.8.99-6.95.82-.64-1.27-1.21-2.61-2.04-3.69.81-.28 1.09-1.09 1.23-2.04-.38-.71.01-2.19-1.23-2.04-.16 1.06-.21 2.24-.82 2.86-1.13-.1-.93-1.52-1.63-2.05-1.37.41-1.78 1.77-3.28 2.05-.46-1.04-.68-2.32-1.63-2.86-1.09.87-3.02.93-3.68-.41.3-2.75-.69-4.77-2.04-7.36-.07.47-.65.44-1.23.41-.17 1.67 1.34 1.65.82 3.68-1.02.48-2.41.59-3.68.81-.45-1.26.46-2.64-1.64-2.86-.81 1.76-.78 3.67-2.86 4.91-.3-1.12.81-.82.82-1.64-1.46-.09-2.14.59-2.05 2.05 1.09.48 2.41-.79 2.45 0-1.19.35-.46.61-.4 1.63-1.59.19-2.49 1.06-2.46 2.86.13.73 2.17 1.61.82 2.46-.64-.59-.81-1.65-2.45-1.23-.26 1.52-1.93 1.62-2.05 3.27 1.88-1.02 2.25 1.44 4.91.82.05-1.04.59-1.58 1.63-1.63 1.08 1.34 2.34.3 4.5.81.07 1.16.75 1.71.82 2.87-.76.32-1.5.68-2.45.81-.73-.36-1.2-.98-2.05-1.22-.34 1.76-1.68 1.86-2.86.81-.18 2.42-2.13 1.21-3.68.82-1.72 1 .84 2.21-.41 3.68 1.25-.29 1.49.42 2.46.41.76-1.85-1.63-.56-1.23-2.04h2.86c.36 1.47 1.94 2.53.41 3.68.93-.12 1.54.09 1.63.81.52 1.51-3.08.97-1.63 2.05 2.3-1.23 2.86 2.7 2.86 4.09 2.05-.15 2.57 1.25 3.27 2.45.89-.85-.2-1.17 0-2.45h1.64c.21 3.55 4.03.97 6.13 2.45.04-.64-.05-1.42.82-1.23-.71.25.03 1.94-.82 2.05-1.08 0-2.41-.23-2.45.82 2.03.12 3.89.07 4.49-1.23.95.69 1.75 1.53 3.28 1.64.36-1.6-.02-3.25 1.22-4.5-.73-1.28-1.6.13-2.45-.82.27-.55.87-.76 1.64-.82 1.31 1.02 1.74 1.31.81 2.86 1.24-1.18 3.03-1.46 4.5-.81-.41.81-.71 1.74-1.63 2.04-.91-.18-2.22-.94-2.46.41 1.02.97 2.41 0 3.68 0-1.09 1.34.97.98 0 2.45 1.27-.42 1.88 2.49 2.86.41-.12-.85-1.1.61-1.22-.82.74-1.3 2.71-2.15 1.63-4.09.55.07 1.52-1.37 1.64-.4.06 1.01-.64 1.26-.82 2.04.6.22 2.11-.48 2.05.41-.44.79-1.89.57-2.46 1.23.85.1.11 1.79.82 2.04 2.45-.57 1.23-2.83 2.45-4.09 1.02-.06 1.27.64 2.05.82 1.08-.9-.31-2.72.41-3.27-2.22.79-2.42-.66-4.5 0 .12-.25 1.02-1.58 0-1.64-.12.84-1.09.82-1.64 1.23-2.68-1-2.62-4.74-4.9-6.13-1.12-2.77 3.36-2.07 2.04-3.68-1.63 1.33-2.58-1.49-3.68-2.05 1.15-1.04 3.01-3.52 4.91-2.45-1.33.39-.34 4.46 1.22 3.27-.57 2.98.83 1.57 1.64 2.86-.38.44-1.51.13-1.23 1.23.33 1.04 2.51.22 2.46 1.63 2.28.37.93-2.88 2.45-3.27 1.15.66 4.19.08 3.68-1.22-.35.6-1.32.59-2.04.81-1.45-1.53-3.39-3.41-4.91-3.68.12-2.18 1.86-2.59 3.68-2.04.05-2.44 1.58-1.59 2.45-1.63-.97-1.33-2.82-1.61-3.68 0-.16-1.16 1.86-1.75-.41-1.64zm-56.83 16.35c-1.72.53-.37 1.99-1.64 2.46-.96.01-1.2-.71-2.45-.41-.18-.78.56-2.47-.82-2.05.78 1.47-.11 2.6-1.63 2.87-1.81-.99-.64-2.41-2.46-3.27.37-.72 1.51-.68 1.64-1.64-1.53 1.28-3.34-.05-4.91.82.77.95 1.51 2.01 2.05 4.09 1.26.3.78-1.13 2.04-.82.75 2.53-1.48 4.22-.82 5.31-.41-1.22.91-.72 1.64-.81-1.16-2.02.87-2.82 2.45-3.28.16.96-.61 4.21 0 5.32.35-1.56 1.55-2.27 2.86-2.86.52.17.84.53.82 1.23 1.33-.99 3.73-.91 4.5-2.46-1.98-.58-2.97-.03-4.91 0 .52-1.27 2.11-3.6 1.64-4.5zm-56.02 7.77c2.6.56 3.44 1.13 2.86-2.04-1.58.17-1.45.45-2.45-.41-.54.86.2 1.21-.41 2.45zm25.76-5.72c1.05-2.78.46 2.67 1.64.82-.32-.09-.48-.35-.41-.82h.82c.19-1.28-.51-1.67-1.23-2.05-.32.42-1.96 1.52-.82 2.05zm33.53.82c1.1-.56 1.59-1.44 2.86-.82-.18-.91-.72-1.46-1.63-1.64.57 1.56-2.98 1.07-1.23 2.46zm3.27-.82c1.29.2.93-1.26 2.46-.82-.36.72-1.38 1.27 0 1.64.58-.64.85-1.6 1.22-2.46-1.63-.84-2.85.52-3.68 1.64zm-45.79-2.05c1.52-.15.75 1.97 2.04 2.05.13-.55.58-.78.41-1.64-1.6.52-1.37-1.11-.82-1.63-1.02-.07-1.28.63-1.63 1.22zm-4.91.82c1.26.31.78-1.12 2.04-.82-.39 1.63 1.19 1.27 2.05 1.64-1.97-1.53-.78-1.51-1.23-4.09-1.75.29-2.88 1.21-2.86 3.27zm53.97-4.9c-1.76-.25-1.63-1.07-.81-2.46-1.26-.29-1.21.71-2.46.41.57-.25.06-1.57.82-1.64.7.75 1.61-.12 1.64-1.22-.37-.72-1.67-.52-1.23-2.04-2.05-.12-3.04 4.18-4.91 1.63.78-.17.74-1.17 2.05-.82.43-1.79-1.39-1.34-1.23-2.86.47-1.16 1.93-1.34 2.45-2.45 2.31.12 2.46.63 4.91.41-1.23-1.45 1.22-2.37 1.63-.82-.89.06-.87 1.03-.81 2.04 1.74-.98 1.52-.57 2.86.41.55-.4.82-1.09 1.23-1.63-1.39-.48-.65-.82-2.46-.41.44-1.53-1.01-1.17-.82-2.46-3.58.21-5.08 1.19-7.76 0 .25-2.11-2.28-1.9-.82-4.08-2.05.13-1.02 3.34-2.46 4.08 1.4.38.9 2.66 2.05 3.28-.56.01-.9-.2-1.23-.41.43.93.26 2.46.82 3.27-2.97.79-1.6 3.4-3.27 5.31.27 2.57 4.59 4.13 6.54 2.46-1.13 1.12.37 1.7.41 2.86-.72.11-2.04-1.15-2.45 0 1 .36 2.22.5 2.45 1.63 2.34-.33 2.95-2.88 2.86-4.49zm-25.35.4c-.59.23-2.11-.47-2.04.41.71.51-1.05 1.68 0 2.87 1.66-1.21 1.86-3.87 4.08-4.5.09-1.45-1.91-.81-1.63-2.46.38.25 1.51.96 1.23-.41-1.38-.04-2.17-.81-2.87.41.64.11.29.9 0 1.23 1.19-.51 1.87-.21 2.05 1.23-2.2-.42-.99-.65-.82 1.22zm-22.49 1.64c.05.9 1.74.17 2.46.41.64-1.41-2.74-1.94-2.46-.41zm27.4-.41c.81.68.52-.03 1.63 0 .33-1.57-1.95-1.57-1.63 0zm28.21-1.23c-.46-.08-.64-.45-.82-.81-1.02.2-1.68.77-2.45 1.22.58.1.69.68 1.23.82.61-1 1.7-.89 2.04-1.23zm-39.66-6.13c-.01 1.65.64 2.63 1.64 3.27-.59.23-1 .64-1.23 1.23 2.92 1.62 2.3-3.67 4.5-2.86-.52-.58-2.16-.03-1.64-1.64 1.02.05 1.28.78 1.64-.41-1.53-.27-3.69-.69-4.91.41zm11.86 2.04c.47-.74 1.07-1.38 1.63-2.04 1.94.79 1.83 3.63 3.68 4.5 1.38-.66-1.28-1.3 0-2.05.78-.09.91.46 1.64.41-.33-1.96 2.22-1.04 2.45-2.45-1.24-.26-3.52.52-4.09-.41 1.54-1.23-.19-2.54.41-3.68 1.57 1.56 3.14 1.31 4.91 2.05-.43-1.16-.43-1.71 0-2.87-1.68-.41.17-1.99-1.23-2.86-.31-1.04 2.8-.69 1.23-1.64-.35 1.2-1.32-.24-2.05 0-.9.6.24 3.24-1.22 3.28-2.39-1.03-5.64 1.64-7.36 0 .7 1.95-1.64 2.96-.41 4.09.29-2.05 3.37-3.86 4.5-1.64-1.23.93-2.24 1.46-4.09.82 1.73 1.55-.61 3.34 0 4.49zm-45.39 1.64c.9.37 3.33 1.76 3.27-.41-.48-.06-1.16.07-1.22-.41.47-.07.44-.64.4-1.22-1.32.17-1.62 1.37-2.45 2.04zm71.15-1.64c-.13.95.06 1.57.41 2.05 1-.73 2.77.93 2.86-1.23-1.78.56-1.48-.97-2.46-1.22-.09.31-.34.47-.81.4zm49.06 0c.51 2.16 1.29.29 2.86.41v-.81c-.41 0-.48-.33-.81-.41-.06.89-1.03.88-2.05.81zm-165.19-.4c1.06.09 1.97 2.11 2.46.4-2.46.12.46-2.62-1.64-2.86.2 1.29-1.25.93-.82 2.46zm88.73.4c-.85-1.07-2.47-3.51-3.68-2.86 1.25.4-.47 1.09-.41 1.64 1.97.45 2.62.01 4.09 1.22zm-67.46-3.67c.19-.49.43-.93.81-1.23.08 1.29 2.21.52 2.05 2.04-1.25.3-1.21-.7-2.46-.4-.21 1.01-.99 1.45-1.63 2.04 2.45.18 3.24-.99 3.27.82.07-.48.65-.45 1.23-.41-.5-2.63 1.84-5.07 0-6.54-.07.47-.65.44-1.23.41.05-1.02.77-1.27 0-2.05-1.85-.22-2.67.6-2.45 2.45.59.23 2.11-.47 2.04.41-.32.8-3.06 1.27-1.63 2.46zm31.89-1.64c-.24-.85-1.01-1.17-.82-2.45-1.88-.18-3.15-.31-4.91.41.68 1.72-.72 4.51 1.64 6.95.08-.61.99-.38 1.64-.41.12-.81-.56-.81-.82-1.23.1-.72.7-.93 1.63-.82-.75 1.48 1.03 2.02 2.46 2.46-1.84-2.28 1.99-3.5-1.23-3.68.82-.77.65-1.49 2.04-.82-.02-1.73-.93-.97-1.63-.41zm-65.01 4.5c-2.09-.54-.08-1.25-.82-2.05-.61.62-1.83.62-1.64 2.05.66.65 3.47.1 2.46 0zm184.4-.41c1.58-1.19 1.62 1.46 2.87.41.39-1.25-3.01-2.01-2.87-.41zm-108.35-3.68c-.04 1.05-1.53.66-2.05 1.23.4 1.23 1.22 2.05 2.46 2.45.08-.52 1.18-2 .4-2.04-2.32 1.32.3-1.07-.81-1.64zm-28.62 2.86c.27-.98 2.44-2.15 3.27-1.23.94.28-2.38-.27-2.05 1.64-.34.08-.38-.16-.41-.41zm134.93.41c1.15.06 1.18-1 1.22-2.04-.6-.9-1.24-1.76-1.22-3.27-1.49-.25-1.62 2.98-.82 3.68-.07-.9.33-1.31 1.23-1.23.79 1.46-.16 1.5-.41 2.86zm-187.27-2.86c-.02-.25-.06-.49-.41-.41-.13 1.36 2.01.44 1.23 2.45 1.53.03 2.34-.65 2.86-1.63-2.06-.27-1.07-2.8 0-3.27-2.23-.05-1.89 2.47-3.68 2.86zm-3.68-.41c1.53-.31.89 1.56 2.04 1.64-.11-1.7.54-1.6 0-2.87-.91.17-1.3.88-2.04 1.23zm88.73 1.64c.76-.06 1.36-.28 1.63-.82-.63-.11-.28-.9 0-1.23-1.15.08-1.74.71-1.63 2.05zm15.53-7.37c-1.38 2.23.44 4.73 1.23 6.14-2.13-.22-3.69.12-4.91.82.19-2.07.35-3.18 0-4.5-.98 1.33-4.32.31-3.68 3.27-.6-.35-.87-1.03-.81-2.04.66.11.7-.39 1.22-.41-.25-1.37-1.2-1.4-.41-2.87-1.15-.07-.95 1.54-2.04.41-.65.58-1.04 1.41-1.23 2.46-1.86-.59-3.3-1.6-5.31-2.05-.34-1.15.57-1.06.41-2.04.61.61 1.72.73 2.04 1.63 1.09-.27 1.5-1.23 2.05-2.04 2.07.17 2.4 1.25 4.49 0-.33 1.15.58 1.06.41 2.04 1.2-.03 1.52-.93 2.05-1.63-.23-1.14-1.58-1.15-2.46-1.64.16-1.25-1.07-2.08.41-2.45-.09-.52-1.22-.54-1.23 0-1.22-.27.4-.88 0-1.64 1.43.5 1.56.99 2.87 0-.93-1.85-.11-3.63-2.46-4.5-.47.07-.34.75-.41 1.23-.68-1.27-1.69-2.83-3.67-1.63.14-2.04 2.36-2.01 2.45-4.09-.07-.48-.75-.35-1.23-.41-1.1 1.35-1.04 3.86-2.86 4.5-.24-.72.49-2.41-.41-2.46.28-.81 1.25-.93 1.64-1.63-.48-.26-1.07-.21-1.64-1.23-.95.14-1.91.26-1.63 1.64.14.57.72.03.81-.41.81 1.91-1.47 4.89-2.86 6.95-1.11-.43-2.91-.2-2.86 1.63-1.32.09-1.73-.72-3.27-.41.68 1.33 1.04 1.32-.41 2.05.08.33.41.41.41.82.67-1.38 3.07-1.02 4.49-1.64-1.44-.75-.01-1.02.41-2.04 1.9.78 3.02.78 4.91 0-1.83-1.19-.3-1.62-.82-3.27 1.22 1.23 2.51 2.4 2.46 4.9-1.54-.86-1.45.21-2.46.82.18.8 1.17-.67.82 1.23-1.29.19-1.6-.59-2.45-.82-1.29-.2-.93 1.25-2.46.82.63.98 2.4.2 2.46.82-3.24 1.94-6.51-.57-9.41 2.86-.69-1.53.24-.65.41-2.05-1.23.54-2.52 1.02-2.86 2.45-1.9-1.7-1.36.59-1.64 2.87-1.76-.14-2.86-.96-2.86-2.87 1.02-.04 1.27-.76 2.05 0 .88.08.18-1.44.41-2.04-1.65.29-1.83-2.63-4.5-3.27-.93.23.49.64-.41 1.23-1.28-.22-.69-2.31-2.04-2.46 1.38-1.51-.09-1.48 0-3.68-1.16-.33-1.07.58-2.05.41.6 1.24.87 1.15 0 2.46-1.08-1.16-1.9-.45-2.45-1.64-1.08.29-.81 1.92-1.64 2.45-2.34-.94-2.28.66-4.91 0 2.07-2.16 5.71-.48 6.55-4.09-.29-1.02-1.09.76-2.05.41.49-.46.16-1.03 0-.41-1.16-.54.32-1.81.41-2.45 2.67-.25 3.17 1.69 4.09-.82 1.2.35-.24 1.32 0 2.05 4.01 1.26 5.47 7.36 10.63 4.09-.27 1.63-1.37 2.45-2.04 3.68.07.33.41.41.41.82.65.11.7-.39 1.22-.41-1.22-1.65.09-.64.41-2.46.84.12.82 1.09 1.23 1.64.73.05.86-.5 1.63-.41-1.14-1.57-.16-.89.41-2.45.13-.83-1.18.08-1.22.4-2.06-.72.23-2.63-1.23-2.86.28-1.49 1.63.09 3.27-.41-.64-2.1-1.8-2.29-1.23-4.49-.41.26-.42.94-1.22.81-.41-2.55 2.95-3.46 1.22-4.9-.72.36-.52 1.66-2.04 1.22.73-1.04-.45-1.99.82-2.86-.71-.66-2.35-.38-2.05-2.04 2.52 2.01.93-5.25-1.63-4.5.3-.38.74-.62 1.22-.82-.13-1.45-1.12-1-.41-2.45-.98.37-1.08 1.64-1.22 2.86-1.54-2.57-2.31.69-5.32 0-.45 1.32-.85 2.69-1.22 4.09-1.33-.24-1.91.28-2.87.41-.2-1.98 1.99-1.56 2.87-2.45-.14-1.97 1.13-3.51-.82-4.09-1.05.31-1.73.99-2.05 2.04-1-.26-.06-1.91.41-2.04-1.12-2.15-6.41-1.29-7.77 0 .48 1.59.24 4.83-.81 6.13-.02.7.3 1.06.81 1.23.89.07.19-1.45.41-2.05.74.05.87-.5 1.64-.41-.16 1.92-.25 1.36-.41 3.27.25 1.85 2.61-.79 2.45 1.64-1.61.11-2.84-.16-3.27-1.23-1.03 2.56-3.25-.89-4.09 1.64.38-1.79.08-5.31 2.86-6.13.06-1.01.07-1.97-.4-2.46-2.01-.06-2.42 2.12-1.64 3.68-1.02-.07-1.28.63-1.64 1.23-.25-.23-1.23-1.66-1.63-.41-.67-.05 1.05-2.73-.41-1.64.31-1.33 1.2-5.6 4.5-5.31-.33-2.34-2.35.77-2.86-.41.32-.9 1.92-.53 2.04-1.64 1.03 1.44 3.33.71 4.09-.4-.43-1.55-1.06-1.99 0-3.28-.74-.62-1.25-1.47-2.86-1.22 1.2-2.07 2.29-4.25 4.08-5.73-.97-1.34-1.2 1.49-2.86.82-.33-1.56.87-1.58 1.64-2.04-.21-1.75-4.36-1.78-4.09.4-.29.67 1.93.67 1.64 0 1.34 1.11-.7 1.6-.82 1.64-.41 1.23.91.73 1.63.82-1.76 1-1.17 4.18-2.86 4.09-1.72.07.01-.63 0-1.23-.08-.33-.41-.41-.41-.82-1.55.22-2.26 1.28-4.09 1.23.28-.95 1.36-1.09 1.64-2.04-1.07-2.44-4.43-.15-5.32-2.87.48-2 2.74-2.42 2.46-4.09.61.62 1.23 1.23 2.04 1.64-.58 1.27.07 2.64 1.64 2.86 1.46-.34-.17-1.43 1.22-2.04-.05-.9-1.73-.18-2.45-.41 1.15-1.31 3.21-1.7 4.5-2.86.12-1.08-1.59-.32-1.23-1.64 1.95.17 2.95-.59 4.5-.82-.74-.88-1.16-1.44.82-1.22.4-1.49-1.99-.19-1.23-2.05 1.48.83 1.98-.04 3.27-.41-.28 1.26-.28.79 0 2.05-.76.05-1.36.27-1.64.82 1.75-.27 1.2 1.85.42 3.27 1.55.58 2.41-.15 1.22 2.04 1.96.18 1.79-1.75 3.27-2.04.92-.32 1.31 1.88 2.05.41.54-.31-.49 2.79.82 1.22.39.01.31.5.4.82v.82c-1.31-1.36-3.06-.32-2.86 2.04-1.53.04-3.31.31-2.86-1.63 1.16-.07 2.8.35 2.86-.82-.08-.33-.41-.41-.41-.82-1.9.71-2.47 1.65-3.68 2.45.22.61.61 1.04.82 1.64 1.29-.63 2.28-.26 3.27.41.05.73-.5.86-.41 1.63.38 1.12.76-1.09 2.05-.4-.99 1.1 1.26 1.45.82 3.27-.86-1.67-2.93.11-2.87-2.05-.95-.13-1.57.07-2.04.41.37.99 1.64 1.08 2.86 1.23.1 1.73-1.73 1.54-1.64 3.27-1.05-.86-.06-3.76-2.45-3.27.13-.97 1.42-.76 1.23-2.05-.93.98-3.49.33-4.09 1.64.06 1.17 1.7.75 2.86.82.19 1.27-1.03 1.46-1.64.81.12 1.53 1.25 2.04 1.23 3.68 3.72.6 7.43.5 9.41-3.27-.99.19-2.32.99-4.91.82-.05-1.96 2.87-.95 2.86-2.86.82 0 .52 1.11 1.64.82 1.54-.84-.07-2.44 1.22-3.68-1.19.3-2 .99-2.86 1.63-.41-.26-.42-.94-1.22-.82.01-1.23 1.73-2.36-.41-2.45.57-1.51 1.41-1.16 2.04 0 2.41.37 1.74-2.35 3.68-2.45.87.83-.11 1.62-.41 2.45 1.11 1.11 1.02-1.06 2.46-.82-1.13 1.1.48.89.4 2.05-.85.17-1.08-.28-1.63-.41-.89-.07-.19 1.45-.41 2.04 1.59.09 2.57-.43 2.86-1.63.73.93.87 2.16.41 3.27 1.72-.33 2.42-1.68 3.27-2.86 1.2-.11 1.41.77 2.05 1.22 1.35-.63-1.49-1.09 0-2.04-.07-.48-.75-.35-1.23-.41.04-2.14.49-3.87 2.45-4.09-.74 1.44.19 3.28 1.23 2.45.98.62-.65 2.05-1.64 2.05-.35 1.31 1.06.85 1.23 1.63-.27 1.53-1.51 2.53-2.45 1.23-.94 2.17.78 1.27.82 3.27 1.81-.09 2.7-1.11 3.27-2.45 1.89-.26 2.53.74 3.27 1.63 2.14-.87-1.41-2.77 1.22-2.86-2.36-1.23-4.48-4.71-4.09-7.36 1.4.12 2.74 2.43 1.64 3.68.41.55 1.11.81 1.23 1.64 1.43-.33 1.34-1.15 2.45 0-.61 1.36-1.05 2 0 3.27.33-.08.41-.41.82-.41.86-.11-.59-1.09.41-1.64 1.16.43 1.7.43 2.86 0v1.23c1.45-.79 1.89-.46 3.27-.82-.38-1.86-2.56.21-3.27-.81-.47-1.29.64-1 .82-1.64-.64.64-2.51-.85-1.64-2.45-.33-1.03-2.15-.57-2.86-1.23.31-1.87 3.8-.57 3.27-3.27-1.45-.09-.81 1.92-2.45 1.63-1.53-1.88-3.7-.74-6.14 0-1-.82-.79-1.9.82-2.04-.32.36-.44.92-.41 1.64.87-.37 1.21-1.25 2.46-1.23.2-1.29-.89-1.6 0-2.45-1.3-1.24-2.45-.36-4.09-.82.22-.73.21-1.7.81-2.05-.36-.78-3.66.24-1.63 1.23-4.11 2.06-5.97 5.5-6.95 9.81-1.28-.22-.63-2.37-1.23-3.27 2.98-.24 1.66-3.16 2.87-4.5-.35-.88-1.8-.66-2.46-1.22.72-.87.92-1.21.41-2.46 1.34-.66 1.56.1 3.27 0 .33-.07.41-.41.82-.41.12-1.97-.95-2.76.82-3.26-.93-1.17-1.58 1.39-3.27.81.57-2.02 3.23-1.94 5.31-2.45.16 1.66-1.74 1.26-2.04 2.45 2.87.49 3.65 1.15 6.13-.41.19.79-1.26 1.76.41 1.64-.12.83-1.11.8-1.23 1.63 1.24 1.31 2.55 1.59 4.09 3.28.86-1.19 2.82-1.28 3.68-2.46-.35-1.2-1.03.53-2.04 0-.34-1.15.57-1.06.41-2.04.94.98 1.31.62 2.86.41v-2.86c.43.52 3.09 2.53.81 2.04-.11.66.39.7.41 1.22 1.68-.56.86-1.5.82-3.26.54-.15.64-.73 1.23-.82 1.68 1.55.89-.68 2.86-.82.26 2.03.2 1.74-.41 3.27-1.22-.27.39-.87 0-1.63-4.1 1.07-3.75 6.6-6.13 9.4 1.91 0 1.08-2.73 3.27-2.45-.54-1.27.11-1.17 0-2.87 1.85.63.88-1.57 1.64-2.04.99.23 2.1.35 2.04 1.63.73.25 1.7-1.2 2.04 0 .81-.28 1.09-1.09 1.23-2.04.86-.17 1.08.28 1.64.41 1.29-1.22-.79-2.65 2.04-3.27-.38-1.17-.59-3.96 1.64-3.68-.52 2.56 4.39 1.41 2.45 4.09 1.42.32 1.57-.61 2.86-.41.3 1.25-.7 1.2-.41 2.45.52-.71 1.39-1.07 1.23-2.45 1.3.24 1.26-.77 2.04 0-.41.81-1.02 1.43-1.63 2.04.06.76 1.38.25 1.63.82-.3.73-.74.06-1.22 0-1.13.63-.04 2.46.41 2.86 1.52-.4 1.06-.87 2.86-.41-.16 2.03-2.33 2.04-2.46 4.09 1.77-1.43 3.29-.06 5.73 0-.11 1.4-.88 2.13-2.45 2.05-.18-.86.28-1.09.41-1.64-1.05.04-1.95.23-2.46.82.23.92.64-.5 1.23.41-.26 1.51-1.27 2.28-3.27 2.04.31-.36.44-.92.41-1.63-1.2-.11-1.26.92-2.46.81 1.63 1.26 1.43 1.12 3.68 2.05-2.03 1.29-1.08 3.45-2.04 5.31.28 1.36 2.81.46 3.27 1.64.33-.08.41-.41.82-.41.25-.65-.07-.74-.4-.81l-.03-.01c-.32-.08-.64-.16-.39-.81 2.31-2.06 2.58.96 3.27-.41 1.11.37-.42 1.43-.41 2.04 1.29 2.39 1.23-1.84 3.27-1.23v2.05c-1.45-.09-2.45.27-2.86 1.23.4 1.14 1.09-.6 1.64.4-.02 1.78.61 1.88-.41 2.87-.79-.04.7-1.6-.82-1.64-1.5 1.53-2.5.14-3.68-.82-1.23.41-2.84.43-2.45 2.46-1.29.19-1.08-1.1-2.05-1.23-1.46-.24-1.24 1.21-1.22 2.45 1.11 1.48 3.97 1.2 5.31 2.46-.34 1.23-.96 3.64-2.45 2.45.73 2.18 2.03.97 4.5 1.23-.18.85.27 1.08.4 1.63 1.02.07 1.27-.64 2.05-.82-.37-.71-.76-1.42-2.05-1.22 1-1.32 2.05-2.59 3.68-3.27 1.03-.07 1.28.63 1.64 1.22 1.31-.19 1.44-1.55 2.86-1.63.07 3.61-3.4 3.69-4.9 5.72 2.84.19 7.48.57 8.99 4.09-1.59.06-2.47 3.08 0 2.86-.01-.39-.5-.31-.82-.41.29-1.28 1.09-.53 2.05-.4-.27-.42-.94-.43-.82-1.23.59-.91 1 .51 1.23-.41 1.01.06.12 1.38 0 1.64.61.14.91-.03 1.21-.2l.03-.02c.29-.17.59-.34 1.21-.19-.12-1.07-.14-2.05 1.23-1.64 1 .97-.61.76-.41 2.05 1.25-1.42 2.07-.86 4.5-1.23.3-1.26-1.13-.79-.82-2.05 1.31-.35.84 1.06 1.63 1.23-1.13 1.45-2.7 2.47-4.5 3.27-.11.66.39.71.41 1.23 1.8.43 1.35-1.38 2.87-1.23-1.74 1.52.54 2.07-.41 4.09 1.56.06 1.33-1.67 2.04-2.45 1.03.6 1.69 1.58 2.05 2.86 1.03-.33 1.62-1.1 2.45-1.64-1.48-.68-2.78-.91-3.68-1.22 1.36-1.32 3.05.15 4.09-1.23-.37-1.12-1.66.95-1.23-1.23-.95.55-3.05-.05-2.86 1.64-.31-.64-1.3-.61-1.23-1.64 1.53-.52 3.57-.52 3.27-2.86 2.26.63 1.46-1.81 3.27-1.63-.88 1.5-.69 2.03.82 2.86-.62 1.08-1.46 3.68 0 4.5-2.06 1.1-3.98 2.54-3.68 4.9-.68-1.03-.63-1.52-1.22 0-.56-.12-.34-1.02-.41-1.63-.33.21-.67.42-1.23.41 1.59 2.07-1.13 2.48 0 4.9-1.71-.46-.89-3.47-4.09-2.45.02-4.36-2.37-1.74-5.31-2.45-.31-1.67 1.31-1.41.81-3.27-.83-.36-1.6 1.64-2.04-.82-.85.1-.11 1.79-.82 2.04-.68-1.37-1.07-.06-2.45 0v-2.04c-1.66.41-2.85-1.24-2.86.82.12.55 1.02.34 1.63.4-.18.51-.52.84-1.23.82.71.7 1.08-.06 2.46.41-.15.54-.72.64-.82 1.23 1.16.33 1.06-.58 2.05-.41 1.07 1.46.46 2.97 0 4.9-2.58.19-1.82-3-4.5-1.63-.36-1.31 1.35-.56 1.22-1.64-.09-1.62-1.67-1.75-2.86-1.22-.02.7.31 1.06.82 1.22-.89 2.12-2.62-1.25-3.27.82-.61-.18.16-.52 0-1.23-2.27.47-2.29 3.17-2.86 5.32.66-.98 3.6.33 3.68-1.23 1.99 1.39-.79 2.35-1.64 3.28-.79-1.89-5.01-.08-6.13-2.46-1.22.01-1.39 1.06-2.46 1.23.8 1.52 2.04 2.6 3.27 3.68-1.19 2.5-5.67 3.49-7.35 2.45-1.94.93-2.92 2.81-4.09 4.5-2.7-.88.67-3.95.81-3.27-.28-1.32-3.32-.09-2.45-2.46zm-12.26 5.32c.8.12.81-.55 1.23-.82.09.32.01.81.4.82 1.19-2.23-1.5-.94-2.45-2.04-.31 1.26 1.41.5.82 2.04zm-6.95 0c.55-.52.63-2-.41-2.04-.65.61-.3 1.67.41 2.04zm60.92-9.4c-1.8-1.18-4.08 2.34-5.32-.41-.95 2.31-4.07 2.47-4.9 4.9 2.65.47 3.79-2.73 5.72-1.63.13 1.08-2.29-.38-1.63 1.22 1.25-.29 1.49.42 2.45.41.24-2.49 3.79-1.66 3.68-4.49zm-100.99 4.49c1.89.21 2.25-2.66 3.68-1.63v-1.64c-2.31.01-2.18 2.46-3.68 3.27zm39.66-.82c.83 1.02 1.67.58 2.86 0-.06-.47.07-1.15-.41-1.22-.37.86-2.31.14-2.45 1.22zm51.52-.81c0-.82 1.11-.52.82-1.64-.25-.12-1.58-1.01-1.64 0 .51.17.84.53.82 1.23-.23 0-.47.33 0 .41zm-92.41-1.64c1.04-.05 2.1-.07 2.04-1.22-1.28-.2-1.67.5-2.04 1.22zm-18.4-2.04c-.46.09-.64.45-.82.82 1.09-.28 2.08-.65 2.86-1.23-1.04-.43-.69-1.85-.4-2.86-1.52.34-2.33 1.84-1.64 3.27zm118.17-.41c-.61-.65-1.83-.46-1.64.82 1.55.43 3.12-1.21 2.46-1.64-.09.46-.46.64-.82.82zm36.8.41c.47.34 1.09.54 2.04.41.16-1.27-1.97-1.67-2.04-.41zm5.31-4.5c.1.73-.41 2.05.82 1.64 1.11.29-.29-1.93.82-1.64.51.09.83.64.82-.41-1.01-.05-1.98-.06-2.46.41zm12.27-.82c.87.4 1.82-.12 2.86.82-.09-1.4-1.22-1.78-2.45-2.04.02.56-.2.89-.41 1.22zm-26.99-.82c1.53-.43.65 1.54 2.05 1.23.88-.93.15-2.55-1.23-2.45-.1.58-.67.69-.82 1.22zm-98.95-3.67c-.04 1.67 2.45.82 2.05 2.86 1.13-.24 2.29-.44 2.04-2.05-1.34.07-2.91 1.21-2.45-1.22-.71-.03-1.27.09-1.64.41zm-62.97-.41c-.14-1.09-1.07-1.38-2.04-1.64-1.42 1.32 1.01 2.77 2.04 1.64zm47.44-.82c-.1-.77.46-.9.4-1.64-2.7 1.37-4.07-1.03-6.13 1.23-.02-.56.19-.9.41-1.23-1.16.34-1.06-.57-2.04-.41.69 5.81 3 1.8 7.36 2.05zm-15.95-1.23c1.28.19 1.3-.87 1.22-2.04-.48.06-1.16-.07-1.22.41 1.22.26-.39.87 0 1.63zm-2.86-1.22h-1.64c-.32-1.58 1.96-1.58 1.64 0zm14.72-.82c.53-1.22.36-2.02-.82-2.46-.63.63-.73 2.81.82 2.46zm93.22 0c1.34.1 1.97-.49 2.05-1.64-1.2.03-1.52.94-2.05 1.64zm19.63-1.64c-1.46-.94-2.47-.73-4.5-.41-.09.78.46.9.41 1.64 2.22.03 2.43-1.07 4.09-1.23zm-96.91-1.23c1.2.72 3.13.82 2.46-.4-.11.82-2.17-1.61-2.46.4zm92.41.41h-1.63v-1.63h2.04c-.32.36-.44.92-.41 1.63zm-85.46-2.86c-1.29.46-.92.04-2.45 0-.59 1.28 3.04 1.28 2.45 0zm83.01 0c1.67-.45 2.48-.08 3.68.82.04-1.96-1.11-2.71-2.46-3.27.56 1.78-.97 1.48-1.22 2.45zm-161.51-1.63c.77-.1.9.46 1.63.41-.09-1.14-1.29-1.16-1.63-2.05zm27.39-4.5c-.17.78-.88 1.03-.81 2.04 1.64-.53 1-.81 2.45 0 .09-.63 1.57-1.91.41-2.45.07.89-1.45.18-2.05.41zm-18.81 2.04c1.27-.37 1.36-1.91 1.64-3.27-.81 0-.52-1.11-1.64-.82 1.5 1.53-.03 1.95 0 4.09zm115.31-2.86c-.02.52-.52.57-.41 1.23 1.61.52 1.06-1.12 1.64-1.64-.78-.17-1.03-.88-2.05-.82-.12.81.55.82.82 1.23zm-80.55 0c.87.88 2.23.15 2.45-.82-.71.38-2.04.14-2.45.82zm85.87-4.5c1.05-.1 1.05 2.55 0 2.46.17.78.14 1.76 1.22 1.63-.26-2.71 2.08-2.82 3.68-3.68 0 .41.33.49.41.82-.1.58-.67.69-.82 1.23 1.2-.03 1.52-.94 2.05-1.64-2.09.29.69-1.75-.82-2.04-.77 3.1-4.62-1.17-5.72 1.22zm-115.72 2.86c.99-.37 1.67-1.05 2.05-2.04-1.02.36-2.96 1.01-2.05 2.04zm132.48-.81c1.02.07 1.28-.63 1.64-1.23-.56-.13-.79-.58-1.64-.41zm-101.4-4.09c.29 1.11-.82.82-.82 1.63-.45-.1-.28-.81-.82-.81.1-.72.7-.94 1.64-.82zm103.04-1.23c.55 1.78-.98 1.48-1.23 2.46-1.12-.01-.97-1.93-.41-2.46zm-62.15 2.46c1.47-.85 3.5-1.14 4.08-2.87-1.21.41-2.01.58-2.45.82 1.06.7-1.74.96-1.63 2.05zm-38.03-.41c-.95.13-1.57-.07-2.05-.41.22-1.33 2.46-1.81 2.05.41zm-10.22-2.46c-.06 1.31-.93 1.8-2.46 1.64.1-1.27 1.45-1.28 2.46-1.64zm-24.54.82c1.07.12 1.76-.15 1.64-1.23-.7-.73-1.61.13-1.64 1.23zm0-2.45c1.19-.53 2.89-.52 3.68.41-.1.58-.67.69-.81 1.22 1.96-.27 1.3-1.05 1.22-2.86-1.78.52-1.82.12-3.27-.41.3 1.12-.81.83-.82 1.64zm10.23.41c1.27.21 1.82-1.12 1.63.81 1.36.24 2.96-1.36 2.05-2.04-.81.91-1.9-1.35-3.28-1.23-.47.49-.46 1.45-.4 2.46zm9.81-3.68c.57.78.22 2.5 2.04 2.04-.35.6-.61 1.3-1.63 1.23.81-1.02-1.29-1.75-2.05-2.46.27-.54.88-.76 1.64-.81zm6.13 0c-.54.41-1.51.4-2.04.81-.21 1.29 1.41 1.08.41 2.05-1.86-.25-.21-1.88-2.46-2.05-.26-1.49.28-2.17.82-2.86.71.37 1.58.92.82 1.64.72.11 2.04-1.15 2.45 0 .5-.18.84-.53.82-1.23 2.03-.53 2.01.99 3.68.82.03 1.53.31 3.31-1.64 2.86 1.03-.99-.82-.91-1.63-1.23-1.02.3 1.35 1.23 0 2.05-1.03-1.07-.42-1.41-1.23-2.86zm7.77-.41c-.64.58-.32 2.13-1.63 2.04.1-1.51.8-1.8-1.23-1.63.8-.98 1.93-1.63 2.86-.41zm-13.08-2.86h1.63c-.37 1.13-1.07 1.92-2.04 2.45.61-1.25-.14-1.59.41-2.45zm51.11-.82c.5 2.82-2.33.46-2.46 2.04-1.11-.37.42-1.43.41-2.04zm-70.33 1.22c.91-.07 2.86-1.18 1.63-2.04-.38 1.38-1.66-1.78-2.45 0 .61.35.59 1.32.82 2.04zm26.99-5.31c.98-.16-.23 1.86 1.22 1.23.08 1.17.05 2.23-1.22 2.04 1-1-.31-1.77 0-3.27zm7.36 1.23c-.35.88-1.01 1.44-2.46 1.22-.15-1.37 1.77-.68 2.46-1.22zm-4.09-1.64c.19 1.28-.36 1.82-1.64 1.64.05-1.04.6-1.59 1.64-1.64zm-30.98-3.82c.46.93 1.9.17.72-.68 1.76-.01 3.02-.82 4.09-2.45-1.05-.25-2.23.54-3.68-.82.7-2.28 4.82-1.97 3.68-4.91 1.37-.42.63 1.28.81 2.05.6-.36 1.3-.61 1.23-1.64 2.04 1.18 3.3-.48 5.32-.41 1.08 1.45-1.94 2.5-.82 4.09-1.25-.29-1.49.42-2.45.41 0-.81 1.11-.52.81-1.63-1.18.25-2.11 1.55-2.86 0-.8.31 1.11 1.3.41 2.86-2.39.18-2.33 4.12-4.91 2.86-.59 1.55 1.13.79.82 2.05.58.03 1.16.06 1.23-.41 1.38.75-2.94 1.36-.82 2.86-.7.66-1.49 1.24-2.86 1.23.64-1.27 2.03-1.79 2.45-3.28-.26-.41-.94-.42-.82-1.22-1.29 1.1-2.05 1.15-3.68 1.22-.12-1.29 1.81-.52 1.33-2.18-.04-.08-.08-.17-.1-.27.04.1.07.19.1.27zm35.47 3.82c-.6 1.54-1.08.82-2.86.82-.12-.5 1.18-1.41 1.23-.41.54-.52.8-1.23 1.63-.41zm81.37.41c.03-.25.06-.48.41-.41 1.26-.31.79 1.12 2.05.82.73-2.01-3.87-1.22-2.46-.41zm-88.32-3.68c-.66.97-.65 2.62-1.22 3.68-1.77.27-2.3-.71-3.27-1.23.43-1.89 1.97-2.66 4.49-2.45zm95.48 3.16c-.9-2.01-2.84-2.2-3.89-4.8 1.76.57 1.37 1.42 3.68.82.1.73-.41 2.05.82 1.64-.7.67-.9 1.39-.61 2.34.08.16.14.33.2.52-.08-.18-.14-.35-.2-.52zm-94.25-3.16c.36.32.92.44 1.64.41-.24 1.13-.44 2.29-2.05 2.04-.67-.63.14-1.59.41-2.45zm87.09 0c1.13 1.13 1.71-.37 2.87-.41.07-.89-.34-1.3-1.23-1.23 0 1.09-1.14 1.05-1.64 1.64zm-109.58 0c.58-1.22-.22-1.49 1.23-2.04-.87-.55-1.21.2-2.46-.41.21 1.02.78 1.68 1.23 2.45zm70.33-.41c1.39.03 1.52-1.2 2.04-2.04-1.22.14-1.63 1.09-2.04 2.04zm-69.1-2.86c.47 1.02.89 2.1 2.04 2.45.18-1.83 2.14-.99 3.68-.82-.81-3.24-3.69.41-4.9-2.04-.09.32-.35.47-.82.41zm22.49.41c-.41.54-.68 1.23-1.23 1.63-.91-.18-1.46-.72-1.64-1.63 1.19-.66 1.06.75 2.87 0zm61.33-1.64h-1.64c-.28-1.64 1.73-1 1.64-2.45-.35-1.2-1.03.53-2.05 0 .44-2.16-.6-2.17.82-4.09-.28-1.28-1.09-.54-2.04-.41-.01-.96.7-1.21.41-2.45 1.9.4 2.47-.53 3.68-.82-.18.5-.53.84-1.23.82.51.54 1.23.8.41 1.63 2.04-.06.25-1.83 1.63-2.86.86.9 1.82.09 2.46-.41-.23-.59-.64-1-1.23-1.23-.63 1.78-1.47-1.02-2.04.82-.3-1.13 1.22-1.67 2.86-2.45v1.63c1.14-.63 1.7-1.84 2.86-2.45 1.25.4-.18 1.38-.41 1.64.37 1.59 1.51-1.36 1.64 0-.98 1.2-2.39 1.98-3.68 2.86.92.74.96 2.06.41 3.27-.33-.08-.41-.41-.82-.41-1.25.89.39 2.3 0 3.68 1.67-.81 2.24-2.92 4.09-2.45.39.42-.25 3.28-1.64 3.27v-1.64c-.33.22-.66.43-1.23.41.68 2.29-.21 4.79-1.63 6.14-1.22-.48-2.55-2.37-1.64-3.68-.01-.4-.5-.32-.81-.41-.85.1-.12 1.79-.82 2.04zm-76.05 1.64c.86-.25 2.51-1.82 1.63-2.46-.68.68-1.65 1.07-1.63 2.46zm96.08-.41h-1.63c-.38-1.62-.3-3.39 1.63-3.68-.36.72-.98 1.19-1.22 2.04.36.57 1.64-1.08 2.86 0-.8-1.43.1-2.44-1.64-2.45-.12-.94 1.19-.46 1.23-1.23-.71-1.32-1.07 1.06-2.45.41-.01-.96.7-1.2.41-2.45 1.26.28.78.28 2.04 0 .36.59.33 1.58 1.64 1.22-.18.78-.88 1.03-.82 2.05 1.09.89 1.86.55 3.27.41.16-1.39-1.81-.65-1.23-2.46 1.22.83 2.91 1.19 3.68 2.46.07 1.02-.62 1.28-1.22 1.63.12.97 1.42.76 1.22 2.05-1.24-.67-2.34-1.48-2.86-2.86-1.3-.25-1.26.76-2.04 0-1.05.04-.66 1.52-1.23 2.04-.95-.12-1.92-1.03-1.64.82zm-91.18-1.64c.05-.9 1.74-.17 2.46-.41v1.64c-1.59.35-1.46-1-2.46-1.23zm3.68-.82c.07-.47.75-.34 1.23-.4.17 1.39-.12 2.33-1.64 2.04-.06-.54 1.67-1.24.41-1.64zm11.45-10.22c-.89-.07-1.3.34-1.22 1.23.45.23 2.74.66 4.08 0-.21 2.29 1.38.23 2.46 1.22.36 1.33-1.34.58-1.64 1.23v2.46c.12.84 1.09.81 1.64 1.22-.28 2.04-2.81 1.83-2.46 4.5-.94.13-1.57-.07-2.04-.41.15-1.49 1.75-1.52 2.04-2.86-1.17-.6-3.2-.34-3.27-2.05-.73 1.5-2.13.58-3.68 2.46-.48-1.15.15-3.14.41-4.91-.06-.48-.74-.34-1.22-.41-.06-1.01-.08-1.98.81-2.04-.12-.96-1.93-.24-1.63-1.64 1.47.11 1.97-.75 3.27-.82.41 1.23-.91.73-1.64.82-.35 1.55 1.83 1.45 2.46.82.29-1.25-.42-1.49-.41-2.45-1.63-.37-4.1 1.8-2.86-.41-2.09-.45-1.26 2.02-2.05 2.86-1.16.07-.8-1.38-2.45-.82 2.21-1.6 2.66-4.97 4.9-6.54 2.22-.1 2.78 1.27 4.09 0 .7.52.01 2.44 1.23 2.45-1.1 1.47-1.59-1.1-2.86-.81-.07 1.15 1.23.95 1.22 2.04 1.91.19 2.63-.81 4.09 0-.37.71-1.27.9-2.45.82.23.85 1.01 1.16.82 2.45-.7-.02-1.06.3-1.23.82-.48-.07-.34-.75-.41-1.23zm9.41 9.41c-.04 1.24-2.68.96-3.28.41.59-1.21 2.54-1.5 3.28-.41zm-25.76-4.09h1.22c.77.73-.33 1.04 0 2.45-1.07.26-1.25.09-2.45.82-.32-.36-.44-.92-.41-1.64.52-.57 2.16-.02 1.64-1.63zm85.04 3.27h-1.63c.87-1.37.35-2 .82-3.27 1.68.55.06 2.29.81 3.27zm-20.85-.41c1.95.24 3.68.5 4.09-1.64-2.26 1.39-2.83-.08-4.09 1.64zm-57.24-1.23c1.07-.11 1.76.15 1.63 1.23-1.07.12-1.76-.15-1.63-1.23zm80.88-1.36c-.46-.56-1.65.33-.74.55-.27 1.22-.88-.39-1.64 0 .66-2.17 1.04-2.17.82-3.68 1.77-.21 1.03 2.09 1.56 3.13.03.04.05.08.08.14-.03-.05-.06-.09-.08-.14zm-51.44.14c1.24.01 1.02-1.44 1.22-2.46-.52-.02-.56-.52-1.22-.4.09 1.49.56 1.56 0 2.86zm-56.43-.82c1.35 1.35.98-1.1 2.45-.82.03-.7-.31-1.05-.81-1.22.17 1.39-1.23 1.22-1.64 2.04zm80.14.41c1.12-.38 1.71-1.29 2.05-2.45-.5-.47-.74-1.17-2.05-.82-.43 1.53 1.02 1.16.82 2.45-.5.05-.97.12-.82.82zm5.32-.82c1.38.26 3.58-.74 2.45-1.64-.64.6-2.2-.15-2.45 1.64zm-65.83-3.27c1.55-.2.38 2.8-.82 2.45.33-.76.68-1.5.82-2.45zm82.15-27.65c.96-.87.89-2.78 1.67-3.83.69-.16.77.31.82.81 1.14-.77-.78-1.91-.82-2.86-1.79.48-2.1-.11-3.68.41-.37-2.09 3.06-.37 1.63-2.45 3.1-.04 7.21-2.24 8.18-5.73 1.79-.28 2.31.7 4.09.41-.05 1.54.8 2.2 2.05 2.45-.52 3.48-1.45 11.66-.41 15.13-.96.96-.57 3.25-1.64 4.09-.38-.3-.62-.74-.82-1.22-1.43.48-1.14 1.4-.41 2.45 1.29-.49 2.17-1.38 3.68-1.64v1.23c1.49-.02 1.32-1.68 2.46-2.04.72.09.93.7.81 1.63 1.45.22 2.11-.35 2.46-1.23-1.82-1.19-.19-2.81-2.05-4.9-1.15-.34-1.05.57-2.04.41 2.16-1.73-1.09-1.35-2.04-1.64-.1-1.94 4.44-2.03 4.49.41 1.37.41 1.34-.57 1.23-1.64-.07-.48-.75-.34-1.23-.41.4-2.16 3.06-1.58 4.09-.81-.98 5.31 1.01 7.67-1.22 12.67-4.18-.77-1.87 4.95-4.5 5.73.61 2 1.55 1.15 2.45 2.86-2.48.37-4.77 3.22-1.23 5.31.07 1.33-2.46 2.14 0 2.46-.93 1.48-1.54.27-3.27.41.37-.86.64-1.82 1.23-2.46-.07-.48-.75-.34-1.23-.41-.29.44-.15 2.9-1.22 3.69-.94-.33-2.49-2.39-.82-2.87-.78-.71-2.13-.86-3.27-1.22-.16-1.53 1.97-.76 2.04-2.05-.1-.71-1.52.61-2.04.82-.54.2-.18-2.03.82-1.64-.71-1-1.93-.25-2.87-1.63-1.49 1.48 1.69 2.93-.41 4.09 1.27-.41 3.43.25 3.28 2.45-1.33-.04-.88-1.85-2.87-1.23-1.8.73-.03 2.78-2.04 2.86-.2-1.55.17-2.55 1.22-2.86-.34-.88-1-1.44-2.45-1.22.09-1 1.66-1.5 0-2.05.27-1.22.88.39 1.64 0 .55-.12.34-1.02.41-1.63-1.37-.43-2.73 1.46-2.46-.82-.78.17-1.02.88-2.04.82 1.26-2-.9-2.14-.82-4.09.73-.06.86.5 1.64.41.29-1.12-.82-.83-.82-1.64-1.26-.3-.79 1.12-2.05.82-.1-1.33 1.28-1.18 1.64-2.04-.63-.23-2.4-1.37-2.45-.82-1.11-.38.41-1.44.41-2.05 1.77.58 3.11 2.72 2.86 4.09 1.03-.46 2.32-.68 2.86-1.63-.85-.79-1.22-2.06-2.45-2.46 1.31-2.99-2.33-1.4-1.64-3.68-.86.9-1.59.9-2.45 0 .5-1.25 1.19-1.3 2.04-.41.31-2.35-1.23-2.85-2.45-3.68-.89-.07-1.3.34-1.23 1.23.7 1.23 1.49.45 2.86.41-.94 1.84-2.36.99-4.49.82-.44 1.53 1.01 1.16.81 2.45-3.66-2.19-5.65-6.07-8.58-9-.3-1.11.81-.82.82-1.63-.36-1.21-.62.95-1.64.41-.47-.49-.46-1.45-.41-2.45.39.69 1.29.89 2.05 1.22.33-.08.4-.41.81-.41-.16-1.4-1.1-.52-.41-2.04.9-.08 1.31.33 1.23 1.23.52-.58 2-.18 2.05-1.23.42-1.52-1.38-.8-1.64-1.64.13-1.78 1.37.76 2.45-.41-.29 1.25.42 1.49.41 2.46-1.54-.05-2.2.8-2.45 2.04.12.97 1.1-.45 1.23-.82 1 1.57-1.23 3.4-2.05 4.5.66 1.38 1.3-1.28 2.05 0 .76.78.04 1.03 0 2.05.29 1.01 1.23-1.35 2.04 0 .45-1.59-1.45-1.46-.41-2.46.81 1.05 1.11.15 2.86.82-1.6-1.53-2.19-4.08-3.68-5.72.98-.99 1.09.99 2.86.41-.8 1.9 1.45 3.47 2.87 3.27-.1.44-.81.27-.82.81.59.82 1.65-.64 1.23 1.64.72-1.04 1.18-.35 2.86-.82.34.48.54 1.1.41 2.05-1.72.49-1.8-.66-2.86-.82.18 1.86 3.4.69 3.27 2.86 2.11-.2 1.73-2.9 3.27-3.68-1.72-.69-.92-1.04 0-2.04-.6-.64-1.6-.86-2.86-.82.12-.84 1.1-.8 1.22-1.64-1.39-.3-.52 1.66-2.04 1.23.2 1.02.77 1.68 1.22 2.45-1.06 1.08-1.93-1.34-3.3-.66-.11.1-.24.18-.38.25.13-.11.26-.19.38-.25zm-77.25 27.24c.74.7-.12 1.61-1.22 1.64-.12-1.07.15-1.76 1.22-1.64zm59.7 1.23c.04-1.22 2.44-1.1 2.04.4 1.24-.26 2.37-.63 2.46-2.04-1.36.28-5.61-1.18-4.5 1.64zm-56.02-1.23c.21 2.19-1.03 1.37-2.45 1.23.35-.88 1.01-1.45 2.45-1.23zm58.47-2.86c1.46.04 2.81.19 3.28 1.22-.13.56-.59.78-.41 1.64.76-.39 1.36 1.22 1.63 0-1.43-.51-.36-1.58.82-.82-1.09-1.25-.01-2.15-1.64-2.86-.9 1.51-3.48-1.09-3.68.82zm-78.91-3.68c-.96.13-1.69.8-2.45 0 .03 1.6 1.4 1.87 2.45 2.45.05 2.15-.83 2.17-1.63 4.09 1.37.72 2.09-.27 4.08 0 1.24-2.18-.29-5.11 1.64-6.95-1.39-.77-1.71-1.98-2.45-2.45-.07 2.53-2.95-.34-1.64 2.86zm-3.27 3.27c-.37.86-.01 2.44-1.64 2.04-.16-.98.75-.89.41-2.04zm73.19 1.23c1.26-.29.78-.29 2.04 0 .05-1.03.78-1.28-.41-1.64-.36.72-1.5.68-1.63 1.64zm5.32-1.64v1.64c-1.2-.03-2.31-.15-2.05-1.64zm-40.49-3.68c.59 1.51.8 2.49 2.87 1.64-.12.66.38.7.41 1.22-.3 1.34-1.47 1.8-2.46 2.46-1.62-2.2-5.48-2.15-6.13-5.32 1.54-1.14 3.5 1.56 5.31 0zm58.07 4.09c.94-.77 3.11.93 3.68-.82-1.53.82-2.95-.79-3.68.82zm-71.56-2.86c1.05.54-1.03 2.63-1.63 1.63-.4-1.48 1.83-.34 1.63-1.63zm61.33-.41c-.52-.02-.56-.53-1.22-.41-.31 1.26 1.41.5.82 2.04 1.33.22 2.02-2.3 1.22-2.86-.2.49-.43.93-.82 1.23zm-3.27-4.09c1.53.16 2.4-.33 2.46-1.64-1.01.36-2.36.37-2.46 1.64z" fill="#ececec" transform="matrix(.176523 0 0 .176523 -1227.47 -1281.75)"/></svg>