<?xml version="1.0" standalone="no"?><!DOCTYPE svg PUBLIC "-//W3C//DTD SVG 1.1//EN" "http://www.w3.org/Graphics/SVG/1.1/DTD/svg11.dtd"><svg width="100%" height="100%" viewBox="0 0 84 236" version="1.1" xmlns="http://www.w3.org/2000/svg" xmlns:xlink="http://www.w3.org/1999/xlink" xml:space="preserve" style="fill-rule:evenodd;clip-rule:evenodd;stroke-linecap:round;stroke-linejoin:round;stroke-miterlimit:1.41421;"><g id="Layer1"><g id="Type II"><path d="M69.9848,88.7366c-3.51611,-17.9134 -12.7743,-85.6616 -28.1877,-85.4919c-15.4134,0.169748 -22.4477,62.7767 -27.9744,85.5224c-1.31029,5.39261 7.33814,21.8349 7.33814,21.8349l-4.24009,9.85773l0.0411381,4.7381l-8.32514,14.5213l0,44.5893l0.573938,6.08557l-2.19914,5.19721l1.62521,10.154c0,14.9174 11.9693,27.0104 26.7342,27.0104l12.8522,0c14.7649,0 26.7342,-12.093 26.7342,-27.0104l2.03097,-9.88293l-2.32837,-5.4276l0.297393,-6.03534l0,-44.4002l-7.75034,-14.8581l-0.0193734,-4.44142l-4.29394,-9.97464c0,0 8.59163,-14.3433 7.09103,-21.9883Z" style="fill:#000;stroke-width:3.33px;stroke:#ebebeb;"/><circle cx="42" cy="13.8792" r="5.82964" style="fill:none;stroke-width:1.33px;stroke-linecap:square;stroke-linejoin:bevel;stroke:#ebebeb;"/><rect x="22.5554" y="41.036" width="38.6257" height="2.79839" style="fill:none;stroke-width:1.33px;stroke-linecap:square;stroke-linejoin:bevel;stroke:#ebebeb;"/><rect x="13.7136" y="87.918" width="56.1485" height="5.94638" style="fill:none;stroke-width:1.33px;stroke-linecap:square;stroke-linejoin:bevel;stroke:#ebebeb;"/><path d="M36.9618,122.965l9.67259,0l5.0821,28.3893l0,44.6552l-19.9206,0l0,-44.5944l5.16596,-28.4501Z" style="fill:none;stroke-width:1.33px;stroke-linecap:square;stroke-linejoin:bevel;stroke:#ebebeb;"/><path d="M41.7809,110.235l-8.95538,0.0391575c0.0652137,3.61953 -1.28651,6.88883 -4.05516,9.80789l-10.6394,0.131419l2.97113,-6.51038l8.60036,0c4.09079,-14.6918 3.86182,-31.6012 12.0538,-31.7775l0.0247111,0.130159l0.0247111,-0.130159c8.19194,0.176217 7.96297,17.0857 12.0538,31.7775l9.41005,0l2.97792,6.37896l-11.4559,0c-2.76865,-2.91906 -4.12037,-6.18835 -4.05516,-9.80789l-8.95538,-0.0391575Z" style="fill:#000;stroke-width:1.33px;stroke-linecap:square;stroke-linejoin:bevel;stroke:#ebebeb;"/><path d="M49.2263,106.223l-14.6399,0c1.85945,-12.2367 2.42968,-24.1535 7.30285,-24.2979l0.0342267,2.84217e-14c4.87317,0.14433 5.4434,12.0612 7.30285,24.2979Z" style="fill:#000;stroke-width:1.33px;stroke-linecap:square;stroke-linejoin:bevel;stroke:#ebebeb;"/><rect x="33.9077" y="106.788" width="15.9896" height="3.15381" style="fill:#000;stroke-width:1.33px;stroke-linecap:square;stroke-linejoin:bevel;stroke:#ebebeb;"/><rect x="8.55147" y="152.975" width="16.3033" height="29.0923" style="fill:none;stroke-width:1.33px;stroke-linecap:square;stroke-linejoin:bevel;stroke:#ebebeb;"/><rect x="8.55147" y="152.975" width="5.16215" height="15.4706" style="fill:none;stroke-width:1.33px;stroke-linecap:square;stroke-linejoin:bevel;stroke:#ebebeb;"/><path d="M16.7031,141.602c0,-0.412764 -0.334612,-0.747376 -0.747376,-0.747376l-1.49475,0c-0.412764,0 -0.747376,0.334612 -0.747376,0.747376l0,3.5324c0,0.412764 0.334612,0.747376 0.747376,0.747376l1.49475,0c0.412764,0 0.747376,-0.334612 0.747376,-0.747376l0,-3.5324Z" style="fill:none;stroke-width:1.33px;stroke-linecap:square;stroke-linejoin:bevel;stroke:#ebebeb;"/><path d="M14.8861,191.43c0,-1.74925 -1.41805,-3.1673 -3.1673,-3.1673c-1.74925,0 -3.1673,1.41805 -3.1673,3.1673l-1.53989,4.57892l1.53989,9.22384c0,1.74925 1.41805,3.1673 3.1673,3.1673c1.74925,0 3.1673,-1.41805 3.1673,-3.1673l0,-13.8028Z" style="fill:none;stroke-width:1.33px;stroke-linecap:square;stroke-linejoin:bevel;stroke:#ebebeb;"/><path d="M10.9488,193.926l3.93725,2.60188l0,1.80355l-2.94372,0.521849l-0.993534,-1.8456l0,-3.08168Z" style="fill:none;stroke-width:1.33px;stroke-linecap:square;stroke-linejoin:bevel;stroke:#ebebeb;"/><path d="M32.9754,196.009l-18.0893,8.61973" style="fill:none;stroke-width:1.33px;stroke-linecap:square;stroke-linejoin:bevel;stroke:#ebebeb;"/><path d="M30.7896,221.655c0,-4.25388 -3.44845,-7.70233 -7.70233,-7.70233l-0.391254,0l0,2.11393c0,4.4005 3.56731,7.96782 7.96782,7.96782l0.125768,0l0,-2.37941Z" style="fill:none;stroke-width:1.33px;stroke-linecap:square;stroke-linejoin:bevel;stroke:#ebebeb;"/><path d="M17.1794,122.965l14.6164,27.6938" style="fill:none;stroke-width:1.33px;stroke-linecap:square;stroke-linejoin:bevel;stroke:#ebebeb;"/><path d="M21.8434,101.06l0,3.88526l2.64419,3.11666l0,-2.94764l-2.64419,-4.05428Z" style="fill:none;stroke-width:1.33px;stroke-linecap:square;stroke:#ebebeb;"/><path d="M21.8434,48.537l8.94618,3.45878l-6.83544,30.216l-8.20083,-1.92258" style="fill:none;stroke-width:1.33px;stroke-linecap:square;stroke-linejoin:bevel;stroke:#ebebeb;"/><path d="M26.7428,54.1105l0,5.06513l-1.92698,1.92661l-1.07098,-1.10192l0,-1.05705l1.1252,-1.1252l0,-2.49381l1.87276,-1.21376Z" style="fill:none;stroke-width:1.33px;stroke-linecap:square;stroke:#ebebeb;"/><path d="M30.7896,36.1517l-1.08722,-1.08722l0,-3.41275l2.09344,-2.09344l1.36445,1.36445l0,2.28581l-2.37067,2.94315Z" style="fill:none;stroke-width:1.33px;stroke-linecap:square;stroke:#ebebeb;"/><rect x="59.1452" y="152.975" width="16.3033" height="29.0923" style="fill:none;stroke-width:1.33px;stroke-linecap:square;stroke-linejoin:bevel;stroke:#ebebeb;"/><rect x="70.2864" y="152.975" width="5.16215" height="15.4706" style="fill:none;stroke-width:1.33px;stroke-linecap:square;stroke-linejoin:bevel;stroke:#ebebeb;"/><path d="M67.2969,141.602c0,-0.412764 0.334612,-0.747376 0.747376,-0.747376l1.49475,0c0.412764,0 0.747376,0.334612 0.747376,0.747376l0,3.5324c0,0.412764 -0.334612,0.747376 -0.747376,0.747376l-1.49475,0c-0.412764,0 -0.747376,-0.334612 -0.747376,-0.747376l0,-3.5324Z" style="fill:none;stroke-width:1.33px;stroke-linecap:square;stroke-linejoin:bevel;stroke:#ebebeb;"/><path d="M69.1139,191.43c0,-1.74925 1.41805,-3.1673 3.1673,-3.1673c1.74925,0 3.1673,1.41805 3.1673,3.1673l1.53989,4.57892l-1.53989,9.22384c0,1.74925 -1.41805,3.1673 -3.1673,3.1673c-1.74925,0 -3.1673,-1.41805 -3.1673,-3.1673l0,-13.8028Z" style="fill:none;stroke-width:1.33px;stroke-linecap:square;stroke-linejoin:bevel;stroke:#ebebeb;"/><path d="M73.0512,193.926l-3.93725,2.60188l0,1.80355l2.94372,0.521849l0.993534,-1.8456l0,-3.08168Z" style="fill:none;stroke-width:1.33px;stroke-linecap:square;stroke-linejoin:bevel;stroke:#ebebeb;"/><path d="M51.0246,196.009l18.0893,8.61973" style="fill:none;stroke-width:1.33px;stroke-linecap:square;stroke-linejoin:bevel;stroke:#ebebeb;"/><path d="M53.2104,221.655c0,-4.25388 3.44845,-7.70233 7.70233,-7.70233l0.391254,0l0,2.11393c0,4.4005 -3.56731,7.96782 -7.96782,7.96782l-0.125768,0l0,-2.37941Z" style="fill:none;stroke-width:1.33px;stroke-linecap:square;stroke-linejoin:bevel;stroke:#ebebeb;"/><path d="M66.8206,122.965l-14.6164,27.6938" style="fill:none;stroke-width:1.33px;stroke-linecap:square;stroke-linejoin:bevel;stroke:#ebebeb;"/><path d="M62.1566,101.06l0,3.88526l-2.64419,3.11666l0,-2.94764l2.64419,-4.05428Z" style="fill:none;stroke-width:1.33px;stroke-linecap:square;stroke:#ebebeb;"/><path d="M62.1566,48.537l-8.94618,3.45878l6.83544,30.216l8.20083,-1.92258" style="fill:none;stroke-width:1.33px;stroke-linecap:square;stroke-linejoin:bevel;stroke:#ebebeb;"/><path d="M57.2572,54.1105l0,5.06513l1.92698,1.92661l1.07098,-1.10192l0,-1.05705l-1.1252,-1.1252l0,-2.49381l-1.87276,-1.21376Z" style="fill:none;stroke-width:1.33px;stroke-linecap:square;stroke:#ebebeb;"/><path d="M53.2104,36.1517l1.08722,-1.08722l0,-3.41275l-2.09344,-2.09344l-1.36445,1.36445l0,2.28581l2.37067,2.94315Z" style="fill:none;stroke-width:1.33px;stroke-linecap:square;stroke:#ebebeb;"/><path d="M47.7829,185.298c0,-3.31734 -2.68924,-6.00658 -6.00658,-6.00658c-3.31734,0 -6.00658,2.68924 -6.00658,6.00658l0,1.72953c0,3.31734 2.68924,6.00658 6.00658,6.00658c3.31734,0 6.00658,-2.68924 6.00658,-6.00658l0,-1.72953Z" style="fill:#000;stroke-width:1.33px;stroke-linecap:square;stroke:#ebebeb;"/><path d="M35.7698,186.163l12.0132,0" style="fill:none;stroke-width:1.33px;stroke-linecap:square;stroke:#ebebeb;"/><circle cx="39.3174" cy="185.563" r="1.55027" style="fill:#000;stroke-width:1.33px;stroke-linecap:square;stroke:#ebebeb;"/><path d="M47.7829,167.345c0,-3.31734 -2.68924,-6.00658 -6.00658,-6.00658c-3.31734,0 -6.00658,2.68924 -6.00658,6.00658l0,1.72953c0,3.31734 2.68924,6.00658 6.00658,6.00658c3.31734,0 6.00658,-2.68924 6.00658,-6.00658l0,-1.72953Z" style="fill:#000;stroke-width:1.33px;stroke-linecap:square;stroke:#ebebeb;"/><path d="M35.7698,168.21l12.0132,0" style="fill:none;stroke-width:1.33px;stroke-linecap:square;stroke:#ebebeb;"/><circle cx="39.3174" cy="167.61" r="1.55027" style="fill:#000;stroke-width:1.33px;stroke-linecap:square;stroke:#ebebeb;"/><ellipse cx="41.7561" cy="133.373" rx="4.75759" ry="5.527" style="fill:#000;stroke-width:1.33px;stroke-linecap:square;stroke:#ebebeb;"/></g></g></svg>