<?xml version="1.0" standalone="no"?><!DOCTYPE svg PUBLIC "-//W3C//DTD SVG 1.1//EN" "http://www.w3.org/Graphics/SVG/1.1/DTD/svg11.dtd"><svg width="100%" height="100%" viewBox="0 0 84 236" version="1.1" xmlns="http://www.w3.org/2000/svg" xmlns:xlink="http://www.w3.org/1999/xlink" xml:space="preserve" style="fill-rule:evenodd;clip-rule:evenodd;stroke-linecap:round;stroke-linejoin:round;stroke-miterlimit:1.41421;"><g id="Layer1"><g id="Type III"><path d="M80.9488,31.152c0,-14.7649 -11.9693,-26.7342 -26.7342,-26.7342l-24.429,0c-14.7649,0 -26.7342,11.9693 -26.7342,26.7342l0,173.696c0,14.7649 11.9693,26.7342 26.7342,26.7342l24.429,0c14.7649,0 26.7342,-11.9693 26.7342,-26.7342l0,-173.696Z" style="fill:#000;stroke-width:3.33px;stroke:#ebebeb;"/><path d="M26.5307,26.0853l16.0502,-1.52952l14.6133,1.52952l-5.56434,15.7776l-18.8383,0l-6.26082,-15.7776Z" style="fill:#000;stroke-width:1.33px;stroke-linecap:square;stroke-linejoin:bevel;stroke:#ebebeb;"/><path d="M75.1247,15.0156l-9.30492,9.54016l-17.3271,-5.01059l-5.50629,0l-6.85178,0l-17.284,5.01059l-9.96308,-9.4888" style="fill:none;stroke-width:1.33px;stroke-linecap:square;stroke-linejoin:bevel;stroke:#ebebeb;"/><rect x="4.05125" y="181.887" width="4.67711" height="8.46891" style="fill:#000;stroke-width:1.33px;stroke-linecap:square;stroke-linejoin:bevel;stroke:#ebebeb;"/><rect x="4.05125" y="114.37" width="4.67711" height="62.8953" style="fill:#000;stroke-width:1.33px;stroke-linecap:square;stroke-linejoin:bevel;stroke:#ebebeb;"/><path d="M38,120.105c0,-3.16715 -2.56748,-5.73463 -5.73463,-5.73463l-11.4693,0c-3.16715,0 -5.73463,2.56748 -5.73463,5.73463l0,69.416c0,3.16715 2.56748,5.73463 5.73463,5.73463l11.4693,0c3.16715,0 5.73463,-2.56748 5.73463,-5.73463l0,-69.416Z" style="fill:#000;stroke-width:1.33px;stroke:#ebebeb;"/><rect x="4.05125" y="30.1475" width="8.4201" height="34.2113" style="fill:#000;stroke-width:1.33px;stroke-linecap:square;stroke-linejoin:bevel;stroke:#ebebeb;"/><path d="M3.05125,201.454l6.55441,-0.00682262l1.58719,2.65772l0,3.96208l-5.70526,5.70526" style="fill:none;stroke-width:1.33px;stroke-linecap:square;stroke-linejoin:bevel;stroke:#ebebeb;"/><path d="M6.37569,203.356l0,5.36009l2.70533,-1.4743l0,-3.19966l-2.70533,-0.686125Z" style="fill:none;stroke-width:1.33px;stroke:#ebebeb;"/><path d="M17.8331,70.0074l-5.64864,-5.64864l-8.13327,0l0,42.9037l13.7819,0l0,-37.2551Z" style="fill:#000;stroke-width:1.33px;stroke-linecap:square;stroke-linejoin:bevel;stroke:#ebebeb;"/><path d="M27.6223,214.39c1.53718,0 3.41719,0.886854 3.41719,1.98084c0,1.09399 -1.68354,1.98084 -3.41719,1.98084c-2.90547,0 -7.10443,-0.886854 -7.10443,-1.98084c0,-1.09399 4.19897,-1.98084 7.10443,-1.98084Z" style="fill:#000;stroke-width:1.33px;stroke-linecap:square;stroke-linejoin:bevel;stroke:#ebebeb;"/><rect x="75.2716" y="181.887" width="4.67711" height="8.46891" style="fill:#000;stroke-width:1.33px;stroke-linecap:square;stroke-linejoin:bevel;stroke:#ebebeb;"/><rect x="75.2716" y="114.37" width="4.67711" height="62.8953" style="fill:#000;stroke-width:1.33px;stroke-linecap:square;stroke-linejoin:bevel;stroke:#ebebeb;"/><path d="M46,120.105c0,-3.16715 2.56748,-5.73463 5.73463,-5.73463l11.4693,0c3.16715,0 5.73463,2.56748 5.73463,5.73463l0,69.416c0,3.16715 -2.56748,5.73463 -5.73463,5.73463l-11.4693,0c-3.16715,0 -5.73463,-2.56748 -5.73463,-5.73463l0,-69.416Z" style="fill:#000;stroke-width:1.33px;stroke:#ebebeb;"/><rect x="71.5286" y="30.1475" width="8.4201" height="34.2113" style="fill:#000;stroke-width:1.33px;stroke-linecap:square;stroke-linejoin:bevel;stroke:#ebebeb;"/><path d="M80.9488,201.454l-6.55441,-0.00682262l-1.58719,2.65772l0,3.96208l5.70526,5.70526" style="fill:none;stroke-width:1.33px;stroke-linecap:square;stroke-linejoin:bevel;stroke:#ebebeb;"/><path d="M77.6243,203.356l0,5.36009l-2.70533,-1.4743l0,-3.19966l2.70533,-0.686125Z" style="fill:none;stroke-width:1.33px;stroke:#ebebeb;"/><path d="M66.1669,70.0074l5.64864,-5.64864l8.13327,0l0,42.9037l-13.7819,0l0,-37.2551Z" style="fill:#000;stroke-width:1.33px;stroke-linecap:square;stroke-linejoin:bevel;stroke:#ebebeb;"/><path d="M56.3777,214.39c-1.53718,0 -3.41719,0.886854 -3.41719,1.98084c0,1.09399 1.68354,1.98084 3.41719,1.98084c2.90547,0 7.10443,-0.886854 7.10443,-1.98084c0,-1.09399 -4.19897,-1.98084 -7.10443,-1.98084Z" style="fill:#000;stroke-width:1.33px;stroke-linecap:square;stroke-linejoin:bevel;stroke:#ebebeb;"/></g></g></svg>