<?xml version="1.0" standalone="no"?><!DOCTYPE svg PUBLIC "-//W3C//DTD SVG 1.1//EN" "http://www.w3.org/Graphics/SVG/1.1/DTD/svg11.dtd"><svg width="100%" height="100%" viewBox="0 0 84 235" version="1.1" xmlns="http://www.w3.org/2000/svg" xmlns:xlink="http://www.w3.org/1999/xlink" xml:space="preserve" style="fill-rule:evenodd;clip-rule:evenodd;stroke-linecap:square;stroke-linejoin:bevel;stroke-miterlimit:1.41421;"><g id="Layer1"><path d="M55.4951,52.2293l-6.22074,13.7756l-0.0298304,3.14255l13.1505,14.1958l0,75.0312l-9.08898,50.7781l-4.39895,4.19409l0.0214893,2.76699l5.60613,15.7293l-5.5327,0l-1.02097,-3.26633l-1.00634,3.26633l-9.95861,0l-1.09144,-3.32194l-1.09144,3.32194l-5.50641,0l5.60613,-15.7293l0.0214893,-2.76699l-4.39895,-4.19409l-9.08898,-50.7781l0,-75.0312l13.1505,-14.1958l-0.0298304,-3.14255l-6.33934,-14.0382c-7.60886,-4.66323 -12.6851,-13.0558 -12.6851,-22.634c0,-14.6509 11.8769,-26.5278 26.5278,-26.5278c14.6509,0 26.5278,11.8769 26.5278,26.5278c0,9.76073 -5.27157,18.2902 -13.123,22.8966Z" style="fill:#000;stroke-width:3.33px;stroke:#ebebeb;"/><path d="M32.5809,211.572l7.74635,0l-8.35309,-17.0881l19.5226,0l-8.48364,17.0592l7.67619,0" style="fill:none;stroke-width:1.33px;stroke:#ebebeb;"/><path d="M29.0751,147.413l0,-5.77136" style="fill:none;stroke-width:1.33px;stroke:#ebebeb;"/><path d="M55.1057,141.572l2.84217e-14,5.80065" style="fill:none;stroke-width:1.33px;stroke:#ebebeb;"/><path d="M44.9808,157.39l-5.82706,0" style="fill:none;stroke-width:1.33px;stroke:#ebebeb;"/><circle cx="42.0904" cy="144.527" r="11.0077" style="fill:none;stroke-width:1.33px;stroke:#ebebeb;"/><circle cx="42.0904" cy="168.253" r="5.89061" style="fill:none;stroke-width:1.33px;stroke:#ebebeb;"/><path d="M39.1537,180.157c0,-0.590735 -0.478885,-1.06962 -1.06962,-1.06962l-2.13924,0c-0.590735,0 -1.06962,0.478885 -1.06962,1.06962l0,4.69723c0,0.590735 0.478885,1.06962 1.06962,1.06962l2.13924,0c0.590735,0 1.06962,-0.478885 1.06962,-1.06962l0,-4.69723Z" style="fill:none;stroke-width:1.33px;stroke:#ebebeb;"/><path d="M49.2593,180.157c0,-0.590735 -0.478885,-1.06962 -1.06962,-1.06962l-2.13924,0c-0.590735,0 -1.06962,0.478885 -1.06962,1.06962l0,4.69723c0,0.590735 0.478885,1.06962 1.06962,1.06962l2.13924,0c0.590735,0 1.06962,-0.478885 1.06962,-1.06962l0,-4.69723Z" style="fill:none;stroke-width:1.33px;stroke:#ebebeb;"/><rect x="1.1808" y="102.76" width="81.8192" height="27.2549" style="fill:#000;stroke-width:3.33px;stroke:#ebebeb;"/><rect x="1.1808" y="107.372" width="81.8192" height="18.0295" style="fill:none;stroke-width:1.33px;stroke:#ebebeb;"/><rect x="5.95804" y="107.372" width="72.2647" height="18.0295" style="fill:none;stroke-width:1.33px;stroke:#ebebeb;"/><path d="M45.6257,53.3778l-7.07057,0c-2.6646,-4.11059 -4.49883,-12.7231 -4.49883,-22.6821c0,-6.23307 0.718499,-11.9387 1.90945,-16.3434l12.2493,0c1.19095,4.40469 1.90945,10.1103 1.90945,16.3434c0,9.959 -1.83423,18.5715 -4.49883,22.6821Z" style="fill:none;stroke-width:1.33px;stroke:#ebebeb;"/><rect x="29.1547" y="53.5736" width="24.8213" height="1.89092" style="fill:none;stroke-width:1.33px;stroke:#ebebeb;"/><path d="M23.2567,9.91981l2.66905,0l0,4.28284l-4.18148,0l0,-2.77041l1.51243,-1.51243Z" style="fill:#e9e9e9;stroke-width:1.33px;stroke:#ebebeb;"/><path d="M60.9241,9.91981l-2.66905,0l0,4.28284l4.18148,0l0,-2.77041l-1.51243,-1.51243Z" style="fill:#e9e9e9;stroke-width:1.33px;stroke:#ebebeb;"/><path d="M51.0435,53.3778l-17.9062,0c-6.748,-4.11071 -11.3931,-12.7231 -11.3931,-22.6821c0,-6.23307 1.81958,-11.9387 4.83553,-16.3434l31.0212,0c3.01596,4.40469 4.83553,10.1103 4.83553,16.3434c0,9.95893 -4.64507,18.5714 -11.3931,22.6821Z" style="fill:none;stroke-width:1.33px;stroke:#ebebeb;"/><rect x="8.41059" y="107.372" width="67.3596" height="18.0295" style="fill:none;stroke-width:1.33px;stroke:#ebebeb;"/><rect x="21.1103" y="87.4961" width="41.3263" height="16.0856" style="fill:none;stroke-width:1.33px;stroke:#ebebeb;"/><path d="M52.992,94.5391c0,-2.73012 -2.2132,-4.94332 -4.94332,-4.94332l-11.9165,0c-2.73012,0 -4.94332,2.2132 -4.94332,4.94332c0,2.73012 2.2132,4.94332 4.94332,4.94332l11.9165,0c2.73012,0 4.94332,-2.2132 4.94332,-4.94332Z" style="fill:none;stroke-width:1.33px;stroke:#ebebeb;"/><path d="M43.7156,216.308l0,4.60102" style="fill:none;stroke-width:1.33px;stroke:#ebebeb;"/><path d="M39.7554,216.308l0,4.60102" style="fill:none;stroke-width:1.33px;stroke:#ebebeb;"/><path d="M36.3802,223.896l10.7105,0" style="fill:none;stroke-width:1.33px;stroke:#ebebeb;"/><path d="M31.6224,226.391l21.0343,0" style="fill:none;stroke-width:1.33px;stroke:#ebebeb;"/></g></svg>