<?xml version="1.0" standalone="no"?><!DOCTYPE svg PUBLIC "-//W3C//DTD SVG 1.1//EN" "http://www.w3.org/Graphics/SVG/1.1/DTD/svg11.dtd"><svg width="100%" height="100%" viewBox="0 0 106 236" version="1.1" xmlns="http://www.w3.org/2000/svg" xmlns:xlink="http://www.w3.org/1999/xlink" xml:space="preserve" style="fill-rule:evenodd;clip-rule:evenodd;stroke-linecap:round;stroke-linejoin:round;stroke-miterlimit:1.41421;"><g id="Layer1"><g id="Defense"><path d="M79.0972,26.5873c0,-12.2439 -9.92563,-22.1695 -22.1695,-22.1695l-7.57374,0c-12.2439,0 -22.1695,9.92563 -22.1695,22.1695l1.69273,4.07315l-3.73387,0.0125979c0,0 -21.2379,24.7683 -21.1067,36.2559c0.233799,20.4733 8.0768,101.503 21.7445,143.348c6.21966,19.0422 19.7436,21.3049 23.5728,21.3049l7.57374,0c3.8023,0 17.53,-1.3965 23.6814,-21.3533c13.6568,-44.3066 21.2423,-130.325 21.3545,-143.3c0.0994953,-11.5033 -21.3183,-36.4997 -21.3183,-36.4997l-4.18949,-0.0126754l2.6414,-3.82926Z" style="fill:#000;stroke-width:3.33px;stroke:#ebebeb;"/><path d="M68.7068,14.3536c0,-1.21653 -0.986196,-2.20273 -2.20273,-2.20273l-27.0081,0c-1.21653,0 -2.20273,0.986196 -2.20273,2.20273l0,4.40546c0,1.21653 0.986196,2.20273 2.20273,2.20273l27.0081,0c1.21653,0 2.20273,-0.986196 2.20273,-2.20273l0,-4.40546Z" style="fill:#000;stroke-width:1.33px;stroke-linecap:square;stroke:#ebebeb;"/><rect x="26.9631" y="23.2543" width="52.0831" height="2.05479" style="fill:#000;stroke-width:1.33px;stroke-linecap:square;stroke:#ebebeb;"/><path d="M25.5974,206.305l2.1423,0l1.43799,-1.43799l0,-3.56218l-0.915418,-0.915418l0,-2.09221l-6.04979,0l3.38492,8.0078Z" style="fill:none;stroke-width:1.33px;stroke-linecap:square;stroke:#ebebeb;"/><path d="M21.5329,195.106l4.89407,0l0,-5.76474l-1.22358,-1.22358l-5.5776,0l-1.79636,-10.7612l2.11119,-1.23774l2.27186,0l0,-6.03615l-4.88432,-30.0152l-1.85533,-1.85533l0,-1.19641l-1.89155,-2.85277l-2.72344,0l10.6751,60.9431Z" style="fill:none;stroke-width:1.33px;stroke-linecap:square;stroke:#ebebeb;"/><path d="M5.51479,93.4693l10.2068,-1.36428l4.4729,0l-1.00788,-14.858l-14.3771,1.21963l0.705355,15.0026Z" style="fill:none;stroke-width:1.33px;stroke-linecap:square;stroke:#ebebeb;"/><path d="M4.80943,75.4672l12.5065,-1.30228l2.05419,-2.05419l0,-6.96637l2.1654,-6.11648l1.90177,-4.87085l0.847448,-1.2584l0,-1.56325l-10.6045,-5.06449l-8.87081,15.411l0,13.7853Z" style="fill:none;stroke-width:1.33px;stroke-linecap:square;stroke:#ebebeb;"/><path d="M16.123,43.638l9.01545,5.45478l1.28859,0l4.01203,-4.01203l-2.82514,-3.90523l-7.41947,-3.12139l2.62105,-2.82955l8.41597,4.8604l2.30993,0l1.64869,-1.68979l0.0594374,-2.16807l-2.82444,-2.88898l-0.247966,-2.34615l-2.99939,-2.00253l-4.89303,2.64079l-8.16174,12.0078Z" style="fill:none;stroke-width:1.33px;stroke-linecap:square;stroke:#ebebeb;"/><path d="M32.2937,76.2767l-8.00898,0l0.8216,14.8884l3.14632,-2.86324l0,-2.08409l4.07877,-6.03929l-0.0377151,-3.90173Z" style="fill:none;stroke-width:1.33px;stroke-linecap:square;stroke:#ebebeb;"/><path d="M29.413,216.984l11.6212,-15.742l1.5257,0" style="fill:none;stroke-width:1.33px;stroke-linecap:square;stroke:#ebebeb;"/><path d="M80.1705,206.305l-2.1423,0l-1.43799,-1.43799l0,-3.56218l0.915418,-0.915418l0,-2.09221l6.04979,0l-3.38492,8.0078Z" style="fill:none;stroke-width:1.33px;stroke-linecap:square;stroke:#ebebeb;"/><path d="M84.235,195.106l-4.89407,0l0,-5.76474l1.22358,-1.22358l5.5776,0l1.79636,-10.7612l-2.11119,-1.23774l-2.27186,0l0,-6.03615l4.88432,-30.0152l1.85533,-1.85533l0,-1.19641l1.89155,-2.85277l2.72344,0l-10.6751,60.9431Z" style="fill:none;stroke-width:1.33px;stroke-linecap:square;stroke:#ebebeb;"/><path d="M100.253,93.4693l-10.2068,-1.36428l-4.4729,0l1.00788,-14.858l14.3771,1.21963l-0.705355,15.0026Z" style="fill:none;stroke-width:1.33px;stroke-linecap:square;stroke:#ebebeb;"/><path d="M100.958,75.4672l-12.5065,-1.30228l-2.05419,-2.05419l0,-6.96637l-2.1654,-6.11648l-1.90177,-4.87085l-0.847448,-1.2584l0,-1.56325l10.6045,-5.06449l8.87081,15.411l0,13.7853Z" style="fill:none;stroke-width:1.33px;stroke-linecap:square;stroke:#ebebeb;"/><path d="M89.645,43.638l-9.01545,5.45478l-1.28859,0l-4.01203,-4.01203l2.82514,-3.90523l7.41947,-3.12139l-2.62105,-2.82955l-8.41597,4.8604l-2.30993,0l-1.64869,-1.68979l-0.0594374,-2.16807l2.82444,-2.88898l0.247966,-2.34615l2.99939,-2.00253l4.89303,2.64079l8.16174,12.0078Z" style="fill:none;stroke-width:1.33px;stroke-linecap:square;stroke:#ebebeb;"/><path d="M73.4742,76.2767l8.00898,0l-0.8216,14.8884l-3.14632,-2.86324l0,-2.08409l-4.07877,-6.03929l0.0377151,-3.90173Z" style="fill:none;stroke-width:1.33px;stroke-linecap:square;stroke:#ebebeb;"/><path d="M35.2495,167.194l-5.83654,-50.8591l46.942,0l-5.83654,50.8591l-35.2689,0Z" style="fill:none;stroke-width:1.33px;stroke-linecap:square;stroke:#ebebeb;"/><path d="M28.3081,111.226l0,-3.497l-1.05605,-1.05605l0,-6.66807l13.1913,-23.7283l24.8814,0l13.1913,23.7283l0,6.66807l-1.05605,1.05605l0,3.497l-49.1518,0Z" style="fill:none;stroke-width:1.33px;stroke-linecap:square;stroke:#ebebeb;"/><path d="M40.265,45.276l-2.15135,-2.15135l0,-1.94461l-2.86408,-2.86408l0,-2.1596l-2.94003,-2.96953l-0.200499,-2.15239l-3.47097,-2.045l-0.974891,-3.68035l50.4417,0l-0.974891,3.68035l-3.47097,2.045l-0.200499,2.15239l-2.94003,2.96953l0,2.1596l-2.86408,2.86408l0,1.94461l-2.15135,2.15135l-25.238,0Z" style="fill:none;stroke-width:1.33px;stroke-linecap:square;stroke:#ebebeb;"/><path d="M66.2031,50.0636c0,-1.57102 -1.27357,-2.84459 -2.84459,-2.84459l-20.9491,0c-1.57102,0 -2.84459,1.27357 -2.84459,2.84459l0,19.3462c0,1.57102 1.27357,2.84459 2.84459,2.84459l20.9491,0c1.57102,0 2.84459,-1.27357 2.84459,-2.84459l0,-19.3462Z" style="fill:#000;stroke-width:1.33px;stroke-linecap:square;stroke:#ebebeb;"/><path d="M11.2869,95.3344l0,2.68418l-1.01411,0l0,4.22664l1.0965,1.89862l1.97352,0l1.05111,-1.10847l0,-2.86093l-1.24449,-1.0502l0,-0.944694l-1.74498,0l-0.117557,-2.84514Z" style="fill:none;stroke-width:1.33px;stroke-linecap:square;stroke:#ebebeb;"/><path d="M94.3759,95.3344l0,2.68418l1.01411,0l0,4.22664l-1.0965,1.89862l-1.97352,0l-1.05111,-1.10847l0,-2.86093l1.24449,-1.0502l0,-0.944694l1.74498,0l0.117557,-2.84514Z" style="fill:none;stroke-width:1.33px;stroke-linecap:square;stroke:#ebebeb;"/><rect x="47.315" y="193.062" width="11.3701" height="4.12912" style="fill:#000;stroke-width:1.33px;stroke-linecap:square;stroke:#ebebeb;"/><path d="M51.218,201.214c0.0412866,0 0.106086,0 0.068785,0" style="fill:none;stroke-width:1.33px;stroke-linecap:square;stroke:#ebebeb;"/><path d="M54.2411,201.214c0.0412866,0 0.106086,0 0.068785,0" style="fill:none;stroke-width:1.33px;stroke-linecap:square;stroke:#ebebeb;"/><path d="M56.264,201.214c0.0412866,0 0.106086,0 0.068785,0" style="fill:none;stroke-width:1.33px;stroke-linecap:square;stroke:#ebebeb;"/><path d="M59.2502,201.214c0.0412866,0 0.106086,0 0.068785,0" style="fill:none;stroke-width:1.33px;stroke-linecap:square;stroke:#ebebeb;"/><path d="M49.2592,201.214c0.0412866,0 0.106086,0 0.068785,0" style="fill:none;stroke-width:1.33px;stroke-linecap:square;stroke:#ebebeb;"/><path d="M46.2558,201.214c0.0412866,0 0.106086,0 0.068785,0" style="fill:none;stroke-width:1.33px;stroke-linecap:square;stroke:#ebebeb;"/><path d="M99.4727,96.0613l-4.84518,0l-0.559588,-1.08693l-9.06201,0.379856l-8.63473,76.196c-0.584356,5.31971 -5.94084,8.48046 -18.272,8.48582l-1.06606,-1.06606l-8.29834,0l-1.06606,1.06606c-12.3311,-0.00535973 -17.6876,-3.16611 -18.272,-8.48582l-8.63473,-76.196l-9.06201,-0.379856l-0.559588,1.08693l-4.84518,0" style="fill:none;stroke-width:1.33px;stroke-linecap:square;stroke:#ebebeb;"/><path d="M76.3549,216.984l-11.6212,-15.742l-1.5257,0" style="fill:none;stroke-width:1.33px;stroke-linecap:square;stroke:#ebebeb;"/><path d="M30.5102,218.909l11.6999,-15.8133l21.3478,0l11.6999,15.8133" style="fill:none;stroke-width:1.33px;stroke-linecap:square;stroke:#ebebeb;"/><path d="M70.7505,102.109c0,-9.80331 -7.94716,-17.7505 -17.7505,-17.7505c-9.80331,0 -17.7505,7.94716 -17.7505,17.7505l0,11.1099c0,9.80331 7.94716,17.7505 17.7505,17.7505c9.80331,0 17.7505,-7.94716 17.7505,-17.7505l0,-11.1099Z" style="fill:#000;stroke-width:1.33px;stroke-linecap:square;stroke:#ebebeb;"/><path d="M44.1157,231.582l0,-0.723412c-4.29437,-1.50228 -8.00685,-4.15109 -11.1375,-7.94642l2.27141,-3.27738c2.47521,2.37543 5.70787,3.62499 9.3957,4.19823l8.11805,0.361936l0.120685,0.00437644l0.120685,-0.00437644l8.11805,-0.361936c3.68783,-0.573246 6.92049,-1.8228 9.3957,-4.19823l2.27141,3.27738c-3.13069,3.79533 -6.84317,6.44415 -11.1375,7.94642l0,0.723412l-17.5366,0Z" style="fill:none;stroke-width:1.33px;stroke-linecap:square;stroke:#ebebeb;"/><path d="M58.5341,172.444c0,-1.23762 -1.00329,-2.2409 -2.2409,-2.2409l-6.5864,0c-1.23762,0 -2.2409,1.00329 -2.2409,2.2409l0,4.4818c0,1.23762 1.00329,2.2409 2.2409,2.2409l6.5864,0c1.23762,0 2.2409,-1.00329 2.2409,-2.2409l0,-4.4818Z" style="fill:#000;stroke-width:1.33px;stroke-linecap:square;stroke:#ebebeb;"/></g></g></svg>