<?xml version="1.0" standalone="no"?><!DOCTYPE svg PUBLIC "-//W3C//DTD SVG 1.1//EN" "http://www.w3.org/Graphics/SVG/1.1/DTD/svg11.dtd"><svg width="100%" height="100%" viewBox="0 0 84 236" version="1.1" xmlns="http://www.w3.org/2000/svg" xmlns:xlink="http://www.w3.org/1999/xlink" xml:space="preserve" style="fill-rule:evenodd;clip-rule:evenodd;stroke-linecap:square;stroke-linejoin:bevel;stroke-miterlimit:1.41421;"><g id="Layer1"><g id="Science"><path d="M55.4047,52.9054l-6.22074,13.7756l-0.0298304,3.14255l5.32514,-0.0298654l6.02618,-5.55065l9.25769,9.42076l-8.10206,7.56642l0.643503,2.78916l0,75.0312l-9.08898,50.7781l-4.39895,4.19409l0.0214893,2.76699l5.60613,15.7293l-5.5327,0l-1.02097,-3.26633l-1.00634,3.26633l-3.51443,5.68434e-14l-1.27114,-3.11625l-1.27114,3.11625l-3.90191,-5.68434e-14l-1.09144,-3.32194l-1.09144,3.32194l-5.50641,0l5.60613,-15.7293l0.0214893,-2.76699l-4.39895,-4.19409l-9.08898,-50.7781l0,-75.0312l0.937513,-2.90908l-7.7724,-7.66858l9.28775,-9.31124l6.12262,5.71699l4.57497,-0.0239014l-0.0298304,-3.14255l-6.33934,-14.0382c-7.60886,-4.66323 -12.6851,-13.0558 -12.6851,-22.634c0,-14.6509 11.8769,-26.5278 26.5278,-26.5278c14.6509,0 26.5278,11.8769 26.5278,26.5278c0,9.76073 -5.27157,18.2902 -13.123,22.8966Z" style="fill:#000;stroke-width:3.33px;stroke:#ebebeb;"/><path d="M21.8261,80.6697l10.2201,-10.2201l2.40599,-0.506659l1.04419,1.23563l-12.8297,12.8297l-0.840568,-3.33859Z" style="fill:none;stroke-width:1.33px;stroke-linejoin:round;stroke:#ebebeb;"/><path d="M62.2188,80.6697l-10.2201,-10.2201l-2.66259,-0.506659l-0.78759,1.23563l12.8297,12.8297l0.840568,-3.33859Z" style="fill:none;stroke-width:1.33px;stroke-linejoin:round;stroke:#ebebeb;"/><path d="M38.1747,6.77205l8.02325,0l-4.04575,4.04575l-3.9775,-4.04575Z" style="fill:none;stroke-width:1.33px;stroke-linejoin:round;stroke:#ebebeb;"/><path d="M48.2317,70.6152l0,5.78424c0,1.67882 -1.36095,3.03978 -3.03978,3.03978l-6.07955,0c-1.67882,0 -3.03978,-1.36095 -3.03978,-3.03978l0,-5.78424l12.1591,0Z" style="fill:#000;stroke-width:1.33px;stroke-linejoin:round;stroke:#ebebeb;"/><ellipse cx="42.1863" cy="69.943" rx="6.68994" ry="3.96708" style="fill:#000;stroke-width:1.33px;stroke-linejoin:round;stroke:#ebebeb;"/><path d="M32.4905,212.248l7.74635,0l-8.35309,-17.0881l19.5226,0l-8.48364,17.0592l7.67619,0" style="fill:none;stroke-width:1.33px;stroke:#ebebeb;"/><path d="M28.9847,148.089l0,-5.77136" style="fill:none;stroke-width:1.33px;stroke:#ebebeb;"/><path d="M55.0153,142.248l2.84217e-14,5.80065" style="fill:none;stroke-width:1.33px;stroke:#ebebeb;"/><path d="M44.9634,134.765l-5.62241,20.9831" style="fill:none;stroke-width:1.33px;stroke:#ebebeb;"/><path d="M52.6437,148.068l-20.9831,-5.62241" style="fill:none;stroke-width:1.33px;stroke:#ebebeb;"/><path d="M49.8325,137.577l-15.3607,15.3607" style="fill:none;stroke-width:1.33px;stroke:#ebebeb;"/><path d="M49.8325,152.937l-15.3607,-15.3607" style="fill:none;stroke-width:1.33px;stroke:#ebebeb;"/><path d="M52.6437,142.446l-20.9831,5.62241" style="fill:none;stroke-width:1.33px;stroke:#ebebeb;"/><path d="M44.9634,155.749l-5.62241,-20.9831" style="fill:none;stroke-width:1.33px;stroke:#ebebeb;"/><circle cx="42.1522" cy="145.257" r="1.4906" style="fill:#000;"/><path d="M44.8904,158.066l-5.82706,0" style="fill:none;stroke-width:1.33px;stroke:#ebebeb;"/><circle cx="42" cy="145.203" r="11.0077" style="fill:none;stroke-width:1.33px;stroke:#ebebeb;"/><circle cx="42" cy="168.93" r="5.89061" style="fill:none;stroke-width:1.33px;stroke:#ebebeb;"/><path d="M39.0633,180.833c0,-0.590735 -0.478885,-1.06962 -1.06962,-1.06962l-2.13924,0c-0.590735,0 -1.06962,0.478885 -1.06962,1.06962l0,4.69723c0,0.590735 0.478885,1.06962 1.06962,1.06962l2.13924,0c0.590735,0 1.06962,-0.478885 1.06962,-1.06962l0,-4.69723Z" style="fill:none;stroke-width:1.33px;stroke:#ebebeb;"/><path d="M31.7472,168.516c0,-0.590735 -0.478885,-1.06962 -1.06962,-1.06962l-2.13924,0c-0.590735,0 -1.06962,0.478885 -1.06962,1.06962l0,4.69723c0,0.590735 0.478885,1.06962 1.06962,1.06962l2.13924,0c0.590735,0 1.06962,-0.478885 1.06962,-1.06962l0,-4.69723Z" style="fill:none;stroke-width:1.33px;stroke:#ebebeb;"/><path d="M56.5628,168.516c0,-0.590735 -0.478885,-1.06962 -1.06962,-1.06962l-2.13924,0c-0.590735,0 -1.06962,0.478885 -1.06962,1.06962l0,4.69723c0,0.590735 0.478885,1.06962 1.06962,1.06962l2.13924,0c0.590735,0 1.06962,-0.478885 1.06962,-1.06962l0,-4.69723Z" style="fill:none;stroke-width:1.33px;stroke:#ebebeb;"/><path d="M49.1689,180.833c0,-0.590735 -0.478885,-1.06962 -1.06962,-1.06962l-2.13924,0c-0.590735,0 -1.06962,0.478885 -1.06962,1.06962l0,4.69723c0,0.590735 0.478885,1.06962 1.06962,1.06962l2.13924,0c0.590735,0 1.06962,-0.478885 1.06962,-1.06962l0,-4.69723Z" style="fill:none;stroke-width:1.33px;stroke:#ebebeb;"/><rect x="1.0904" y="103.436" width="81.8192" height="27.2549" style="fill:#000;stroke-width:3.33px;stroke:#ebebeb;"/><rect x="1.0904" y="108.048" width="81.8192" height="18.0295" style="fill:none;stroke-width:1.33px;stroke:#ebebeb;"/><rect x="5.86763" y="108.048" width="72.2647" height="18.0295" style="fill:none;stroke-width:1.33px;stroke:#ebebeb;"/><path d="M45.5353,54.054l-7.07057,0c-2.6646,-4.11059 -4.49883,-12.7231 -4.49883,-22.6821c0,-6.23307 0.718499,-11.9387 1.90945,-16.3434l12.2493,0c1.19095,4.40469 1.90945,10.1103 1.90945,16.3434c0,9.959 -1.83423,18.5715 -4.49883,22.6821Z" style="fill:none;stroke-width:1.33px;stroke:#ebebeb;"/><rect x="29.0643" y="54.2498" width="24.8213" height="1.89092" style="fill:none;stroke-width:1.33px;stroke:#ebebeb;"/><path d="M23.1663,10.596l2.66905,0l0,4.28284l-4.18148,0l0,-2.77041l1.51243,-1.51243Z" style="fill:#e9e9e9;stroke-width:1.33px;stroke:#ebebeb;"/><path d="M60.8337,10.596l-2.66905,0l0,4.28284l4.18148,0l0,-2.77041l-1.51243,-1.51243Z" style="fill:#e9e9e9;stroke-width:1.33px;stroke:#ebebeb;"/><path d="M50.9531,54.054l-17.9062,0c-6.748,-4.11071 -11.3931,-12.7231 -11.3931,-22.6821c0,-6.23307 1.81958,-11.9387 4.83553,-16.3434l31.0212,0c3.01596,4.40469 4.83553,10.1103 4.83553,16.3434c0,9.95893 -4.64507,18.5714 -11.3931,22.6821Z" style="fill:none;stroke-width:1.33px;stroke:#ebebeb;"/><rect x="8.32019" y="108.048" width="67.3596" height="18.0295" style="fill:none;stroke-width:1.33px;stroke:#ebebeb;"/><rect x="21.0199" y="88.1723" width="41.3263" height="16.0856" style="fill:none;stroke-width:1.33px;stroke:#ebebeb;"/><path d="M52.9016,95.2152c0,-2.73012 -2.2132,-4.94332 -4.94332,-4.94332l-11.9165,0c-2.73012,0 -4.94332,2.2132 -4.94332,4.94332c0,2.73012 2.2132,4.94332 4.94332,4.94332l11.9165,0c2.73012,0 4.94332,-2.2132 4.94332,-4.94332Z" style="fill:none;stroke-width:1.33px;stroke:#ebebeb;"/><path d="M43.6252,216.984l0,4.60102" style="fill:none;stroke-width:1.33px;stroke:#ebebeb;"/><path d="M39.665,216.984l0,4.60102" style="fill:none;stroke-width:1.33px;stroke:#ebebeb;"/><path d="M41.683,214.298l0,8.15508" style="fill:none;stroke-width:1.33px;stroke:#ebebeb;"/><path d="M75.3397,119.964l-66.5992,3.41061e-13" style="fill:none;stroke-width:1.33px;stroke:#ebebeb;"/><path d="M36.2898,224.572l10.7105,0" style="fill:none;stroke-width:1.33px;stroke:#ebebeb;"/><path d="M31.532,227.067l21.0343,0" style="fill:none;stroke-width:1.33px;stroke:#ebebeb;"/><circle cx="36.6521" cy="95.106" r="3.11659" style="fill:#000;stroke-width:1.33px;stroke-linejoin:round;stroke:#ebebeb;"/><circle cx="47.3265" cy="95.106" r="3.11659" style="fill:#000;stroke-width:1.33px;stroke-linejoin:round;stroke:#ebebeb;"/><rect x="11.5216" y="112.302" width="1.00977" height="1.00707" style="fill:#fff;"/><rect x="15.5204" y="112.302" width="1.00977" height="1.00707" style="fill:#fff;"/><rect x="19.508" y="112.302" width="1.00977" height="1.00707" style="fill:#fff;"/><rect x="23.5187" y="112.302" width="1.00977" height="1.00707" style="fill:#fff;"/><rect x="27.5079" y="112.302" width="1.00977" height="1.00707" style="fill:#fff;"/><rect x="31.5067" y="112.302" width="1.00977" height="1.00707" style="fill:#fff;"/><rect x="35.4943" y="112.302" width="1.00977" height="1.00707" style="fill:#fff;"/><rect x="39.505" y="112.302" width="1.00977" height="1.00707" style="fill:#fff;"/><rect x="43.4789" y="112.302" width="1.00977" height="1.00707" style="fill:#fff;"/><rect x="47.4777" y="112.302" width="1.00977" height="1.00707" style="fill:#fff;"/><rect x="51.4653" y="112.302" width="1.00977" height="1.00707" style="fill:#fff;"/><rect x="55.476" y="112.302" width="1.00977" height="1.00707" style="fill:#fff;"/><rect x="59.5181" y="112.302" width="1.00977" height="1.00707" style="fill:#fff;"/><rect x="63.5169" y="112.302" width="1.00977" height="1.00707" style="fill:#fff;"/><rect x="67.5045" y="112.302" width="1.00977" height="1.00707" style="fill:#fff;"/><rect x="71.5152" y="112.302" width="1.00977" height="1.00707" style="fill:#fff;"/><rect x="11.5216" y="109.891" width="1.00977" height="1.00707" style="fill:#fff;"/><rect x="15.5204" y="109.891" width="1.00977" height="1.00707" style="fill:#fff;"/><rect x="19.508" y="109.891" width="1.00977" height="1.00707" style="fill:#fff;"/><rect x="23.5187" y="109.891" width="1.00977" height="1.00707" style="fill:#fff;"/><rect x="27.5079" y="109.891" width="1.00977" height="1.00707" style="fill:#fff;"/><rect x="31.5067" y="109.891" width="1.00977" height="1.00707" style="fill:#fff;"/><rect x="35.4943" y="109.891" width="1.00977" height="1.00707" style="fill:#fff;"/><rect x="39.505" y="109.891" width="1.00977" height="1.00707" style="fill:#fff;"/><rect x="43.4789" y="109.891" width="1.00977" height="1.00707" style="fill:#fff;"/><rect x="47.4777" y="109.891" width="1.00977" height="1.00707" style="fill:#fff;"/><rect x="51.4653" y="109.891" width="1.00977" height="1.00707" style="fill:#fff;"/><rect x="55.476" y="109.891" width="1.00977" height="1.00707" style="fill:#fff;"/><rect x="59.5181" y="109.891" width="1.00977" height="1.00707" style="fill:#fff;"/><rect x="63.5169" y="109.891" width="1.00977" height="1.00707" style="fill:#fff;"/><rect x="67.5045" y="109.891" width="1.00977" height="1.00707" style="fill:#fff;"/><rect x="71.5152" y="109.891" width="1.00977" height="1.00707" style="fill:#fff;"/><rect x="11.5216" y="117.056" width="1.00977" height="1.00707" style="fill:#fff;"/><rect x="15.5204" y="117.056" width="1.00977" height="1.00707" style="fill:#fff;"/><rect x="19.508" y="117.056" width="1.00977" height="1.00707" style="fill:#fff;"/><rect x="23.5187" y="117.056" width="1.00977" height="1.00707" style="fill:#fff;"/><rect x="27.5079" y="117.056" width="1.00977" height="1.00707" style="fill:#fff;"/><rect x="31.5067" y="117.056" width="1.00977" height="1.00707" style="fill:#fff;"/><rect x="35.4943" y="117.056" width="1.00977" height="1.00707" style="fill:#fff;"/><rect x="39.505" y="117.056" width="1.00977" height="1.00707" style="fill:#fff;"/><rect x="43.4789" y="117.056" width="1.00977" height="1.00707" style="fill:#fff;"/><rect x="47.4777" y="117.056" width="1.00977" height="1.00707" style="fill:#fff;"/><rect x="51.4653" y="117.056" width="1.00977" height="1.00707" style="fill:#fff;"/><rect x="55.476" y="117.056" width="1.00977" height="1.00707" style="fill:#fff;"/><rect x="59.5181" y="117.056" width="1.00977" height="1.00707" style="fill:#fff;"/><rect x="63.5169" y="117.056" width="1.00977" height="1.00707" style="fill:#fff;"/><rect x="67.5045" y="117.056" width="1.00977" height="1.00707" style="fill:#fff;"/><rect x="71.5152" y="117.056" width="1.00977" height="1.00707" style="fill:#fff;"/><rect x="11.5216" y="114.645" width="1.00977" height="1.00707" style="fill:#fff;"/><rect x="15.5204" y="114.645" width="1.00977" height="1.00707" style="fill:#fff;"/><rect x="19.508" y="114.645" width="1.00977" height="1.00707" style="fill:#fff;"/><rect x="23.5187" y="114.645" width="1.00977" height="1.00707" style="fill:#fff;"/><rect x="27.5079" y="114.645" width="1.00977" height="1.00707" style="fill:#fff;"/><rect x="31.5067" y="114.645" width="1.00977" height="1.00707" style="fill:#fff;"/><rect x="35.4943" y="114.645" width="1.00977" height="1.00707" style="fill:#fff;"/><rect x="39.505" y="114.645" width="1.00977" height="1.00707" style="fill:#fff;"/><rect x="43.4789" y="114.645" width="1.00977" height="1.00707" style="fill:#fff;"/><rect x="47.4777" y="114.645" width="1.00977" height="1.00707" style="fill:#fff;"/><rect x="51.4653" y="114.645" width="1.00977" height="1.00707" style="fill:#fff;"/><rect x="55.476" y="114.645" width="1.00977" height="1.00707" style="fill:#fff;"/><rect x="59.5181" y="114.645" width="1.00977" height="1.00707" style="fill:#fff;"/><rect x="63.5169" y="114.645" width="1.00977" height="1.00707" style="fill:#fff;"/><rect x="67.5045" y="114.645" width="1.00977" height="1.00707" style="fill:#fff;"/><rect x="71.5152" y="114.645" width="1.00977" height="1.00707" style="fill:#fff;"/></g></g></svg>