<?xml version="1.0" encoding="UTF-8"?>
<svg id="Layer_1" data-name="Layer 1" xmlns="http://www.w3.org/2000/svg" viewBox="0 0 612 612">
  <defs>
    <style>
      .cls-1 {
        fill-rule: evenodd;
        stroke-width: 0px;
      }
    </style>
  </defs>
  <path class="cls-1" d="M0,0h612v612H0V0ZM86.1,513.59c-1.78,1.78-4.2,2.79-6.73,2.79h0c-.86,0-1.65-.44-2.11-1.17-.46-.73-.51-1.64-.13-2.4,17.38-36.04,161.39-334.62,211.65-438.83,3.19-6.61,9.88-10.82,17.23-10.82,7.34,0,14.04,4.21,17.23,10.82,50.26,104.21,194.27,402.8,211.65,438.83.37.77.33,1.68-.13,2.4-.45.73-1.25,1.17-2.11,1.17h0c-2.54,0-4.99-1.01-6.79-2.81-24.09-24.1-194.91-194.92-194.91-194.92-13.68-13.67-36.19-13.67-49.88,0,0,0-170.94,170.94-194.94,194.94ZM418.23,487.81l-100.41-100.41c-6.49-6.49-17.17-6.49-23.66,0l-100.41,100.41c-10.48,10.5-3.04,28.56,11.84,28.56h200.81c14.97,0,22.28-18.13,11.82-28.56Z"/>
</svg>