<?xml version="1.0" encoding="UTF-8" standalone="no"?><!DOCTYPE svg PUBLIC "-//W3C//DTD SVG 1.1//EN" "http://www.w3.org/Graphics/SVG/1.1/DTD/svg11.dtd"><svg width="100%" height="100%" viewBox="0 0 128 128" version="1.1" xmlns="http://www.w3.org/2000/svg" xmlns:xlink="http://www.w3.org/1999/xlink" xml:space="preserve" xmlns:serif="http://www.serif.com/" style="fill-rule:evenodd;clip-rule:evenodd;stroke-linejoin:round;stroke-miterlimit:1.41421;"><path d="M128,128l-128,0l0,-128l128,0l0,128Zm-49.332,-88.444l-0.001,0l-26.278,-9.277c-0.997,-0.332 -2.041,-0.501 -3.092,-0.501c-1.022,0 -2.043,0.16 -3.027,0.48l-23.196,8.068c-1.852,0.741 -3.074,2.544 -3.074,4.539l0,52.91c0,1.404 1.15,2.447 2.443,2.447c0.299,0 0.606,-0.056 0.91,-0.177l25.98,-9.601l26.278,9.276c1.984,0.662 4.13,0.67 6.119,0.022l23.196,-8.068c1.853,-0.74 3.074,-2.544 3.074,-4.539l0,-52.91c0,-1.404 -1.15,-2.447 -2.441,-2.447c-0.3,0 -0.608,0.056 -0.911,0.177l-25.98,9.601Zm21.999,43.835l-19.556,6.803l0,-43.724l0.098,-0.036l19.458,-7.192l0,44.149Zm-46.445,-44.688l19.556,6.904l0,43.69l-19.556,-6.904l0,-43.69Zm-26.889,50.055l0,-44.15l19.556,-6.803l0,43.725l-0.098,0.035l-19.458,7.193Z"/></svg>