<?xml version="1.0" encoding="UTF-8" standalone="no"?>
<!DOCTYPE svg PUBLIC "-//W3C//DTD SVG 1.1//EN" "http://www.w3.org/Graphics/SVG/1.1/DTD/svg11.dtd">
<svg width="100%" height="100%" viewBox="0 0 128 128" version="1.1" xmlns="http://www.w3.org/2000/svg" xmlns:xlink="http://www.w3.org/1999/xlink" xml:space="preserve" xmlns:serif="http://www.serif.com/" style="fill-rule:evenodd;clip-rule:evenodd;stroke-linejoin:round;stroke-miterlimit:1.41421;">
    <path d="M133,136.5L-5,136.5L-5,-8.5L133,-8.5L133,136.5ZM84.118,55.616L84.118,45.559C84.118,34.447 75.11,25.441 64,25.441C52.888,25.441 43.882,34.447 43.882,45.559L43.882,55.616C40.179,55.616 37.177,58.619 37.177,62.322L37.177,95.853C37.177,99.557 40.179,102.559 43.882,102.559L84.118,102.559C87.821,102.559 90.823,99.557 90.823,95.853L90.823,62.322C90.823,58.619 87.821,55.616 84.118,55.616ZM84.118,95.853L43.882,95.853L43.882,62.323L84.118,62.323L84.118,95.853ZM60.647,81.511L60.647,85.794C60.647,87.644 62.149,89.147 64,89.147C65.85,89.147 67.353,87.644 67.353,85.794L67.353,81.511C69.347,80.349 70.706,78.21 70.706,75.735C70.706,72.031 67.703,69.028 64,69.028C60.297,69.028 57.295,72.031 57.295,75.735C57.295,78.21 58.652,80.349 60.647,81.511ZM77.412,55.616L50.588,55.616L50.588,45.559C50.588,38.151 56.593,32.147 64,32.147C71.407,32.147 77.412,38.15 77.412,45.559L77.412,55.616Z" style="fill-opacity:0.752941;"/>
    <path d="M84.118,95.853L43.882,95.853L43.882,62.323L84.118,62.323L84.118,95.853ZM60.647,81.511L60.647,85.794C60.647,87.644 62.149,89.147 64,89.147C65.85,89.147 67.353,87.644 67.353,85.794L67.353,81.511C69.347,80.349 70.706,78.21 70.706,75.735C70.706,72.031 67.703,69.028 64,69.028C60.297,69.028 57.295,72.031 57.295,75.735C57.295,78.21 58.652,80.349 60.647,81.511ZM77.412,55.616L50.588,55.616L50.588,45.559C50.588,38.151 56.593,32.147 64,32.147C71.407,32.147 77.412,38.15 77.412,45.559L77.412,55.616Z"/>
    <path d="M-0.593,149.589L-21.506,149.589L-21.533,139.178C-21.542,133.449 -21.533,128.712 -21.506,128.65C-21.479,128.56 -19.334,128.542 -11.032,128.56L-0.593,128.587L-0.593,149.589ZM-9.619,23.397L-12.479,23.397L-12.479,14.55L-9.619,14.55L-9.593,15.997L-9.575,17.454L-6.536,17.454L-6.518,15.997L-6.491,14.55L-3.515,14.523L-0.548,14.505L-0.548,11.466L-2.041,11.448L-3.542,11.422L-3.542,8.472L-2.041,8.446L-0.548,8.428L-0.566,6.971L-0.593,5.523L-5.079,5.496L-9.575,5.478L-9.575,2.44L2.49,2.44L2.508,-2.056L2.535,-6.542L3.992,-6.569L5.44,-6.587L5.422,-11.037L5.395,-15.479L2.535,-15.568L2.535,-18.518L3.965,-18.562L5.395,-18.607L5.422,-19.992C5.431,-20.752 5.457,-21.431 5.484,-21.494C5.511,-21.583 6.155,-21.601 8.451,-21.583L11.383,-21.556L11.41,-20.055L11.427,-18.562L12.929,-18.58L14.421,-18.607L14.466,-20.082L14.511,-21.556L17.46,-21.556L17.549,-15.568L18.997,-15.542L20.454,-15.524L20.472,-18.536L20.499,-21.556L23.448,-21.556L23.537,-18.607L26.397,-18.607L26.442,-20.082L26.486,-21.556L32.474,-21.556L32.474,-18.607L29.525,-18.518L29.48,-17.043L29.436,-15.568L27.961,-15.524L26.486,-15.479L26.486,-12.619L30.982,-12.592L35.468,-12.575L35.45,-9.598L35.424,-6.631L33.976,-6.605L32.519,-6.587L32.519,-3.548L33.976,-3.53L35.424,-3.503L35.513,-0.554L38.462,-0.554L38.507,-2.029L38.552,-3.503L41.411,-3.503L41.501,-0.554L42.993,-0.527L44.495,-0.509L44.513,-2.002L44.539,-3.503L46.032,-3.53L47.533,-3.548L47.551,-5.049L47.578,-6.542L50.438,-6.542L50.465,-5.049L50.483,-3.548L53.521,-3.548L53.539,-5.049L53.566,-6.542L56.426,-6.631L56.47,-8.061L56.515,-9.491L59.464,-9.581L59.464,-12.53L56.497,-12.557L53.521,-12.575L53.521,-9.536L50.483,-9.536L50.483,-12.575L45.996,-12.557L41.501,-12.53L41.501,-9.581L44.45,-9.491L44.45,-6.631L38.552,-6.631L38.525,-11.073L38.507,-15.524L37.005,-15.542L35.513,-15.568L35.513,-21.556L38.462,-21.556L38.489,-18.536L38.507,-15.524L41.483,-15.542L44.45,-15.568L44.495,-17.043L44.539,-18.518L50.438,-18.607L50.483,-20.082L50.527,-21.556L53.477,-21.556L53.503,-18.536L53.521,-15.524L54.978,-15.542L56.426,-15.568L56.47,-17.043L56.515,-18.518L59.527,-18.545L62.548,-18.562L62.566,-20.064L62.592,-21.556L68.491,-21.556L68.58,-15.568L71.44,-15.568L71.53,-21.556L77.517,-21.556L77.544,-18.545L77.562,-15.524L80.511,-15.524L80.529,-18.545L80.556,-21.556L83.505,-21.556L83.595,-18.607L86.454,-18.518L86.454,-15.568L83.487,-15.542L80.511,-15.524L80.511,-12.575L83.487,-12.557L86.454,-12.53L86.481,-11.037L86.499,-9.536L92.576,-9.536L92.559,-11.037L92.532,-12.53L89.582,-12.619L89.582,-15.479L91.057,-15.524L92.532,-15.568L92.532,-18.518L89.582,-18.607L89.582,-21.556L95.481,-21.556L95.57,-15.568L101.469,-15.568L101.496,-17.061L101.514,-18.562L100.066,-18.58L98.609,-18.607L98.609,-21.556L101.469,-21.556L101.496,-20.064L101.514,-18.562L104.552,-18.562L104.57,-20.064L104.597,-21.556L107.546,-21.556L107.573,-20.064L107.591,-18.562L110.54,-18.562L110.558,-20.064L110.585,-21.556L122.56,-21.556L122.56,-6.631L121.059,-6.605L119.566,-6.587L119.584,-3.566L119.611,-0.554L122.56,-0.554L122.605,-2.029L122.65,-3.503L125.51,-3.503L125.536,0.983L125.554,5.478L113.579,5.478L113.596,6.926L113.623,8.383L119.522,8.472L119.549,9.965L119.566,11.466L121.068,11.484L122.56,11.511L122.587,13.003L122.605,14.505L128.593,14.505L128.593,2.44L131.569,2.458L134.536,2.485L134.536,8.383L133.062,8.428L131.587,8.472L131.498,14.46L130.05,14.487L128.593,14.505L128.593,17.454L134.581,17.454L134.599,15.997L134.626,14.55L137.575,14.55L137.575,17.409L136.082,17.436L134.581,17.454L134.563,18.956L134.536,20.448L131.56,20.475L128.593,20.493L128.611,23.469L128.638,26.436L131.498,26.436L131.542,24.961L131.587,23.487L140.524,23.487L140.551,29.492L140.569,35.507L143.607,35.507L143.625,32.531L143.652,29.564L149.55,29.564L149.55,32.424L148.076,32.469L146.601,32.513L146.512,35.462L145.064,35.489L143.607,35.507L143.607,38.456L146.583,38.474L149.55,38.501L149.55,44.489L148.058,44.516L146.557,44.534L146.557,47.483L148.058,47.501L149.55,47.528L149.55,56.465L148.076,56.509L146.601,56.554L146.512,59.503L143.563,59.548L140.613,59.593L140.587,61.04L140.569,62.497L143.607,62.497L143.607,65.536L140.569,65.536L140.569,62.497L139.121,62.515L137.664,62.542L137.637,67.028L137.619,71.524L140.569,71.524L140.587,70.022L140.613,68.53L146.512,68.53L146.539,70.022L146.557,71.524L148.058,71.542L149.55,71.568L149.55,77.467L145.064,77.494L140.569,77.512L140.569,83.499L142.07,83.482L143.563,83.455L143.589,81.998L143.607,80.55L145.064,80.568L146.512,80.595L146.539,83.562L146.557,86.538L148.058,86.556L149.55,86.583L149.55,98.469L146.601,98.469L146.574,92.499L146.557,86.538L145.1,86.556L143.652,86.583L143.625,89.559L143.607,92.526L140.569,92.526L140.569,83.499L139.121,83.482L137.664,83.455L137.575,80.595L131.587,80.595L131.587,83.455L134.536,83.544L134.626,86.493L137.575,86.583L137.575,89.532L136.1,89.577L134.626,89.621L134.599,91.069L134.581,92.526L136.073,92.544L137.575,92.571L137.602,95.547L137.619,98.514L139.076,98.496L140.524,98.469L140.551,97.012L140.569,95.565L143.607,95.565L143.589,98.541L143.563,101.508L142.088,101.552L140.613,101.597L140.569,103.072L140.524,104.546L134.626,104.546L134.599,103.045L134.581,101.552L133.079,101.57L131.587,101.597L131.542,103.072L131.498,104.546L128.53,104.573L125.554,104.591L125.554,110.579L124.107,110.597L122.65,110.624L122.605,112.053L122.56,113.483L119.566,113.528L116.573,113.573L116.528,115.047L116.483,116.522L115.035,116.549L113.579,116.567L113.579,122.555L110.54,122.555L110.558,127.041L110.585,131.536L122.56,131.536L122.56,128.587L119.611,128.498L119.611,125.638L122.56,125.549L122.587,124.056L122.605,122.555L121.113,122.537L119.611,122.51L119.611,116.611L125.51,116.611L125.51,119.561L124.08,119.605L122.65,119.65L122.623,121.098L122.605,122.555L128.593,122.555L128.611,121.098L128.638,119.65L130.068,119.605L131.498,119.561L131.587,116.611L134.599,116.585L137.619,116.567L137.637,112.071L137.664,107.585L139.121,107.558L140.569,107.54L140.569,116.567L142.07,116.585L143.563,116.611L143.589,118.104L143.607,119.605L146.557,119.605L146.539,116.585L146.512,113.573L143.652,113.483L143.625,110.516L143.607,107.54L145.055,107.522L146.512,107.496L146.557,106.066L146.601,104.636L149.55,104.636L149.55,119.561L148.049,119.587L146.557,119.605L146.574,121.062L146.601,122.51L149.55,122.599L149.55,128.498L143.652,128.587L143.652,134.575L149.55,134.664L149.55,140.563L146.583,140.59L143.607,140.608L143.607,146.595L145.064,146.578L146.512,146.551L146.557,145.076L146.601,143.601L149.55,143.601L149.55,149.589L143.652,149.589L143.625,148.088L143.607,146.595L140.569,146.595L140.551,148.088L140.524,149.589L137.664,149.589L137.664,146.64L139.121,146.613L140.569,146.595L140.551,145.094L140.524,143.601L137.557,143.575L134.581,143.557L134.563,146.569L134.536,149.589L131.587,149.589L131.498,146.64L130.05,146.613L128.593,146.595L128.575,148.088L128.548,149.589L125.599,149.589L125.572,148.097L125.554,146.595L122.578,146.578L119.611,146.551L119.584,145.049L119.566,143.557L116.59,143.575L113.623,143.601L113.579,145.076L113.534,146.551L110.585,146.551L110.495,143.601L107.635,143.601L107.546,149.589L74.568,149.589L74.568,146.64L80.467,146.551L80.467,143.601L77.607,143.512L77.58,140.545L77.562,137.569L76.061,137.551L74.568,137.524L74.479,134.664L71.53,134.664L71.485,136.094L71.44,137.524L62.592,137.614L62.566,140.59L62.548,143.557L65.497,143.557L65.497,140.608L68.536,140.608L68.536,143.557L71.485,143.557L71.503,142.1L71.53,140.652L74.479,140.652L74.479,143.512L72.986,143.539L71.485,143.557L71.467,145.058L71.44,146.551L69.992,146.578L68.536,146.595L68.518,148.097L68.491,149.589L62.592,149.589L62.566,146.569L62.548,143.557L59.509,143.557L59.491,146.569L59.464,149.589L56.515,149.589L56.426,146.64L53.459,146.613L50.483,146.595L50.465,148.088L50.438,149.589L47.578,149.589L47.551,148.088L47.533,146.595L46.032,146.613L44.539,146.64L44.495,148.115L44.45,149.589L41.501,149.589L41.411,146.64L39.964,146.613L38.507,146.595L38.489,148.088L38.462,149.589L35.513,149.589L35.486,148.088L35.468,146.595L34.012,146.613L32.564,146.64L32.519,148.115L32.474,149.589L26.486,149.589L26.486,146.64L29.436,146.551L29.436,143.601L20.499,143.512L20.472,142.055L20.454,140.608L17.505,140.608L17.487,145.103L17.46,149.589L14.511,149.589L14.421,146.64L5.484,146.551L5.457,142.064L5.44,137.569L3.983,137.551L2.535,137.524L2.446,125.638L-3.542,125.549L-3.542,122.599L0.953,122.572L5.44,122.555L5.422,121.098L5.395,119.65L-0.566,119.623L-6.536,119.605L-6.536,122.555L-21.55,122.555L-21.533,119.587L-21.506,116.611L-18.646,116.611L-18.557,119.561L-15.607,119.561L-15.607,113.573L-21.506,113.483L-21.533,112.036L-21.55,110.579L-20.103,110.561L-18.646,110.534L-18.619,106.048L-18.601,101.552L-20.049,101.535L-21.506,101.508L-21.506,98.558L-18.646,98.558L-18.619,100.06L-18.601,101.552L-17.1,101.535L-15.607,101.508L-15.607,95.609L-18.583,95.582L-21.55,95.565L-21.533,91.069L-21.506,86.583L-17.019,86.556L-12.524,86.538L-12.524,83.499L-17.019,83.482L-21.506,83.455L-21.506,74.607L-18.646,74.607L-18.557,77.467L-14.07,77.494L-9.575,77.512L-9.575,74.562L-11.023,74.544L-12.479,74.518L-12.506,73.025L-12.524,71.524L-15.545,71.506L-18.557,71.479L-18.583,69.987L-18.601,68.485L-20.058,68.467L-21.506,68.44L-21.533,66.984L-21.55,65.536L-18.601,65.536L-18.583,64.034L-18.557,62.542L-15.563,62.497L-12.569,62.453L-12.542,61.005L-12.524,59.548L-15.536,59.53L-18.557,59.503L-18.557,56.554L-12.569,56.554L-12.542,58.055L-12.524,59.548L-11.067,59.53L-9.619,59.503L-9.619,53.515L-18.557,53.426L-18.583,50.45L-18.601,47.483L-21.55,47.483L-21.533,44.507L-21.506,41.54L-18.646,41.54L-18.619,44.507L-18.601,47.483L-17.1,47.501L-15.607,47.528L-15.518,50.477L-12.569,50.477L-12.542,47.51L-12.524,44.534L-14.017,44.516L-15.518,44.489L-15.518,41.54L-14.017,41.513L-12.524,41.495L-12.524,35.507L-9.575,35.507L-9.557,36.955L-9.53,38.412L-6.581,38.501L-6.581,41.45L-9.557,41.477L-12.524,41.495L-12.524,44.534L-6.554,44.551L-0.593,44.578L-0.593,47.438L-3.569,47.465L-6.536,47.483L-6.518,51.978L-6.491,56.465L-0.593,56.465L-0.593,53.515L-3.542,53.426L-3.542,50.566L-0.53,50.539L2.49,50.521L2.508,53.489L2.535,56.465L5.395,56.554L5.484,59.503L8.434,59.593L8.46,61.04L8.478,62.497L5.44,62.497L5.44,65.536L8.478,65.536L8.478,68.485L6.986,68.503L5.484,68.53L5.44,70.004L5.395,71.479L3.965,71.524L2.535,71.568L2.49,73.043L2.446,74.518L0.953,74.544L-0.548,74.562L-0.566,73.07L-0.593,71.568L-5.079,71.542L-9.575,71.524L-9.593,70.022L-9.619,68.53L-11.067,68.503L-12.524,68.485L-12.542,67.028L-12.569,65.581L-15.58,65.554L-18.601,65.536L-18.601,68.485L-12.524,68.485L-12.524,71.524L-9.575,71.524L-9.575,74.562L-8.073,74.58L-6.581,74.607L-6.554,76.055L-6.536,77.512L-9.575,77.512L-9.575,80.55L-11.023,80.568L-12.479,80.595L-12.506,82.043L-12.524,83.499L-9.575,83.499L-9.593,84.992L-9.619,86.493L-11.067,86.52L-12.524,86.538L-12.542,88.039L-12.569,89.532L-14.043,89.577L-15.518,89.621L-15.518,92.481L-12.551,92.508L-9.575,92.526L-9.575,95.565L-3.587,95.565L-3.569,97.012L-3.542,98.469L2.446,98.469L2.472,97.012L2.49,95.565L8.478,95.565L8.478,89.577L9.935,89.559L11.383,89.532L11.383,80.595L9.935,80.568L8.478,80.55L8.478,89.577L5.511,89.559L2.535,89.532L2.446,86.583L0.953,86.556L-0.548,86.538L-0.548,83.499L2.428,83.482L5.395,83.455L5.422,82.007L5.44,80.55L3.992,80.532L2.535,80.505L2.535,77.556L5.511,77.529L8.478,77.512L8.478,68.485L9.935,68.467L11.383,68.44L11.427,65.491L11.472,62.542L12.965,62.515L14.466,62.497L14.484,63.99L14.511,65.491L17.46,65.581L17.487,67.028L17.505,68.485L16.012,68.503L14.511,68.53L14.484,71.542L14.466,74.562L12.965,74.58L11.472,74.607L11.472,77.467L12.965,77.494L14.466,77.512L14.466,74.562L26.442,74.562L26.424,73.061L26.397,71.568L23.537,71.479L23.448,68.53L21.955,68.503L20.454,68.485L20.436,69.978L20.409,71.479L17.549,71.479L17.523,69.978L17.505,68.485L20.454,68.485L20.454,65.536L23.43,65.518L26.397,65.491L26.397,62.542L24.94,62.515L23.493,62.497L23.51,59.521L23.537,56.554L24.967,56.509L26.397,56.465L26.397,53.515L17.549,53.515L17.505,57.984L17.46,62.453L15.968,62.479L14.466,62.497L14.448,61.049L14.421,59.593L11.472,59.503L11.445,58.011L11.427,56.509L9.971,56.491L8.523,56.465L8.523,53.515L9.98,53.489L11.427,53.471L11.427,50.521L2.49,50.521L2.508,49.02L2.535,47.528L5.511,47.501L8.478,47.483L8.478,35.507L5.511,35.489L2.535,35.462L2.535,32.513L3.992,32.486L5.44,32.469L5.422,31.012L5.395,29.564L2.535,29.475L2.508,27.973L2.49,26.481L8.478,26.481L8.478,20.493L9.935,20.475L11.383,20.448L11.427,17.499L11.472,14.55L14.421,14.55L14.511,20.448L16.003,20.475L17.505,20.493L17.523,19L17.549,17.499L20.525,17.472L23.493,17.454L23.475,12.959L23.448,8.472L20.499,8.472L20.454,9.947L20.409,11.422L14.511,11.422L14.511,8.472L17.46,8.383L17.487,5.523C17.496,3.95 17.523,2.61 17.549,2.547C17.576,2.467 18.264,2.44 20.543,2.44L23.493,2.44L23.493,5.478L35.468,5.478L35.486,8.446L35.513,11.422L38.462,11.422L38.489,8.455L38.507,5.478L41.483,5.461L44.45,5.434L44.477,3.932L44.495,2.44L50.483,2.44L50.483,5.478L49.071,5.478C48.293,5.478 47.623,5.505 47.596,5.541C47.56,5.568 47.533,6.238 47.533,7.016L47.533,8.428L50.483,8.428L50.483,5.478L53.521,5.478L53.521,8.428L50.483,8.428L50.483,11.466L49.035,11.448L47.578,11.422L47.551,9.92L47.533,8.428L44.513,8.446L41.501,8.472L41.501,11.422L44.45,11.511L44.45,14.46L41.501,14.55L41.456,17.499L41.411,20.448L32.564,20.448L32.474,17.499L30.982,17.472L29.48,17.454L29.463,18.947L29.436,20.448L26.486,20.448L26.46,18.947L26.442,17.454L23.493,17.454L23.493,23.442L26.469,23.46L29.436,23.487L29.436,26.436L27.961,26.481L26.486,26.525L26.486,29.475L29.436,29.564L29.463,32.531L29.48,35.507L32.519,35.507L32.537,34.006L32.564,32.513L34.02,32.486L35.468,32.469L35.45,31.012L35.424,29.564L32.564,29.475L32.564,23.487L35.424,23.487L35.513,26.436L38.462,26.436L38.507,24.961L38.552,23.487L41.411,23.487L41.501,26.436L44.45,26.525L44.539,29.475L47.489,29.564L47.489,32.424L44.539,32.513L44.539,38.412L45.181,38.431C44.806,39.422 44.507,40.45 44.29,41.508L43.047,41.513L38.552,41.54L38.525,43.041L38.507,44.534L37.005,44.516L35.513,44.489L35.486,40.003L35.468,35.507L38.435,35.489L41.411,35.462L41.411,32.513L38.444,32.486L35.468,32.469L35.468,35.507L32.519,35.507L32.501,38.474L32.474,41.45L29.525,41.45L29.498,38.474L29.48,35.507L26.442,35.507L26.424,34.006L26.397,32.513L24.949,32.486L23.493,32.469L23.493,35.507L26.442,35.507L26.424,36.955L26.397,38.412L23.43,38.439L20.454,38.456L20.454,32.469L17.505,32.469L17.505,29.519L20.481,29.501L23.448,29.475L23.475,26.463L23.493,23.442L22,23.424L20.499,23.397L20.472,21.941L20.454,20.493L17.505,20.493L17.487,21.941L17.46,23.397L14.466,23.442L11.472,23.487L11.427,24.961L11.383,26.436L9.935,26.463L8.478,26.481L8.478,35.507L9.935,35.489L11.383,35.462L11.427,33.988L11.472,32.513L14.493,32.486L17.505,32.469L17.487,33.961L17.46,35.462L15.985,35.507L14.511,35.552L14.484,37L14.466,38.456L12.965,38.474L11.472,38.501L11.445,44.507L11.427,50.521L20.454,50.521L20.454,47.483L23.493,47.483L23.493,50.521L26.469,50.504L29.436,50.477L29.48,49.002L29.525,47.528L34.02,47.501L38.507,47.483L38.507,50.521L41.456,50.521L41.456,53.471L42.958,53.453L43.882,53.436L43.882,55.616C43.041,55.616 42.236,55.771 41.493,56.054L41.474,54.972L41.456,53.471L39.999,53.453L38.552,53.426L38.525,51.969L38.507,50.521L35.531,50.539L32.564,50.566L32.519,51.996L32.474,53.426L31,53.471L29.525,53.515L29.525,59.503L37.774,59.553C37.39,60.397 37.177,61.334 37.177,62.322L37.177,62.497L35.468,62.497L35.468,65.536L37.177,65.536L37.177,71.518L35.513,71.568L35.486,73.061L35.468,74.562L36.961,74.58L37.177,74.584L37.177,80.55L35.468,80.55L35.468,83.499L36.97,83.482L37.177,83.478L37.177,86.544L35.513,86.493L35.486,84.992L35.468,83.499L34.012,83.517L32.564,83.544L32.519,85.019L32.474,86.493L29.525,86.493L29.436,80.595L26.469,80.568L23.493,80.55L23.493,77.512L14.466,77.512L14.484,80.488L14.511,83.455L20.409,83.544L20.436,86.556L20.454,89.577L17.487,89.595L14.511,89.621L14.466,91.051L14.421,92.481L12.947,92.526L11.472,92.571L11.445,97.057L11.427,101.552L9.971,101.57L8.523,101.597L8.523,104.546L11.383,104.546L11.41,103.054L11.427,101.552L12.929,101.535L14.421,101.508L14.466,98.558L14.511,95.609L17.46,95.52L17.505,94.045L17.549,92.571L19.006,92.544L20.454,92.526L20.436,95.493L20.409,98.469L18.979,98.514L17.549,98.558L17.505,101.552L17.46,104.546L15.985,104.591L14.511,104.636L14.466,106.066L14.421,107.496L9.935,107.522L5.44,107.54L5.422,104.573L5.395,101.597L-6.491,101.508L-6.581,98.558L-9.53,98.558L-9.619,101.508L-11.049,101.552L-12.479,101.597L-12.506,103.09L-12.524,104.591L-14.025,104.609L-15.518,104.636L-15.518,107.496L-14.025,107.522L-12.524,107.54L-12.506,113.555L-12.479,119.561L-9.503,119.587L-6.536,119.605L-6.536,116.567L-3.56,116.549L-0.593,116.522L-0.566,115.03L-0.548,113.528L2.428,113.51L5.395,113.483L5.422,112.027L5.44,110.579L9.935,110.597L14.421,110.624L14.448,116.585L14.466,122.555L12.974,122.572L11.472,122.599L11.427,124.074L11.383,125.549L9.935,125.575L8.478,125.593L8.478,122.555L5.44,122.555L5.44,137.569L8.416,137.551L11.383,137.524L11.427,134.575L11.472,131.626L14.421,131.626L14.511,134.575L17.46,134.664L17.487,136.112L17.505,137.569L16.012,137.587L14.511,137.614L14.484,139.106L14.466,140.608L8.478,140.608L8.496,142.055L8.523,143.512L14.421,143.512L14.448,142.055L14.466,140.608L17.505,140.608L17.505,137.569L20.454,137.569L20.454,140.608L24.949,140.59L29.436,140.563L29.436,137.614L24.949,137.587L20.454,137.569L20.454,131.581L23.43,131.563L26.397,131.536L26.424,130.044L26.442,128.542L27.943,128.525L29.436,128.498L29.436,125.638L27.934,125.611L26.442,125.593L26.46,124.092L26.486,122.599L29.48,122.555L32.474,122.51L32.474,119.65L29.525,119.561L29.525,116.611L35.424,116.611L35.513,119.561L41.411,119.561L41.456,118.086L41.501,116.611L44.45,116.611L44.539,122.51L47.516,122.537L50.483,122.555L50.483,125.593L53.521,125.593L53.521,122.555L54.978,122.537L56.426,122.51L56.47,121.08L56.515,119.65L58.008,119.623L59.509,119.605L59.527,121.053L59.554,122.51L62.521,122.537L65.497,122.555L65.515,121.107L65.542,119.65L68.491,119.561L68.58,116.611L70.028,116.585L71.485,116.567L71.503,121.053L71.53,125.549L74.479,125.549L74.523,122.599L74.568,119.65L76.061,119.623L77.562,119.605L77.58,121.053L77.607,122.51L79.063,122.537L80.511,122.555L80.511,125.593L79.063,125.611L77.607,125.638L77.562,127.068L77.517,128.498L74.523,128.542L71.53,128.587L71.53,131.536L77.517,131.626L77.544,134.602L77.562,137.569L80.511,137.569L80.529,136.112L80.556,134.664L83.505,134.575L83.55,133.1L83.595,131.626L85.051,131.599L86.499,131.581L86.481,134.548L86.454,137.524L85.007,137.551L83.55,137.569L83.55,140.608L86.526,140.59L89.493,140.563L89.538,139.088L89.582,137.614L91.075,137.587L92.576,137.569L92.594,139.061L92.621,140.563L94.069,140.59L95.526,140.608L95.544,143.584L95.57,146.551L98.52,146.551L98.52,134.664L97.018,134.638L95.526,134.62L95.544,133.118L95.57,131.626L100.039,131.581L104.507,131.536L104.507,128.587L101.558,128.498L101.558,125.638L104.552,125.593L107.546,125.549L107.546,122.599L104.597,122.51L104.507,119.65L103.006,119.623L101.514,119.605L101.531,118.104L101.558,116.611L104.507,116.522L104.507,113.573L98.609,113.573L98.564,115.047L98.52,116.522L95.544,116.549L92.576,116.567L92.594,112.08L92.621,107.585L94.078,107.558L95.526,107.54L95.526,110.579L100.021,110.561L104.507,110.534L104.597,107.585L107.546,107.585L107.635,113.483L109.092,113.51L110.54,113.528L110.54,116.567L109.092,116.585L107.635,116.611L107.635,119.561L110.495,119.561L110.522,118.059L110.54,116.567L113.579,116.567L113.561,115.065L113.534,113.573L112.041,113.546L110.54,113.528L110.54,107.54L113.579,107.54L113.596,106.083L113.623,104.636L115.053,104.591L116.483,104.546L116.51,100.051L116.528,95.565L119.566,95.565L119.566,107.54L118.074,107.558L116.573,107.585L116.573,110.534L119.522,110.534L119.549,109.042L119.566,107.54L121.068,107.522L122.56,107.496L122.605,106.066L122.65,104.636L124.098,104.609L125.554,104.591L125.572,103.09L125.599,101.597L127.074,101.552L128.548,101.508L128.575,98.541L128.593,95.565L131.569,95.547L134.536,95.52L134.563,94.027L134.581,92.526L133.088,92.508L131.587,92.481L131.498,89.621L130.05,89.595L128.593,89.577L128.575,86.556L128.548,83.544L125.599,83.455L125.572,81.998L125.554,80.55L128.593,80.55L128.593,77.512L140.569,77.512L140.569,74.562L143.545,74.544L146.512,74.518L146.539,73.016L146.557,71.524L140.569,71.524L140.569,74.562L139.121,74.544L137.664,74.518L137.637,73.016L137.619,71.524L136.118,71.542L134.626,71.568L134.536,74.518L131.587,74.518L131.498,71.568L125.599,71.568L125.599,74.518L128.548,74.607L128.575,76.055L128.593,77.512L125.554,77.512L125.554,80.55L124.107,80.532L122.65,80.505L122.56,74.607L119.611,74.607L119.566,77.556L119.522,80.505L118.029,80.532L116.528,80.55L116.51,79.058L116.483,77.556L115.035,77.529L113.579,77.512L113.579,74.562L110.54,74.562L110.54,80.55L109.092,80.532L107.635,80.505L107.609,77.529L107.591,74.562L104.552,74.562L104.552,71.524L106.054,71.542L107.546,71.568L107.573,73.061L107.591,74.562L110.54,74.562L110.558,73.061L110.585,71.568L112.086,71.542L113.579,71.524L113.579,74.562L115.035,74.544L116.483,74.518L116.483,71.568L115.035,71.542L113.579,71.524L113.561,70.022L113.534,68.53L104.597,68.53L104.57,70.022L104.552,71.524L101.576,71.542L98.609,71.568L98.609,74.518L101.585,74.544L104.552,74.562L104.534,80.532L104.507,86.493L103.033,86.538L101.558,86.583L101.558,92.481L103.051,92.508L104.552,92.526L104.57,94.027L104.597,95.52L109.092,95.547L113.579,95.565L113.561,97.021L113.534,98.469L112.059,98.514L110.585,98.558L110.495,104.546L104.597,104.546L104.507,98.558L101.558,98.558L101.514,100.033L101.469,101.508L100.021,101.535L98.564,101.552L98.546,95.591L98.52,89.621L95.57,89.532L95.57,86.583L97.045,86.538L98.52,86.493L98.546,85.001L98.564,83.499L100.021,83.482L101.469,83.455L101.469,77.556L100.021,77.529L98.564,77.512L98.564,83.499L97.072,83.482L95.57,83.455L95.544,80.488L95.526,77.512L94.069,77.494L92.621,77.467L92.621,74.607L95.481,74.518L95.481,71.568L92.621,71.479L92.594,69.987L92.576,68.485L94.024,68.467L95.481,68.44L95.508,66.984L95.526,65.536L98.564,65.536L98.564,59.548L104.552,59.548L104.57,62.515L104.597,65.491L107.546,65.491L107.546,59.593L106.054,59.566L104.552,59.548L104.552,50.521L107.591,50.521L107.609,51.969L107.635,53.426L110.495,53.515L110.585,56.465L113.534,56.465L113.623,53.515L115.071,53.489L116.528,53.471L116.546,54.963L116.573,56.465L119.522,56.554L119.549,58.047L119.566,59.548L118.074,59.566L116.573,59.593L116.528,61.023L116.483,62.453L115.035,62.479L113.579,62.497L113.561,61.049L113.534,59.593L110.585,59.593L110.558,61.04L110.54,62.497L113.579,62.497L113.579,65.536L118.074,65.518L122.56,65.491L122.56,62.542L119.611,62.453L119.584,61.005L119.566,59.548L121.059,59.53L122.56,59.503L122.56,53.515L119.549,53.489L116.528,53.471L116.51,50.495L116.483,47.528L115.035,47.501L113.579,47.483L113.579,50.521L107.591,50.521L107.591,47.483L110.54,47.483L110.558,44.507L110.585,41.54L112.059,41.495L113.534,41.45L113.561,38.474L113.579,35.507L107.591,35.507L107.591,32.469L110.54,32.469L110.54,26.481L112.041,26.463L113.534,26.436L113.534,23.487L112.041,23.46L110.54,23.442L110.54,20.493L109.092,20.475L107.635,20.448L107.635,17.499L110.611,17.472L113.579,17.454L113.579,20.493L119.566,20.493L119.584,23.46L119.611,26.436L121.113,26.463L122.605,26.481L122.605,32.469L119.566,32.469L119.549,31.012L119.522,29.564L116.573,29.564L116.573,32.424L118.074,32.451L119.566,32.469L119.566,35.507L118.074,35.525L116.573,35.552L116.573,38.412L118.074,38.439L119.566,38.456L119.549,39.958L119.522,41.45L118.047,41.495L116.573,41.54L116.573,44.489L121.068,44.516L125.554,44.534L125.554,47.483L128.593,47.483L128.593,50.521L125.554,50.521L125.572,53.489L125.599,56.465L137.575,56.465L137.575,53.515L128.638,53.426L128.611,51.978L128.593,50.521L130.041,50.504L131.498,50.477L131.498,41.54L130.05,41.513L128.593,41.495L128.575,39.994L128.548,38.501L125.599,38.501L125.572,40.003L125.554,41.495L124.098,41.477L122.65,41.45L122.56,38.501L121.068,38.474L119.566,38.456L119.566,35.507L121.068,35.489L122.56,35.462L122.587,33.961L122.605,32.469L125.554,32.469L125.554,35.507L128.53,35.489L131.498,35.462L131.498,29.564L128.638,29.564L128.611,31.012L128.593,32.469L125.554,32.469L125.536,29.492L125.51,26.525L124.053,26.499L122.605,26.481L122.623,24.979L122.65,23.487L124.08,23.442L125.51,23.397L125.536,21.941L125.554,20.493L128.593,20.493L128.593,17.454L125.554,17.454L125.554,20.493L119.566,20.493L119.566,17.454L121.068,17.436L122.56,17.409L122.587,15.953L122.605,14.505L119.566,14.505L119.566,17.454L118.074,17.436L116.573,17.409L116.546,16.069C116.537,15.336 116.546,14.684 116.564,14.621C116.599,14.532 116.966,14.505 118.092,14.505L119.566,14.505L119.566,11.466L116.599,11.484L113.623,11.511L113.579,12.986L113.534,14.46L110.585,14.46L110.495,11.511L107.635,11.422L107.635,8.472L109.065,8.428L110.495,8.383L110.522,6.935L110.54,5.478L109.092,5.461L107.635,5.434L107.546,2.485L104.597,2.395L104.57,-2.1L104.552,-6.587L107.591,-6.587L107.609,-3.575L107.635,-0.554L109.092,-0.527L110.54,-0.509L110.54,2.44L113.579,2.44L113.579,-0.509L115.035,-0.527L116.483,-0.554L116.483,-3.503L113.623,-3.503L113.596,-2.011L113.579,-0.509L110.54,-0.509L110.522,-3.53L110.495,-6.542L109.048,-6.569L107.591,-6.587L107.573,-8.043L107.546,-9.491L104.597,-9.491L104.57,-8.034L104.552,-6.587L101.576,-6.605L98.609,-6.631L98.582,-8.079L98.564,-9.536L100.012,-9.554L101.469,-9.581L101.469,-12.53L100.021,-12.557L98.564,-12.575L98.564,-9.536L92.576,-9.536L92.576,-6.587L91.084,-6.569L89.582,-6.542L89.538,-3.548L89.493,-0.554L86.544,-0.554L86.517,-5.049L86.499,-9.536L83.55,-9.536L83.532,-5.049L83.505,-0.554L82.013,-0.527L80.511,-0.509L80.493,-2.002L80.467,-3.503L79.019,-3.53L77.562,-3.548L77.562,-6.587L79.019,-6.605L80.467,-6.631L80.493,-8.088L80.511,-9.536L79.063,-9.518L77.607,-9.491L77.58,-8.043L77.562,-6.587L76.061,-6.569L74.568,-6.542L74.541,-5.049L74.523,-3.548L73.022,-3.53L71.53,-3.503L71.53,-0.554L73.031,-0.527L74.523,-0.509L74.506,0.947L74.479,2.395L71.53,2.485L71.485,3.959L71.44,5.434L69.983,5.461L68.536,5.478L68.553,6.935L68.58,8.383L71.44,8.472L71.467,9.974L71.485,11.466L68.518,11.448L65.542,11.422L65.515,8.446L65.497,5.478L62.521,5.496L59.554,5.523L59.554,8.383L62.503,8.472L62.592,14.46L71.44,14.46L71.467,12.959L71.485,11.466L74.506,11.484L77.517,11.511L77.544,13.003L77.562,14.505L76.07,14.523L74.568,14.55L74.523,15.98L74.479,17.409L71.53,17.499L71.53,20.448L74.479,20.537L74.479,23.397L73.004,23.442L71.53,23.487L71.503,24.979L71.485,26.481L70.439,26.493C68.879,25.967 67.234,25.626 65.53,25.498L65.542,23.487L67.016,23.442L68.491,23.397L68.518,20.421L68.536,17.454L65.497,17.454L65.497,20.493L64.049,20.511L62.592,20.537L62.548,21.967L62.503,23.397L61.028,23.442L59.554,23.487L59.532,25.939C58.475,26.179 57.45,26.501 56.464,26.9L56.453,22.03L56.426,14.55L50.527,14.46L50.5,12.968L50.483,11.466L51.975,11.448L53.477,11.422L53.503,9.929L53.521,8.428L54.978,8.41L56.426,8.383L56.426,2.485L53.459,2.458L50.483,2.44L50.483,-3.548L47.533,-3.548L47.516,-2.056L47.489,-0.554L45.996,-0.527L44.495,-0.509L44.495,2.44L38.534,2.422L32.564,2.395L32.537,-0.581L32.519,-3.548L31.018,-3.53L29.525,-3.503L29.48,-0.554L29.436,2.395L26.486,2.395L26.46,-2.1L26.442,-6.587L32.519,-6.587L32.501,-8.043L32.474,-9.491L26.486,-9.491L26.46,-8.034L26.442,-6.587L24.985,-6.605L23.537,-6.631L23.493,-11.055L23.448,-15.479L21.955,-15.506L20.454,-15.524L20.454,-9.536L19.006,-9.554L17.549,-9.581L17.46,-12.53L12.974,-12.557L8.478,-12.575L8.478,-9.536L11.454,-9.518L14.421,-9.491L14.448,-8.043L14.466,-6.587L12.974,-6.569L11.472,-6.542L11.472,-0.554L12.974,-0.527L14.466,-0.509L14.448,2.467L14.421,5.434L11.454,5.461L8.478,5.478L8.46,6.935L8.434,8.383L6.941,8.41L5.44,8.428L5.44,2.44L8.478,2.44L8.46,-2.056L8.434,-6.542L6.941,-6.569L5.44,-6.587L5.44,2.44L2.49,2.44L2.49,8.428L-0.548,8.428L-0.548,11.466L0.953,11.448L2.446,11.422L2.472,9.92L2.49,8.428L5.44,8.428L5.44,14.505L-0.548,14.505L-0.548,17.454L0.953,17.472L2.446,17.499L2.446,20.448L0.953,20.475L-0.548,20.493L-0.548,23.442L0.953,23.46L2.446,23.487L2.472,24.979L2.49,26.481L-0.548,26.481L-0.566,27.973L-0.593,29.475L-2.085,29.501L-3.587,29.519L-3.587,32.469L-6.536,32.469L-6.536,35.507L-9.575,35.507L-9.575,32.469L-11.023,32.486L-12.479,32.513L-12.506,34.006L-12.524,35.507L-15.563,35.507L-15.58,36.955L-15.607,38.412L-21.506,38.412L-21.533,36.955L-21.55,35.507L-15.563,35.507L-15.58,34.006L-15.607,32.513L-18.557,32.424L-18.646,29.564L-21.506,29.475L-21.506,26.525L-15.607,26.525L-15.518,29.475L-9.619,29.564L-9.593,31.012L-9.575,32.469L-6.536,32.469L-6.518,31.012L-6.491,29.564L-5.044,29.537L-3.587,29.519L-3.569,28.018L-3.542,26.525L-2.041,26.499L-0.548,26.481L-0.548,23.442L-2.041,23.424L-3.542,23.397L-3.542,20.537L-2.041,20.511L-0.548,20.493L-0.548,17.454L-6.536,17.454L-6.536,20.493L-9.575,20.493L-9.593,21.941L-9.619,23.397ZM35.468,125.593L34.029,125.593C32.975,125.593 32.591,125.62 32.564,125.7C32.537,125.763 32.528,129.794 32.537,134.664L32.564,143.512L35.424,143.601L35.45,145.094L35.468,146.595L38.507,146.595L38.525,145.094L38.552,143.601L41.501,143.557L44.45,143.512L44.495,142.082L44.539,140.652L46.041,140.625L47.533,140.608L47.533,146.595L50.483,146.595L50.5,145.094L50.527,143.601L55.023,143.575L59.509,143.557L59.491,140.581L59.464,137.614L57.972,137.587L56.47,137.569L56.453,133.074L56.426,128.587L50.527,128.587L50.527,131.536L53.477,131.626L53.477,134.575L50.509,134.602L47.533,134.62L47.516,133.127L47.489,131.626L44.539,131.536L44.513,130.044L44.495,128.542L45.987,128.525L47.489,128.498L47.489,125.638L44.539,125.638L44.513,127.095L44.495,128.542L39.999,128.525L35.513,128.498L35.486,127.041L35.468,125.593ZM68.536,143.557L65.497,143.557L65.515,145.049L65.542,146.551L67.043,146.578L68.536,146.595L68.536,143.557ZM122.605,140.608L119.566,140.608L119.549,137.631L119.522,134.664L116.608,134.638C115.009,134.629 113.677,134.647 113.641,134.682C113.605,134.709 113.579,136.059 113.579,137.676L113.579,140.608L119.566,140.608L119.566,143.557L121.068,143.539L122.56,143.512L122.587,142.055L122.605,140.608L125.554,140.608L125.554,146.595L128.593,146.595L128.611,145.094L128.638,143.601L131.614,143.575L134.581,143.557L134.563,140.581L134.536,137.614L131.587,137.614L131.542,139.088L131.498,140.563L130.05,140.59L128.593,140.608L128.593,137.569L125.626,137.587L122.65,137.614L122.623,139.106L122.605,140.608ZM-3.632,146.551L-3.632,131.626L-11.076,131.599C-16.984,131.581 -18.53,131.599 -18.557,131.688C-18.583,131.751 -18.592,135.12 -18.583,139.178L-18.557,146.551L-3.632,146.551ZM104.507,146.551L104.507,143.601L103.051,143.575C101.916,143.557 101.585,143.575 101.558,143.673C101.531,143.736 101.522,144.406 101.531,145.165L101.558,146.551L104.507,146.551ZM89.493,146.551L89.493,143.601L86.562,143.575C84.22,143.557 83.621,143.575 83.586,143.673C83.568,143.736 83.559,144.406 83.568,145.165L83.595,146.551L89.493,146.551ZM-6.581,143.512L-15.518,143.512L-15.545,139.178C-15.554,136.791 -15.545,134.789 -15.518,134.727C-15.491,134.638 -14.544,134.62 -11.032,134.638L-6.581,134.664L-6.581,143.512ZM140.569,137.569L140.551,134.593L140.524,131.626L139.112,131.599C138.039,131.581 137.691,131.599 137.664,131.688C137.637,131.751 137.628,133.771 137.637,136.184L137.664,140.563L140.64,140.59L143.607,140.608L143.607,137.569L140.569,137.569ZM50.483,140.608L47.533,140.608L47.533,137.569L44.522,137.587L41.501,137.614L41.456,139.088L41.411,140.563L38.444,140.59L35.468,140.608L35.468,137.569L38.507,137.569L38.489,136.112L38.462,134.664L35.513,134.575L35.486,133.19C35.477,132.43 35.486,131.76 35.504,131.697C35.54,131.599 36.139,131.581 38.48,131.599L41.411,131.626L41.501,134.575L44.522,134.602L47.533,134.62L47.533,137.569L50.483,137.569L50.483,140.608ZM56.47,137.569L56.453,139.061L56.426,140.563L54.978,140.59L53.521,140.608L53.521,137.569L56.47,137.569ZM108.443,134.631C107.865,134.632 107.656,134.659 107.635,134.727C107.609,134.789 107.582,135.442 107.573,136.184L107.546,137.524L104.552,137.569L101.558,137.614L101.558,140.563L106.054,140.59L110.54,140.608L110.522,137.64L110.495,134.664L109.083,134.638C108.849,134.634 108.649,134.631 108.479,134.631L108.443,134.631ZM95.526,137.569L92.576,137.569L92.576,136.157C92.576,135.379 92.603,134.709 92.639,134.682C92.666,134.647 93.336,134.62 94.114,134.62L95.526,134.62L95.526,137.569ZM68.536,125.593L64.067,125.593C60.573,125.593 59.581,125.62 59.554,125.7C59.527,125.763 59.518,127.783 59.527,130.196L59.554,134.575L68.491,134.575L68.518,130.08L68.536,125.593ZM134.536,134.575L134.536,125.638L130.041,125.611L125.554,125.593L125.572,130.08L125.599,134.575L134.536,134.575ZM20.454,128.542L20.454,131.581L19.006,131.563L17.549,131.536L17.523,130.044L17.505,128.542L16.003,128.525L14.511,128.498L14.484,125.522L14.466,122.555L17.505,122.555L17.505,121.143C17.505,120.365 17.531,119.695 17.567,119.668C17.603,119.632 18.935,119.614 20.534,119.623L23.448,119.65L23.475,122.617L23.493,125.593L26.442,125.593L26.442,128.542L20.454,128.542ZM101.514,119.605L101.496,121.053L101.469,122.51L98.502,122.537L95.526,122.555L95.508,125.531L95.481,128.498L92.621,128.587L92.576,130.062L92.532,131.536L89.511,131.563L86.499,131.581L86.517,130.089L86.544,128.587L89.493,128.498L89.52,127.05L89.538,125.593L88.045,125.575L86.544,125.549L86.544,122.599L89.493,122.599L89.52,124.101L89.538,125.593L91.039,125.575L92.532,125.549L92.621,122.599L94.078,122.572L95.526,122.555L95.526,121.134C95.526,120.356 95.552,119.695 95.588,119.668C95.615,119.632 96.965,119.605 98.582,119.605L101.514,119.605ZM131.498,131.536L128.638,131.536L128.611,130.151C128.602,129.391 128.611,128.721 128.638,128.659C128.664,128.56 128.986,128.542 130.085,128.56L131.498,128.587L131.498,131.536ZM65.452,131.536L62.592,131.536L62.566,130.151C62.557,129.391 62.566,128.721 62.592,128.659C62.619,128.56 62.941,128.542 64.04,128.56L65.452,128.587L65.452,131.536ZM20.454,122.555L17.505,122.555L17.505,128.542L20.454,128.542L20.454,122.555ZM116.483,128.498L113.623,128.498L113.596,127.041L113.579,125.593L115.026,125.611L116.483,125.638L116.483,128.498ZM143.607,119.605L140.569,119.605L140.569,125.593L139.121,125.611L137.664,125.638L137.664,128.498L140.524,128.498L140.551,127.041L140.569,125.593L143.607,125.593L143.607,119.605ZM62.592,102.559L68.536,102.559L68.536,107.54L65.497,107.54L65.479,112.027L65.452,116.522L64.022,116.567L62.592,116.611L62.548,118.086L62.503,119.561L61.011,119.587L59.509,119.605L59.491,118.113L59.464,116.611L56.515,116.522L56.426,113.573L54.978,113.546L53.521,113.528L53.521,122.555L50.483,122.555L50.465,121.098L50.438,119.65L47.578,119.561L47.578,116.611L49.008,116.567L50.438,116.522L50.483,115.047L50.527,113.573L52.029,113.546L53.521,113.528L53.521,107.54L50.483,107.54L50.483,110.579L44.495,110.579L44.477,112.027L44.45,113.483L41.501,113.483L41.501,110.624L43.002,110.597L44.495,110.579L44.495,102.559L50.51,102.559L50.527,104.546L53.477,104.636L53.503,106.083L53.521,107.54L65.497,107.54L65.479,106.083L65.452,104.636L62.592,104.546L62.592,102.559ZM140.569,116.567L137.619,116.567L137.619,119.605L136.127,119.623L134.626,119.65L134.626,122.51L137.575,122.51L137.602,121.053L137.619,119.605L140.569,119.605L140.569,116.567ZM83.55,102.559L83.55,104.591L85.007,104.609L86.454,104.636L86.454,110.534L84.998,110.561L83.55,110.579L83.568,112.036L83.595,113.483L89.493,113.573L89.582,116.522L91.084,116.549L92.576,116.567L92.559,118.068L92.532,119.561L86.544,119.561L86.454,116.611L83.487,116.585L80.511,116.567L80.493,118.059L80.467,119.561L79.019,119.587L77.562,119.605L77.562,116.567L71.485,116.567L71.503,112.071L71.53,107.585L74.55,107.558L77.562,107.54L77.544,106.083L77.517,104.636L71.53,104.546L71.503,103.045L71.497,102.559L83.55,102.559ZM-6.536,110.579L-6.536,116.567L-8.029,116.549L-9.53,116.522L-9.557,113.546L-9.575,110.579L-6.536,110.579ZM83.55,104.591L82.093,104.591C81.289,104.591 80.601,104.618 80.574,104.654C80.538,104.68 80.511,105.351 80.511,106.128L80.511,107.54L77.562,107.54L77.562,110.579L76.07,110.597L74.568,110.624L74.568,113.483L76.07,113.51L77.562,113.528L77.562,116.567L80.511,116.567L80.493,115.065L80.467,113.573L79.019,113.546L77.562,113.528L77.562,110.579L83.55,110.579L83.55,104.591ZM20.454,107.54L20.454,110.579L19.006,110.561L17.549,110.534L17.549,107.585L18.997,107.558L20.454,107.54L20.472,106.083L20.499,104.636L23.475,104.609L26.442,104.591L26.424,103.09L26.397,101.597L23.537,101.508L23.537,98.558L26.513,98.532L29.48,98.514L29.463,97.057L29.436,95.609L26.486,95.52L26.397,92.571L23.43,92.544L20.454,92.526L20.454,89.577L24.949,89.595L29.436,89.621L29.525,92.481L31.018,92.508L32.519,92.526L32.537,91.078L32.564,89.621L35.424,89.621L35.45,91.069L35.468,92.526L37.177,92.526L37.177,95.554L35.468,95.565L35.468,92.526L32.519,92.526L32.519,98.514L29.48,98.514L29.498,100.006L29.525,101.508L32.474,101.508L32.501,100.006L32.519,98.514L33.976,98.532L35.424,98.558L35.513,101.508L37.005,101.535L38.507,101.552L38.525,100.06L38.528,99.89C39.026,100.55 39.643,101.115 40.347,101.552L38.507,101.552L38.507,104.591L39.964,104.609L41.411,104.636L41.411,107.496L39.964,107.522L38.507,107.54L38.507,104.591L35.54,104.609L32.564,104.636L32.519,106.066L32.474,107.496L30.973,107.522L29.48,107.54L29.498,109.042L29.525,110.534L32.474,110.624L32.474,113.483L29.463,113.51L26.442,113.528L26.424,115.03L26.397,116.522L23.537,116.522L23.537,113.573L24.994,113.546L26.442,113.528L26.442,107.54L20.454,107.54ZM20.409,116.522L17.549,116.522L17.523,115.137C17.514,114.377 17.523,113.707 17.549,113.644C17.576,113.546 17.898,113.528 18.997,113.546L20.409,113.573L20.409,116.522ZM11.383,116.522L11.383,113.573L9.971,113.546C8.871,113.528 8.55,113.546 8.523,113.644C8.496,113.707 8.487,114.377 8.496,115.137L8.523,116.522L11.383,116.522ZM-3.542,110.695C-3.569,110.758 -3.578,111.41 -3.569,112.143L-3.542,113.483L-2.041,113.51L-0.548,113.528L-0.566,112.08L-0.593,110.624L-2.05,110.597C-3.185,110.579 -3.515,110.597 -3.542,110.695ZM131.498,113.483L128.638,113.483L128.611,110.507L128.593,107.54L131.56,107.558L134.536,107.585L134.536,110.534L133.062,110.579L131.587,110.624L131.542,112.053L131.498,113.483ZM38.462,113.483L35.513,113.483L35.486,112.027L35.468,110.579L38.507,110.579L38.489,112.027L38.462,113.483ZM-6.536,107.54L-12.524,107.54L-12.524,104.591L-9.548,104.609L-6.581,104.636L-6.554,106.083L-6.536,107.54ZM26.442,107.54L29.48,107.54L29.463,106.083L29.436,104.636L27.943,104.609L26.442,104.591L26.442,107.54ZM-0.593,107.496L-3.542,107.496L-3.569,106.155C-3.578,105.422 -3.569,104.77 -3.542,104.707C-3.515,104.609 -3.185,104.591 -2.05,104.609L-0.593,104.636L-0.593,107.496ZM98.52,104.546L95.57,104.546L95.544,103.161C95.535,102.401 95.544,101.731 95.561,101.669C95.597,101.579 95.964,101.552 97.09,101.552L98.564,101.552L98.546,103.045L98.52,104.546ZM137.602,100.006L137.575,101.508L136.082,101.535L134.581,101.552L134.581,100.096C134.581,99.291 134.608,98.603 134.643,98.576C134.67,98.541 135.358,98.514 136.163,98.514L137.619,98.514L137.602,100.006ZM90.823,95.52L92.532,95.52L92.576,94.045L92.621,92.571L94.078,92.544L95.526,92.526L95.508,95.493L95.481,98.469L92.621,98.558L92.532,101.508L89.582,101.508L89.531,99.811C90.344,98.702 90.823,97.333 90.823,95.853L90.823,95.52ZM113.534,89.532L110.585,89.532L110.495,86.583L107.635,86.493L107.635,83.544L113.534,83.455L113.561,81.998L113.579,80.55L116.528,80.55L116.546,81.998L116.573,83.455L119.522,83.544L119.611,86.493L125.51,86.583L125.536,88.075L125.554,89.577L128.593,89.577L128.593,95.565L125.554,95.565L125.554,89.577L121.068,89.559L116.573,89.532L116.483,86.583L113.623,86.583L113.534,89.532ZM120.763,92.541C120.879,92.542 120.999,92.542 121.122,92.544L122.56,92.571L122.56,95.52L121.068,95.547L119.566,95.565L119.566,94.108C119.566,93.303 119.593,92.615 119.629,92.58C119.658,92.558 120.106,92.542 120.695,92.541L120.763,92.541ZM116.528,95.565L113.579,95.565L113.579,92.526L115.035,92.544L116.483,92.571L116.51,94.063L116.528,95.565ZM2.49,95.565L-3.587,95.565L-3.587,94.108C-3.587,93.303 -3.56,92.615 -3.524,92.588C-3.489,92.553 -2.139,92.535 -0.513,92.544L2.446,92.571L2.472,94.063L2.49,95.565ZM-6.536,92.526L-9.575,92.526L-9.575,91.114C-9.575,90.336 -9.548,89.666 -9.512,89.63C-9.476,89.603 -8.806,89.586 -8.02,89.595L-6.581,89.621L-6.554,91.069L-6.536,92.526ZM105.749,89.592C105.864,89.592 105.984,89.593 106.107,89.595L107.546,89.621L107.546,92.481L106.054,92.508L104.552,92.526L104.552,91.114C104.552,90.336 104.579,89.666 104.615,89.63C104.644,89.608 105.092,89.593 105.68,89.592L105.749,89.592ZM90.823,80.565L91.039,80.568L92.532,80.595L92.532,89.532L90.823,89.557L90.823,80.565ZM-0.593,89.532L-3.542,89.532L-3.569,88.147C-3.578,87.387 -3.569,86.717 -3.551,86.654C-3.515,86.565 -3.149,86.538 -2.023,86.538L-0.548,86.538L-0.566,88.031L-0.593,89.532ZM26.397,86.493L23.537,86.493L23.51,85.108C23.501,84.348 23.51,83.678 23.537,83.616C23.564,83.517 23.886,83.499 24.985,83.517L26.397,83.544L26.397,86.493ZM-3.542,80.666C-3.569,80.729 -3.578,81.381 -3.569,82.114L-3.542,83.455L-2.041,83.482L-0.548,83.499L-0.566,82.052L-0.593,80.595L-2.05,80.568C-3.185,80.55 -3.515,80.568 -3.542,80.666ZM-6.536,80.55L-6.554,81.998L-6.581,83.455L-8.073,83.482L-9.575,83.499L-9.575,80.55L-6.536,80.55ZM32.519,71.524L32.564,74.518L34.02,74.544L35.468,74.562L35.468,77.512L30.982,77.494L26.486,77.467L26.46,76.019L26.442,74.562L27.934,74.544L29.436,74.518L29.463,71.613C29.471,70.013 29.498,68.655 29.525,68.592C29.552,68.503 29.909,68.485 31.018,68.503L32.474,68.53L32.519,71.524ZM-0.593,77.467L-3.542,77.467L-3.569,76.126C-3.578,75.393 -3.569,74.741 -3.551,74.678C-3.515,74.589 -3.149,74.562 -2.023,74.562L-0.548,74.562L-0.566,76.01L-0.593,77.467ZM122.56,71.479L122.56,68.53L121.104,68.503C119.969,68.485 119.638,68.503 119.611,68.601C119.584,68.664 119.575,69.334 119.584,70.094L119.611,71.479L122.56,71.479ZM90.823,62.527L92.532,62.542L92.559,65.518L92.576,68.485L90.823,68.475L90.823,62.527ZM134.536,68.44L134.536,59.593L130.085,59.566C126.573,59.548 125.626,59.566 125.599,59.655C125.572,59.718 125.563,61.72 125.572,64.106L125.599,68.44L134.536,68.44ZM2.446,68.44L2.446,59.593L-2.005,59.566C-5.517,59.548 -6.465,59.566 -6.491,59.655C-6.518,59.718 -6.527,61.72 -6.518,64.106L-6.491,68.44L2.446,68.44ZM128.593,62.497L130.05,62.515L131.498,62.542L131.498,65.491L130.05,65.518L128.593,65.536L128.593,62.497ZM-0.593,65.491L-3.542,65.491L-3.569,64.106C-3.578,63.346 -3.569,62.676 -3.542,62.613C-3.515,62.515 -3.185,62.497 -2.05,62.515L-0.593,62.542L-0.593,65.491ZM84.118,53.426L95.481,53.426L95.508,51.969L95.526,50.521L98.564,50.521L98.582,51.969L98.609,53.426L101.469,53.515L101.469,56.465L100.039,56.509L98.609,56.554L98.582,58.055L98.564,59.548L97.063,59.53L95.57,59.503L95.481,56.554L92.621,56.554L92.532,59.503L90.213,59.524C89.153,57.218 86.823,55.616 84.118,55.616L84.118,53.426ZM11.427,56.509L12.929,56.491L14.421,56.465L14.421,53.515L12.929,53.489L11.427,53.471L11.427,56.509ZM146.557,44.534L146.539,43.032L146.512,41.54L143.652,41.45L143.625,39.958L143.607,38.456L142.106,38.439L140.613,38.412L140.587,36.964L140.569,35.507L139.112,35.489L137.664,35.462L137.619,32.513L137.575,29.564L136.118,29.537C135.01,29.519 134.652,29.537 134.626,29.627C134.599,29.689 134.59,31.691 134.599,34.077L134.626,38.412L137.575,38.501L137.602,39.994L137.619,41.495L136.127,41.513L134.626,41.54L134.626,44.489L136.118,44.516L137.619,44.534L137.637,45.99L137.664,47.438L139.112,47.465L140.569,47.483L140.587,50.459L140.613,53.426L143.563,53.426L143.589,51.978L143.607,50.521L145.064,50.504L146.512,50.477L146.539,48.975L146.557,47.483L140.569,47.483L140.569,44.534L146.557,44.534ZM43.909,44.51C43.891,44.858 43.882,45.207 43.882,45.559L43.882,50.521L41.456,50.521L41.438,49.02L41.411,47.528L39.964,47.501L38.507,47.483L38.507,44.534L43.002,44.516L43.909,44.51ZM83.55,20.493L80.511,20.493L80.511,17.454L79.063,17.436L77.607,17.409L77.58,15.962L77.562,14.505L79.01,14.487L80.467,14.46L80.511,12.986L80.556,11.511L83.532,11.484L86.499,11.466L86.481,8.49L86.454,5.523L85.007,5.496L83.55,5.478L83.55,2.44L98.564,2.44L98.564,-0.492C98.564,-2.109 98.591,-3.459 98.627,-3.494C98.663,-3.521 99.315,-3.539 100.075,-3.53L101.469,-3.503L101.469,5.434L98.502,5.461L95.526,5.478L95.508,6.935L95.481,8.383L89.582,8.472L89.556,9.965L89.538,11.466L92.505,11.484L95.481,11.511L95.57,14.46L98.52,14.46L98.564,11.466L98.609,8.472L104.507,8.472L104.507,11.422L101.558,11.511L101.514,14.46L101.469,17.409L100.021,17.436L98.564,17.454L98.564,23.442L101.514,23.442L101.531,21.985L101.558,20.537L104.507,20.537L104.534,21.985L104.552,23.442L110.54,23.442L110.54,26.481L109.092,26.499L107.635,26.525L107.609,29.492L107.591,32.469L106.089,32.486L104.597,32.513L104.57,34.006L104.552,35.507L101.514,35.507L101.496,36.955L101.469,38.412L100.021,38.439L98.564,38.456L98.564,47.483L95.526,47.483L95.526,50.521L94.078,50.504L92.621,50.477L92.594,47.501L92.576,44.534L89.538,44.534L89.538,41.495L86.499,41.495L86.499,44.534L85.051,44.551L84.094,44.569C84.043,43.506 83.909,42.465 83.698,41.452L85.051,41.477L86.499,41.495L86.517,39.994L86.544,38.501L89.493,38.501L89.52,39.994L89.538,41.495L92.576,41.495L92.594,39.994L92.621,38.501L95.597,38.474L98.564,38.456L98.564,35.507L101.514,35.507L101.514,26.481L100.066,26.463L98.609,26.436L98.582,24.935L98.564,23.442L95.526,23.442L95.508,24.935L95.481,26.436L94.051,26.481L92.621,26.525L92.594,28.018L92.576,29.519L94.024,29.537L95.481,29.564L95.508,32.54L95.526,35.507L91.039,35.489L86.544,35.462L86.544,29.564L88.045,29.537L89.538,29.519L89.538,23.442L88.045,23.424L86.544,23.397L86.544,20.537L88.045,20.511L89.538,20.493L89.538,17.454L83.55,17.454L83.55,20.493ZM101.558,44.641C101.531,44.703 101.522,46.044 101.531,47.617L101.558,50.477L103.051,50.504L104.552,50.521L104.57,49.029L104.597,47.528L106.098,47.501L107.591,47.483L107.573,46.026L107.546,44.578L104.57,44.551C102.228,44.534 101.585,44.551 101.558,44.641ZM84.118,47.476L84.998,47.465L86.454,47.438L86.481,45.981L86.499,44.534L89.538,44.534L89.52,47.501L89.493,50.477L86.517,50.504L84.118,50.518L84.118,47.476ZM24.657,44.549C24.768,44.549 24.884,44.55 25.003,44.551L26.397,44.578L26.397,47.438L24.949,47.465L23.493,47.483L23.493,46.071C23.493,45.293 23.519,44.623 23.555,44.587C23.584,44.565 24.02,44.55 24.59,44.549L24.657,44.549ZM20.454,38.456L20.436,39.949L20.409,41.45L18.979,41.495L17.549,41.54L17.549,44.489L20.409,44.578L20.436,46.035L20.454,47.483L17.487,47.465L14.511,47.438L14.484,42.943L14.466,38.456L20.454,38.456ZM128.593,41.495L128.575,42.988L128.548,44.489L127.056,44.516L125.554,44.534L125.554,41.495L128.593,41.495ZM92.576,44.534L94.033,44.516L95.481,44.489L95.481,41.54L94.033,41.513L92.576,41.495L92.576,44.534ZM140.569,44.534L137.619,44.534L137.619,41.495L139.076,41.513L140.524,41.54L140.551,43.032L140.569,44.534ZM5.395,44.489L2.535,44.489L2.508,43.104C2.499,42.344 2.508,41.674 2.535,41.611C2.562,41.513 2.884,41.495 3.983,41.513L5.395,41.54L5.395,44.489ZM-0.593,41.45L-3.542,41.45L-3.569,40.065C-3.578,39.305 -3.569,38.635 -3.542,38.573C-3.515,38.474 -3.185,38.456 -2.05,38.474L-0.593,38.501L-0.593,41.45ZM83.505,38.501L83.578,40.911C83.383,40.084 83.136,39.276 82.841,38.491L83.505,38.501ZM107.546,38.412L104.597,38.412L104.57,36.955L104.552,35.507L107.591,35.507L107.573,36.955L107.546,38.412ZM-0.593,35.462L-3.542,35.462L-3.569,33.961L-3.587,32.469L-2.094,32.486L-0.593,32.513L-0.593,35.462ZM71.485,26.88L71.485,26.481L75.98,26.499L80.467,26.525L80.493,31.012L80.506,34.054C79.639,32.813 78.635,31.674 77.517,30.659L77.517,29.564L76.188,29.552C74.759,28.462 73.179,27.559 71.485,26.88ZM92.576,29.519L89.538,29.519L89.556,30.967L89.582,32.424L92.532,32.424L92.559,30.967L92.576,29.519ZM14.511,26.597C14.484,26.659 14.475,27.33 14.484,28.089L14.511,29.475L16.012,29.501L17.505,29.519L17.487,28.027L17.46,26.525L16.003,26.499C14.868,26.481 14.538,26.499 14.511,26.597ZM104.552,23.442L101.514,23.442L101.514,26.481L103.015,26.463L104.507,26.436L104.534,24.935L104.552,23.442ZM146.512,26.436L143.652,26.436L143.625,23.46L143.607,20.493L140.569,20.493L140.569,17.454L143.607,17.454L143.625,15.997L143.652,14.55L145.082,14.505L146.512,14.46L146.539,13.075C146.548,12.315 146.574,11.636 146.601,11.574C146.628,11.484 146.986,11.466 148.094,11.484L149.55,11.511L149.55,17.409L146.583,17.436L143.607,17.454L143.607,20.493L146.583,20.511L149.55,20.537L149.55,23.397L148.076,23.442L146.601,23.487L146.557,24.961L146.512,26.436ZM53.477,26.436L50.527,26.436L50.5,25.051C50.492,24.291 50.5,23.621 50.527,23.558C50.554,23.46 50.885,23.442 52.02,23.46L53.477,23.487L53.477,26.436ZM95.526,20.493L89.538,20.493L89.538,23.442L95.526,23.442L95.526,20.493ZM47.489,23.397L44.539,23.397L44.513,20.537C44.504,18.965 44.513,17.633 44.539,17.57C44.566,17.481 45.54,17.454 49.053,17.454L53.521,17.454L53.521,20.493L50.554,20.511L47.578,20.537L47.533,21.967L47.489,23.397ZM-15.607,23.397L-21.506,23.397L-21.533,21.95L-21.55,20.493L-20.103,20.475L-18.646,20.448L-18.619,17.481L-18.601,14.505L-20.049,14.487L-21.506,14.46L-21.533,13.075C-21.542,12.315 -21.533,11.645 -21.506,11.582C-21.479,11.484 -21.157,11.466 -20.058,11.484L-18.646,11.511L-18.619,13.003L-18.601,14.505L-17.1,14.523L-15.607,14.55L-15.607,23.397ZM32.474,8.472L31.018,8.446C29.909,8.428 29.552,8.446 29.525,8.535C29.498,8.598 29.471,9.277 29.463,10.036L29.436,11.422L26.486,11.511L26.46,14.478L26.442,17.454L29.48,17.454L29.498,15.997L29.525,14.55L32.474,14.46L32.474,8.472ZM8.478,17.454L5.44,17.454L5.44,14.505L6.941,14.523L8.434,14.55L8.46,15.997L8.478,17.454ZM89.538,11.466L86.499,11.466L86.517,12.959L86.544,14.46L88.045,14.487L89.538,14.505L89.538,17.454L91.039,17.436L92.532,17.409L92.532,14.55L91.039,14.523L89.538,14.505L89.538,11.466ZM-6.581,11.422L-15.518,11.422L-15.607,8.472L-21.506,8.383L-21.533,6.926L-21.55,5.478L-17.064,5.496L-12.569,5.523L-12.479,8.383L-6.581,8.472L-6.581,11.422ZM140.524,11.422L137.664,11.422L137.664,5.523L140.64,5.496L143.607,5.478L143.607,2.44L145.064,2.458L146.512,2.485L146.539,3.977L146.557,5.478L148.058,5.496L149.55,5.523L149.55,8.383L146.601,8.383L146.574,6.926L146.557,5.478L143.607,5.478L143.589,6.926L143.563,8.383L142.088,8.428L140.613,8.472L140.569,9.947L140.524,11.422ZM77.562,-0.509L80.511,-0.509L80.511,5.478L77.562,5.478L77.544,6.926L77.517,8.383L74.568,8.383L74.568,5.523L76.07,5.496L77.562,5.478L77.562,-0.509L74.523,-0.509L74.523,-3.548L77.562,-3.548L77.562,-0.509ZM68.518,-2.047L68.536,2.44L64.049,2.422L59.554,2.395L59.527,-1.984C59.518,-4.397 59.527,-6.417 59.554,-6.479C59.581,-6.569 60.528,-6.587 64.04,-6.569L68.491,-6.542L68.518,-2.047ZM23.448,-0.554L20.499,-0.554L20.472,-2.056L20.454,-3.548L18.997,-3.53L17.549,-3.503L17.505,-2.029L17.46,-0.554L15.968,-0.527L14.466,-0.509L14.466,-6.587L17.442,-6.569L20.409,-6.542L20.436,-5.049L20.454,-3.548L21.955,-3.53L23.448,-3.503L23.448,-0.554ZM56.426,-0.554L56.426,-3.503L54.969,-3.53L53.521,-3.548L53.539,-2.056L53.566,-0.554L56.426,-0.554ZM95.481,-0.554L92.621,-0.554L92.594,-3.575L92.576,-6.587L94.024,-6.569L95.481,-6.542L95.481,-0.554ZM149.55,-0.554L128.638,-0.554L128.611,-10.966C128.602,-16.695 128.611,-21.431 128.638,-21.494C128.664,-21.583 130.809,-21.601 139.112,-21.583L149.55,-21.556L149.55,-0.554ZM-0.593,-0.554L-21.506,-0.554L-21.533,-10.966C-21.542,-16.695 -21.533,-21.431 -21.506,-21.494C-21.479,-21.583 -19.334,-21.601 -11.032,-21.583L-0.593,-21.556L-0.593,-0.554ZM65.452,-0.554L62.592,-0.554L62.566,-1.939C62.557,-2.699 62.566,-3.369 62.592,-3.432C62.619,-3.53 62.941,-3.548 64.04,-3.53L65.452,-3.503L65.452,-0.554ZM-3.632,-3.593L-3.632,-18.518L-11.076,-18.545C-16.984,-18.562 -18.53,-18.545 -18.557,-18.455C-18.583,-18.393 -18.592,-15.023 -18.583,-10.966L-18.557,-3.593L-3.632,-3.593ZM146.512,-3.593L146.512,-18.518L139.067,-18.545C133.16,-18.562 131.614,-18.545 131.587,-18.455C131.56,-18.393 131.551,-15.023 131.56,-10.966L131.587,-3.593L146.512,-3.593ZM119.549,-9.554L119.566,-6.587L116.599,-6.605L113.623,-6.631L113.596,-9.607L113.579,-12.575L116.546,-12.557L119.522,-12.53L119.549,-9.554ZM-6.581,-6.631L-15.518,-6.631L-15.545,-10.966C-15.554,-13.352 -15.545,-15.354 -15.518,-15.417C-15.491,-15.506 -14.544,-15.524 -11.032,-15.506L-6.581,-15.479L-6.581,-6.631ZM143.563,-6.631L134.626,-6.631L134.599,-10.966C134.59,-13.352 134.599,-15.354 134.626,-15.417C134.652,-15.506 135.6,-15.524 139.112,-15.506L143.563,-15.479L143.563,-6.631ZM65.479,-14.022L65.497,-9.536L64.049,-9.554L62.592,-9.581L62.566,-14.076L62.548,-18.562L63.996,-18.545L65.452,-18.518L65.479,-14.022ZM77.562,-15.524L76.105,-15.524C75.301,-15.524 74.613,-15.497 74.586,-15.461C74.55,-15.434 74.523,-14.773 74.523,-13.996L74.523,-12.575L73.031,-12.557L71.53,-12.53L71.53,-9.581L74.479,-9.581L74.506,-11.073L74.523,-12.575L76.025,-12.592L77.517,-12.619L77.544,-14.076L77.562,-15.524ZM53.521,-15.524L52.064,-15.524C51.26,-15.524 50.572,-15.497 50.545,-15.461C50.509,-15.434 50.483,-14.764 50.483,-13.987L50.483,-12.575L53.521,-12.575L53.521,-15.524ZM107.591,-18.562L104.552,-18.562L104.57,-15.595L104.597,-12.619L107.573,-12.592L110.54,-12.575L110.54,-15.524L115.035,-15.542L119.522,-15.568L119.522,-18.518L115.035,-18.545L110.54,-18.562L110.54,-15.524L109.092,-15.542L107.635,-15.568L107.609,-17.07L107.591,-18.562ZM11.427,-18.562L9.998,-18.562C8.907,-18.562 8.55,-18.536 8.514,-18.446C8.496,-18.384 8.487,-17.713 8.496,-16.954L8.523,-15.568L11.383,-15.568L11.41,-17.07L11.427,-18.562Z"/>
</svg>
