<?xml version="1.0" encoding="UTF-8" standalone="no"?><!DOCTYPE svg PUBLIC "-//W3C//DTD SVG 1.1//EN" "http://www.w3.org/Graphics/SVG/1.1/DTD/svg11.dtd"><svg width="100%" height="100%" viewBox="0 0 128 128" version="1.1" xmlns="http://www.w3.org/2000/svg" xmlns:xlink="http://www.w3.org/1999/xlink" xml:space="preserve" xmlns:serif="http://www.serif.com/" style="fill-rule:evenodd;clip-rule:evenodd;stroke-linejoin:round;stroke-miterlimit:1.41421;"><path d="M128,128l-128,0l0,-128l128,0l0,128Zm-25.274,-31.639c1.551,-1.307 2.767,-3.008 3.474,-4.93c0.441,-1.198 0.663,-2.448 0.712,-3.722c0.202,-15.805 0.202,-31.613 0,-47.418c-0.049,-1.274 -0.271,-2.524 -0.712,-3.722c-1.178,-3.201 -3.765,-5.788 -6.966,-6.966c-1.198,-0.441 -2.448,-0.663 -3.722,-0.712c-21.006,-0.269 -42.018,-0.269 -63.024,0c-1.274,0.049 -2.523,0.271 -3.722,0.712c-3.201,1.178 -5.788,3.765 -6.966,6.966c-0.441,1.198 -0.663,2.448 -0.712,3.722c-0.202,15.805 -0.202,31.613 0,47.418c0.049,1.274 0.271,2.524 0.712,3.722c1.178,3.201 3.765,5.788 6.966,6.966c1.199,0.441 2.448,0.663 3.722,0.712c6.849,0.088 13.699,0.147 20.549,0.177c8.859,4.675 20.023,4.68 28.856,-0.04l1.802,-0.014l1.73,-0.015l2.262,2.292c-0.5,1.884 0.019,3.951 1.337,5.439l19.749,19.75c1.114,1.003 2.794,0.985 3.889,0l8.256,-8.256c1.003,-1.114 0.985,-2.794 0,-3.889l-18.192,-18.192Zm-35.18,-50.967c14.247,0.138 27.257,12.845 27.259,27.435c0.001,6.261 -2.224,12.468 -6.179,17.346c0,0 6.573,6.632 6.573,6.632c1.16,-1.052 2.917,-1.057 4.084,0l19.69,19.69l-8.255,8.256l-19.691,-19.69c-1.051,-1.161 -1.057,-2.918 0,-4.084c0,0 -6.586,-6.674 -6.586,-6.674c-9.139,7.229 -22.803,7.736 -32.376,1.245c-9.617,-6.52 -14.378,-19.482 -10.936,-30.691c3.367,-10.967 14.042,-19.198 25.713,-19.46c0.235,-0.004 0.469,-0.005 0.704,-0.005Zm-0.315,5.776c-12.087,0.117 -22.881,11.834 -21.362,24.264c1.262,10.324 10.925,18.987 21.362,19.054c5.753,0.037 11.422,-2.335 15.547,-6.432c0.048,-0.048 0.093,-0.1 0.141,-0.149c8.198,-8.453 7.661,-23.933 -1.813,-31.765c-3.859,-3.19 -8.842,-4.988 -13.875,-4.972Zm14.28,9.236c6.182,7.396 5.49,19.554 -0.685,25.713c-3.362,3.352 -8.031,5.425 -12.786,5.606l-0.064,0l-1.383,-0.005c-7.441,-0.349 -14.432,-5.707 -17.053,-12.777c-1.996,-5.383 -1.057,-10.838 1.609,-15.275l10.613,7.43c0.292,0.185 0.577,0.351 0.904,0.47c0.856,0.311 1.812,0.311 2.668,0c0.326,-0.119 0.613,-0.285 0.904,-0.47l15.273,-10.692Zm-39.787,-3.336c-0.374,0.588 -0.726,1.188 -1.056,1.801c-5.657,10.524 -3.849,23.52 3.13,32.595c-3.704,-0.055 -7.407,-0.111 -11.11,-0.158c-0.421,-0.016 -0.832,-0.089 -1.227,-0.234c-1.041,-0.383 -1.895,-1.217 -2.304,-2.249c-0.155,-0.39 -0.238,-0.798 -0.264,-1.216c-0.506,-13.19 -0.306,-26.396 -0.11,-39.597l12.941,9.058Zm48.789,-2.965l8.811,-6.168c0.263,13.186 -0.044,26.384 -0.213,39.572c-0.016,0.421 -0.089,0.832 -0.234,1.228c-0.383,1.041 -1.218,1.895 -2.249,2.303c-0.39,0.155 -0.798,0.238 -1.216,0.265c-0.577,0.022 -1.155,0.043 -1.732,0.063l-1.437,-1.45c2.956,-4.342 4.781,-9.439 5.212,-14.666c0.653,-7.918 -2.153,-15.371 -6.942,-21.147Zm-34.107,3.719c3.115,-2.363 6.867,-3.822 10.73,-3.902c2.683,-0.036 5.339,0.524 7.763,1.588l-10.899,7.629l-7.594,-5.315Zm-9.654,-6.758l-17.449,-12.215c0.447,-0.88 1.227,-1.583 2.158,-1.925c0.436,-0.161 0.889,-0.23 1.352,-0.236c20.833,0 41.668,-0.264 62.499,0.002c0.421,0.016 0.832,0.089 1.227,0.234c0.93,0.342 1.71,1.044 2.158,1.925l-13.977,9.784c-4.993,-3.682 -10.994,-5.91 -17.155,-5.991c-7.578,-0.006 -15.157,3.186 -20.813,8.422Z" style="fill-rule:nonzero;"/></svg>