<?xml version="1.0" encoding="UTF-8" standalone="no"?>
<!DOCTYPE svg PUBLIC "-//W3C//DTD SVG 1.1//EN" "http://www.w3.org/Graphics/SVG/1.1/DTD/svg11.dtd">
<svg width="100%" height="100%" viewBox="0 0 128 128" version="1.1" xmlns="http://www.w3.org/2000/svg" xmlns:xlink="http://www.w3.org/1999/xlink" xml:space="preserve" xmlns:serif="http://www.serif.com/" style="fill-rule:evenodd;clip-rule:evenodd;stroke-linejoin:round;stroke-miterlimit:2;">
    <g id="AlertCondition" transform="matrix(0.875,0,0,0.875,8,8)">
        <path d="M137.143,137.143L-9.143,137.143L-9.143,-9.143L137.143,-9.143L137.143,137.143ZM42.434,11.936C45.232,10.777 82.768,10.777 85.566,11.936C88.364,13.094 114.906,39.637 116.065,42.434C117.223,45.232 117.223,82.768 116.065,85.566C114.906,88.364 88.364,114.906 85.566,116.065C82.768,117.223 45.232,117.223 42.434,116.065C39.637,114.906 13.094,88.364 11.936,85.566C10.777,82.768 10.777,45.232 11.936,42.434C13.095,39.637 39.637,13.094 42.434,11.936ZM45.255,18.745C47.687,17.738 80.314,17.738 82.745,18.745C85.177,19.752 108.248,42.823 109.255,45.255C110.262,47.687 110.262,80.314 109.255,82.745C108.248,85.177 85.177,108.248 82.745,109.255C80.314,110.262 47.687,110.262 45.255,109.255C42.823,108.248 19.752,85.177 18.745,82.745C17.738,80.314 17.738,47.687 18.745,45.255C19.752,42.823 42.823,19.752 45.255,18.745ZM78.044,97.906C71.32,104.083 65.685,108.602 64,108.602C62.314,108.602 56.68,104.083 49.956,97.906C58.721,98.278 69.279,98.278 78.044,97.906ZM64,40.779C76.825,40.779 87.221,51.175 87.221,64C87.221,76.825 76.825,87.221 64,87.221C51.175,87.221 40.779,76.825 40.779,64C40.779,51.175 51.175,40.779 64,40.779ZM64,46.442C73.69,46.442 81.557,54.31 81.557,64C81.557,73.69 73.69,81.557 64,81.557C54.31,81.557 46.442,73.69 46.442,64C46.442,54.31 54.31,46.442 64,46.442ZM30.094,49.956C29.722,58.72 29.722,69.279 30.094,78.044C23.917,71.32 19.398,65.685 19.398,64C19.398,62.314 23.917,56.68 30.094,49.956ZM97.906,49.956C104.083,56.68 108.602,62.314 108.602,64C108.602,65.685 104.083,71.32 97.906,78.044C98.278,69.279 98.278,58.72 97.906,49.956ZM49.956,30.094C56.68,23.917 62.314,19.398 64,19.398C65.685,19.398 71.32,23.917 78.044,30.094C69.279,29.722 58.721,29.722 49.956,30.094Z"/>
    </g>
</svg>
