<?xml version="1.0" encoding="UTF-8" standalone="no"?>
<!DOCTYPE svg PUBLIC "-//W3C//DTD SVG 1.1//EN" "http://www.w3.org/Graphics/SVG/1.1/DTD/svg11.dtd">
<svg width="100%" height="100%" viewBox="0 0 128 128" version="1.1" xmlns="http://www.w3.org/2000/svg" xmlns:xlink="http://www.w3.org/1999/xlink" xml:space="preserve" xmlns:serif="http://www.serif.com/" style="fill-rule:evenodd;clip-rule:evenodd;stroke-linejoin:round;stroke-miterlimit:1.41421;">
    <path id="CommDecoding" d="M128,128L0,128L0,0L128,0L128,128ZM96.394,31.581C104.071,39.622 108.787,50.512 108.787,62.496C108.787,87.215 88.719,107.283 64,107.283C60.354,107.283 56.809,106.847 53.415,106.023L57.836,98.365C59.84,98.707 61.899,98.886 64,98.886C84.084,98.886 100.39,82.58 100.39,62.496C100.39,53.653 97.229,45.542 91.976,39.234L96.394,31.581ZM41.476,86.647C45.099,90.028 49.482,92.604 54.34,94.089L47.205,106.997L34.334,99.566L41.476,86.647ZM31.606,93.411C23.929,85.37 19.213,74.48 19.213,62.496C19.213,37.777 39.281,17.709 64,17.709C67.646,17.709 71.191,18.145 74.585,18.969L70.164,26.627C68.16,26.285 66.101,26.106 64,26.106C43.916,26.106 27.61,42.412 27.61,62.496C27.61,71.339 30.771,79.45 36.024,85.758L31.606,93.411ZM64,34.504C79.449,34.504 91.992,47.047 91.992,62.496C91.992,77.945 79.449,90.488 64,90.488C48.551,90.488 36.008,77.945 36.008,62.496C36.008,47.047 48.551,34.504 64,34.504ZM64,42.902C74.814,42.902 83.594,51.682 83.594,62.496C83.594,73.31 74.814,82.09 64,82.09C53.186,82.09 44.406,73.31 44.406,62.496C44.406,51.682 53.186,42.902 64,42.902ZM76.011,68.569L57.927,50.485L51.989,56.423L70.073,74.507L76.011,68.569ZM73.66,30.903L84.159,12.717L97.03,20.148L86.524,38.345C82.901,34.964 78.518,32.388 73.66,30.903Z"/>
</svg>
