<?xml version="1.0" encoding="UTF-8" standalone="no"?>
<!DOCTYPE svg PUBLIC "-//W3C//DTD SVG 1.1//EN" "http://www.w3.org/Graphics/SVG/1.1/DTD/svg11.dtd">
<svg width="100%" height="100%" viewBox="0 0 128 128" version="1.1" xmlns="http://www.w3.org/2000/svg" xmlns:xlink="http://www.w3.org/1999/xlink" xml:space="preserve" xmlns:serif="http://www.serif.com/" style="fill-rule:evenodd;clip-rule:evenodd;stroke-linejoin:round;stroke-miterlimit:1.41421;">
    <path id="Sensors" d="M128,128L0,128L0,0L128,0L128,128ZM95.679,33.191L96.786,34.359C96.806,34.388 96.826,34.417 96.845,34.446L97.066,34.757C97.092,34.832 97.116,34.908 97.138,34.984C97.232,35.22 97.282,35.467 97.259,35.723C97.25,35.824 97.228,35.922 97.197,36.018C97.182,36.079 97.163,36.139 97.14,36.198C97.103,36.294 97.049,36.382 96.994,36.469C96.964,36.525 96.933,36.579 96.902,36.634L68.664,73.326L71.052,75.713C71.116,75.782 71.134,75.798 71.192,75.872C71.609,76.404 71.675,77.175 71.364,77.767C71.295,77.899 71.275,77.955 71.052,78.192L68.581,80.663L76.987,89.408L79.627,86.768C79.702,86.698 79.719,86.679 79.8,86.617C80.289,86.241 80.972,86.154 81.537,86.388C81.687,86.45 81.75,86.466 82.022,86.69L82.106,86.768L83.743,88.405L99.788,72.361C99.38,71.679 99.475,70.763 100.029,70.195L100.164,70.061C100.75,69.489 101.663,69.421 102.329,69.819L105.839,66.31L105.853,66.296L105.853,66.296L105.854,66.295C105.952,66.199 106.059,66.117 106.172,66.048C106.212,66.021 106.253,65.995 106.297,65.973C106.627,65.805 107.001,65.746 107.367,65.804C107.547,65.832 107.714,65.917 107.888,65.973C107.935,66.008 107.983,66.042 108.03,66.078C108.132,66.143 108.228,66.221 108.317,66.31C108.327,66.32 108.337,66.33 108.347,66.341C108.47,66.458 108.577,66.588 108.654,66.739C108.9,67.223 108.908,67.833 108.654,68.331C108.632,68.374 108.607,68.415 108.579,68.455C108.511,68.568 108.428,68.675 108.332,68.774L108.332,68.774L108.332,68.774C108.327,68.779 108.322,68.784 108.317,68.789L104.808,72.298C105.216,72.979 105.121,73.896 104.567,74.464L104.432,74.598C103.846,75.17 102.933,75.235 102.267,74.839L86.222,90.884L87.86,92.521C87.929,92.596 87.949,92.613 88.011,92.694C88.41,93.214 88.479,93.953 88.192,94.536C88.121,94.681 88.1,94.743 87.86,95L74.526,108.334C74.452,108.403 74.434,108.423 74.354,108.485C73.833,108.884 73.094,108.954 72.511,108.666C72.367,108.595 72.304,108.575 72.047,108.334L70.41,106.696L68.936,108.17C68.252,108.854 67.141,108.854 66.457,108.17C65.773,107.486 65.773,106.376 66.457,105.691L67.931,104.218L66.294,102.58C66.224,102.506 66.205,102.489 66.143,102.408C65.744,101.888 65.674,101.148 65.961,100.566C66.033,100.421 66.053,100.359 66.294,100.102L66.815,99.581L51.532,91.914L46.344,97.102C45.66,97.786 44.549,97.786 43.865,97.102C43.181,96.418 43.181,95.308 43.865,94.624L48.23,90.258L47.463,89.873L44.085,90.115C43.65,90.084 43.517,90.121 43.122,89.906C42.976,89.826 42.856,89.707 42.723,89.608L42.677,89.562L40.807,87.701L40.674,87.568L40.558,87.452L40.556,87.449L40.551,87.444L40.548,87.442L38.735,85.621L38.343,85.228L38.212,85.052C38.194,85.029 38.177,85.006 38.16,84.983L38.046,84.829C37.873,84.364 37.872,84.361 37.837,83.866L38.078,80.488L37.726,79.786L33.376,84.135C32.692,84.819 31.582,84.819 30.898,84.135C30.214,83.451 30.214,82.34 30.898,81.656L36.07,76.485L28.403,61.201L27.898,61.706C27.641,61.947 27.579,61.967 27.434,62.039C26.852,62.326 26.112,62.256 25.592,61.857C25.511,61.795 25.494,61.776 25.42,61.706L23.782,60.069L22.309,61.543C21.624,62.227 20.514,62.227 19.83,61.543C19.146,60.859 19.146,59.748 19.83,59.064L21.304,57.59L19.666,55.953C19.425,55.696 19.405,55.633 19.334,55.489C19.046,54.906 19.116,54.167 19.515,53.646C19.577,53.566 19.597,53.548 19.666,53.474L33,40.14C33.257,39.9 33.319,39.879 33.464,39.808C34.047,39.521 34.786,39.59 35.306,39.989C35.387,40.051 35.404,40.071 35.479,40.14L37.116,41.778L53.161,25.733C52.765,25.067 52.83,24.154 53.402,23.568L53.536,23.433C54.104,22.879 55.021,22.784 55.702,23.192L59.211,19.683C59.216,19.678 59.221,19.673 59.226,19.668L59.226,19.668L59.226,19.668C59.325,19.572 59.432,19.489 59.545,19.421C59.585,19.393 59.626,19.368 59.669,19.346C60.167,19.092 60.777,19.1 61.261,19.346C61.412,19.423 61.542,19.53 61.659,19.653C61.67,19.663 61.68,19.673 61.69,19.683C61.779,19.772 61.857,19.868 61.922,19.97C61.958,20.017 61.992,20.065 62.027,20.112C62.083,20.286 62.168,20.453 62.196,20.633C62.254,20.999 62.195,21.373 62.027,21.703C62.005,21.747 61.979,21.788 61.952,21.828C61.883,21.941 61.801,22.048 61.705,22.146L61.704,22.147L61.704,22.147L61.69,22.161L58.181,25.671C58.579,26.337 58.511,27.25 57.939,27.836L57.805,27.971C57.237,28.525 56.321,28.62 55.639,28.212L39.595,44.257L41.232,45.894L41.31,45.978C41.534,46.25 41.55,46.313 41.612,46.463C41.846,47.028 41.759,47.711 41.383,48.2C41.321,48.281 41.302,48.298 41.232,48.373L38.593,51.012L47.338,59.418L49.808,56.948C50.045,56.725 50.101,56.705 50.233,56.636C50.825,56.325 51.596,56.391 52.128,56.808C52.202,56.866 52.218,56.884 52.287,56.948L54.625,59.287L91.317,31.049C91.606,30.886 91.902,30.722 92.229,30.692C92.719,30.648 93.178,30.872 93.592,31.166L94.753,32.265L94.96,32.433L95.229,32.717L95.513,32.986L95.679,33.191ZM73.287,104.616L84.141,93.761L80.867,90.486L70.012,101.341L73.287,104.616ZM72.641,101.184C72.642,101.185 72.642,101.187 72.641,101.188L72.637,101.191C72.636,101.193 72.635,101.193 72.634,101.191L72.588,101.146C72.587,101.145 72.587,101.144 72.588,101.142L72.592,101.139C72.593,101.138 72.595,101.138 72.596,101.139L72.641,101.184ZM66.102,83.142L59.558,89.686C59.489,89.75 59.474,89.768 59.399,89.826C58.894,90.222 58.177,90.305 57.599,90.045C57.422,89.965 57.331,89.923 57.079,89.686L55.419,88.026L54.145,89.301L69.391,96.948L74.354,91.727L66.102,83.142ZM66.159,70.821L93.205,35.678L92.96,35.396C92.89,35.33 92.82,35.263 92.749,35.196L92.466,34.927L92.268,34.74L84.218,40.936L83.844,41.31L57.174,61.835L58.042,62.704L58.115,62.781C58.323,63.031 58.34,63.088 58.401,63.224C58.662,63.803 58.577,64.522 58.183,65.025C58.125,65.099 58.107,65.115 58.042,65.183L46.549,76.677C46.312,76.9 46.256,76.92 46.124,76.989C45.53,77.301 44.76,77.234 44.228,76.817C44.154,76.759 44.138,76.741 44.07,76.677L42.452,75.059L40.354,77.158L41.476,79.395C41.628,79.837 41.628,79.84 41.657,80.306L41.439,83.369L41.482,83.412L41.612,83.542L41.612,83.542L42.73,84.667L43.286,85.221L44.626,86.556L47.689,86.337L48.156,86.367L48.599,86.519L50.844,87.645L52.941,85.548L51.323,83.93C51.259,83.862 51.241,83.846 51.183,83.772C50.766,83.24 50.699,82.47 51.011,81.876C51.08,81.744 51.1,81.688 51.323,81.451L62.817,69.958C62.885,69.893 62.901,69.875 62.975,69.817C63.478,69.423 64.197,69.338 64.776,69.599C64.912,69.66 64.969,69.677 65.219,69.885L65.296,69.958L66.159,70.821ZM58.318,85.968L67.334,76.953L64.056,73.676L55.041,82.691L58.318,85.968ZM44.858,61.898L36.267,53.641L31.046,58.604L38.698,73.857L39.974,72.581L38.314,70.921C38.077,70.669 38.035,70.578 37.955,70.401C37.695,69.823 37.778,69.106 38.174,68.601C38.232,68.526 38.25,68.511 38.314,68.442L44.858,61.898ZM54.324,63.944L51.047,60.666L42.032,69.682L45.309,72.959L54.324,63.944ZM29.603,55.044L37.514,47.133L34.239,43.859L23.384,54.713L26.659,57.988L27.315,57.332C27.329,57.306 27.344,57.281 27.359,57.256C27.438,57.129 27.547,57.025 27.641,56.91L29.603,55.044ZM26.854,55.412L26.809,55.366C26.807,55.365 26.807,55.364 26.809,55.363L26.812,55.359C26.814,55.358 26.815,55.358 26.816,55.359L26.861,55.404C26.862,55.405 26.862,55.407 26.861,55.408L26.858,55.412C26.857,55.413 26.855,55.413 26.854,55.412Z"/>
</svg>
