<?xml version="1.0" encoding="UTF-8" standalone="no"?><!DOCTYPE svg PUBLIC "-//W3C//DTD SVG 1.1//EN" "http://www.w3.org/Graphics/SVG/1.1/DTD/svg11.dtd"><svg width="100%" height="100%" viewBox="0 0 128 128" version="1.1" xmlns="http://www.w3.org/2000/svg" xmlns:xlink="http://www.w3.org/1999/xlink" xml:space="preserve" xmlns:serif="http://www.serif.com/" style="fill-rule:evenodd;clip-rule:evenodd;stroke-linejoin:round;stroke-miterlimit:1.41421;"><path d="M128,128l-128,0l0,-128l128,0l0,128Zm-82.368,-45.13c-0.084,0.585 0.014,1.187 0.294,1.704c-6.824,-1.234 -12.81,-3.24 -16.926,-6.074l0,16.071c0,6.295 15.677,11.429 35,11.429c19.323,0 35,-5.134 35,-11.429l0,-16.071c-3.732,2.57 -9,4.458 -15.038,5.708c0.703,-1.581 0.446,-3.447 -0.831,-4.725l-0.311,-0.279c9.728,-2.034 16.18,-5.594 16.18,-9.633l0,-16.071c-2.682,1.847 -6.158,3.342 -10.143,4.501c-0.313,-0.152 -0.619,-0.359 -0.888,-0.628c-0.338,-0.374 -0.537,-0.817 -0.658,-1.286c-0.078,-0.813 -0.042,-1.624 -0.235,-2.197c-0.015,-0.252 -0.036,-0.491 -0.072,-0.712c7.35,-2.097 11.996,-5.18 11.996,-8.607l0,-7.142c0,-6.295 -15.677,-11.429 -35,-11.429c-19.323,0 -35,5.134 -35,11.429l0,7.142c0,2.967 3.482,5.676 9.188,7.711l-0.221,0.353c0,0 -0.134,2.515 1.19,5.043c0.052,0.124 0.107,0.249 0.165,0.375c-4.06,-1.166 -7.6,-2.678 -10.322,-4.553l0,16.071c0,4.235 7.095,7.944 17.622,9.919l-0.494,0.459c-0.788,0.788 -0.954,1.991 -0.496,2.921Zm35.499,-3.387c1.663,1.663 1.597,4.325 -0.067,6.055c-1.73,1.663 -4.391,1.663 -6.055,-0.067l-10.712,-11.311l-9.981,12.043c-0.931,0.998 -2.594,0.998 -3.593,0l-2.595,-2.662c-0.998,-0.931 -0.998,-2.594 0,-3.592l11.445,-10.646l-5.523,-5.323c-1.797,-1.73 -2.861,-2.263 -4.325,-1.797c-1.464,0.532 -3.526,0.532 -5.456,-0.732c-4.125,-2.661 -3.859,-7.652 -3.859,-7.652l0.332,-0.532c0,0 3.727,2.395 4.192,2.662c0.599,0.465 2.662,1.397 4.525,-1.464c1.93,-2.861 0.333,-4.658 -0.2,-4.991c-0.465,-0.266 -4.192,-2.728 -4.192,-2.728l0.333,-0.532c0,0 4.325,-2.196 8.384,0.2c0,0.133 0.998,0.732 1.397,1.064c2.595,2.329 2.595,4.924 2.129,7.053c-0.399,1.93 0,2.595 1.53,4.259l5.523,5.522l6.587,-6.72l4.791,4.924l-6.321,6.454l11.711,10.513Zm-12.452,1.415l4.33,4.573c0.082,0.085 0.166,0.166 0.252,0.242c-3.04,0.252 -6.152,0.376 -9.261,0.376c-2.475,0 -4.951,-0.078 -7.392,-0.238l4.063,-4.902c1.096,0.034 2.206,0.051 3.329,0.051c1.586,0 3.148,-0.035 4.679,-0.102Zm10.922,-0.018c-0.866,-0.865 -2.263,-0.865 -3.195,0c-0.798,0.865 -0.798,2.329 0,3.127c0.932,0.865 2.329,0.998 3.195,0.067c0.864,-0.798 0.864,-2.329 0,-3.194Zm11.444,-18.231l-3.593,3.659c-0.732,0.732 -1.864,0.732 -2.662,0l-0.798,-0.865c-0.599,-0.532 -0.865,-1.53 -0.533,-1.996c0.599,-0.399 0.4,-1.597 -0.731,-2.661c-1.597,-1.664 -3.66,-1.73 -4.458,-0.865c-0.333,0.266 -1.397,1.397 -1.397,1.397l-4.924,-4.857l0.798,-0.799c0,0 0.2,-0.199 0.599,-0.665c1.53,-1.53 -0.067,-3.26 -0.067,-3.26c-4.325,-4.259 -10.379,-4.192 -10.379,-4.192l-0.067,-1.531c12.177,-3.127 16.768,2.196 18.431,3.86c1.53,1.53 3.127,3.127 3.527,3.526c0.865,0.865 0,3.327 1.264,4.724c0.599,0.599 1.397,0.865 1.996,0.865c0.665,-0.599 1.73,-0.399 2.262,0.2l0.732,0.798c0.732,0.732 0.732,1.863 0,2.662Zm-21.096,-6.188l-0.999,1.131l-3.417,3.487c-0.511,0.007 -1.022,0.01 -1.533,0.01c-0.288,0 -0.576,-0.001 -0.864,-0.003l-2.296,-2.296c-1.106,-1.203 -1.621,-1.884 -1.671,-2.899c1.579,0.072 3.192,0.109 4.831,0.109c2.261,0 4.472,-0.07 6.614,-0.205l-0.665,0.666Z"/></svg>