<?xml version="1.0" encoding="UTF-8" standalone="no"?>
<!DOCTYPE svg PUBLIC "-//W3C//DTD SVG 1.1//EN" "http://www.w3.org/Graphics/SVG/1.1/DTD/svg11.dtd">
<svg width="100%" height="100%" viewBox="0 0 128 128" version="1.1" xmlns="http://www.w3.org/2000/svg" xmlns:xlink="http://www.w3.org/1999/xlink" xml:space="preserve" xmlns:serif="http://www.serif.com/" style="fill-rule:evenodd;clip-rule:evenodd;stroke-linejoin:round;stroke-miterlimit:1.41421;">
    <path d="M141,146L-24,146L-24,-20L141,-20L141,146ZM78.219,24.188L49.781,24.188C45.069,24.188 41.25,28.007 41.25,32.719L41.25,41.25L27.031,41.25C22.319,41.25 18.5,45.07 18.5,49.781L18.5,64L63.015,64L55.348,75.375L54.758,75.375C53.58,75.375 52.625,74.42 52.625,73.242L52.625,69.688L18.5,69.688L18.5,95.281C18.5,99.993 22.32,103.813 27.031,103.813L100.969,103.813C105.681,103.812 109.5,99.993 109.5,95.281L109.5,69.688L75.375,69.688L75.375,73.242C75.375,74.42 74.421,75.375 73.242,75.375L68.712,75.375L75.121,64L109.5,64L109.5,49.781C109.5,45.07 105.681,41.25 100.969,41.25L86.75,41.25L86.75,32.719C86.75,28.007 82.931,24.188 78.219,24.188ZM88.54,55.055C86.152,55.055 84.063,53.628 82.272,50.776C80.348,49.516 77.529,47.957 73.814,46.1L72.521,46C65.224,46.531 60.713,48.355 58.988,51.473C59.055,51.407 59.154,51.34 59.287,51.274C61.476,50.345 64.096,50.113 67.148,50.577C70.597,51.108 71.592,52.501 70.133,54.756L46.949,91.572C46.551,92.301 46.882,92.965 47.944,93.562L53.317,96.646C54.378,97.243 55.141,97.177 55.605,96.447L75.207,59.134C76.401,58.007 77.595,57.559 78.789,57.791C79.983,58.023 81.028,58.537 81.924,59.333C82.819,60.129 83.267,60.826 83.267,61.423C84.461,62.351 85.672,62.501 86.899,61.871C88.126,61.24 88.972,60.146 89.436,58.587C89.9,57.028 89.602,55.851 88.54,55.055ZM75.375,41.25L52.625,41.25L52.625,35.563L75.375,35.563L75.375,41.25Z" style="fill:rgb(1,0,2);fill-rule:nonzero;"/>
</svg>
