<?xml version="1.0" encoding="UTF-8" standalone="no"?><!DOCTYPE svg PUBLIC "-//W3C//DTD SVG 1.1//EN" "http://www.w3.org/Graphics/SVG/1.1/DTD/svg11.dtd"><svg width="100%" height="100%" viewBox="0 0 128 128" version="1.1" xmlns="http://www.w3.org/2000/svg" xmlns:xlink="http://www.w3.org/1999/xlink" xml:space="preserve" xmlns:serif="http://www.serif.com/" style="fill-rule:evenodd;clip-rule:evenodd;stroke-linejoin:round;stroke-miterlimit:1.41421;"><g id="Crystal"><g><path id="Layer1" d="M128,128l-128,0l0,-128l128,0l0,128Zm-25.843,-74.631c0.391,0.271 0.633,0.396 0.919,1.214l9.806,34.793c0.273,1.309 -0.582,2.593 -1.926,2.803l-31.457,2.689l-15.364,-3.821l-0.369,-0.168l-27.495,-16.005c-0.323,-0.219 -0.408,-0.235 -0.759,-0.774l-20.29,-36.263c-0.578,-1.233 0.003,-2.708 1.343,-3.189l34.897,-9.82c1.012,-0.215 1.125,-0.038 1.599,0.195l32.05,18.503l3.936,1.915c4.37,2.643 8.74,5.285 13.11,7.928Zm-2.586,35.278l-17.111,-3.097l-0.003,0.005l-0.013,-0.008l-0.007,-0.002l0,-0.002l-39.676,-23.852l-2.949,9.983l25.91,15.083l14.833,3.503l19.016,-1.613Zm-56.13,-29.257l39.856,23.959l24.485,4.433l-0.109,-0.388l-15.843,-18.088l-43.626,-25.125l-1.325,4.185l-2.155,-0.647l1.335,-4.218l-23.617,-4.169l19.128,18.449l0.979,-3.314l2.168,0.604l-1.276,4.319Zm62.773,22.825l-7.159,-25.408l-12.352,-7.471c-1.407,-0.939 -2.494,-1.224 -3.791,-1.83l-30.235,-17.456l-3.756,11.864l44.429,25.587l-0.01,0.016l12.874,14.698Zm-68.108,-12.71l2.724,-9.218l-17.118,-16.509l14.394,25.727Zm-14.234,-32.27l22.892,4.041l3.642,-11.507l-26.534,7.466Z"/></g></g></svg>