<?xml version="1.0" encoding="UTF-8" standalone="no"?>
<!DOCTYPE svg PUBLIC "-//W3C//DTD SVG 1.1//EN" "http://www.w3.org/Graphics/SVG/1.1/DTD/svg11.dtd">
<svg width="100%" height="100%" viewBox="0 0 128 128" version="1.1" xmlns="http://www.w3.org/2000/svg" xmlns:xlink="http://www.w3.org/1999/xlink" xml:space="preserve" xmlns:serif="http://www.serif.com/" style="fill-rule:evenodd;clip-rule:evenodd;stroke-linejoin:round;stroke-miterlimit:2;">
    <path d="M128,0L128,128L0,128L0,0L128,0ZM68.438,47.359L68.438,28.5L40.703,28.5C38.859,28.5 37.375,29.984 37.375,31.828L37.375,96.172C37.375,98.016 38.859,99.5 40.703,99.5L87.297,99.5C89.141,99.5 90.625,98.016 90.625,96.172L90.625,50.688L71.766,50.688C69.935,50.688 68.438,49.19 68.438,47.359ZM81.75,89.516C81.75,90.129 81.254,90.625 80.641,90.625L69.547,90.625C68.934,90.625 68.438,90.129 68.438,89.516L68.438,87.297C68.438,86.684 68.934,86.188 69.547,86.188L80.641,86.188C81.254,86.188 81.75,86.684 81.75,87.297L81.75,89.516ZM81.75,61.781L81.75,75.094C81.75,76.32 80.757,77.313 79.531,77.313L48.469,77.313C47.243,77.313 46.25,76.32 46.25,75.094L46.25,61.781C46.25,60.555 47.243,59.563 48.469,59.563L79.531,59.563C80.757,59.563 81.75,60.555 81.75,61.781ZM77.313,64L50.688,64L50.688,72.875L77.313,72.875L77.313,64ZM46.25,47.359C46.25,46.746 46.746,46.25 47.359,46.25L58.453,46.25C59.066,46.25 59.563,46.746 59.563,47.359L59.563,49.578C59.563,50.191 59.066,50.688 58.453,50.688L47.359,50.688C46.746,50.688 46.25,50.191 46.25,49.578L46.25,47.359ZM89.654,43.061L76.078,29.471C75.454,28.847 74.608,28.5 73.721,28.5L72.875,28.5L72.875,46.25L90.625,46.25L90.625,45.404C90.625,44.53 90.278,43.685 89.654,43.061ZM46.25,38.484C46.25,37.871 46.746,37.375 47.359,37.375L58.453,37.375C59.066,37.375 59.563,37.871 59.563,38.484L59.563,40.703C59.563,41.316 59.066,41.813 58.453,41.813L47.359,41.813C46.746,41.813 46.25,41.316 46.25,40.703L46.25,38.484Z"/>
</svg>
