<?xml version="1.0" encoding="UTF-8" standalone="no"?>
<!DOCTYPE svg PUBLIC "-//W3C//DTD SVG 1.1//EN" "http://www.w3.org/Graphics/SVG/1.1/DTD/svg11.dtd">
<svg width="100%" height="100%" viewBox="0 0 128 128" version="1.1" xmlns="http://www.w3.org/2000/svg" xmlns:xlink="http://www.w3.org/1999/xlink" xml:space="preserve" xmlns:serif="http://www.serif.com/" style="fill-rule:evenodd;clip-rule:evenodd;stroke-linejoin:round;stroke-miterlimit:2;">
    <g transform="matrix(1.37727,0,0,1.37727,0.217161,-1.42055)">
        <path d="M54.908,54.757C54.3,58.853 50.764,62 46.5,62C42.236,62 38.7,58.853 38.092,54.757L37.226,54.757C36.577,54.757 36.051,55.284 36.051,55.933L36.051,57L32.551,57L32.551,55.933C32.551,53.352 34.646,51.257 37.226,51.257L38,51.257L38,46.5C38,46.332 38.005,46.165 38.015,46L37.226,46C34.646,46 32.551,43.905 32.551,41.324L32.551,40.257L36.051,40.257L36.051,41.324C36.051,41.973 36.577,42.5 37.226,42.5L38.999,42.5C39.881,40.853 41.288,39.529 42.997,38.754C42.19,37.899 41.695,36.745 41.695,35.477L41.695,33L45.195,33L45.195,35.477C45.195,36.183 45.768,36.757 46.475,36.757C47.181,36.757 47.754,36.183 47.754,35.477L47.754,33L51.254,33L51.254,35.477C51.254,36.737 50.765,37.884 49.967,38.738C51.692,39.511 53.114,40.842 54.001,42.5L55.324,42.5C55.973,42.5 56.5,41.973 56.5,41.324L56.5,40.257L60,40.257L60,41.324C60,43.905 57.905,46 55.324,46L54.985,46C54.995,46.165 55,46.332 55,46.5L55,51.257L55.324,51.257C57.905,51.257 60,53.352 60,55.933L60,57L56.5,57L56.5,55.933C56.5,55.284 55.973,54.757 55.324,54.757L54.908,54.757ZM51.5,50.06L41.5,50.06L41.5,53.5C41.5,56.26 43.74,58.5 46.5,58.5C49.26,58.5 51.5,56.26 51.5,53.5L51.5,50.06ZM51.475,46C51.224,43.475 49.091,41.5 46.5,41.5C43.909,41.5 41.776,43.475 41.525,46L51.475,46Z"/>
    </g>
    <path id="CommDecoding" d="M128,128L0,128L0,0L128,0L128,128ZM90.288,99.847L86.305,99.847L86.305,111L90.288,111L90.288,99.847ZM79.932,99.847L75.949,99.847L75.949,111L79.932,111L79.932,99.847ZM70.373,99.847L66.39,99.847L66.39,111L70.373,111L70.373,99.847ZM60.814,99.847L56.831,99.847L56.831,111L60.814,111L60.814,99.847ZM51.254,99.847L47.271,99.847L47.271,111L51.254,111L51.254,99.847ZM41.695,99.847L37.712,99.847L37.712,111L41.695,111L41.695,99.847ZM90.27,30.543C72.757,30.432 55.243,30.432 37.73,30.543C33.924,30.615 30.615,33.967 30.543,37.73C30.432,55.243 30.432,72.757 30.543,90.27C30.615,94.079 33.975,97.386 37.73,97.457C55.243,97.568 72.757,97.568 90.27,97.457C94.076,97.385 97.385,94.033 97.457,90.27C97.568,72.757 97.568,55.243 97.457,37.73C97.385,33.923 94.033,30.614 90.27,30.543ZM37.84,35.542C55.295,35.542 72.751,35.432 90.207,35.543C91.426,35.566 92.458,36.68 92.458,37.84C92.458,55.295 92.568,72.751 92.457,90.207C92.434,91.426 91.32,92.458 90.16,92.458C72.705,92.458 55.249,92.569 37.794,92.457C36.574,92.434 35.542,91.318 35.542,90.16C35.542,72.694 35.211,55.225 35.543,37.763C35.581,36.573 36.638,35.55 37.84,35.542ZM28.153,87.102L17,87.102L17,91.085L28.153,91.085L28.153,87.102ZM111,87.102L99.847,87.102L99.847,91.085L111,91.085L111,87.102ZM89.885,51.154C89.885,44.175 84.218,38.508 77.239,38.508L50.663,38.508C43.683,38.508 38.017,44.175 38.017,51.154L38.017,76.447C38.017,83.427 43.683,89.093 50.663,89.093L77.239,89.093C84.218,89.093 89.885,83.427 89.885,76.447L89.885,51.154ZM111,76.746L99.847,76.746L99.847,80.729L111,80.729L111,76.746ZM28.153,76.746L17,76.746L17,80.729L28.153,80.729L28.153,76.746ZM111,67.186L99.847,67.186L99.847,71.169L111,71.169L111,67.186ZM28.153,67.186L17,67.186L17,71.169L28.153,71.169L28.153,67.186ZM28.153,57.627L17,57.627L17,61.61L28.153,61.61L28.153,57.627ZM111,57.627L99.847,57.627L99.847,61.61L111,61.61L111,57.627ZM111,48.068L99.847,48.068L99.847,52.051L111,52.051L111,48.068ZM28.153,48.068L17,48.068L17,52.051L28.153,52.051L28.153,48.068ZM28.153,38.508L17,38.508L17,42.491L28.153,42.491L28.153,38.508ZM111,38.508L99.847,38.508L99.847,42.491L111,42.491L111,38.508ZM41.695,17L37.712,17L37.712,28.152L41.695,28.152L41.695,17ZM90.288,17L86.305,17L86.305,28.152L90.288,28.152L90.288,17ZM79.932,17L75.949,17L75.949,28.152L79.932,28.152L79.932,17ZM70.373,17L66.39,17L66.39,28.152L70.373,28.152L70.373,17ZM60.814,17L56.831,17L56.831,28.152L60.814,28.152L60.814,17ZM51.254,17L47.271,17L47.271,28.152L51.254,28.152L51.254,17Z"/>
</svg>
