<?xml version="1.0" standalone="no"?>
<!DOCTYPE svg PUBLIC "-//W3C//DTD SVG 20010904//EN"
 "http://www.w3.org/TR/2001/REC-SVG-20010904/DTD/svg10.dtd">
<svg version="1.0" xmlns="http://www.w3.org/2000/svg"
 width="64.000000pt" height="64.000000pt" viewBox="0 0 64.000000 64.000000"
 preserveAspectRatio="xMidYMid meet">

<g transform="translate(0.000000,64.000000) scale(0.100000,-0.100000)"
fill="#000000" stroke="none">
<path d="M0 320 l0 -320 320 0 320 0 0 320 0 320 -320 0 -320 0 0 -320z m274
201 l51 -30 50 31 50 31 62 -33 63 -34 0 -75 0 -76 -50 -27 -50 -28 0 -64 c0
-70 1 -69 -76 -111 l-50 -28 -60 35 -59 34 -3 67 -3 66 -54 31 -55 31 0 72 0
72 53 32 c28 17 58 32 66 32 7 1 37 -12 65 -28z"/>
<path d="M163 494 c-43 -25 -43 -26 -43 -82 l0 -57 48 -27 48 -27 47 30 c47
29 47 29 47 83 0 53 -1 54 -44 80 -25 14 -48 26 -53 26 -4 0 -27 -12 -50 -26z"/>
<path d="M383 494 c-43 -25 -43 -26 -43 -83 l0 -58 48 -26 47 -26 48 30 c46
28 47 30 47 79 0 49 -1 51 -47 80 -26 17 -49 30 -52 30 -4 0 -25 -12 -48 -26z"/>
<path d="M277 303 l-47 -26 0 -58 0 -57 47 -27 47 -26 46 25 c44 24 45 26 48
80 3 59 5 57 -83 108 -6 4 -32 -5 -58 -19z"/>
</g>
</svg>
