<?xml version="1.0" encoding="UTF-8" standalone="no"?>
<!DOCTYPE svg PUBLIC "-//W3C//DTD SVG 1.1//EN" "http://www.w3.org/Graphics/SVG/1.1/DTD/svg11.dtd">
<svg width="100%" height="100%" viewBox="0 0 128 128" version="1.1" xmlns="http://www.w3.org/2000/svg" xmlns:xlink="http://www.w3.org/1999/xlink" xml:space="preserve" xmlns:serif="http://www.serif.com/" style="fill-rule:evenodd;clip-rule:evenodd;stroke-linejoin:round;stroke-miterlimit:1.41421;">
    <path d="M133,136.5L-5,136.5L-5,-8.5L133,-8.5L133,136.5ZM107.497,102.5L95.524,91.522L95.524,80.544L107.497,69.566L91.031,69.566L79.057,80.544L42.458,80.544L53.436,69.566L36.969,69.566L20.503,86.033L36.969,102.5L53.436,102.5L42.458,91.522L79.057,91.522L91.031,102.5L107.497,102.5ZM91.031,58.434L107.497,41.967L91.031,25.5L74.564,25.5L85.542,36.478L48.943,36.478L36.969,25.5L20.503,25.5L32.476,36.478L32.476,47.456L20.503,58.434L36.969,58.434L48.943,47.456L85.542,47.456L74.564,58.434L91.031,58.434Z"/>
</svg>
