<?xml version="1.0" encoding="UTF-8" standalone="no"?>
<!DOCTYPE svg PUBLIC "-//W3C//DTD SVG 1.1//EN" "http://www.w3.org/Graphics/SVG/1.1/DTD/svg11.dtd">
<svg width="100%" height="100%" viewBox="0 0 128 128" version="1.1" xmlns="http://www.w3.org/2000/svg" xmlns:xlink="http://www.w3.org/1999/xlink" xml:space="preserve" xmlns:serif="http://www.serif.com/" style="fill-rule:evenodd;clip-rule:evenodd;stroke-linejoin:round;stroke-miterlimit:1.41421;">
    <path d="M141,146L-24,146L-24,-20L141,-20L141,146ZM85.639,65.724L79.926,64.777L79.926,73.911C85.988,75.14 90.555,80.521 90.555,86.931L90.555,96.231C90.555,97.493 89.658,98.589 88.412,98.838L83.065,99.901C82.351,100.051 81.653,99.586 81.504,98.855L80.989,96.247C80.84,95.533 81.305,94.819 82.035,94.686L85.241,94.039L85.241,86.914C85.241,81.999 80.773,78.112 75.675,79.092C71.888,79.823 69.298,83.377 69.298,87.23L69.298,94.039L72.503,94.686C73.217,94.836 73.682,95.533 73.549,96.247L73.034,98.855C72.885,99.569 72.187,100.034 71.473,99.901L66.292,99.204C64.98,99.021 64,97.908 64,96.563L64,86.931C64,80.521 68.567,75.156 74.629,73.911L74.629,66.072C71.374,67.501 67.786,68.331 64,68.331C59.134,68.331 54.634,66.919 50.714,64.627L50.714,82.048C54.551,83.194 57.357,86.715 57.357,90.917C57.357,96.048 53.189,100.217 48.057,100.217C42.926,100.217 38.757,96.048 38.757,90.917C38.757,86.715 41.564,83.194 45.4,82.048L45.4,65.209L42.344,65.724C33.376,67.218 26.8,74.974 26.8,84.074L26.8,100.2C26.8,103.139 29.175,105.514 32.114,105.514L95.886,105.514C98.825,105.514 101.2,103.139 101.2,100.2L101.2,84.074C101.183,74.974 94.607,67.219 85.639,65.724ZM44.055,90.9C44.055,93.109 45.832,94.886 48.041,94.886C50.249,94.886 52.026,93.109 52.026,90.9C52.026,88.691 50.249,86.914 48.041,86.914C45.832,86.914 44.055,88.691 44.055,90.9ZM63.983,63C75.725,63 85.241,53.484 85.241,41.743C85.241,30.002 75.725,20.486 63.983,20.486C52.242,20.486 42.726,30.002 42.726,41.743C42.726,53.484 52.242,63 63.983,63Z"/>
</svg>
