<?xml version="1.0" encoding="UTF-8" standalone="no"?>
<!DOCTYPE svg PUBLIC "-//W3C//DTD SVG 1.1//EN" "http://www.w3.org/Graphics/SVG/1.1/DTD/svg11.dtd">
<svg width="100%" height="100%" viewBox="0 0 128 128" version="1.1" xmlns="http://www.w3.org/2000/svg" xmlns:xlink="http://www.w3.org/1999/xlink" xml:space="preserve" xmlns:serif="http://www.serif.com/" style="fill-rule:evenodd;clip-rule:evenodd;stroke-linejoin:round;stroke-miterlimit:1.41421;">
    <path d="M141,136L-24,136L-24,-30L141,-30L141,136ZM68.5,86L68.5,75.5L59.5,75.5L59.5,86L49,86L49,95L59.5,95L59.5,105.5L68.5,105.5L68.5,95L79,95L79,86L68.5,86ZM80.498,62.002C81.174,62.028 81.848,62.071 82.52,62.158C83.995,62.348 85.448,62.705 86.844,63.22C89.561,64.223 92.05,65.824 94.098,67.872C96.146,69.92 97.747,72.407 98.75,75.125C99.265,76.522 99.622,77.975 99.812,79.45C99.899,80.122 99.941,80.795 99.968,81.472C100.004,84.307 99.974,87.144 99.974,89.981C99.962,90.298 99.937,90.604 99.864,90.914C99.692,91.627 99.322,92.288 98.803,92.807C98.507,93.104 98.164,93.353 97.791,93.543C96.266,94.319 94.36,94.019 93.149,92.807C92.854,92.511 92.605,92.168 92.414,91.795C92.224,91.422 92.093,91.02 92.028,90.605C91.984,90.33 91.989,90.259 91.979,89.981C91.979,87.212 92.01,84.444 91.975,81.677C91.924,80.383 91.699,79.113 91.248,77.895C90.035,74.606 87.364,71.935 84.075,70.722C82.857,70.272 81.587,70.046 80.293,69.995C69.428,69.856 58.56,69.856 47.695,69.995C46.4,70.046 45.131,70.272 43.912,70.722C40.624,71.935 37.953,74.606 36.739,77.895C36.289,79.113 36.063,80.383 36.013,81.677C35.978,84.444 36.009,87.212 36.009,89.981C35.999,90.259 36.004,90.33 35.96,90.605C35.894,91.02 35.764,91.422 35.573,91.795C34.796,93.321 33.077,94.197 31.386,93.928C30.972,93.864 30.569,93.732 30.196,93.543C29.823,93.353 29.48,93.104 29.185,92.807C28.666,92.288 28.295,91.627 28.124,90.914C28.049,90.604 28.026,90.298 28.014,89.981L28.014,81.959C28.022,81.288 28.049,80.619 28.117,79.951C28.27,78.466 28.592,76.999 29.074,75.587C30.011,72.842 31.554,70.314 33.556,68.216C35.552,66.121 37.998,64.463 40.687,63.394C42.22,62.785 43.831,62.368 45.467,62.158C46.14,62.071 46.813,62.028 47.49,62.002C58.492,61.861 69.496,61.861 80.498,62.002ZM64.508,14.028C65.353,14.061 66.195,14.124 67.032,14.252C69.141,14.574 71.196,15.239 73.094,16.212C76.958,18.192 80.124,21.435 82.008,25.345C82.865,27.121 83.455,29.023 83.753,30.973C84.06,32.983 84.06,35.04 83.753,37.049C83.455,38.999 82.865,40.901 82.008,42.678C80.964,44.845 79.525,46.818 77.784,48.478C76.039,50.142 73.995,51.488 71.774,52.427C69.318,53.466 66.659,54 63.993,54C61.328,54 58.668,53.466 56.214,52.427C53.993,51.488 51.949,50.142 50.204,48.478C48.463,46.818 47.024,44.845 45.978,42.678C45.123,40.901 44.533,38.999 44.235,37.049C43.928,35.04 43.928,32.983 44.235,30.973C44.533,29.023 45.123,27.121 45.978,25.345C47.864,21.435 51.03,18.192 54.894,16.212C56.792,15.239 58.846,14.574 60.955,14.252C61.793,14.124 62.634,14.061 63.48,14.028C63.996,14.022 63.993,14.022 64.508,14.028ZM63.682,22.022C63.174,22.041 62.668,22.08 62.164,22.156C60.904,22.35 59.675,22.747 58.539,23.328C55.238,25.02 52.842,28.231 52.189,31.886C51.955,33.189 51.94,34.532 52.14,35.841C52.318,37.006 52.67,38.143 53.182,39.206C53.81,40.508 54.675,41.694 55.722,42.691C56.77,43.69 57.997,44.498 59.33,45.063C60.802,45.687 62.395,46.004 63.993,46.004C65.592,46.004 67.185,45.687 68.657,45.063C69.99,44.498 71.218,43.69 72.266,42.691C73.312,41.694 74.178,40.508 74.805,39.206C75.318,38.143 75.67,37.006 75.848,35.841C76.048,34.532 76.033,33.189 75.799,31.886C75.146,28.231 72.75,25.02 69.448,23.328C68.313,22.747 67.084,22.35 65.823,22.156C65.32,22.08 64.814,22.041 64.305,22.022C63.993,22.018 63.996,22.018 63.682,22.022Z"/>
</svg>
