<?xml version="1.0" encoding="UTF-8" standalone="no"?>
<!DOCTYPE svg PUBLIC "-//W3C//DTD SVG 1.1//EN" "http://www.w3.org/Graphics/SVG/1.1/DTD/svg11.dtd">
<svg width="100%" height="100%" viewBox="0 0 128 128" version="1.1" xmlns="http://www.w3.org/2000/svg" xmlns:xlink="http://www.w3.org/1999/xlink" xml:space="preserve" xmlns:serif="http://www.serif.com/" style="fill-rule:evenodd;clip-rule:evenodd;stroke-linejoin:round;stroke-miterlimit:1.41421;">
    <path d="M141,146L-24,146L-24,-20L141,-20L141,146ZM32,81.231C27.922,81.231 24.615,84.537 24.615,88.615C24.615,92.694 27.922,96 32,96C36.078,96 39.385,92.694 39.385,88.615C39.385,84.537 36.078,81.231 32,81.231ZM100.923,83.077L46.769,83.077C45.409,83.077 44.308,84.179 44.308,85.538L44.308,91.692C44.308,93.052 45.41,94.154 46.769,94.154L100.923,94.154C102.283,94.154 103.385,93.052 103.385,91.692L103.385,85.538C103.385,84.179 102.283,83.077 100.923,83.077ZM32,56.615C27.922,56.615 24.615,59.922 24.615,64C24.615,68.078 27.922,71.385 32,71.385C36.078,71.385 39.385,68.078 39.385,64C39.385,59.922 36.078,56.615 32,56.615ZM100.923,58.462L46.769,58.462C45.409,58.462 44.308,59.564 44.308,60.923L44.308,67.077C44.308,68.436 45.41,69.538 46.769,69.538L100.923,69.538C102.283,69.538 103.385,68.436 103.385,67.077L103.385,60.923C103.385,59.564 102.283,58.462 100.923,58.462ZM39.385,39.385C39.385,43.463 36.078,46.769 32,46.769C27.922,46.769 24.615,43.463 24.615,39.385C24.615,35.306 27.922,32 32,32C36.078,32 39.385,35.306 39.385,39.385ZM100.923,33.846L46.769,33.846C45.409,33.846 44.308,34.948 44.308,36.308L44.308,42.462C44.308,43.821 45.41,44.923 46.769,44.923L100.923,44.923C102.283,44.923 103.385,43.821 103.385,42.462L103.385,36.308C103.385,34.948 102.283,33.846 100.923,33.846Z"/>
</svg>
