<?xml version="1.0" encoding="UTF-8" standalone="no"?>
<!DOCTYPE svg PUBLIC "-//W3C//DTD SVG 1.1//EN" "http://www.w3.org/Graphics/SVG/1.1/DTD/svg11.dtd">
<svg width="100%" height="100%" viewBox="0 0 128 128" version="1.1" xmlns="http://www.w3.org/2000/svg" xmlns:xlink="http://www.w3.org/1999/xlink" xml:space="preserve" xmlns:serif="http://www.serif.com/" style="fill-rule:evenodd;clip-rule:evenodd;stroke-linejoin:round;stroke-miterlimit:1.41421;">
    <path d="M128,0L128,128L0,128L0,0L128,0ZM96.656,39.313L96.656,30.406C96.656,25.487 92.669,21.5 87.75,21.5L34.313,21.5C29.394,21.5 25.406,25.487 25.406,30.406L25.406,97.594C25.406,102.513 29.394,106.5 34.313,106.5L87.75,106.5C92.669,106.5 96.656,102.512 96.656,97.594L96.656,88.688L100.367,88.688C101.597,88.687 102.594,87.69 102.594,86.461L102.594,79.039C102.594,77.81 101.597,76.813 100.367,76.813L96.656,76.813L96.656,69.938L100.367,69.938C101.597,69.937 102.594,68.94 102.594,67.711L102.594,60.289C102.594,59.06 101.597,58.063 100.367,58.063L96.656,58.063L96.656,51.188L100.367,51.188C101.597,51.187 102.594,50.19 102.594,48.961L102.594,41.539C102.594,40.31 101.597,39.313 100.367,39.313L96.656,39.313ZM86.637,30.406C87.248,30.407 87.75,30.909 87.75,31.52L87.75,96.48C87.75,97.091 87.247,97.594 86.637,97.594L35.426,97.594C34.815,97.594 34.313,97.091 34.313,96.48L34.313,31.52C34.313,30.909 34.815,30.407 35.426,30.406L86.637,30.406ZM74.391,90.688C76.85,90.687 78.844,88.694 78.844,86.234L78.844,72.875C78.844,68.899 76.208,65.404 72.384,64.311L69.032,63.354C66.666,64.689 63.937,65.453 61.031,65.453C58.126,65.453 55.396,64.689 53.03,63.354L49.678,64.311C45.855,65.404 43.219,68.899 43.219,72.875L43.219,86.234C43.219,88.694 45.212,90.688 47.672,90.688L74.391,90.688ZM61.031,61C67.59,61 72.906,55.683 72.906,49.125C72.906,42.567 67.59,37.25 61.031,37.25C54.473,37.25 49.156,42.567 49.156,49.125C49.156,55.683 54.473,61 61.031,61Z"/>
</svg>
