<?xml version="1.0" encoding="UTF-8" standalone="no"?>
<!DOCTYPE svg PUBLIC "-//W3C//DTD SVG 1.1//EN" "http://www.w3.org/Graphics/SVG/1.1/DTD/svg11.dtd">
<svg width="100%" height="100%" viewBox="0 0 128 128" version="1.1" xmlns="http://www.w3.org/2000/svg" xmlns:xlink="http://www.w3.org/1999/xlink" xml:space="preserve" style="fill-rule:evenodd;clip-rule:evenodd;stroke-linejoin:round;stroke-miterlimit:1.41421;">
    <g id="Template">
        <g id="PowerDistribution">
            <path d="M128,0L128,128L0,128L0,0L128,0ZM107.641,68.367C107.979,68.353 108.065,68.36 108.399,68.301C108.899,68.213 109.383,68.037 109.823,67.783C110.263,67.529 110.657,67.198 110.984,66.808C112.063,65.522 112.305,63.68 111.596,62.159C111.381,61.699 111.086,61.277 110.727,60.917C110.097,60.287 109.276,59.86 108.399,59.706C108.065,59.647 107.979,59.654 107.641,59.639L90.185,59.639C89.79,59.657 89.414,59.69 89.031,59.795C88.152,60.036 87.36,60.555 86.788,61.264C86.538,61.573 86.358,61.905 86.184,62.26L86.045,62.623L77.093,89.479L55.049,23.347C54.907,22.978 54.757,22.632 54.536,22.301C54.03,21.544 53.287,20.956 52.433,20.638C52.061,20.499 51.689,20.433 51.297,20.38C51.168,20.375 51.038,20.369 50.909,20.363C50.514,20.381 50.138,20.413 49.754,20.518C48.876,20.759 48.083,21.278 47.511,21.988C47.262,22.297 47.082,22.629 46.908,22.984L46.769,23.347L34.671,59.639L20.36,59.639C20.023,59.654 19.936,59.647 19.603,59.706C18.725,59.86 17.905,60.287 17.275,60.917C16.088,62.104 15.685,63.918 16.26,65.496C16.433,65.973 16.691,66.419 17.017,66.808C17.344,67.198 17.738,67.529 18.178,67.783C18.618,68.037 19.102,68.213 19.603,68.301C19.936,68.36 20.023,68.353 20.36,68.367L37.817,68.367C38.212,68.35 38.588,68.317 38.971,68.212C39.849,67.971 40.642,67.452 41.214,66.743C41.463,66.433 41.643,66.102 41.817,65.747L41.957,65.383L50.909,38.527L72.953,104.66C73.076,104.982 73.097,105.068 73.263,105.372C73.512,105.828 73.843,106.238 74.236,106.578C74.53,106.833 74.859,107.048 75.21,107.216C76.76,107.958 78.651,107.703 79.95,106.578C80.342,106.238 80.673,105.828 80.922,105.372C80.984,105.259 81.036,105.139 81.093,105.023L81.233,104.66L93.33,68.367L107.641,68.367Z"/>
        </g>
    </g>
</svg>
