<?xml version="1.0" encoding="UTF-8" standalone="no"?>
<!DOCTYPE svg PUBLIC "-//W3C//DTD SVG 1.1//EN" "http://www.w3.org/Graphics/SVG/1.1/DTD/svg11.dtd">
<svg width="100%" height="100%" viewBox="0 0 128 128" version="1.1" xmlns="http://www.w3.org/2000/svg" xmlns:xlink="http://www.w3.org/1999/xlink" xml:space="preserve" style="fill-rule:evenodd;clip-rule:evenodd;stroke-linejoin:round;stroke-miterlimit:1.41421;">
    <path d="M128,0L128,128L0,128L0,0L128,0ZM88.867,113.332L89.181,113.105L89.494,113.332L92.356,113.332L92.647,113.118L92.939,113.332L94.528,113.333L95.426,112.06L93.869,107.692L93.867,107.47L94.833,106.549L95.113,106.027L97.725,91.436L97.74,91.269L97.74,84.916L95.834,84.916L95.834,91.184L93.292,105.385L92.254,106.375L91.959,107.072C91.963,107.628 91.923,107.632 92.02,108.18L93.081,111.158L91.734,111.161L91.652,111.427L90.184,111.427L90.086,111.128L88.743,111.127L89.793,108.18L89.849,107.867L89.855,107.072L89.56,106.375L88.521,105.385C86.62,94.763 86.091,90.566 85.969,84.917L84.073,84.916L84.073,91.269L84.088,91.436L86.7,106.028L86.981,106.55L87.946,107.47L87.944,107.692L86.387,112.06L87.285,113.332L88.867,113.332ZM33.867,87.332L34.181,87.105L34.494,87.332L37.356,87.332L37.647,87.118L37.939,87.332L39.528,87.333L40.426,86.06L38.869,81.692L38.867,81.47L39.833,80.549L40.113,80.027L42.725,65.436L42.74,65.269L42.74,58.916L40.834,58.916L40.834,65.184L38.292,79.385L37.254,80.375L36.959,81.072C36.963,81.628 36.923,81.632 37.02,82.18L38.081,85.158L36.734,85.161L36.652,85.427L35.184,85.427L35.086,85.128L33.743,85.127L34.793,82.18L34.849,81.867L34.855,81.072L34.56,80.375L33.521,79.385C31.62,68.763 31.091,64.566 30.969,58.917L29.073,58.916L29.073,65.269L29.088,65.436L31.7,80.028L31.981,80.55L32.946,81.47L32.944,81.692L31.387,86.06L32.285,87.332L33.867,87.332ZM102.708,84.073L103.661,83.12L103.661,75.288L102.708,74.335C94.871,74.335 87.034,74.335 79.197,74.335L78.245,75.288L78.244,83.12L79.197,84.073L102.708,84.073ZM80.15,82.167L101.755,82.167L101.755,76.241L80.211,76.24C80.211,76.24 80.15,81.803 80.15,82.167ZM71.464,70.187L70.798,81.294L62.179,76.318L71.464,70.187ZM97.74,73.491L97.74,69.709L97.486,69.061L93.965,65.26L93.968,64.936L95.552,61.428L95.58,61.41C96.272,60.961 96.9,60.421 97.439,59.798C98.256,58.855 98.862,57.735 99.203,56.534C99.519,55.421 99.605,54.245 99.459,53.098C99.357,52.291 99.139,51.499 98.812,50.755C98.426,49.87 97.888,49.053 97.23,48.347C96.504,47.566 95.632,46.922 94.671,46.459C93.68,45.982 92.6,45.7 91.503,45.631C90.352,45.557 89.19,45.715 88.103,46.098C87.286,46.386 86.514,46.799 85.821,47.317C85.518,47.543 85.234,47.79 84.961,48.053C84.889,48.125 84.816,48.198 84.745,48.272C84.533,48.497 84.331,48.73 84.143,48.975C83.723,49.523 83.369,50.122 83.092,50.755C82.824,51.368 82.628,52.013 82.511,52.672C82.264,54.052 82.359,55.489 82.79,56.823C83.068,57.687 83.485,58.504 84.019,59.236C84.416,59.78 84.876,60.277 85.387,60.714C85.593,60.889 85.806,61.052 86.026,61.208C86.124,61.277 86.123,61.277 86.223,61.343L87.846,64.936L87.849,65.26L84.327,69.061L84.073,69.709L84.073,73.491L85.973,73.491C85.976,72.43 85.979,71.297 85.979,70.082L89.504,66.277C89.792,65.532 89.757,65.516 89.749,64.717L89.665,64.334L87.843,60.301L87.479,59.884C87.269,59.753 87.065,59.614 86.869,59.462C86.455,59.142 86.079,58.772 85.75,58.364C85.377,57.899 85.066,57.383 84.828,56.836C84.298,55.612 84.151,54.235 84.402,52.925C84.5,52.415 84.658,51.918 84.872,51.444C85.093,50.955 85.373,50.493 85.705,50.071C85.854,49.882 86.013,49.703 86.18,49.529C86.236,49.472 86.293,49.416 86.351,49.36C86.565,49.159 86.789,48.969 87.027,48.796C87.571,48.399 88.175,48.085 88.813,47.869C89.664,47.581 90.571,47.47 91.467,47.539C92.317,47.603 93.153,47.832 93.917,48.212C94.635,48.569 95.288,49.058 95.836,49.646C96.347,50.195 96.765,50.831 97.067,51.518C97.308,52.071 97.474,52.657 97.557,53.255C97.691,54.211 97.618,55.195 97.339,56.119C97.095,56.927 96.695,57.686 96.169,58.346C95.769,58.847 95.297,59.287 94.773,59.657C94.7,59.708 94.625,59.757 94.55,59.806C94.474,59.854 94.397,59.902 94.319,59.948L94.83,59.815L93.936,60.376L92.149,64.334C92.043,64.813 91.964,65.043 92.056,65.62C92.092,65.852 92.225,66.058 92.309,66.277L95.834,70.082L95.834,73.491L97.74,73.491ZM66.077,54.714L65.411,65.821L56.792,60.845L66.077,54.714ZM47.708,58.073L48.661,57.12L48.661,49.288L47.708,48.335C39.871,48.335 32.034,48.335 24.197,48.335L23.245,49.288L23.244,57.12L24.197,58.073L47.708,58.073ZM25.15,56.167L46.755,56.167L46.755,50.241L25.211,50.24C25.211,50.24 25.15,55.803 25.15,56.167ZM61.101,39.327L60.434,50.435L51.815,45.458L61.101,39.327ZM42.74,47.491L42.74,43.709L42.486,43.061L38.965,39.26L38.968,38.936L40.552,35.428L40.58,35.41C41.272,34.961 41.9,34.421 42.439,33.798C43.256,32.855 43.862,31.735 44.203,30.534C44.519,29.421 44.605,28.245 44.459,27.098C44.357,26.291 44.139,25.499 43.812,24.755C43.426,23.87 42.888,23.053 42.23,22.347C41.504,21.566 40.632,20.922 39.671,20.459C38.68,19.982 37.6,19.7 36.503,19.631C35.352,19.557 34.19,19.715 33.103,20.098C32.286,20.386 31.514,20.799 30.821,21.317C30.518,21.543 30.234,21.79 29.961,22.053C29.889,22.125 29.816,22.198 29.745,22.272C29.533,22.497 29.331,22.73 29.143,22.975C28.723,23.523 28.369,24.122 28.092,24.755C27.824,25.368 27.628,26.013 27.511,26.672C27.264,28.052 27.359,29.489 27.79,30.823C28.068,31.687 28.485,32.504 29.019,33.236C29.416,33.78 29.876,34.277 30.387,34.714C30.593,34.889 30.806,35.052 31.026,35.208C31.124,35.277 31.123,35.277 31.223,35.343L32.846,38.936L32.849,39.26L29.327,43.061L29.073,43.709L29.073,47.491L30.973,47.491C30.976,46.43 30.979,45.297 30.979,44.082L34.504,40.277C34.792,39.532 34.757,39.516 34.749,38.717L34.665,38.334L32.843,34.301L32.479,33.884C32.269,33.753 32.065,33.614 31.869,33.462C31.455,33.142 31.079,32.772 30.75,32.364C30.377,31.899 30.066,31.383 29.828,30.836C29.298,29.612 29.151,28.235 29.402,26.925C29.5,26.415 29.658,25.918 29.872,25.444C30.093,24.955 30.373,24.493 30.705,24.071C30.854,23.882 31.013,23.703 31.18,23.529C31.236,23.472 31.293,23.416 31.351,23.36C31.565,23.159 31.789,22.969 32.027,22.796C32.571,22.399 33.175,22.085 33.813,21.869C34.664,21.581 35.571,21.47 36.467,21.539C37.317,21.603 38.153,21.832 38.917,22.212C39.635,22.569 40.288,23.058 40.836,23.646C41.347,24.195 41.765,24.831 42.067,25.518C42.308,26.071 42.474,26.657 42.557,27.255C42.691,28.211 42.618,29.195 42.339,30.119C42.095,30.927 41.695,31.686 41.169,32.346C40.769,32.847 40.297,33.287 39.773,33.657C39.7,33.708 39.625,33.757 39.55,33.806C39.474,33.854 39.397,33.902 39.319,33.948L39.83,33.815L38.936,34.376L37.149,38.334C37.043,38.813 36.964,39.043 37.056,39.62C37.092,39.852 37.225,40.058 37.309,40.277L40.834,44.082L40.834,47.491L42.74,47.491Z"/>
</svg>
