<?xml version="1.0" encoding="UTF-8" standalone="no"?>
<!DOCTYPE svg PUBLIC "-//W3C//DTD SVG 1.1//EN" "http://www.w3.org/Graphics/SVG/1.1/DTD/svg11.dtd">
<svg width="100%" height="100%" viewBox="0 0 128 128" version="1.1" xmlns="http://www.w3.org/2000/svg" xmlns:xlink="http://www.w3.org/1999/xlink" xml:space="preserve" style="fill-rule:evenodd;clip-rule:evenodd;stroke-linejoin:round;stroke-miterlimit:1.41421;">
    <path d="M128,128L0,128L0,0L128,0L128,128ZM39.26,75.113L29.716,88.819L29.447,89.712L29.497,91.811L29.248,92.056L22.653,95.185L22.236,97.601L23.997,99.362L24.599,99.458L24.695,100.06L27.88,103.245L28.443,103.33L28.529,103.894L30.298,105.664L32.714,105.246L35.843,98.651L36.088,98.402L38.188,98.452L39.081,98.183L57.976,85.025C57.077,84.79 56.192,84.502 55.326,84.163L52.444,87.504C51.796,87.21 51.16,86.892 50.536,86.55L37.769,95.441L35.511,95.387L34.406,95.835C33.792,96.458 33.743,96.418 33.242,97.136L31.108,101.632L29.606,100.136L29.218,100.341L27.584,98.707L27.808,98.265L26.313,96.769L30.763,94.658L31.173,94.371L32.065,93.493L32.512,92.389L32.458,90.13C35.928,85.147 38.679,81.274 41.063,78.059C40.402,77.115 39.8,76.131 39.26,75.113ZM66.45,37.12C64.821,36.96 63.179,36.96 61.55,37.12L60.813,40.99C59.253,41.227 57.724,41.637 56.255,42.212L53.682,39.228C52.191,39.904 50.769,40.725 49.438,41.679L50.735,45.398C49.503,46.383 48.383,47.503 47.398,48.735L43.679,47.438C42.725,48.769 41.904,50.191 41.228,51.682L44.212,54.255C43.637,55.724 43.227,57.253 42.99,58.813L39.12,59.55C38.96,61.179 38.96,62.821 39.12,64.45L42.99,65.187C43.227,66.747 43.637,68.276 44.212,69.745L41.228,72.318C41.904,73.809 42.725,75.231 43.679,76.562L47.398,75.265C48.383,76.497 49.503,77.617 50.735,78.602L49.438,82.321C50.769,83.275 52.191,84.096 53.682,84.772L56.255,81.788C57.724,82.363 59.253,82.773 60.813,83.01L61.55,86.88C63.179,87.04 64.821,87.04 66.45,86.88L67.187,83.01C68.747,82.773 70.276,82.363 71.745,81.788L74.318,84.772C75.809,84.096 77.231,83.275 78.562,82.321L77.265,78.602C78.497,77.617 79.617,76.497 80.602,75.265L84.321,76.562C85.275,75.231 86.096,73.809 86.772,72.318L83.788,69.745C84.363,68.276 84.773,66.747 85.01,65.187L88.88,64.45C89.04,62.821 89.04,61.179 88.88,59.55L85.01,58.813C84.773,57.253 84.363,55.724 83.788,54.255L86.772,51.682C86.096,50.191 85.275,48.769 84.321,47.438L80.602,48.735C79.617,47.503 78.497,46.383 77.265,45.398L78.562,41.679C77.231,40.725 75.809,39.904 74.318,39.228L71.745,42.212C70.276,41.637 68.747,41.227 67.187,40.99L66.45,37.12ZM64,47.923C71.769,47.923 78.077,54.231 78.077,62C78.077,69.769 71.769,76.077 64,76.077C56.231,76.077 49.923,69.769 49.923,62C49.923,54.231 56.231,47.923 64,47.923ZM52.743,58.727C52.441,59.766 52.279,60.864 52.279,62C52.279,62.173 52.282,62.346 52.29,62.517L63.483,73.71C63.654,73.718 63.827,73.721 64,73.721C65.136,73.721 66.234,73.559 67.273,73.257L52.743,58.727ZM61.914,50.464C60.791,50.666 59.724,51.028 58.736,51.526L74.473,67.265C74.971,66.277 75.334,65.209 75.536,64.085L61.914,50.464ZM66.398,50.525C65.624,50.363 64.822,50.279 64,50.279C63.871,50.279 63.742,50.281 63.614,50.285L65.122,51.793C65.537,51.38 65.962,50.958 66.398,50.525ZM88.879,49.154L89.213,49.028L89.264,49.039C90.533,49.31 91.833,49.408 93.127,49.315C95.086,49.174 97.008,48.602 98.723,47.645C100.314,46.758 101.719,45.545 102.834,44.105C103.618,43.093 104.256,41.969 104.722,40.777C105.276,39.362 105.587,37.854 105.641,36.336C105.701,34.658 105.447,32.971 104.893,31.386C104.322,29.752 103.433,28.235 102.289,26.937C101.09,25.575 99.62,24.457 97.984,23.673C96.755,23.084 95.436,22.685 94.087,22.49C93.499,22.405 92.907,22.363 92.312,22.352C92.151,22.351 91.989,22.352 91.827,22.355C91.341,22.37 90.857,22.404 90.375,22.468C89.297,22.61 88.237,22.883 87.224,23.279C86.243,23.663 85.307,24.163 84.443,24.766C82.632,26.027 81.138,27.733 80.132,29.697C79.481,30.968 79.035,32.342 78.815,33.752C78.651,34.798 78.61,35.863 78.693,36.919C78.727,37.342 78.783,37.762 78.853,38.18L78.87,38.275C79.36,38.582 79.839,38.904 80.309,39.24L78.856,43.406C79.229,43.704 79.592,44.012 79.945,44.331L81.887,39.193L81.945,38.324C81.857,37.944 81.784,37.562 81.735,37.175C81.631,36.357 81.624,35.527 81.713,34.707C81.815,33.774 82.042,32.854 82.387,31.981C83.16,30.028 84.529,28.331 86.266,27.153C86.942,26.694 87.672,26.316 88.437,26.027C89.227,25.729 90.054,25.527 90.893,25.427C91.269,25.381 91.646,25.359 92.025,25.352C92.151,25.351 92.277,25.352 92.403,25.354C92.866,25.368 93.326,25.407 93.784,25.478C94.831,25.642 95.853,25.965 96.804,26.435C98.071,27.062 99.205,27.948 100.125,29.021C101,30.039 101.675,31.224 102.103,32.497C102.505,33.695 102.688,34.965 102.643,36.229C102.601,37.41 102.359,38.583 101.929,39.684C101.582,40.568 101.115,41.405 100.542,42.163C99.627,43.376 98.45,44.39 97.111,45.108C95.94,45.736 94.65,46.136 93.33,46.284C92.326,46.397 91.311,46.361 90.316,46.19C90.178,46.165 90.04,46.137 89.903,46.108C89.764,46.077 89.625,46.044 89.487,46.008L90.204,46.43L88.585,46.058L87.338,46.529C87.899,47.376 88.414,48.252 88.879,49.154Z"/>
</svg>
