<?xml version="1.0" encoding="UTF-8" standalone="no"?><!DOCTYPE svg PUBLIC "-//W3C//DTD SVG 1.1//EN" "http://www.w3.org/Graphics/SVG/1.1/DTD/svg11.dtd"><svg width="100%" height="100%" viewBox="0 0 128 128" version="1.1" xmlns="http://www.w3.org/2000/svg" xmlns:xlink="http://www.w3.org/1999/xlink" xml:space="preserve" xmlns:serif="http://www.serif.com/" style="fill-rule:evenodd;clip-rule:evenodd;stroke-linejoin:round;stroke-miterlimit:1.41421;"><path id="ProbeConstruction" d="M128,128l-128,0l0,-128l128,0l0,128Zm-45.011,-71.467l0.191,-5.006l0.364,-0.357l5.669,-2.142l0.051,0.011c1.269,0.271 2.569,0.369 3.863,0.276c1.959,-0.141 3.881,-0.713 5.596,-1.67c1.591,-0.887 2.996,-2.1 4.111,-3.54c0.784,-1.012 1.422,-2.136 1.888,-3.328c0.554,-1.415 0.865,-2.923 0.919,-4.441c0.06,-1.678 -0.194,-3.365 -0.748,-4.95c-0.571,-1.634 -1.46,-3.151 -2.604,-4.449c-1.199,-1.362 -2.669,-2.48 -4.305,-3.264c-1.229,-0.589 -2.548,-0.988 -3.897,-1.183c-0.588,-0.085 -1.18,-0.127 -1.775,-0.138c-0.161,-0.001 -0.323,0 -0.485,0.003c-0.486,0.015 -0.97,0.049 -1.452,0.113c-1.078,0.142 -2.138,0.415 -3.151,0.811c-0.981,0.384 -1.917,0.884 -2.781,1.487c-1.811,1.261 -3.305,2.967 -4.311,4.931c-0.651,1.271 -1.097,2.645 -1.317,4.055c-0.164,1.046 -0.205,2.111 -0.122,3.167c0.034,0.423 0.09,0.843 0.16,1.261c0.034,0.186 0.033,0.185 0.07,0.37l-0.884,2.339c-0.029,-0.019 -0.059,-0.037 -0.089,-0.056c-2.632,-1.591 -6.403,-0.446 -10.903,3.311c-0.954,0.797 -1.918,1.696 -2.881,2.679c-0.944,-1.001 -1.89,-1.919 -2.829,-2.735c-4.428,-3.843 -8.174,-5.062 -10.837,-3.521c-2.663,1.541 -3.484,5.402 -2.375,11.167c0.222,1.155 0.528,2.367 0.892,3.61c-6.921,1.678 -12.017,4.602 -12.017,8.658c0,2.626 2.137,4.779 5.522,6.426l-12.806,18.391l-0.269,0.893l0.05,2.099l-0.249,0.245l-6.595,3.129l-0.417,2.416l1.761,1.761l0.602,0.096l0.096,0.602l3.185,3.185l0.563,0.085l0.086,0.564l1.769,1.77l2.416,-0.418l3.129,-6.595l0.245,-0.249l2.1,0.05l0.893,-0.269l15.079,-10.501c2.935,-0.665 6.336,-3.114 9.674,-6.53c3.904,4.152 7.924,6.929 11.188,6.929c0.888,0 1.72,-0.206 2.479,-0.644c3.507,-2.03 3.483,-7.921 1.469,-14.774c6.927,-1.678 12.03,-4.603 12.03,-8.661c0,-3.224 -3.217,-5.732 -8.011,-7.469Zm-37.063,15.253c0.906,0.299 1.862,0.571 2.856,0.818c-0.355,1.152 -0.663,2.279 -0.891,3.356c-1.186,5.585 -0.512,9.406 1.949,11.076l-12.071,8.405l-2.258,-0.054l-1.105,0.448c-0.614,0.623 -0.663,0.583 -1.164,1.301l-2.134,4.496l-1.502,-1.496l-0.388,0.205l-1.634,-1.634l0.224,-0.442l-1.495,-1.496l4.45,-2.111l0.41,-0.287l0.892,-0.878l0.447,-1.104l-0.054,-2.259c6.055,-8.695 9.922,-14.014 13.468,-18.344Zm43.074,-7.784c0,-3.714 -4.611,-6.403 -10.909,-7.966c0.329,-1.066 0.614,-2.11 0.825,-3.107c1.129,-5.317 0.437,-8.906 -2,-10.38c-2.436,-1.473 -5.928,-0.413 -10.095,3.066c-0.883,0.738 -1.776,1.57 -2.668,2.48c-0.874,-0.927 -1.75,-1.777 -2.619,-2.532c-4.099,-3.559 -7.568,-4.687 -10.034,-3.26c-2.465,1.427 -3.226,5.002 -2.2,10.34c0.206,1.069 0.49,2.191 0.827,3.342c-6.409,1.554 -11.127,4.261 -11.127,8.017c0,3.713 4.611,6.402 10.909,7.965c-0.328,1.066 -0.613,2.11 -0.825,3.107c-1.129,5.316 -0.438,8.906 2,10.38c0.724,0.438 1.526,0.642 2.387,0.642c3.004,0 6.73,-2.484 10.376,-6.215c3.614,3.845 7.336,6.416 10.358,6.416c0.822,0 1.593,-0.19 2.296,-0.596c3.247,-1.879 3.225,-7.334 1.36,-13.679c6.414,-1.554 11.139,-4.262 11.139,-8.02Zm-13.848,19.358c-1.571,0.907 -5.244,-0.928 -9.484,-5.454c1.236,-1.413 2.446,-2.949 3.597,-4.559c2.048,-0.163 4.06,-0.419 5.971,-0.769c1.733,5.85 1.47,9.883 -0.084,10.782Zm-22.675,-0.22c-1.284,-0.777 -1.574,-3.652 -0.756,-7.504c0.21,-0.991 0.496,-2.031 0.831,-3.098c1.939,0.363 3.985,0.631 6.069,0.8c1.102,1.597 2.259,3.124 3.443,4.534c-4.326,4.443 -8.034,6.207 -9.587,5.268Zm11.409,-7.258c-0.608,-0.733 -1.223,-1.517 -1.841,-2.355c0.653,0.019 1.305,0.031 1.955,0.031c0.597,0 1.196,-0.01 1.795,-0.027c-0.642,0.838 -1.28,1.62 -1.909,2.351Zm-7.684,-11.956c0.604,-1.154 1.247,-2.312 1.943,-3.466c0.668,-1.109 1.361,-2.175 2.067,-3.209c1.213,-0.067 2.476,-0.104 3.788,-0.104c1.344,0 2.635,0.039 3.874,0.109c0.701,1.069 1.389,2.172 2.05,3.318c0.687,1.193 1.311,2.359 1.88,3.494c-0.606,1.156 -1.251,2.317 -1.948,3.475c-0.68,1.13 -1.366,2.199 -2.053,3.208c-1.218,0.068 -2.486,0.105 -3.803,0.105c-1.347,0 -2.642,-0.039 -3.885,-0.11c-0.683,-1.044 -1.364,-2.148 -2.037,-3.317c-0.673,-1.168 -1.294,-2.338 -1.876,-3.503Zm15.962,5.013c0.367,-0.609 0.717,-1.22 1.061,-1.832c0.433,1 0.82,1.97 1.16,2.904c-1.001,0.175 -2.059,0.329 -3.17,0.454c0.324,-0.505 0.641,-1.014 0.949,-1.526Zm-17.44,-1.999c0.33,0.614 0.666,1.228 1.018,1.84c0.325,0.563 0.66,1.124 1.002,1.68c-1.161,-0.132 -2.261,-0.294 -3.301,-0.48c0.382,-0.997 0.812,-2.012 1.281,-3.04Zm22.306,2.525c-0.629,-1.764 -1.379,-3.567 -2.221,-5.356c0.931,-1.872 1.751,-3.727 2.421,-5.522c5.796,1.422 9.073,3.637 9.073,5.415c0.001,1.799 -3.352,4.043 -9.273,5.463Zm-26.261,-0.049c-5.795,-1.422 -9.073,-3.636 -9.073,-5.414c0,-1.798 3.347,-4.04 9.258,-5.46c0.62,1.741 1.376,3.538 2.236,5.355c-0.931,1.872 -1.75,3.725 -2.421,5.519Zm13.211,-9.294c2.281,0 4.133,1.856 4.133,4.143c0,2.286 -1.852,4.143 -4.133,4.143c-2.282,0 -4.134,-1.857 -4.134,-4.143c0,-2.287 1.852,-4.143 4.134,-4.143Zm9.297,0.939c-0.331,-0.618 -0.67,-1.232 -1.019,-1.838c-0.328,-0.569 -0.663,-1.128 -1.002,-1.68c1.161,0.132 2.261,0.295 3.302,0.481c-0.382,0.995 -0.812,2.01 -1.281,3.037Zm-19.652,-3.071c0.998,-0.175 2.052,-0.327 3.16,-0.452c-0.321,0.502 -0.638,1.009 -0.949,1.526c-0.365,0.605 -0.712,1.212 -1.054,1.819c-0.423,-0.978 -0.811,-1.944 -1.157,-2.893Zm26.544,-6.233l-0.147,3.85c-0.265,-0.071 -0.533,-0.141 -0.803,-0.208c0.354,-1.152 0.662,-2.279 0.891,-3.355c0.02,-0.096 0.04,-0.192 0.059,-0.287Zm-11.621,-4.066c2.373,-1.982 4.532,-3.075 5.971,-3.075c0.392,0 0.73,0.08 1.005,0.246c1.284,0.777 1.574,3.652 0.756,7.504c-0.211,0.991 -0.496,2.031 -0.831,3.098c-1.935,-0.362 -3.977,-0.629 -6.058,-0.799c-1.116,-1.628 -2.27,-3.154 -3.441,-4.548c0.869,-0.894 1.738,-1.709 2.598,-2.426Zm-15.7,-3.048c1.298,-0.751 3.95,0.384 6.921,2.963c0.845,0.733 1.698,1.565 2.55,2.477c-1.22,1.397 -2.426,2.932 -3.595,4.574c-2.042,0.162 -4.049,0.418 -5.955,0.766c-0.339,-1.137 -0.619,-2.242 -0.821,-3.292c-0.743,-3.867 -0.399,-6.737 0.9,-7.488Zm11.266,7.496c0.615,0.742 1.224,1.521 1.826,2.336c-0.648,-0.019 -1.295,-0.03 -1.94,-0.03c-0.592,0 -1.186,0.01 -1.78,0.026c0.625,-0.815 1.258,-1.592 1.894,-2.332Zm16.057,-8.406l1.716,-4.54l0.058,-0.869c-0.088,-0.38 -0.161,-0.762 -0.21,-1.149c-0.104,-0.818 -0.111,-1.648 -0.022,-2.468c0.102,-0.933 0.329,-1.853 0.674,-2.726c0.773,-1.953 2.142,-3.65 3.879,-4.828c0.676,-0.459 1.406,-0.837 2.171,-1.126c0.79,-0.298 1.617,-0.5 2.456,-0.6c0.376,-0.046 0.753,-0.068 1.132,-0.075c0.126,-0.001 0.252,0 0.378,0.002c0.463,0.014 0.923,0.053 1.381,0.124c1.047,0.164 2.069,0.487 3.02,0.957c1.267,0.627 2.401,1.513 3.321,2.586c0.875,1.018 1.55,2.203 1.978,3.476c0.402,1.198 0.585,2.468 0.54,3.732c-0.042,1.181 -0.284,2.354 -0.714,3.455c-0.347,0.884 -0.814,1.721 -1.387,2.479c-0.915,1.213 -2.092,2.227 -3.431,2.945c-1.171,0.628 -2.461,1.028 -3.781,1.176c-1.004,0.113 -2.019,0.077 -3.014,-0.094c-0.138,-0.025 -0.276,-0.053 -0.413,-0.082c-0.139,-0.031 -0.278,-0.064 -0.416,-0.1l0.717,0.422l-1.619,-0.372l-6.396,2.417c-0.65,0.415 -0.994,0.584 -1.535,1.328c-0.088,0.12 -0.153,0.253 -0.21,0.391c0.388,-2.643 0.294,-4.813 -0.273,-6.461Z"/></svg>