<?xml version="1.0" encoding="UTF-8" standalone="no"?>
<!DOCTYPE svg PUBLIC "-//W3C//DTD SVG 1.1//EN" "http://www.w3.org/Graphics/SVG/1.1/DTD/svg11.dtd">
<svg width="100%" height="100%" viewBox="0 0 128 128" version="1.1" xmlns="http://www.w3.org/2000/svg" xmlns:xlink="http://www.w3.org/1999/xlink" xml:space="preserve" xmlns:serif="http://www.serif.com/" style="fill-rule:evenodd;clip-rule:evenodd;stroke-linejoin:round;stroke-miterlimit:1.41421;">
    <path d="M141,146L-24,146L-24,-20L141,-20L141,146ZM78.219,24.188L49.781,24.188C45.069,24.188 41.25,28.007 41.25,32.719L41.25,41.25L27.031,41.25C22.319,41.25 18.5,45.07 18.5,49.781L18.5,64L38.344,64C38.578,65.964 38.917,67.86 39.349,69.688L18.5,69.688L18.5,95.281C18.5,99.993 22.32,103.813 27.031,103.813L100.969,103.813C105.681,103.812 109.5,99.993 109.5,95.281L109.5,69.688L88.683,69.688C89.106,67.876 89.439,65.981 89.668,64L109.5,64L109.5,49.781C109.5,45.07 105.681,41.25 100.969,41.25L86.75,41.25L86.75,32.719C86.75,28.007 82.931,24.188 78.219,24.188ZM86.03,59.751C86.03,80.063 73.553,91.386 65.695,94.66C64.61,95.112 63.389,95.112 62.305,94.66C52.48,90.567 41.97,77.97 41.97,59.751C41.97,57.975 43.043,56.366 44.681,55.683L62.305,48.34C63.39,47.888 64.611,47.888 65.695,48.34L83.319,55.683C84.957,56.366 86.03,57.975 86.03,59.751ZM64,88.969L64.006,88.972C72.61,84.687 79.84,74.625 80.145,60.725L64,53.998L64,88.969ZM75.375,41.25L52.625,41.25L52.625,35.563L75.375,35.563L75.375,41.25Z" style="fill-rule:nonzero;"/>
</svg>
