<?xml version="1.0" encoding="UTF-8" standalone="no"?><!DOCTYPE svg PUBLIC "-//W3C//DTD SVG 1.1//EN" "http://www.w3.org/Graphics/SVG/1.1/DTD/svg11.dtd"><svg width="100%" height="100%" viewBox="0 0 128 128" version="1.1" xmlns="http://www.w3.org/2000/svg" xmlns:xlink="http://www.w3.org/1999/xlink" xml:space="preserve" xmlns:serif="http://www.serif.com/" style="fill-rule:evenodd;clip-rule:evenodd;stroke-linejoin:round;stroke-miterlimit:1.41421;"><path d="M128,128l-128,0l0,-128l128,0l0,128Zm-53.618,-108l-21.258,0l0,25.213l-21.753,-12.853l-10.877,18.786l21.753,12.854l-21.753,12.36l10.877,18.786l21.753,-12.854l0,25.708l21.752,0l0,-25.708l21.753,12.854l10.877,-18.786l-21.753,-12.36l21.753,-12.854l-10.877,-18.786l-22.247,12.853l0,-25.213Zm-8.617,65.647l-0.119,5.469l-0.412,-0.241l-0.008,1.572l-0.007,0.39c-0.058,1.911 -0.436,3.799 -1.082,5.595c-0.081,0.219 -0.08,0.218 -0.163,0.437c-0.194,0.499 -0.393,0.995 -0.59,1.492l1.201,-0.017c0.202,-0.008 0.4,-0.036 0.591,-0.08c-0.758,1.666 -2.659,1.113 -2.659,-1.657l0,-1.483c0,0 -0.44,-3.866 -0.125,-5.64c0.313,-1.769 1.174,-4.386 2.009,-5.001c0.192,-0.141 0.212,-0.167 0.677,-0.425c0.236,-0.126 0.465,-0.263 0.687,-0.411Zm0.213,6.533c3.46,1.977 1.483,7.416 -1.484,7.416c0.989,-2.472 1.484,-4.45 1.484,-7.416Zm0.494,-19.776c4.944,4.45 1.977,10.877 -1.483,12.854c-0.326,0.163 -0.616,0.332 -0.874,0.509c-2.093,1.433 -2.093,3.387 -2.093,6.907c-4.449,-4.944 -1.977,-9.393 1.978,-11.865c2.472,-1.978 2.472,-4.944 2.472,-8.405Zm-0.334,-3.919c0,0 0.094,4.414 -0.133,6.13c-0.19,1.435 -0.792,3.386 -1.229,4.164c-0.074,0.133 -0.157,0.262 -0.244,0.386c-0.219,0.312 -0.474,0.594 -0.755,0.85c-0.07,0.063 -0.141,0.124 -0.215,0.183c-0.482,0.305 -0.953,0.642 -1.399,1.012l-0.161,-7.251c-0.004,-0.539 0.147,-1.041 0.194,-1.237c0.447,-1.893 2.246,-3.073 3.942,-4.237Zm0.828,-10.912c0,5.438 -8.404,6.921 -8.404,10.876c0,1.484 0.494,4.45 2.966,5.933c0,-5.438 4.45,-5.933 7.416,-8.899c3.46,-3.461 3.46,-9.393 -1.978,-13.843c0,1.978 0,3.956 0,5.933Zm-5.841,-23.063l-0.091,-4.128c0,-3.955 5.932,-3.955 5.932,0l-0.56,25.759l-0.19,1.43c-0.017,2.805 -2.261,4.234 -4.45,5.762l-0.481,-21.649c0.079,-0.029 0.159,-0.057 0.237,-0.085c1.659,-0.565 4.448,-0.902 5.088,-2.987c0.722,-2.353 -1.862,-4.15 -4.165,-4.2c-0.116,-0.001 -0.115,-0.001 -0.231,0c-0.363,0.009 -0.727,0.042 -1.089,0.098Zm-0.091,20.097c-4.944,-3.955 -6.922,-10.877 -4.944,-15.326c1.483,-4.944 9.888,-5.438 9.888,-1.483c0,3.955 -9.888,1.483 -6.427,7.91l1.483,2.472l0,6.427Zm2.472,-16.809c3.46,-1.483 -3.461,-1.483 0,0Z"/></svg>