<?xml version="1.0" encoding="UTF-8" standalone="no"?>
<!DOCTYPE svg PUBLIC "-//W3C//DTD SVG 1.1//EN" "http://www.w3.org/Graphics/SVG/1.1/DTD/svg11.dtd">
<svg width="100%" height="100%" viewBox="0 0 128 128" version="1.1" xmlns="http://www.w3.org/2000/svg" xmlns:xlink="http://www.w3.org/1999/xlink" xml:space="preserve" xmlns:serif="http://www.serif.com/" style="fill-rule:evenodd;clip-rule:evenodd;stroke-linejoin:round;stroke-miterlimit:1.41421;">
    <path d="M133,136.5L-5,136.5L-5,-8.5L133,-8.5L133,136.5ZM61.015,82.985C49.837,81.727 41.138,72.231 41.138,60.719C41.138,48.351 51.178,38.31 63.546,38.31C75.913,38.31 85.954,48.351 85.954,60.719C85.954,72.231 77.254,81.727 66.076,82.985L66.073,83.414C66.058,85.294 66.011,87.174 65.933,89.052C65.924,89.259 65.915,89.469 65.907,89.679C65.816,91.854 65.678,94.026 65.495,96.195C65.495,96.195 65.495,96.195 65.495,96.195C65.36,97.781 65.17,99.361 64.925,100.933C64.869,101.293 64.815,101.639 64.771,101.923C64.697,102.395 64.582,102.86 64.426,103.313C64.28,103.736 64.102,104.253 64.004,104.539C63.959,104.669 63.836,104.757 63.698,104.757C63.602,104.757 63.49,104.757 63.393,104.757C63.255,104.757 63.133,104.669 63.088,104.539C62.989,104.253 62.811,103.736 62.665,103.313C62.51,102.86 62.394,102.395 62.321,101.923C62.276,101.639 62.222,101.293 62.166,100.933C61.921,99.361 61.731,97.781 61.597,96.195C61.597,96.195 61.597,96.195 61.597,96.195C61.413,94.026 61.276,91.854 61.185,89.679C61.176,89.469 61.168,89.259 61.159,89.052C61.081,87.174 61.034,85.294 61.019,83.414L61.015,82.985ZM78.84,81.111C78.131,81.82 78.131,82.972 78.84,83.681L90.806,95.646C91.515,96.355 92.666,96.355 93.375,95.646C94.084,94.937 94.084,93.786 93.375,93.077L81.409,81.111C80.7,80.402 79.549,80.402 78.84,81.111ZM33.113,95.646C33.822,96.355 34.973,96.355 35.682,95.646L47.648,83.681C48.357,82.972 48.357,81.82 47.648,81.111C46.939,80.402 45.788,80.402 45.079,81.111L33.113,93.077C32.404,93.786 32.404,94.937 33.113,95.646ZM38.361,40.86C38.718,40.391 39.292,40.14 39.879,40.195C40.466,40.25 40.983,40.604 41.247,41.131C41.259,41.126 41.259,41.127 41.259,41.128C41.978,42.566 41.89,44.276 41.028,45.633C38.494,49.705 37.05,54.515 37.05,59.659C37.05,64.798 38.491,69.603 40.992,73.692C41.851,75.046 41.938,76.752 41.221,78.186C41.253,78.203 41.253,78.203 41.252,78.204C40.988,78.732 40.47,79.088 39.881,79.143C39.292,79.198 38.717,78.946 38.359,78.476C34.495,73.199 32.205,66.694 32.205,59.659C32.205,52.628 34.491,46.127 38.361,40.86ZM86.748,41.114C87.012,40.585 87.53,40.23 88.119,40.174C88.708,40.119 89.283,40.371 89.641,40.841C93.505,46.118 95.795,52.623 95.795,59.659C95.795,66.689 93.509,73.19 89.639,78.457C89.282,78.926 88.708,79.178 88.121,79.123C87.534,79.068 87.017,78.714 86.753,78.186C86.741,78.191 86.741,78.19 86.741,78.19C86.022,76.751 86.11,75.041 86.972,73.684C89.506,69.612 90.95,64.803 90.95,59.659C90.95,54.519 89.509,49.714 87.008,45.626C86.149,44.271 86.062,42.566 86.779,41.131C86.747,41.115 86.747,41.114 86.748,41.114ZM66.033,75.982C74.299,74.776 80.655,67.651 80.655,59.053C80.655,49.61 72.988,41.944 63.546,41.944C54.103,41.944 46.437,49.61 46.437,59.053C46.437,67.651 52.793,74.776 61.059,75.982L61.063,75.811C61.071,75.449 61.08,75.083 61.089,74.729C61.133,72.927 61.21,71.126 61.32,69.327C61.32,69.327 61.32,69.327 61.32,69.327C61.465,66.967 61.672,64.611 61.941,62.262C61.953,62.154 61.965,62.049 61.977,61.949C62.058,61.24 62.176,60.537 62.329,59.841C62.457,59.26 62.609,58.572 62.702,58.151C62.759,57.892 62.867,57.648 63.019,57.432C63.067,57.364 63.119,57.291 63.171,57.218C63.257,57.096 63.397,57.023 63.546,57.023C63.695,57.023 63.835,57.096 63.921,57.218C63.972,57.291 64.024,57.364 64.072,57.432C64.224,57.648 64.332,57.892 64.389,58.151C64.482,58.572 64.634,59.26 64.762,59.841C64.916,60.537 65.033,61.24 65.115,61.949C65.126,62.049 65.138,62.154 65.151,62.262C65.42,64.611 65.627,66.967 65.771,69.327C65.771,69.327 65.771,69.327 65.771,69.327C65.882,71.126 65.959,72.927 66.003,74.729C66.011,75.083 66.02,75.449 66.029,75.811L66.033,75.982ZM93.375,23.775C92.666,23.066 91.515,23.066 90.806,23.775L78.84,35.741C78.131,36.45 78.131,37.601 78.84,38.31C79.549,39.019 80.7,39.019 81.409,38.31L93.375,26.344C94.084,25.635 94.084,24.484 93.375,23.775ZM47.648,38.31C48.357,37.601 48.357,36.45 47.648,35.741L35.682,23.775C34.973,23.066 33.822,23.066 33.113,23.775C32.404,24.484 32.404,25.635 33.113,26.344L45.079,38.31C45.788,39.019 46.939,39.019 47.648,38.31Z"/>
</svg>
