<?xml version="1.0" encoding="UTF-8" standalone="no"?>
<!DOCTYPE svg PUBLIC "-//W3C//DTD SVG 1.1//EN" "http://www.w3.org/Graphics/SVG/1.1/DTD/svg11.dtd">
<svg width="100%" height="100%" viewBox="0 0 128 128" version="1.1" xmlns="http://www.w3.org/2000/svg" xmlns:xlink="http://www.w3.org/1999/xlink" xml:space="preserve" xmlns:serif="http://www.serif.com/" style="fill-rule:evenodd;clip-rule:evenodd;stroke-linejoin:round;stroke-miterlimit:1.41421;">
    <g transform="matrix(1.35938,0,0,1.35938,-23,-23)">
        <path d="M128,128L0,128L0,0L128,0L128,128ZM70.84,76.009C80.758,73.061 88,63.87 88,53C88,39.754 77.246,29 64,29C50.754,29 40,39.754 40,53C40,63.87 47.242,73.061 57.16,76.009L54.23,86.721C53.444,88.068 53,89.597 53,91.217C53,96.617 57.929,101 64,101C70.071,101 75,96.617 75,91.217C75,89.597 74.556,88.068 73.77,86.721L70.84,76.009ZM71.994,85.864C72.637,87.102 73,88.509 73,90C73,94.967 68.967,99 64,99C59.033,99 55,94.967 55,90C55,88.509 55.363,87.102 56.006,85.864L64,53L71.994,85.864ZM62.179,57.658L59.007,69.254C52.058,67.119 47,60.645 47,53C47,43.617 54.617,36 64,36C73.383,36 81,43.617 81,53C81,60.645 75.942,67.119 68.993,69.254L65.821,57.658C67.681,56.929 69,55.117 69,53C69,50.24 66.76,48 64,48C61.24,48 59,50.24 59,53C59,55.117 60.319,56.929 62.179,57.658Z"/>
    </g>
</svg>
