<?xml version="1.0" encoding="UTF-8" standalone="no"?>
<!DOCTYPE svg PUBLIC "-//W3C//DTD SVG 1.1//EN" "http://www.w3.org/Graphics/SVG/1.1/DTD/svg11.dtd">
<svg width="100%" height="100%" viewBox="0 0 128 128" version="1.1" xmlns="http://www.w3.org/2000/svg" xmlns:xlink="http://www.w3.org/1999/xlink" xml:space="preserve" style="fill-rule:evenodd;clip-rule:evenodd;stroke-linejoin:round;stroke-miterlimit:1.41421;">
    <g id="Template">
        <g id="StealthField">
            <path d="M128,0L128,128L0,128L0,0L128,0ZM64.593,18.004C66.739,18.045 68.875,18.206 70.997,18.53C75.295,19.188 79.495,20.461 83.435,22.302C88.121,24.491 92.428,27.478 96.128,31.091C99.826,34.701 102.912,38.932 105.213,43.559C107.143,47.442 108.517,51.597 109.281,55.865C110.139,60.663 110.229,65.598 109.553,70.425C108.897,75.106 107.511,79.68 105.458,83.939C103.053,88.928 99.74,93.469 95.731,97.291C91.58,101.249 86.693,104.424 81.383,106.595C75.878,108.846 69.946,109.999 64,109.999C58.054,109.999 52.122,108.846 46.617,106.595C41.307,104.424 36.42,101.249 32.269,97.291C28.26,93.469 24.947,88.928 22.542,83.939C20.489,79.68 19.103,75.106 18.447,70.425C17.771,65.598 17.861,60.663 18.719,55.865C19.483,51.597 20.857,47.442 22.787,43.559C25.088,38.932 28.174,34.701 31.872,31.091C35.572,27.478 39.879,24.491 44.565,22.302C48.505,20.461 52.705,19.188 57.003,18.53C59.125,18.206 61.261,18.045 63.407,18.004C64.002,18 64,18 64.593,18.004ZM43.301,68.181C43.46,70.145 43.705,72.101 44.033,74.042C45.478,82.576 48.562,90.817 53.074,98.203C53.532,98.952 54.004,99.691 54.491,100.42C53.038,100.042 51.607,99.577 50.208,99.025C45.839,97.301 41.806,94.748 38.369,91.548C35.051,88.459 32.294,84.775 30.276,80.716C28.559,77.262 27.382,73.545 26.798,69.732C26.719,69.217 26.651,68.7 26.594,68.181L43.301,68.181ZM101.406,68.181L101.39,68.323C100.949,72.172 99.908,75.948 98.311,79.479C96.441,83.613 93.815,87.398 90.607,90.606C87.29,93.923 83.358,96.616 79.061,98.497C77.265,99.283 75.408,99.925 73.513,100.418C73.716,100.114 73.916,99.808 74.114,99.5C78.928,92.002 82.248,83.565 83.834,74.797C84.23,72.608 84.519,70.399 84.699,68.181L101.406,68.181ZM76.3,68.181C76.184,69.453 76.028,70.72 75.829,71.982C74.959,77.496 73.312,82.885 70.953,87.944C69.344,91.395 67.396,94.663 65.181,97.757C64.793,98.287 64.4,98.811 64,99.331C62.371,97.212 60.867,95.003 59.525,92.691C56.725,87.867 54.605,82.651 53.245,77.242C52.496,74.262 51.993,71.236 51.704,68.181L76.3,68.181ZM54.489,27.578C52.298,28.15 50.158,28.92 48.106,29.879C40.416,33.472 34.055,39.683 30.276,47.283C28.699,50.455 27.576,53.85 26.953,57.337C26.806,58.157 26.687,58.981 26.595,59.808C32.168,59.785 37.741,59.722 43.315,59.647C43.496,57.487 43.78,55.335 44.166,53.202C45.752,44.434 49.072,35.997 53.886,28.5C54.085,28.19 54.286,27.883 54.489,27.578ZM73.508,27.577C73.995,28.307 74.468,29.046 74.926,29.796C79.438,37.183 82.522,45.423 83.967,53.957C84.267,55.732 84.497,57.519 84.656,59.312C90.235,59.355 95.811,59.457 101.386,59.647C101.226,58.254 100.987,56.869 100.672,55.502C99.844,51.919 98.483,48.464 96.649,45.277C92.646,38.318 86.416,32.722 79.061,29.502C77.264,28.716 75.406,28.072 73.508,27.577ZM76.244,59.288C75.948,56.414 75.461,53.565 74.755,50.757C73.395,45.348 71.275,40.132 68.475,35.308C67.133,32.996 65.629,30.787 64,28.668C63.874,28.832 63.748,28.995 63.622,29.159C61.336,32.205 59.314,35.432 57.626,38.849C54.956,44.254 53.111,50.062 52.171,56.017C51.987,57.184 51.84,58.354 51.727,59.529C59.9,59.412 68.073,59.302 76.244,59.288Z"/>
        </g>
    </g>
</svg>
