<?xml version="1.0" encoding="UTF-8" standalone="no"?>
<!DOCTYPE svg PUBLIC "-//W3C//DTD SVG 1.1//EN" "http://www.w3.org/Graphics/SVG/1.1/DTD/svg11.dtd">
<svg width="100%" height="100%" viewBox="0 0 128 128" version="1.1" xmlns="http://www.w3.org/2000/svg" xmlns:xlink="http://www.w3.org/1999/xlink" xml:space="preserve" xmlns:serif="http://www.serif.com/" style="fill-rule:evenodd;clip-rule:evenodd;stroke-linejoin:round;stroke-miterlimit:1.41421;">
    <path id="CommDecoding" d="M128,128L0,128L0,0L128,0L128,128ZM36.996,35.872C44.006,29.14 53.523,25 64,25C85.525,25 103,42.475 103,64C103,74.477 98.86,83.994 92.128,91.004L98.021,96.897L94.334,100.584L88.27,94.52C81.608,99.827 73.172,103 64,103C42.475,103 25,85.525 25,64C25,54.828 28.173,46.392 33.48,39.73L29.444,35.694L33.131,32.006L36.996,35.872ZM34.607,40.857C30.536,46.234 28.12,52.931 28.12,60.189C28.12,77.888 42.49,92.258 60.189,92.258C67.447,92.258 74.144,89.842 79.521,85.771L66.908,73.158C63.676,75.239 59.829,76.447 55.702,76.447C44.253,76.447 34.957,67.151 34.957,55.702C34.957,51.575 36.165,47.728 38.246,44.496L34.607,40.857ZM83.416,82.291C88.894,76.537 92.258,68.753 92.258,60.189C92.258,42.49 77.888,28.12 60.189,28.12C51.625,28.12 43.841,31.484 38.087,36.962L41.609,40.485C45.31,37.055 50.263,34.957 55.702,34.957C67.151,34.957 76.447,44.253 76.447,55.702C76.447,61.141 74.349,66.094 70.92,69.795L83.416,82.291ZM38.9,45.15C37.448,47.659 36.617,50.571 36.617,53.675C36.617,63.09 44.26,70.733 53.675,70.733C56.779,70.733 59.691,69.902 62.2,68.45L38.9,45.15ZM66.284,65.159C69.047,62.127 70.733,58.096 70.733,53.675C70.733,44.26 63.09,36.617 53.675,36.617C49.254,36.617 45.223,38.303 42.191,41.066L66.284,65.159Z"/>
</svg>
