<?xml version="1.0" encoding="UTF-8" standalone="no"?><!DOCTYPE svg PUBLIC "-//W3C//DTD SVG 1.1//EN" "http://www.w3.org/Graphics/SVG/1.1/DTD/svg11.dtd"><svg width="100%" height="100%" viewBox="0 0 128 128" version="1.1" xmlns="http://www.w3.org/2000/svg" xmlns:xlink="http://www.w3.org/1999/xlink" xml:space="preserve" xmlns:serif="http://www.serif.com/" style="fill-rule:evenodd;clip-rule:evenodd;stroke-linejoin:round;stroke-miterlimit:1.41421;"><path id="SecurityScans" d="M128,128l-128,0l0,-128l128,0l0,128Zm-44.894,-14.074c-18.783,0.069 -37.567,0.14 -56.35,-0.039c-4.324,-0.068 -8.242,-3.814 -8.285,-8.339c-0.079,-24.939 -0.237,-49.879 0,-74.817c0.069,-4.325 3.815,-8.242 8.34,-8.285c4.301,-0.014 8.602,-0.022 12.903,-0.027c0.074,-1.015 0.241,-1.991 0.573,-2.9c1.164,-3.179 4.368,-5.475 7.831,-5.507c8.182,-0.026 16.365,-0.001 24.548,-0.001c4.374,0.014 8.35,3.754 8.394,8.34c0,0.03 0,0.059 0,0.088c4.304,0.004 8.609,0.006 12.913,0.006c4.374,0.014 8.35,3.754 8.394,8.34c0.041,13.105 0.105,26.21 0.121,39.315c-1.546,-1.458 -3.275,-2.725 -5.147,-3.762c0.028,-11.862 -0.039,-23.723 -0.302,-35.58c-0.044,-1.566 -1.441,-2.96 -3.025,-2.986c-4.284,-0.04 -8.567,-0.065 -12.851,-0.079c-0.041,1.292 -0.196,2.535 -0.612,3.671c-1.164,3.179 -4.368,5.475 -7.831,5.508c-8.219,0.026 -16.438,0.077 -24.657,-0.001c-4.324,-0.068 -8.242,-3.814 -8.285,-8.339c-0.001,-0.258 -0.005,-0.518 -0.011,-0.779c-4.298,0.011 -8.596,0.019 -12.894,0.019c-1.614,0.005 -3.06,1.433 -3.075,3.047c-0.079,24.919 -0.552,49.844 0.001,74.757c0.044,1.565 1.441,2.96 3.025,2.985c14.291,0.137 28.585,0.3 42.877,0.272c3.051,2.318 6.64,3.963 10.546,4.712c0.046,0.009 0.093,0.018 0.14,0.026l0.016,0.003l0.109,0.02l0.004,0.001c0.85,0.153 1.714,0.265 2.59,0.331Zm2.108,-49.976c8.9,0.085 17.503,5.317 21.643,13.16c3.548,6.721 3.739,15.127 0.468,22.018c-4.609,9.711 -15.966,15.756 -26.931,13.653c-10.055,-1.929 -18.398,-10.744 -19.757,-20.905c-1.039,-7.773 1.886,-15.967 7.639,-21.323c4.469,-4.16 10.504,-6.545 16.62,-6.603c0.106,0 0.212,0 0.318,0Zm-0.284,5.327c-8.709,0.083 -16.947,6.684 -18.767,15.298c-1.341,6.341 0.767,13.294 5.407,17.825c5.323,5.198 13.776,6.932 20.778,4.07c6.171,-2.524 10.842,-8.443 11.812,-15.06c1.193,-8.14 -3.447,-16.825 -10.953,-20.332c-2.58,-1.205 -5.446,-1.81 -8.277,-1.801Zm-10.084,14.768l6.759,6.759l13.659,-13.659l4.224,4.224l-17.883,17.884l-10.983,-10.984l4.224,-4.224Zm-33.071,7.87c0,-0.883 -0.351,-1.73 -0.975,-2.354c-0.624,-0.624 -1.471,-0.975 -2.354,-0.975c-1.973,0 -4.464,0 -6.436,0c-0.883,0 -1.73,0.351 -2.355,0.975c-0.624,0.624 -0.975,1.471 -0.975,2.354c0,0.883 0.351,1.73 0.975,2.354c0.625,0.625 1.472,0.975 2.355,0.975c1.972,0 4.463,0 6.436,0c0.883,0 1.73,-0.35 2.354,-0.975c0.624,-0.624 0.975,-1.471 0.975,-2.354c0,0 0,0 0,0Zm17.866,-3.329c0,1.081 0.068,2.147 0.199,3.193l0.002,0.018c0.149,1.176 0.378,2.327 0.682,3.447l-9.871,0c-0.883,0 -1.73,-0.35 -2.354,-0.975c-0.624,-0.624 -0.975,-1.471 -0.975,-2.354c0,-0.883 0.351,-1.73 0.975,-2.354c0.624,-0.624 1.471,-0.975 2.354,-0.975l8.988,0Zm-4.438,-11.763c0,-0.883 -0.351,-1.73 -0.975,-2.354c-0.624,-0.625 -1.471,-0.976 -2.354,-0.976c-5.05,0 -14.592,0 -19.643,0c-0.882,0 -1.729,0.351 -2.354,0.976c-0.624,0.624 -0.975,1.471 -0.975,2.354c0,0.883 0.351,1.729 0.975,2.354c0.625,0.624 1.472,0.975 2.354,0.975c5.051,0 14.593,0 19.643,0c0.883,0 1.73,-0.351 2.354,-0.975c0.624,-0.625 0.975,-1.471 0.975,-2.354c0,0 0,0 0,0Zm9.409,-3.33c-1.488,2.011 -2.686,4.249 -3.533,6.651c-0.8,-0.055 -1.556,-0.397 -2.126,-0.967c-0.625,-0.625 -0.976,-1.471 -0.976,-2.354c0,-0.883 0.351,-1.73 0.976,-2.354c0.624,-0.625 1.471,-0.976 2.354,-0.976l3.305,0Zm14.184,-9.543l-5.504,0c-1.839,0 -3.329,-1.491 -3.329,-3.33c0,-0.882 0.35,-1.729 0.975,-2.354c0.624,-0.624 1.471,-0.975 2.354,-0.975c4.19,0 11.346,0 15.536,0c1.839,0 3.329,1.491 3.329,3.329c0,0 0,0 0,0c0,1.374 -0.831,2.553 -2.018,3.061c-1.643,-0.334 -3.343,-0.509 -5.084,-0.509c-2.159,0 -4.256,0.27 -6.259,0.778Zm-37.021,-3.33c0,-0.882 -0.351,-1.729 -0.975,-2.354c-0.624,-0.624 -1.471,-0.975 -2.354,-0.975c-1.973,0 -4.464,0 -6.436,0c-0.883,0 -1.73,0.351 -2.355,0.975c-0.624,0.625 -0.975,1.472 -0.975,2.354c0,0.883 0.351,1.73 0.975,2.355c0.625,0.624 1.472,0.975 2.355,0.975c1.972,0 4.463,0 6.436,0c0.883,0 1.73,-0.351 2.354,-0.975c0.624,-0.625 0.975,-1.472 0.975,-2.355c0,0 0,0 0,0Zm23.971,0c0,-1.838 -1.491,-3.329 -3.33,-3.329c-3.945,0 -10.481,0 -14.426,0c-1.839,0 -3.329,1.491 -3.329,3.329c0,1.839 1.49,3.33 3.329,3.33c3.945,0 10.481,0 14.426,0c1.839,0 3.33,-1.491 3.33,-3.33c0,0 0,0 0,0Zm-17.978,-13.538c0,-0.883 -0.351,-1.73 -0.975,-2.354c-0.625,-0.625 -1.471,-0.976 -2.354,-0.976c-3.49,0 -8.94,0 -12.429,0c-0.883,0 -1.73,0.351 -2.355,0.976c-0.624,0.624 -0.975,1.471 -0.975,2.354c0,0.883 0.351,1.729 0.975,2.354c0.625,0.624 1.472,0.975 2.355,0.975c3.489,0 8.939,0 12.429,0c0.883,0 1.729,-0.351 2.354,-0.975c0.624,-0.625 0.975,-1.471 0.975,-2.354c0,0 0,0 0,0Zm44.389,0c0,-0.883 -0.35,-1.73 -0.975,-2.354c-0.624,-0.625 -1.471,-0.976 -2.354,-0.976c-7.303,0 -24.657,0 -31.96,0c-0.883,0 -1.73,0.351 -2.354,0.976c-0.625,0.624 -0.976,1.471 -0.976,2.354c0,0.883 0.351,1.729 0.976,2.354c0.624,0.624 1.471,0.975 2.354,0.975c7.303,0 24.657,0 31.96,0c0.883,0 1.73,-0.351 2.354,-0.975c0.625,-0.625 0.975,-1.471 0.975,-2.354c0,0 0,0 0,0Zm-44.006,-27.744c-1.585,0.015 -3.011,1.41 -3.046,3.006c-0.033,2.072 -0.045,4.144 0.001,6.216c0.044,1.565 1.441,2.96 3.025,2.985c8.205,0.078 16.413,0.181 24.617,-0.001c1.566,-0.044 2.96,-1.441 2.985,-3.025c0.02,-2.065 0.045,-4.131 -0.001,-6.195c-0.044,-1.566 -1.441,-2.96 -3.025,-2.986c-8.185,-0.077 -16.371,-0.026 -24.556,0Z"/></svg>