<?xml version="1.0" encoding="UTF-8" standalone="no"?>
<!DOCTYPE svg PUBLIC "-//W3C//DTD SVG 1.1//EN" "http://www.w3.org/Graphics/SVG/1.1/DTD/svg11.dtd">
<svg width="100%" height="100%" viewBox="0 0 128 128" version="1.1" xmlns="http://www.w3.org/2000/svg" xmlns:xlink="http://www.w3.org/1999/xlink" xml:space="preserve" xmlns:serif="http://www.serif.com/" style="fill-rule:evenodd;clip-rule:evenodd;stroke-linejoin:round;stroke-miterlimit:1.41421;">
    <path id="CommDecoding" d="M128,128L0,128L0,0L128,0L128,128ZM73.203,81.511L67.97,111.177C65.327,111.366 62.673,111.366 60.03,111.177L54.797,81.511L64,86.824L73.203,81.511ZM54.882,31.786C56.77,28.626 57.751,25.107 57.825,21.229C61.909,20.498 66.091,20.498 70.175,21.229C70.249,25.107 71.23,28.626 73.118,31.786L88.87,40.88L88.87,59.005C90.674,62.587 93.372,65.46 96.963,67.626C95.554,71.529 93.463,75.15 90.787,78.322C86.818,76.13 82.655,75.257 78.297,75.702L64,83.956L49.703,75.702C45.345,75.257 41.182,76.13 37.213,78.322C34.537,75.15 32.446,71.529 31.037,67.626C34.628,65.46 37.326,62.587 39.13,59.005L39.13,40.88L54.882,31.786ZM64,33.336L44.61,44.531L44.61,66.921L64,78.116L83.39,66.921L83.39,44.531L64,33.336ZM77.036,62.765L64.487,70.01L64.487,55.537L77.036,48.292L77.036,62.765ZM63.513,55.523L63.513,70.01L50.964,62.765L50.964,48.278L63.513,55.523ZM76.564,47.44L64.012,54.687L51.448,47.433L64,40.187L76.564,47.44ZM45.226,34.493L36.647,39.447L36.647,50.456L14,31.45C15.158,29.067 16.484,26.769 17.97,24.575L45.226,34.493ZM82.774,34.493L110.03,24.575C111.516,26.769 112.842,29.067 114,31.45L91.353,50.456L91.353,39.447L82.774,34.493Z"/>
</svg>
